<?xml version="1.0" ?>
<svg xmlns="http://www.w3.org/2000/svg" version="1.1" width="128" height="128">
  <defs/>
  <g>
    <path d="M 63.608924865722656 64.50721740722656 C 63.608489990234375 64.50877380371094 63.61165237426758 64.5053939819336 63.61079406738281 64.51616668701172 C 63.603363037109375 64.50394439697266 63.6068000793457 64.52172088623047 63.605533599853516 64.50971984863281 C 63.57586669921875 64.52783203125 63.574954986572266 64.53723907470703 63.56479263305664 64.56416320800781 C 63.545616149902344 64.5758285522461 63.53953170776367 64.59479522705078 63.515018463134766 64.62039184570312 C 63.49846649169922 64.63784790039062 63.481483459472656 64.6541976928711 63.43973159790039 64.69468688964844 C 63.45097732543945 64.71212005615234 63.43001937866211 64.72078704833984 63.397674560546875 64.75785064697266 C 63.42445755004883 64.76782989501953 63.41674041748047 64.77217102050781 63.4205322265625 64.8053970336914 C 63.449642181396484 64.78309631347656 63.46903991699219 64.79803466796875 63.49726486206055 64.81233978271484 C 63.51362609863281 64.78700256347656 63.56367111206055 64.81097412109375 63.606815338134766 64.79927825927734 C 63.608985900878906 64.78536987304688 63.64017105102539 64.81137084960938 63.66703796386719 64.77804565429688 C 63.62368392944336 64.75363159179688 63.613162994384766 64.73383331298828 63.61050796508789 64.68649291992188 C 63.55345153808594 64.62294006347656 63.54011917114258 64.56636047363281 63.5401611328125 64.50585174560547 C 63.497928619384766 64.44062042236328 63.485469818115234 64.35692596435547 63.48929214477539 64.32180786132812 C 63.482234954833984 64.27631378173828 63.45872497558594 64.21758270263672 63.47807693481445 64.21873474121094 C 63.4827766418457 64.19485473632812 63.4648323059082 64.154296875 63.51780700683594 64.17154693603516 C 63.51971435546875 64.1568832397461 63.52276611328125 64.13235473632812 63.581031799316406 64.15219116210938 C 63.5807991027832 64.14556884765625 63.59625244140625 64.1305160522461 63.642494201660156 64.16840362548828 C 63.64068603515625 64.18522644042969 63.63680648803711 64.19268035888672 63.67060470581055 64.25375366210938 C 63.64405822753906 64.29637145996094 63.637107849121094 64.32730102539062 63.663387298583984 64.3653564453125 C 63.617897033691406 64.39283752441406 63.612701416015625 64.43071746826172 63.62844467163086 64.44772338867188" stroke-width="2.0" fill="rgb(252, 194, 27)" opacity="1.0" stroke="rgb(252, 194, 27)" stroke-opacity="1.0" stroke-linecap="round" stroke-linejoin="round"/>
    <path d="M 63.609527587890625 64.50703430175781 C 63.60893249511719 64.50836181640625 63.612274169921875 64.50518035888672 63.61118698120117 64.51576232910156 C 63.604026794433594 64.50370025634766 63.60734939575195 64.5213623046875 63.60603332519531 64.50959014892578 C 63.57637023925781 64.52764129638672 63.57554244995117 64.5372543334961 63.564701080322266 64.56371307373047 C 63.54592514038086 64.57582092285156 63.53974151611328 64.59452819824219 63.515235900878906 64.6203384399414 C 63.49879837036133 64.63774108886719 63.4818000793457 64.65404510498047 63.43977737426758 64.69483947753906 C 63.45124816894531 64.71184539794922 63.43022155761719 64.7207260131836 63.397666931152344 64.75777435302734 C 63.42483139038086 64.7676773071289 63.4168701171875 64.77201080322266 63.420711517333984 64.80551147460938 C 63.449703216552734 64.78286743164062 63.46896743774414 64.79795837402344 63.49748992919922 64.81226348876953 C 63.51394271850586 64.7865982055664 63.563995361328125 64.81096649169922 63.60690689086914 64.79903411865234 C 63.609031677246094 64.78498077392578 63.64035415649414 64.81127166748047 63.66728973388672 64.7776107788086 C 63.62381362915039 64.75291442871094 63.61368942260742 64.73388671875 63.61097717285156 64.68622589111328 C 63.55344772338867 64.6224594116211 63.54039001464844 64.5667495727539 63.54039001464844 64.5058822631836 C 63.497581481933594 64.44052124023438 63.4854621887207 64.35722351074219 63.48935317993164 64.32215881347656 C 63.48194122314453 64.27631378173828 63.45859909057617 64.21768188476562 63.47800064086914 64.21912384033203 C 63.48268508911133 64.19473266601562 63.46476364135742 64.15438079833984 63.51803207397461 64.17176055908203 C 63.51959228515625 64.1570053100586 63.522586822509766 64.1325454711914 63.58115768432617 64.15251159667969 C 63.58099365234375 64.14595794677734 63.596431732177734 64.13048553466797 63.642547607421875 64.16875457763672 C 63.640769958496094 64.1852035522461 63.636775970458984 64.19275665283203 63.67068099975586 64.2537612915039 C 63.644142150878906 64.29642486572266 63.63715362548828 64.32745361328125 63.66363525390625 64.36518859863281 C 63.618167877197266 64.39268493652344 63.61294174194336 64.43052673339844 63.62885284423828 64.44739532470703" stroke-width="2.0" fill="rgb(255, 0, 0)" opacity="1.0" stroke="rgb(255, 0, 0)" stroke-opacity="1.0" stroke-linecap="round" stroke-linejoin="round"/>
    <path d="M 63.60978698730469 64.5074234008789 C 63.60900115966797 64.50872039794922 63.61251449584961 64.50555419921875 63.611263275146484 64.51611328125 C 63.604366302490234 64.50408935546875 63.607540130615234 64.52183532714844 63.60617446899414 64.51008605957031 C 63.57643127441406 64.52816772460938 63.57568359375 64.53778076171875 63.56451416015625 64.56387329101562 C 63.54602813720703 64.57637023925781 63.539825439453125 64.59487915039062 63.51533889770508 64.62059020996094 C 63.49906921386719 64.63807678222656 63.48191833496094 64.65418243408203 63.43952178955078 64.6953125 C 63.451263427734375 64.71211242675781 63.43012237548828 64.72097778320312 63.39733123779297 64.75825500488281 C 63.42484664916992 64.76799774169922 63.4166374206543 64.77220916748047 63.4205322265625 64.80593872070312 C 63.449554443359375 64.7831039428711 63.468666076660156 64.79820251464844 63.49746322631836 64.81256103515625 C 63.51400375366211 64.78656768798828 63.56391906738281 64.81116485595703 63.6069221496582 64.79910278320312 C 63.60889434814453 64.7848892211914 63.64039993286133 64.81141662597656 63.66734313964844 64.77759552001953 C 63.62395095825195 64.75271606445312 63.61394500732422 64.73416137695312 63.61097717285156 64.68622589111328 C 63.553279876708984 64.62248229980469 63.54049301147461 64.56709289550781 63.54020690917969 64.50602722167969 C 63.49720764160156 64.44062042236328 63.4853515625 64.35745239257812 63.48934555053711 64.32252502441406 C 63.481746673583984 64.27637481689453 63.458404541015625 64.21788787841797 63.47783660888672 64.21947479248047 C 63.48255157470703 64.19477081298828 63.46476364135742 64.15460968017578 63.518001556396484 64.17192840576172 C 63.519535064697266 64.15713500976562 63.52249526977539 64.13270568847656 63.58103942871094 64.15270233154297 C 63.581077575683594 64.14616394042969 63.596492767333984 64.1305923461914 63.642555236816406 64.16898345947266 C 63.64095687866211 64.1854476928711 63.63689041137695 64.19303894042969 63.670692443847656 64.25397491455078 C 63.64438247680664 64.2968521118164 63.637290954589844 64.32789611816406 63.66364288330078 64.3654556274414 C 63.618309020996094 64.39308166503906 63.61322021484375 64.43084716796875 63.62882995605469 64.44763946533203" stroke-width="2.0" fill="rgb(0, 255, 0)" opacity="1.0" stroke="rgb(0, 255, 0)" stroke-opacity="1.0" stroke-linecap="round" stroke-linejoin="round"/>
    <path d="M 63.609859466552734 64.50827026367188 C 63.6086311340332 64.50942993164062 63.612545013427734 64.50636291503906 63.61091613769531 64.51676177978516 C 63.60456848144531 64.50503540039062 63.60737228393555 64.52275848388672 63.60615158081055 64.51107025146484 C 63.57620620727539 64.52914428710938 63.57551193237305 64.53863525390625 63.564327239990234 64.56439971923828 C 63.546043395996094 64.57723999023438 63.53987503051758 64.59561920166016 63.515506744384766 64.62102508544922 C 63.49934005737305 64.63875579833984 63.4820556640625 64.65446472167969 63.439273834228516 64.6960220336914 C 63.451202392578125 64.71277618408203 63.42989730834961 64.72137451171875 63.396949768066406 64.75914001464844 C 63.42469787597656 64.76851654052734 63.4163818359375 64.77259826660156 63.42032241821289 64.80655670166016 C 63.449344635009766 64.78351593017578 63.46834945678711 64.79875183105469 63.49748992919922 64.81302642822266 C 63.51389694213867 64.78662872314453 63.56367111206055 64.81153106689453 63.60689163208008 64.79934692382812 C 63.60867691040039 64.78487396240234 63.640201568603516 64.81185150146484 63.66729736328125 64.77791595458984 C 63.62415313720703 64.75281524658203 63.613990783691406 64.73458099365234 63.61083984375 64.68644714355469 C 63.553070068359375 64.62273406982422 63.54055404663086 64.56739044189453 63.539756774902344 64.5062026977539 C 63.4968376159668 64.44080352783203 63.48516845703125 64.35761260986328 63.48929214477539 64.32296752929688 C 63.481605529785156 64.27625274658203 63.4581184387207 64.21807861328125 63.477596282958984 64.21981048583984 C 63.48242950439453 64.19465637207031 63.464900970458984 64.15486145019531 63.51784133911133 64.17208862304688 C 63.519527435302734 64.15718841552734 63.5225715637207 64.1328353881836 63.580848693847656 64.15281677246094 C 63.58124923706055 64.146240234375 63.59650802612305 64.13081359863281 63.64258575439453 64.16917419433594 C 63.641273498535156 64.18585205078125 63.63715362548828 64.1936264038086 63.6706428527832 64.25428009033203 C 63.64469909667969 64.2974624633789 63.63750076293945 64.32855987548828 63.663551330566406 64.36600494384766 C 63.61833190917969 64.39385986328125 63.613525390625 64.4314956665039 63.6285400390625 64.44828796386719" stroke-width="2.0" fill="rgb(0, 0, 255)" opacity="1.0" stroke="rgb(0, 0, 255)" stroke-opacity="1.0" stroke-linecap="round" stroke-linejoin="round"/>
  </g>
</svg>
