<?xml version="1.0" ?>
<svg xmlns="http://www.w3.org/2000/svg" version="1.1" width="128" height="128">
  <defs/>
  <g>
    <path d="M 63.608917236328125 64.50720977783203 C 63.608489990234375 64.50878143310547 63.61164093017578 64.5053939819336 63.61079406738281 64.51618194580078 C 63.603355407714844 64.50394439697266 63.6068000793457 64.521728515625 63.605533599853516 64.50971984863281 C 63.57585906982422 64.52784729003906 63.574954986572266 64.5372543334961 63.56478500366211 64.56417846679688 C 63.54560852050781 64.57584381103516 63.53953170776367 64.59481048583984 63.515010833740234 64.62040710449219 C 63.49846649169922 64.63786315917969 63.481468200683594 64.6541976928711 63.43973159790039 64.69468688964844 C 63.45096969604492 64.71212005615234 63.43001937866211 64.72078704833984 63.397674560546875 64.75785827636719 C 63.42445755004883 64.76782989501953 63.416725158691406 64.77217864990234 63.42052459716797 64.80538940429688 C 63.449642181396484 64.7831039428711 63.46903991699219 64.79804229736328 63.49726486206055 64.81233978271484 C 63.51361846923828 64.78700256347656 63.563663482666016 64.81098175048828 63.606815338134766 64.79927825927734 C 63.608978271484375 64.7853775024414 63.64017105102539 64.81136322021484 63.667030334472656 64.77804565429688 C 63.62367248535156 64.75363159179688 63.613155364990234 64.73382568359375 63.61049270629883 64.68649291992188 C 63.55344772338867 64.6229476928711 63.540103912353516 64.56635284423828 63.54014587402344 64.50585174560547 C 63.497928619384766 64.44061279296875 63.4854621887207 64.35691833496094 63.48928451538086 64.32180786132812 C 63.482234954833984 64.27632141113281 63.458717346191406 64.21759033203125 63.47806167602539 64.21873474121094 C 63.48276138305664 64.19486999511719 63.46482467651367 64.15431213378906 63.517791748046875 64.17155456542969 C 63.51971435546875 64.15689849853516 63.52276611328125 64.13236999511719 63.581024169921875 64.15219116210938 C 63.58079147338867 64.14557647705078 63.59624481201172 64.13052368164062 63.642494201660156 64.16840362548828 C 63.64068603515625 64.18524169921875 63.63680648803711 64.19268035888672 63.67060470581055 64.25375366210938 C 63.644065856933594 64.29637908935547 63.63710021972656 64.32730102539062 63.66337203979492 64.3653564453125 C 63.617897033691406 64.3928451538086 63.612693786621094 64.43071746826172 63.62843704223633 64.44772338867188" stroke-width="2.0" fill="rgb(252, 194, 27)" opacity="1.0" stroke="rgb(252, 194, 27)" stroke-opacity="1.0" stroke-linecap="round" stroke-linejoin="round"/>
    <path d="M 63.609527587890625 64.50704193115234 C 63.60893249511719 64.50837707519531 63.612266540527344 64.50518798828125 63.6111946105957 64.51577758789062 C 63.604026794433594 64.50371551513672 63.60734939575195 64.52137756347656 63.60602569580078 64.50959777832031 C 63.57637023925781 64.52765655517578 63.57554244995117 64.53726959228516 63.564701080322266 64.56373596191406 C 63.54592514038086 64.57583618164062 63.53974151611328 64.59455108642578 63.515228271484375 64.62035369873047 C 63.49879837036133 64.63775634765625 63.4818000793457 64.65404510498047 63.439762115478516 64.69483947753906 C 63.45124816894531 64.71184539794922 63.43022155761719 64.7207260131836 63.39765930175781 64.75778198242188 C 63.42483139038086 64.76768493652344 63.41686248779297 64.77201843261719 63.42070388793945 64.80551147460938 C 63.449703216552734 64.78288269042969 63.46895980834961 64.79795837402344 63.49748992919922 64.81227111816406 C 63.5139274597168 64.78660583496094 63.563987731933594 64.81097412109375 63.60690689086914 64.79903411865234 C 63.609031677246094 64.78499603271484 63.64035415649414 64.81127166748047 63.66728210449219 64.7776107788086 C 63.62380599975586 64.7529296875 63.61367416381836 64.73388671875 63.6109619140625 64.68623352050781 C 63.55344009399414 64.62246704101562 63.540374755859375 64.56673431396484 63.540374755859375 64.50588989257812 C 63.497581481933594 64.44052124023438 63.48544692993164 64.35721588134766 63.48933792114258 64.32215881347656 C 63.48194122314453 64.27632141113281 63.45859146118164 64.21768951416016 63.47799301147461 64.21912384033203 C 63.48268508911133 64.19474029541016 63.46476364135742 64.15438079833984 63.51801681518555 64.17176818847656 C 63.51958465576172 64.15701293945312 63.522579193115234 64.13255310058594 63.58115768432617 64.15251159667969 C 63.58098602294922 64.14596557617188 63.59641647338867 64.1304931640625 63.642547607421875 64.16875457763672 C 63.640769958496094 64.18521881103516 63.636775970458984 64.1927490234375 63.67068099975586 64.2537612915039 C 63.644142150878906 64.29643249511719 63.63715362548828 64.32745361328125 63.66362762451172 64.36519622802734 C 63.618167877197266 64.39268493652344 63.61293411254883 64.43052673339844 63.62884521484375 64.44739532470703" stroke-width="2.0" fill="rgb(255, 0, 0)" opacity="1.0" stroke="rgb(255, 0, 0)" stroke-opacity="1.0" stroke-linecap="round" stroke-linejoin="round"/>
    <path d="M 63.60978698730469 64.50743103027344 C 63.60900115966797 64.50873565673828 63.61251449584961 64.50556182861328 63.611263275146484 64.51612854003906 C 63.6043586730957 64.50409698486328 63.607547760009766 64.5218505859375 63.60616683959961 64.51009368896484 C 63.576416015625 64.52818298339844 63.57567596435547 64.53778839111328 63.56451416015625 64.56389617919922 C 63.54602813720703 64.57638549804688 63.539833068847656 64.59488677978516 63.51533889770508 64.62060546875 C 63.49906921386719 64.63809204101562 63.48191833496094 64.6541748046875 63.43952178955078 64.6953125 C 63.451263427734375 64.71211242675781 63.43012237548828 64.7209701538086 63.39733123779297 64.75826263427734 C 63.42483901977539 64.76799774169922 63.4166374206543 64.77220916748047 63.42052459716797 64.80593872070312 C 63.449554443359375 64.78311157226562 63.468666076660156 64.79820251464844 63.49746322631836 64.81256103515625 C 63.51399612426758 64.78657531738281 63.56391143798828 64.81117248535156 63.606929779052734 64.79911041259766 C 63.60889434814453 64.78490447998047 63.64039993286133 64.8114242553711 63.66734313964844 64.77760314941406 C 63.62395095825195 64.75272369384766 63.61394500732422 64.73416137695312 63.6109619140625 64.68623352050781 C 63.553279876708984 64.62248992919922 63.54047775268555 64.56709289550781 63.54020690917969 64.50603485107422 C 63.497215270996094 64.44062805175781 63.48534393310547 64.35746002197266 63.48933792114258 64.3225326538086 C 63.481754302978516 64.2763900756836 63.458404541015625 64.2178955078125 63.47783660888672 64.219482421875 C 63.48255157470703 64.19478607177734 63.46476364135742 64.15460968017578 63.518001556396484 64.17194366455078 C 63.519535064697266 64.15715026855469 63.52248764038086 64.1327133178711 63.581024169921875 64.15271759033203 C 63.58106994628906 64.14617156982422 63.59647750854492 64.13059997558594 63.642547607421875 64.16899108886719 C 63.64095687866211 64.18547058105469 63.63688278198242 64.19303894042969 63.670692443847656 64.25398254394531 C 63.64438247680664 64.29686737060547 63.637290954589844 64.3279037475586 63.66362762451172 64.365478515625 C 63.618309020996094 64.3930892944336 63.61322021484375 64.43085479736328 63.628814697265625 64.4476547241211" stroke-width="2.0" fill="rgb(0, 255, 0)" opacity="1.0" stroke="rgb(0, 255, 0)" stroke-opacity="1.0" stroke-linecap="round" stroke-linejoin="round"/>
    <path d="M 63.609859466552734 64.50827026367188 C 63.6086311340332 64.50943756103516 63.6125373840332 64.50636291503906 63.61091613769531 64.51676940917969 C 63.60456085205078 64.50503540039062 63.60737228393555 64.52275848388672 63.606143951416016 64.51107025146484 C 63.57620620727539 64.5291519165039 63.57551193237305 64.53863525390625 63.56431198120117 64.56440734863281 C 63.546043395996094 64.5772476196289 63.53987503051758 64.59562683105469 63.515506744384766 64.62102508544922 C 63.49934005737305 64.63875579833984 63.4820556640625 64.65445709228516 63.439266204833984 64.69601440429688 C 63.451194763183594 64.7127685546875 63.42989730834961 64.72137451171875 63.396949768066406 64.75914001464844 C 63.42469787597656 64.76851654052734 63.41637420654297 64.77259826660156 63.42030715942383 64.80655670166016 C 63.449344635009766 64.78352355957031 63.46834945678711 64.79875183105469 63.49748992919922 64.81302642822266 C 63.51388931274414 64.78663635253906 63.563663482666016 64.81153869628906 63.60689926147461 64.79934692382812 C 63.60867691040039 64.78487396240234 63.64020919799805 64.81185150146484 63.66728973388672 64.77791595458984 C 63.62415313720703 64.75282287597656 63.613990783691406 64.73458099365234 63.61083984375 64.68644714355469 C 63.553062438964844 64.62274932861328 63.54055404663086 64.56739807128906 63.539756774902344 64.50621032714844 C 63.496829986572266 64.44080352783203 63.48516082763672 64.35762023925781 63.48927688598633 64.3229751586914 C 63.481605529785156 64.27626037597656 63.45811080932617 64.21809387207031 63.47758865356445 64.21981811523438 C 63.48242950439453 64.1946792602539 63.464900970458984 64.15487670898438 63.5178337097168 64.1720962524414 C 63.5195198059082 64.15719604492188 63.52256393432617 64.13285064697266 63.580841064453125 64.15283203125 C 63.58124923706055 64.14624786376953 63.596492767333984 64.13082885742188 63.64258575439453 64.16918182373047 C 63.641265869140625 64.18586730957031 63.63715362548828 64.1936264038086 63.6706428527832 64.2542953491211 C 63.64470672607422 64.29747772216797 63.63750076293945 64.32856750488281 63.663543701171875 64.36602020263672 C 63.61833190917969 64.39386749267578 63.61351776123047 64.43150329589844 63.6285285949707 64.44829559326172" stroke-width="2.0" fill="rgb(0, 0, 255)" opacity="1.0" stroke="rgb(0, 0, 255)" stroke-opacity="1.0" stroke-linecap="round" stroke-linejoin="round"/>
  </g>
</svg>
