<?xml version="1.0" ?>
<svg xmlns="http://www.w3.org/2000/svg" version="1.1" width="128" height="128">
  <defs/>
  <g>
    <path d="M 63.608909606933594 64.50721740722656 C 63.608489990234375 64.5087890625 63.61164093017578 64.5053939819336 63.61079406738281 64.51618194580078 C 63.60334777832031 64.50395202636719 63.6068000793457 64.521728515625 63.605533599853516 64.50972747802734 C 63.57585144042969 64.52784729003906 63.574947357177734 64.5372543334961 63.56477737426758 64.56417846679688 C 63.54560852050781 64.57583618164062 63.53953170776367 64.59481048583984 63.515010833740234 64.62040710449219 C 63.49846649169922 64.63785552978516 63.481475830078125 64.65420532226562 63.43973159790039 64.69469451904297 C 63.45097732543945 64.71212005615234 63.43001937866211 64.72078704833984 63.397682189941406 64.75786590576172 C 63.42446517944336 64.76782989501953 63.41674041748047 64.77217864990234 63.4205322265625 64.8053970336914 C 63.449642181396484 64.78309631347656 63.46903991699219 64.79804229736328 63.49726486206055 64.81233978271484 C 63.51362609863281 64.78700256347656 63.563663482666016 64.81098175048828 63.606815338134766 64.79927825927734 C 63.608985900878906 64.7853775024414 63.64017105102539 64.81137084960938 63.667030334472656 64.77804565429688 C 63.62367630004883 64.75362396240234 63.613162994384766 64.73382568359375 63.61050033569336 64.68649291992188 C 63.55344772338867 64.62293243408203 63.54011917114258 64.56635284423828 63.54014587402344 64.50585174560547 C 63.497928619384766 64.44061279296875 63.4854621887207 64.35691833496094 63.48929214477539 64.3218002319336 C 63.482234954833984 64.27631378173828 63.458717346191406 64.21759033203125 63.47806930541992 64.2187271118164 C 63.48276901245117 64.19486236572266 63.4648323059082 64.15430450439453 63.51780700683594 64.17155456542969 C 63.51971435546875 64.15689086914062 63.52276611328125 64.13236236572266 63.581024169921875 64.15219116210938 C 63.5807991027832 64.14557647705078 63.59625244140625 64.13052368164062 63.642494201660156 64.16840362548828 C 63.64067840576172 64.18523406982422 63.63680648803711 64.19267272949219 63.67060470581055 64.25375366210938 C 63.644065856933594 64.29637145996094 63.63710021972656 64.32730102539062 63.66337203979492 64.3653564453125 C 63.617889404296875 64.3928451538086 63.612693786621094 64.43072509765625 63.6284294128418 64.4477310180664" stroke-width="2.0" fill="rgb(252, 194, 27)" opacity="1.0" stroke="rgb(252, 194, 27)" stroke-opacity="1.0" stroke-linecap="round" stroke-linejoin="round"/>
    <path d="M 63.609527587890625 64.50704956054688 C 63.608924865722656 64.50838470458984 63.61225891113281 64.50519561767578 63.61118698120117 64.51577758789062 C 63.60401916503906 64.50371551513672 63.60734176635742 64.5213851928711 63.60602569580078 64.50960540771484 C 63.57637023925781 64.52765655517578 63.57553482055664 64.53726959228516 63.564693450927734 64.56373596191406 C 63.54591751098633 64.57583618164062 63.53974151611328 64.59454345703125 63.515220642089844 64.62034606933594 C 63.4987907409668 64.63774871826172 63.4818000793457 64.654052734375 63.439762115478516 64.6948471069336 C 63.45124816894531 64.71185302734375 63.430213928222656 64.7207260131836 63.39765930175781 64.7577896118164 C 63.42483139038086 64.76768493652344 63.41686248779297 64.77201843261719 63.42070388793945 64.8055191040039 C 63.449703216552734 64.78287506103516 63.46895980834961 64.79796600341797 63.49748992919922 64.81227111816406 C 63.5139274597168 64.78660583496094 63.56398010253906 64.81097412109375 63.60690689086914 64.79903411865234 C 63.609031677246094 64.78498840332031 63.64035415649414 64.81127166748047 63.66728210449219 64.7776107788086 C 63.62380599975586 64.75291442871094 63.61367416381836 64.73388671875 63.6109619140625 64.68622589111328 C 63.55344772338867 64.6224594116211 63.54039001464844 64.56674194335938 63.540374755859375 64.5058822631836 C 63.497581481933594 64.44052124023438 63.48545455932617 64.35721588134766 63.48933792114258 64.32215118408203 C 63.48194885253906 64.27630615234375 63.45859909057617 64.21768188476562 63.47800064086914 64.2191162109375 C 63.48268508911133 64.19473266601562 63.46477127075195 64.15438079833984 63.51802444458008 64.17176055908203 C 63.51959228515625 64.15701293945312 63.522586822509766 64.13255310058594 63.58115768432617 64.15250396728516 C 63.58099365234375 64.14595794677734 63.596431732177734 64.1304931640625 63.642547607421875 64.16875457763672 C 63.640769958496094 64.18521881103516 63.636775970458984 64.1927490234375 63.67068099975586 64.2537612915039 C 63.64414978027344 64.29642486572266 63.63715362548828 64.32745361328125 63.66362762451172 64.36519622802734 C 63.618167877197266 64.39268493652344 63.61293411254883 64.43053436279297 63.62884521484375 64.44740295410156" stroke-width="2.0" fill="rgb(255, 0, 0)" opacity="1.0" stroke="rgb(255, 0, 0)" stroke-opacity="1.0" stroke-linecap="round" stroke-linejoin="round"/>
    <path d="M 63.609779357910156 64.50743865966797 C 63.60900115966797 64.50873565673828 63.61251449584961 64.50556945800781 63.611263275146484 64.51612854003906 C 63.6043586730957 64.50409698486328 63.607540130615234 64.5218505859375 63.60616683959961 64.51010131835938 C 63.576416015625 64.52818298339844 63.57567596435547 64.53779602050781 63.56451416015625 64.56389617919922 C 63.54602813720703 64.57638549804688 63.539825439453125 64.59489440917969 63.51533889770508 64.62059783935547 C 63.49906921386719 64.6380844116211 63.48191833496094 64.65418243408203 63.43952178955078 64.69532012939453 C 63.451263427734375 64.71211242675781 63.43012237548828 64.72097778320312 63.39733123779297 64.75826263427734 C 63.42484664916992 64.76800537109375 63.4166374206543 64.772216796875 63.42052459716797 64.80594635009766 C 63.449554443359375 64.78311157226562 63.468666076660156 64.79820251464844 63.49746322631836 64.81256103515625 C 63.51398849487305 64.78657531738281 63.56390380859375 64.81116485595703 63.6069221496582 64.79911041259766 C 63.60889434814453 64.78489685058594 63.64039993286133 64.8114242553711 63.667335510253906 64.77759552001953 C 63.62395095825195 64.75271606445312 63.61393737792969 64.73416137695312 63.6109619140625 64.68622589111328 C 63.553279876708984 64.62248229980469 63.54048538208008 64.56708526611328 63.540199279785156 64.50602722167969 C 63.49720764160156 64.44062042236328 63.48534393310547 64.35745239257812 63.48933792114258 64.32252502441406 C 63.481754302978516 64.27637481689453 63.458404541015625 64.21788787841797 63.47783660888672 64.21947479248047 C 63.48255157470703 64.19477081298828 63.46476364135742 64.15460968017578 63.518001556396484 64.17193603515625 C 63.519535064697266 64.15714263916016 63.52249526977539 64.1327133178711 63.58103942871094 64.1527099609375 C 63.58106994628906 64.14617156982422 63.596492767333984 64.13059997558594 63.642555236816406 64.16899108886719 C 63.64096450805664 64.18546295166016 63.636898040771484 64.19303894042969 63.670692443847656 64.25397491455078 C 63.64438247680664 64.29685974121094 63.637290954589844 64.3279037475586 63.66362762451172 64.36547088623047 C 63.618309020996094 64.3930892944336 63.61322021484375 64.43085479736328 63.628814697265625 64.4476547241211" stroke-width="2.0" fill="rgb(0, 255, 0)" opacity="1.0" stroke="rgb(0, 255, 0)" stroke-opacity="1.0" stroke-linecap="round" stroke-linejoin="round"/>
    <path d="M 63.609859466552734 64.5082778930664 C 63.60862350463867 64.50943756103516 63.6125373840332 64.50636291503906 63.61090850830078 64.51676940917969 C 63.60456085205078 64.50503540039062 63.607364654541016 64.52275848388672 63.60615158081055 64.51107788085938 C 63.57620620727539 64.5291519165039 63.57551193237305 64.53864288330078 63.5643196105957 64.56439971923828 C 63.546043395996094 64.5772476196289 63.53987503051758 64.59562683105469 63.515506744384766 64.62102508544922 C 63.49934005737305 64.63875579833984 63.4820556640625 64.65445709228516 63.439266204833984 64.69601440429688 C 63.451194763183594 64.71277618408203 63.42989730834961 64.72137451171875 63.396949768066406 64.75914001464844 C 63.42469787597656 64.76851654052734 63.4163818359375 64.77259826660156 63.42031478881836 64.80655670166016 C 63.449344635009766 64.78351593017578 63.46834945678711 64.79875183105469 63.49748992919922 64.81302642822266 C 63.51388168334961 64.78662872314453 63.563663482666016 64.81153106689453 63.60689163208008 64.7993392944336 C 63.60867691040039 64.78486633300781 63.640201568603516 64.81185150146484 63.66728973388672 64.77791595458984 C 63.62416076660156 64.75281524658203 63.613990783691406 64.73458099365234 63.61083984375 64.68643951416016 C 63.553070068359375 64.62274169921875 63.54055404663086 64.56739044189453 63.539756774902344 64.5062026977539 C 63.4968376159668 64.44080352783203 63.48516845703125 64.35761260986328 63.48928451538086 64.32296752929688 C 63.481605529785156 64.27626037597656 63.45811080932617 64.21808624267578 63.477596282958984 64.21981048583984 C 63.48242950439453 64.19466400146484 63.464900970458984 64.15486907958984 63.5178337097168 64.17208862304688 C 63.5195198059082 64.15718841552734 63.5225715637207 64.13284301757812 63.580841064453125 64.15282440185547 C 63.58124923706055 64.146240234375 63.59650802612305 64.13082122802734 63.64258575439453 64.16918182373047 C 63.641273498535156 64.18585968017578 63.63715362548828 64.1936264038086 63.6706428527832 64.25428771972656 C 63.64471435546875 64.29747009277344 63.63750076293945 64.32855987548828 63.663543701171875 64.36601257324219 C 63.61833190917969 64.39386749267578 63.61351776123047 64.43150329589844 63.62853240966797 64.44829559326172" stroke-width="2.0" fill="rgb(0, 0, 255)" opacity="1.0" stroke="rgb(0, 0, 255)" stroke-opacity="1.0" stroke-linecap="round" stroke-linejoin="round"/>
  </g>
</svg>
