<?xml version="1.0" ?>
<svg xmlns="http://www.w3.org/2000/svg" version="1.1" width="128" height="128">
  <defs/>
  <g>
    <path d="M 63.608924865722656 64.50721740722656 C 63.608489990234375 64.50878143310547 63.61164855957031 64.5053939819336 63.61079406738281 64.51618194580078 C 63.603363037109375 64.50395202636719 63.6068000793457 64.521728515625 63.605533599853516 64.50971984863281 C 63.57587432861328 64.52783966064453 63.574954986572266 64.53724670410156 63.56479263305664 64.56416320800781 C 63.545616149902344 64.57583618164062 63.5395393371582 64.59480285644531 63.515018463134766 64.62039947509766 C 63.49846649169922 64.63785552978516 63.481483459472656 64.6541976928711 63.43973159790039 64.69468688964844 C 63.45097732543945 64.71212005615234 63.43001937866211 64.72078704833984 63.397674560546875 64.75785064697266 C 63.42445755004883 64.76782989501953 63.416725158691406 64.77217864990234 63.42052459716797 64.8053970336914 C 63.449642181396484 64.78309631347656 63.46903991699219 64.79803466796875 63.49726486206055 64.81233978271484 C 63.51361083984375 64.78700256347656 63.563663482666016 64.81098175048828 63.606815338134766 64.79927062988281 C 63.608970642089844 64.7853775024414 63.64016342163086 64.81136322021484 63.667030334472656 64.77804565429688 C 63.62367630004883 64.75363159179688 63.613162994384766 64.73382568359375 63.61050796508789 64.68649291992188 C 63.55344772338867 64.62294006347656 63.54011917114258 64.56635284423828 63.54015350341797 64.50585174560547 C 63.497928619384766 64.44061279296875 63.485469818115234 64.3569107055664 63.48929214477539 64.3218002319336 C 63.482234954833984 64.27631378173828 63.45873260498047 64.21758270263672 63.47807693481445 64.2187271118164 C 63.48276901245117 64.19485473632812 63.464839935302734 64.15430450439453 63.51780700683594 64.17154693603516 C 63.51972198486328 64.15689086914062 63.52276611328125 64.13236236572266 63.581031799316406 64.15219116210938 C 63.5807991027832 64.14556884765625 63.59625244140625 64.13052368164062 63.642494201660156 64.16839599609375 C 63.64068603515625 64.18523406982422 63.63680648803711 64.19266510009766 63.67060470581055 64.25374603271484 C 63.644073486328125 64.29637145996094 63.637107849121094 64.3272933959961 63.66337966918945 64.36534881591797 C 63.617897033691406 64.39283752441406 63.612701416015625 64.43071746826172 63.62843704223633 64.44772338867188" stroke-width="2.0" fill="rgb(252, 194, 27)" opacity="1.0" stroke="rgb(252, 194, 27)" stroke-opacity="1.0" stroke-linecap="round" stroke-linejoin="round"/>
    <path d="M 63.609527587890625 64.50704193115234 C 63.60893249511719 64.50837707519531 63.612274169921875 64.50518798828125 63.6111946105957 64.5157699584961 C 63.604026794433594 64.50371551513672 63.607357025146484 64.52137756347656 63.60603332519531 64.50959777832031 C 63.576385498046875 64.52764892578125 63.57554244995117 64.5372543334961 63.564701080322266 64.563720703125 C 63.54592514038086 64.5758285522461 63.53974151611328 64.59453582763672 63.515235900878906 64.62034606933594 C 63.49879837036133 64.63774871826172 63.4818000793457 64.654052734375 63.439762115478516 64.6948471069336 C 63.45124816894531 64.71185302734375 63.43022155761719 64.7207260131836 63.39765930175781 64.75778198242188 C 63.42483139038086 64.7676773071289 63.41686248779297 64.77201843261719 63.42070388793945 64.80551147460938 C 63.4496955871582 64.78287506103516 63.46895980834961 64.79795837402344 63.49748992919922 64.81226348876953 C 63.5139274597168 64.7865982055664 63.56398010253906 64.81097412109375 63.60690689086914 64.79903411865234 C 63.60902404785156 64.78499603271484 63.64035415649414 64.81127166748047 63.66728210449219 64.7776107788086 C 63.62380599975586 64.75292205810547 63.61368179321289 64.73388671875 63.6109619140625 64.68622589111328 C 63.55344772338867 64.62246704101562 63.54039001464844 64.56674194335938 63.540382385253906 64.5058822631836 C 63.497581481933594 64.44052124023438 63.48545455932617 64.35722351074219 63.48934555053711 64.32215118408203 C 63.48194885253906 64.27631378173828 63.45859909057617 64.21768188476562 63.47800064086914 64.2191162109375 C 63.48268508911133 64.19473266601562 63.46477127075195 64.15438079833984 63.51803207397461 64.17176055908203 C 63.51959228515625 64.15701293945312 63.522586822509766 64.13255310058594 63.58115768432617 64.15251159667969 C 63.58099365234375 64.14596557617188 63.596431732177734 64.13048553466797 63.642555236816406 64.16875457763672 C 63.640777587890625 64.18521881103516 63.636775970458984 64.19274139404297 63.670684814453125 64.25375366210938 C 63.64415740966797 64.29642486572266 63.63716125488281 64.32744598388672 63.66363525390625 64.36518859863281 C 63.6181755065918 64.3926773071289 63.61294937133789 64.43052673339844 63.62884521484375 64.44739532470703" stroke-width="2.0" fill="rgb(255, 0, 0)" opacity="1.0" stroke="rgb(255, 0, 0)" stroke-opacity="1.0" stroke-linecap="round" stroke-linejoin="round"/>
    <path d="M 63.60978698730469 64.50743865966797 C 63.60900115966797 64.50873565673828 63.61252212524414 64.50556945800781 63.611263275146484 64.51612854003906 C 63.604373931884766 64.50410461425781 63.6075553894043 64.52184295654297 63.60616683959961 64.51009368896484 C 63.57643127441406 64.5281753540039 63.57569122314453 64.53778839111328 63.56451416015625 64.56388854980469 C 63.54602813720703 64.57637786865234 63.539833068847656 64.59487915039062 63.51535415649414 64.62059020996094 C 63.49906921386719 64.6380844116211 63.48192596435547 64.65418243408203 63.43952178955078 64.69532012939453 C 63.451263427734375 64.71211242675781 63.43012237548828 64.72097778320312 63.39733123779297 64.75826263427734 C 63.42483901977539 64.76799774169922 63.4166374206543 64.77220916748047 63.42051696777344 64.80594635009766 C 63.449554443359375 64.78311157226562 63.468666076660156 64.79820251464844 63.49746322631836 64.81256103515625 C 63.51398849487305 64.78656768798828 63.56390380859375 64.81116485595703 63.6069221496582 64.79910278320312 C 63.60888671875 64.78489685058594 63.64039993286133 64.81141662597656 63.667335510253906 64.77760314941406 C 63.62395095825195 64.75271606445312 63.61394500732422 64.73416900634766 63.61097717285156 64.68622589111328 C 63.553279876708984 64.62248229980469 63.54049301147461 64.56709289550781 63.54020690917969 64.50602722167969 C 63.497215270996094 64.44062042236328 63.4853515625 64.35745239257812 63.48935317993164 64.32252502441406 C 63.481754302978516 64.27637481689453 63.458404541015625 64.21788787841797 63.47784423828125 64.21947479248047 C 63.48255157470703 64.19477081298828 63.46476364135742 64.15460968017578 63.518009185791016 64.17192840576172 C 63.519535064697266 64.15714263916016 63.52249526977539 64.1327133178711 63.58103942871094 64.1527099609375 C 63.58106994628906 64.14617156982422 63.596492767333984 64.1305923461914 63.642555236816406 64.16899108886719 C 63.64096450805664 64.18546295166016 63.63689041137695 64.19303894042969 63.67070770263672 64.25397491455078 C 63.64439010620117 64.29685974121094 63.637298583984375 64.32789611816406 63.66364288330078 64.36546325683594 C 63.618316650390625 64.39308166503906 63.61322784423828 64.43085479736328 63.628822326660156 64.44764709472656" stroke-width="2.0" fill="rgb(0, 255, 0)" opacity="1.0" stroke="rgb(0, 255, 0)" stroke-opacity="1.0" stroke-linecap="round" stroke-linejoin="round"/>
    <path d="M 63.609867095947266 64.5082778930664 C 63.608638763427734 64.50944519042969 63.612545013427734 64.5063705444336 63.61091613769531 64.51676940917969 C 63.60456848144531 64.50504302978516 63.60737228393555 64.52275848388672 63.60615158081055 64.51107025146484 C 63.57621383666992 64.5291519165039 63.57551956176758 64.53863525390625 63.564327239990234 64.56439971923828 C 63.546051025390625 64.57723999023438 63.53988265991211 64.59561920166016 63.51552200317383 64.62101745605469 C 63.49934005737305 64.63875579833984 63.48206329345703 64.65446472167969 63.439273834228516 64.69601440429688 C 63.451202392578125 64.71277618408203 63.42990493774414 64.72137451171875 63.39695739746094 64.75914001464844 C 63.42469787597656 64.76850891113281 63.41637420654297 64.77259826660156 63.42031478881836 64.80655670166016 C 63.449344635009766 64.78350830078125 63.46834182739258 64.79873657226562 63.49748992919922 64.81302642822266 C 63.51388931274414 64.78662109375 63.563663482666016 64.81153106689453 63.60689163208008 64.7993392944336 C 63.60866928100586 64.78487396240234 63.64020919799805 64.81185150146484 63.66728210449219 64.77791595458984 C 63.62415313720703 64.75281524658203 63.613990783691406 64.73458099365234 63.61083984375 64.68644714355469 C 63.553062438964844 64.62273406982422 63.54055404663086 64.56739044189453 63.539756774902344 64.5062026977539 C 63.496829986572266 64.4407958984375 63.48516845703125 64.35762023925781 63.48929214477539 64.32296752929688 C 63.481605529785156 64.27625274658203 63.4581184387207 64.21808624267578 63.477596282958984 64.21981048583984 C 63.48242950439453 64.19466400146484 63.464900970458984 64.15486907958984 63.51784133911133 64.17208862304688 C 63.519527435302734 64.15719604492188 63.5225715637207 64.13284301757812 63.580848693847656 64.15282440185547 C 63.58124923706055 64.146240234375 63.59650802612305 64.13082122802734 63.64259338378906 64.16918182373047 C 63.641273498535156 64.18586730957031 63.63715362548828 64.1936264038086 63.670650482177734 64.25428771972656 C 63.64471435546875 64.29747009277344 63.637508392333984 64.32855987548828 63.663551330566406 64.36600494384766 C 63.61833953857422 64.39385986328125 63.613525390625 64.43150329589844 63.6285400390625 64.44829559326172" stroke-width="2.0" fill="rgb(0, 0, 255)" opacity="1.0" stroke="rgb(0, 0, 255)" stroke-opacity="1.0" stroke-linecap="round" stroke-linejoin="round"/>
  </g>
</svg>
