<?xml version="1.0" ?>
<svg xmlns="http://www.w3.org/2000/svg" version="1.1" width="128" height="128">
  <defs/>
  <g>
    <path d="M 63.608924865722656 64.5072021484375 C 63.608489990234375 64.50877380371094 63.61164855957031 64.50537872314453 63.61079406738281 64.51616668701172 C 63.603363037109375 64.50393676757812 63.6068000793457 64.52172088623047 63.605533599853516 64.50971221923828 C 63.57586669921875 64.52783203125 63.574954986572266 64.53723907470703 63.56479263305664 64.56416320800781 C 63.545623779296875 64.5758285522461 63.5395393371582 64.59480285644531 63.515018463134766 64.62039947509766 C 63.49846649169922 64.63784790039062 63.481475830078125 64.6541976928711 63.43973159790039 64.69468688964844 C 63.45096969604492 64.71211242675781 63.43001937866211 64.72078704833984 63.397674560546875 64.75784301757812 C 63.42445755004883 64.767822265625 63.416725158691406 64.77217102050781 63.42052459716797 64.80538940429688 C 63.449642181396484 64.78309631347656 63.46903991699219 64.79803466796875 63.49726486206055 64.81233215332031 C 63.51361083984375 64.78700256347656 63.563663482666016 64.81097412109375 63.606815338134766 64.79927062988281 C 63.608978271484375 64.7853775024414 63.64017105102539 64.81136322021484 63.66702651977539 64.77803802490234 C 63.62367248535156 64.75362396240234 63.613155364990234 64.73382568359375 63.61050033569336 64.68648529052734 C 63.55344772338867 64.62293243408203 63.540103912353516 64.56635284423828 63.54014587402344 64.50584411621094 C 63.497928619384766 64.44060516357422 63.4854621887207 64.3569107055664 63.48929214477539 64.3218002319336 C 63.482234954833984 64.27631378173828 63.458717346191406 64.21758270263672 63.47806930541992 64.2187271118164 C 63.48276138305664 64.19485473632812 63.4648323059082 64.15430450439453 63.517799377441406 64.17154693603516 C 63.51972198486328 64.15689086914062 63.52276611328125 64.13236236572266 63.581024169921875 64.15219116210938 C 63.5807991027832 64.14557647705078 63.59625244140625 64.13052368164062 63.642494201660156 64.16839599609375 C 63.64068603515625 64.18523406982422 63.63680648803711 64.19267272949219 63.67060470581055 64.25374603271484 C 63.644065856933594 64.29637145996094 63.637107849121094 64.3272933959961 63.663387298583984 64.36534881591797 C 63.617897033691406 64.39283752441406 63.612701416015625 64.43071746826172 63.62843704223633 64.44771575927734" stroke-width="2.0" fill="rgb(252, 194, 27)" opacity="1.0" stroke="rgb(252, 194, 27)" stroke-opacity="1.0" stroke-linecap="round" stroke-linejoin="round"/>
    <path d="M 63.609527587890625 64.50702667236328 C 63.608924865722656 64.50836181640625 63.612274169921875 64.50518035888672 63.6111946105957 64.51576232910156 C 63.604026794433594 64.50370025634766 63.60734939575195 64.5213623046875 63.60603332519531 64.50959014892578 C 63.576377868652344 64.52764129638672 63.57554244995117 64.5372543334961 63.564701080322266 64.56371307373047 C 63.54592514038086 64.5758285522461 63.53974151611328 64.59453582763672 63.515235900878906 64.6203384399414 C 63.49879837036133 64.63774108886719 63.4818000793457 64.65404510498047 63.439762115478516 64.69483947753906 C 63.45124816894531 64.71184539794922 63.43022155761719 64.7207260131836 63.39765930175781 64.75777435302734 C 63.42483139038086 64.7676773071289 63.41686248779297 64.77201843261719 63.42070388793945 64.80550384521484 C 63.44968795776367 64.78286743164062 63.46895980834961 64.79795837402344 63.49748992919922 64.81226348876953 C 63.51393508911133 64.7865982055664 63.56398010253906 64.81096649169922 63.60690689086914 64.79902648925781 C 63.609031677246094 64.78498840332031 63.64035415649414 64.81126403808594 63.66728210449219 64.77759552001953 C 63.62380599975586 64.7529067993164 63.61367416381836 64.73387908935547 63.6109619140625 64.68621826171875 C 63.55343246459961 64.6224594116211 63.540374755859375 64.56673431396484 63.540374755859375 64.50587463378906 C 63.49757385253906 64.44051361083984 63.48544692993164 64.35721588134766 63.48933792114258 64.32215118408203 C 63.48193359375 64.27630615234375 63.45859146118164 64.21768188476562 63.47800064086914 64.2191162109375 C 63.4826774597168 64.19473266601562 63.46476364135742 64.15438079833984 63.51801681518555 64.17176055908203 C 63.51959228515625 64.15701293945312 63.522579193115234 64.13255310058594 63.58115768432617 64.15251159667969 C 63.58099365234375 64.14596557617188 63.596431732177734 64.13048553466797 63.642555236816406 64.16875457763672 C 63.640777587890625 64.18521118164062 63.636775970458984 64.1927490234375 63.67068099975586 64.25375366210938 C 63.64415740966797 64.29642486572266 63.63715362548828 64.32745361328125 63.66363525390625 64.36518859863281 C 63.618167877197266 64.39268493652344 63.61294174194336 64.43052673339844 63.62885284423828 64.44739532470703" stroke-width="2.0" fill="rgb(255, 0, 0)" opacity="1.0" stroke="rgb(255, 0, 0)" stroke-opacity="1.0" stroke-linecap="round" stroke-linejoin="round"/>
    <path d="M 63.60978698730469 64.5074234008789 C 63.60900115966797 64.50872039794922 63.61252212524414 64.50555419921875 63.611263275146484 64.51611328125 C 63.604373931884766 64.50408935546875 63.607547760009766 64.52183532714844 63.60617446899414 64.51008605957031 C 63.57643127441406 64.52816772460938 63.57568359375 64.53778076171875 63.56451416015625 64.56388092041016 C 63.54602813720703 64.57637786865234 63.539833068847656 64.59487915039062 63.51534652709961 64.62059020996094 C 63.49906921386719 64.6380844116211 63.48191833496094 64.6541748046875 63.43952178955078 64.6953125 C 63.451263427734375 64.71210479736328 63.43012237548828 64.72097778320312 63.39733123779297 64.75825500488281 C 63.42483139038086 64.76799011230469 63.4166374206543 64.77220916748047 63.42051696777344 64.80593872070312 C 63.449554443359375 64.78311157226562 63.468666076660156 64.79820251464844 63.49745559692383 64.81255340576172 C 63.51399612426758 64.78656768798828 63.56390380859375 64.81116485595703 63.606929779052734 64.79910278320312 C 63.60889434814453 64.78489685058594 63.64039993286133 64.81141662597656 63.667327880859375 64.777587890625 C 63.62394332885742 64.7527084350586 63.613929748535156 64.73416137695312 63.6109619140625 64.68621826171875 C 63.55327224731445 64.62247467041016 63.54047775268555 64.56708526611328 63.540199279785156 64.50601959228516 C 63.49720764160156 64.44061279296875 63.48534393310547 64.3574447631836 63.48933792114258 64.32251739501953 C 63.481746673583984 64.27637481689453 63.458404541015625 64.21788787841797 63.47783660888672 64.21947479248047 C 63.48255157470703 64.19477081298828 63.46476364135742 64.15460968017578 63.518001556396484 64.17192840576172 C 63.519535064697266 64.15714263916016 63.52248764038086 64.1327133178711 63.58103942871094 64.1527099609375 C 63.58106994628906 64.14617156982422 63.596492767333984 64.1305923461914 63.642555236816406 64.16899108886719 C 63.64096450805664 64.18545532226562 63.63689041137695 64.19303894042969 63.67070007324219 64.25397491455078 C 63.64438247680664 64.29685974121094 63.637290954589844 64.32789611816406 63.66364288330078 64.36546325683594 C 63.618316650390625 64.39308166503906 63.61322021484375 64.43084716796875 63.628822326660156 64.44764709472656" stroke-width="2.0" fill="rgb(0, 255, 0)" opacity="1.0" stroke="rgb(0, 255, 0)" stroke-opacity="1.0" stroke-linecap="round" stroke-linejoin="round"/>
    <path d="M 63.609867095947266 64.50827026367188 C 63.6086311340332 64.50942993164062 63.612545013427734 64.50635528564453 63.61090850830078 64.51676177978516 C 63.60456848144531 64.50503540039062 63.60737228393555 64.52275085449219 63.60615158081055 64.51107025146484 C 63.57620620727539 64.52914428710938 63.57551193237305 64.53863525390625 63.5643196105957 64.56439208984375 C 63.546051025390625 64.57723999023438 63.53987503051758 64.59561920166016 63.5155143737793 64.62102508544922 C 63.49934005737305 64.63875579833984 63.4820556640625 64.65445709228516 63.439273834228516 64.69601440429688 C 63.451202392578125 64.7127685546875 63.42989730834961 64.72137451171875 63.396949768066406 64.7591323852539 C 63.42469024658203 64.76850891113281 63.41637420654297 64.77259826660156 63.42031478881836 64.80654907226562 C 63.449344635009766 64.78351593017578 63.46834182739258 64.79873657226562 63.49748992919922 64.81302642822266 C 63.51388931274414 64.78662109375 63.563663482666016 64.8115234375 63.60689163208008 64.7993392944336 C 63.60866928100586 64.78486633300781 63.64020919799805 64.81185150146484 63.66728210449219 64.77790832519531 C 63.62415313720703 64.75281524658203 63.613983154296875 64.73458099365234 63.61083984375 64.68643951416016 C 63.55305480957031 64.62273406982422 63.54055404663086 64.5673828125 63.539756774902344 64.50619506835938 C 63.496829986572266 64.44078826904297 63.48516082763672 64.35761260986328 63.48927688598633 64.32295989990234 C 63.481605529785156 64.27625274658203 63.45811080932617 64.21808624267578 63.47758865356445 64.21981048583984 C 63.48242950439453 64.19466400146484 63.464900970458984 64.15486907958984 63.5178337097168 64.17208862304688 C 63.5195198059082 64.15718841552734 63.52256393432617 64.13284301757812 63.580841064453125 64.15282440185547 C 63.58124923706055 64.14624786376953 63.59650802612305 64.13082122802734 63.64258575439453 64.16918182373047 C 63.641273498535156 64.18586730957031 63.63715362548828 64.1936264038086 63.670650482177734 64.25428771972656 C 63.64471435546875 64.29747772216797 63.63750076293945 64.32855987548828 63.663551330566406 64.36601257324219 C 63.61833190917969 64.39385986328125 63.613525390625 64.43150329589844 63.6285400390625 64.44829559326172" stroke-width="2.0" fill="rgb(0, 0, 255)" opacity="1.0" stroke="rgb(0, 0, 255)" stroke-opacity="1.0" stroke-linecap="round" stroke-linejoin="round"/>
  </g>
</svg>
