<?xml version="1.0" ?>
<svg xmlns="http://www.w3.org/2000/svg" version="1.1" width="128" height="128">
  <defs/>
  <g>
    <path d="M 63.608924865722656 64.50723266601562 C 63.608497619628906 64.5087890625 63.61164855957031 64.50540924072266 63.61079406738281 64.51618194580078 C 63.603363037109375 64.50395965576172 63.606807708740234 64.52173614501953 63.605533599853516 64.50972747802734 C 63.57586669921875 64.52784729003906 63.574954986572266 64.5372543334961 63.56479263305664 64.56417846679688 C 63.54560852050781 64.57583618164062 63.5395393371582 64.59480285644531 63.515010833740234 64.62039947509766 C 63.49845886230469 64.63785552978516 63.481483459472656 64.65420532226562 63.43973159790039 64.69468688964844 C 63.45096969604492 64.71212005615234 63.43001937866211 64.72079467773438 63.397674560546875 64.75785827636719 C 63.42446517944336 64.76782989501953 63.41673278808594 64.77217864990234 63.4205322265625 64.8053970336914 C 63.449642181396484 64.78309631347656 63.46903991699219 64.79803466796875 63.49726486206055 64.81233978271484 C 63.51361846923828 64.78700256347656 63.563663482666016 64.81098175048828 63.606815338134766 64.79927825927734 C 63.608978271484375 64.7853775024414 63.64017105102539 64.81137084960938 63.667030334472656 64.77804565429688 C 63.62367630004883 64.75362396240234 63.613162994384766 64.73382568359375 63.61050796508789 64.68649291992188 C 63.55345153808594 64.62293243408203 63.54011917114258 64.56635284423828 63.5401611328125 64.50584411621094 C 63.497928619384766 64.44061279296875 63.485469818115234 64.35691833496094 63.48929977416992 64.3218002319336 C 63.482242584228516 64.27631378173828 63.45873260498047 64.21758270263672 63.47807693481445 64.2187271118164 C 63.4827766418457 64.19485473632812 63.464839935302734 64.15430450439453 63.51780700683594 64.17154693603516 C 63.51971435546875 64.15689086914062 63.52276611328125 64.13236236572266 63.581031799316406 64.15219116210938 C 63.5807991027832 64.14556884765625 63.59625244140625 64.13052368164062 63.642494201660156 64.16839599609375 C 63.64068603515625 64.18523406982422 63.63680648803711 64.19266510009766 63.67060470581055 64.25374603271484 C 63.644065856933594 64.29637145996094 63.63710021972656 64.3272933959961 63.66337203979492 64.3653564453125 C 63.617897033691406 64.3928451538086 63.612693786621094 64.43072509765625 63.62843704223633 64.4477310180664" stroke-width="2.0" fill="rgb(252, 194, 27)" opacity="1.0" stroke="rgb(252, 194, 27)" stroke-opacity="1.0" stroke-linecap="round" stroke-linejoin="round"/>
    <path d="M 63.609535217285156 64.50704956054688 C 63.60894012451172 64.50837707519531 63.612274169921875 64.50519561767578 63.6111946105957 64.51577758789062 C 63.604026794433594 64.50372314453125 63.607357025146484 64.52137756347656 63.60603332519531 64.50960540771484 C 63.576377868652344 64.52765655517578 63.57554244995117 64.53726959228516 63.564701080322266 64.56372833251953 C 63.54591751098633 64.5758285522461 63.53974151611328 64.59454345703125 63.515228271484375 64.62034606933594 C 63.4987907409668 64.63774871826172 63.4818000793457 64.654052734375 63.439762115478516 64.6948471069336 C 63.45124816894531 64.71185302734375 63.430213928222656 64.72073364257812 63.39765930175781 64.7577896118164 C 63.42483139038086 64.76768493652344 63.41686248779297 64.77201843261719 63.420711517333984 64.8055191040039 C 63.4496955871582 64.78287506103516 63.46895217895508 64.79795837402344 63.49748992919922 64.81227111816406 C 63.5139274597168 64.7865982055664 63.56398010253906 64.81097412109375 63.60690689086914 64.79903411865234 C 63.60901641845703 64.78498840332031 63.64035415649414 64.811279296875 63.66728210449219 64.7776107788086 C 63.62380599975586 64.75291442871094 63.61367416381836 64.73388671875 63.6109619140625 64.68622589111328 C 63.55344009399414 64.6224594116211 63.54039001464844 64.56673431396484 63.540382385253906 64.50587463378906 C 63.497581481933594 64.44052124023438 63.48544692993164 64.35721588134766 63.48935317993164 64.32215118408203 C 63.48194885253906 64.27630615234375 63.45859909057617 64.21768188476562 63.47800064086914 64.2191162109375 C 63.48268508911133 64.1947250366211 63.464778900146484 64.15437316894531 63.51802444458008 64.17176055908203 C 63.51959228515625 64.1570053100586 63.522586822509766 64.13255310058594 63.58115768432617 64.15251159667969 C 63.58099365234375 64.14595794677734 63.596431732177734 64.13048553466797 63.642555236816406 64.16875457763672 C 63.640769958496094 64.18521118164062 63.636775970458984 64.19274139404297 63.67068099975586 64.25375366210938 C 63.64414978027344 64.29642486572266 63.63715362548828 64.32744598388672 63.66362762451172 64.36518859863281 C 63.618167877197266 64.39268493652344 63.61294174194336 64.43053436279297 63.62884521484375 64.44740295410156" stroke-width="2.0" fill="rgb(255, 0, 0)" opacity="1.0" stroke="rgb(255, 0, 0)" stroke-opacity="1.0" stroke-linecap="round" stroke-linejoin="round"/>
    <path d="M 63.60978698730469 64.5074462890625 C 63.60900115966797 64.50874328613281 63.61252212524414 64.50557708740234 63.611263275146484 64.5161361694336 C 63.604373931884766 64.50411224365234 63.6075553894043 64.52185821533203 63.60617446899414 64.51010131835938 C 63.57643127441406 64.52818298339844 63.57568359375 64.53779602050781 63.56451416015625 64.56389617919922 C 63.5460205078125 64.57638549804688 63.539833068847656 64.59488677978516 63.51533889770508 64.62059020996094 C 63.49906921386719 64.6380844116211 63.48191833496094 64.65418243408203 63.43952178955078 64.69532775878906 C 63.451263427734375 64.71211242675781 63.43011474609375 64.72098541259766 63.39733123779297 64.75826263427734 C 63.42483901977539 64.76800537109375 63.4166374206543 64.77220916748047 63.42051696777344 64.80594635009766 C 63.449554443359375 64.78311157226562 63.468658447265625 64.79820251464844 63.4974479675293 64.81256103515625 C 63.51398849487305 64.78656768798828 63.56390380859375 64.81116485595703 63.6069221496582 64.79911041259766 C 63.60887908935547 64.78489685058594 63.64039993286133 64.8114242553711 63.667327880859375 64.77760314941406 C 63.62395095825195 64.75271606445312 63.61393737792969 64.73416900634766 63.6109619140625 64.68622589111328 C 63.553279876708984 64.62248229980469 63.54048538208008 64.56709289550781 63.54020690917969 64.50601959228516 C 63.49720764160156 64.44062042236328 63.4853515625 64.35745239257812 63.48935317993164 64.32252502441406 C 63.481754302978516 64.2763671875 63.458404541015625 64.21788787841797 63.47784423828125 64.21946716308594 C 63.48255157470703 64.19476318359375 63.46476364135742 64.15460205078125 63.518001556396484 64.17192840576172 C 63.519535064697266 64.15713500976562 63.52249526977539 64.13270568847656 63.58103942871094 64.1527099609375 C 63.58106994628906 64.14616394042969 63.596492767333984 64.1305923461914 63.642555236816406 64.16898345947266 C 63.64096450805664 64.18545532226562 63.63689041137695 64.19303894042969 63.67070007324219 64.25397491455078 C 63.64438247680664 64.29685974121094 63.637290954589844 64.3279037475586 63.66363525390625 64.36546325683594 C 63.618309020996094 64.3930892944336 63.61322021484375 64.43086242675781 63.628814697265625 64.4476547241211" stroke-width="2.0" fill="rgb(0, 255, 0)" opacity="1.0" stroke="rgb(0, 255, 0)" stroke-opacity="1.0" stroke-linecap="round" stroke-linejoin="round"/>
    <path d="M 63.609867095947266 64.50828552246094 C 63.6086311340332 64.50944519042969 63.612545013427734 64.50637817382812 63.61090850830078 64.51676940917969 C 63.60456848144531 64.50505065917969 63.60737228393555 64.52276611328125 63.60615158081055 64.51107788085938 C 63.57620620727539 64.5291519165039 63.57551193237305 64.53864288330078 63.5643196105957 64.56440734863281 C 63.546043395996094 64.57723999023438 63.53987503051758 64.59562683105469 63.515506744384766 64.62102508544922 C 63.49934005737305 64.63876342773438 63.4820556640625 64.65446472167969 63.439266204833984 64.6960220336914 C 63.451194763183594 64.71277618408203 63.42989730834961 64.72138214111328 63.396942138671875 64.75914001464844 C 63.42469787597656 64.76851654052734 63.41637420654297 64.77259826660156 63.42030715942383 64.80655670166016 C 63.449344635009766 64.78351593017578 63.46833801269531 64.79875183105469 63.49748992919922 64.81303405761719 C 63.51388168334961 64.78662872314453 63.563663482666016 64.81153106689453 63.60689163208008 64.79934692382812 C 63.60866928100586 64.78486633300781 63.640201568603516 64.81185150146484 63.66728210449219 64.77791595458984 C 63.62415313720703 64.75281524658203 63.613975524902344 64.73458099365234 63.61083221435547 64.68643951416016 C 63.55305480957031 64.62273406982422 63.54055404663086 64.5673828125 63.539756774902344 64.50619506835938 C 63.496829986572266 64.4407958984375 63.48516082763672 64.35761260986328 63.48928451538086 64.32295989990234 C 63.481605529785156 64.2762451171875 63.45811080932617 64.21807861328125 63.477596282958984 64.21980285644531 C 63.48242950439453 64.19465637207031 63.464900970458984 64.15486145019531 63.5178337097168 64.17208862304688 C 63.5195198059082 64.15718841552734 63.5225715637207 64.1328353881836 63.580841064453125 64.15282440185547 C 63.58124923706055 64.146240234375 63.59650802612305 64.13082122802734 63.64258575439453 64.16917419433594 C 63.641273498535156 64.18585968017578 63.63715362548828 64.1936264038086 63.6706428527832 64.25428009033203 C 63.64470672607422 64.29747009277344 63.63750076293945 64.32855987548828 63.663551330566406 64.36601257324219 C 63.61833190917969 64.39386749267578 63.613525390625 64.43150329589844 63.6285285949707 64.44830322265625" stroke-width="2.0" fill="rgb(0, 0, 255)" opacity="1.0" stroke="rgb(0, 0, 255)" stroke-opacity="1.0" stroke-linecap="round" stroke-linejoin="round"/>
  </g>
</svg>
