<?xml version="1.0" ?>
<svg xmlns="http://www.w3.org/2000/svg" version="1.1" width="128" height="128">
  <defs/>
  <g>
    <path d="M 63.608924865722656 64.50720977783203 C 63.608489990234375 64.50877380371094 63.61164855957031 64.50538635253906 63.61079406738281 64.51617431640625 C 63.603363037109375 64.50394439697266 63.6068000793457 64.52172088623047 63.605533599853516 64.50971984863281 C 63.57585906982422 64.52783203125 63.574954986572266 64.53724670410156 63.56479263305664 64.56416320800781 C 63.545616149902344 64.57583618164062 63.53953170776367 64.59480285644531 63.515010833740234 64.62039947509766 C 63.49846649169922 64.63785552978516 63.481475830078125 64.6541976928711 63.43973159790039 64.69468688964844 C 63.45097732543945 64.71212005615234 63.43001937866211 64.72078704833984 63.397674560546875 64.75785064697266 C 63.42445755004883 64.76782989501953 63.416725158691406 64.77217102050781 63.4205322265625 64.80538940429688 C 63.449642181396484 64.78309631347656 63.46903991699219 64.79803466796875 63.49726486206055 64.81233978271484 C 63.51361083984375 64.78700256347656 63.56367111206055 64.81097412109375 63.606815338134766 64.79927062988281 C 63.608985900878906 64.7853775024414 63.64017105102539 64.81137084960938 63.667030334472656 64.77804565429688 C 63.62367630004883 64.75363159179688 63.613162994384766 64.73382568359375 63.61050796508789 64.68649291992188 C 63.55344772338867 64.62294006347656 63.54011154174805 64.56636047363281 63.54014587402344 64.50585174560547 C 63.497928619384766 64.44061279296875 63.4854621887207 64.35691833496094 63.48929214477539 64.32180786132812 C 63.482234954833984 64.27631378173828 63.45872497558594 64.21759033203125 63.47806930541992 64.21873474121094 C 63.48276901245117 64.19486236572266 63.4648323059082 64.15430450439453 63.517799377441406 64.17155456542969 C 63.51971435546875 64.15689086914062 63.52276611328125 64.13236236572266 63.581031799316406 64.15219116210938 C 63.5807991027832 64.14557647705078 63.59625244140625 64.13052368164062 63.642494201660156 64.16840362548828 C 63.64068603515625 64.18523406982422 63.63680648803711 64.19267272949219 63.67060470581055 64.25374603271484 C 63.644065856933594 64.29637145996094 63.63710021972656 64.3272933959961 63.663387298583984 64.3653564453125 C 63.617897033691406 64.39283752441406 63.612693786621094 64.43071746826172 63.62843704223633 64.44771575927734" stroke-width="2.0" fill="rgb(252, 194, 27)" opacity="1.0" stroke="rgb(252, 194, 27)" stroke-opacity="1.0" stroke-linecap="round" stroke-linejoin="round"/>
    <path d="M 63.609527587890625 64.50703430175781 C 63.608924865722656 64.50836181640625 63.612274169921875 64.50518035888672 63.61118698120117 64.51576232910156 C 63.604026794433594 64.50370788574219 63.60734176635742 64.52136993408203 63.60603332519531 64.50959014892578 C 63.57637023925781 64.52764892578125 63.57554244995117 64.53726196289062 63.564701080322266 64.563720703125 C 63.54592514038086 64.5758285522461 63.53974151611328 64.59454345703125 63.515235900878906 64.62034606933594 C 63.4987907409668 64.63774871826172 63.4818000793457 64.65404510498047 63.439762115478516 64.69483947753906 C 63.45124816894531 64.71184539794922 63.43022155761719 64.7207260131836 63.39765930175781 64.75778198242188 C 63.42483139038086 64.76768493652344 63.41686248779297 64.77201843261719 63.42070388793945 64.80551147460938 C 63.44968795776367 64.78287506103516 63.46895980834961 64.79795837402344 63.49748992919922 64.81226348876953 C 63.51393508911133 64.7865982055664 63.563995361328125 64.81097412109375 63.60690689086914 64.79903411865234 C 63.609031677246094 64.78498840332031 63.64035415649414 64.81127166748047 63.66728210449219 64.7776107788086 C 63.62380599975586 64.75291442871094 63.61367416381836 64.73388671875 63.6109619140625 64.68623352050781 C 63.55344772338867 64.62246704101562 63.54039001464844 64.56674194335938 63.540382385253906 64.50588989257812 C 63.497581481933594 64.44052124023438 63.48545455932617 64.35722351074219 63.48934555053711 64.32215881347656 C 63.48194885253906 64.27631378173828 63.45859909057617 64.21768188476562 63.47800064086914 64.21912384033203 C 63.48268508911133 64.19473266601562 63.46476364135742 64.15438079833984 63.51803207397461 64.17176055908203 C 63.51959228515625 64.15701293945312 63.522586822509766 64.13255310058594 63.58115768432617 64.15251159667969 C 63.58099365234375 64.14596557617188 63.596431732177734 64.1304931640625 63.642547607421875 64.16875457763672 C 63.640769958496094 64.18521881103516 63.636775970458984 64.1927490234375 63.67068099975586 64.2537612915039 C 63.64414978027344 64.29642486572266 63.63715362548828 64.32745361328125 63.66363525390625 64.36518859863281 C 63.618167877197266 64.39268493652344 63.61294174194336 64.4305191040039 63.62885284423828 64.4473876953125" stroke-width="2.0" fill="rgb(255, 0, 0)" opacity="1.0" stroke="rgb(255, 0, 0)" stroke-opacity="1.0" stroke-linecap="round" stroke-linejoin="round"/>
    <path d="M 63.60978698730469 64.5074234008789 C 63.60900115966797 64.50872039794922 63.61251449584961 64.50555419921875 63.611263275146484 64.51611328125 C 63.604366302490234 64.50408935546875 63.607540130615234 64.52183532714844 63.60616683959961 64.51008605957031 C 63.57642364501953 64.5281753540039 63.57567596435547 64.53778076171875 63.56451416015625 64.56388854980469 C 63.54602813720703 64.57637786865234 63.539825439453125 64.59488677978516 63.51533889770508 64.62059783935547 C 63.49906921386719 64.6380844116211 63.48191833496094 64.6541748046875 63.43952178955078 64.6953125 C 63.451263427734375 64.71211242675781 63.43012237548828 64.72097778320312 63.39733123779297 64.75826263427734 C 63.42483901977539 64.76799774169922 63.4166374206543 64.77220916748047 63.42052459716797 64.80593872070312 C 63.449554443359375 64.78311157226562 63.468666076660156 64.79820251464844 63.49746322631836 64.81256103515625 C 63.51398849487305 64.78657531738281 63.56391143798828 64.81116485595703 63.6069221496582 64.79910278320312 C 63.60889434814453 64.78489685058594 63.64039993286133 64.81141662597656 63.667335510253906 64.77759552001953 C 63.62395095825195 64.75271606445312 63.61393737792969 64.73416137695312 63.61096954345703 64.68622589111328 C 63.553279876708984 64.62248229980469 63.54047775268555 64.56709289550781 63.54020690917969 64.50602722167969 C 63.497215270996094 64.44062042236328 63.4853515625 64.35745239257812 63.48934555053711 64.32252502441406 C 63.481754302978516 64.27638244628906 63.458404541015625 64.21788787841797 63.47783660888672 64.21947479248047 C 63.48255157470703 64.19477081298828 63.46476364135742 64.15460968017578 63.518001556396484 64.17193603515625 C 63.519535064697266 64.15714263916016 63.52248764038086 64.1327133178711 63.581031799316406 64.1527099609375 C 63.58106994628906 64.14617156982422 63.59648513793945 64.1305923461914 63.642547607421875 64.16899108886719 C 63.64095687866211 64.18545532226562 63.63688278198242 64.19303894042969 63.670692443847656 64.25397491455078 C 63.64438247680664 64.29685974121094 63.637290954589844 64.3279037475586 63.66364288330078 64.36546325683594 C 63.618309020996094 64.39308166503906 63.61322021484375 64.43084716796875 63.62882995605469 64.44763946533203" stroke-width="2.0" fill="rgb(0, 255, 0)" opacity="1.0" stroke="rgb(0, 255, 0)" stroke-opacity="1.0" stroke-linecap="round" stroke-linejoin="round"/>
    <path d="M 63.609859466552734 64.50827026367188 C 63.6086311340332 64.50942993164062 63.612545013427734 64.50636291503906 63.61090850830078 64.51676177978516 C 63.60456848144531 64.50503540039062 63.607364654541016 64.52275848388672 63.60615158081055 64.51107025146484 C 63.57620620727539 64.52914428710938 63.57551193237305 64.53863525390625 63.564327239990234 64.56439971923828 C 63.546051025390625 64.57723999023438 63.53987503051758 64.59562683105469 63.515506744384766 64.62102508544922 C 63.49934005737305 64.63875579833984 63.4820556640625 64.65445709228516 63.439273834228516 64.69601440429688 C 63.451194763183594 64.71277618408203 63.42989730834961 64.72137451171875 63.39695739746094 64.75914001464844 C 63.42469787597656 64.76851654052734 63.41637420654297 64.7726058959961 63.42032241821289 64.80654907226562 C 63.449344635009766 64.78351593017578 63.46834945678711 64.79875183105469 63.49748992919922 64.81302642822266 C 63.51388931274414 64.78662872314453 63.563663482666016 64.81153106689453 63.60689163208008 64.7993392944336 C 63.60867691040039 64.78486633300781 63.640201568603516 64.81185150146484 63.66728973388672 64.77790832519531 C 63.62415313720703 64.75282287597656 63.613990783691406 64.73458099365234 63.61083984375 64.68644714355469 C 63.553070068359375 64.62274169921875 63.54055404663086 64.56739044189453 63.539756774902344 64.50621032714844 C 63.4968376159668 64.44080352783203 63.48516845703125 64.35761260986328 63.48928451538086 64.32296752929688 C 63.481605529785156 64.27626037597656 63.45811080932617 64.21808624267578 63.477596282958984 64.21981811523438 C 63.48242950439453 64.19466400146484 63.464900970458984 64.15486907958984 63.5178337097168 64.17208862304688 C 63.519527435302734 64.15718841552734 63.52256393432617 64.13284301757812 63.580841064453125 64.15282440185547 C 63.58124923706055 64.146240234375 63.596500396728516 64.13082122802734 63.64258575439453 64.16918182373047 C 63.641273498535156 64.18585968017578 63.63715362548828 64.1936264038086 63.6706428527832 64.25428771972656 C 63.64470672607422 64.29747772216797 63.63750076293945 64.32855987548828 63.663551330566406 64.36601257324219 C 63.61833190917969 64.39385986328125 63.613525390625 64.4314956665039 63.6285400390625 64.44828796386719" stroke-width="2.0" fill="rgb(0, 0, 255)" opacity="1.0" stroke="rgb(0, 0, 255)" stroke-opacity="1.0" stroke-linecap="round" stroke-linejoin="round"/>
  </g>
</svg>
