<?xml version="1.0" ?>
<svg xmlns="http://www.w3.org/2000/svg" version="1.1" width="128" height="128">
  <defs/>
  <g>
    <path d="M 63.608924865722656 64.50721740722656 C 63.608497619628906 64.50877380371094 63.61165237426758 64.50540161132812 63.61079406738281 64.51617431640625 C 63.603363037109375 64.50395202636719 63.606807708740234 64.52172088623047 63.60554122924805 64.50971984863281 C 63.57587432861328 64.52783966064453 63.574954986572266 64.53724670410156 63.56479263305664 64.56417083740234 C 63.545623779296875 64.57583618164062 63.5395393371582 64.59480285644531 63.515018463134766 64.62040710449219 C 63.49846649169922 64.63785552978516 63.481483459472656 64.6541976928711 63.43973159790039 64.69468688964844 C 63.45097732543945 64.71212005615234 63.43002700805664 64.72078704833984 63.397682189941406 64.75786590576172 C 63.42445755004883 64.76782989501953 63.41674041748047 64.77217864990234 63.4205322265625 64.8053970336914 C 63.449642181396484 64.78309631347656 63.46903991699219 64.79804229736328 63.49726486206055 64.81233978271484 C 63.51362609863281 64.78700256347656 63.56367111206055 64.81098175048828 63.606815338134766 64.79927062988281 C 63.608985900878906 64.7853775024414 63.64017105102539 64.81136322021484 63.66703796386719 64.77803802490234 C 63.62367630004883 64.75362396240234 63.613162994384766 64.73381805419922 63.61050796508789 64.68648529052734 C 63.55345153808594 64.62293243408203 63.54011917114258 64.56635284423828 63.5401611328125 64.50584411621094 C 63.497928619384766 64.44061279296875 63.485469818115234 64.3569107055664 63.48929214477539 64.3218002319336 C 63.482242584228516 64.27631378173828 63.45873260498047 64.21758270263672 63.47807693481445 64.2187271118164 C 63.48276901245117 64.19485473632812 63.464839935302734 64.154296875 63.51780700683594 64.17154693603516 C 63.51971435546875 64.15689086914062 63.52276611328125 64.13235473632812 63.581031799316406 64.15219116210938 C 63.5807991027832 64.14556884765625 63.59625244140625 64.1305160522461 63.642494201660156 64.16839599609375 C 63.64068603515625 64.18523406982422 63.63681411743164 64.19267272949219 63.67060470581055 64.25374603271484 C 63.644065856933594 64.29637145996094 63.637107849121094 64.32730102539062 63.663387298583984 64.3653564453125 C 63.617897033691406 64.39283752441406 63.612701416015625 64.43071746826172 63.62845230102539 64.44772338867188" stroke-width="2.0" fill="rgb(252, 194, 27)" opacity="1.0" stroke="rgb(252, 194, 27)" stroke-opacity="1.0" stroke-linecap="round" stroke-linejoin="round"/>
    <path d="M 63.609535217285156 64.50704193115234 C 63.60893249511719 64.50836944580078 63.612274169921875 64.50518798828125 63.6111946105957 64.5157699584961 C 63.604026794433594 64.50371551513672 63.607357025146484 64.52137756347656 63.60603332519531 64.50959777832031 C 63.576377868652344 64.52765655517578 63.5755500793457 64.53726196289062 63.564701080322266 64.56372833251953 C 63.54592514038086 64.5758285522461 63.53974151611328 64.59454345703125 63.515235900878906 64.62034606933594 C 63.49879837036133 64.63774871826172 63.481807708740234 64.654052734375 63.439762115478516 64.6948471069336 C 63.45124816894531 64.71185302734375 63.43022918701172 64.72073364257812 63.397666931152344 64.7577896118164 C 63.42483139038086 64.76768493652344 63.4168701171875 64.77202606201172 63.420711517333984 64.8055191040039 C 63.449703216552734 64.78287506103516 63.46896743774414 64.79796600341797 63.49748992919922 64.81226348876953 C 63.51393508911133 64.7865982055664 63.563987731933594 64.81097412109375 63.60690689086914 64.79902648925781 C 63.609031677246094 64.78498840332031 63.64035415649414 64.81127166748047 63.66728973388672 64.77760314941406 C 63.62380599975586 64.75291442871094 63.61368179321289 64.73388671875 63.61096954345703 64.68622589111328 C 63.55344772338867 64.6224594116211 63.54039001464844 64.56673431396484 63.54039001464844 64.5058822631836 C 63.497581481933594 64.44052124023438 63.4854621887207 64.35721588134766 63.48934555053711 64.32215881347656 C 63.48194885253906 64.27631378173828 63.45859909057617 64.21768188476562 63.47800064086914 64.21912384033203 C 63.48268508911133 64.19473266601562 63.46477127075195 64.15438079833984 63.51803207397461 64.17176055908203 C 63.51959228515625 64.1570053100586 63.522586822509766 64.1325454711914 63.58115768432617 64.15250396728516 C 63.58099365234375 64.14595794677734 63.596431732177734 64.13048553466797 63.642555236816406 64.16875457763672 C 63.640777587890625 64.18521118164062 63.636775970458984 64.1927490234375 63.67068099975586 64.25375366210938 C 63.64414978027344 64.29642486572266 63.63716125488281 64.32745361328125 63.66362762451172 64.36518859863281 C 63.6181755065918 64.39268493652344 63.61294937133789 64.43052673339844 63.62885665893555 64.44739532470703" stroke-width="2.0" fill="rgb(255, 0, 0)" opacity="1.0" stroke="rgb(255, 0, 0)" stroke-opacity="1.0" stroke-linecap="round" stroke-linejoin="round"/>
    <path d="M 63.60978698730469 64.50743103027344 C 63.60900115966797 64.50872802734375 63.61252212524414 64.50556182861328 63.611263275146484 64.51612091064453 C 63.604366302490234 64.50409698486328 63.607547760009766 64.52184295654297 63.60617446899414 64.51009368896484 C 63.57643127441406 64.5281753540039 63.57569122314453 64.53778839111328 63.56451416015625 64.56388854980469 C 63.54602813720703 64.57638549804688 63.539833068847656 64.59488677978516 63.51534652709961 64.62059783935547 C 63.49906921386719 64.6380844116211 63.48191833496094 64.65418243408203 63.43952178955078 64.69532775878906 C 63.451263427734375 64.71211242675781 63.43012237548828 64.72098541259766 63.3973388671875 64.75827026367188 C 63.42484664916992 64.76800537109375 63.4166374206543 64.772216796875 63.4205322265625 64.80594635009766 C 63.449554443359375 64.78311157226562 63.468666076660156 64.79820251464844 63.49746322631836 64.81256103515625 C 63.51400375366211 64.78657531738281 63.56391143798828 64.81116485595703 63.6069221496582 64.79910278320312 C 63.60889434814453 64.78489685058594 63.64039993286133 64.81141662597656 63.66734313964844 64.77759552001953 C 63.623958587646484 64.75271606445312 63.61394500732422 64.73416137695312 63.61097717285156 64.68622589111328 C 63.553279876708984 64.62248229980469 63.54048538208008 64.56708526611328 63.54020690917969 64.50603485107422 C 63.49720764160156 64.44062042236328 63.4853515625 64.35745239257812 63.48934555053711 64.3225326538086 C 63.481754302978516 64.27638244628906 63.458404541015625 64.21788787841797 63.47783660888672 64.219482421875 C 63.48255157470703 64.19477081298828 63.46476364135742 64.15460968017578 63.518009185791016 64.17193603515625 C 63.519535064697266 64.15714263916016 63.52249526977539 64.13270568847656 63.58103942871094 64.1527099609375 C 63.581077575683594 64.14617156982422 63.596492767333984 64.1305923461914 63.642555236816406 64.16898345947266 C 63.64096450805664 64.18546295166016 63.636898040771484 64.19303894042969 63.670692443847656 64.25397491455078 C 63.64438247680664 64.29685974121094 63.637298583984375 64.32789611816406 63.66364288330078 64.36546325683594 C 63.618316650390625 64.39308166503906 63.61322021484375 64.43084716796875 63.62882995605469 64.44763946533203" stroke-width="2.0" fill="rgb(0, 255, 0)" opacity="1.0" stroke="rgb(0, 255, 0)" stroke-opacity="1.0" stroke-linecap="round" stroke-linejoin="round"/>
    <path d="M 63.609859466552734 64.5082778930664 C 63.608638763427734 64.50943756103516 63.612545013427734 64.50636291503906 63.61091613769531 64.51676177978516 C 63.60456848144531 64.50503540039062 63.60737228393555 64.52275848388672 63.60615158081055 64.51107025146484 C 63.57620620727539 64.5291519165039 63.57551956176758 64.53863525390625 63.5643196105957 64.56439971923828 C 63.546043395996094 64.57723999023438 63.53987503051758 64.59562683105469 63.5155143737793 64.62103271484375 C 63.49934005737305 64.63876342773438 63.4820556640625 64.65446472167969 63.439273834228516 64.6960220336914 C 63.451202392578125 64.71277618408203 63.42990493774414 64.72138214111328 63.39695739746094 64.75914764404297 C 63.42469787597656 64.76851654052734 63.4163818359375 64.7726058959961 63.42032241821289 64.80655670166016 C 63.449344635009766 64.78351593017578 63.46834945678711 64.79875183105469 63.49748992919922 64.81302642822266 C 63.51389694213867 64.78662872314453 63.563663482666016 64.81153106689453 63.60689163208008 64.7993392944336 C 63.60867691040039 64.78486633300781 63.640201568603516 64.81185150146484 63.66728973388672 64.77790832519531 C 63.62415313720703 64.75281524658203 63.613990783691406 64.73458099365234 63.61083984375 64.68644714355469 C 63.553070068359375 64.62274169921875 63.54055404663086 64.56739044189453 63.539756774902344 64.50621032714844 C 63.4968376159668 64.44080352783203 63.48516845703125 64.35761260986328 63.48928451538086 64.3229751586914 C 63.481605529785156 64.27625274658203 63.4581184387207 64.21808624267578 63.477596282958984 64.21981811523438 C 63.48242950439453 64.19466400146484 63.464900970458984 64.15486907958984 63.51784133911133 64.17208862304688 C 63.519527435302734 64.15718841552734 63.5225715637207 64.13284301757812 63.580841064453125 64.15282440185547 C 63.58124923706055 64.146240234375 63.59650802612305 64.13082122802734 63.64258575439453 64.16918182373047 C 63.641273498535156 64.18585968017578 63.63715362548828 64.1936264038086 63.6706428527832 64.25428771972656 C 63.64471435546875 64.29747009277344 63.637508392333984 64.32855987548828 63.663551330566406 64.36600494384766 C 63.61833953857422 64.39385986328125 63.613525390625 64.4314956665039 63.6285400390625 64.44828796386719" stroke-width="2.0" fill="rgb(0, 0, 255)" opacity="1.0" stroke="rgb(0, 0, 255)" stroke-opacity="1.0" stroke-linecap="round" stroke-linejoin="round"/>
  </g>
</svg>
