<?xml version="1.0" ?>
<svg xmlns="http://www.w3.org/2000/svg" version="1.1" width="128" height="128">
  <defs/>
  <g>
    <path d="M 78.62803649902344 99.57249450683594 C 78.63277435302734 99.58150482177734 78.5991439819336 99.56939697265625 78.61231231689453 99.5956039428711 C 78.89436340332031 99.55888366699219 79.60301208496094 99.06932067871094 81.06392669677734 97.31513214111328 C 84.13584899902344 94.15283966064453 88.17323303222656 90.0019302368164 92.5428466796875 85.27981567382812 C 96.69280242919922 81.6343994140625 98.98221588134766 79.79319763183594 99.78073120117188 78.28226470947266 C 100.25691223144531 75.95996856689453 99.0582275390625 73.77291870117188 96.48894500732422 71.81151580810547 C 94.56255340576172 69.45650482177734 92.69081115722656 68.06288146972656 90.654296875 68.48202514648438 C 88.76937103271484 70.24352264404297 84.47755432128906 74.47392272949219 77.58953094482422 81.30091094970703 C 72.21414947509766 87.32539367675781 69.2812271118164 91.32998657226562 67.73336029052734 94.58518981933594 C 66.3086166381836 95.77980041503906 64.82968139648438 93.5194320678711 65.83965301513672 88.12467193603516 C 69.91773986816406 80.90824127197266 73.91630554199219 74.86702728271484 78.06136322021484 69.853759765625 C 81.92272186279297 62.963829040527344 80.0262680053711 56.17012023925781 74.14863586425781 51.726043701171875 C 69.93795776367188 48.24968338012695 64.19172668457031 47.229347229003906 57.300636291503906 49.30327224731445 C 53.89369201660156 51.70463562011719 49.131202697753906 55.49224853515625 41.74664306640625 60.77964401245117 C 36.83796310424805 64.02253723144531 33.90888977050781 64.32374572753906 31.489748001098633 62.97018814086914 C 30.3414306640625 60.159481048583984 30.545129776000977 56.725975036621094 33.15260314941406 52.477474212646484 C 38.78025817871094 47.51164245605469 44.61543655395508 43.08259582519531 49.26268005371094 39.3197021484375 C 53.58258819580078 35.798583984375 55.08940887451172 33.97232437133789 50.85840606689453 33.772396087646484 C 44.23384094238281 33.117191314697266 38.73329544067383 32.157718658447266 34.38844299316406 31.56306266784668 C 31.36760711669922 30.66197395324707 29.946483612060547 30.2616024017334 29.57207489013672 31.252042770385742 C 30.12217903137207 33.25265121459961 31.444185256958008 36.75416564941406 32.198974609375 42.1061897277832" stroke-width="2.0" fill="rgb(252, 194, 27)" opacity="1.0" stroke="rgb(252, 194, 27)" stroke-opacity="1.0" stroke-linecap="round" stroke-linejoin="round"/>
    <path d="M 79.55382537841797 103.7498550415039 C 79.56082153320312 103.75849914550781 79.52401733398438 103.7474136352539 79.52745056152344 103.74725341796875 C 79.78144836425781 103.65303802490234 80.589111328125 103.0727767944336 82.1585693359375 101.27320861816406 C 85.31962585449219 98.06761169433594 89.75315856933594 93.64647674560547 94.62711334228516 88.3985366821289 C 98.8856430053711 84.14494323730469 101.19651794433594 81.97675323486328 102.86394500732422 80.57622528076172 C 104.56275177001953 78.82781982421875 104.6025390625 77.06705474853516 103.42223358154297 74.9919204711914 C 102.5526123046875 72.09354400634766 100.80960083007812 69.59346008300781 97.9885025024414 67.6824722290039 C 95.56208038330078 65.62571716308594 92.94742584228516 64.54496002197266 90.36772918701172 64.59869384765625 C 89.0140151977539 64.88606262207031 87.04737854003906 66.69203186035156 84.0589599609375 70.1230697631836 C 81.78145599365234 72.6130142211914 79.98269653320312 73.47663116455078 80.57575988769531 72.32221984863281 C 83.18877410888672 68.81990051269531 83.40748596191406 65.26114654541016 82.57942962646484 61.64679718017578 C 82.5367431640625 56.36591339111328 80.01557922363281 52.02580261230469 75.77005767822266 49.44624328613281 C 73.08065032958984 46.67318344116211 69.00157928466797 45.21768569946289 63.88430404663086 45.17362594604492 C 61.364418029785156 44.60857009887695 58.6510124206543 44.8687629699707 54.83327102661133 46.98641586303711 C 52.96592712402344 48.445152282714844 51.79806900024414 48.35725784301758 52.00438690185547 46.89500427246094 C 55.93056869506836 43.59770202636719 60.53957748413086 40.029850006103516 63.58618927001953 37.095829010009766 C 66.08216857910156 34.29141616821289 65.91468811035156 32.87595748901367 62.15785217285156 32.633689880371094 C 58.548892974853516 31.682435989379883 55.438236236572266 30.50745391845703 49.480735778808594 29.655887603759766 C 42.02582931518555 28.261796951293945 35.54673385620117 27.031654357910156 29.939054489135742 26.424291610717773 C 26.349536895751953 25.686216354370117 25.534000396728516 25.91009521484375 25.84031105041504 28.232749938964844 C 26.19540023803711 31.74769401550293 27.232860565185547 36.27655792236328 28.576032638549805 42.10567855834961" stroke-width="2.0" fill="rgb(255, 0, 0)" opacity="1.0" stroke="rgb(255, 0, 0)" stroke-opacity="1.0" stroke-linecap="round" stroke-linejoin="round"/>
    <path d="M 79.4451904296875 103.68165588378906 C 79.4521713256836 103.6901626586914 79.41487884521484 103.67900085449219 79.41724395751953 103.67926025390625 C 79.67576599121094 103.5880126953125 80.49494171142578 103.0096435546875 82.07121276855469 101.22880554199219 C 85.21204376220703 98.0630111694336 89.63689422607422 93.69281768798828 94.51920318603516 88.47958374023438 C 98.78778839111328 84.22677612304688 101.10856628417969 82.03418731689453 102.79798889160156 80.59339904785156 C 104.53292846679688 78.81632995605469 104.6025390625 77.04397583007812 103.42460632324219 74.97225189208984 C 102.53962707519531 72.07101440429688 100.78541564941406 69.54209899902344 97.95429229736328 67.60967254638672 C 95.50902557373047 65.56256103515625 92.89212036132812 64.48162841796875 90.39446258544922 64.52073669433594 C 89.14189147949219 64.82608795166016 87.1465072631836 66.67853546142578 84.1179428100586 70.1128921508789 C 81.95881652832031 72.5323257446289 80.25454711914062 73.314453125 80.77976989746094 72.13197326660156 C 83.31458282470703 68.60863494873047 83.49812316894531 65.01850128173828 82.60035705566406 61.39337158203125 C 82.49097442626953 56.13496780395508 79.95556640625 51.86201477050781 75.72126770019531 49.34992218017578 C 73.08013153076172 46.61408996582031 69.00655364990234 45.17271423339844 63.88254165649414 45.15652084350586 C 61.4449462890625 44.59394073486328 58.76358413696289 44.80126190185547 54.90620803833008 46.83119201660156 C 53.072662353515625 48.222938537597656 51.930816650390625 48.13290023803711 52.04074478149414 46.732364654541016 C 55.84677505493164 43.53263473510742 60.444950103759766 40.03789520263672 63.571598052978516 37.11992263793945 C 66.17621612548828 34.296607971191406 66.13493347167969 32.84511184692383 62.41926574707031 32.599239349365234 C 58.73203659057617 31.704145431518555 55.55048370361328 30.582040786743164 49.530799865722656 29.727294921875 C 41.98286819458008 28.302709579467773 35.48468017578125 27.04729652404785 29.95591163635254 26.437789916992188 C 26.45694923400879 25.720186233520508 25.66769790649414 25.941553115844727 25.935171127319336 28.225589752197266 C 26.246952056884766 31.67047119140625 27.26529312133789 36.154319763183594 28.60457420349121 42.0203971862793" stroke-width="2.0" fill="rgb(0, 255, 0)" opacity="1.0" stroke="rgb(0, 255, 0)" stroke-opacity="1.0" stroke-linecap="round" stroke-linejoin="round"/>
    <path d="M 79.53643035888672 101.65426635742188 C 79.54432678222656 101.66356658935547 79.50582122802734 101.64971923828125 79.54456329345703 101.66812896728516 C 79.84751892089844 101.6385269165039 80.5244140625 101.12559509277344 81.80555725097656 99.3382568359375 C 84.5613021850586 96.14315795898438 88.57475280761719 91.88227844238281 93.31156921386719 86.89340209960938 C 97.74848175048828 82.8316879272461 100.21125030517578 80.69526672363281 101.3692855834961 79.03884887695312 C 102.16509246826172 76.5569076538086 101.23832702636719 74.0326156616211 98.86949157714844 71.62183380126953 C 96.80607604980469 68.98998260498047 94.46722412109375 67.41100311279297 92.04338073730469 66.95867156982422 C 90.44965362548828 67.02533721923828 86.96893310546875 69.97997283935547 80.5914306640625 76.55366516113281 C 74.26528930664062 83.28529357910156 70.19884490966797 88.3255844116211 68.3052978515625 92.69139862060547 C 67.18679809570312 95.08859252929688 65.66116333007812 93.74170684814453 66.32917022705078 89.03861999511719 C 70.42160034179688 81.87438201904297 74.72848510742188 75.39287567138672 79.20003509521484 70.08401489257812 C 83.11236572265625 63.17707824707031 80.82295227050781 56.11148452758789 74.66345977783203 51.135799407958984 C 70.11053466796875 47.24921798706055 63.744327545166016 46.14005661010742 56.81794738769531 47.98362350463867 C 53.77227783203125 49.96543502807617 48.857784271240234 53.70682907104492 41.3696174621582 59.03097152709961 C 36.927371978759766 61.94358825683594 34.320533752441406 62.0378303527832 32.20860290527344 60.30904769897461 C 31.696876525878906 57.10879898071289 33.29948425292969 53.48007583618164 37.7101936340332 49.22237014770508 C 44.47527313232422 44.07990264892578 50.365543365478516 39.78034973144531 53.834781646728516 36.59774398803711 C 56.43196487426758 33.820228576660156 56.26128005981445 32.59003829956055 50.86948013305664 32.58498001098633 C 43.407291412353516 31.450244903564453 37.09952926635742 29.929851531982422 31.898588180541992 29.136564254760742 C 28.684486389160156 28.12590789794922 28.05131721496582 27.802854537963867 28.594663619995117 29.460472106933594 C 29.328880310058594 32.4454345703125 30.27163314819336 36.855201721191406 30.601913452148438 42.78955078125" stroke-width="2.0" fill="rgb(0, 0, 255)" opacity="1.0" stroke="rgb(0, 0, 255)" stroke-opacity="1.0" stroke-linecap="round" stroke-linejoin="round"/>
  </g>
</svg>
