<?xml version="1.0" ?>
<svg xmlns="http://www.w3.org/2000/svg" version="1.1" width="128" height="128">
  <defs/>
  <g>
    <path d="M 61.28085708618164 97.27423095703125 C 61.28641128540039 97.26775360107422 61.1805305480957 97.26351928710938 61.388919830322266 97.23102569580078 C 63.66499328613281 97.17692565917969 69.02788543701172 97.21772003173828 76.66815185546875 97.71197509765625 C 85.91138458251953 97.75330352783203 95.16664123535156 97.72867584228516 102.4043960571289 97.60116577148438 C 107.9715805053711 97.72257232666016 112.03240966796875 97.76114654541016 114.85992431640625 97.68540954589844 C 117.01053619384766 97.31953430175781 118.23949432373047 96.62113952636719 118.87359619140625 95.31312561035156 C 119.36788177490234 93.36319732666016 119.51934051513672 90.83628845214844 119.39369201660156 87.41773986816406 C 119.32650756835938 82.6440200805664 119.28990936279297 77.16077423095703 119.2886734008789 71.17537689208984 C 119.33100891113281 64.75237274169922 119.24443817138672 58.78017044067383 119.25289154052734 53.14655303955078 C 119.44369506835938 47.16532516479492 119.36732482910156 42.09709930419922 119.3816909790039 38.4681396484375 C 119.65963745117188 35.4890022277832 119.59325408935547 33.557037353515625 119.2200927734375 32.47779083251953 C 118.9358139038086 31.3199462890625 118.32621765136719 30.31222152709961 117.28280639648438 29.69137191772461 C 116.17747497558594 29.055553436279297 114.66952514648438 28.807741165161133 112.80836486816406 28.908580780029297 C 110.86702728271484 28.58071517944336 107.60792541503906 28.184856414794922 102.80831146240234 28.256160736083984 C 97.87537384033203 28.417457580566406 93.1328125 28.581241607666016 87.3909912109375 29.07612419128418 C 80.4567642211914 29.284833908081055 72.34984588623047 29.13270378112793 63.895965576171875 29.30532455444336 C 58.513980865478516 29.375289916992188 56.16752624511719 29.430931091308594 53.192108154296875 29.411659240722656 C 47.32720947265625 28.7889404296875 39.931922912597656 28.519838333129883 32.41912078857422 28.940242767333984 C 26.197341918945312 29.026763916015625 22.05759620666504 29.06270408630371 18.8193302154541 29.288528442382812 C 15.941241264343262 29.01314926147461 13.970911979675293 28.796310424804688 12.282964706420898 29.210451126098633 C 10.420430183410645 29.686792373657227 9.211995124816895 30.827974319458008 8.666165351867676 33.82062911987305" stroke-width="2.0" fill="rgb(252, 194, 27)" opacity="1.0" stroke="rgb(252, 194, 27)" stroke-opacity="1.0" stroke-linecap="round" stroke-linejoin="round"/>
    <path d="M 86.3739242553711 88.60586547851562 C 86.3841781616211 88.62355041503906 86.29876708984375 88.68096160888672 86.25559997558594 88.76260375976562 C 87.20499420166016 88.37846374511719 89.90637969970703 87.5709228515625 93.79957580566406 87.12409973144531 C 97.85403442382812 87.91682434082031 101.1634521484375 89.14066314697266 104.27678680419922 89.4879379272461 C 107.20770263671875 89.30110168457031 108.93414306640625 89.30471801757812 110.03884887695312 88.69096374511719 C 111.127685546875 87.29256439208984 111.50064086914062 85.61434936523438 111.41239929199219 82.75923919677734 C 111.61327362060547 78.61077117919922 111.46778869628906 74.7166519165039 111.10516357421875 71.30120849609375 C 110.77526092529297 68.37601470947266 109.20265197753906 67.47964477539062 106.46613311767578 67.8540267944336 C 104.16259765625 67.56942749023438 102.12139129638672 67.26384735107422 100.09159088134766 68.14308166503906 C 99.02760314941406 70.23729705810547 98.61457824707031 74.09867095947266 98.6618423461914 78.84052276611328 C 99.06031036376953 82.36697387695312 98.89519500732422 84.67484283447266 98.32405853271484 86.23749542236328 C 97.27397155761719 87.02459716796875 95.28123474121094 87.39698028564453 92.97187042236328 87.50558471679688 C 90.91426086425781 86.70600891113281 89.29912567138672 84.55302429199219 89.15717315673828 81.3819580078125 C 89.84599304199219 78.1768798828125 89.64318084716797 75.71399688720703 89.39276885986328 73.52872467041016 C 90.01437377929688 71.09927368164062 89.45935821533203 69.10263061523438 86.69342803955078 68.23471069335938 C 83.38204956054688 68.08136749267578 80.15609741210938 68.58389282226562 77.80939483642578 69.82276153564453 C 77.44215393066406 71.74481964111328 77.51842498779297 75.26483154296875 77.22246551513672 80.327880859375 C 77.33586883544922 84.85398864746094 77.63896179199219 87.49657440185547 77.3186264038086 88.7906494140625 C 76.06556701660156 89.5162582397461 73.58282470703125 89.80636596679688 70.83639526367188 89.51116943359375 C 69.06172943115234 88.44364929199219 68.47380828857422 86.59644317626953 68.6904067993164 83.90802764892578 C 69.11876678466797 79.88928985595703 69.34017181396484 74.7796630859375 69.23695373535156 70.3765869140625" stroke-width="2.0" fill="rgb(255, 0, 0)" opacity="1.0" stroke="rgb(255, 0, 0)" stroke-opacity="1.0" stroke-linecap="round" stroke-linejoin="round"/>
    <path d="M 86.05587768554688 89.37897491455078 C 86.06497955322266 89.39791107177734 85.97882080078125 89.45891571044922 85.92752838134766 89.55657958984375 C 86.93661499023438 89.14318084716797 89.8572769165039 88.17888641357422 94.02182006835938 87.58059692382812 C 98.24580383300781 88.42520904541016 101.68816375732422 89.77058410644531 104.9066390991211 90.21552276611328 C 107.8630142211914 90.09685516357422 109.57757568359375 90.07060241699219 110.71568298339844 89.30436706542969 C 111.87432861328125 87.75690460205078 112.30547332763672 86.04114532470703 112.26010131835938 83.10409545898438 C 112.50777435302734 78.71331024169922 112.34062957763672 74.51888275146484 111.80917358398438 70.97976684570312 C 111.3714370727539 67.9295425415039 109.92024230957031 66.76873016357422 107.20864868164062 66.97779846191406 C 104.59600830078125 66.69507598876953 102.18936157226562 66.32372283935547 99.8504867553711 66.97929382324219 C 98.58637237548828 68.79661560058594 98.06124877929688 72.43630981445312 98.06482696533203 77.33731842041016 C 98.61121368408203 81.29376983642578 98.55241394042969 83.90213775634766 98.18781280517578 85.60975646972656 C 97.5108642578125 86.52378845214844 95.86560821533203 87.09040832519531 93.741455078125 87.3163070678711 C 91.81615447998047 86.37643432617188 90.42003631591797 83.87483215332031 90.41297912597656 80.4830322265625 C 91.00843048095703 77.30003356933594 90.67971801757812 74.91879272460938 90.48458099365234 72.77130126953125 C 91.13676452636719 70.27623748779297 90.26400756835938 68.3175277709961 87.28457641601562 67.43406677246094 C 83.93866729736328 67.06954956054688 80.30644226074219 67.50584411621094 77.27704620361328 68.81462097167969 C 76.45443725585938 70.6953125 76.48795318603516 74.03648376464844 76.19843292236328 79.06632995605469 C 76.2558364868164 83.86296844482422 76.5855484008789 86.90409851074219 76.37223052978516 88.53675842285156 C 75.12789916992188 89.5399398803711 72.70841979980469 89.91275787353516 70.3372573852539 89.47860717773438 C 69.17291259765625 88.18742370605469 68.99638366699219 85.9921875 69.37520599365234 82.762451171875 C 69.77066040039062 78.3011245727539 69.85227966308594 73.09664154052734 69.1834487915039 69.07374572753906" stroke-width="2.0" fill="rgb(0, 255, 0)" opacity="1.0" stroke="rgb(0, 255, 0)" stroke-opacity="1.0" stroke-linecap="round" stroke-linejoin="round"/>
    <path d="M 61.1385612487793 97.83993530273438 C 61.144290924072266 97.83422088623047 61.03788375854492 97.8268814086914 61.255794525146484 97.80027770996094 C 63.571128845214844 97.76961517333984 68.97281646728516 97.824462890625 76.57420349121094 98.3360366821289 C 85.6766128540039 98.37327575683594 94.9229507446289 98.30266571044922 102.23914337158203 98.1181640625 C 107.86280822753906 98.17584228515625 112.023193359375 98.1270751953125 114.89630889892578 98.03270721435547 C 117.06396484375 97.71337890625 118.34922790527344 97.02854919433594 119.03752899169922 95.72193145751953 C 119.54224395751953 93.83055877685547 119.66513061523438 91.39196014404297 119.4876480102539 88.03084564208984 C 119.4021224975586 83.27281188964844 119.3687744140625 77.7294921875 119.37397766113281 71.59428405761719 C 119.43157958984375 64.94583129882812 119.34371185302734 58.786399841308594 119.3234634399414 53.185760498046875 C 119.4886474609375 47.37921905517578 119.39491271972656 42.34892654418945 119.40155792236328 38.630611419677734 C 119.69970703125 35.516239166259766 119.65644836425781 33.43931198120117 119.30786895751953 32.26708984375 C 119.01628112792969 31.110363006591797 118.3594970703125 30.17517852783203 117.28638458251953 29.63368034362793 C 116.20098114013672 29.064340591430664 114.72456359863281 28.8530330657959 112.83294677734375 29.004051208496094 C 110.81439208984375 28.773086547851562 107.55793762207031 28.430850982666016 102.78462219238281 28.468786239624023 C 97.83605194091797 28.59170913696289 93.16681671142578 28.7698917388916 87.5365219116211 29.292827606201172 C 80.49762725830078 29.515268325805664 72.19464874267578 29.30936622619629 63.62313461303711 29.471952438354492 C 58.2446174621582 29.615509033203125 55.96734619140625 29.6666316986084 52.73701858520508 29.587329864501953 C 46.209556579589844 29.01118278503418 38.36624526977539 28.8080997467041 31.018434524536133 29.212812423706055 C 25.167755126953125 29.263805389404297 21.24638557434082 29.349328994750977 18.106430053710938 29.602067947387695 C 15.353827476501465 29.338214874267578 13.437572479248047 29.192733764648438 11.7161283493042 29.871173858642578 C 9.810117721557617 30.641704559326172 8.476520538330078 31.933612823486328 7.897191524505615 35.127479553222656" stroke-width="2.0" fill="rgb(0, 0, 255)" opacity="1.0" stroke="rgb(0, 0, 255)" stroke-opacity="1.0" stroke-linecap="round" stroke-linejoin="round"/>
  </g>
</svg>
