<?xml version="1.0" ?>
<svg xmlns="http://www.w3.org/2000/svg" version="1.1" width="128" height="128">
  <defs/>
  <g>
    <path d="M 77.9140396118164 102.53892517089844 C 77.91630554199219 102.54644775390625 77.82123565673828 102.52139282226562 77.83662414550781 102.50765228271484 C 78.99649047851562 102.51524353027344 81.88551330566406 102.59148406982422 86.5745849609375 102.59052276611328 C 92.17153930664062 102.66210174560547 96.49807739257812 102.70792388916016 99.59487915039062 102.66453552246094 C 102.100341796875 102.573974609375 103.59521484375 102.16407012939453 104.6442642211914 101.04638671875 C 105.63853454589844 99.33869171142578 105.91217041015625 97.08016967773438 105.80027770996094 93.87918853759766 C 105.18549346923828 89.98999786376953 103.69110870361328 85.33712005615234 103.51036834716797 78.96033477783203 C 104.26293182373047 72.50144958496094 103.38651275634766 68.88365936279297 102.01058959960938 67.06078338623047 C 102.7441635131836 64.86962890625 105.14893341064453 62.243492126464844 106.8681411743164 59.969181060791016 C 106.58727264404297 59.08487319946289 104.18116760253906 60.110652923583984 101.28953552246094 61.05901336669922 C 99.88259887695312 59.350914001464844 99.44146728515625 55.90361785888672 100.1926498413086 53.30349349975586 C 102.14093017578125 52.15946578979492 103.600341796875 51.90822219848633 105.0069808959961 51.46294403076172 C 106.36202239990234 50.27167510986328 106.03983306884766 48.883975982666016 104.70297241210938 46.36717224121094 C 103.3514175415039 41.93656921386719 99.97112274169922 37.384063720703125 94.59605407714844 33.793121337890625 C 90.43997192382812 30.936565399169922 87.59706115722656 29.562786102294922 84.61734771728516 28.798410415649414 C 81.76541900634766 27.411226272583008 77.39769744873047 26.119077682495117 69.68864440917969 25.32221031188965 C 61.54405975341797 24.76442527770996 56.54521560668945 25.142099380493164 53.10081481933594 26.4530086517334 C 50.11399459838867 26.886734008789062 46.94776916503906 27.543865203857422 41.809017181396484 29.577180862426758 C 36.15487289428711 31.466154098510742 32.10276794433594 34.114078521728516 28.051006317138672 38.768611907958984 C 24.130144119262695 42.99357223510742 22.298534393310547 46.58707046508789 21.808128356933594 49.590450286865234 C 21.65842628479004 50.80762481689453 22.158992767333984 50.72299575805664 22.60518455505371 50.5088996887207" stroke-width="2.0" fill="rgb(252, 194, 27)" opacity="1.0" stroke="rgb(252, 194, 27)" stroke-opacity="1.0" stroke-linecap="round" stroke-linejoin="round"/>
    <path d="M 77.38616180419922 101.43748474121094 C 77.38990783691406 101.4454574584961 77.28842163085938 101.42042541503906 77.27715301513672 101.3939208984375 C 78.3951644897461 101.37725067138672 81.21803283691406 101.38362884521484 86.07456970214844 101.2894058227539 C 91.9468765258789 101.2887191772461 96.23225402832031 101.31294250488281 99.1187973022461 101.32063293457031 C 101.53912353515625 101.27439880371094 102.96963500976562 100.85796356201172 103.78865814208984 99.74435424804688 C 104.4818115234375 98.09984588623047 104.5206527709961 95.93931579589844 104.16658782958984 92.81416320800781 C 103.2786636352539 88.86920166015625 101.72471618652344 83.99331665039062 101.64063262939453 77.45884704589844 C 102.19163513183594 71.18257141113281 100.95361328125 67.90487670898438 99.52125549316406 66.27286529541016 C 100.4688949584961 64.54803466796875 102.96810150146484 62.92613220214844 104.76231384277344 61.625518798828125 C 104.66995239257812 61.166812896728516 102.37662506103516 62.14668273925781 99.88964080810547 62.57465744018555 C 99.38140106201172 59.92789840698242 99.36664581298828 55.840492248535156 99.38191986083984 53.1912727355957 C 100.31613159179688 52.17239761352539 101.4224624633789 51.92632293701172 103.05317687988281 51.54399490356445 C 104.77118682861328 50.4630012512207 104.61172485351562 49.17876434326172 103.43523406982422 46.90988540649414 C 102.49938201904297 42.902061462402344 99.5460205078125 38.70599365234375 94.42715454101562 35.24532699584961 C 90.29570007324219 32.31074905395508 87.15581512451172 30.828386306762695 83.9668197631836 29.937843322753906 C 81.05680847167969 28.433326721191406 76.61033630371094 27.12432861328125 68.93514251708984 26.488344192504883 C 61.0270881652832 26.138582229614258 56.2614860534668 26.489116668701172 53.04690170288086 27.563430786132812 C 50.14436721801758 27.905221939086914 47.103633880615234 28.670461654663086 42.277618408203125 30.786840438842773 C 37.010704040527344 32.652503967285156 33.21013259887695 35.07748031616211 29.391218185424805 39.2840461730957 C 25.605073928833008 43.00593185424805 23.722736358642578 46.352848052978516 23.084171295166016 49.37913131713867 C 22.902189254760742 50.61581802368164 23.606908798217773 50.50252151489258 24.123533248901367 50.050838470458984" stroke-width="2.0" fill="rgb(255, 0, 0)" opacity="1.0" stroke="rgb(255, 0, 0)" stroke-opacity="1.0" stroke-linecap="round" stroke-linejoin="round"/>
    <path d="M 78.0928955078125 101.54866790771484 C 78.09576416015625 101.55701446533203 77.99742889404297 101.53135681152344 78.01441955566406 101.53308868408203 C 79.13763427734375 101.54692840576172 81.90238952636719 101.55744171142578 86.75210571289062 101.48907470703125 C 92.57831573486328 101.53388977050781 96.73590087890625 101.59899139404297 99.50016784667969 101.63888549804688 C 101.8616943359375 101.57553100585938 103.28730010986328 101.0838394165039 104.14807891845703 99.85182189941406 C 104.8899917602539 98.0849838256836 104.98381805419922 95.8905029296875 104.64448547363281 92.79976654052734 C 103.77101135253906 88.9297866821289 102.36487579345703 84.12106323242188 102.45814514160156 77.62902069091797 C 103.04086303710938 71.41858673095703 101.84068298339844 68.11016082763672 100.37045288085938 66.3838882446289 C 101.06368255615234 64.57572937011719 103.41561126708984 62.74769592285156 105.13912200927734 61.09830856323242 C 104.88162994384766 60.4495735168457 102.56752014160156 61.483421325683594 99.92718505859375 62.41682052612305 C 98.80744171142578 60.557647705078125 98.43099975585938 56.766361236572266 98.69689178466797 53.69940948486328 C 100.08641815185547 52.2833366394043 101.51436614990234 51.98584747314453 103.3059310913086 51.66988754272461 C 105.06819152832031 50.61193084716797 104.98323822021484 49.30451202392578 103.81055450439453 46.94502639770508 C 102.7433090209961 42.81621551513672 99.75762176513672 38.46206283569336 94.67382049560547 34.88977813720703 C 90.42860412597656 31.965126037597656 87.18043518066406 30.529695510864258 84.00495147705078 29.683956146240234 C 81.16619873046875 28.22315216064453 76.8633041381836 26.932592391967773 69.39775085449219 26.258161544799805 C 61.57683181762695 25.84975242614746 56.66314697265625 26.17828941345215 53.22043991088867 27.258573532104492 C 50.214290618896484 27.55121421813965 46.987640380859375 28.296567916870117 41.92689895629883 30.489286422729492 C 36.50660705566406 32.44367599487305 32.687007904052734 34.93735122680664 28.934749603271484 39.133052825927734 C 25.254079818725586 42.84306716918945 23.476016998291016 46.264404296875 22.89015007019043 49.42629623413086 C 22.648826599121094 50.84253692626953 23.246843338012695 50.887977600097656 23.88351821899414 50.563934326171875" stroke-width="2.0" fill="rgb(0, 255, 0)" opacity="1.0" stroke="rgb(0, 255, 0)" stroke-opacity="1.0" stroke-linecap="round" stroke-linejoin="round"/>
    <path d="M 78.44206237792969 102.36630249023438 C 78.44465637207031 102.37446594238281 78.35078430175781 102.3499755859375 78.37816619873047 102.35041809082031 C 79.5301513671875 102.36775207519531 82.29052734375 102.39318084716797 86.9080810546875 102.35175323486328 C 92.47032165527344 102.40618133544922 96.64241790771484 102.45118713378906 99.55111694335938 102.41381072998047 C 101.95835876464844 102.30184936523438 103.42371368408203 101.79386138916016 104.4576416015625 100.50592803955078 C 105.41802215576172 98.64012908935547 105.65436553955078 96.3448715209961 105.40160369873047 93.20451354980469 C 104.58477020263672 89.3773193359375 103.18124389648438 84.67084503173828 103.27513122558594 78.2389144897461 C 103.99604034423828 72.00753021240234 102.98896026611328 68.63200378417969 101.49835968017578 66.8398666381836 C 101.95368957519531 64.8540267944336 104.23104095458984 62.65385437011719 106.08688354492188 60.50868225097656 C 105.83838653564453 59.46975326538086 103.36442565917969 60.4266357421875 100.47570037841797 61.61410140991211 C 99.05577850341797 60.1917610168457 98.5435562133789 56.69409942626953 99.109375 53.71397018432617 C 100.95415496826172 52.3279914855957 102.5452651977539 52.03917694091797 104.23628234863281 51.650970458984375 C 105.81719207763672 50.507530212402344 105.59603118896484 49.135746002197266 104.29298400878906 46.64669418334961 C 103.03813171386719 42.319759368896484 99.87841796875 37.83234405517578 94.64373779296875 34.2362060546875 C 90.36080169677734 31.37105369567871 87.32908630371094 29.98526382446289 84.34617614746094 29.193252563476562 C 81.59800720214844 27.791439056396484 77.38638305664062 26.52192497253418 70.00631713867188 25.767539978027344 C 62.169193267822266 25.243762969970703 57.13518142700195 25.55842399597168 53.49357223510742 26.76422119140625 C 50.358638763427734 27.14142608642578 46.979591369628906 27.852699279785156 41.76304626464844 30.00551414489746 C 36.1576042175293 31.970355987548828 32.18288803100586 34.569496154785156 28.31568717956543 38.955833435058594 C 24.589157104492188 42.880043029785156 22.851747512817383 46.398948669433594 22.360200881958008 49.54731369018555 C 22.158702850341797 50.96516418457031 22.61359214782715 51.015541076660156 23.076330184936523 50.81475830078125" stroke-width="2.0" fill="rgb(0, 0, 255)" opacity="1.0" stroke="rgb(0, 0, 255)" stroke-opacity="1.0" stroke-linecap="round" stroke-linejoin="round"/>
  </g>
</svg>
