<?xml version="1.0" ?>
<svg xmlns="http://www.w3.org/2000/svg" version="1.1" width="128" height="128">
  <defs/>
  <g>
    <path d="M 0.18834032118320465 51.114105224609375 C 0.18812407553195953 51.12284469604492 0.1882646679878235 51.107574462890625 0.18930275738239288 51.2071647644043 C 0.19053952395915985 51.53127670288086 0.1760447919368744 52.238304138183594 0.14268988370895386 53.1191520690918 C 0.10637354850769043 53.07341766357422 0.0743986964225769 51.853057861328125 0.05069670081138611 49.59442901611328 C 0.0368017852306366 46.53118133544922 0.028970060870051384 43.29328155517578 0.02442646212875843 40.35362243652344 C 0.022891992703080177 37.34159851074219 0.027482770383358 33.8503303527832 0.06018994376063347 30.491119384765625 C 0.30446428060531616 28.971717834472656 2.8808512687683105 31.18596649169922 27.83042335510254 34.60407638549805 C 81.32421875 33.32752227783203 93.15153503417969 33.7643928527832 81.68144989013672 41.31360626220703 C 71.37535858154297 47.032649993896484 65.81771087646484 49.64405822753906 58.347015380859375 52.66982650756836 C 49.869686126708984 56.53172302246094 41.89137268066406 61.24344253540039 36.00107955932617 65.6970443725586 C 33.69812774658203 68.1688003540039 33.42571258544922 69.21611785888672 34.44735336303711 69.85542297363281 C 37.85060501098633 70.31944274902344 41.9557991027832 72.49748992919922 45.44270706176758 77.1974105834961 C 48.947872161865234 83.10884094238281 50.018096923828125 89.00092315673828 48.902313232421875 94.03034210205078 C 48.33259963989258 97.57485961914062 47.758888244628906 100.23026275634766 47.87814712524414 102.2036361694336 C 49.86539840698242 102.94312286376953 51.75375747680664 102.5737533569336 53.90489959716797 101.03236389160156 C 57.77931594848633 97.93783569335938 61.441646575927734 93.75492095947266 65.76434326171875 88.76299285888672 C 71.2658462524414 82.34524536132812 74.09526062011719 75.12338256835938 74.10032653808594 68.6175308227539 C 75.59813690185547 62.79976272583008 80.30574798583984 57.17497634887695 87.03372192382812 51.14252853393555 C 93.6817855834961 45.80107879638672 97.943115234375 43.014923095703125 100.09754180908203 41.453128814697266 C 100.96255493164062 38.455223083496094 99.08257293701172 34.219791412353516 95.03076171875 29.90608024597168 C 90.93476104736328 26.541696548461914 86.65970611572266 26.210641860961914 83.49129486083984 30.347476959228516" stroke-width="2.0" fill="rgb(252, 194, 27)" opacity="1.0" stroke="rgb(252, 194, 27)" stroke-opacity="1.0" stroke-linecap="round" stroke-linejoin="round"/>
    <path d="M 9.379428774991538e-06 40.80868911743164 C 9.375190529681277e-06 40.81315994262695 9.385638804815244e-06 40.809120178222656 9.377461537951604e-06 40.82868957519531 C 9.346302249468863e-06 40.93544006347656 9.125860742642544e-06 41.20931625366211 8.503268873027992e-06 41.71009063720703 C 7.5131461017008405e-06 42.24565887451172 6.500039489765186e-06 42.6202507019043 5.860670626134379e-06 42.60283660888672 C 5.764903562521795e-06 42.30525588989258 6.172264420456486e-06 42.120792388916016 7.15817714080913e-06 42.255374908447266 C 9.266902452509385e-06 42.55219650268555 1.3424909411696717e-05 43.115638732910156 2.106635474774521e-05 44.245262145996094 C 3.493748226901516e-05 45.93389892578125 5.921035699429922e-05 48.01045227050781 9.969467646442354e-05 50.22306442260742 C 0.0001689840864855796 52.36030197143555 0.0002908189198933542 54.39167022705078 0.0005021950346417725 56.360469818115234 C 0.0008624212932772934 58.238380432128906 0.001440916326828301 60.088680267333984 0.0022938502952456474 62.02677917480469 C 0.003484693355858326 63.968421936035156 0.005090153776109219 65.77210235595703 0.0072514512576162815 67.28584289550781 C 0.010262473486363888 68.52153778076172 0.01434700470417738 69.72998809814453 0.019453920423984528 71.03194427490234 C 0.025703255087137222 72.27328491210938 0.03338531404733658 73.35943603515625 0.04228481650352478 74.34555053710938 C 0.05257768556475639 75.22612762451172 0.06547292321920395 75.94914245605469 0.08045011013746262 76.74357604980469 C 0.09463503211736679 77.78878021240234 0.10463500767946243 78.94575500488281 0.10934127867221832 79.93092346191406 C 0.10971929132938385 80.55015563964844 0.10648323595523834 80.7597427368164 0.10029909014701843 80.67689514160156 C 0.09233895689249039 80.41436004638672 0.0823332741856575 80.1078109741211 0.07087817788124084 79.71759796142578 C 0.05948205664753914 79.02190399169922 0.04730638861656189 78.12259674072266 0.034254059195518494 77.26448059082031 C 0.023102212697267532 76.19171142578125 0.015071379020810127 74.71936798095703 0.009556164965033531 73.06463623046875 C 0.00586750777438283 71.36111450195312 0.003516369964927435 69.6382827758789 0.002089386573061347 67.86856079101562 C 0.0012600015616044402 65.836181640625 0.0007756746490485966 63.63849639892578 0.0004836430889554322 61.62396240234375 C 0.0003063322219531983 59.82108688354492 0.00019473441352602094 58.1577033996582 0.00012187790707685053 56.63262176513672" stroke-width="2.0" fill="rgb(255, 0, 0)" opacity="1.0" stroke="rgb(255, 0, 0)" stroke-opacity="1.0" stroke-linecap="round" stroke-linejoin="round"/>
    <path d="M 4.792198524228297e-06 40.85286331176758 C 4.790288130607223e-06 40.85809326171875 4.794008418684825e-06 40.85184097290039 4.791238097823225e-06 40.86093521118164 C 4.7884241212159395e-06 40.92392349243164 4.715283921541413e-06 41.115814208984375 4.472924047149718e-06 41.51603698730469 C 4.0595218706585e-06 41.955772399902344 3.6067656310478924e-06 42.294803619384766 3.3053254355763784e-06 42.383304595947266 C 3.258360493418877e-06 42.23678207397461 3.4531922210589983e-06 42.1688232421875 3.939188900403678e-06 42.345191955566406 C 5.001236331736436e-06 42.62272644042969 7.075927896948997e-06 43.15875244140625 1.0780758202599827e-05 44.23432922363281 C 1.735176374495495e-05 45.79584884643555 2.8884584025945514e-05 47.71814727783203 4.807666118722409e-05 49.833839416503906 C 7.93951257946901e-05 51.95323944091797 0.00013090911670587957 53.989933013916016 0.00021664770611096174 55.91572570800781 C 0.00036123458994552493 57.704402923583984 0.0005937927053309977 59.49268341064453 0.0009326255531050265 61.37594985961914 C 0.0013778663706034422 63.281951904296875 0.0019083856604993343 65.08601379394531 0.0025242127012461424 66.64024353027344 C 0.0032795837614685297 67.87589263916016 0.004199604969471693 68.92491149902344 0.005253584589809179 69.93678283691406 C 0.006502453703433275 70.89096069335938 0.008012191392481327 71.73760986328125 0.009651345200836658 72.55254364013672 C 0.011317559517920017 73.34929656982422 0.013032295741140842 74.03973388671875 0.014676316641271114 74.66287231445312 C 0.01617700234055519 75.26346588134766 0.017546357586979866 75.70304870605469 0.018525471910834312 75.9542236328125 C 0.019032424315810204 76.0877456665039 0.01920098066329956 76.09209442138672 0.01887958124279976 76.01616668701172 C 0.017957894131541252 75.8679428100586 0.016339551657438278 75.64791870117188 0.014163915999233723 75.29441833496094 C 0.011891125701367855 74.59942626953125 0.009569087065756321 73.69535827636719 0.007238131016492844 72.83136749267578 C 0.005244979169219732 71.7991714477539 0.0036953564267605543 70.51675415039062 0.0025126796681433916 69.19728088378906 C 0.0016606103163212538 67.81110382080078 0.001077088643796742 66.34941101074219 0.0006899801082909107 64.82495880126953 C 0.0004485305107664317 63.071468353271484 0.0003001872973982245 61.22944259643555 0.00020104819850530475 59.69842529296875 C 0.00013171495811548084 58.46394729614258 8.422873361269012e-05 57.2526741027832 5.304166552377865e-05 55.90285873413086" stroke-width="2.0" fill="rgb(0, 255, 0)" opacity="1.0" stroke="rgb(0, 255, 0)" stroke-opacity="1.0" stroke-linecap="round" stroke-linejoin="round"/>
    <path d="M 3.639720307546668e-05 41.5257453918457 C 3.638248745119199e-05 41.528648376464844 3.6400746466824785e-05 41.52383041381836 3.6371562600834295e-05 41.525665283203125 C 3.641438888735138e-05 41.56900405883789 3.607193139032461e-05 41.70682144165039 3.447684503044002e-05 42.03095626831055 C 3.138473039143719e-05 42.39282989501953 2.7869869882124476e-05 42.633304595947266 2.5662493499112315e-05 42.63529586791992 C 2.5700013793539256e-05 42.430389404296875 2.7842586860060692e-05 42.2813720703125 3.234981340938248e-05 42.45073318481445 C 4.094417818123475e-05 42.902217864990234 5.589476495515555e-05 43.69898223876953 8.150201756507158e-05 44.910003662109375 C 0.00012807079474441707 46.3735466003418 0.0002108949120156467 48.131492614746094 0.0003489216323941946 50.19510269165039 C 0.0005785934044979513 52.404685974121094 0.0009634972084313631 54.639766693115234 0.0016000965842977166 56.78589630126953 C 0.002661196980625391 58.71699905395508 0.0043336618691682816 60.596458435058594 0.006708654575049877 62.5882682800293 C 0.009946811944246292 64.52191925048828 0.01425695326179266 66.25141143798828 0.019838841632008553 67.78124237060547 C 0.027148747816681862 69.1148452758789 0.036651499569416046 70.30290985107422 0.04859813302755356 71.32689666748047 C 0.06357002258300781 72.24624633789062 0.08213342726230621 73.12398529052734 0.10315997898578644 74.01605224609375 C 0.12615779042243958 74.8780288696289 0.1514328420162201 75.64242553710938 0.1771904081106186 76.41998291015625 C 0.2008553147315979 77.29405975341797 0.21887286007404327 78.19509887695312 0.22709614038467407 79.01669311523438 C 0.22510415315628052 79.65282440185547 0.21559761464595795 79.95182800292969 0.20161524415016174 79.85307312011719 C 0.18596193194389343 79.4270248413086 0.16768509149551392 78.8697280883789 0.1466902494430542 78.2425308227539 C 0.12551374733448029 77.37800598144531 0.10237196832895279 76.400634765625 0.07716286182403564 75.52462768554688 C 0.05554870888590813 74.39250946044922 0.03929359093308449 72.921630859375 0.027034161612391472 71.5122299194336 C 0.017880748957395554 70.2325439453125 0.011243369430303574 68.98898315429688 0.0068396590650081635 67.6636734008789 C 0.00427242973819375 65.86823272705078 0.0027725619729608297 63.785404205322266 0.0017671005334705114 62.09670639038086 C 0.001087657525204122 60.72018051147461 0.0006609606207348406 59.21524429321289 0.00040526315569877625 57.55488967895508" stroke-width="2.0" fill="rgb(0, 0, 255)" opacity="1.0" stroke="rgb(0, 0, 255)" stroke-opacity="1.0" stroke-linecap="round" stroke-linejoin="round"/>
  </g>
</svg>
