<?xml version="1.0" ?>
<svg xmlns="http://www.w3.org/2000/svg" version="1.1" width="128" height="128">
  <defs/>
  <g>
    <path d="M 77.45852661132812 111.27418518066406 C 77.45113372802734 111.2742691040039 77.32135009765625 111.27422332763672 77.14386749267578 111.2027359008789 C 77.83851623535156 110.81155395507812 80.17378997802734 109.84616088867188 83.51376342773438 108.4781723022461 C 86.4313735961914 107.3492431640625 88.03321075439453 106.29829406738281 90.07794189453125 105.17362213134766 C 93.6941909790039 103.73269653320312 97.12248992919922 101.39006042480469 100.26177215576172 97.68421173095703 C 103.9586181640625 93.37936401367188 106.67900085449219 89.2325439453125 108.76206970214844 84.73204803466797 C 111.54877471923828 80.49237060546875 112.86354064941406 77.80004119873047 112.45093536376953 76.24968719482422 C 112.13265228271484 74.72965240478516 112.40934753417969 73.25045013427734 113.64519500732422 70.80049896240234 C 115.43394470214844 66.30400085449219 115.91289520263672 61.75438690185547 115.05101013183594 59.22055435180664 C 114.29389953613281 57.69489669799805 113.14324188232422 56.68492889404297 111.77285766601562 55.5380973815918 C 111.8072738647461 52.703765869140625 111.73804473876953 49.968292236328125 110.77076721191406 48.59011459350586 C 110.15576171875 47.073909759521484 108.84175872802734 46.19736099243164 106.15347290039062 46.57601547241211 C 103.3683853149414 45.79066467285156 100.19596099853516 42.866783142089844 97.0794906616211 38.571067810058594 C 95.74288177490234 33.86253356933594 94.32624053955078 30.450197219848633 91.7280044555664 28.46971893310547 C 89.65013122558594 27.09310531616211 87.22828674316406 26.925519943237305 83.00366973876953 27.521522521972656 C 78.45360565185547 27.443788528442383 74.23556518554688 26.169532775878906 69.7403335571289 23.574846267700195 C 66.069580078125 20.851337432861328 63.01526641845703 20.477434158325195 59.55792236328125 22.52389144897461 C 57.10844802856445 24.527488708496094 54.24223709106445 26.17328453063965 48.102699279785156 27.49779510498047 C 41.7645263671875 27.24466896057129 38.436702728271484 27.09516716003418 36.37732696533203 28.633283615112305 C 34.19517135620117 30.559362411499023 32.62912368774414 33.50804901123047 30.33905792236328 38.36957550048828 C 26.48847770690918 42.20492935180664 22.2650146484375 44.298912048339844 17.455638885498047 46.41196823120117" stroke-width="2.0" fill="rgb(252, 194, 27)" opacity="1.0" stroke="rgb(252, 194, 27)" stroke-opacity="1.0" stroke-linecap="round" stroke-linejoin="round"/>
    <path d="M 1.5769094228744507 55.10050582885742 C 1.5758605003356934 55.094966888427734 1.5660982131958008 55.01909255981445 1.563620924949646 54.68550491333008 C 1.6904668807983398 53.79995346069336 2.129606246948242 52.37648010253906 3.1715824604034424 51.17853546142578 C 5.201175689697266 50.826942443847656 8.845154762268066 51.4946403503418 15.280599594116211 53.03273010253906 C 24.215532302856445 56.0421257019043 33.52386474609375 59.88898468017578 46.36782455444336 62.661277770996094 C 62.645015716552734 62.442039489746094 75.32792663574219 61.5909309387207 83.11868286132812 60.066158294677734 C 88.98009490966797 58.877838134765625 92.88963317871094 58.68325424194336 95.09858703613281 59.570716857910156 C 96.52995300292969 60.324432373046875 96.67091369628906 60.954959869384766 95.62969207763672 61.82124710083008 C 94.82183837890625 62.07551574707031 93.6693115234375 62.08123016357422 92.07421112060547 62.39170837402344 C 90.79698181152344 62.029144287109375 88.8003158569336 61.238487243652344 86.1241455078125 60.69000244140625 C 83.61166381835938 59.98747253417969 80.3641586303711 59.872467041015625 76.76653289794922 60.2677116394043 C 74.18241119384766 59.83774185180664 72.42765045166016 58.732261657714844 71.36832427978516 57.472923278808594 C 70.2839126586914 56.0595817565918 68.73541259765625 55.256805419921875 67.95020294189453 55.12840270996094 C 68.2320785522461 55.05195999145508 68.6162109375 55.48638153076172 69.73648071289062 56.5014762878418 C 71.48912048339844 57.37002944946289 72.74954986572266 58.06219482421875 75.07483673095703 58.72157287597656 C 79.525634765625 59.60107421875 84.6202621459961 60.98679733276367 89.8526840209961 61.99006652832031 C 94.92044067382812 62.18024826049805 98.90943145751953 62.36355972290039 101.91651916503906 62.49721145629883 C 104.13164520263672 62.22111511230469 105.14002990722656 61.969364166259766 105.38500213623047 61.63908767700195 C 105.22943878173828 60.675392150878906 104.19871520996094 59.60784149169922 102.8248519897461 58.591976165771484 C 101.82173156738281 56.7098503112793 100.25870513916016 54.17977523803711 97.7688217163086 52.066410064697266 C 94.56134796142578 50.648380279541016 89.22978973388672 50.70968246459961 79.81971740722656 52.29343032836914" stroke-width="2.0" fill="rgb(255, 0, 0)" opacity="1.0" stroke="rgb(255, 0, 0)" stroke-opacity="1.0" stroke-linecap="round" stroke-linejoin="round"/>
    <path d="M 38.638118743896484 61.864280700683594 C 38.629024505615234 61.84727096557617 38.34877014160156 61.86588668823242 38.243961334228516 61.94210433959961 C 40.48400115966797 62.00276565551758 47.3585205078125 62.16807174682617 58.23170852661133 62.33986282348633 C 69.12176513671875 62.465362548828125 76.10491180419922 62.5958137512207 80.576171875 62.44127655029297 C 84.96862030029297 62.227203369140625 88.4695816040039 62.33433532714844 91.31145477294922 62.11049270629883 C 94.72640991210938 61.23072814941406 97.14488220214844 60.63941192626953 98.30195617675781 60.552249908447266 C 99.9441146850586 60.3869514465332 101.46044158935547 60.606197357177734 102.50132751464844 61.06512451171875 C 103.87104797363281 60.947933197021484 104.52701568603516 61.11555099487305 104.13250732421875 62.1401252746582 C 103.76598358154297 62.73593521118164 103.15164947509766 62.987239837646484 102.09827423095703 63.53842544555664 C 101.1056900024414 63.48691177368164 99.75059509277344 63.171634674072266 98.09162139892578 63.18589782714844 C 96.18223571777344 62.690574645996094 93.39178466796875 62.00597381591797 90.38319396972656 61.65807342529297 C 87.39437103271484 61.10965347290039 83.76288604736328 60.67866134643555 80.77240753173828 60.38109588623047 C 79.24771118164062 59.485382080078125 78.39766693115234 58.288818359375 78.79856872558594 56.83717727661133 C 79.97490692138672 54.87379837036133 80.41523742675781 53.20570755004883 81.49974060058594 51.7175407409668 C 83.32917785644531 50.222747802734375 84.48772430419922 49.621734619140625 86.4237060546875 49.77674865722656 C 90.0163803100586 50.1801872253418 93.6959228515625 51.227684020996094 97.48709106445312 52.86764144897461 C 101.32241821289062 54.854976654052734 103.82162475585938 57.85308074951172 105.67617797851562 61.1777229309082 C 108.13822174072266 62.988155364990234 110.26573944091797 63.46647644042969 111.79452514648438 62.80331802368164 C 113.10367584228516 60.26292037963867 113.85749816894531 56.52742385864258 114.08869171142578 52.329833984375 C 113.8153076171875 47.84938049316406 111.86872100830078 44.724422454833984 107.7280044555664 43.76996994018555 C 102.97747802734375 41.75779724121094 99.16090393066406 36.871734619140625 96.28883361816406 31.69577980041504" stroke-width="2.0" fill="rgb(0, 255, 0)" opacity="1.0" stroke="rgb(0, 255, 0)" stroke-opacity="1.0" stroke-linecap="round" stroke-linejoin="round"/>
    <path d="M 77.39163208007812 113.17733001708984 C 77.3861083984375 113.17997741699219 77.26862335205078 113.17644500732422 77.12088012695312 113.14249420166016 C 77.75000762939453 112.80548095703125 79.88475036621094 111.91979217529297 83.45088958740234 110.61223602294922 C 86.96171569824219 109.4177017211914 88.69297790527344 108.21818542480469 90.26985168457031 107.05762481689453 C 93.08071899414062 105.75167846679688 96.27894592285156 103.611328125 99.78884887695312 100.04269409179688 C 104.04373931884766 95.71863555908203 107.39049530029297 91.5726318359375 109.37874603271484 87.53793334960938 C 111.83876037597656 83.4968032836914 113.4632568359375 80.5308837890625 113.6541748046875 78.40096282958984 C 113.87631225585938 76.19746398925781 114.42312622070312 74.09163665771484 115.3914794921875 71.32978820800781 C 116.7036361694336 66.75321197509766 116.95370483398438 62.39048385620117 115.93128204345703 60.373077392578125 C 114.93941497802734 59.49203872680664 113.94348907470703 58.46352005004883 113.38731384277344 56.154022216796875 C 114.05168914794922 52.02288055419922 113.81161499023438 48.86094284057617 112.35546112060547 47.54005432128906 C 111.52978515625 45.85835647583008 110.12200164794922 44.57612991333008 107.11207580566406 44.22057342529297 C 103.9377212524414 42.28495407104492 100.41143035888672 38.48918533325195 97.1788558959961 34.328399658203125 C 95.72693634033203 30.656919479370117 94.19865417480469 28.379234313964844 91.49398040771484 27.196975708007812 C 89.21050262451172 26.310359954833984 86.89527893066406 26.253801345825195 82.9686050415039 26.707021713256836 C 78.35069274902344 26.408105850219727 74.16209411621094 24.885692596435547 70.1611328125 22.309432983398438 C 66.77873992919922 19.707904815673828 63.50347137451172 19.22048568725586 59.82074737548828 21.192642211914062 C 57.3409309387207 23.358535766601562 54.76311111450195 25.088886260986328 48.88307571411133 26.496326446533203 C 42.21445846557617 26.400972366333008 38.16923141479492 26.312530517578125 35.60317611694336 27.665292739868164 C 33.43370056152344 29.557601928710938 31.886474609375 32.688350677490234 29.432376861572266 37.6446647644043 C 25.461828231811523 41.57481384277344 21.422853469848633 43.844444274902344 17.252201080322266 45.63084030151367" stroke-width="2.0" fill="rgb(0, 0, 255)" opacity="1.0" stroke="rgb(0, 0, 255)" stroke-opacity="1.0" stroke-linecap="round" stroke-linejoin="round"/>
  </g>
</svg>
