<?xml version="1.0" ?>
<svg xmlns="http://www.w3.org/2000/svg" version="1.1" width="128" height="128">
  <defs/>
  <g>
    <path d="M 73.61084747314453 97.19329833984375 C 73.61495208740234 97.20236206054688 73.47298431396484 97.17692565917969 73.40812683105469 97.15214538574219 C 74.2403793334961 96.77328491210938 76.34455871582031 95.98416137695312 78.82545471191406 94.9935073852539 C 81.68195343017578 93.90776062011719 84.7353515625 92.06629943847656 87.96515655517578 89.14570617675781 C 91.57573699951172 85.43084716796875 94.17101287841797 81.8355712890625 95.6369400024414 78.71197509765625 C 96.62031555175781 76.13121795654297 96.51993560791016 74.29219818115234 95.73686981201172 73.18094635009766 C 94.97528839111328 72.90971374511719 94.22279357910156 73.41446685791016 94.17951202392578 73.98785400390625 C 94.64974975585938 74.45305633544922 94.73753356933594 75.03827667236328 95.667236328125 75.59432983398438 C 97.33165740966797 75.68051147460938 97.27398681640625 75.78340148925781 96.48411560058594 76.3564682006836 C 96.82545471191406 76.54895782470703 97.09553527832031 76.08479309082031 97.44758605957031 75.19413757324219 C 98.2118148803711 73.9078598022461 98.10355377197266 72.97047424316406 97.90436553955078 72.08807373046875 C 98.25946044921875 70.64833068847656 98.18297576904297 69.32579803466797 98.47317504882812 67.96509552001953 C 99.24100494384766 65.9374008178711 98.83690643310547 63.995887756347656 98.4172134399414 61.78598403930664 C 98.87750244140625 57.872074127197266 97.67273712158203 52.85184097290039 94.47664642333984 47.267452239990234 C 91.26337432861328 41.29927444458008 87.50840759277344 37.06099319458008 82.82029724121094 34.89242935180664 C 79.44257354736328 32.50764846801758 75.951904296875 30.44039535522461 69.86040496826172 29.52443504333496 C 63.19218063354492 29.041933059692383 58.71052169799805 29.26019859313965 55.0422477722168 30.476924896240234 C 51.960487365722656 31.025354385375977 49.482322692871094 31.881694793701172 45.88346481323242 34.25606918334961 C 41.336647033691406 36.725128173828125 37.79319763183594 39.95126724243164 34.634254455566406 44.95815658569336 C 31.919483184814453 49.28944778442383 30.47507095336914 52.802040100097656 29.67523956298828 56.21215057373047 C 28.95455551147461 58.7825813293457 28.754220962524414 60.31155014038086 28.48149299621582 61.270294189453125" stroke-width="2.0" fill="rgb(252, 194, 27)" opacity="1.0" stroke="rgb(252, 194, 27)" stroke-opacity="1.0" stroke-linecap="round" stroke-linejoin="round"/>
    <path d="M 73.67012023925781 104.22777557373047 C 73.6683578491211 104.2269058227539 73.5084228515625 104.21688842773438 73.44060516357422 104.1553955078125 C 74.45023345947266 103.78096008300781 77.20665740966797 102.81777954101562 80.6691665649414 101.57223510742188 C 83.2057113647461 100.53462219238281 85.23717498779297 99.2009048461914 88.4711685180664 97.02088928222656 C 92.66260528564453 93.97626495361328 96.09581756591797 90.13208770751953 98.73841857910156 85.95928192138672 C 101.12674713134766 82.06117248535156 102.90878295898438 78.51783752441406 103.71397399902344 75.31721496582031 C 103.83502960205078 73.22315979003906 103.67503356933594 72.95174407958984 103.99633026123047 73.29134368896484 C 105.18070220947266 73.27926635742188 106.26204681396484 73.3099136352539 107.82879638671875 73.02799987792969 C 110.02262878417969 71.6875 111.23957824707031 70.0524673461914 111.91191101074219 67.99000549316406 C 112.80095672607422 64.90499877929688 112.39795684814453 62.177734375 111.04376983642578 60.42127227783203 C 110.36127471923828 58.65009689331055 109.2587661743164 57.71405029296875 107.47750091552734 57.899776458740234 C 106.41575622558594 58.145503997802734 105.59434509277344 58.45472717285156 104.95902252197266 58.43502426147461 C 105.04605865478516 56.93745040893555 104.48200225830078 54.4558219909668 103.1776351928711 50.712066650390625 C 101.56089782714844 44.891998291015625 97.66802978515625 38.70311737060547 92.00713348388672 33.67904281616211 C 87.9843521118164 30.252500534057617 85.414794921875 28.55455207824707 82.23381042480469 27.249835968017578 C 78.67731475830078 25.034866333007812 74.37828826904297 23.407554626464844 66.83483123779297 23.140167236328125 C 59.44453811645508 22.976547241210938 55.62955093383789 23.446073532104492 52.713130950927734 24.65559959411621 C 49.89635467529297 25.076650619506836 47.50605010986328 25.854604721069336 43.72478103637695 28.115219116210938 C 39.42923355102539 30.18798828125 36.10253143310547 32.5732421875 32.00478744506836 37.54568099975586 C 27.447954177856445 43.128623962402344 25.169769287109375 47.98134231567383 23.999401092529297 52.57557678222656 C 22.687232971191406 55.91926574707031 22.04402732849121 57.656524658203125 21.041501998901367 58.209781646728516" stroke-width="2.0" fill="rgb(255, 0, 0)" opacity="1.0" stroke="rgb(255, 0, 0)" stroke-opacity="1.0" stroke-linecap="round" stroke-linejoin="round"/>
    <path d="M 73.89049530029297 104.99146270751953 C 73.88819885253906 104.98982238769531 73.7300796508789 104.98019409179688 73.66515350341797 104.92243194580078 C 74.67668151855469 104.55691528320312 77.46735382080078 103.59842681884766 81.02204895019531 102.32383728027344 C 83.57524871826172 101.26424407958984 85.45500183105469 99.99090576171875 88.50513458251953 98.0196762084961 C 92.59656524658203 95.29346466064453 96.04795837402344 91.64056396484375 98.87271881103516 87.35800170898438 C 101.43091583251953 83.33198547363281 103.3001480102539 79.62222290039062 104.36270141601562 76.22176361083984 C 104.79541015625 73.94766235351562 104.82650756835938 73.5824203491211 105.20893859863281 73.88880157470703 C 106.31917572021484 73.78894805908203 107.32462310791016 73.74568176269531 108.86723327636719 73.4292984008789 C 111.04067993164062 72.02548217773438 112.26201629638672 70.24121856689453 112.95356750488281 67.96184539794922 C 113.78997802734375 64.71371459960938 113.3423843383789 61.95136642456055 111.9771957397461 60.2138786315918 C 111.23307800292969 58.44240951538086 110.17970275878906 57.39027786254883 108.62205505371094 57.24907684326172 C 107.67933654785156 57.150306701660156 106.77515411376953 57.304447174072266 105.94264221191406 57.28725051879883 C 105.81280517578125 55.828216552734375 105.163330078125 53.27088165283203 103.65802001953125 49.267391204833984 C 101.57559967041016 43.211360931396484 97.35447692871094 36.922061920166016 91.72028350830078 32.122615814208984 C 87.92976379394531 29.066801071166992 85.67291259765625 27.602493286132812 82.57062530517578 26.34393882751465 C 78.83393096923828 24.205883026123047 74.51705932617188 22.520689010620117 67.40941619873047 21.968006134033203 C 60.15326690673828 21.664087295532227 55.93931579589844 22.235675811767578 52.832679748535156 23.639232635498047 C 50.12907028198242 24.217453002929688 47.76286315917969 24.966691970825195 43.93467330932617 27.034528732299805 C 39.67497634887695 28.910676956176758 36.405181884765625 31.10550308227539 32.30937194824219 35.83364486694336 C 27.384117126464844 41.521183013916016 24.68864631652832 46.55622100830078 23.38003158569336 51.346717834472656 C 21.994001388549805 54.905948638916016 21.285871505737305 56.87238693237305 20.26679801940918 57.53246307373047" stroke-width="2.0" fill="rgb(0, 255, 0)" opacity="1.0" stroke="rgb(0, 255, 0)" stroke-opacity="1.0" stroke-linecap="round" stroke-linejoin="round"/>
    <path d="M 73.49629211425781 105.08589172363281 C 73.49232482910156 105.08436584472656 73.32662963867188 105.07591247558594 73.27989196777344 105.02001953125 C 74.40101623535156 104.6497802734375 77.26773834228516 103.68537139892578 80.9153823852539 102.37899017333984 C 83.55065155029297 101.28597259521484 85.41715240478516 99.99860382080078 88.44803619384766 98.0335693359375 C 92.52381896972656 95.32506561279297 95.953125 91.70655822753906 98.77925872802734 87.45989990234375 C 101.35558319091797 83.47579956054688 103.21630859375 79.77063751220703 104.25862884521484 76.36736297607422 C 104.68476104736328 74.09707641601562 104.74392700195312 73.71340942382812 105.14205169677734 73.99163055419922 C 106.23908996582031 73.8724365234375 107.2498779296875 73.81480407714844 108.81727600097656 73.46794891357422 C 110.99896240234375 72.0011978149414 112.22162628173828 70.14971923828125 112.9144058227539 67.82154846191406 C 113.70735168457031 64.55895233154297 113.19398498535156 61.820777893066406 111.82262420654297 60.09449768066406 C 111.10791778564453 58.34010696411133 110.05086517333984 57.33417510986328 108.52649688720703 57.203426361083984 C 107.65621948242188 57.053741455078125 106.77539825439453 57.15129470825195 105.91627502441406 57.07972717285156 C 105.7486572265625 55.557247161865234 105.05303192138672 52.945613861083984 103.48699188232422 48.8944206237793 C 101.35211944580078 42.818180084228516 97.1094970703125 36.636627197265625 91.53607940673828 32.023231506347656 C 87.88671112060547 29.070981979370117 85.69693756103516 27.643009185791016 82.51240539550781 26.385217666625977 C 78.71420288085938 24.20984649658203 74.42813873291016 22.50585174560547 67.43260955810547 21.94965362548828 C 60.314292907714844 21.628782272338867 56.119407653808594 22.209918975830078 52.94489288330078 23.655261993408203 C 50.17304229736328 24.267648696899414 47.72623825073242 25.020143508911133 43.85706329345703 27.06891632080078 C 39.63008117675781 28.915748596191406 36.42683792114258 31.091787338256836 32.380836486816406 35.79461669921875 C 27.46811866760254 41.4539794921875 24.774808883666992 46.4740104675293 23.47373390197754 51.273536682128906 C 22.08138084411621 54.84514617919922 21.354249954223633 56.826904296875 20.273313522338867 57.501930236816406" stroke-width="2.0" fill="rgb(0, 0, 255)" opacity="1.0" stroke="rgb(0, 0, 255)" stroke-opacity="1.0" stroke-linecap="round" stroke-linejoin="round"/>
  </g>
</svg>
