<?xml version="1.0" ?>
<svg xmlns="http://www.w3.org/2000/svg" version="1.1" width="128" height="128">
  <defs/>
  <g>
    <path d="M 64.0311508178711 105.76980590820312 C 64.03057861328125 105.7518539428711 63.981571197509766 105.7962646484375 63.876461029052734 105.80049896240234 C 63.7834358215332 105.46477508544922 63.36015319824219 103.83821868896484 62.84476852416992 99.97396850585938 C 63.43150329589844 92.15094757080078 63.43545150756836 79.62093353271484 62.677547454833984 66.79940032958984 C 62.26270294189453 57.92631149291992 63.83119583129883 52.96463394165039 68.01639556884766 49.39238739013672 C 73.53591918945312 46.19048309326172 77.93427276611328 44.72478485107422 80.15196228027344 46.00102233886719 C 81.76864624023438 49.626617431640625 84.20887756347656 55.448638916015625 87.2400131225586 61.958831787109375 C 90.21914672851562 67.51686096191406 92.7695083618164 72.34423065185547 95.80376434326172 75.79750061035156 C 98.69152069091797 76.59202575683594 99.30018615722656 75.60509490966797 98.40467834472656 74.61737823486328 C 97.61212158203125 72.9842529296875 96.81450653076172 69.61959838867188 98.1697006225586 63.5457878112793 C 101.14631652832031 55.75545120239258 100.19365692138672 52.25257110595703 95.71675109863281 54.50539016723633 C 91.48100280761719 56.902610778808594 86.98111724853516 57.64263916015625 82.29962921142578 56.873268127441406 C 80.53256225585938 54.47451400756836 81.53966522216797 51.375770568847656 85.55848693847656 47.754127502441406 C 91.21788787841797 43.66978454589844 94.1080093383789 40.014400482177734 94.83639526367188 36.42059326171875 C 95.83710479736328 31.98270606994629 94.74690246582031 28.22352409362793 90.6629409790039 25.237625122070312 C 86.47661590576172 22.219852447509766 81.1681137084961 19.876760482788086 75.57552337646484 17.414682388305664 C 73.93260955810547 14.487682342529297 72.79939270019531 13.088264465332031 67.0987777709961 13.202126502990723 C 61.294471740722656 13.412196159362793 57.49415969848633 14.408900260925293 52.803741455078125 16.471607208251953 C 47.81593322753906 17.18290138244629 43.54252624511719 17.14508056640625 38.88671112060547 18.231914520263672 C 34.8719482421875 19.60367202758789 32.635276794433594 21.840965270996094 30.194711685180664 26.30731773376465 C 27.630807876586914 31.17824363708496 27.238574981689453 35.604679107666016 29.441499710083008 40.06924057006836" stroke-width="2.0" fill="rgb(252, 194, 27)" opacity="1.0" stroke="rgb(252, 194, 27)" stroke-opacity="1.0" stroke-linecap="round" stroke-linejoin="round"/>
    <path d="M 75.60269165039062 110.25605773925781 C 75.59150695800781 110.2468032836914 75.56624603271484 110.26083374023438 75.42741394042969 110.18360137939453 C 75.33832550048828 109.69308471679688 75.14830780029297 108.2027359008789 74.34304809570312 105.5042495727539 C 72.72647094726562 101.92488098144531 70.78572082519531 98.23291778564453 70.00728607177734 94.89171600341797 C 71.20893096923828 91.1910171508789 73.25550079345703 85.98060607910156 75.45500183105469 78.76054382324219 C 76.9888687133789 70.37425231933594 77.18921661376953 64.59201049804688 77.3666763305664 62.428470611572266 C 78.98057556152344 62.72441101074219 80.49431610107422 65.27217102050781 81.9194107055664 69.0550765991211 C 84.07251739501953 72.43737030029297 84.98812103271484 75.96354675292969 84.58833312988281 80.00808715820312 C 84.46257019042969 82.59194946289062 84.81185913085938 82.93094635009766 85.83190155029297 81.77157592773438 C 86.77373504638672 79.0706558227539 86.10049438476562 75.54803466796875 85.18672180175781 71.75993347167969 C 86.31900787353516 66.62541198730469 87.4367904663086 61.5918083190918 86.3173828125 59.14931869506836 C 82.3682861328125 59.04412841796875 76.48685455322266 59.194664001464844 73.76628875732422 58.124515533447266 C 75.65056610107422 55.894046783447266 79.22732543945312 53.46958923339844 84.55975341796875 51.283050537109375 C 89.98568725585938 49.01105499267578 92.44552612304688 46.78200149536133 94.29679107666016 44.028621673583984 C 97.578369140625 40.15687942504883 98.9765625 36.5191650390625 98.29545593261719 32.709476470947266 C 97.9975814819336 27.95083999633789 96.26470947265625 24.278423309326172 93.16889190673828 21.951457977294922 C 91.49613952636719 19.633028030395508 89.16033935546875 18.238162994384766 85.07147979736328 17.851547241210938 C 82.28772735595703 17.186172485351562 80.81245422363281 17.632568359375 79.44281005859375 19.676334381103516 C 79.4692611694336 21.67932891845703 80.56291198730469 24.26822853088379 82.12614440917969 28.16245460510254 C 85.62078094482422 31.188234329223633 89.03949737548828 33.69430160522461 88.76776123046875 37.387428283691406 C 85.5761489868164 41.628448486328125 81.58633422851562 45.75989532470703 78.15277862548828 48.24821472167969" stroke-width="2.0" fill="rgb(255, 0, 0)" opacity="1.0" stroke="rgb(255, 0, 0)" stroke-opacity="1.0" stroke-linecap="round" stroke-linejoin="round"/>
    <path d="M 76.69173431396484 111.43560791015625 C 76.67800903320312 111.43025207519531 76.64834594726562 111.44098663330078 76.4941635131836 111.3754653930664 C 76.34634399414062 110.94017791748047 76.07559967041016 109.60086822509766 75.31832885742188 107.08560943603516 C 74.1535415649414 103.84139251708984 72.76416778564453 100.67742919921875 71.40630340576172 97.79156494140625 C 70.69340515136719 94.8705825805664 71.81672668457031 91.51477813720703 74.41545867919922 86.4870834350586 C 76.6429214477539 79.9788589477539 77.29000854492188 74.08545684814453 77.32393646240234 69.92462921142578 C 78.36184692382812 67.37451934814453 79.73192596435547 67.49160766601562 81.26960754394531 69.95039367675781 C 83.33177947998047 72.72382354736328 84.25736236572266 75.9687271118164 84.10891723632812 79.86248016357422 C 84.11865234375 82.50379943847656 84.57674407958984 83.05488586425781 85.82682800292969 81.92333984375 C 86.97791290283203 79.13640594482422 86.45304870605469 75.51859283447266 85.78972625732422 71.41114807128906 C 87.4787826538086 65.62545013427734 89.21076202392578 60.026161193847656 88.46648406982422 57.633914947509766 C 85.4705810546875 57.862003326416016 80.34950256347656 58.262939453125 77.58045959472656 57.32658386230469 C 79.4493408203125 55.18924331665039 83.01338958740234 53.021793365478516 87.48377227783203 51.041542053222656 C 91.95741271972656 48.60508346557617 94.24154663085938 46.04164505004883 95.9352798461914 43.01139831542969 C 98.60928344726562 39.125179290771484 99.54971313476562 35.37681198120117 98.6770248413086 31.224153518676758 C 98.10627746582031 26.400741577148438 96.17510223388672 23.091320037841797 92.89178466796875 21.067955017089844 C 91.09430694580078 18.915632247924805 88.8008041381836 17.705415725708008 84.52449798583984 17.478090286254883 C 81.35316467285156 16.80613899230957 79.59009552001953 17.079484939575195 77.90070343017578 18.990474700927734 C 77.76551055908203 20.965131759643555 78.67012023925781 23.512521743774414 80.0391845703125 27.296777725219727 C 83.60029602050781 30.377643585205078 87.41964721679688 33.137298583984375 87.42972564697266 37.15510940551758 C 84.27754974365234 41.452392578125 80.41259765625 45.457740783691406 76.5104751586914 47.71609115600586" stroke-width="2.0" fill="rgb(0, 255, 0)" opacity="1.0" stroke="rgb(0, 255, 0)" stroke-opacity="1.0" stroke-linecap="round" stroke-linejoin="round"/>
    <path d="M 75.67005157470703 113.03448486328125 C 75.66495513916016 113.02812957763672 75.6142578125 113.03678131103516 75.58690643310547 113.01306915283203 C 75.98796081542969 112.80416870117188 76.48086547851562 111.94912719726562 76.36699676513672 110.11772155761719 C 75.37651062011719 107.35875701904297 73.80513000488281 104.11296081542969 72.19670104980469 100.94482421875 C 70.6069564819336 97.80506134033203 70.7238998413086 94.01908874511719 73.39033508300781 88.5445556640625 C 76.0420150756836 81.63436126708984 77.29287719726562 75.26655578613281 77.82454681396484 70.82218933105469 C 78.60502624511719 68.91742706298828 80.73651123046875 68.50502014160156 85.05545806884766 67.85179138183594 C 89.68570709228516 68.09387969970703 92.51081848144531 70.935546875 94.95608520507812 74.91461944580078 C 97.69091033935547 76.94224548339844 98.64897918701172 76.61563873291016 98.33316040039062 75.2237777709961 C 97.7062759399414 72.7223129272461 96.72698211669922 68.70803833007812 98.3480453491211 62.2283935546875 C 101.28820037841797 54.767578125 99.71910858154297 52.08735275268555 94.69056701660156 54.56045150756836 C 90.2150650024414 56.846336364746094 85.60829162597656 57.31022644042969 82.12020111083984 55.91786575317383 C 83.2860336303711 53.02151107788086 87.43296813964844 50.240116119384766 92.21046447753906 47.423927307128906 C 96.79259490966797 43.449241638183594 98.5906982421875 39.64900588989258 98.42033386230469 35.70024490356445 C 98.81358337402344 30.377300262451172 97.78634643554688 25.57063102722168 94.16616821289062 22.221294403076172 C 89.88732147216797 19.824390411376953 82.90717315673828 18.504072189331055 75.08479309082031 16.800159454345703 C 72.08147430419922 14.216129302978516 69.53812408447266 12.874099731445312 62.953514099121094 13.009613990783691 C 58.06340026855469 13.24743938446045 55.768157958984375 14.34772777557373 52.15384292602539 16.471134185791016 C 47.48475646972656 17.31108283996582 43.14036560058594 17.450075149536133 38.251922607421875 18.59646224975586 C 34.044307708740234 19.9728946685791 31.624164581298828 22.2073917388916 29.255096435546875 26.516328811645508 C 27.03706932067871 31.568029403686523 27.06294822692871 36.77463912963867 29.824392318725586 41.94594955444336" stroke-width="2.0" fill="rgb(0, 0, 255)" opacity="1.0" stroke="rgb(0, 0, 255)" stroke-opacity="1.0" stroke-linecap="round" stroke-linejoin="round"/>
  </g>
</svg>
