<?xml version="1.0" ?>
<svg xmlns="http://www.w3.org/2000/svg" version="1.1" width="128" height="128">
  <defs/>
  <g>
    <path d="M 71.87969970703125 98.4691390991211 C 71.88809967041016 98.47364044189453 71.75845336914062 98.45870971679688 71.69855499267578 98.4052505493164 C 72.6247329711914 98.04108428955078 75.39968872070312 97.08863067626953 78.9809799194336 95.71106719970703 C 82.39596557617188 94.20477294921875 85.61805725097656 92.21705627441406 88.79934692382812 89.41051483154297 C 91.89583587646484 86.1074447631836 94.02613067626953 83.13990783691406 95.15128326416016 81.1233139038086 C 95.19416809082031 80.04164123535156 93.84375762939453 79.34841918945312 92.14938354492188 78.52281951904297 C 90.87337493896484 77.56864166259766 89.52873992919922 76.92218017578125 88.87031555175781 76.76392364501953 C 88.90708923339844 76.71238708496094 88.35059356689453 76.55085754394531 88.82998657226562 75.59510803222656 C 91.09857940673828 73.02198028564453 92.20796966552734 69.95075225830078 92.44902801513672 67.18663024902344 C 93.36975860595703 63.90092468261719 92.8691635131836 60.54251480102539 90.68065643310547 57.284095764160156 C 88.96536254882812 54.14754104614258 87.02139282226562 52.320194244384766 84.7219009399414 51.35498809814453 C 83.12117767333984 49.764686584472656 81.01622009277344 48.4826545715332 78.37572479248047 48.244407653808594 C 76.88131713867188 48.21034622192383 75.81121063232422 48.27146530151367 74.70689392089844 48.4007682800293 C 74.70589447021484 48.097801208496094 75.06625366210938 47.332603454589844 75.3134994506836 46.08139419555664 C 75.8560791015625 44.215545654296875 75.79945373535156 42.237449645996094 74.74955749511719 39.87183380126953 C 73.63276672363281 36.75050735473633 72.29905700683594 33.940486907958984 70.54999542236328 31.78594207763672 C 69.07837677001953 29.778568267822266 66.75676727294922 28.694740295410156 62.88446807861328 28.665782928466797 C 59.923439025878906 28.46174430847168 58.01475524902344 28.795896530151367 55.463600158691406 30.217586517333984 C 53.2332878112793 31.276891708374023 51.91385269165039 32.32068634033203 50.202083587646484 34.396244049072266 C 48.1735954284668 36.613502502441406 47.17222213745117 38.89968490600586 46.8805046081543 42.100955963134766 C 46.76953125 45.22331237792969 46.94656753540039 47.48174285888672 45.85912322998047 48.64788055419922" stroke-width="2.0" fill="rgb(252, 194, 27)" opacity="1.0" stroke="rgb(252, 194, 27)" stroke-opacity="1.0" stroke-linecap="round" stroke-linejoin="round"/>
    <path d="M 73.22858428955078 97.04791259765625 C 73.2354965209961 97.05541229248047 73.10606384277344 97.03785705566406 72.98702239990234 96.97775268554688 C 73.77996826171875 96.56281280517578 76.14788818359375 95.64495086669922 79.37353515625 94.29671478271484 C 82.89875030517578 92.66728973388672 86.06352996826172 90.47410583496094 89.00675201416016 87.6851806640625 C 91.75360870361328 84.63465881347656 93.38175201416016 82.2689208984375 93.75859069824219 80.85433959960938 C 93.2204818725586 79.98827362060547 91.82453918457031 79.23548889160156 90.17012023925781 78.42864990234375 C 88.82823181152344 77.67294311523438 87.41175079345703 77.45306396484375 86.54855346679688 77.84812927246094 C 86.32674407958984 78.14997100830078 85.69633483886719 77.99847412109375 86.3868408203125 76.80219268798828 C 89.10111999511719 73.79931640625 90.69622039794922 70.01224517822266 91.18597412109375 66.5849380493164 C 92.10778045654297 62.866580963134766 91.15863800048828 59.21116256713867 88.04232788085938 56.278255462646484 C 86.03337860107422 53.50682830810547 84.41488647460938 51.72016143798828 82.07457733154297 51.02431106567383 C 80.5682601928711 49.76410675048828 78.69209289550781 48.6626091003418 76.15572357177734 48.707420349121094 C 74.82412719726562 48.87849426269531 74.00233459472656 49.14646911621094 73.30754852294922 49.736690521240234 C 73.74176788330078 49.967010498046875 74.58709716796875 49.33910369873047 75.41513061523438 47.74455642700195 C 76.69645690917969 45.35463333129883 77.31076049804688 43.15593719482422 76.84920501708984 40.901973724365234 C 75.90823364257812 38.062782287597656 74.1905288696289 35.59064865112305 72.06658935546875 33.459285736083984 C 70.61373138427734 31.208236694335938 68.46473693847656 30.047428131103516 64.86070251464844 29.895174026489258 C 62.02843475341797 29.435144424438477 59.96737289428711 29.490737915039062 57.15148162841797 30.68119239807129 C 54.721771240234375 31.64295196533203 53.25559997558594 32.66508865356445 51.54642105102539 34.674015045166016 C 49.68792724609375 36.81631088256836 48.578128814697266 39.14097595214844 48.02166748046875 42.33621597290039 C 47.80271530151367 45.36188507080078 48.257171630859375 47.53983688354492 47.63173294067383 48.77949523925781" stroke-width="2.0" fill="rgb(255, 0, 0)" opacity="1.0" stroke="rgb(255, 0, 0)" stroke-opacity="1.0" stroke-linecap="round" stroke-linejoin="round"/>
    <path d="M 72.94972229003906 97.33525848388672 C 72.95609283447266 97.34163665771484 72.83013916015625 97.32483673095703 72.6927490234375 97.27009582519531 C 73.44113159179688 96.86724090576172 75.89138793945312 95.93008422851562 79.19282531738281 94.54878997802734 C 82.65830993652344 92.9609603881836 85.80757904052734 90.82475280761719 88.80670928955078 88.0169906616211 C 91.65809631347656 84.8813705444336 93.40674591064453 82.3753890991211 93.9167709350586 80.86225891113281 C 93.46116638183594 79.99308013916016 92.06224060058594 79.298095703125 90.43209075927734 78.51492309570312 C 89.18473815917969 77.7072525024414 87.84078216552734 77.37471771240234 86.97599792480469 77.69811248779297 C 86.7169418334961 77.98383331298828 86.08784484863281 77.8174819946289 86.74833679199219 76.65335845947266 C 89.3482894897461 73.7422866821289 90.8411636352539 70.08517456054688 91.33065032958984 66.74040985107422 C 92.29917907714844 63.02094650268555 91.38729095458984 59.38962173461914 88.3246078491211 56.443546295166016 C 86.4231948852539 53.63298797607422 84.90972137451172 51.779876708984375 82.60891723632812 51.033103942871094 C 81.03707885742188 49.812957763671875 79.22787475585938 48.70873260498047 76.80549621582031 48.62859344482422 C 75.4495620727539 48.70011901855469 74.59661102294922 48.91310119628906 73.97396087646484 49.43782424926758 C 74.50281524658203 49.55824661254883 75.3419189453125 48.85679244995117 76.02371978759766 47.273441314697266 C 77.13814544677734 44.92231750488281 77.68023681640625 42.70283508300781 77.06829071044922 40.48154830932617 C 76.00141906738281 37.710628509521484 74.22767639160156 35.245365142822266 72.0104751586914 33.11993408203125 C 70.48228454589844 30.927276611328125 68.28628540039062 29.807512283325195 64.60334777832031 29.693326950073242 C 61.720523834228516 29.266489028930664 59.672122955322266 29.336313247680664 56.88240432739258 30.527202606201172 C 54.438316345214844 31.50030517578125 52.98187255859375 32.52042007446289 51.325069427490234 34.522117614746094 C 49.49266815185547 36.6721305847168 48.398590087890625 38.99708557128906 47.858089447021484 42.17349624633789 C 47.632080078125 45.198184967041016 48.07051467895508 47.41096878051758 47.53303527832031 48.69994354248047" stroke-width="2.0" fill="rgb(0, 255, 0)" opacity="1.0" stroke="rgb(0, 255, 0)" stroke-opacity="1.0" stroke-linecap="round" stroke-linejoin="round"/>
    <path d="M 72.61478424072266 97.77906036376953 C 72.62203979492188 97.78610229492188 72.50199890136719 97.76636505126953 72.37042999267578 97.71807098388672 C 73.13526153564453 97.32551574707031 75.71763610839844 96.38005065917969 79.1147232055664 94.99498748779297 C 82.49579620361328 93.47172546386719 85.59161376953125 91.44896697998047 88.62757873535156 88.69097137451172 C 91.60204315185547 85.5096664428711 93.53510284423828 82.79216766357422 94.3426513671875 81.03226470947266 C 94.11685943603516 80.06696319580078 92.72473907470703 79.4136962890625 91.08672332763672 78.6418685913086 C 89.91828918457031 77.75369262695312 88.60628509521484 77.2633285522461 87.7259750366211 77.40918731689453 C 87.48217010498047 77.57258605957031 86.85972595214844 77.41853332519531 87.4307861328125 76.38236236572266 C 89.91173553466797 73.59312438964844 91.29634857177734 70.10311889648438 91.78987884521484 66.93841552734375 C 92.82679748535156 63.32817077636719 91.98709106445312 59.78314208984375 89.07151794433594 56.73370361328125 C 87.25963592529297 53.84138870239258 85.74991607666016 52.01160430908203 83.51354217529297 51.2080192565918 C 81.86985778808594 49.93916320800781 79.99445343017578 48.8444938659668 77.59931945800781 48.64772415161133 C 76.24356842041016 48.56695556640625 75.39212799072266 48.662841796875 74.83110809326172 49.06071472167969 C 75.5148696899414 48.92338180541992 76.35389709472656 48.049659729003906 76.80224609375 46.52227783203125 C 77.6793212890625 44.28596115112305 78.04945373535156 42.108985900878906 77.3153305053711 39.926551818847656 C 76.24657440185547 37.15092086791992 74.42354583740234 34.67104721069336 72.12052154541016 32.586402893066406 C 70.576171875 30.455307006835938 68.30007934570312 29.39435577392578 64.4488754272461 29.345104217529297 C 61.451316833496094 28.94207763671875 59.33945846557617 29.033809661865234 56.52545928955078 30.28302764892578 C 54.08467483520508 31.309349060058594 52.64288330078125 32.33893966674805 50.969017028808594 34.34611892700195 C 49.078125 36.496910095214844 47.990623474121094 38.82444381713867 47.46561050415039 42.04711151123047 C 47.231449127197266 45.136268615722656 47.620784759521484 47.40910720825195 47.036094665527344 48.69990921020508" stroke-width="2.0" fill="rgb(0, 0, 255)" opacity="1.0" stroke="rgb(0, 0, 255)" stroke-opacity="1.0" stroke-linecap="round" stroke-linejoin="round"/>
  </g>
</svg>
