<?xml version="1.0" ?>
<svg xmlns="http://www.w3.org/2000/svg" version="1.1" width="128" height="128">
  <defs/>
  <g>
    <path d="M 69.9360122680664 99.08555603027344 C 69.93462371826172 99.09186553955078 69.81178283691406 99.05130004882812 69.83724975585938 98.96749114990234 C 71.12220001220703 98.82434844970703 74.82466888427734 98.72608947753906 80.47566986083984 98.15701293945312 C 87.06196594238281 97.23533630371094 93.13264465332031 95.84024810791016 97.85271453857422 94.13745880126953 C 101.59556579589844 92.66498565673828 104.34810638427734 90.99977111816406 106.60002899169922 88.93354797363281 C 108.78877258300781 86.87603759765625 109.96100616455078 85.03461456298828 110.36212921142578 82.91024780273438 C 110.87643432617188 80.3818130493164 110.6124496459961 78.31753540039062 109.29638671875 76.65371704101562 C 108.1131362915039 74.79544067382812 106.9377670288086 73.32067108154297 105.84112548828125 72.41365051269531 C 105.91858673095703 71.3567123413086 106.32227325439453 70.66098022460938 106.74208068847656 70.25811004638672 C 107.87504577636719 69.1197509765625 108.82978820800781 67.89152526855469 109.66816711425781 66.8268051147461 C 110.59107971191406 65.21392059326172 110.91268157958984 63.4931526184082 111.04841613769531 61.656211853027344 C 111.08836364746094 59.65764617919922 110.26773071289062 58.34688186645508 108.98885345458984 57.12416076660156 C 107.97531127929688 55.17385482788086 106.56580352783203 53.15782165527344 104.80897521972656 51.222904205322266 C 103.24224853515625 49.385013580322266 100.90477752685547 48.12131118774414 97.72442626953125 46.92210006713867 C 94.60639953613281 45.45754623413086 90.47804260253906 44.18914794921875 85.04882049560547 43.18191909790039 C 79.93195343017578 42.27973937988281 75.6521987915039 41.78559494018555 70.80984497070312 41.77067947387695 C 65.27999877929688 41.609745025634766 60.017887115478516 41.561153411865234 53.94298553466797 42.07197952270508 C 47.49748992919922 42.49674606323242 42.63222122192383 43.0024528503418 39.410369873046875 44.247215270996094 C 37.79975891113281 45.546714782714844 37.64432907104492 46.860713958740234 37.22330093383789 48.52998352050781 C 35.915679931640625 49.1428108215332 34.74241638183594 48.435890197753906 33.36016082763672 47.3216438293457 C 30.99366569519043 46.49317169189453 27.81313705444336 47.24667739868164 23.57095718383789 50.235198974609375" stroke-width="2.0" fill="rgb(252, 194, 27)" opacity="1.0" stroke="rgb(252, 194, 27)" stroke-opacity="1.0" stroke-linecap="round" stroke-linejoin="round"/>
    <path d="M 65.18594360351562 98.68580627441406 C 65.1876220703125 98.69319152832031 65.06575775146484 98.69819641113281 65.28563690185547 98.686767578125 C 67.3414077758789 98.2493667602539 71.91600799560547 97.6939468383789 77.87193298339844 97.25426483154297 C 84.4822006225586 96.37504577636719 90.9856185913086 95.03253173828125 96.1282730102539 93.37653350830078 C 99.96843719482422 91.91944885253906 102.76382446289062 90.25764465332031 105.15484619140625 88.26876068115234 C 107.35498809814453 86.40959167480469 108.49114227294922 84.72489929199219 108.90479278564453 82.61164855957031 C 109.42280578613281 80.1495132446289 109.12183380126953 78.22960662841797 107.7525634765625 76.61692810058594 C 106.46662902832031 74.82733917236328 105.162841796875 73.43620300292969 103.85082244873047 72.59253692626953 C 103.72526550292969 71.6336898803711 104.17925262451172 70.98936462402344 104.80970764160156 70.6036148071289 C 106.04222869873047 69.4681167602539 107.1534652709961 68.18988037109375 108.06988525390625 67.1093521118164 C 109.00865936279297 65.52147674560547 109.48910522460938 63.68153762817383 109.82025146484375 61.712833404541016 C 109.93217468261719 59.79933547973633 109.05590057373047 58.70527648925781 107.71300506591797 57.59062957763672 C 106.67253112792969 55.6590690612793 105.25225830078125 53.76594924926758 103.53555297851562 52.0146598815918 C 102.12342834472656 50.24142837524414 99.91253662109375 49.035621643066406 96.74382781982422 47.94905471801758 C 93.65780639648438 46.54612731933594 89.65611267089844 45.32990646362305 84.2284927368164 44.40229034423828 C 78.88137817382812 43.550533294677734 74.44096374511719 43.10475540161133 69.49544525146484 43.208370208740234 C 63.70014190673828 42.99370574951172 57.838478088378906 43.01899337768555 51.16939163208008 43.63538360595703 C 45.27445602416992 44.056007385253906 41.83578109741211 44.5500373840332 39.697853088378906 45.89725875854492 C 38.536075592041016 47.28977584838867 38.4567756652832 48.63417434692383 38.157894134521484 50.11088943481445 C 37.249671936035156 50.5785026550293 36.27277755737305 49.92034149169922 34.66531753540039 48.73819351196289 C 31.90790367126465 47.69377136230469 28.57529640197754 48.245811462402344 24.716571807861328 50.924034118652344" stroke-width="2.0" fill="rgb(255, 0, 0)" opacity="1.0" stroke="rgb(255, 0, 0)" stroke-opacity="1.0" stroke-linecap="round" stroke-linejoin="round"/>
    <path d="M 66.42831420898438 98.71086883544922 C 66.43181610107422 98.72041320800781 66.3025894165039 98.71588897705078 66.45309448242188 98.67105102539062 C 68.3159408569336 98.24200439453125 72.67936706542969 97.83680725097656 78.54924011230469 97.38444519042969 C 85.12486267089844 96.49394989013672 91.50079345703125 95.14551544189453 96.51902770996094 93.4977035522461 C 100.30333709716797 92.0667495727539 103.06273651123047 90.41822052001953 105.42162322998047 88.39695739746094 C 107.63322448730469 86.47059631347656 108.79190063476562 84.71940612792969 109.2094497680664 82.55887603759766 C 109.71920776367188 80.02891540527344 109.41046142578125 78.06059265136719 108.01929473876953 76.4810791015625 C 106.72626495361328 74.72380065917969 105.48433685302734 73.28960418701172 104.21546173095703 72.43717956542969 C 104.06439208984375 71.53591918945312 104.53114318847656 70.91282653808594 105.14722442626953 70.54676818847656 C 106.28294372558594 69.5375747680664 107.33229064941406 68.3531265258789 108.26521301269531 67.2405776977539 C 109.20109558105469 65.64216613769531 109.65695190429688 63.87340545654297 109.99959564208984 61.934715270996094 C 110.1429214477539 59.95449447631836 109.25618743896484 58.75297164916992 107.86449432373047 57.56673049926758 C 106.81712341308594 55.606929779052734 105.46014404296875 53.6779670715332 103.78860473632812 51.90167236328125 C 102.36729431152344 50.13811111450195 100.16810607910156 48.94182586669922 97.0420913696289 47.8474235534668 C 94.03178405761719 46.4167366027832 90.1639175415039 45.16716766357422 84.81108856201172 44.24760818481445 C 79.43468475341797 43.396827697753906 74.9339370727539 42.89622116088867 70.13335418701172 42.87907028198242 C 64.56034851074219 42.65231704711914 58.76899337768555 42.689842224121094 52.02407455444336 43.32207489013672 C 45.814971923828125 43.762691497802734 42.04676055908203 44.24737548828125 39.757511138916016 45.562217712402344 C 38.54665756225586 46.98973846435547 38.40555191040039 48.40555953979492 38.01926040649414 49.95384216308594 C 37.04158401489258 50.406681060791016 36.01922607421875 49.666839599609375 34.3919563293457 48.453800201416016 C 31.670686721801758 47.47990798950195 28.365724563598633 48.12892532348633 24.50006675720215 50.84629440307617" stroke-width="2.0" fill="rgb(0, 255, 0)" opacity="1.0" stroke="rgb(0, 255, 0)" stroke-opacity="1.0" stroke-linecap="round" stroke-linejoin="round"/>
    <path d="M 69.33810424804688 98.61598205566406 C 69.33919525146484 98.62286376953125 69.20722198486328 98.59143829345703 69.29415130615234 98.50720977783203 C 70.74154663085938 98.28024291992188 74.47691345214844 98.1191177368164 79.9691390991211 97.54794311523438 C 86.37136840820312 96.66566467285156 92.39639282226562 95.35494995117188 97.11727905273438 93.78202056884766 C 100.79813385009766 92.39431762695312 103.5391845703125 90.7391357421875 105.85871124267578 88.66729736328125 C 108.07279968261719 86.68867492675781 109.24703979492188 84.94384765625 109.64300537109375 82.80253601074219 C 110.12696075439453 80.21809387207031 109.81974792480469 78.14212036132812 108.47171783447266 76.471923828125 C 107.28099060058594 74.65374755859375 106.17440795898438 73.17890167236328 105.07798767089844 72.28838348388672 C 105.08739471435547 71.33258819580078 105.561767578125 70.6839370727539 105.99002838134766 70.37273406982422 C 106.91983032226562 69.4698486328125 107.78691864013672 68.33738708496094 108.69449615478516 67.19641876220703 C 109.69076538085938 65.56729125976562 110.11476135253906 63.85388946533203 110.374267578125 61.97462463378906 C 110.48985290527344 59.9310302734375 109.64908599853516 58.57865524291992 108.30184173583984 57.32767868041992 C 107.26642608642578 55.43255615234375 105.90313720703125 53.51552963256836 104.17777252197266 51.63051223754883 C 102.63106536865234 49.82865905761719 100.36085510253906 48.661903381347656 97.29202270507812 47.534019470214844 C 94.31566619873047 46.02168273925781 90.3277816772461 44.71476364135742 84.8971939086914 43.74836349487305 C 79.5916748046875 42.88336181640625 75.16081237792969 42.41304016113281 70.4026870727539 42.438499450683594 C 65.00015258789062 42.283485412597656 59.61213302612305 42.269779205322266 53.20150375366211 42.81367111206055 C 46.70096206665039 43.271175384521484 42.276268005371094 43.8148307800293 39.56718826293945 45.10637664794922 C 38.2095832824707 46.47526550292969 37.997013092041016 47.871498107910156 37.45319747924805 49.51652145385742 C 36.2232780456543 50.00984573364258 35.055625915527344 49.173126220703125 33.50776290893555 47.9311637878418 C 30.986852645874023 47.07399368286133 27.741317749023438 47.910587310791016 23.786514282226562 50.87258529663086" stroke-width="2.0" fill="rgb(0, 0, 255)" opacity="1.0" stroke="rgb(0, 0, 255)" stroke-opacity="1.0" stroke-linecap="round" stroke-linejoin="round"/>
  </g>
</svg>
