<?xml version="1.0" ?>
<svg xmlns="http://www.w3.org/2000/svg" version="1.1" width="128" height="128">
  <defs/>
  <g>
    <path d="M 81.61918640136719 81.91605377197266 C 81.61292266845703 81.90904998779297 81.52555847167969 81.98929595947266 81.43185424804688 81.94883728027344 C 81.68655395507812 80.67980194091797 82.16615295410156 76.08189392089844 83.77326202392578 68.26826477050781 C 86.2851791381836 60.35040283203125 84.6337890625 56.11564254760742 77.40751647949219 56.86590576171875 C 71.36714935302734 61.649295806884766 69.79824829101562 69.01248168945312 71.2166976928711 76.40258026123047 C 73.3946762084961 80.73567199707031 73.25946044921875 82.16578674316406 69.86436462402344 82.85950469970703 C 65.27391052246094 83.88700103759766 61.25353240966797 84.45973205566406 59.69456100463867 84.72686004638672 C 60.342777252197266 84.90343475341797 59.37572479248047 84.72868347167969 55.76412582397461 83.90775299072266 C 49.20635223388672 83.51856231689453 32.72481155395508 83.80386352539062 12.413302421569824 84.94268798828125 C 3.028489828109741 86.09246063232422 0.7340424060821533 86.66007232666016 0.26090699434280396 87.16728973388672 C 0.16291013360023499 90.19580841064453 0.15261439979076385 97.14543914794922 0.17372173070907593 105.03983306884766 C 0.2397349327802658 110.87847137451172 0.40764185786247253 114.37886047363281 0.856724739074707 116.12773895263672 C 2.158416271209717 116.51531219482422 5.586724758148193 115.8230972290039 13.006507873535156 114.09488677978516 C 24.55959129333496 111.34527587890625 34.732032775878906 107.94218444824219 40.426963806152344 102.88544464111328 C 42.72877502441406 93.56959533691406 41.001808166503906 81.128173828125 36.91292953491211 69.0340347290039 C 33.33155822753906 59.611812591552734 31.580286026000977 54.324134826660156 32.25303268432617 52.292381286621094 C 35.11003875732422 52.29863739013672 39.094112396240234 54.358848571777344 44.899391174316406 57.763099670410156 C 51.80630111694336 61.79530334472656 55.506874084472656 68.14068603515625 56.876708984375 78.1818618774414 C 58.521026611328125 89.32462310791016 57.07072448730469 98.72486877441406 47.31399154663086 106.45095825195312 C 24.32848358154297 111.87335968017578 4.741353988647461 115.34064483642578 0.4620567560195923 116.51447296142578 C 0.051986441016197205 114.25987243652344 0.014636234380304813 108.03526306152344 0.019721657037734985 95.66370391845703" stroke-width="2.0" fill="rgb(252, 194, 27)" opacity="1.0" stroke="rgb(252, 194, 27)" stroke-opacity="1.0" stroke-linecap="round" stroke-linejoin="round"/>
    <path d="M 80.39797973632812 107.24861907958984 C 80.39485931396484 107.24674987792969 80.31446838378906 107.24199676513672 80.23509979248047 107.18328094482422 C 80.6490707397461 106.80939483642578 81.4388656616211 105.45877838134766 82.25967407226562 102.88302612304688 C 83.14701080322266 99.46246337890625 83.83990478515625 95.39360046386719 84.4669189453125 90.41529083251953 C 85.59542083740234 84.3018569946289 86.50019836425781 77.50255584716797 87.68340301513672 70.3968734741211 C 89.14794921875 64.16341400146484 89.27645111083984 60.324405670166016 89.12318420410156 58.1583251953125 C 90.15589904785156 57.008148193359375 91.09105682373047 56.57632064819336 92.03656768798828 56.14170837402344 C 93.40550231933594 55.67104721069336 93.7923355102539 55.66586685180664 94.18594360351562 55.817100524902344 C 95.60043334960938 55.11812210083008 95.681884765625 53.294010162353516 94.61029052734375 50.02090835571289 C 93.52830505371094 46.27689743041992 90.28379821777344 45.137962341308594 86.74058532714844 45.9936408996582 C 85.07183837890625 46.233238220214844 81.9940185546875 45.99652099609375 77.3073501586914 46.19438552856445 C 74.11370849609375 46.52959442138672 72.14205932617188 46.47165298461914 71.17333984375 45.178558349609375 C 71.85820770263672 42.088985443115234 73.67925262451172 38.36235809326172 76.938720703125 34.64161682128906 C 81.33692932128906 31.127798080444336 84.6991958618164 28.473608016967773 87.78060150146484 26.374582290649414 C 91.56502532958984 24.485334396362305 93.68374633789062 23.18967056274414 93.9760513305664 22.05392074584961 C 93.91747283935547 20.363399505615234 92.60005950927734 18.59687042236328 90.88352966308594 16.85186004638672 C 90.55191802978516 15.078160285949707 89.86320495605469 14.405949592590332 88.19083404541016 15.0405912399292 C 86.78019714355469 15.941158294677734 84.7008285522461 17.378406524658203 80.56527709960938 19.90931510925293 C 75.62931823730469 22.59563636779785 70.83294677734375 25.95134925842285 66.72122955322266 30.429494857788086 C 64.22206115722656 34.44208908081055 62.75871276855469 38.177635192871094 61.79915237426758 42.381507873535156 C 61.54151153564453 45.31069564819336 60.2916145324707 46.586570739746094 52.09130096435547 46.49129867553711" stroke-width="2.0" fill="rgb(255, 0, 0)" opacity="1.0" stroke="rgb(255, 0, 0)" stroke-opacity="1.0" stroke-linecap="round" stroke-linejoin="round"/>
    <path d="M 79.95872497558594 107.77899932861328 C 79.95158386230469 107.7745361328125 79.87124633789062 107.7718734741211 79.80565643310547 107.71929168701172 C 80.30709075927734 107.38856506347656 81.24198913574219 106.11318969726562 82.1526870727539 103.65298461914062 C 82.99002075195312 100.39813995361328 83.68588256835938 96.49606323242188 84.28248596191406 91.7898178100586 C 85.31463623046875 86.15607452392578 86.17625427246094 79.73038482666016 87.25676727294922 72.51651000976562 C 88.82914733886719 65.77708435058594 89.0541000366211 61.33648681640625 88.9854507446289 58.685665130615234 C 90.00939178466797 57.283817291259766 90.85785675048828 56.860836029052734 91.76273345947266 56.42564392089844 C 93.21995544433594 55.823543548583984 93.6954116821289 55.82504653930664 94.16111755371094 56.04121398925781 C 95.64686584472656 55.2537956237793 95.77838897705078 53.36703872680664 94.92781066894531 50.048851013183594 C 94.1106185913086 46.19328308105469 91.05113220214844 44.976898193359375 87.69169616699219 45.770294189453125 C 86.26409912109375 45.97161865234375 83.35823059082031 45.784324645996094 78.60106658935547 45.777889251708984 C 75.3495864868164 45.831336975097656 73.38336181640625 45.60483169555664 72.33793640136719 44.29098892211914 C 72.93075561523438 41.23063659667969 74.87248229980469 37.48534393310547 78.37024688720703 33.75923538208008 C 82.8703842163086 30.36428451538086 86.1202163696289 27.910491943359375 89.0964584350586 26.004348754882812 C 92.83788299560547 24.216909408569336 94.71826934814453 22.946714401245117 94.58503723144531 21.824872970581055 C 94.25437927246094 20.072509765625 93.00518798828125 18.235252380371094 91.4184799194336 16.466663360595703 C 90.94065856933594 14.743651390075684 89.82206726074219 14.180867195129395 87.65099334716797 14.919180870056152 C 86.0364761352539 15.84238052368164 84.02044677734375 17.23967170715332 79.93729400634766 19.67666244506836 C 75.11150360107422 22.264633178710938 70.55862426757812 25.473649978637695 66.57275390625 29.865976333618164 C 63.94802474975586 33.879981994628906 62.29267501831055 37.64586639404297 61.22450256347656 41.88467788696289 C 60.892547607421875 44.79741668701172 59.22362518310547 46.08224105834961 50.88688659667969 46.11376953125" stroke-width="2.0" fill="rgb(0, 255, 0)" opacity="1.0" stroke="rgb(0, 255, 0)" stroke-opacity="1.0" stroke-linecap="round" stroke-linejoin="round"/>
    <path d="M 79.71996307373047 108.29429626464844 C 79.70849609375 108.2883529663086 79.6214828491211 108.28536987304688 79.55254364013672 108.24418640136719 C 80.1283187866211 107.93653106689453 81.19611358642578 106.67381286621094 82.20525360107422 104.17799377441406 C 83.02830505371094 100.84143829345703 83.62798309326172 96.92980194091797 84.19294738769531 92.22188568115234 C 85.19921875 86.49339294433594 85.96638488769531 80.01586151123047 86.90150451660156 72.7138671875 C 88.4252700805664 65.7974853515625 88.67036437988281 61.32019805908203 88.44061279296875 58.75684356689453 C 89.2862777709961 57.36066436767578 90.10044860839844 56.87651062011719 91.1202163696289 56.42477798461914 C 92.7593994140625 55.85872268676758 93.38631439208984 55.892032623291016 93.90017700195312 56.088417053222656 C 95.44853973388672 55.224281311035156 95.72260284423828 53.24129104614258 95.00541687011719 49.86720657348633 C 94.31089782714844 45.99070358276367 91.31104278564453 44.79690170288086 87.93565368652344 45.67303466796875 C 86.47554779052734 45.99829864501953 83.64241027832031 45.969696044921875 78.90419006347656 46.04991149902344 C 75.52332305908203 46.141563415527344 73.44196319580078 46.047061920166016 72.20018005371094 44.97087097167969 C 72.5138168334961 42.08777618408203 74.2940673828125 38.27903747558594 77.90388488769531 34.327816009521484 C 82.68924713134766 30.714155197143555 86.13945770263672 28.166423797607422 89.17583465576172 26.2241153717041 C 92.92202758789062 24.408462524414062 94.7905502319336 23.11479377746582 94.70796966552734 21.996061325073242 C 94.43619537353516 20.278337478637695 93.18202209472656 18.417591094970703 91.53636932373047 16.520048141479492 C 90.89472961425781 14.691548347473145 89.58504486083984 14.14564037322998 87.30430603027344 14.9824800491333 C 85.6779556274414 15.973221778869629 83.70240783691406 17.37891960144043 79.56800842285156 19.852359771728516 C 74.64318084716797 22.505094528198242 70.15640258789062 25.722837448120117 66.34477233886719 30.12405776977539 C 63.80000305175781 34.1795768737793 62.12533950805664 37.94794464111328 61.14977264404297 42.07085037231445 C 60.78852844238281 44.6856575012207 57.972129821777344 45.65494918823242 48.11084747314453 45.65300369262695" stroke-width="2.0" fill="rgb(0, 0, 255)" opacity="1.0" stroke="rgb(0, 0, 255)" stroke-opacity="1.0" stroke-linecap="round" stroke-linejoin="round"/>
  </g>
</svg>
