<?xml version="1.0" ?>
<svg xmlns="http://www.w3.org/2000/svg" version="1.1" width="128" height="128">
  <defs/>
  <g>
    <path d="M 75.90813446044922 80.5379409790039 C 75.90151977539062 80.54914093017578 75.88204956054688 80.58971405029297 75.87698364257812 80.53179931640625 C 76.0696792602539 79.83136749267578 75.69344329833984 78.22798156738281 73.92831420898438 75.67115020751953 C 70.55903625488281 73.0039291381836 65.04119873046875 71.11538696289062 59.37215805053711 70.62662506103516 C 55.32577896118164 71.55183410644531 52.47431182861328 73.54008483886719 51.179412841796875 76.22107696533203 C 51.565650939941406 78.95641326904297 52.21923828125 81.11328887939453 52.95639419555664 82.34817504882812 C 54.25493240356445 82.39535522460938 54.64805603027344 81.48069763183594 53.14680099487305 80.44844055175781 C 47.89763641357422 80.16802978515625 34.888668060302734 80.30657958984375 17.693994522094727 80.54834747314453 C 5.798036575317383 80.70074462890625 1.383040189743042 80.59054565429688 0.34526732563972473 79.61576080322266 C 0.12972040474414825 76.4446029663086 0.07395739108324051 73.24053192138672 0.049857981503009796 72.01840209960938 C 0.034682322293519974 72.35753631591797 0.024993544444441795 72.9043960571289 0.01940772868692875 73.21640014648438 C 0.016675448045134544 73.48424530029297 0.015794474631547928 74.02317810058594 0.01712092012166977 74.53778076171875 C 0.021009767428040504 75.07743072509766 0.025661207735538483 76.41071319580078 0.031247854232788086 78.2858657836914 C 0.04056594893336296 79.7240982055664 0.05151344835758209 81.40740966796875 0.06278549879789352 83.44813537597656 C 0.07789123058319092 84.79534149169922 0.09526574611663818 85.84331512451172 0.11596354097127914 86.9193344116211 C 0.1455805003643036 87.64385223388672 0.17584136128425598 88.46180725097656 0.19630812108516693 89.53306579589844 C 0.20748074352741241 90.25821685791016 0.20090389251708984 90.67243194580078 0.17617595195770264 90.91921997070312 C 0.14443551003932953 90.7489013671875 0.10884539037942886 90.24403381347656 0.07570724189281464 89.53003692626953 C 0.05018572881817818 88.55950927734375 0.030782587826251984 87.32492065429688 0.01794118992984295 85.74752807617188 C 0.012067831121385098 83.6705093383789 0.01158489566296339 81.53673553466797 0.01783427968621254 79.4575424194336 C 0.04328141734004021 77.09801483154297 0.14983712136745453 74.7500228881836 0.798447847366333 72.12335968017578" stroke-width="2.0" fill="rgb(252, 194, 27)" opacity="1.0" stroke="rgb(252, 194, 27)" stroke-opacity="1.0" stroke-linecap="round" stroke-linejoin="round"/>
    <path d="M 77.02365112304688 99.17506408691406 C 77.02957153320312 99.17902374267578 76.96013641357422 99.17242431640625 76.93895721435547 99.16606903076172 C 77.46673583984375 99.06531524658203 78.71717834472656 98.57303619384766 80.21467590332031 97.47254180908203 C 81.52069091796875 96.11726379394531 81.89386749267578 94.85994720458984 81.75733947753906 93.1884765625 C 82.02984619140625 90.86265563964844 82.13704681396484 88.42034912109375 81.91152954101562 85.79094696044922 C 81.78162384033203 82.79551696777344 81.15951538085938 79.57315063476562 80.1648178100586 76.06404876708984 C 79.60209655761719 72.43656158447266 78.78887939453125 69.97479248046875 78.06060028076172 69.3494873046875 C 78.2387466430664 69.34832763671875 78.52130889892578 69.6126708984375 79.87748718261719 70.05687713623047 C 81.99261474609375 69.14266204833984 82.00005340576172 66.19171142578125 81.72564697265625 61.55452346801758 C 82.7772216796875 55.78779602050781 81.93402862548828 50.89338684082031 79.57099151611328 47.7444953918457 C 77.7881088256836 45.992252349853516 73.5417709350586 46.09780502319336 67.01712799072266 47.38644027709961 C 62.65117645263672 48.44197463989258 59.972068786621094 49.6428337097168 58.39479064941406 51.301273345947266 C 59.071929931640625 52.59803771972656 59.481651306152344 53.723472595214844 60.086429595947266 54.6272087097168 C 63.77261734008789 54.08827590942383 68.65081024169922 52.478050231933594 73.81814575195312 50.349422454833984 C 78.5382080078125 47.51958084106445 80.34608459472656 45.00437927246094 81.47077941894531 42.07229995727539 C 82.89920043945312 38.08436965942383 82.51771545410156 34.66259765625 81.20706176757812 32.350399017333984 C 80.29460906982422 30.061779022216797 78.45217895507812 28.667659759521484 75.25526428222656 28.2961368560791 C 72.61361694335938 27.73427391052246 70.16815948486328 27.533634185791016 66.35598754882812 27.93482780456543 C 62.22319412231445 27.77334213256836 57.997520446777344 27.79319953918457 53.25419998168945 28.411497116088867 C 49.583953857421875 28.570144653320312 47.389137268066406 29.667097091674805 45.713077545166016 32.842220306396484 C 44.768226623535156 37.45708465576172 45.25190353393555 43.6510124206543 46.652889251708984 50.776275634765625" stroke-width="2.0" fill="rgb(255, 0, 0)" opacity="1.0" stroke="rgb(255, 0, 0)" stroke-opacity="1.0" stroke-linecap="round" stroke-linejoin="round"/>
    <path d="M 77.30309295654297 99.2177963256836 C 77.30916595458984 99.2236099243164 77.23908996582031 99.21538543701172 77.21092224121094 99.20771789550781 C 77.72921752929688 99.0851821899414 78.95803833007812 98.57599639892578 80.40298461914062 97.48641204833984 C 81.61624145507812 96.1707534790039 81.87322998046875 94.93952178955078 81.645263671875 93.24152374267578 C 81.85572814941406 90.8027572631836 81.92507934570312 88.21891021728516 81.66826629638672 85.52600860595703 C 81.47931671142578 82.4879379272461 80.78620910644531 79.197265625 79.8155517578125 75.65555572509766 C 79.2366714477539 72.07027435302734 78.3445816040039 69.8290786743164 77.61907196044922 69.42234802246094 C 77.7342529296875 69.53804016113281 77.84175109863281 69.86683654785156 79.11776733398438 70.2853775024414 C 81.42696380615234 69.40463256835938 81.6968994140625 66.5720443725586 81.51826477050781 61.9675407409668 C 82.57621002197266 56.06531524658203 81.74774169921875 51.11940383911133 79.31334686279297 47.90821075439453 C 77.46917724609375 46.060829162597656 73.32357788085938 46.15373229980469 67.0171890258789 47.504661560058594 C 62.406917572021484 48.64240646362305 59.08710479736328 49.97972106933594 57.236045837402344 51.78498077392578 C 58.05008316040039 53.07249450683594 58.4503059387207 54.19582748413086 58.88984298706055 55.323402404785156 C 62.60666275024414 54.91285705566406 67.65510559082031 53.19471740722656 73.11629486083984 50.83733367919922 C 78.15849304199219 47.7866325378418 80.06474304199219 45.21237564086914 81.16503143310547 42.28105545043945 C 82.6197509765625 38.2266731262207 82.26573181152344 34.71509552001953 80.93900299072266 32.33098220825195 C 79.95405578613281 29.99222183227539 78.02949523925781 28.602977752685547 74.71824645996094 28.300447463989258 C 71.96734619140625 27.806230545043945 69.44285583496094 27.61570930480957 65.45413970947266 28.02675437927246 C 61.248931884765625 27.852378845214844 57.26667022705078 27.89234733581543 52.75523376464844 28.523042678833008 C 49.0737190246582 28.678003311157227 47.001468658447266 29.84381675720215 45.546417236328125 33.118186950683594 C 44.70601272583008 37.86867904663086 45.22039031982422 44.10047149658203 46.606964111328125 51.06557846069336" stroke-width="2.0" fill="rgb(0, 255, 0)" opacity="1.0" stroke="rgb(0, 255, 0)" stroke-opacity="1.0" stroke-linecap="round" stroke-linejoin="round"/>
    <path d="M 76.33576965332031 99.43327331542969 C 76.34088134765625 99.44136047363281 76.26264190673828 99.43177032470703 76.22959899902344 99.43321990966797 C 76.81519317626953 99.3243408203125 78.28076934814453 98.81754302978516 80.17552947998047 97.67462158203125 C 81.82653045654297 96.18611907958984 82.28264617919922 94.748291015625 82.00666046142578 93.03939056396484 C 82.06546783447266 90.71155548095703 81.88714599609375 88.11210632324219 81.47008514404297 85.21238708496094 C 81.18412017822266 81.95722198486328 80.5052719116211 78.50531005859375 79.63057708740234 74.88178253173828 C 78.77786254882812 71.6134262084961 77.56005096435547 69.82051086425781 76.88873291015625 69.60533905029297 C 77.3652114868164 69.82704162597656 77.69388580322266 70.05048370361328 78.92987060546875 70.22408294677734 C 81.39653778076172 68.88838958740234 82.05584716796875 65.23594665527344 81.92313385009766 60.03194046020508 C 82.28417205810547 54.20688247680664 80.53372192382812 49.89122772216797 77.88880157470703 47.50773620605469 C 76.08582305908203 46.316768646240234 72.0213394165039 46.705509185791016 66.04190063476562 48.142215728759766 C 61.828182220458984 49.55875015258789 58.8146858215332 51.22084045410156 57.17530059814453 53.21543884277344 C 58.32059097290039 54.8238525390625 58.95655822753906 56.472965240478516 59.39373779296875 57.918025970458984 C 63.50076675415039 57.417972564697266 69.2896499633789 55.26312255859375 74.7818603515625 52.48590850830078 C 79.24296569824219 49.037017822265625 81.00688171386719 45.451168060302734 81.93670654296875 41.66903305053711 C 83.02648162841797 37.40956497192383 82.55150604248047 33.90146255493164 80.97521209716797 31.6289119720459 C 79.6978530883789 29.530977249145508 77.75162506103516 28.30268096923828 74.38687896728516 28.032094955444336 C 71.52177429199219 27.547773361206055 68.89958953857422 27.333213806152344 64.58663940429688 27.6843204498291 C 60.04191589355469 27.4309024810791 56.189788818359375 27.478343963623047 52.025421142578125 28.265417098999023 C 48.56378936767578 28.60409927368164 46.85639190673828 29.80906105041504 45.712890625 32.88554763793945 C 45.00684356689453 37.08829116821289 45.422542572021484 42.63648223876953 46.79496765136719 49.218414306640625" stroke-width="2.0" fill="rgb(0, 0, 255)" opacity="1.0" stroke="rgb(0, 0, 255)" stroke-opacity="1.0" stroke-linecap="round" stroke-linejoin="round"/>
  </g>
</svg>
