<?xml version="1.0" ?>
<svg xmlns="http://www.w3.org/2000/svg" version="1.1" width="128" height="128">
  <defs/>
  <g>
    <path d="M 50.63625717163086 75.07769775390625 C 50.63801956176758 75.06525421142578 50.276058197021484 75.11976623535156 50.63424301147461 75.17162322998047 C 56.97181701660156 75.07222747802734 70.15258026123047 75.10853576660156 82.20684051513672 75.32775115966797 C 89.07723236083984 75.01595306396484 91.69062805175781 75.47046661376953 91.77943420410156 78.25835418701172 C 91.6409912109375 83.29825592041016 91.8900375366211 89.43951416015625 91.84585571289062 94.89085388183594 C 91.73370361328125 99.0426025390625 91.65245056152344 102.12792205810547 91.71012878417969 104.0753173828125 C 92.02080535888672 105.05521392822266 92.45712280273438 105.0651626586914 93.24040985107422 103.92988586425781 C 94.298095703125 101.91643524169922 95.4122543334961 99.2225570678711 97.22038269042969 95.89362335205078 C 100.07462310791016 92.42334747314453 102.71843719482422 89.53214263916016 104.72056579589844 86.67343139648438 C 106.76981353759766 82.94081115722656 108.41765594482422 78.73908233642578 109.78678894042969 74.16483306884766 C 111.09253692626953 68.54362487792969 110.9106216430664 63.42591094970703 110.00105285644531 59.9476203918457 C 110.16110229492188 56.92463302612305 109.94332885742188 54.378482818603516 109.13424682617188 52.054901123046875 C 108.59071350097656 48.07678985595703 106.19198608398438 42.702911376953125 101.4483642578125 36.547733306884766 C 97.31201171875 30.131349563598633 92.59988403320312 26.37830924987793 87.47057342529297 24.927852630615234 C 85.86274719238281 23.2303409576416 84.35286712646484 21.788604736328125 79.72468566894531 20.599260330200195 C 75.45986938476562 18.55023956298828 72.04293823242188 17.207792282104492 65.23353576660156 17.139219284057617 C 58.236427307128906 17.106019973754883 54.389686584472656 17.688085556030273 51.180213928222656 19.049448013305664 C 48.33852767944336 19.636972427368164 46.09873962402344 20.43291473388672 42.484378814697266 22.336145401000977 C 38.625 24.0456600189209 35.97821807861328 25.985076904296875 32.44626998901367 29.241010665893555 C 28.088037490844727 33.18909454345703 24.708621978759766 37.61360168457031 21.958642959594727 42.98231887817383 C 19.188920974731445 48.226898193359375 17.7043399810791 53.21453094482422 17.458599090576172 58.15160369873047" stroke-width="2.0" fill="rgb(252, 194, 27)" opacity="1.0" stroke="rgb(252, 194, 27)" stroke-opacity="1.0" stroke-linecap="round" stroke-linejoin="round"/>
    <path d="M 73.88262176513672 117.28921508789062 C 73.86945343017578 117.28487396240234 73.80097961425781 117.29080200195312 73.9458236694336 117.27809143066406 C 75.31704711914062 117.10487365722656 78.0500259399414 116.4662857055664 81.8660888671875 115.28965759277344 C 86.19551086425781 113.82875061035156 88.9880599975586 112.34080505371094 89.74821472167969 111.08313751220703 C 89.85120391845703 109.91263580322266 90.26983642578125 108.54975128173828 93.17210388183594 106.7052230834961 C 97.96048736572266 103.78343963623047 102.1436996459961 99.36832427978516 105.83956146240234 94.29470825195312 C 108.73030853271484 89.71932220458984 110.57122802734375 85.72374725341797 112.59645080566406 82.50090026855469 C 114.08412170410156 80.01689910888672 113.81401824951172 78.25895690917969 113.50312042236328 76.46623992919922 C 114.92958068847656 73.70967864990234 116.0330810546875 70.69828796386719 116.04999542236328 67.13546752929688 C 116.54737091064453 61.378597259521484 116.60812377929688 56.00331497192383 115.34082794189453 53.415870666503906 C 114.0854263305664 51.516361236572266 113.19171905517578 49.46148681640625 113.28376770019531 47.42300796508789 C 114.38420867919922 45.1826057434082 114.09246826171875 44.13829040527344 112.34896087646484 43.72129821777344 C 110.67750549316406 40.46744918823242 107.83972930908203 34.82837677001953 102.90679931640625 28.750152587890625 C 97.58557891845703 23.612855911254883 92.72351837158203 20.923315048217773 89.48063659667969 19.462257385253906 C 88.7777328491211 17.714670181274414 87.02423858642578 16.58755874633789 82.02239990234375 15.685266494750977 C 77.82239532470703 14.063604354858398 75.1314468383789 12.806251525878906 68.90029907226562 12.223189353942871 C 60.13953399658203 11.757073402404785 53.62726593017578 12.235493659973145 49.26438903808594 13.702259063720703 C 47.21602249145508 14.560632705688477 46.46601104736328 15.308444023132324 43.389225006103516 16.848054885864258 C 38.85685729980469 18.020103454589844 36.4041862487793 19.300397872924805 33.65684509277344 22.049314498901367 C 28.211498260498047 25.79435920715332 22.85856056213379 31.153379440307617 19.219038009643555 37.15077209472656 C 17.369237899780273 41.45341873168945 16.61710548400879 44.139198303222656 15.001445770263672 45.9180908203125" stroke-width="2.0" fill="rgb(255, 0, 0)" opacity="1.0" stroke="rgb(255, 0, 0)" stroke-opacity="1.0" stroke-linecap="round" stroke-linejoin="round"/>
    <path d="M 74.02534484863281 117.46863555908203 C 74.01233673095703 117.46395874023438 73.94488525390625 117.4701919555664 74.08440399169922 117.4559326171875 C 75.41600036621094 117.28461456298828 78.06439971923828 116.66431427001953 81.76335144042969 115.51832580566406 C 86.03022766113281 114.08035278320312 88.86148834228516 112.56866455078125 89.6817855834961 111.28250122070312 C 89.78759765625 110.07288360595703 90.14561462402344 108.6756362915039 92.97932434082031 106.824462890625 C 97.85475158691406 103.86597442626953 102.25177764892578 99.32762145996094 106.08954620361328 94.13174438476562 C 108.97638702392578 89.50879669189453 110.80583953857422 85.47024536132812 112.79129791259766 82.23603057861328 C 114.23357391357422 79.7000503540039 113.95899200439453 77.87898254394531 113.67759704589844 76.03263092041016 C 115.08749389648438 73.28144073486328 116.14994049072266 70.2855453491211 116.1383056640625 66.68951416015625 C 116.62785339355469 60.93417739868164 116.6749496459961 55.68840026855469 115.41106414794922 53.25400161743164 C 114.18070220947266 51.42657470703125 113.29869842529297 49.41624450683594 113.38404846191406 47.391971588134766 C 114.4758529663086 45.131343841552734 114.18341827392578 44.098350524902344 112.4409408569336 43.72629928588867 C 110.77848052978516 40.499977111816406 107.96878051757812 34.86581039428711 103.09939575195312 28.77460289001465 C 97.92486572265625 23.577905654907227 93.0821762084961 20.837261199951172 89.66411590576172 19.394432067871094 C 88.90379333496094 17.66840171813965 87.21333312988281 16.53848648071289 82.24610900878906 15.65129280090332 C 77.98641204833984 14.0328369140625 75.32071685791016 12.749427795410156 69.32673645019531 12.124967575073242 C 60.629276275634766 11.636131286621094 53.93989562988281 12.118416786193848 49.40491485595703 13.60020637512207 C 47.32493591308594 14.475647926330566 46.5726203918457 15.233405113220215 43.506961822509766 16.778776168823242 C 38.96369171142578 17.930936813354492 36.478919982910156 19.179039001464844 33.764949798583984 21.894315719604492 C 28.346691131591797 25.593090057373047 23.000886917114258 30.91960334777832 19.332225799560547 36.9148063659668 C 17.468442916870117 41.1838264465332 16.721696853637695 43.88867950439453 15.113349914550781 45.7518424987793" stroke-width="2.0" fill="rgb(0, 255, 0)" opacity="1.0" stroke="rgb(0, 255, 0)" stroke-opacity="1.0" stroke-linecap="round" stroke-linejoin="round"/>
    <path d="M 73.9525146484375 117.50421905517578 C 73.93921661376953 117.49884796142578 73.87214660644531 117.50609588623047 74.01567077636719 117.48966979980469 C 75.37193298339844 117.30857849121094 78.03666687011719 116.66075134277344 81.6993179321289 115.47674560546875 C 85.9162826538086 113.9997787475586 88.73094177246094 112.46290588378906 89.5576171875 111.1768798828125 C 89.66886901855469 109.97248840332031 90.03104400634766 108.57476806640625 92.88204193115234 106.7258529663086 C 97.75271606445312 103.7917709350586 102.1032943725586 99.31748962402344 105.90863037109375 94.19676208496094 C 108.81718444824219 89.59884643554688 110.66934204101562 85.56591033935547 112.68534851074219 82.3523941040039 C 114.16939544677734 79.87210845947266 113.92121124267578 78.1110610961914 113.6282730102539 76.30455780029297 C 115.025146484375 73.5609130859375 116.09932708740234 70.56330108642578 116.11028289794922 66.96595764160156 C 116.5862045288086 61.20467758178711 116.62211608886719 55.90979766845703 115.3806381225586 53.38439178466797 C 114.17535400390625 51.49736022949219 113.29471588134766 49.473819732666016 113.37908935546875 47.454872131347656 C 114.46800231933594 45.19721221923828 114.17093658447266 44.19169616699219 112.45860290527344 43.92273712158203 C 110.86592864990234 40.84609603881836 108.13658142089844 35.30232620239258 103.3532485961914 29.179523468017578 C 98.27488708496094 23.816312789916992 93.3228530883789 20.94451332092285 89.7427749633789 19.46861457824707 C 88.9844741821289 17.729589462280273 87.2441177368164 16.594148635864258 82.1972427368164 15.701876640319824 C 77.96012115478516 14.061346054077148 75.38053894042969 12.769709587097168 69.50267791748047 12.140379905700684 C 60.90608215332031 11.635579109191895 54.17545700073242 12.130815505981445 49.48499298095703 13.654016494750977 C 47.321739196777344 14.534387588500977 46.51226806640625 15.281838417053223 43.36689758300781 16.830562591552734 C 38.812416076660156 17.98709487915039 36.36037826538086 19.238821029663086 33.61936950683594 21.97559928894043 C 28.17873191833496 25.71076774597168 22.864925384521484 31.049850463867188 19.27118492126465 37.01458740234375 C 17.46173858642578 41.300689697265625 16.720399856567383 44.02770233154297 15.078295707702637 45.91252136230469" stroke-width="2.0" fill="rgb(0, 0, 255)" opacity="1.0" stroke="rgb(0, 0, 255)" stroke-opacity="1.0" stroke-linecap="round" stroke-linejoin="round"/>
  </g>
</svg>
