<?xml version="1.0" ?>
<svg xmlns="http://www.w3.org/2000/svg" version="1.1" width="128" height="128">
  <defs/>
  <g>
    <path d="M 88.99928283691406 105.0543441772461 C 89.00003814697266 105.0653076171875 88.97583770751953 105.0588150024414 88.98799896240234 105.11844635009766 C 89.47673034667969 105.2579116821289 90.85626220703125 105.34223937988281 93.34208679199219 104.83456420898438 C 96.38777923583984 103.68185424804688 98.94808197021484 101.90518951416016 101.42589569091797 99.00096130371094 C 103.97129821777344 95.3182144165039 105.16635131835938 92.18151092529297 105.20347595214844 89.20087432861328 C 105.286376953125 86.278564453125 104.39662170410156 83.93360900878906 102.34147644042969 81.26762390136719 C 100.56904602050781 77.62613677978516 98.07164001464844 74.6651382446289 94.16703796386719 72.64249420166016 C 90.22297668457031 70.99224853515625 85.46586608886719 71.84583282470703 79.52298736572266 75.95259094238281 C 75.26187133789062 80.48491668701172 73.57846069335938 85.11747741699219 72.45469665527344 90.39822387695312 C 70.90917205810547 93.16484069824219 69.6506118774414 91.69778442382812 69.72876739501953 87.00016021728516 C 70.94705200195312 80.97615051269531 72.47706604003906 76.4826889038086 76.01177978515625 73.35956573486328 C 81.00997924804688 69.39031982421875 82.18690490722656 64.86653137207031 80.11470794677734 59.54555130004883 C 78.54886627197266 53.01226806640625 73.46154022216797 49.48466110229492 65.82735443115234 48.95314407348633 C 61.61273956298828 47.90981674194336 58.12895584106445 48.70840072631836 54.22249984741211 52.66737747192383 C 51.20284652709961 56.563228607177734 45.824153900146484 59.4428596496582 40.183528900146484 60.195838928222656 C 39.330596923828125 57.891937255859375 42.97930908203125 54.71107482910156 49.55253982543945 50.81922149658203 C 56.198524475097656 45.48406982421875 57.78876495361328 40.71290969848633 55.66066360473633 35.98618698120117 C 54.08989334106445 30.4763126373291 51.75389099121094 26.570581436157227 47.48799133300781 24.24481773376465 C 43.9542350769043 22.095247268676758 40.30916976928711 21.744333267211914 34.41483688354492 23.72865104675293 C 29.226613998413086 25.992504119873047 26.305389404296875 29.441469192504883 23.842267990112305 35.0183219909668 C 22.601402282714844 40.890968322753906 24.219263076782227 46.655029296875 29.384239196777344 51.31039810180664" stroke-width="2.0" fill="rgb(252, 194, 27)" opacity="1.0" stroke="rgb(252, 194, 27)" stroke-opacity="1.0" stroke-linecap="round" stroke-linejoin="round"/>
    <path d="M 90.906005859375 107.95343780517578 C 90.91181182861328 107.96136474609375 90.87908935546875 107.96390533447266 90.87229919433594 108.01525115966797 C 91.2926254272461 108.08531951904297 92.83499908447266 107.95271301269531 95.91613006591797 107.08985137939453 C 99.64969635009766 105.4119873046875 102.50433349609375 103.02088928222656 104.80138397216797 99.845458984375 C 107.00938415527344 96.45610046386719 107.93550872802734 93.73739624023438 108.06344604492188 90.99666595458984 C 108.45279693603516 88.1015396118164 108.19662475585938 85.62389373779297 107.36941528320312 82.91243743896484 C 106.62556457519531 79.66663360595703 104.8206787109375 77.21304321289062 102.21649169921875 75.01236724853516 C 99.91861724853516 72.2947998046875 96.24187469482422 70.74334716796875 91.41576385498047 70.37162017822266 C 87.89582061767578 69.74652862548828 85.16683959960938 69.82366180419922 83.14271545410156 70.99688720703125 C 81.83019256591797 72.17438507080078 80.43842315673828 73.33548736572266 80.82410430908203 72.9764175415039 C 82.82476806640625 70.37858581542969 83.2240982055664 68.13126373291016 83.32522583007812 65.5147476196289 C 84.44164276123047 60.642822265625 82.69383239746094 55.711769104003906 79.31182098388672 52.079490661621094 C 76.78348541259766 48.35300064086914 72.70232391357422 46.34022521972656 67.65608978271484 46.1812744140625 C 65.29386138916016 45.268375396728516 62.99327087402344 44.8398323059082 59.88084030151367 45.926700592041016 C 58.221473693847656 46.45114517211914 56.01969528198242 47.34536361694336 54.63166046142578 48.225704193115234 C 56.6944465637207 46.40348815917969 58.68428039550781 43.24153518676758 58.5772819519043 39.979278564453125 C 58.67710494995117 35.67002487182617 57.862709045410156 31.70079231262207 55.01902389526367 28.185670852661133 C 52.67176055908203 24.377578735351562 49.69180679321289 21.963205337524414 44.70679473876953 20.7169189453125 C 40.38282775878906 19.26140785217285 36.35999298095703 19.358016967773438 30.722543716430664 21.787565231323242 C 25.83738136291504 24.580394744873047 23.157413482666016 28.3934383392334 21.004026412963867 34.0535774230957 C 19.77642822265625 40.43770980834961 20.913028717041016 46.77110290527344 24.92108726501465 51.64347457885742" stroke-width="2.0" fill="rgb(255, 0, 0)" opacity="1.0" stroke="rgb(255, 0, 0)" stroke-opacity="1.0" stroke-linecap="round" stroke-linejoin="round"/>
    <path d="M 90.80974578857422 107.94911193847656 C 90.81549835205078 107.95623779296875 90.78315734863281 107.95944213867188 90.77652740478516 108.00858306884766 C 91.18340301513672 108.074462890625 92.6963882446289 107.946044921875 95.75502014160156 107.09949493408203 C 99.48431396484375 105.44037628173828 102.35738372802734 103.06360626220703 104.68053436279297 99.8842544555664 C 106.91183471679688 96.47406768798828 107.88130187988281 93.72484588623047 108.04800415039062 90.954833984375 C 108.43927001953125 88.0503921508789 108.17401885986328 85.57146453857422 107.34971618652344 82.85140228271484 C 106.59053039550781 79.59165954589844 104.73033905029297 77.12876892089844 102.0654296875 74.92632293701172 C 99.7438735961914 72.19833374023438 96.03768920898438 70.63236999511719 91.18632507324219 70.28314208984375 C 87.67768859863281 69.69966888427734 84.91483306884766 69.8416748046875 82.85020446777344 71.1576156616211 C 81.5579605102539 72.46087646484375 80.23794555664062 73.60963439941406 80.68960571289062 73.16242980957031 C 82.75837707519531 70.5079116821289 83.21086883544922 68.2180404663086 83.31471252441406 65.55998229980469 C 84.44720458984375 60.64646911621094 82.6897201538086 55.68655014038086 79.2764892578125 52.054283142089844 C 76.73688507080078 48.31218719482422 72.59473419189453 46.29189682006836 67.46353912353516 46.1495246887207 C 65.10212707519531 45.26077651977539 62.8277587890625 44.857276916503906 59.741180419921875 45.986488342285156 C 58.11818313598633 46.566043853759766 55.90568542480469 47.489501953125 54.513427734375 48.32495880126953 C 56.659339904785156 46.43558120727539 58.71714401245117 43.24174499511719 58.622432708740234 39.97905349731445 C 58.724945068359375 35.67605209350586 57.91129684448242 31.710880279541016 55.05924987792969 28.2023868560791 C 52.7079963684082 24.402769088745117 49.74151611328125 21.985857009887695 44.76356506347656 20.735977172851562 C 40.41410446166992 19.28510856628418 36.364173889160156 19.378284454345703 30.740711212158203 21.779132843017578 C 25.870235443115234 24.530868530273438 23.186840057373047 28.33125877380371 21.022735595703125 33.99991226196289 C 19.7939395904541 40.3686637878418 20.92629623413086 46.68590545654297 24.907093048095703 51.60566329956055" stroke-width="2.0" fill="rgb(0, 255, 0)" opacity="1.0" stroke="rgb(0, 255, 0)" stroke-opacity="1.0" stroke-linecap="round" stroke-linejoin="round"/>
    <path d="M 89.26789093017578 106.12772369384766 C 89.27134704589844 106.13639831542969 89.24394989013672 106.13355255126953 89.27365112304688 106.18343353271484 C 89.72483825683594 106.31033325195312 91.05966186523438 106.43757629394531 93.67034149169922 106.01131439208984 C 96.97588348388672 104.89021301269531 99.68384552001953 103.07343292236328 102.1878890991211 100.20671081542969 C 104.70060729980469 96.70500183105469 105.99412536621094 93.62150573730469 106.23640441894531 90.51490783691406 C 106.48104858398438 87.35578155517578 105.72254180908203 84.85059356689453 103.84307098388672 82.0830078125 C 102.19852447509766 78.3139877319336 99.82147216796875 75.06997680664062 96.12796783447266 72.5287857055664 C 92.24180603027344 70.26081848144531 87.37777709960938 70.56497955322266 81.28406524658203 73.99304962158203 C 76.42481994628906 77.96729278564453 73.78251647949219 82.4483642578125 72.42622375488281 88.22897338867188 C 71.24583435058594 92.13964080810547 69.9570541381836 91.96142578125 69.75762939453125 88.1407699584961 C 70.96880340576172 81.98004150390625 73.00907135009766 76.78790283203125 77.16680145263672 73.2663345336914 C 82.37954711914062 68.95763397216797 83.42112731933594 64.0790023803711 81.13287353515625 58.45569610595703 C 79.31365203857422 51.7974967956543 73.7619857788086 48.09953308105469 65.48754119873047 47.41944122314453 C 60.95771408081055 46.602596282958984 57.724220275878906 47.67743682861328 53.8160400390625 51.90392303466797 C 50.23695755004883 56.23670196533203 44.99470901489258 59.04401397705078 40.69441604614258 59.074222564697266 C 42.08095169067383 55.99263381958008 47.864158630371094 52.276554107666016 54.08574676513672 47.95405197143555 C 58.298179626464844 42.69981384277344 58.35365676879883 38.05878448486328 55.72303771972656 33.42619323730469 C 53.79854202270508 28.18524169921875 51.287288665771484 24.595996856689453 46.8383674621582 22.650920867919922 C 43.08281707763672 20.8282413482666 39.14350891113281 20.754919052124023 32.91514587402344 23.132301330566406 C 27.41319465637207 25.86598777770996 24.52908706665039 29.642189025878906 22.591777801513672 35.047157287597656 C 21.768695831298828 40.64628601074219 23.237842559814453 46.334651947021484 27.842641830444336 51.55937194824219" stroke-width="2.0" fill="rgb(0, 0, 255)" opacity="1.0" stroke="rgb(0, 0, 255)" stroke-opacity="1.0" stroke-linecap="round" stroke-linejoin="round"/>
  </g>
</svg>
