<?xml version="1.0" ?>
<svg xmlns="http://www.w3.org/2000/svg" version="1.1" width="128" height="128">
  <defs/>
  <g>
    <path d="M 35.487606048583984 22.733470916748047 C 35.48973083496094 22.726476669311523 35.25979995727539 22.638126373291016 35.08003234863281 22.217533111572266 C 36.50330352783203 21.975814819335938 41.492103576660156 23.45414924621582 50.44118118286133 27.29714012145996 C 56.888248443603516 32.580177307128906 52.403785705566406 40.592594146728516 41.860321044921875 49.33973693847656 C 36.78330612182617 53.9923095703125 37.9492073059082 55.42497634887695 40.626136779785156 56.84518051147461 C 42.759437561035156 58.46300506591797 44.288211822509766 59.563846588134766 46.24703598022461 59.749324798583984 C 48.199188232421875 59.18310546875 48.28115463256836 58.43181228637695 48.956809997558594 56.6126823425293 C 51.166133880615234 53.54563522338867 51.752655029296875 50.998443603515625 53.89680480957031 49.45880889892578 C 59.70624542236328 47.98335266113281 63.17096710205078 47.850494384765625 67.51251983642578 49.16810989379883 C 77.12220764160156 52.40720748901367 81.13668823242188 60.830955505371094 76.97532653808594 72.62591552734375 C 72.25731658935547 80.37389373779297 64.11425018310547 80.96121978759766 56.11310958862305 80.17069244384766 C 57.54107666015625 80.76685333251953 63.58677673339844 80.36526489257812 69.25361633300781 79.07837677001953 C 74.47824096679688 77.54238891601562 77.05303955078125 77.1444320678711 75.92698669433594 81.1746597290039 C 73.93541717529297 89.05657196044922 74.40271759033203 95.62837982177734 78.17505645751953 99.85334014892578 C 82.1803970336914 103.23159790039062 84.16812133789062 104.40547180175781 86.57052612304688 103.67958068847656 C 90.41007232666016 103.64930725097656 92.12825012207031 103.05992889404297 94.88890838623047 100.02348327636719 C 101.05643463134766 95.59161376953125 102.37393951416016 89.75714874267578 98.23941802978516 82.57386016845703 C 96.28257751464844 76.91688537597656 92.81401062011719 74.8044662475586 85.09833526611328 74.83367156982422 C 82.28292846679688 75.81395721435547 80.90288543701172 78.03871154785156 75.68148803710938 79.85428619384766 C 74.35148620605469 78.80744171142578 75.86461639404297 76.26782989501953 77.42462921142578 71.90029907226562 C 81.08036804199219 62.959014892578125 78.35881805419922 52.991355895996094 67.35369110107422 48.37664794921875" stroke-width="2.0" fill="rgb(252, 194, 27)" opacity="1.0" stroke="rgb(252, 194, 27)" stroke-opacity="1.0" stroke-linecap="round" stroke-linejoin="round"/>
    <path d="M 31.3947696685791 21.991640090942383 C 31.400440216064453 21.983240127563477 31.25417137145996 22.01593589782715 31.053686141967773 21.92001724243164 C 31.465171813964844 21.431489944458008 33.32950210571289 20.8172607421875 37.65468978881836 20.384532928466797 C 43.67292404174805 20.03887939453125 48.05529022216797 20.940677642822266 51.49241256713867 23.512426376342773 C 56.00932693481445 26.385662078857422 57.62752151489258 30.378713607788086 57.13874053955078 35.387569427490234 C 57.76844787597656 39.514976501464844 56.67228698730469 42.877960205078125 55.45972442626953 45.06958770751953 C 56.41232681274414 45.91648864746094 55.88054656982422 46.93507766723633 55.2786865234375 47.554080963134766 C 56.26826858520508 47.42148208618164 55.11371994018555 47.751136779785156 55.86599349975586 47.301143646240234 C 61.70121383666992 45.28269577026367 64.88751983642578 44.60615921020508 68.34590911865234 46.04417419433594 C 77.13685607910156 48.710609436035156 82.06237030029297 53.948028564453125 82.28148651123047 63.76036834716797 C 82.30559539794922 73.8694076538086 75.45866394042969 79.80553436279297 64.16297149658203 82.19591522216797 C 63.15732955932617 83.19293212890625 68.43551635742188 82.61888122558594 71.15460205078125 81.56385040283203 C 71.82460021972656 82.09844970703125 71.71580505371094 84.48641204833984 71.06153106689453 89.18489837646484 C 70.77864074707031 95.21379089355469 72.6856918334961 99.81753540039062 77.45906829833984 103.33207702636719 C 82.22111511230469 106.93327331542969 85.6156005859375 108.55917358398438 90.55364990234375 108.02666473388672 C 97.04423522949219 107.40116882324219 101.1487808227539 105.40880584716797 104.8829116821289 99.68431854248047 C 109.1949234008789 92.63542175292969 108.97334289550781 86.86643981933594 104.54149627685547 80.81816101074219 C 101.60343170166016 74.72753143310547 96.95945739746094 71.79582214355469 89.04754638671875 71.39204406738281 C 86.18673706054688 71.10453796386719 85.1463623046875 71.78688049316406 81.48004913330078 72.91724395751953 C 81.45378112792969 71.38978576660156 82.7627944946289 66.43113708496094 80.3510971069336 58.24509048461914 C 76.39908599853516 48.28814697265625 68.57190704345703 44.471092224121094 57.07958984375 48.806640625" stroke-width="2.0" fill="rgb(255, 0, 0)" opacity="1.0" stroke="rgb(255, 0, 0)" stroke-opacity="1.0" stroke-linecap="round" stroke-linejoin="round"/>
    <path d="M 4.483284950256348 38.82353973388672 C 4.4791412353515625 38.82582473754883 4.500789642333984 38.5207405090332 4.502538681030273 38.1497688293457 C 4.397411823272705 39.236793518066406 4.674199104309082 43.487403869628906 6.638561725616455 48.762176513671875 C 12.103739738464355 49.13975143432617 20.55630111694336 45.553260803222656 25.914735794067383 44.95221710205078 C 27.08422088623047 48.376258850097656 28.325878143310547 52.19450759887695 31.36821937561035 54.49565505981445 C 36.666194915771484 55.68760299682617 42.64429473876953 56.762020111083984 46.02539825439453 59.25264358520508 C 46.48604965209961 62.78083801269531 45.895729064941406 65.7585678100586 46.1959342956543 66.38433074951172 C 47.3521842956543 63.34724044799805 47.489078521728516 57.806514739990234 49.253273010253906 51.853515625 C 52.835227966308594 46.880126953125 53.1871223449707 44.98234939575195 55.84624099731445 45.21259689331055 C 65.21346282958984 44.36286926269531 72.18412017822266 45.9921760559082 78.13128662109375 52.78248977661133 C 85.79605865478516 62.262447357177734 84.58822631835938 70.82035064697266 72.86612701416016 77.50602722167969 C 66.39009094238281 81.07064819335938 68.83795928955078 80.76152038574219 71.61116790771484 79.66729736328125 C 72.05392456054688 80.88025665283203 71.31200408935547 84.31952667236328 70.67604064941406 89.90139770507812 C 70.74209594726562 96.40374755859375 73.01798248291016 100.93638610839844 78.42073059082031 104.0647964477539 C 83.2928695678711 107.29412078857422 86.04524230957031 108.63079833984375 90.70484161376953 107.89179229736328 C 97.45175170898438 107.24649810791016 100.71289825439453 105.35221862792969 103.36515808105469 100.38946533203125 C 108.055908203125 94.7120361328125 108.2938003540039 89.28640747070312 104.4477310180664 82.57101440429688 C 103.28684997558594 76.00862884521484 99.46772766113281 72.2470932006836 89.76546478271484 70.88700103759766 C 84.56468200683594 70.858154296875 82.47000122070312 72.23753356933594 79.9371566772461 72.0288314819336 C 82.7874755859375 65.16553497314453 81.12387084960938 53.54808044433594 69.19269561767578 45.830692291259766 C 58.007293701171875 47.85819625854492 45.18757247924805 53.47415542602539 28.30202293395996 51.503021240234375" stroke-width="2.0" fill="rgb(0, 255, 0)" opacity="1.0" stroke="rgb(0, 255, 0)" stroke-opacity="1.0" stroke-linecap="round" stroke-linejoin="round"/>
    <path d="M 52.98575210571289 24.438982009887695 C 52.98906707763672 24.43299102783203 52.94828796386719 24.352140426635742 53.4661865234375 24.124221801757812 C 55.596107482910156 24.46042251586914 58.87705612182617 27.822032928466797 58.2423095703125 35.210601806640625 C 49.74475860595703 40.73584747314453 38.4190673828125 42.678951263427734 30.453821182250977 45.745540618896484 C 27.72117042541504 49.97951126098633 28.884824752807617 53.2213020324707 31.34306526184082 54.65732955932617 C 33.8959846496582 55.457420349121094 37.2869987487793 56.61417007446289 41.61366271972656 57.74165725708008 C 44.56980895996094 59.47919845581055 45.369384765625 61.46424865722656 46.778297424316406 60.83961486816406 C 49.65240478515625 55.75547409057617 52.09952163696289 49.49974822998047 53.92395782470703 44.8039436340332 C 55.67818832397461 42.60042953491211 58.10149002075195 43.60611343383789 66.98680877685547 45.4989013671875 C 79.67485046386719 49.765010833740234 84.61296081542969 58.63176727294922 80.81752014160156 69.64976501464844 C 73.3254165649414 77.94141387939453 63.40999984741211 81.03359985351562 56.96064758300781 81.82196807861328 C 59.908538818359375 82.84759521484375 67.19145202636719 82.49359893798828 71.4450454711914 81.4663314819336 C 71.91143035888672 82.45964050292969 71.35002899169922 85.65653228759766 71.05851745605469 90.50364685058594 C 71.2435302734375 96.17753601074219 73.34217071533203 100.3887710571289 77.45597839355469 103.70305633544922 C 80.95219421386719 107.07772827148438 83.55925750732422 108.37118530273438 88.24081420898438 107.99452209472656 C 93.8678207397461 108.11611938476562 96.5052719116211 107.11833190917969 100.12783813476562 103.67455291748047 C 106.23981475830078 100.05743408203125 108.11597442626953 95.95597839355469 106.92181396484375 89.52021026611328 C 107.69251251220703 82.6923599243164 105.07323455810547 77.35150909423828 97.12200927734375 72.7659683227539 C 92.25089263916016 69.57183837890625 87.05912780761719 70.38029479980469 79.0293960571289 72.4054183959961 C 78.7600326538086 70.23490905761719 79.69708251953125 64.01541900634766 74.47648620605469 54.77472686767578 C 69.79917907714844 46.735450744628906 61.00766372680664 47.763301849365234 46.917972564697266 50.31205368041992" stroke-width="2.0" fill="rgb(0, 0, 255)" opacity="1.0" stroke="rgb(0, 0, 255)" stroke-opacity="1.0" stroke-linecap="round" stroke-linejoin="round"/>
  </g>
</svg>
