<?xml version="1.0" ?>
<svg xmlns="http://www.w3.org/2000/svg" version="1.1" width="128" height="128">
  <defs/>
  <g>
    <path d="M 27.31089973449707 30.312984466552734 C 27.304086685180664 30.30641746520996 27.342702865600586 30.14678955078125 27.51254653930664 29.423316955566406 C 27.984262466430664 29.056047439575195 28.86140251159668 32.72491455078125 30.26353645324707 42.40260696411133 C 31.63013458251953 51.69598388671875 32.384220123291016 57.143898010253906 32.22157669067383 61.18141174316406 C 32.33930587768555 64.24420928955078 33.61939239501953 65.28044891357422 35.507598876953125 64.18904113769531 C 37.5040168762207 61.71582794189453 40.30385208129883 59.39170455932617 44.457672119140625 58.22887420654297 C 48.31393051147461 57.34421920776367 50.89344024658203 55.66148376464844 54.80373001098633 52.2161865234375 C 59.06211471557617 48.117008209228516 60.07341003417969 47.35802459716797 65.27828979492188 50.30347442626953 C 77.25084686279297 55.93811798095703 79.75309753417969 65.85392761230469 70.20866394042969 75.20545196533203 C 64.15667724609375 79.57234954833984 59.91901779174805 77.2555160522461 50.72499084472656 72.0085220336914 C 45.031497955322266 69.63372802734375 45.00776672363281 70.25598907470703 47.3272705078125 73.07157135009766 C 51.59810256958008 77.58354187011719 58.623470306396484 81.72542572021484 66.83549499511719 83.94583892822266 C 71.23450469970703 85.5473861694336 70.42500305175781 87.91226196289062 69.01888275146484 91.25775146484375 C 69.66754913330078 95.02889251708984 71.9255599975586 97.78069305419922 74.86444854736328 99.26202392578125 C 77.2697525024414 100.32489013671875 78.35374450683594 100.37603759765625 79.08338165283203 98.88770294189453 C 81.51058197021484 96.67475891113281 85.38874816894531 93.0385513305664 90.6236343383789 87.32182312011719 C 96.51270294189453 82.60414123535156 98.85554504394531 80.42613220214844 98.9996109008789 78.98926544189453 C 100.68476867675781 77.16799926757812 99.42000579833984 74.81356811523438 94.37150573730469 71.80458068847656 C 92.37126922607422 68.85814666748047 91.37498474121094 68.41158294677734 88.16627502441406 70.60921478271484 C 86.92870330810547 72.92208099365234 84.10482025146484 76.24232482910156 78.62289428710938 81.3101577758789 C 75.98406982421875 85.27500915527344 69.9286117553711 85.84545135498047 57.390560150146484 79.21080780029297" stroke-width="2.0" fill="rgb(252, 194, 27)" opacity="1.0" stroke="rgb(252, 194, 27)" stroke-opacity="1.0" stroke-linecap="round" stroke-linejoin="round"/>
    <path d="M 28.57740020751953 24.3791446685791 C 28.575956344604492 24.365703582763672 28.49945831298828 24.356782913208008 28.37922477722168 24.119230270385742 C 28.38088035583496 23.7800235748291 28.962743759155273 24.205278396606445 32.253662109375 25.506412506103516 C 39.27814483642578 26.495176315307617 47.54096603393555 28.131715774536133 55.851871490478516 30.487607955932617 C 63.89002227783203 31.691322326660156 66.9834976196289 32.42445755004883 65.33590698242188 34.342281341552734 C 63.44939041137695 36.38601303100586 60.61562728881836 38.67095184326172 57.9704475402832 40.939491271972656 C 57.0672721862793 42.42201614379883 55.305843353271484 43.98610305786133 53.849510192871094 45.39687728881836 C 55.04212188720703 45.58049774169922 56.129676818847656 45.64262008666992 60.57121658325195 45.34231948852539 C 70.76248931884766 44.678932189941406 77.03852844238281 47.69254684448242 80.36820220947266 56.94813537597656 C 85.4704360961914 68.82450103759766 82.49625396728516 74.87445831298828 65.82166290283203 74.58657836914062 C 52.772098541259766 73.450927734375 50.25090408325195 74.42056274414062 53.66120529174805 78.0216293334961 C 63.08301544189453 82.056640625 71.25604248046875 83.94219207763672 71.41358184814453 85.1688461303711 C 67.71378326416016 87.21224975585938 65.52967071533203 89.22583770751953 65.18785095214844 91.61009216308594 C 65.67874145507812 94.978515625 68.03043365478516 98.38053131103516 72.21221160888672 101.36766815185547 C 75.71531677246094 103.92610931396484 77.785888671875 104.87931060791016 79.40397644042969 103.9378433227539 C 81.21355438232422 102.52325439453125 83.98556518554688 99.74867248535156 89.7308120727539 93.99507141113281 C 96.9534683227539 87.41011810302734 101.04820251464844 83.16700744628906 103.14202117919922 81.03540802001953 C 105.13362884521484 78.561279296875 103.38816833496094 74.73609924316406 98.0185775756836 70.14524841308594 C 94.48094940185547 66.07113647460938 91.65052795410156 64.87378692626953 88.35736083984375 65.83234405517578 C 88.14673614501953 66.81315612792969 86.69075775146484 69.1146011352539 81.66679382324219 72.36090087890625 C 74.12214660644531 72.77204132080078 58.12714385986328 69.63945770263672 40.8043327331543 64.2782974243164" stroke-width="2.0" fill="rgb(255, 0, 0)" opacity="1.0" stroke="rgb(255, 0, 0)" stroke-opacity="1.0" stroke-linecap="round" stroke-linejoin="round"/>
    <path d="M 28.841175079345703 24.62890625 C 28.83992576599121 24.61474609375 28.770902633666992 24.606603622436523 28.6627197265625 24.36519432067871 C 28.628150939941406 24.02105140686035 29.160499572753906 24.4744930267334 32.478939056396484 25.825498580932617 C 39.53425598144531 26.765819549560547 47.65900802612305 28.323654174804688 55.671627044677734 30.741535186767578 C 63.461734771728516 32.111263275146484 66.93556213378906 32.88394546508789 66.01707458496094 34.41200637817383 C 64.4177474975586 36.05319595336914 61.50481414794922 38.26033401489258 58.735191345214844 40.601627349853516 C 57.79859924316406 42.09862518310547 55.93165588378906 43.696292877197266 54.298404693603516 45.18690872192383 C 55.12506866455078 45.566650390625 55.68292236328125 45.8231315612793 59.876434326171875 45.48176956176758 C 70.49226379394531 44.610530853271484 77.35797119140625 47.72444152832031 80.84675598144531 57.194637298583984 C 85.47554779052734 69.0131607055664 80.88915252685547 74.72604370117188 62.19905090332031 74.25279235839844 C 50.19581604003906 73.9052505493164 50.401981353759766 75.62590789794922 55.66131591796875 79.23712921142578 C 65.11786651611328 82.78777313232422 71.88574981689453 84.24754333496094 70.8192367553711 85.4203872680664 C 66.66374206542969 87.73081970214844 64.98554992675781 89.99616241455078 65.41903686523438 92.41000366210938 C 66.22628021240234 95.71490478515625 68.65754699707031 99.01030731201172 72.86632537841797 101.87799072265625 C 76.23052215576172 104.3566665649414 78.04605102539062 105.24698638916016 79.45614624023438 104.25374603271484 C 81.111328125 102.8140869140625 83.72113800048828 100.11034393310547 89.3049545288086 94.51919555664062 C 96.42450714111328 88.02181243896484 100.54585266113281 83.46968078613281 102.8700180053711 81.08457946777344 C 105.23141479492188 78.95478820800781 104.04175567626953 75.61714172363281 99.22510528564453 71.1180648803711 C 95.65052795410156 66.5893783569336 92.37432861328125 64.83296966552734 88.72601318359375 65.50260162353516 C 88.51611328125 66.18866729736328 87.36354064941406 68.40359497070312 82.87358856201172 71.59210205078125 C 75.8616714477539 71.65286254882812 59.86823654174805 68.28443145751953 41.99191665649414 63.32111358642578" stroke-width="2.0" fill="rgb(0, 255, 0)" opacity="1.0" stroke="rgb(0, 255, 0)" stroke-opacity="1.0" stroke-linecap="round" stroke-linejoin="round"/>
    <path d="M 30.223159790039062 34.066078186035156 C 30.213733673095703 34.05598068237305 30.26010513305664 33.94368362426758 30.535140991210938 33.410179138183594 C 31.19001007080078 33.4908332824707 31.943836212158203 37.56495666503906 32.44526290893555 45.86422348022461 C 32.70268630981445 52.45663833618164 32.72095489501953 56.411224365234375 32.43489456176758 60.04603958129883 C 32.33977127075195 63.13335037231445 32.408226013183594 65.0385513305664 32.58219909667969 65.24346160888672 C 33.400901794433594 63.2490119934082 36.328983306884766 59.52424621582031 41.292999267578125 55.00780487060547 C 47.48786544799805 49.34086608886719 54.969844818115234 42.45489501953125 60.091190338134766 37.544586181640625 C 60.4617805480957 36.376564025878906 58.21900939941406 38.136474609375 54.98788070678711 41.71992492675781 C 51.8556022644043 46.48723220825195 49.4014892578125 52.740318298339844 48.32571029663086 60.7034797668457 C 49.865196228027344 68.00945281982422 51.991878509521484 71.78199768066406 52.5046501159668 74.15192413330078 C 52.255088806152344 76.7699966430664 53.12727737426758 78.8005142211914 57.16246032714844 80.90709686279297 C 63.1042366027832 82.90325927734375 68.2568359375 83.8857421875 70.16368865966797 84.81158447265625 C 68.37376403808594 87.25251007080078 66.26031494140625 90.18656921386719 66.76004028320312 93.37879180908203 C 68.8284683227539 97.1305160522461 71.78721618652344 99.9853744506836 75.36219024658203 101.69482421875 C 77.93407440185547 103.15161895751953 78.71980285644531 103.45059967041016 79.33088684082031 102.18791961669922 C 81.55831909179688 100.33325958251953 85.70072937011719 96.78884887695312 91.71753692626953 90.70442199707031 C 97.89282989501953 85.08328247070312 100.59087371826172 81.8928451538086 101.70478820800781 80.27959442138672 C 104.39484405517578 79.40897369384766 104.24824523925781 78.31770324707031 100.63186645507812 75.75897979736328 C 98.80291748046875 71.25167846679688 96.06330108642578 67.57182312011719 90.26848602294922 66.77717590332031 C 87.19184875488281 67.71257781982422 83.22439575195312 71.34789276123047 76.11731719970703 77.3663558959961 C 72.36753845214844 81.85200500488281 65.58654022216797 82.89957427978516 54.10930252075195 77.05824279785156" stroke-width="2.0" fill="rgb(0, 0, 255)" opacity="1.0" stroke="rgb(0, 0, 255)" stroke-opacity="1.0" stroke-linecap="round" stroke-linejoin="round"/>
  </g>
</svg>
