<?xml version="1.0" ?>
<svg xmlns="http://www.w3.org/2000/svg" version="1.1" width="128" height="128">
  <defs/>
  <g>
    <path d="M 66.96649932861328 29.41596031188965 C 66.9719467163086 29.380441665649414 68.83766174316406 29.50022315979004 73.44910430908203 29.366308212280273 C 66.58177185058594 29.003787994384766 39.92081832885742 28.64771842956543 19.334287643432617 28.55209732055664 C 12.983019828796387 28.1706485748291 11.353092193603516 28.80206871032715 9.920110702514648 30.705337524414062 C 8.805244445800781 32.20896530151367 8.780073165893555 34.581573486328125 8.790568351745605 38.83726501464844 C 8.418743133544922 43.276649475097656 8.697601318359375 46.52428436279297 8.751946449279785 51.62732696533203 C 8.206400871276855 59.5823860168457 8.31725025177002 68.66697692871094 8.510641098022461 77.75804138183594 C 8.237610816955566 85.1927490234375 8.31384563446045 90.21095275878906 8.361823081970215 93.62837219238281 C 8.239904403686523 96.2142333984375 9.085672378540039 97.75259399414062 10.997105598449707 98.14543914794922 C 13.194636344909668 98.33192443847656 16.639873504638672 98.4273452758789 22.418676376342773 98.3609848022461 C 29.62871551513672 98.41212463378906 38.30210876464844 98.48189544677734 51.4820442199707 98.4049301147461 C 68.41638946533203 98.52783966064453 82.28368377685547 98.72755432128906 91.57757568359375 98.53499603271484 C 99.36263275146484 98.360595703125 104.3593978881836 98.42699432373047 107.6742172241211 98.36318969726562 C 110.93824005126953 98.34684753417969 113.26463317871094 98.28973388671875 114.77946472167969 98.01643371582031 C 116.47408294677734 97.90213775634766 117.72758483886719 97.58180236816406 118.2593765258789 96.62129211425781 C 119.06378173828125 95.64330291748047 119.761962890625 93.83723449707031 119.53618621826172 90.01799011230469 C 119.21546173095703 84.70978546142578 119.34934997558594 76.68507385253906 119.3245849609375 65.55714416503906 C 119.35206604003906 55.50286865234375 119.40741729736328 48.26359558105469 119.22884368896484 42.997100830078125 C 119.42611694335938 39.28337478637695 119.55599212646484 36.2728157043457 119.24414825439453 33.92417907714844 C 119.07133483886719 32.21905517578125 118.31878662109375 31.157609939575195 116.84907531738281 30.696025848388672 C 116.00387573242188 29.748537063598633 114.71456909179688 29.244291305541992 112.75381469726562 30.0814151763916" stroke-width="2.0" fill="rgb(252, 194, 27)" opacity="1.0" stroke="rgb(252, 194, 27)" stroke-opacity="1.0" stroke-linecap="round" stroke-linejoin="round"/>
    <path d="M 22.852365493774414 48.785091400146484 C 22.846878051757812 48.78422927856445 23.10010528564453 48.989803314208984 23.94495391845703 49.01597213745117 C 23.88338279724121 47.98302459716797 21.49778175354004 47.2832145690918 18.96172332763672 48.20915603637695 C 17.96324920654297 49.28943634033203 17.788965225219727 51.44999313354492 17.336109161376953 55.60646057128906 C 17.165090560913086 59.866905212402344 18.09568977355957 63.17258071899414 19.036670684814453 66.00076293945312 C 19.21404457092285 68.0737533569336 19.91839599609375 69.40348815917969 21.231006622314453 69.95184326171875 C 22.15041732788086 69.37409210205078 23.78141212463379 68.60194396972656 27.000782012939453 68.95147705078125 C 30.8564453125 69.88115692138672 35.3797721862793 69.65788269042969 40.202301025390625 68.9604721069336 C 45.49516296386719 69.51303100585938 51.80101013183594 71.73847961425781 56.00052261352539 75.26854705810547 C 56.45138168334961 79.30360412597656 55.13026428222656 82.59679412841797 54.23973083496094 85.07716369628906 C 53.95428466796875 86.92876434326172 55.693599700927734 88.05812072753906 62.194271087646484 88.53913879394531 C 70.53521728515625 89.01618957519531 76.07823181152344 89.15948486328125 81.75007629394531 89.06525421142578 C 87.82654571533203 88.86631774902344 91.64432525634766 87.96055603027344 95.01162719726562 86.87857818603516 C 98.9791259765625 87.66795349121094 101.55322265625 89.42365264892578 103.36103820800781 90.3081283569336 C 106.07666015625 90.85697937011719 108.15553283691406 90.99295806884766 109.19595336914062 89.93604278564453 C 110.71149444580078 88.7745590209961 111.6237564086914 87.3438491821289 111.4086685180664 84.32927703857422 C 111.9660873413086 81.19896697998047 112.18388366699219 78.24015808105469 111.2428207397461 74.69329833984375 C 111.15001678466797 71.6405029296875 110.74214172363281 69.40382385253906 109.6313705444336 68.04267120361328 C 110.23690032958984 67.40351867675781 109.19610595703125 67.18391418457031 104.53063201904297 67.71743774414062 C 101.71602630615234 68.23078155517578 99.74658203125 69.56128692626953 94.17475128173828 70.50164794921875 C 87.10454559326172 68.91134643554688 75.08099365234375 68.33299255371094 59.13526916503906 68.24966430664062" stroke-width="2.0" fill="rgb(255, 0, 0)" opacity="1.0" stroke="rgb(255, 0, 0)" stroke-opacity="1.0" stroke-linecap="round" stroke-linejoin="round"/>
    <path d="M 26.612327575683594 46.84482192993164 C 26.606014251708984 46.84328842163086 26.992338180541992 47.050540924072266 28.24517822265625 47.15534210205078 C 27.798322677612305 46.30477523803711 23.816972732543945 45.9853630065918 20.051044464111328 46.988914489746094 C 18.756629943847656 47.75062942504883 18.42763328552246 49.450016021728516 17.503467559814453 53.3976936340332 C 16.925886154174805 57.35721969604492 17.700742721557617 60.64350891113281 18.364076614379883 63.766448974609375 C 18.141769409179688 66.44053649902344 18.71263313293457 68.50251007080078 20.241413116455078 70.75273895263672 C 21.114179611206055 72.98847961425781 21.602746963500977 75.24178314208984 21.59555435180664 78.29035949707031 C 20.885364532470703 81.74051666259766 20.867183685302734 84.26455688476562 21.69131851196289 86.06757354736328 C 22.948423385620117 87.59634399414062 25.61495018005371 88.03684997558594 29.237916946411133 87.68891906738281 C 33.44554901123047 87.76944732666016 39.190895080566406 88.25264739990234 45.08345413208008 88.71915435791016 C 48.816062927246094 89.5822982788086 52.81370162963867 90.28642272949219 61.19425582885742 90.7220458984375 C 70.61595153808594 91.05494689941406 76.49432373046875 90.96696472167969 82.71892547607422 90.74739074707031 C 89.24855041503906 90.64105987548828 93.26093292236328 90.31521606445312 96.90663146972656 89.70359802246094 C 100.9901123046875 89.97411346435547 103.32748413085938 91.08332061767578 104.85427856445312 92.04302978515625 C 107.50163269042969 92.75137329101562 109.75518035888672 92.63368225097656 111.03282165527344 91.1482162475586 C 112.54302215576172 89.51180267333984 113.13961791992188 87.48829650878906 112.39542388916016 83.71957397460938 C 112.5548095703125 79.94486236572266 112.87482452392578 76.74385070800781 112.20884704589844 72.8563232421875 C 112.04922485351562 69.14826965332031 111.58025360107422 66.68777465820312 110.61737060546875 64.85818481445312 C 110.85185241699219 62.43183135986328 109.879638671875 59.876747131347656 106.66614532470703 58.99323654174805 C 104.76325988769531 58.711509704589844 102.64408874511719 58.71858596801758 98.73424530029297 59.59871292114258 C 96.95849609375 59.03770065307617 92.31413269042969 58.53265380859375 80.42991638183594 59.17754364013672" stroke-width="2.0" fill="rgb(0, 255, 0)" opacity="1.0" stroke="rgb(0, 255, 0)" stroke-opacity="1.0" stroke-linecap="round" stroke-linejoin="round"/>
    <path d="M 70.40116882324219 29.81491470336914 C 70.41085815429688 29.78350830078125 72.31614685058594 29.8468017578125 77.0033950805664 29.4639835357666 C 70.15413665771484 29.162561416625977 41.923763275146484 29.197004318237305 19.544673919677734 28.897436141967773 C 12.63965892791748 28.25290298461914 10.798346519470215 28.85455894470215 9.36047077178955 30.82438850402832 C 8.229616165161133 32.271793365478516 8.168163299560547 34.575172424316406 8.307401657104492 38.60965347290039 C 8.061928749084473 42.570556640625 8.314290046691895 45.513031005859375 8.468232154846191 50.27384948730469 C 8.096562385559082 57.944217681884766 8.202190399169922 66.62925720214844 8.325257301330566 75.59033203125 C 8.043707847595215 83.5635757446289 8.170970916748047 89.02510833740234 8.326505661010742 92.79151153564453 C 8.280820846557617 95.69757080078125 9.13963794708252 97.37940979003906 10.930508613586426 97.90448760986328 C 13.02907943725586 98.22319030761719 16.468393325805664 98.3842544555664 22.294790267944336 98.33504486083984 C 29.459760665893555 98.39122772216797 38.11901092529297 98.49717712402344 51.664249420166016 98.46305847167969 C 69.28934478759766 98.57672119140625 83.36104583740234 98.69674682617188 92.36162567138672 98.50090026855469 C 99.98456573486328 98.46329498291016 104.91424560546875 98.62966918945312 107.95645904541016 98.56290435791016 C 110.93173217773438 98.6474838256836 113.16886138916016 98.7122573852539 114.60775756835938 98.58580780029297 C 116.2621078491211 98.73654174804688 117.58650970458984 98.55462646484375 118.18739318847656 97.47035217285156 C 119.05494689941406 96.35311889648438 119.77452087402344 94.29741668701172 119.55458068847656 90.11076354980469 C 119.33641815185547 84.59638214111328 119.53614807128906 76.61318969726562 119.45731353759766 65.9294662475586 C 119.41999053955078 56.53838348388672 119.49761199951172 49.499046325683594 119.32984924316406 43.97321319580078 C 119.45016479492188 39.80683135986328 119.57577514648438 36.3515510559082 119.3565902709961 33.78509521484375 C 119.21498107910156 32.038265228271484 118.42498779296875 30.834745407104492 116.87397766113281 30.146522521972656 C 115.91891479492188 29.169124603271484 114.48063659667969 28.93256378173828 112.31761932373047 29.64287567138672" stroke-width="2.0" fill="rgb(0, 0, 255)" opacity="1.0" stroke="rgb(0, 0, 255)" stroke-opacity="1.0" stroke-linecap="round" stroke-linejoin="round"/>
  </g>
</svg>
