<?xml version="1.0" ?>
<svg xmlns="http://www.w3.org/2000/svg" version="1.1" width="128" height="128">
  <defs/>
  <g>
    <path d="M 6.68963623046875 19.30303382873535 C 6.697423458099365 19.307125091552734 6.755579948425293 18.97138214111328 6.861014366149902 18.47199058532715 C 6.416213035583496 19.228029251098633 5.676577091217041 22.562694549560547 6.202460289001465 26.546634674072266 C 9.815272331237793 27.551198959350586 18.51074981689453 26.786218643188477 34.912601470947266 27.041902542114258 C 60.71098709106445 27.199748992919922 82.48487854003906 26.98480796813965 89.00509643554688 27.851306915283203 C 88.1820297241211 30.861801147460938 84.87174224853516 36.219581604003906 79.41124725341797 42.16770553588867 C 74.57535552978516 47.57718276977539 71.1473388671875 52.00566864013672 66.42625427246094 54.671348571777344 C 59.846439361572266 55.337852478027344 53.154537200927734 56.20877456665039 46.65965270996094 60.26780700683594 C 39.76131057739258 67.02095794677734 32.202674865722656 74.34569549560547 25.140583038330078 81.26573944091797 C 20.155344009399414 86.68409729003906 17.21946144104004 90.1313705444336 15.42660140991211 92.47203063964844 C 14.106483459472656 94.27883911132812 13.52660083770752 95.8041763305664 13.886510848999023 97.22920989990234 C 15.099349975585938 98.52494812011719 17.457046508789062 100.49736022949219 20.7901611328125 103.72653198242188 C 23.730426788330078 106.98193359375 25.624650955200195 108.64263916015625 27.013132095336914 108.81366729736328 C 28.112043380737305 108.40011596679688 29.767101287841797 107.43894958496094 33.41694641113281 106.16753387451172 C 38.611358642578125 104.845947265625 44.49031448364258 102.4471664428711 50.23286056518555 98.10681915283203 C 53.392398834228516 92.48848724365234 52.99842071533203 86.4410400390625 51.3663444519043 80.74348449707031 C 51.12981414794922 77.50288391113281 53.499351501464844 77.51825714111328 58.9521484375 79.14419555664062 C 65.9742660522461 79.76146697998047 70.31831359863281 76.06901550292969 70.75989532470703 68.55726623535156 C 72.55609130859375 60.746036529541016 78.0936279296875 54.46388626098633 84.53436279296875 49.11879348754883 C 90.84387969970703 44.644500732421875 95.10929107666016 41.28428649902344 98.30751037597656 38.47168731689453 C 101.59585571289062 34.21468734741211 98.81424713134766 29.930221557617188 88.84868621826172 27.300878524780273" stroke-width="2.0" fill="rgb(252, 194, 27)" opacity="1.0" stroke="rgb(252, 194, 27)" stroke-opacity="1.0" stroke-linecap="round" stroke-linejoin="round"/>
    <path d="M 7.001760482788086 18.84026336669922 C 7.0009050369262695 18.837554931640625 7.056173801422119 18.51802635192871 7.146518707275391 17.98429298400879 C 6.830478668212891 18.743871688842773 6.144343852996826 22.08418083190918 6.577645778656006 26.044368743896484 C 10.006976127624512 26.85921859741211 18.522796630859375 26.190521240234375 35.24202346801758 26.87308692932129 C 61.667564392089844 26.865257263183594 82.53013610839844 26.343053817749023 87.10294342041016 27.63723373413086 C 84.24810028076172 31.34408187866211 79.4538345336914 37.746707916259766 72.49016571044922 44.83988952636719 C 66.56494140625 49.88198471069336 61.92848587036133 52.346134185791016 54.64699935913086 52.56575393676758 C 47.45667266845703 53.70225143432617 41.8912239074707 58.68716812133789 35.25706481933594 66.31369018554688 C 27.970569610595703 73.53571319580078 21.40416717529297 79.66248321533203 16.07923126220703 84.95345306396484 C 12.29144287109375 88.91473388671875 10.197929382324219 91.66433715820312 9.322986602783203 93.86148834228516 C 9.167769432067871 95.96846771240234 9.858137130737305 98.02386474609375 11.982487678527832 100.43486785888672 C 16.029434204101562 104.65560913085938 21.262826919555664 110.01114654541016 25.61166000366211 114.43408203125 C 27.894739151000977 116.82444763183594 29.440597534179688 117.82113647460938 31.197702407836914 118.25321960449219 C 33.077327728271484 118.45919036865234 35.17588424682617 118.0985336303711 37.554019927978516 117.02854919433594 C 39.45348358154297 115.44058227539062 41.351959228515625 113.0815658569336 44.717430114746094 109.66459655761719 C 49.185569763183594 105.44522857666016 53.977806091308594 100.33966827392578 59.87336349487305 94.50346374511719 C 65.81085205078125 89.1715087890625 69.8933334350586 84.88768768310547 72.37430572509766 80.7425308227539 C 74.36238861083984 76.81875610351562 75.19888305664062 72.6877212524414 74.595458984375 68.15614318847656 C 75.50655364990234 63.751487731933594 79.70291137695312 59.011226654052734 85.41744995117188 53.305137634277344 C 91.11688232421875 48.2877082824707 95.6214828491211 45.058353424072266 99.50830078125 42.85364532470703 C 102.93745422363281 39.007789611816406 102.0173110961914 33.0079231262207 94.61687469482422 27.575895309448242" stroke-width="2.0" fill="rgb(255, 0, 0)" opacity="1.0" stroke="rgb(255, 0, 0)" stroke-opacity="1.0" stroke-linecap="round" stroke-linejoin="round"/>
    <path d="M 6.9755120277404785 18.88532829284668 C 6.974987506866455 18.88191795349121 7.036965847015381 18.564685821533203 7.137547492980957 18.041284561157227 C 6.801697254180908 18.796363830566406 6.080946922302246 22.111658096313477 6.495645999908447 26.011655807495117 C 9.897778511047363 26.762006759643555 18.242862701416016 26.112571716308594 34.5446891784668 26.90032196044922 C 60.76712417602539 27.037702560424805 82.11211395263672 26.523439407348633 87.06643676757812 27.732379913330078 C 84.29302978515625 31.35738182067871 79.41751861572266 37.785221099853516 72.36750793457031 44.93914031982422 C 66.39305877685547 50.02910232543945 61.6085090637207 52.42859649658203 54.20011520385742 52.65523910522461 C 47.034908294677734 54.01986312866211 41.34236145019531 59.30992889404297 34.513275146484375 67.07344055175781 C 27.246063232421875 74.24684143066406 20.804847717285156 80.25091552734375 15.609889030456543 85.38373565673828 C 11.962657928466797 89.23719787597656 10.028470993041992 91.8890380859375 9.270045280456543 94.00047302246094 C 9.172462463378906 96.08175659179688 9.95702075958252 98.12030792236328 12.22314453125 100.55455017089844 C 16.369300842285156 104.8795166015625 21.60196876525879 110.21492767333984 25.862890243530273 114.48352813720703 C 28.03071403503418 116.77880096435547 29.51201629638672 117.75968933105469 31.24155044555664 118.19508361816406 C 33.11247634887695 118.4020004272461 35.227481842041016 118.02560424804688 37.66387939453125 116.92532348632812 C 39.6189079284668 115.30052947998047 41.53822708129883 112.88726806640625 44.941471099853516 109.41466522216797 C 49.44319534301758 105.15758514404297 54.270729064941406 100.00224304199219 60.20546340942383 94.12471008300781 C 66.10806274414062 88.82842254638672 70.089599609375 84.65569305419922 72.48606872558594 80.50830078125 C 74.39276885986328 76.59797668457031 75.15074157714844 72.56089782714844 74.51895141601562 68.0690689086914 C 75.44140625 63.69418716430664 79.72901916503906 58.99019241333008 85.50096130371094 53.276790618896484 C 91.14177703857422 48.29389190673828 95.5300064086914 45.08877944946289 99.37225341796875 42.883270263671875 C 102.86485290527344 39.13459014892578 102.01966094970703 33.238582611083984 94.73564147949219 27.765398025512695" stroke-width="2.0" fill="rgb(0, 255, 0)" opacity="1.0" stroke="rgb(0, 255, 0)" stroke-opacity="1.0" stroke-linecap="round" stroke-linejoin="round"/>
    <path d="M 6.730271816253662 19.50833511352539 C 6.73360013961792 19.505590438842773 6.777457237243652 19.185997009277344 6.856976509094238 18.678770065307617 C 6.549324989318848 19.37183952331543 6.052642822265625 22.5685977935791 6.8210039138793945 26.39604377746582 C 10.803028106689453 27.188695907592773 20.30774688720703 26.723344802856445 37.81257247924805 27.246217727661133 C 63.678192138671875 26.867774963378906 83.08173370361328 26.474571228027344 86.93930053710938 28.093645095825195 C 84.3165283203125 31.99114418029785 80.10243225097656 38.12917709350586 73.23169708251953 44.77316665649414 C 66.58381652832031 49.845787048339844 61.1705207824707 52.496028900146484 53.09737014770508 53.048484802246094 C 45.19149398803711 55.326026916503906 38.98657989501953 61.75053787231445 31.90751838684082 69.75410461425781 C 24.55669593811035 76.73413848876953 18.491500854492188 82.53980255126953 14.012667655944824 87.55077362060547 C 11.230997085571289 91.31529235839844 10.074563980102539 93.73764038085938 9.893653869628906 95.7578353881836 C 10.167962074279785 97.84965515136719 11.490586280822754 99.6751708984375 14.778413772583008 102.5158462524414 C 19.519432067871094 107.4449234008789 23.961597442626953 112.17668151855469 26.964069366455078 115.0538558959961 C 28.448055267333984 116.6220703125 29.431095123291016 117.396240234375 31.006589889526367 117.76895141601562 C 32.819732666015625 117.92975616455078 34.74312973022461 117.4789810180664 37.17160415649414 116.29194641113281 C 39.318748474121094 114.56244659423828 41.543270111083984 111.98571014404297 45.373233795166016 108.28719329833984 C 49.881752014160156 103.9705810546875 54.23751449584961 99.04224395751953 59.96952819824219 93.37810516357422 C 66.06525421142578 87.7719955444336 69.86395263671875 82.8553695678711 71.93292236328125 78.83365631103516 C 73.77272033691406 76.13249969482422 74.26656341552734 72.74810791015625 73.21163177490234 67.88719177246094 C 74.30979919433594 63.193416595458984 79.0353012084961 58.336307525634766 84.94638061523438 52.68250274658203 C 90.76368713378906 48.427696228027344 94.81578063964844 45.928585052490234 98.12716674804688 43.94729232788086 C 102.05076599121094 40.18003845214844 101.94031524658203 34.0739631652832 95.45664978027344 28.49809455871582" stroke-width="2.0" fill="rgb(0, 0, 255)" opacity="1.0" stroke="rgb(0, 0, 255)" stroke-opacity="1.0" stroke-linecap="round" stroke-linejoin="round"/>
  </g>
</svg>
