<?xml version="1.0" ?>
<svg xmlns="http://www.w3.org/2000/svg" version="1.1" width="128" height="128">
  <defs/>
  <g>
    <path d="M 7.096313953399658 29.976051330566406 C 7.10158634185791 29.978240966796875 7.206638813018799 30.579605102539062 7.3178391456604 30.534299850463867 C 6.677858352661133 27.81720542907715 6.073785781860352 25.737083435058594 7.607486724853516 26.401058197021484 C 13.74397087097168 25.922212600708008 26.389619827270508 25.02717399597168 37.01200866699219 27.146343231201172 C 39.06141662597656 31.881614685058594 36.213443756103516 37.93142318725586 27.703815460205078 43.9827880859375 C 19.099260330200195 48.936405181884766 15.65532398223877 52.336177825927734 14.210978507995605 53.282405853271484 C 12.80551528930664 52.23843765258789 13.37778377532959 49.170188903808594 16.994611740112305 43.718170166015625 C 23.250661849975586 37.888336181640625 33.55032730102539 32.55092239379883 48.22258377075195 27.388338088989258 C 59.17101287841797 21.39944076538086 62.771217346191406 18.951629638671875 66.03636932373047 21.047950744628906 C 77.62074279785156 25.792863845825195 89.8858871459961 31.997177124023438 96.55465698242188 39.85167694091797 C 100.39189910888672 47.74010467529297 100.2382583618164 54.421173095703125 100.27433776855469 59.65306091308594 C 105.370361328125 60.86417007446289 109.28250885009766 59.044403076171875 111.0945816040039 59.456703186035156 C 113.23185729980469 63.42026138305664 112.91637420654297 69.6328125 109.6424789428711 78.74344635009766 C 105.71575927734375 90.00423431396484 98.53339385986328 99.12508392333984 88.65668487548828 104.44659423828125 C 83.47215270996094 107.65733337402344 81.1417465209961 108.5680923461914 80.95630645751953 107.94095611572266 C 85.87447357177734 107.10009002685547 91.51429748535156 104.23967742919922 97.94351196289062 97.83248138427734 C 105.91926574707031 90.53787994384766 110.26338958740234 83.02194213867188 111.61666107177734 73.48091888427734 C 113.65326690673828 62.52805709838867 112.57255554199219 52.80903625488281 106.59225463867188 48.206478118896484 C 102.26671600341797 47.553443908691406 98.6392822265625 47.86629104614258 90.94528198242188 47.6551513671875 C 88.65670776367188 48.507938385009766 91.28794860839844 51.69743347167969 92.5003662109375 55.76602554321289 C 95.582275390625 59.12467575073242 94.92268371582031 61.25736999511719 81.71212768554688 60.313114166259766" stroke-width="2.0" fill="rgb(252, 194, 27)" opacity="1.0" stroke="rgb(252, 194, 27)" stroke-opacity="1.0" stroke-linecap="round" stroke-linejoin="round"/>
    <path d="M 7.25150728225708 30.31016731262207 C 7.256654262542725 30.313491821289062 7.337800025939941 30.77962875366211 7.454090595245361 30.781835556030273 C 6.98471212387085 28.450347900390625 6.5239949226379395 26.589309692382812 7.996622562408447 26.837265014648438 C 14.316215515136719 25.71832275390625 28.382495880126953 24.687570571899414 38.48031234741211 27.514808654785156 C 34.345062255859375 34.160884857177734 25.273624420166016 41.2197380065918 17.13117218017578 46.22247314453125 C 11.757906913757324 53.37529373168945 10.912431716918945 63.39617919921875 12.743265151977539 72.68070220947266 C 14.185371398925781 78.71906280517578 15.355619430541992 79.65360260009766 15.359304428100586 73.44984436035156 C 13.399105072021484 65.4614486694336 12.19847297668457 62.15635299682617 13.952113151550293 62.243953704833984 C 20.012325286865234 62.569801330566406 34.51801681518555 62.50860595703125 63.802635192871094 62.705406188964844 C 91.6580810546875 62.73966598510742 101.7342300415039 63.10303497314453 105.83354187011719 64.02865600585938 C 110.2476806640625 63.970191955566406 112.45780181884766 62.82331085205078 114.6475830078125 62.08384323120117 C 117.3525390625 63.09023666381836 116.7990951538086 68.45428466796875 112.89871978759766 80.4842758178711 C 107.38856506347656 95.84095001220703 96.33393096923828 105.64545440673828 81.23872375488281 110.44577026367188 C 71.94601440429688 113.05461120605469 63.52220916748047 113.5449447631836 55.085933685302734 113.19586944580078 C 53.373104095458984 114.02008056640625 54.436851501464844 114.61719512939453 59.018802642822266 114.8197021484375 C 70.19148254394531 115.37992095947266 79.25018310546875 114.20831298828125 87.07027435302734 109.73309326171875 C 99.98601531982422 102.6944580078125 108.69293975830078 92.66622161865234 112.34303283691406 80.69963836669922 C 115.68878173828125 72.42041015625 115.97854614257812 63.334476470947266 113.09284973144531 51.63355255126953 C 112.12311553955078 45.44129180908203 110.2364730834961 44.71961975097656 104.11396789550781 43.933372497558594 C 100.47113037109375 40.955780029296875 98.55287170410156 35.93881607055664 94.1856460571289 30.71198081970215 C 92.96614074707031 27.171642303466797 91.21591186523438 26.44163703918457 84.82359313964844 27.019241333007812" stroke-width="2.0" fill="rgb(255, 0, 0)" opacity="1.0" stroke="rgb(255, 0, 0)" stroke-opacity="1.0" stroke-linecap="round" stroke-linejoin="round"/>
    <path d="M 7.11310338973999 28.89536476135254 C 7.1184163093566895 28.898283004760742 7.192014217376709 29.306013107299805 7.278651237487793 29.205829620361328 C 6.841165542602539 27.0205078125 6.605397701263428 25.751550674438477 8.464767456054688 26.86935806274414 C 15.493671417236328 26.266204833984375 30.232378005981445 25.104291915893555 38.905052185058594 27.78203582763672 C 32.31137466430664 34.454105377197266 22.908517837524414 41.38547897338867 15.899627685546875 46.26799774169922 C 11.416171073913574 54.40590286254883 11.07418155670166 65.40508270263672 13.337032318115234 74.6792984008789 C 14.927756309509277 80.37008666992188 16.023134231567383 81.19155883789062 15.882771492004395 75.00772857666016 C 13.674816131591797 66.4609146118164 12.184971809387207 62.41426467895508 13.3584566116333 62.254478454589844 C 18.302352905273438 62.49433135986328 30.922313690185547 62.302955627441406 58.98139572143555 62.660186767578125 C 88.7336654663086 62.63772201538086 100.46214294433594 62.879817962646484 105.08702850341797 63.84722900390625 C 109.80767059326172 64.04044342041016 112.32145690917969 63.068077087402344 114.69466400146484 62.43829345703125 C 117.21894073486328 63.81157684326172 116.29714965820312 69.82286071777344 111.91374969482422 82.56092834472656 C 105.3731460571289 97.93465423583984 93.13883209228516 107.39120483398438 77.87409973144531 111.3722915649414 C 68.88456726074219 113.33796691894531 60.04621505737305 113.37931823730469 52.022708892822266 112.92231750488281 C 50.978355407714844 113.75431823730469 52.71420669555664 114.41142272949219 57.30569839477539 114.62553405761719 C 67.60343170166016 115.30850219726562 76.32598876953125 114.52268981933594 84.71351623535156 110.58110046386719 C 98.3281478881836 104.09151458740234 107.42141723632812 94.23797607421875 111.5433578491211 82.10392761230469 C 115.50518035888672 73.9094467163086 116.05257415771484 65.46121215820312 113.28932189941406 53.33034896850586 C 112.65457153320312 46.15045928955078 111.09745025634766 44.950218200683594 105.23480987548828 44.58713912963867 C 101.6163330078125 42.287017822265625 99.52075958251953 37.16535949707031 94.95516204833984 31.376972198486328 C 93.53498077392578 27.452838897705078 91.5893325805664 26.542205810546875 85.19219970703125 27.056785583496094" stroke-width="2.0" fill="rgb(0, 255, 0)" opacity="1.0" stroke="rgb(0, 255, 0)" stroke-opacity="1.0" stroke-linecap="round" stroke-linejoin="round"/>
    <path d="M 6.339210033416748 42.87113952636719 C 6.338559627532959 42.865962982177734 6.421910285949707 43.239227294921875 6.523011684417725 42.78086853027344 C 6.119537353515625 40.886322021484375 5.983957290649414 42.59321212768555 7.940563678741455 46.568607330322266 C 14.474834442138672 42.82542037963867 24.710458755493164 35.56129455566406 24.66887855529785 33.81394958496094 C 17.289581298828125 37.54020309448242 14.45409107208252 42.50664520263672 13.077282905578613 47.85718536376953 C 11.099185943603516 56.84270095825195 11.563035011291504 69.11998748779297 14.397095680236816 79.00471496582031 C 16.26305389404297 83.7803726196289 17.1468563079834 83.60162353515625 16.841251373291016 78.45954895019531 C 14.624443054199219 70.16919708251953 13.0068941116333 64.04496002197266 13.264016151428223 62.5118522644043 C 15.145038604736328 62.90723419189453 20.887083053588867 63.069766998291016 39.10887908935547 63.09040069580078 C 72.73967742919922 63.5527229309082 95.7129898071289 63.86458969116211 103.81341552734375 63.92743682861328 C 108.87459564208984 63.741634368896484 111.03890991210938 62.924095153808594 112.30335998535156 64.8926773071289 C 113.03240203857422 72.58442687988281 109.0400619506836 84.21245574951172 98.6507339477539 96.98889923095703 C 88.16172790527344 107.42182159423828 78.23451232910156 111.4996109008789 68.9020004272461 112.4186782836914 C 62.64444351196289 112.94473266601562 55.20273208618164 112.38825988769531 49.49737548828125 111.77104187011719 C 50.271759033203125 112.77323150634766 52.808921813964844 113.63826751708984 57.77418899536133 113.90142822265625 C 67.81332397460938 114.6387939453125 76.37185668945312 114.23524475097656 84.66963195800781 111.10124206542969 C 97.5903549194336 105.77228546142578 106.20159912109375 97.2286376953125 110.64020538330078 86.2380599975586 C 115.33566284179688 79.0768814086914 116.43226623535156 71.95744323730469 114.11102294921875 59.6180305480957 C 113.9856185913086 49.70023727416992 113.2366714477539 46.070037841796875 108.46058654785156 45.02846145629883 C 104.96001434326172 44.323326110839844 102.14370727539062 40.47697448730469 96.7487564086914 34.39228057861328 C 94.98933410644531 29.55615234375 92.40277099609375 27.764436721801758 84.9502944946289 26.9418888092041" stroke-width="2.0" fill="rgb(0, 0, 255)" opacity="1.0" stroke="rgb(0, 0, 255)" stroke-opacity="1.0" stroke-linecap="round" stroke-linejoin="round"/>
  </g>
</svg>
