<?xml version="1.0" ?>
<svg xmlns="http://www.w3.org/2000/svg" version="1.1" width="128" height="128">
  <defs/>
  <g>
    <path d="M 85.2926254272461 50.39147186279297 C 85.33816528320312 50.37403106689453 86.01956176757812 50.18083572387695 89.64659881591797 48.99956130981445 C 90.92151641845703 47.38419723510742 77.75143432617188 49.486488342285156 51.27110290527344 53.74153518676758 C 33.80589294433594 56.37537384033203 25.19420623779297 58.54684066772461 19.822093963623047 59.64080810546875 C 17.80052375793457 59.003482818603516 18.880578994750977 56.19704818725586 22.399375915527344 52.0389289855957 C 26.478065490722656 49.24497604370117 31.393077850341797 46.03697967529297 39.307891845703125 39.96737289428711 C 47.23020935058594 34.025028228759766 51.861083984375 30.677642822265625 57.66925811767578 29.04135513305664 C 67.2934341430664 28.49420738220215 76.28780364990234 31.205341339111328 84.91716766357422 37.58620834350586 C 94.31604766845703 47.029014587402344 98.81033325195312 55.762630462646484 94.48836517333984 59.836246490478516 C 77.40110778808594 59.36134719848633 49.607452392578125 58.686038970947266 32.20490264892578 58.96906280517578 C 27.48008918762207 61.4067268371582 28.122989654541016 66.17692565917969 31.061763763427734 74.0595703125 C 33.678985595703125 82.24505615234375 37.34339904785156 87.8355941772461 43.86857604980469 91.71703338623047 C 48.47053527832031 95.04439544677734 52.475772857666016 97.36903381347656 61.42288589477539 98.39380645751953 C 70.02056121826172 98.38656616210938 74.33995819091797 97.04576110839844 79.74176025390625 94.84961700439453 C 85.42999267578125 92.60968017578125 89.2528076171875 87.9859390258789 94.22969055175781 80.13566589355469 C 98.7922592163086 73.16754150390625 98.84033966064453 67.68367767333984 95.64376068115234 61.49371337890625 C 92.89168548583984 56.33559799194336 90.15088653564453 53.87906265258789 88.64876556396484 52.9830207824707 C 90.86326599121094 53.36784362792969 93.27593231201172 54.58118438720703 95.3712158203125 56.46271896362305 C 99.16681671142578 58.48085403442383 100.03369140625 59.55598831176758 98.36414337158203 60.514896392822266 C 99.90235900878906 61.93185806274414 101.04235076904297 62.7022590637207 99.1458740234375 62.51039505004883 C 98.6952896118164 62.316261291503906 97.8446273803711 62.382877349853516 94.92167663574219 60.08668518066406" stroke-width="2.0" fill="rgb(252, 194, 27)" opacity="1.0" stroke="rgb(252, 194, 27)" stroke-opacity="1.0" stroke-linecap="round" stroke-linejoin="round"/>
    <path d="M 100.54971313476562 56.7761344909668 C 100.5979995727539 56.75136947631836 101.69825744628906 60.53944778442383 104.81482696533203 60.7712287902832 C 101.88853454589844 37.79317092895508 84.13609313964844 20.146480560302734 54.584659576416016 23.721660614013672 C 35.95803451538086 30.765649795532227 31.518953323364258 37.56888961791992 27.48572540283203 46.82211685180664 C 23.371322631835938 54.73964309692383 21.46767234802246 59.21046829223633 19.054033279418945 61.4092903137207 C 16.133451461791992 62.76151657104492 15.73400592803955 65.04508209228516 16.73824119567871 68.25629425048828 C 17.160627365112305 70.98485565185547 18.85420799255371 72.45838928222656 21.94953155517578 72.47744750976562 C 23.763835906982422 71.34243774414062 25.002002716064453 69.98387908935547 25.9512882232666 69.9437255859375 C 25.272974014282227 71.39363098144531 24.783740997314453 73.58407592773438 25.5234375 77.69670104980469 C 27.137203216552734 83.61678314208984 30.955472946166992 89.25089263916016 35.91469955444336 93.34954071044922 C 38.953590393066406 96.31255340576172 41.326053619384766 98.32150268554688 45.306827545166016 99.94129180908203 C 48.82094955444336 101.81001281738281 51.69624710083008 103.26408386230469 58.197166442871094 104.18070220947266 C 65.91847229003906 104.91474914550781 69.7857666015625 104.65744018554688 73.05548095703125 103.6705322265625 C 78.2344970703125 102.76561737060547 83.16309356689453 100.50798034667969 89.73988342285156 95.56578826904297 C 96.64147186279297 89.89424133300781 99.83271026611328 85.115966796875 100.54835510253906 81.22866821289062 C 101.93989562988281 78.96490478515625 102.78608703613281 77.45912170410156 102.44617462158203 75.11900329589844 C 102.39190673828125 72.99786376953125 102.48997497558594 72.09373474121094 103.25360107421875 72.13185119628906 C 104.89659881591797 72.64151763916016 106.04585266113281 73.05231475830078 107.99131774902344 72.7978744506836 C 111.0364990234375 71.35444641113281 112.1588363647461 68.60157775878906 111.50886535644531 65.0577392578125 C 111.50946807861328 62.0078125 110.668701171875 60.0984001159668 108.20951843261719 58.98456573486328 C 107.47171020507812 58.944725036621094 107.17015075683594 60.119224548339844 105.96076965332031 60.833885192871094" stroke-width="2.0" fill="rgb(255, 0, 0)" opacity="1.0" stroke="rgb(255, 0, 0)" stroke-opacity="1.0" stroke-linecap="round" stroke-linejoin="round"/>
    <path d="M 101.62618255615234 57.02450942993164 C 101.67695617675781 56.997867584228516 102.83365631103516 61.0035400390625 105.9731216430664 60.95488739013672 C 102.58683776855469 37.32656478881836 84.21636962890625 19.68696403503418 55.533782958984375 22.916704177856445 C 37.15220260620117 29.10903549194336 31.981307983398438 35.18516540527344 27.537220001220703 43.85609817504883 C 23.236957550048828 51.80910873413086 21.177404403686523 57.40217590332031 18.557758331298828 60.4838981628418 C 15.50601863861084 61.78035354614258 14.77943229675293 63.336822509765625 15.435635566711426 65.96965789794922 C 15.777457237243652 69.00345611572266 17.354650497436523 71.83819580078125 20.178529739379883 73.72600555419922 C 21.728729248046875 74.0497817993164 22.884990692138672 73.17047119140625 23.651704788208008 72.99297332763672 C 23.12554931640625 74.65070343017578 23.967754364013672 77.48441314697266 26.378952026367188 81.84550476074219 C 28.94112205505371 87.84355926513672 33.3258056640625 93.15333557128906 38.28913116455078 96.58453369140625 C 40.83481216430664 98.8384017944336 43.1895637512207 100.35359191894531 47.891380310058594 101.85956573486328 C 51.7219123840332 103.70603942871094 54.48649978637695 104.9698257446289 60.60748291015625 105.510498046875 C 67.48499298095703 105.90078735351562 70.51213073730469 105.52340698242188 73.85348510742188 104.40850830078125 C 79.49423217773438 103.29713439941406 84.59574890136719 100.83440399169922 90.49825286865234 96.0591812133789 C 96.33948516845703 91.17081451416016 99.19358825683594 87.08838653564453 100.60167694091797 83.29759979248047 C 102.53407287597656 80.67005157470703 103.51677703857422 78.68745422363281 103.64663696289062 76.10437774658203 C 104.0643310546875 73.97626495361328 104.29540252685547 73.1204833984375 105.0388412475586 73.27474212646484 C 106.68866729736328 73.86902618408203 107.83963012695312 73.9950942993164 109.48652648925781 73.13030242919922 C 112.2353286743164 71.1863021850586 113.2958984375 68.18901062011719 112.4168930053711 64.23787689208984 C 111.85345458984375 60.72414016723633 110.62276458740234 58.78522872924805 108.06462097167969 58.172454833984375 C 107.31504821777344 58.423789978027344 106.8909912109375 59.25590133666992 105.58246612548828 59.57199478149414" stroke-width="2.0" fill="rgb(0, 255, 0)" opacity="1.0" stroke="rgb(0, 255, 0)" stroke-opacity="1.0" stroke-linecap="round" stroke-linejoin="round"/>
    <path d="M 100.98046112060547 54.155296325683594 C 101.03093719482422 54.13881301879883 102.38076782226562 58.170955657958984 105.48509216308594 57.5670051574707 C 101.2501449584961 35.025238037109375 82.09059143066406 19.506093978881836 55.7117805480957 22.646495819091797 C 39.777870178222656 27.579771041870117 34.93577194213867 32.2775993347168 29.79073143005371 39.63969802856445 C 24.979732513427734 46.1470832824707 22.979869842529297 51.87409591674805 19.84572982788086 56.30596160888672 C 16.035106658935547 59.28164291381836 15.016749382019043 61.63637924194336 15.420699119567871 63.643218994140625 C 15.208297729492188 66.3561019897461 16.494070053100586 69.96116638183594 19.52984619140625 72.76799774169922 C 21.721397399902344 73.75379943847656 23.327701568603516 73.38182830810547 24.288244247436523 73.5466079711914 C 23.828086853027344 75.45569610595703 24.692140579223633 78.71475982666016 27.277706146240234 83.56558990478516 C 30.510433197021484 89.77852630615234 35.381309509277344 94.73429107666016 40.22714614868164 97.8189697265625 C 42.55356216430664 99.96623229980469 44.97688674926758 101.45162200927734 49.62895965576172 102.84943389892578 C 53.441925048828125 104.43631744384766 56.315364837646484 105.3094253540039 61.73112487792969 105.49398040771484 C 67.59354400634766 105.76631927490234 70.83717346191406 105.27962493896484 75.2087631225586 103.93952178955078 C 81.15509796142578 102.76205444335938 85.380615234375 100.5262222290039 89.67899322509766 96.6350326538086 C 94.47472381591797 93.27144622802734 97.24072265625 90.02339172363281 99.01364135742188 86.0860595703125 C 101.4497299194336 83.02871704101562 102.87904357910156 80.30702209472656 103.26412200927734 77.10169219970703 C 103.95721435546875 74.8879623413086 104.31767272949219 74.1197738647461 105.16807556152344 74.0597152709961 C 107.50455474853516 74.09402465820312 109.19767761230469 73.4029769897461 110.72822570800781 71.63063049316406 C 113.25865936279297 68.95118713378906 113.7479248046875 65.34101867675781 111.71830749511719 61.27952575683594 C 110.23649597167969 58.673465728759766 108.42391967773438 57.96315002441406 105.39408111572266 57.78615951538086 C 104.74330139160156 57.522071838378906 104.8120346069336 57.53199005126953 104.02578735351562 56.1246452331543" stroke-width="2.0" fill="rgb(0, 0, 255)" opacity="1.0" stroke="rgb(0, 0, 255)" stroke-opacity="1.0" stroke-linecap="round" stroke-linejoin="round"/>
  </g>
</svg>
