<?xml version="1.0" ?>
<svg xmlns="http://www.w3.org/2000/svg" version="1.1" width="128" height="128">
  <defs/>
  <g>
    <path d="M 86.43180847167969 25.66297721862793 C 86.467529296875 25.628948211669922 86.10066223144531 24.871322631835938 87.97180938720703 23.747594833374023 C 93.70907592773438 25.256662368774414 95.92850494384766 33.13981246948242 91.93988037109375 44.05878448486328 C 90.45814514160156 47.479427337646484 76.07759094238281 47.2204475402832 40.89512634277344 48.65264129638672 C 25.50715446472168 56.69624328613281 27.58172607421875 67.0968017578125 33.691184997558594 73.02256774902344 C 38.16801452636719 77.7540054321289 42.04771423339844 81.02598571777344 44.14002990722656 80.0090560913086 C 42.35560989379883 75.11886596679688 39.13153839111328 67.31092834472656 36.39365005493164 58.361915588378906 C 34.44635772705078 53.895362854003906 37.39286422729492 53.929683685302734 50.38063430786133 54.09547805786133 C 71.13211059570312 54.71982955932617 86.32847595214844 56.968135833740234 92.36067199707031 58.84033966064453 C 93.61144256591797 59.593406677246094 90.34807586669922 61.67640686035156 82.20317840576172 68.13227081298828 C 73.47758483886719 77.277587890625 70.13419342041016 87.17628479003906 71.5082015991211 95.89260864257812 C 73.40210723876953 101.51541900634766 74.46267700195312 104.33919525146484 75.70480346679688 106.22494506835938 C 76.33738708496094 107.94610595703125 76.19084167480469 108.63394165039062 76.3216323852539 108.32444763183594 C 76.13719177246094 107.77689361572266 75.44954681396484 106.48851776123047 74.61327362060547 104.00100708007812 C 73.05659484863281 100.75196075439453 71.52864837646484 96.43358612060547 71.3685302734375 90.41400146484375 C 72.61241149902344 83.4876480102539 75.2581787109375 76.24835968017578 80.06244659423828 70.01576232910156 C 84.31099700927734 67.87533569335938 85.48651123046875 70.63089752197266 84.58092498779297 75.91098022460938 C 84.11761474609375 81.62128448486328 84.72966766357422 84.6243896484375 85.25557708740234 83.52836608886719 C 86.42276000976562 80.71737670898438 88.29248046875 77.91206359863281 91.22240447998047 75.78040313720703 C 96.37776947021484 74.77156829833984 99.45189666748047 71.15619659423828 99.36195373535156 62.36886215209961 C 100.10595703125 54.538116455078125 97.81185150146484 53.91291809082031 91.5859146118164 56.8576545715332" stroke-width="2.0" fill="rgb(252, 194, 27)" opacity="1.0" stroke="rgb(252, 194, 27)" stroke-opacity="1.0" stroke-linecap="round" stroke-linejoin="round"/>
    <path d="M 82.54582977294922 18.007543563842773 C 82.54933166503906 17.995468139648438 82.00104522705078 17.57290267944336 82.53752136230469 17.195659637451172 C 86.0713119506836 17.705427169799805 89.67684936523438 19.4765682220459 94.55386352539062 23.80684471130371 C 101.7939224243164 32.69350814819336 99.86339569091797 45.51118850708008 83.44023895263672 53.153873443603516 C 65.99492645263672 51.411651611328125 50.00896072387695 49.96934127807617 37.608768463134766 53.68793869018555 C 37.840877532958984 62.93538284301758 43.74169921875 70.0622787475586 45.91202926635742 71.42399597167969 C 45.76158142089844 70.49371337890625 46.96320343017578 68.13802337646484 49.173255920410156 64.62525939941406 C 51.13675308227539 62.589874267578125 51.52013397216797 63.681297302246094 50.60356903076172 68.61151123046875 C 50.67708969116211 76.1838150024414 52.65926742553711 83.87701416015625 55.86785888671875 90.75723266601562 C 57.61540603637695 96.5328369140625 56.23531723022461 101.70454406738281 53.92154312133789 106.39789581298828 C 52.654998779296875 109.99319458007812 52.18785095214844 112.13033294677734 51.81695556640625 113.33525085449219 C 51.371524810791016 113.93649291992188 51.77671813964844 113.72864532470703 54.28498077392578 113.0355453491211 C 58.69506072998047 112.70381164550781 65.453125 112.68861389160156 73.22078704833984 112.92993927001953 C 77.373046875 113.36177825927734 77.76483154296875 112.93159484863281 76.48126220703125 111.07560729980469 C 74.48965454101562 108.41087341308594 72.74105072021484 104.93738555908203 71.00579833984375 100.27394104003906 C 70.20500946044922 95.2811050415039 72.46725463867188 89.844482421875 75.47460174560547 82.74322509765625 C 76.21420288085938 75.39350891113281 76.07302856445312 71.34393310546875 76.55291748046875 70.13497924804688 C 77.48436737060547 69.13004302978516 78.35526275634766 67.32952880859375 79.27355194091797 66.8733139038086 C 81.09329986572266 69.03800201416016 83.3021011352539 70.8285903930664 86.40925598144531 69.54398345947266 C 90.91350555419922 65.3215103149414 91.5334243774414 60.54795455932617 86.9009017944336 58.2956657409668 C 83.48548126220703 58.54167175292969 80.3334732055664 58.06947708129883 78.04716491699219 51.79054260253906" stroke-width="2.0" fill="rgb(255, 0, 0)" opacity="1.0" stroke="rgb(255, 0, 0)" stroke-opacity="1.0" stroke-linecap="round" stroke-linejoin="round"/>
    <path d="M 84.48883056640625 18.631093978881836 C 84.4954833984375 18.60944366455078 83.89122009277344 18.1219539642334 84.46650695800781 17.67704200744629 C 88.64765167236328 18.239282608032227 93.28695678710938 20.317367553710938 97.49175262451172 26.470605850219727 C 101.9776611328125 37.94902801513672 96.85314178466797 51.24290084838867 74.061279296875 57.228694915771484 C 49.890838623046875 55.10538101196289 38.622520446777344 54.70441818237305 35.64728927612305 59.599769592285156 C 38.838233947753906 68.19889831542969 43.718910217285156 73.66690063476562 45.13008117675781 75.11026000976562 C 44.51694869995117 74.96790313720703 45.50847244262695 73.11548614501953 47.56976318359375 69.66179656982422 C 49.570037841796875 66.89823150634766 50.7896728515625 66.64555358886719 50.4891471862793 70.06591033935547 C 50.29444885253906 76.93693542480469 52.058753967285156 84.59949493408203 55.34825897216797 91.5848617553711 C 57.191402435302734 97.3509292602539 55.79343795776367 102.41812896728516 53.321861267089844 106.91529083251953 C 51.970516204833984 110.34231567382812 51.516632080078125 112.473388671875 51.22685623168945 113.76861572265625 C 50.8259162902832 114.40438842773438 51.309932708740234 114.18986511230469 54.38550567626953 113.5374526977539 C 59.859249114990234 113.31721496582031 67.22159576416016 113.36100006103516 74.52716064453125 113.68988037109375 C 78.2164535522461 114.16828918457031 78.41075134277344 113.69446563720703 77.13719177246094 111.7480239868164 C 75.40325164794922 108.97407531738281 73.83748626708984 105.37203216552734 71.9162368774414 100.59862518310547 C 70.5953598022461 95.5931167602539 72.63436126708984 90.04414367675781 75.9487075805664 82.66130065917969 C 77.20500946044922 74.6412353515625 77.61846160888672 69.39984130859375 78.6377944946289 68.0741195678711 C 80.28520965576172 68.57572174072266 81.89411163330078 69.65433502197266 82.50566101074219 71.99137878417969 C 83.17416381835938 74.69110107421875 84.95207977294922 74.93098449707031 88.2193603515625 71.9005355834961 C 92.92495727539062 66.6319580078125 94.19871520996094 60.96460723876953 90.66630554199219 57.723785400390625 C 87.53362274169922 57.624183654785156 83.09762573242188 59.14448165893555 77.45781707763672 57.2823600769043" stroke-width="2.0" fill="rgb(0, 255, 0)" opacity="1.0" stroke="rgb(0, 255, 0)" stroke-opacity="1.0" stroke-linecap="round" stroke-linejoin="round"/>
    <path d="M 88.41133880615234 21.895963668823242 C 88.42449188232422 21.858304977416992 87.95310974121094 21.22978973388672 89.24710845947266 20.339393615722656 C 94.9895248413086 21.099655151367188 99.111328125 26.636451721191406 97.34713745117188 37.83637619018555 C 95.97659301757812 49.67759323120117 85.40631103515625 57.6906852722168 50.90773391723633 56.38047790527344 C 28.03813362121582 55.90202331542969 27.083721160888672 62.445838928222656 32.130367279052734 68.77487182617188 C 37.11723709106445 75.35265350341797 42.18586730957031 80.44918060302734 44.23492431640625 82.38011169433594 C 43.271514892578125 82.85574340820312 43.481773376464844 81.78502655029297 43.89410400390625 78.10552978515625 C 44.02656173706055 73.60102844238281 46.502323150634766 69.84979248046875 49.68156814575195 67.8393783569336 C 50.51840591430664 69.57849884033203 50.410709381103516 75.9275131225586 52.64923858642578 84.42700958251953 C 56.6511116027832 92.14630889892578 57.46880340576172 97.75038146972656 54.70359802246094 102.62841796875 C 52.77326583862305 106.97331237792969 52.65927505493164 109.98626708984375 52.63166809082031 111.92594146728516 C 51.811195373535156 112.92225646972656 53.553863525390625 112.86356353759766 61.34736633300781 112.69867706298828 C 70.34072875976562 113.04742431640625 74.90593719482422 113.51927947998047 76.95023345947266 113.81053161621094 C 77.61217498779297 113.80154418945312 77.27192687988281 112.57796478271484 76.7529525756836 110.0090560913086 C 75.28644561767578 106.85945892333984 73.2302474975586 102.82654571533203 71.65338897705078 97.48603057861328 C 71.88216400146484 91.56241607666016 74.64656066894531 84.5071792602539 76.95848846435547 76.15483093261719 C 77.82548522949219 70.35372161865234 80.2499771118164 69.8071060180664 83.45276641845703 73.716552734375 C 84.43008422851562 79.2339096069336 84.28699493408203 82.6075439453125 84.6628646850586 82.7072525024414 C 85.77069091796875 80.81619262695312 87.69181823730469 77.85767364501953 91.78777313232422 75.034912109375 C 97.92731475830078 71.92276000976562 100.24449157714844 65.14127349853516 98.57869720458984 56.72810363769531 C 97.98725128173828 53.146602630615234 94.5767593383789 55.60224914550781 86.08645629882812 58.9690055847168" stroke-width="2.0" fill="rgb(0, 0, 255)" opacity="1.0" stroke="rgb(0, 0, 255)" stroke-opacity="1.0" stroke-linecap="round" stroke-linejoin="round"/>
  </g>
</svg>
