<?xml version="1.0" ?>
<svg xmlns="http://www.w3.org/2000/svg" version="1.1" width="128" height="128">
  <defs/>
  <g>
    <path d="M 63.7755241394043 28.090829849243164 C 63.78120803833008 28.0737247467041 63.40533447265625 27.76597785949707 63.66994094848633 27.34457778930664 C 66.68169403076172 27.882112503051758 70.82341766357422 30.50372314453125 75.35202026367188 35.16282653808594 C 80.31485748291016 39.6301155090332 77.08589935302734 43.72098159790039 63.259193420410156 46.22896194458008 C 50.81177520751953 44.9144172668457 43.159324645996094 44.71971893310547 36.70573806762695 48.69932174682617 C 34.41617965698242 53.477848052978516 37.630855560302734 55.380653381347656 42.62180709838867 56.66132354736328 C 47.137569427490234 60.03651809692383 52.87779235839844 65.44886779785156 58.53202819824219 70.5903549194336 C 61.25149154663086 73.92582702636719 60.54551696777344 75.84862518310547 57.918277740478516 77.29180145263672 C 55.06376266479492 78.6550521850586 52.81340789794922 80.38105010986328 50.99045181274414 83.0970687866211 C 49.05284881591797 86.56449890136719 47.56666946411133 89.56098175048828 46.151649475097656 91.64537048339844 C 44.47567367553711 93.20905303955078 44.592491149902344 94.34442138671875 47.0863151550293 95.32218933105469 C 48.93723678588867 96.4810562133789 50.53099060058594 97.4469223022461 54.39716339111328 98.298828125 C 58.31822204589844 99.32877349853516 61.81409454345703 99.77909851074219 66.98068237304688 99.45478057861328 C 71.5785903930664 99.21029663085938 74.48279571533203 98.35237121582031 77.49955749511719 96.3183364868164 C 80.30660247802734 94.18870544433594 81.92231750488281 91.95587158203125 82.94671630859375 88.84819030761719 C 83.19766998291016 85.72702026367188 81.6164779663086 83.15818786621094 78.4612045288086 81.30195617675781 C 76.11245727539062 80.74971008300781 75.49613189697266 80.73306274414062 75.51969146728516 80.73941040039062 C 75.2023696899414 81.41414642333984 73.62638092041016 82.56755065917969 71.45142364501953 83.06786346435547 C 69.77104949951172 81.94042205810547 67.01673126220703 78.87738037109375 62.50292205810547 73.61673736572266 C 57.18672561645508 66.18938446044922 49.68694305419922 60.04633331298828 42.30955123901367 57.554420471191406 C 38.61772155761719 57.57769775390625 36.02959060668945 56.83840560913086 35.235748291015625 51.8807487487793" stroke-width="2.0" fill="rgb(252, 194, 27)" opacity="1.0" stroke="rgb(252, 194, 27)" stroke-opacity="1.0" stroke-linecap="round" stroke-linejoin="round"/>
    <path d="M 74.95104217529297 42.37714767456055 C 74.95416259765625 42.328556060791016 74.7602310180664 42.03886413574219 74.96417236328125 41.768436431884766 C 76.3434829711914 43.3198127746582 78.03512573242188 47.428443908691406 81.82051086425781 51.523590087890625 C 85.91170501708984 51.499080657958984 74.62216186523438 50.83011245727539 48.06744384765625 51.42204284667969 C 34.55241775512695 54.23170852661133 32.95161437988281 58.88913345336914 32.801612854003906 63.72954177856445 C 33.27561950683594 68.46894836425781 35.094635009765625 71.6507339477539 37.48349380493164 74.20709991455078 C 40.22108840942383 76.57891082763672 43.98640823364258 78.08543395996094 47.56373977661133 78.5391616821289 C 50.03689956665039 78.73125457763672 51.8986930847168 78.88917541503906 52.954036712646484 79.33409881591797 C 52.92704772949219 80.39798736572266 52.495147705078125 82.05636596679688 51.58156204223633 84.6004638671875 C 49.68189239501953 87.5482177734375 48.05866241455078 89.9258804321289 47.12849044799805 91.76861572265625 C 46.00033950805664 93.39076232910156 46.601341247558594 94.58145141601562 50.345436096191406 95.71855163574219 C 53.794281005859375 96.99267578125 56.507938385009766 97.83637237548828 61.38884353637695 98.13066101074219 C 66.05165100097656 98.45836639404297 68.28081512451172 98.25774383544922 72.03887939453125 97.28697967529297 C 76.86859893798828 96.42710876464844 80.11409759521484 95.016357421875 83.92156219482422 92.67115783691406 C 87.91494750976562 90.619384765625 89.97540283203125 88.202880859375 92.12996673583984 84.52471923828125 C 94.95111083984375 81.88314819335938 95.34100341796875 81.13378143310547 93.7818832397461 80.4272689819336 C 92.73062133789062 79.46611022949219 91.12958526611328 78.56412506103516 89.04814910888672 77.4073257446289 C 88.64630126953125 76.15785217285156 89.22157287597656 75.03865814208984 89.90803527832031 73.92950439453125 C 91.067626953125 72.7267837524414 91.88308715820312 70.83161926269531 92.19412994384766 67.3140640258789 C 93.06573486328125 62.41010284423828 92.1634521484375 57.29185485839844 87.46623992919922 53.33053207397461 C 82.73515319824219 51.427001953125 78.83160400390625 51.946353912353516 73.95216369628906 53.24253845214844" stroke-width="2.0" fill="rgb(255, 0, 0)" opacity="1.0" stroke="rgb(255, 0, 0)" stroke-opacity="1.0" stroke-linecap="round" stroke-linejoin="round"/>
    <path d="M 75.82266235351562 43.25590896606445 C 75.83599853515625 43.21131134033203 75.6294937133789 42.97462844848633 75.83316802978516 42.75273513793945 C 77.34343719482422 44.2529411315918 79.2016372680664 48.300045013427734 82.89360809326172 51.916500091552734 C 85.44502258300781 50.560298919677734 71.10394287109375 48.93907928466797 44.411224365234375 50.371089935302734 C 33.05293273925781 54.788700103759766 32.36416244506836 59.84026336669922 32.62765884399414 64.72338104248047 C 33.18251037597656 69.32157135009766 34.91238784790039 72.27235412597656 37.34104919433594 74.68431091308594 C 40.046905517578125 76.93637084960938 43.65792465209961 78.31087493896484 47.25778579711914 78.60645294189453 C 49.910308837890625 78.63492584228516 51.88827896118164 78.63848114013672 52.97372055053711 78.97883605957031 C 52.945072174072266 80.0469741821289 52.53964614868164 81.76580047607422 51.67142868041992 84.37653350830078 C 49.80885314941406 87.40821838378906 48.13831329345703 89.90369415283203 47.04039764404297 91.85940551757812 C 45.7743034362793 93.57559967041016 46.37256622314453 94.81941986083984 50.2349739074707 95.98648071289062 C 53.89209747314453 97.31529235839844 56.9140625 98.17919158935547 62.031063079833984 98.41354370117188 C 66.74166870117188 98.68574523925781 68.97672271728516 98.4462661743164 72.75996398925781 97.44868469238281 C 77.39817810058594 96.5547866821289 80.49320220947266 95.1037368774414 84.33627319335938 92.62142181396484 C 88.45506286621094 90.30342102050781 90.6031494140625 87.71651458740234 92.62017822265625 84.10366821289062 C 95.29476165771484 81.61676788330078 95.7341537475586 80.98226928710938 94.14925384521484 80.34811401367188 C 92.91754913330078 79.44083404541016 91.15601348876953 78.64031982421875 89.03556060791016 77.61206817626953 C 88.81171417236328 76.39801025390625 89.55814361572266 75.16883087158203 90.41242980957031 73.7401123046875 C 91.78956604003906 72.19340515136719 92.5240249633789 70.22623443603516 92.63997650146484 67.10211944580078 C 93.50963592529297 62.667179107666016 92.55874633789062 57.77768325805664 87.78241729736328 53.251609802246094 C 83.32083129882812 50.1859016418457 79.55084228515625 49.984806060791016 74.18342590332031 51.342071533203125" stroke-width="2.0" fill="rgb(0, 255, 0)" opacity="1.0" stroke="rgb(0, 255, 0)" stroke-opacity="1.0" stroke-linecap="round" stroke-linejoin="round"/>
    <path d="M 74.25299072265625 38.83485794067383 C 74.2630386352539 38.78368377685547 74.04254913330078 38.41729736328125 74.59422302246094 37.61662292480469 C 76.50101470947266 38.684226989746094 77.95111083984375 44.46844482421875 80.84453582763672 51.2932243347168 C 83.6880874633789 50.31146240234375 70.9024429321289 47.262508392333984 45.414794921875 48.02703857421875 C 34.18315505981445 51.99256896972656 33.31003952026367 56.848575592041016 32.26370620727539 62.14932632446289 C 32.0502815246582 68.0663070678711 34.08984375 71.99846649169922 36.55502700805664 74.6402816772461 C 38.74207305908203 77.07604217529297 42.255348205566406 78.68949127197266 45.999053955078125 79.13230895996094 C 48.49518585205078 79.1538314819336 50.61867904663086 79.00625610351562 52.32080841064453 79.01830291748047 C 52.700252532958984 79.76934814453125 52.21854782104492 81.3278579711914 51.07686996459961 84.0736083984375 C 49.004913330078125 87.43962860107422 47.108116149902344 90.19816589355469 45.856929779052734 92.28661346435547 C 44.71487045288086 93.9903335571289 45.33613967895508 95.12214660644531 48.977420806884766 96.12053680419922 C 52.64079284667969 97.42395782470703 55.938758850097656 98.4260025024414 61.44744873046875 98.86581420898438 C 66.46902465820312 99.20335388183594 68.91177368164062 98.96027374267578 72.82593536376953 97.96639251708984 C 77.4464111328125 97.11915588378906 80.46360778808594 95.68146514892578 84.46856689453125 93.02198791503906 C 88.9178466796875 90.4106674194336 91.27706909179688 87.69956970214844 93.27055358886719 84.14374542236328 C 95.75422668457031 81.40306091308594 95.76580047607422 80.24616241455078 93.26375579833984 79.33599853515625 C 91.21881866455078 78.35523223876953 89.66110229492188 77.45836639404297 88.38075256347656 76.26947784423828 C 88.7196273803711 74.9544906616211 89.7610092163086 73.64253234863281 90.90779113769531 72.24980163574219 C 92.46338653564453 70.83600616455078 93.24630737304688 68.78372955322266 93.15586853027344 65.27008056640625 C 93.43797302246094 60.33415222167969 91.3537826538086 55.38618469238281 85.22354125976562 51.18233108520508 C 79.60188293457031 48.43913650512695 74.28472137451172 48.24225616455078 66.600830078125 49.57033157348633" stroke-width="2.0" fill="rgb(0, 0, 255)" opacity="1.0" stroke="rgb(0, 0, 255)" stroke-opacity="1.0" stroke-linecap="round" stroke-linejoin="round"/>
  </g>
</svg>
