<?xml version="1.0" ?>
<svg xmlns="http://www.w3.org/2000/svg" version="1.1" width="128" height="128">
  <defs/>
  <g>
    <path d="M 88.91056823730469 36.292564392089844 C 88.96904754638672 36.25972366333008 88.87218475341797 35.94480514526367 89.70635223388672 35.14661407470703 C 91.61381530761719 35.690452575683594 93.84774017333984 41.53363037109375 98.72513580322266 47.34239959716797 C 100.21451568603516 41.818206787109375 75.90315246582031 37.55366134643555 34.17790222167969 41.07380676269531 C 21.85394859313965 52.633052825927734 22.26599884033203 62.271751403808594 23.37351417541504 62.40568161010742 C 23.879302978515625 56.771995544433594 26.167558670043945 51.65193176269531 30.282711029052734 49.39583206176758 C 35.61783218383789 48.597801208496094 45.097049713134766 48.78678894042969 57.1369743347168 49.4409294128418 C 64.81697845458984 52.11711502075195 66.31592559814453 62.272804260253906 62.76201248168945 77.39479064941406 C 57.779571533203125 87.33808898925781 50.790382385253906 90.82243347167969 39.701019287109375 90.72996520996094 C 29.460969924926758 90.33556365966797 25.289770126342773 91.60707092285156 25.379751205444336 94.50979614257812 C 25.95847511291504 97.22052764892578 27.820383071899414 98.64256286621094 32.70588302612305 99.13324737548828 C 37.334991455078125 99.27178192138672 42.07890701293945 99.0108642578125 53.49753189086914 98.84520721435547 C 69.35414123535156 99.32384490966797 81.8804931640625 99.30854797363281 91.36559295654297 98.89856719970703 C 98.24456787109375 98.17497253417969 101.12450408935547 95.73662567138672 101.78620147705078 92.16825866699219 C 99.58123016357422 90.61603546142578 92.43846893310547 90.67743682861328 82.18326568603516 90.3247299194336 C 71.34149932861328 90.42564392089844 60.512454986572266 90.50701904296875 52.59426498413086 90.5071029663086 C 50.503265380859375 90.68305969238281 53.80785369873047 88.7493667602539 60.983978271484375 82.64713287353516 C 67.28166198730469 73.16948699951172 67.69790649414062 63.12477493286133 64.22842407226562 55.37527847290039 C 60.68912887573242 51.1014404296875 59.70730209350586 49.66169357299805 66.6130142211914 49.4933967590332 C 80.42256927490234 49.472862243652344 90.09207153320312 49.46285629272461 94.986572265625 49.80563735961914 C 99.48963165283203 49.03034210205078 99.52883911132812 46.309871673583984 94.13806915283203 41.65952682495117" stroke-width="2.0" fill="rgb(252, 194, 27)" opacity="1.0" stroke="rgb(252, 194, 27)" stroke-opacity="1.0" stroke-linecap="round" stroke-linejoin="round"/>
    <path d="M 103.18794250488281 51.57902526855469 C 103.2326431274414 51.50473403930664 103.2602310180664 52.151145935058594 104.1447982788086 51.830326080322266 C 105.65630340576172 49.458106994628906 106.35938262939453 49.97826385498047 101.26371765136719 42.05024337768555 C 85.42626190185547 23.72171401977539 59.92311477661133 22.26572608947754 37.53564453125 31.930179595947266 C 29.403728485107422 36.665740966796875 29.46457862854004 39.592227935791016 27.753557205200195 44.745391845703125 C 24.585247039794922 47.370357513427734 24.31825065612793 48.65196228027344 24.40888214111328 50.67805099487305 C 24.013721466064453 51.31840133666992 25.832763671875 50.96550750732422 27.033069610595703 53.71046447753906 C 25.327205657958984 62.36808776855469 24.61518669128418 73.7630386352539 24.424352645874023 83.51043701171875 C 23.27659034729004 90.03276824951172 22.64699935913086 94.13609313964844 22.407625198364258 97.48052215576172 C 22.375503540039062 99.96060180664062 24.168943405151367 101.0462646484375 27.53985595703125 101.3003158569336 C 30.367870330810547 101.51168060302734 33.645755767822266 101.5202407836914 39.08586502075195 101.36032104492188 C 45.81953811645508 101.4543685913086 56.60706329345703 101.63153076171875 72.55663299560547 101.62385559082031 C 84.59994506835938 101.658935546875 90.1263656616211 101.69182586669922 94.74674987792969 101.5717544555664 C 99.19701385498047 101.803955078125 101.4892578125 101.85139465332031 102.8537826538086 101.44995880126953 C 104.77216339111328 101.05661010742188 105.89779663085938 99.69390106201172 105.83907318115234 96.73534393310547 C 105.3797836303711 93.58037567138672 104.46713256835938 89.91930389404297 103.41323852539062 84.10204315185547 C 102.93949127197266 77.09935760498047 102.7978744506836 70.19295501708984 103.55874633789062 64.35859680175781 C 105.21345520019531 61.35729217529297 105.84626007080078 60.597900390625 105.22669219970703 60.32021713256836 C 104.18574523925781 60.273231506347656 102.02392578125 60.49314498901367 99.58038330078125 59.66257858276367 C 99.53042602539062 57.15657043457031 100.0840072631836 54.59049987792969 99.4237060546875 52.10139083862305 C 99.52487182617188 48.69391632080078 98.83332824707031 45.39155960083008 96.66266632080078 41.779747009277344" stroke-width="2.0" fill="rgb(255, 0, 0)" opacity="1.0" stroke="rgb(255, 0, 0)" stroke-opacity="1.0" stroke-linecap="round" stroke-linejoin="round"/>
    <path d="M 103.53303527832031 51.550113677978516 C 103.57618713378906 51.48149871826172 103.59777069091797 52.09608840942383 104.43766784667969 51.80055618286133 C 105.86288452148438 49.52938461303711 106.70526123046875 50.3245849609375 102.3065185546875 42.63279342651367 C 87.25214385986328 23.78774642944336 61.579586029052734 21.532468795776367 38.39089584350586 30.8857421875 C 29.57145881652832 35.55080032348633 29.294172286987305 38.474937438964844 27.60211753845215 43.61594009399414 C 24.529504776000977 46.167598724365234 24.19144630432129 47.75217056274414 24.048721313476562 50.10232925415039 C 23.518390655517578 50.84109878540039 24.924970626831055 50.65973663330078 25.80006217956543 53.72954177856445 C 24.5175724029541 63.11794662475586 24.287391662597656 75.18525695800781 23.963756561279297 84.79645538330078 C 22.40267562866211 90.85025024414062 21.849401473999023 94.79228973388672 22.110790252685547 98.24732971191406 C 22.561786651611328 100.81352233886719 24.59634017944336 102.0108413696289 27.95665740966797 102.24563598632812 C 30.62824058532715 102.4483413696289 33.79520034790039 102.4604263305664 39.4090690612793 102.34902954101562 C 46.33476638793945 102.46510314941406 56.703407287597656 102.5694580078125 71.88276672363281 102.45043182373047 C 83.55555725097656 102.47734069824219 89.16283416748047 102.55616760253906 93.9884033203125 102.52063751220703 C 98.57778930664062 102.74443817138672 101.00952911376953 102.7255630493164 102.52478790283203 102.26927947998047 C 104.50533294677734 101.80448150634766 105.71324920654297 100.18775177001953 105.91940307617188 96.86038970947266 C 105.5448989868164 93.35688018798828 104.487548828125 89.40157318115234 103.58240509033203 83.38272094726562 C 103.37040710449219 76.26789093017578 103.28917694091797 69.64960479736328 104.09847259521484 64.48301696777344 C 105.71620178222656 61.808433532714844 106.23983001708984 60.89675521850586 105.35894012451172 60.43305969238281 C 103.9017333984375 60.32429504394531 101.4253158569336 60.45457077026367 98.90425872802734 59.502784729003906 C 99.02312469482422 56.937252044677734 99.99137115478516 54.60161209106445 99.92110443115234 52.30253219604492 C 100.46253967285156 48.69923782348633 99.66854858398438 44.906864166259766 96.89604187011719 41.0136604309082" stroke-width="2.0" fill="rgb(0, 255, 0)" opacity="1.0" stroke="rgb(0, 255, 0)" stroke-opacity="1.0" stroke-linecap="round" stroke-linejoin="round"/>
    <path d="M 101.55306243896484 49.16789245605469 C 101.5914535522461 49.143184661865234 102.35385131835938 51.1814079284668 105.42460632324219 51.40559768676758 C 105.1597671508789 38.709712982177734 91.37417602539062 26.356964111328125 62.40998458862305 25.00521469116211 C 43.46702575683594 26.749696731567383 37.19328689575195 30.553491592407227 30.974475860595703 35.95058059692383 C 26.892444610595703 38.161590576171875 26.7692928314209 40.425071716308594 25.0819149017334 44.59473419189453 C 22.191740036010742 47.35549545288086 21.9844913482666 49.05458068847656 23.045333862304688 50.72441482543945 C 24.000158309936523 51.17206573486328 25.22442054748535 52.25780487060547 24.7552433013916 59.758201599121094 C 23.989295959472656 71.99195861816406 24.014389038085938 81.40607452392578 23.016468048095703 87.716064453125 C 21.21042251586914 92.65110778808594 21.116350173950195 96.58683013916016 22.089736938476562 99.75663757324219 C 23.080726623535156 101.87969970703125 25.63117027282715 102.7186050415039 29.39786148071289 102.71040344238281 C 32.092491149902344 102.7359848022461 35.147796630859375 102.64470672607422 41.074337005615234 102.52134704589844 C 47.97688674926758 102.68875885009766 57.09950637817383 102.78275299072266 70.9393310546875 102.62645721435547 C 82.45352935791016 102.76414489746094 88.25656127929688 102.8829345703125 93.20865631103516 102.6979751586914 C 98.02283477783203 102.84465789794922 100.6488265991211 102.90796661376953 102.28180694580078 102.46782684326172 C 104.35858154296875 102.0387954711914 105.66230773925781 100.77482604980469 106.04942321777344 98.09222412109375 C 106.41960906982422 95.27686309814453 105.9891586303711 92.25700378417969 104.6224365234375 87.82460021972656 C 103.68268585205078 82.46955871582031 103.65452575683594 75.92391967773438 103.83369445800781 68.40463256835938 C 104.3906021118164 63.07412338256836 104.89022827148438 61.18251037597656 104.5552978515625 60.478431701660156 C 103.1168212890625 60.08942794799805 100.42678833007812 60.01076126098633 98.17764282226562 58.74744415283203 C 98.63842010498047 55.921043395996094 100.21406555175781 53.9322395324707 101.98831176757812 52.46009063720703 C 104.1756362915039 48.74100112915039 102.80865478515625 43.62693786621094 96.56494140625 39.240936279296875" stroke-width="2.0" fill="rgb(0, 0, 255)" opacity="1.0" stroke="rgb(0, 0, 255)" stroke-opacity="1.0" stroke-linecap="round" stroke-linejoin="round"/>
  </g>
</svg>
