<?xml version="1.0" ?>
<svg xmlns="http://www.w3.org/2000/svg" version="1.1" width="128" height="128">
  <defs/>
  <g>
    <path d="M 63.778114318847656 43.39326477050781 C 63.787025451660156 43.35768508911133 65.16877746582031 43.64501190185547 68.03572082519531 42.53779983520508 C 63.07759094238281 40.40988540649414 47.185638427734375 41.738277435302734 33.79855728149414 45.788509368896484 C 27.734310150146484 47.51158142089844 24.41147232055664 49.724666595458984 20.92677879333496 53.83331298828125 C 18.29691505432129 56.77779769897461 17.505632400512695 58.95973205566406 17.36301040649414 62.04296112060547 C 17.087112426757812 64.91275024414062 18.149118423461914 66.8469009399414 20.23898696899414 68.70086669921875 C 21.288185119628906 70.69416046142578 21.093244552612305 72.541259765625 19.73618507385254 74.74842071533203 C 17.579280853271484 77.43302154541016 16.475223541259766 79.73377990722656 16.707443237304688 82.38542938232422 C 17.699615478515625 85.84660339355469 20.11332130432129 89.15318298339844 23.736343383789062 91.78608703613281 C 27.79817008972168 94.05622863769531 32.59986877441406 95.76323699951172 37.33864974975586 96.64859771728516 C 40.15883255004883 97.41139221191406 42.956764221191406 98.1573257446289 49.29079055786133 98.84425354003906 C 57.1775016784668 99.63792419433594 64.72663879394531 99.59217071533203 73.76948547363281 99.18476104736328 C 80.68289947509766 99.01045227050781 84.64674377441406 98.16382598876953 90.85688781738281 96.58888244628906 C 98.05624389648438 95.12229919433594 102.25186157226562 93.34330749511719 105.05686950683594 90.90377807617188 C 107.94699096679688 89.1292724609375 109.46127319335938 87.7600326538086 110.04712677001953 85.27607727050781 C 111.06221771240234 82.3238525390625 111.11371612548828 79.76697540283203 109.54779815673828 77.40978240966797 C 108.32293701171875 75.81231689453125 107.41950225830078 74.44148254394531 106.25669860839844 72.52710723876953 C 106.50360870361328 70.95893859863281 107.6877670288086 69.88589477539062 108.98741149902344 68.72332000732422 C 110.62129211425781 66.88566589355469 111.12419128417969 63.917572021484375 110.53995513916016 60.914459228515625 C 110.08552551269531 58.559051513671875 108.56525421142578 56.08637619018555 105.8973617553711 52.8111457824707 C 103.24615478515625 49.24665832519531 99.07696533203125 47.09165573120117 94.83645629882812 46.1235466003418" stroke-width="2.0" fill="rgb(252, 194, 27)" opacity="1.0" stroke="rgb(252, 194, 27)" stroke-opacity="1.0" stroke-linecap="round" stroke-linejoin="round"/>
    <path d="M 89.78538513183594 50.617069244384766 C 89.81864929199219 50.615108489990234 91.0046615600586 50.92869186401367 94.66429138183594 49.02520751953125 C 91.54291534423828 43.26341247558594 70.52605438232422 41.55341720581055 44.67972946166992 44.65238571166992 C 32.41120147705078 47.97425079345703 27.494014739990234 50.84166717529297 23.017314910888672 54.46818542480469 C 19.908153533935547 56.55099105834961 18.977510452270508 58.460086822509766 18.64439582824707 62.017024993896484 C 18.65995216369629 65.25788116455078 20.474811553955078 67.0688705444336 22.951454162597656 69.10833740234375 C 23.202768325805664 71.89459228515625 21.920011520385742 74.17289733886719 20.268386840820312 76.23121643066406 C 18.376516342163086 78.7647705078125 17.7082576751709 80.89070129394531 18.29851531982422 82.8530044555664 C 19.21567726135254 85.5728530883789 21.215595245361328 88.33708953857422 24.37735366821289 90.41783905029297 C 27.851924896240234 92.24073028564453 31.918792724609375 93.8689956665039 36.667457580566406 95.04375457763672 C 39.89727783203125 95.8211669921875 42.423606872558594 96.42533874511719 47.6507682800293 97.03416442871094 C 54.93838882446289 97.76163482666016 63.259761810302734 97.770751953125 73.64376068115234 97.4967269897461 C 81.42878723144531 97.45303344726562 85.82463836669922 96.67726135253906 91.50901794433594 95.08491516113281 C 97.71409606933594 93.57124328613281 101.37066650390625 91.86994934082031 104.03246307373047 89.6915054321289 C 106.82979583740234 88.04216003417969 108.20263671875 86.61756134033203 108.76415252685547 84.1921615600586 C 109.79637908935547 81.43013000488281 109.71426391601562 79.426513671875 108.11790466308594 77.76290130615234 C 106.87153625488281 76.2367172241211 105.52083587646484 74.46875762939453 104.17681121826172 72.3307876586914 C 104.9275894165039 70.65625762939453 106.35533142089844 69.2912826538086 107.45367431640625 67.78340911865234 C 108.95153045654297 66.03115844726562 109.6061019897461 63.9587516784668 109.38655853271484 61.89004135131836 C 109.05027770996094 59.75625991821289 107.4455337524414 57.36417007446289 104.92748260498047 54.36472702026367 C 103.2272720336914 51.32246017456055 101.11940002441406 49.63591766357422 97.73004150390625 48.94434356689453" stroke-width="2.0" fill="rgb(255, 0, 0)" opacity="1.0" stroke="rgb(255, 0, 0)" stroke-opacity="1.0" stroke-linecap="round" stroke-linejoin="round"/>
    <path d="M 92.53398895263672 51.86202621459961 C 92.56639099121094 51.86054611206055 93.7313232421875 52.29429626464844 97.52883911132812 50.507568359375 C 94.92215728759766 43.810752868652344 73.91910552978516 41.089996337890625 46.143009185791016 43.834835052490234 C 32.43097686767578 47.28786849975586 27.070539474487305 50.511478424072266 22.79511070251465 54.35269546508789 C 19.853124618530273 56.33378601074219 18.833213806152344 58.22610855102539 18.312395095825195 61.72883987426758 C 18.086666107177734 64.94719696044922 19.554624557495117 66.85369110107422 22.043434143066406 68.77730560302734 C 23.106746673583984 71.13158416748047 22.504846572875977 73.07215118408203 20.882354736328125 75.20420837402344 C 18.7664852142334 77.93119049072266 17.806238174438477 80.22004699707031 18.12653923034668 82.52986907958984 C 18.96857261657715 85.55270385742188 21.08723258972168 88.45719146728516 24.43798828125 90.6345443725586 C 28.288782119750977 92.55250549316406 32.78392028808594 94.2294921875 37.574161529541016 95.37162780761719 C 40.62985610961914 96.18099212646484 43.06886672973633 96.79222106933594 48.44984817504883 97.3744125366211 C 55.699466705322266 98.14169311523438 63.55785369873047 98.15709686279297 73.55844116210938 97.8463363647461 C 81.29743194580078 97.7437973022461 85.75606536865234 96.84722137451172 91.7185287475586 95.15953826904297 C 98.12474060058594 93.65081024169922 101.68749237060547 91.98600769042969 104.1719741821289 89.82186126708984 C 106.97701263427734 88.10728454589844 108.44849395751953 86.56690979003906 108.97412109375 84.06764221191406 C 109.88994598388672 81.27326202392578 109.69913482666016 79.11764526367188 107.90386962890625 77.18340301513672 C 106.53434753417969 75.63996124267578 105.4366226196289 74.17035675048828 104.51380920410156 72.29988098144531 C 105.39632415771484 70.70667266845703 106.66905975341797 69.32003021240234 107.7193374633789 67.8332748413086 C 109.31747436523438 66.2154312133789 109.99947357177734 64.17208099365234 109.61103820800781 61.96131896972656 C 109.03529357910156 59.71803283691406 107.39146423339844 57.31897735595703 105.0347671508789 54.32899856567383 C 103.2891616821289 51.21384048461914 100.72664642333984 49.35216522216797 96.85032653808594 48.25236892700195" stroke-width="2.0" fill="rgb(0, 255, 0)" opacity="1.0" stroke="rgb(0, 255, 0)" stroke-opacity="1.0" stroke-linecap="round" stroke-linejoin="round"/>
    <path d="M 95.11115264892578 52.86784744262695 C 95.13919830322266 52.865116119384766 96.24930572509766 53.36524963378906 99.94419860839844 51.714927673339844 C 97.77307891845703 44.48223114013672 77.92715454101562 40.865966796875 48.9910888671875 42.98343276977539 C 33.32566833496094 46.00014114379883 26.932579040527344 49.17656326293945 22.373502731323242 53.31391143798828 C 19.519092559814453 55.54890060424805 18.58445167541504 57.64137649536133 18.055326461791992 61.21164321899414 C 17.6673583984375 64.45413208007812 18.797771453857422 66.50633239746094 21.09231948852539 68.5813980102539 C 22.395618438720703 70.78585052490234 22.14533233642578 72.50625610351562 20.626657485961914 74.67229461669922 C 18.453636169433594 77.5439682006836 17.3514404296875 79.96472930908203 17.50823211669922 82.4968490600586 C 18.283349990844727 85.61917114257812 20.4641056060791 88.56078338623047 23.80718231201172 90.90557861328125 C 27.64189910888672 93.02348327636719 32.434452056884766 94.77386474609375 37.3879280090332 95.83309173583984 C 40.39935302734375 96.6168441772461 43.08853530883789 97.25465393066406 48.78632736206055 97.82341003417969 C 56.01200485229492 98.59264373779297 63.664730072021484 98.61775207519531 73.55513763427734 98.30258178710938 C 81.1785888671875 98.198486328125 85.6165542602539 97.27667236328125 91.97015380859375 95.5794677734375 C 98.69441223144531 94.04163360595703 102.24673461914062 92.26622009277344 104.65534210205078 90.04012298583984 C 107.5211410522461 88.33423614501953 109.07232666015625 86.77507781982422 109.50201416015625 84.1694107055664 C 110.26542663574219 81.16026306152344 110.03903198242188 78.6875991821289 108.18693542480469 76.45445251464844 C 106.73229217529297 74.8577880859375 105.85896301269531 73.60675048828125 105.34374237060547 71.92770385742188 C 106.3409423828125 70.26226806640625 107.53678131103516 68.8509292602539 108.6387710571289 67.5552749633789 C 110.20716857910156 65.9262924194336 110.56206512451172 63.50324630737305 109.73075103759766 60.820552825927734 C 108.95988464355469 58.52635955810547 107.41898345947266 56.430477142333984 105.23731994628906 53.74595260620117 C 103.4679946899414 50.90995788574219 100.76859283447266 49.1744499206543 97.15347290039062 47.77893829345703" stroke-width="2.0" fill="rgb(0, 0, 255)" opacity="1.0" stroke="rgb(0, 0, 255)" stroke-opacity="1.0" stroke-linecap="round" stroke-linejoin="round"/>
  </g>
</svg>
