<?xml version="1.0" ?>
<svg xmlns="http://www.w3.org/2000/svg" version="1.1" width="128" height="128">
  <defs/>
  <g>
    <path d="M 88.69947814941406 18.732845306396484 C 88.70274353027344 18.70905113220215 88.56962585449219 18.133319854736328 90.97468566894531 17.49818229675293 C 96.91004943847656 18.729284286499023 96.8467788696289 22.872756958007812 84.80516052246094 28.088794708251953 C 71.19950866699219 33.439998626708984 59.348793029785156 41.454185485839844 43.41769790649414 45.667945861816406 C 34.224891662597656 43.22549819946289 32.90353012084961 42.671897888183594 30.898099899291992 44.984066009521484 C 28.949674606323242 47.158451080322266 30.326583862304688 48.42064666748047 32.1911735534668 49.4759635925293 C 33.25237274169922 50.77646255493164 35.79511260986328 51.69601058959961 38.53131103515625 51.76292037963867 C 39.21540069580078 52.404823303222656 38.751407623291016 56.54396438598633 39.437862396240234 65.07633972167969 C 41.036949157714844 74.7664566040039 42.208194732666016 82.74010467529297 43.353729248046875 89.68933868408203 C 43.97500991821289 95.57786560058594 44.671913146972656 99.40573120117188 45.248233795166016 101.84973907470703 C 45.39215850830078 103.75735473632812 46.13335418701172 104.92446899414062 47.8123893737793 105.68000793457031 C 48.836036682128906 106.3060531616211 49.901668548583984 106.38885498046875 52.322601318359375 106.20211791992188 C 54.94124221801758 106.341796875 59.82822036743164 106.48406982421875 68.44890594482422 106.26950073242188 C 74.89104461669922 106.54999542236328 77.21992492675781 106.6098403930664 78.5905990600586 105.66986846923828 C 79.53428649902344 104.01403045654297 79.9306640625 101.40375518798828 80.26171112060547 97.77513885498047 C 80.64791870117188 93.82992553710938 81.47630310058594 88.34072875976562 82.7091064453125 80.62472534179688 C 83.9633560180664 73.85932159423828 84.54553985595703 69.44405364990234 84.86112976074219 65.29481506347656 C 85.90437316894531 61.6051025390625 86.45531463623047 60.157371520996094 85.83029174804688 60.049156188964844 C 86.05476379394531 59.066463470458984 87.18106079101562 56.12264633178711 89.68734741210938 51.90925979614258 C 92.93023681640625 48.649169921875 88.18449401855469 48.484378814697266 70.37777709960938 49.837337493896484 C 49.810951232910156 50.046714782714844 33.930416107177734 50.144447326660156 26.812122344970703 46.375770568847656" stroke-width="2.0" fill="rgb(252, 194, 27)" opacity="1.0" stroke="rgb(252, 194, 27)" stroke-opacity="1.0" stroke-linecap="round" stroke-linejoin="round"/>
    <path d="M 71.82351684570312 34.349029541015625 C 71.82830047607422 34.29222869873047 71.64248657226562 33.81999588012695 72.84944915771484 33.316688537597656 C 75.5322036743164 34.76310348510742 74.37838745117188 38.987789154052734 71.31620025634766 43.81653594970703 C 73.85308074951172 46.30704879760742 68.18357849121094 47.5001335144043 46.68315887451172 46.38175964355469 C 32.95338439941406 45.531497955322266 30.725261688232422 48.5235595703125 30.67970848083496 51.92377471923828 C 31.566329956054688 53.64911651611328 33.994544982910156 54.80961227416992 35.758575439453125 56.413787841796875 C 35.775047302246094 59.22432327270508 35.84233856201172 63.854183197021484 36.67195510864258 69.5732650756836 C 37.552127838134766 75.13600158691406 38.162227630615234 79.6846923828125 38.88373947143555 84.09291076660156 C 39.57729721069336 88.7500991821289 40.463809967041016 93.34093475341797 41.32863998413086 97.62872314453125 C 41.639530181884766 101.1312484741211 41.95962142944336 103.38441467285156 42.634422302246094 105.00251007080078 C 43.15019226074219 106.52477264404297 44.23387145996094 107.60395812988281 46.214141845703125 108.33979034423828 C 47.25065612792969 108.96214294433594 48.516170501708984 109.13469696044922 52.20398712158203 108.94815826416016 C 57.14635467529297 108.95171356201172 64.25829315185547 108.87847137451172 73.19927978515625 108.76424407958984 C 78.12580108642578 109.2007827758789 79.0699691772461 109.10316467285156 80.23976135253906 108.04505920410156 C 81.75677490234375 106.7652359008789 82.5411376953125 104.81831359863281 83.0672836303711 101.58644104003906 C 83.67810821533203 97.95796203613281 84.45186614990234 93.31592559814453 85.30706024169922 86.10591888427734 C 86.43280792236328 78.58246612548828 87.6097183227539 73.10594940185547 88.35809326171875 67.82231903076172 C 89.011962890625 62.964351654052734 89.31045532226562 60.034568786621094 89.43881225585938 58.362422943115234 C 90.39327239990234 57.12935256958008 90.90595245361328 56.65985107421875 91.4310302734375 56.455299377441406 C 93.6832275390625 54.896976470947266 92.53791046142578 53.57683181762695 84.72386932373047 54.60450744628906 C 74.69854736328125 55.41249084472656 59.595542907714844 54.79834747314453 41.29309844970703 54.53043746948242" stroke-width="2.0" fill="rgb(255, 0, 0)" opacity="1.0" stroke="rgb(255, 0, 0)" stroke-opacity="1.0" stroke-linecap="round" stroke-linejoin="round"/>
    <path d="M 74.87213897705078 33.866554260253906 C 74.87760162353516 33.807315826416016 74.8457260131836 33.29606246948242 76.48894500732422 32.592857360839844 C 78.8790054321289 33.951995849609375 75.50395965576172 38.686153411865234 69.13868713378906 44.2657356262207 C 69.08735656738281 46.939353942871094 61.145816802978516 47.60578536987305 40.05495834350586 45.844871520996094 C 29.153682708740234 46.70454406738281 28.640403747558594 50.72983932495117 29.516929626464844 53.908451080322266 C 30.184362411499023 55.67413330078125 32.47479248046875 56.227684020996094 34.95414352416992 55.45627212524414 C 35.817562103271484 55.42264175415039 35.65534591674805 58.22929763793945 35.61534118652344 63.61851501464844 C 36.44740295410156 69.76876068115234 37.57939529418945 76.08573150634766 38.62904357910156 82.40687561035156 C 39.579341888427734 88.0697250366211 40.39091491699219 93.0428466796875 41.213897705078125 97.59418487548828 C 41.691795349121094 101.2988510131836 42.14532470703125 103.71928405761719 42.97236251831055 105.54945373535156 C 43.62154769897461 107.19892120361328 44.8558235168457 108.25261688232422 46.92021942138672 108.8944320678711 C 47.763343811035156 109.45840454101562 48.69286346435547 109.62364959716797 53.182373046875 109.45066833496094 C 60.63376998901367 109.57260131835938 69.07550048828125 109.4790267944336 75.99613952636719 109.46712493896484 C 79.16915893554688 109.70892333984375 79.84701538085938 109.17841339111328 81.05805206298828 107.73163604736328 C 82.42366790771484 106.20358276367188 83.09864807128906 104.01406860351562 83.4858169555664 100.50523376464844 C 83.90319061279297 96.52645874023438 84.7385482788086 91.20124816894531 85.75609588623047 83.31631469726562 C 86.9806137084961 75.71543884277344 88.15853118896484 69.84468841552734 88.99665069580078 64.3643569946289 C 89.53276062011719 59.99087142944336 89.5788345336914 57.395286560058594 90.23738861083984 56.01066589355469 C 92.26425170898438 55.614749908447266 93.50430297851562 55.90745162963867 94.42738342285156 55.45807647705078 C 96.79042053222656 52.2892951965332 96.23341369628906 47.707862854003906 90.37198638916016 45.50189971923828 C 83.79649353027344 45.66447067260742 70.79276275634766 46.4869499206543 49.20619583129883 47.96453857421875" stroke-width="2.0" fill="rgb(0, 255, 0)" opacity="1.0" stroke="rgb(0, 255, 0)" stroke-opacity="1.0" stroke-linecap="round" stroke-linejoin="round"/>
    <path d="M 84.99669647216797 23.50107765197754 C 84.99669647216797 23.449092864990234 85.06287384033203 22.85185432434082 88.10440063476562 21.781970977783203 C 93.25806427001953 22.572010040283203 89.05779266357422 28.122329711914062 73.88433074951172 37.039608001708984 C 65.79363250732422 42.47663116455078 56.76105499267578 43.90911865234375 37.82184600830078 42.78110885620117 C 29.05241584777832 44.023406982421875 30.011512756347656 47.953643798828125 30.258487701416016 51.65603256225586 C 29.391359329223633 54.837852478027344 31.41219139099121 56.704986572265625 34.13389587402344 55.402584075927734 C 35.44328308105469 52.72357940673828 36.91706466674805 51.19902038574219 37.757320404052734 51.46869659423828 C 36.968570709228516 54.00407791137695 36.685543060302734 59.844905853271484 37.47445297241211 68.09526824951172 C 38.12572479248047 76.46227264404297 39.383079528808594 84.14727783203125 41.336280822753906 91.27685546875 C 41.97274398803711 97.14692687988281 42.12258529663086 101.0403823852539 42.546932220458984 103.78422546386719 C 42.61265182495117 106.01033020019531 43.56757736206055 107.39698028564453 45.82011032104492 108.1561050415039 C 46.851505279541016 108.68984985351562 47.69997787475586 108.81924438476562 51.360591888427734 108.62240600585938 C 57.35626220703125 108.66592407226562 65.55651092529297 108.66421508789062 74.1280517578125 108.5922622680664 C 78.3749771118164 108.87222290039062 79.4049301147461 108.32218933105469 80.75970458984375 106.68627166748047 C 81.9829330444336 104.87255096435547 82.40686798095703 102.36077880859375 82.9486083984375 98.29528045654297 C 83.7983169555664 93.06507873535156 84.85597229003906 86.063720703125 86.00025939941406 77.64486694335938 C 86.8528823852539 70.8436050415039 87.58026123046875 65.51625061035156 88.06084442138672 60.69102478027344 C 87.62625122070312 57.4365119934082 86.943603515625 55.870361328125 88.56751251220703 55.66597366333008 C 92.40857696533203 56.34904861450195 94.57322692871094 57.09370040893555 95.1513671875 56.14664077758789 C 96.72730255126953 52.409324645996094 95.72667694091797 48.120540618896484 90.96298217773438 46.28987121582031 C 86.76564025878906 46.40433120727539 74.70156860351562 45.83145523071289 54.05836486816406 42.02674102783203" stroke-width="2.0" fill="rgb(0, 0, 255)" opacity="1.0" stroke="rgb(0, 0, 255)" stroke-opacity="1.0" stroke-linecap="round" stroke-linejoin="round"/>
  </g>
</svg>
