<?xml version="1.0" ?>
<svg xmlns="http://www.w3.org/2000/svg" version="1.1" width="128" height="128">
  <defs/>
  <g>
    <path d="M 68.60977172851562 26.880952835083008 C 68.60736083984375 26.872608184814453 68.40117645263672 26.722412109375 68.51861572265625 26.702409744262695 C 69.67713165283203 27.135021209716797 70.39303588867188 27.862146377563477 71.8370361328125 28.64012908935547 C 76.23828125 28.801725387573242 78.68374633789062 29.823394775390625 78.26412200927734 32.45795440673828 C 79.5744400024414 34.398651123046875 77.50711822509766 35.55028533935547 70.85088348388672 38.01701736450195 C 68.00616455078125 41.849403381347656 65.02352142333984 47.130760192871094 60.19365692138672 53.26485061645508 C 61.43640899658203 59.31180953979492 64.57538604736328 64.46551513671875 64.99100494384766 68.2320785522461 C 65.65524291992188 69.98890686035156 65.5608901977539 69.95903015136719 62.533565521240234 70.18965148925781 C 58.52925109863281 71.23855590820312 54.98162841796875 72.09429168701172 52.42655563354492 73.42337799072266 C 51.42226028442383 76.00785064697266 51.0784912109375 79.46517944335938 50.56938552856445 83.38786315917969 C 49.91575622558594 87.34321594238281 49.697994232177734 90.32200622558594 50.09092330932617 92.6612548828125 C 50.15031051635742 94.772216796875 50.75171661376953 95.98502349853516 52.9666862487793 96.4872055053711 C 55.462432861328125 97.12420654296875 59.891170501708984 97.67256164550781 67.21906280517578 97.49658966064453 C 72.85563659667969 97.27613067626953 75.56060791015625 96.68590545654297 77.41439056396484 95.00687408447266 C 78.57903289794922 93.09797668457031 78.7423324584961 91.06314086914062 78.09605407714844 87.54615020751953 C 77.64004516601562 82.64632415771484 76.96830749511719 77.77848052978516 75.06385040283203 75.77763366699219 C 74.00128936767578 79.80662536621094 75.081298828125 86.83262634277344 75.27983093261719 91.95310974121094 C 73.709228515625 94.0370864868164 71.96469116210938 94.0096206665039 70.73707580566406 92.62519836425781 C 70.41136932373047 89.68769836425781 69.996337890625 84.25469207763672 68.46762084960938 76.10877227783203 C 65.78684997558594 66.87493896484375 62.61437225341797 60.67229080200195 63.425357818603516 59.126914978027344 C 69.60488891601562 59.06821823120117 74.68194580078125 57.190433502197266 76.34403228759766 51.264583587646484" stroke-width="2.0" fill="rgb(252, 194, 27)" opacity="1.0" stroke="rgb(252, 194, 27)" stroke-opacity="1.0" stroke-linecap="round" stroke-linejoin="round"/>
    <path d="M 79.0769271850586 30.93724250793457 C 79.07486724853516 30.924650192260742 78.9427719116211 30.689788818359375 79.19205474853516 30.375919342041016 C 80.50907897949219 30.726390838623047 81.60286712646484 32.22920227050781 81.83820343017578 34.93547821044922 C 82.3406982421875 37.68320846557617 82.2522201538086 41.01535415649414 81.57894134521484 45.085594177246094 C 81.94413757324219 46.08180236816406 77.51812744140625 43.57020950317383 64.17594146728516 41.512752532958984 C 51.591224670410156 41.59757995605469 46.16898727416992 44.08954620361328 46.345916748046875 48.41453170776367 C 48.89181137084961 52.35744094848633 49.40584182739258 56.02861785888672 47.36259841918945 59.97674560546875 C 46.19337844848633 63.606197357177734 46.45964431762695 66.8534164428711 47.268165588378906 69.6849594116211 C 48.31551742553711 71.92015075683594 48.87177658081055 73.47054290771484 48.93192672729492 75.22422790527344 C 48.66282653808594 78.14944458007812 48.04540252685547 82.00930786132812 47.19086456298828 86.24051666259766 C 46.320335388183594 90.24028778076172 46.2492790222168 93.163818359375 47.358699798583984 95.34580993652344 C 48.16876220703125 97.27909088134766 49.04164505004883 98.5879898071289 51.47096633911133 99.27649688720703 C 53.41287612915039 99.79237365722656 55.98590087890625 99.98609161376953 62.56741714477539 100.02342224121094 C 69.3125228881836 100.03722381591797 73.15991973876953 99.94114685058594 76.59356689453125 99.42452239990234 C 79.02437591552734 98.7284927368164 79.85871887207031 97.76651000976562 80.67256927490234 96.23532104492188 C 81.73213195800781 94.40467834472656 81.97342681884766 91.73184204101562 81.03659057617188 87.2034912109375 C 80.36419677734375 81.78079223632812 80.1490707397461 77.01721954345703 78.94189453125 73.34036254882812 C 78.13778686523438 71.82391357421875 79.15784454345703 71.46585845947266 80.71237182617188 69.8150863647461 C 82.70854187011719 66.76056671142578 83.17189025878906 62.997196197509766 80.37748718261719 59.71422576904297 C 78.19601440429688 57.620758056640625 78.11277770996094 56.57314682006836 78.41764068603516 55.129913330078125 C 79.93572998046875 52.213443756103516 80.55184936523438 48.485225677490234 79.16722106933594 44.168060302734375" stroke-width="2.0" fill="rgb(255, 0, 0)" opacity="1.0" stroke="rgb(255, 0, 0)" stroke-opacity="1.0" stroke-linecap="round" stroke-linejoin="round"/>
    <path d="M 79.5330581665039 30.952924728393555 C 79.53211212158203 30.94021987915039 79.4155044555664 30.71462059020996 79.72505187988281 30.410205841064453 C 81.00877380371094 30.676605224609375 81.82984161376953 32.074851989746094 81.87957000732422 34.855125427246094 C 82.48294830322266 37.657989501953125 82.04978942871094 40.56665802001953 80.51040649414062 43.67877960205078 C 80.15986633300781 43.88093948364258 75.42974853515625 41.548946380615234 62.60972213745117 40.254920959472656 C 51.26872634887695 40.937076568603516 46.43233871459961 43.64077377319336 46.44182205200195 47.984493255615234 C 48.6673469543457 51.75507354736328 49.2042350769043 55.18013381958008 47.284324645996094 59.14133071899414 C 46.14731216430664 62.891204833984375 46.4438362121582 66.265869140625 47.29582595825195 69.31716918945312 C 48.34481430053711 71.75723266601562 48.872920989990234 73.49520874023438 48.848731994628906 75.43746185302734 C 48.46443176269531 78.5350112915039 47.771484375 82.45984649658203 46.935489654541016 86.5926742553711 C 46.11983871459961 90.4411849975586 46.09189987182617 93.3174057006836 47.2529296875 95.5137939453125 C 48.202693939208984 97.42799377441406 49.29128646850586 98.68937683105469 51.778289794921875 99.34051513671875 C 53.57294464111328 99.83875274658203 56.12685775756836 100.0354232788086 62.82058334350586 100.04127502441406 C 69.49470520019531 100.00177001953125 73.20067596435547 99.89057159423828 76.67594909667969 99.39871215820312 C 79.150634765625 98.69881439208984 79.90735626220703 97.67597961425781 80.66365814208984 96.05461120605469 C 81.78053283691406 94.25054168701172 82.09304809570312 91.79740905761719 81.16929626464844 87.52104949951172 C 80.42340850830078 82.1126480102539 80.08122253417969 77.0781021118164 78.81465148925781 73.09440612792969 C 77.97509002685547 71.34243774414062 78.91029357910156 70.98328399658203 80.47613525390625 69.6349105834961 C 82.47026824951172 66.82594299316406 82.96582794189453 63.19577407836914 80.3734130859375 59.985069274902344 C 78.3486328125 57.827232360839844 78.28279113769531 56.499202728271484 78.59970092773438 54.76694107055664 C 80.08758544921875 51.796897888183594 80.7066879272461 48.22072219848633 79.42539978027344 43.87050247192383" stroke-width="2.0" fill="rgb(0, 255, 0)" opacity="1.0" stroke="rgb(0, 255, 0)" stroke-opacity="1.0" stroke-linecap="round" stroke-linejoin="round"/>
    <path d="M 75.6308822631836 29.02259635925293 C 75.63390350341797 28.996679306030273 75.92498016357422 29.035615921020508 77.17813110351562 28.761198043823242 C 77.30809020996094 27.688236236572266 70.51432037353516 26.85664176940918 58.92964172363281 27.257028579711914 C 53.609195709228516 27.105121612548828 53.011695861816406 27.97215461730957 49.81904983520508 31.014463424682617 C 47.83890914916992 33.470848083496094 48.94784164428711 35.39860534667969 47.66685104370117 38.75190353393555 C 45.49515914916992 42.69978713989258 46.20549011230469 45.92465591430664 48.99441146850586 47.54212951660156 C 53.30295181274414 47.24338150024414 56.654747009277344 46.91283416748047 54.749271392822266 48.79848098754883 C 49.80576705932617 53.078948974609375 46.487510681152344 58.34494400024414 46.13603973388672 64.10846710205078 C 47.6961555480957 69.48625946044922 48.630496978759766 73.05023956298828 47.937034606933594 76.40628051757812 C 46.8610725402832 81.08281707763672 46.29090881347656 85.93359375 46.05486297607422 89.95252990722656 C 45.69190979003906 93.08072662353516 46.014190673828125 95.23818969726562 47.52838134765625 96.978515625 C 48.68528366088867 98.55701446533203 50.14196014404297 99.49163818359375 52.932865142822266 100.01536560058594 C 55.083648681640625 100.63129425048828 58.53388977050781 101.02055358886719 65.7547607421875 100.95694732666016 C 71.85359191894531 100.92063903808594 74.99553680419922 100.58307647705078 78.00377655029297 99.45365142822266 C 80.13480377197266 98.30966186523438 80.87454223632812 97.35515594482422 81.55841827392578 95.8399429321289 C 82.31341552734375 94.16282653808594 82.55078887939453 92.08082580566406 82.15115356445312 88.44169616699219 C 81.64356231689453 83.91383361816406 80.96363067626953 79.455078125 79.7521743774414 75.37284088134766 C 79.08642578125 72.51010131835938 79.55216217041016 70.97636413574219 80.84725952148438 70.26866149902344 C 82.59774780273438 69.66706848144531 83.07672882080078 68.0400161743164 82.45489501953125 64.44624328613281 C 82.26627349853516 60.195709228515625 80.5952377319336 58.3135871887207 78.47213745117188 57.30340576171875 C 79.92704010009766 53.628379821777344 81.3176498413086 47.40538787841797 81.00581359863281 39.87291717529297" stroke-width="2.0" fill="rgb(0, 0, 255)" opacity="1.0" stroke="rgb(0, 0, 255)" stroke-opacity="1.0" stroke-linecap="round" stroke-linejoin="round"/>
  </g>
</svg>
