<?xml version="1.0" ?>
<svg xmlns="http://www.w3.org/2000/svg" version="1.1" width="128" height="128">
  <defs/>
  <g>
    <path d="M 104.3560791015625 50.08966064453125 C 104.38994598388672 50.062889099121094 105.17980194091797 53.1688346862793 107.72055053710938 54.46543884277344 C 107.20037078857422 38.049774169921875 93.38695526123047 20.309755325317383 62.80329895019531 16.73740577697754 C 44.7357177734375 19.2529354095459 39.595802307128906 23.499357223510742 32.67488479614258 29.552505493164062 C 27.19104766845703 33.50537872314453 26.327667236328125 35.97549819946289 23.87140655517578 40.48240280151367 C 20.136816024780273 46.586585998535156 18.7993221282959 50.513671875 17.709360122680664 54.390220642089844 C 15.822916030883789 62.505489349365234 17.16436004638672 74.0959701538086 22.46918487548828 85.45339965820312 C 28.083412170410156 94.20538330078125 32.678565979003906 99.3061752319336 35.56871795654297 100.88530731201172 C 35.96015167236328 100.44725799560547 35.934303283691406 98.12572479248047 36.1310920715332 93.87039184570312 C 36.19281768798828 89.03699493408203 36.639404296875 84.09004974365234 36.11394119262695 79.11653137207031 C 35.16117858886719 75.60809326171875 37.098087310791016 74.67430114746094 46.872920989990234 75.25081634521484 C 66.52699279785156 75.59684753417969 85.07330322265625 75.34042358398438 92.82984161376953 75.83626556396484 C 94.4979019165039 76.766845703125 92.94059753417969 76.71662139892578 91.11495971679688 76.73748779296875 C 91.61746978759766 79.03385162353516 91.99725341796875 83.29736328125 91.39798736572266 88.56207275390625 C 91.9454116821289 94.28214263916016 92.4224624633789 98.5188217163086 91.92997741699219 101.1700210571289 C 91.86519622802734 103.46192169189453 92.03582000732422 104.0531005859375 93.07756805419922 102.44438171386719 C 95.77950286865234 100.0488052368164 98.92356872558594 95.81937408447266 102.67119598388672 89.50691223144531 C 107.18692779541016 83.91645812988281 109.69911193847656 78.76780700683594 110.10565185546875 70.98821258544922 C 111.08142852783203 63.30158996582031 111.3101577758789 58.464454650878906 110.13861846923828 55.13031005859375 C 110.23192596435547 52.37863540649414 109.82643127441406 50.627899169921875 107.77682495117188 50.198394775390625 C 108.08223724365234 50.85116195678711 108.97042846679688 51.81171417236328 107.8148193359375 51.686363220214844" stroke-width="2.0" fill="rgb(252, 194, 27)" opacity="1.0" stroke="rgb(252, 194, 27)" stroke-opacity="1.0" stroke-linecap="round" stroke-linejoin="round"/>
    <path d="M 111.72537231445312 55.789485931396484 C 111.76316833496094 55.77909851074219 112.53565216064453 60.1326904296875 115.25157928466797 61.48762130737305 C 113.95671081542969 36.64627456665039 97.639892578125 14.815345764160156 62.4844970703125 12.184148788452148 C 42.206459045410156 15.004501342773438 36.053443908691406 19.396032333374023 27.225383758544922 27.195858001708984 C 19.381956100463867 34.16427993774414 18.23607635498047 39.59382247924805 17.464618682861328 46.36500930786133 C 14.174793243408203 51.84920120239258 13.17884349822998 54.85049819946289 13.343832969665527 57.85149002075195 C 12.458364486694336 65.01689147949219 13.607748985290527 75.40126037597656 17.535486221313477 85.51109313964844 C 21.204952239990234 92.71192169189453 24.37139129638672 96.75669860839844 27.24062728881836 99.17453002929688 C 28.759315490722656 101.6751480102539 30.5710391998291 104.09632110595703 33.69833755493164 106.17015075683594 C 36.941551208496094 108.06880187988281 38.66404342651367 109.49954986572266 39.04936218261719 110.8631591796875 C 40.27927780151367 112.58851623535156 44.57057189941406 114.26660919189453 51.00675582885742 115.88225555419922 C 56.02693176269531 117.27242279052734 60.24713134765625 117.8245849609375 66.96333312988281 117.77757263183594 C 73.00862884521484 117.63526916503906 76.0419692993164 116.82794952392578 80.91386413574219 115.3766098022461 C 86.65269470214844 114.0880355834961 89.25592041015625 112.50651550292969 90.29107666015625 110.49894714355469 C 90.73570251464844 109.14954376220703 91.3930892944336 107.65078735351562 94.30013275146484 105.9484634399414 C 97.83142852783203 105.24427032470703 99.52750396728516 103.80088806152344 99.96871185302734 101.10442352294922 C 101.0021743774414 99.17414093017578 103.20199584960938 97.07744598388672 106.7764892578125 93.16973114013672 C 110.63563537597656 88.34259796142578 113.14414978027344 82.72252655029297 115.06942749023438 74.52910614013672 C 116.74393463134766 64.9686050415039 116.18336486816406 58.071815490722656 113.67691040039062 55.65813446044922 C 112.90135955810547 55.96730041503906 112.64261627197266 56.020835876464844 111.49413299560547 54.57506561279297 C 112.40052032470703 52.691566467285156 113.13841247558594 51.772098541259766 111.81690216064453 50.717140197753906" stroke-width="2.0" fill="rgb(255, 0, 0)" opacity="1.0" stroke="rgb(255, 0, 0)" stroke-opacity="1.0" stroke-linecap="round" stroke-linejoin="round"/>
    <path d="M 110.84366607666016 52.377349853515625 C 110.87411499023438 52.35746383666992 111.7692642211914 56.761444091796875 114.58308410644531 58.1325569152832 C 112.77470397949219 34.05353546142578 95.34074401855469 14.016142845153809 61.14432144165039 11.974413871765137 C 42.0733642578125 14.814451217651367 36.20375061035156 19.264856338500977 27.667680740356445 26.861324310302734 C 19.786006927490234 33.44017791748047 18.432025909423828 38.675559997558594 17.450197219848633 45.59113311767578 C 14.004055976867676 51.514503479003906 12.821867942810059 55.10051345825195 12.793455123901367 57.513343811035156 C 11.911415100097656 62.56905746459961 12.518160820007324 70.82219696044922 15.233664512634277 79.78517150878906 C 17.973785400390625 87.35700225830078 20.800464630126953 92.41327667236328 23.85271644592285 96.13063049316406 C 26.36067771911621 99.59217834472656 29.4366455078125 102.7796630859375 33.8701286315918 105.43073272705078 C 37.39702224731445 107.82279968261719 38.374916076660156 109.62103271484375 38.226829528808594 111.21633911132812 C 39.660404205322266 113.06841278076172 44.4830322265625 114.81730651855469 51.072967529296875 116.47826385498047 C 55.923133850097656 117.8764419555664 60.10501480102539 118.40412902832031 66.74586486816406 118.3390121459961 C 72.5077133178711 118.20520782470703 75.30097961425781 117.45941162109375 80.18699645996094 116.03109741210938 C 86.51972198486328 114.69699096679688 89.78484344482422 113.0288314819336 90.69544219970703 110.89044952392578 C 90.43890380859375 109.39830017089844 90.36335754394531 107.7651138305664 93.01383209228516 105.85758972167969 C 96.94811248779297 104.94213104248047 99.22152709960938 103.39146423339844 100.29874420166016 100.58328247070312 C 102.2380599975586 98.51042938232422 104.97815704345703 96.0842056274414 108.33429718017578 91.34256744384766 C 111.91573333740234 85.97785186767578 114.1629867553711 80.01433563232422 115.54429626464844 70.18937683105469 C 116.7897720336914 59.85028076171875 116.02545928955078 54.94556427001953 113.51898956298828 54.161163330078125 C 112.946044921875 54.105281829833984 112.74373626708984 52.93696975708008 111.7806167602539 50.49045181274414 C 112.85264587402344 47.965179443359375 113.24818420410156 46.48111343383789 111.25948333740234 45.64603805541992" stroke-width="2.0" fill="rgb(0, 255, 0)" opacity="1.0" stroke="rgb(0, 255, 0)" stroke-opacity="1.0" stroke-linecap="round" stroke-linejoin="round"/>
    <path d="M 110.28669738769531 50.889488220214844 C 110.32041931152344 50.874755859375 111.22774505615234 55.04075622558594 114.01400756835938 56.609710693359375 C 112.25332641601562 34.166324615478516 95.22960662841797 14.417121887207031 61.86896514892578 11.805962562561035 C 42.91852569580078 14.392729759216309 37.17305374145508 18.73384666442871 29.12871742248535 26.115320205688477 C 20.995553970336914 32.54245376586914 19.126205444335938 37.689937591552734 17.883939743041992 44.048343658447266 C 14.50715160369873 49.98834228515625 13.165587425231934 54.196617126464844 12.874427795410156 56.80754089355469 C 11.940892219543457 60.633506774902344 12.333672523498535 67.39757537841797 14.412261009216309 75.95484161376953 C 16.432998657226562 83.8433609008789 19.04615020751953 89.38253021240234 21.996753692626953 93.6845703125 C 24.779071807861328 97.69554138183594 28.673860549926758 101.32295227050781 33.98381423950195 104.38294219970703 C 37.95113754272461 107.14640045166016 38.84528732299805 109.29704284667969 38.41605758666992 111.13098907470703 C 39.71854019165039 113.08837127685547 44.70671081542969 114.8259048461914 51.47350311279297 116.4640121459961 C 56.21120071411133 117.88294982910156 60.06366729736328 118.44493103027344 66.31421661376953 118.41378021240234 C 71.8467025756836 118.28126525878906 74.58717346191406 117.51385498046875 79.403076171875 116.02912902832031 C 86.0354232788086 114.61759948730469 89.72919464111328 112.84989929199219 90.43720245361328 110.58192443847656 C 89.71334075927734 108.9721908569336 89.44917297363281 107.29817962646484 92.04991149902344 105.40625 C 96.1134262084961 104.3965835571289 98.67835998535156 102.67640686035156 100.43171691894531 99.73929595947266 C 103.37540435791016 97.55818939208984 106.49640655517578 94.75237274169922 109.45276641845703 89.22139739990234 C 112.8387451171875 83.3243637084961 114.98692321777344 76.53003692626953 115.8881607055664 65.85665893554688 C 116.71625518798828 56.4235725402832 115.72940826416016 53.358551025390625 113.2825698852539 53.25227737426758 C 112.94467163085938 52.31855773925781 112.91466522216797 50.47227096557617 112.31836700439453 48.19894790649414 C 113.38285064697266 45.43280792236328 113.06261444091797 43.20193099975586 110.36907196044922 42.895172119140625" stroke-width="2.0" fill="rgb(0, 0, 255)" opacity="1.0" stroke="rgb(0, 0, 255)" stroke-opacity="1.0" stroke-linecap="round" stroke-linejoin="round"/>
  </g>
</svg>
