<?xml version="1.0" ?>
<svg xmlns="http://www.w3.org/2000/svg" version="1.1" width="128" height="128">
  <defs/>
  <g>
    <path d="M 1.1148173809051514 90.42262268066406 C 1.1136902570724487 90.7078628540039 1.115107774734497 90.33142852783203 1.1089571714401245 90.58355712890625 C 1.0808204412460327 90.12105560302734 1.0283278226852417 90.9071273803711 1.008991003036499 93.16454315185547 C 1.1231577396392822 95.75108337402344 1.4921492338180542 96.4678726196289 2.3241565227508545 97.98511505126953 C 3.940269947052002 101.48027801513672 6.774486064910889 103.87283325195312 11.14540958404541 106.42887878417969 C 17.189119338989258 110.16271209716797 24.515748977661133 112.70806121826172 32.797462463378906 114.7272720336914 C 41.26055908203125 116.62740325927734 48.98776626586914 117.47413635253906 55.42115783691406 117.84976196289062 C 60.834388732910156 118.20299530029297 65.93736267089844 118.16897583007812 72.33702850341797 117.75774383544922 C 80.10698699951172 117.31331634521484 87.39603424072266 116.4299545288086 95.32599639892578 114.55066680908203 C 104.68848419189453 112.37006378173828 113.24787139892578 109.22523498535156 119.70343017578125 104.64495849609375 C 123.72465515136719 101.27815246582031 125.71939849853516 98.94943237304688 126.6307144165039 95.75965118408203 C 127.02021026611328 93.90602111816406 127.1293716430664 93.60235595703125 127.1024398803711 91.66602325439453 C 127.06946563720703 89.47797393798828 127.03028869628906 88.88262939453125 127.00043487548828 86.90071868896484 C 127.0060806274414 83.93465423583984 126.93701934814453 82.5770034790039 126.72075653076172 79.65046691894531 C 126.34215545654297 74.60050964355469 125.70747375488281 70.35894775390625 124.66034698486328 64.71649169921875 C 123.00676727294922 56.798622131347656 120.51602172851562 49.378211975097656 117.00607299804688 41.81471252441406 C 112.56328582763672 32.539730072021484 106.4754867553711 25.05381202697754 98.54737854003906 19.16167640686035 C 90.66382598876953 13.910484313964844 81.80077362060547 11.020683288574219 70.676513671875 9.846919059753418 C 60.106056213378906 9.259660720825195 50.95087814331055 10.101240158081055 41.61405944824219 13.025954246520996 C 31.964452743530273 16.80036735534668 23.4384822845459 22.640832901000977 16.108888626098633 32.91437911987305 C 10.013973236083984 42.54372024536133 6.233846664428711 52.28279495239258 3.9783313274383545 63.532100677490234" stroke-width="2.0" fill="rgb(252, 194, 27)" opacity="1.0" stroke="rgb(252, 194, 27)" stroke-opacity="1.0" stroke-linecap="round" stroke-linejoin="round"/>
    <path d="M 49.27195358276367 96.74697875976562 C 49.279544830322266 96.80457305908203 49.26423263549805 96.73286437988281 49.296146392822266 96.79024505615234 C 49.33199691772461 96.7281723022461 49.35506820678711 96.86393737792969 49.361209869384766 97.06826782226562 C 49.58251953125 97.54849243164062 49.99999237060547 98.0245590209961 50.574485778808594 98.34735870361328 C 51.424922943115234 98.5501708984375 52.448883056640625 98.74832916259766 53.43389892578125 98.86804962158203 C 54.54420852661133 98.7876205444336 55.75724792480469 98.7498779296875 56.743019104003906 98.76957702636719 C 58.21027374267578 98.65589904785156 60.45826721191406 98.81353759765625 62.69643020629883 99.06886291503906 C 64.98309326171875 98.9393310546875 67.40961456298828 98.57052612304688 69.3985595703125 98.10465240478516 C 71.31307220458984 97.77769470214844 73.1616439819336 97.41416931152344 74.70987701416016 96.91661071777344 C 76.23736572265625 96.41384887695312 77.53789520263672 96.00271606445312 78.2079849243164 95.71440887451172 C 78.93546295166016 95.29158782958984 79.88798522949219 94.88967895507812 80.65071868896484 94.60092163085938 C 81.4659652709961 94.30033111572266 82.33724212646484 93.94841003417969 83.60174560546875 93.31378173828125 C 85.70318603515625 92.14564514160156 88.00990295410156 90.63910675048828 90.21192169189453 88.7972412109375 C 92.02894592285156 87.13655853271484 92.5076904296875 86.03999328613281 91.9222640991211 85.09424591064453 C 91.40270233154297 84.21717834472656 90.73141479492188 84.02872467041016 89.66252136230469 84.26654815673828 C 88.74695587158203 84.53665161132812 87.77993774414062 85.27679443359375 86.48450469970703 86.2975082397461 C 85.25690460205078 87.24923706054688 84.45945739746094 87.85581970214844 84.0799331665039 88.13899230957031 C 83.70874786376953 88.56622314453125 82.81248474121094 89.18070983886719 81.50659942626953 89.96548461914062 C 79.90901184082031 90.88895416259766 77.80997467041016 91.7619400024414 75.34932708740234 92.62022399902344 C 73.07229614257812 93.39692687988281 71.21031188964844 93.82101440429688 69.81103515625 94.029296875 C 68.65133666992188 94.36951446533203 66.85285186767578 94.73381805419922 63.95876693725586 94.97855377197266" stroke-width="2.0" fill="rgb(255, 0, 0)" opacity="1.0" stroke="rgb(255, 0, 0)" stroke-opacity="1.0" stroke-linecap="round" stroke-linejoin="round"/>
    <path d="M 47.56196594238281 62.102237701416016 C 47.57997512817383 62.10136795043945 47.541908264160156 62.10246658325195 47.54474639892578 62.0714111328125 C 47.68389129638672 62.08230209350586 48.207401275634766 62.35231018066406 49.03348159790039 62.78529739379883 C 50.09339141845703 63.5211181640625 51.10780334472656 64.77994537353516 52.011810302734375 66.0968017578125 C 52.7817268371582 67.1944351196289 53.26905822753906 67.90283203125 53.24375534057617 68.30402374267578 C 52.845420837402344 68.33769226074219 51.93189239501953 68.3446044921875 49.90460205078125 68.60324096679688 C 47.140235900878906 68.76480865478516 44.508583068847656 68.84058380126953 42.14139938354492 68.71098327636719 C 40.56028747558594 67.99494171142578 40.200660705566406 67.50098419189453 40.14466094970703 67.76757049560547 C 39.902137756347656 68.13948822021484 40.32857894897461 68.69477844238281 41.240665435791016 69.6007080078125 C 41.87948989868164 70.61509704589844 42.94279479980469 71.4694595336914 44.82454299926758 72.0960464477539 C 46.683475494384766 72.40196228027344 48.50248718261719 72.24746704101562 50.54481887817383 71.64028930664062 C 52.21311950683594 70.99246978759766 53.15093994140625 70.18563842773438 53.71918869018555 69.37996673583984 C 53.85972595214844 69.09807586669922 53.759063720703125 68.93052673339844 54.246665954589844 68.31675720214844 C 55.00040054321289 67.705078125 55.330963134765625 67.52838897705078 55.58517074584961 67.60931396484375 C 55.79245376586914 67.81185150146484 55.81288146972656 67.89506530761719 55.69453430175781 67.76943969726562 C 54.612422943115234 67.53732299804688 51.74491882324219 67.42570495605469 47.39890670776367 67.61956024169922 C 43.02373123168945 68.07882690429688 39.97071075439453 68.49076843261719 38.58543395996094 68.79899597167969 C 38.74756622314453 69.1259994506836 40.419578552246094 69.35345458984375 43.283203125 69.2641830444336 C 46.63637924194336 68.89117431640625 50.04248809814453 68.4971694946289 53.23341369628906 68.14189147949219 C 56.07387161254883 68.07257080078125 57.95866775512695 68.54426574707031 58.45416259765625 68.689697265625 C 57.91307830810547 68.24156188964844 56.701107025146484 68.02652740478516 55.06093978881836 67.99764251708984" stroke-width="2.0" fill="rgb(0, 255, 0)" opacity="1.0" stroke="rgb(0, 255, 0)" stroke-opacity="1.0" stroke-linecap="round" stroke-linejoin="round"/>
    <path d="M 89.4836196899414 61.19083786010742 C 89.50847625732422 61.21845626831055 89.45616149902344 61.18659973144531 89.64995574951172 61.12286376953125 C 90.4178237915039 60.869781494140625 91.8752212524414 61.027130126953125 93.77171325683594 61.90242004394531 C 95.94730377197266 63.194053649902344 97.91741943359375 64.38627624511719 99.41310119628906 65.11764526367188 C 100.6072769165039 65.04928588867188 100.78314971923828 64.82646179199219 99.47870635986328 64.40999603271484 C 97.58776092529297 63.652793884277344 95.50879669189453 62.76844787597656 93.21180725097656 61.55467224121094 C 91.13674926757812 60.47883987426758 88.74352264404297 60.34866714477539 85.06208801269531 61.097190856933594 C 81.02521514892578 61.94364547729492 77.95606994628906 63.1409912109375 75.61564636230469 64.95194244384766 C 74.01171112060547 66.42619323730469 73.65231323242188 67.49165344238281 73.7641372680664 68.97652435302734 C 73.85039520263672 70.38558197021484 74.71031951904297 70.76322937011719 76.0846939086914 70.28861236572266 C 77.14446258544922 69.74240112304688 78.5234375 68.3174819946289 81.1598129272461 65.8095703125 C 84.6969985961914 63.812599182128906 88.21563720703125 63.13294219970703 91.01908874511719 63.56870651245117 C 92.35935974121094 64.6801528930664 92.29683685302734 65.83023834228516 91.9538345336914 67.10302734375 C 92.12854766845703 68.67922973632812 92.93521118164062 69.93701934814453 94.17823028564453 70.90888214111328 C 95.49547576904297 72.19996643066406 97.42670440673828 72.8023681640625 100.39933776855469 72.1343765258789 C 103.01840209960938 71.4474105834961 104.05485534667969 70.8575668334961 104.3304672241211 69.68618774414062 C 104.75897216796875 68.9616928100586 105.07384490966797 68.75105285644531 105.13372802734375 68.00778198242188 C 104.863037109375 67.30641174316406 104.03205108642578 66.82208251953125 102.93989562988281 65.6749267578125 C 101.87362670898438 64.38799285888672 100.6091537475586 63.48843765258789 98.9679183959961 62.317230224609375 C 96.8578872680664 60.99348068237305 93.87590026855469 60.280155181884766 90.21510314941406 59.84912109375 C 86.94268798828125 59.68061065673828 84.27891540527344 60.14557647705078 82.39234161376953 60.73725128173828" stroke-width="2.0" fill="rgb(0, 0, 255)" opacity="1.0" stroke="rgb(0, 0, 255)" stroke-opacity="1.0" stroke-linecap="round" stroke-linejoin="round"/>
  </g>
</svg>
