<?xml version="1.0" ?>
<svg xmlns="http://www.w3.org/2000/svg" version="1.1" width="128" height="128">
  <defs/>
  <g>
    <path d="M 1.4837111234664917 90.3343276977539 C 1.4823068380355835 90.63243865966797 1.4841132164001465 90.24160766601562 1.4754334688186646 90.50163269042969 C 1.4358733892440796 89.99837493896484 1.3602761030197144 90.84355926513672 1.3347358703613281 93.06018829345703 C 1.4927632808685303 95.47203063964844 2.0054280757904053 96.42474365234375 3.097119092941284 98.30889892578125 C 5.038846015930176 101.75032806396484 8.199403762817383 104.04878234863281 12.719449043273926 106.50285339355469 C 18.64014434814453 109.75702667236328 25.79890251159668 112.10143280029297 33.868385314941406 114.01238250732422 C 42.07271194458008 115.77908325195312 49.496952056884766 116.5781021118164 55.541622161865234 116.93950653076172 C 60.80344772338867 117.27214813232422 66.0010986328125 117.25389099121094 72.42027282714844 116.85426330566406 C 80.2529067993164 116.38993072509766 87.81829071044922 115.45157623291016 95.85285949707031 113.53443908691406 C 104.91321563720703 111.39028930664062 112.90853881835938 108.45296478271484 118.94393920898438 104.30866241455078 C 122.97378540039062 101.25867462158203 125.16495513916016 98.91575622558594 126.27061462402344 95.49072265625 C 126.76639556884766 93.64006042480469 126.88973236083984 93.42340087890625 126.83779907226562 91.4910888671875 C 126.80205535888672 89.34784698486328 126.76861572265625 88.89893341064453 126.74034881591797 86.80492401123047 C 126.76346588134766 83.66936492919922 126.70333099365234 82.30370330810547 126.46951293945312 79.5013198852539 C 126.05573272705078 74.4629898071289 125.39158630371094 70.15707397460938 124.33369445800781 64.5377197265625 C 122.69930267333984 56.746944427490234 120.2950210571289 49.688838958740234 116.96048736572266 42.61484909057617 C 112.71708679199219 33.72608184814453 106.89961242675781 26.416961669921875 99.30957794189453 20.588041305541992 C 91.69227600097656 15.228792190551758 82.96598815917969 12.181883811950684 71.80744171142578 10.832154273986816 C 60.9277458190918 10.087705612182617 51.41144943237305 10.903809547424316 42.03261184692383 13.767752647399902 C 32.63210678100586 17.3361759185791 24.323320388793945 22.853445053100586 17.01038360595703 32.51028060913086 C 10.78208065032959 41.86063003540039 6.836013317108154 51.67854690551758 4.439373016357422 62.86721420288086" stroke-width="2.0" fill="rgb(252, 194, 27)" opacity="1.0" stroke="rgb(252, 194, 27)" stroke-opacity="1.0" stroke-linecap="round" stroke-linejoin="round"/>
    <path d="M 47.5468635559082 90.31402587890625 C 47.56239700317383 90.3433609008789 47.53746032714844 90.28740692138672 47.57783508300781 90.28030395507812 C 47.62091827392578 90.35697937011719 47.69704055786133 90.71253967285156 47.840553283691406 91.09627532958984 C 48.0721321105957 91.55260467529297 48.13418960571289 91.94302368164062 48.2415885925293 92.47510528564453 C 48.785987854003906 93.00556945800781 49.87980651855469 93.40130615234375 51.118377685546875 93.75372314453125 C 52.42496109008789 93.86997985839844 53.82199478149414 93.82462310791016 55.14634704589844 93.6989974975586 C 57.24059295654297 93.3767318725586 59.904964447021484 93.30017852783203 61.75716018676758 93.33032989501953 C 63.20083999633789 93.17578125 65.29635620117188 93.03081512451172 67.49484252929688 93.10333251953125 C 69.28791046142578 93.21867370605469 70.99560546875 93.13533020019531 72.52719116210938 93.0854263305664 C 73.66461944580078 93.0080337524414 74.60023498535156 92.85520935058594 75.23676300048828 92.96548461914062 C 75.80221557617188 93.13267517089844 76.53012084960938 93.11573791503906 77.15001678466797 93.06885528564453 C 77.50408172607422 93.13615417480469 77.62306213378906 93.03545379638672 78.21632385253906 92.63201141357422 C 79.24913787841797 92.342041015625 79.8702392578125 91.86463165283203 80.26397705078125 90.96260070800781 C 80.39449310302734 90.24105072021484 79.90032958984375 89.43519592285156 79.3515396118164 88.43294525146484 C 78.64957427978516 87.75264739990234 77.18895721435547 87.31817626953125 75.11798858642578 86.92538452148438 C 72.7400894165039 86.87725067138672 70.01520538330078 87.34037017822266 66.9026870727539 87.79499816894531 C 63.75210189819336 87.83718872070312 61.36878204345703 87.69217681884766 60.02437973022461 87.58316040039062 C 59.29838943481445 87.4851303100586 58.8211555480957 87.51716613769531 58.58205032348633 87.63493347167969 C 58.73257064819336 87.65625 59.24117660522461 87.81407928466797 59.850921630859375 87.99317932128906 C 60.397377014160156 88.1034164428711 60.4272575378418 88.29423522949219 59.6651725769043 88.16780853271484 C 58.50260543823242 87.75553131103516 56.96620178222656 87.5416259765625 54.87223434448242 87.59578704833984" stroke-width="2.0" fill="rgb(255, 0, 0)" opacity="1.0" stroke="rgb(255, 0, 0)" stroke-opacity="1.0" stroke-linecap="round" stroke-linejoin="round"/>
    <path d="M 44.1744499206543 64.79566955566406 C 44.18122100830078 64.792236328125 44.167057037353516 64.80905151367188 44.186641693115234 64.8026351928711 C 44.295387268066406 64.82546997070312 44.325340270996094 64.97191619873047 43.93060302734375 65.00440979003906 C 43.31736755371094 64.8028564453125 42.61003875732422 64.60135650634766 41.374244689941406 64.54450225830078 C 39.52954864501953 64.66996002197266 37.43702697753906 64.73271942138672 34.99912643432617 64.79754638671875 C 32.30215072631836 64.8145523071289 29.869565963745117 64.84172821044922 27.825450897216797 65.16204071044922 C 26.21656036376953 65.57661437988281 25.265371322631836 65.98479461669922 24.6927547454834 66.42365264892578 C 24.40007209777832 66.65260314941406 24.74272346496582 66.93404388427734 25.5313777923584 67.48404693603516 C 26.45914649963379 67.96573638916016 27.88382911682129 68.32431030273438 29.684736251831055 68.51065063476562 C 31.340383529663086 68.44239807128906 33.266075134277344 68.04936981201172 35.98805236816406 67.67706298828125 C 39.131011962890625 67.65431213378906 42.66010665893555 67.78888702392578 46.50153732299805 67.92699432373047 C 49.451942443847656 68.37201690673828 51.1533317565918 68.67630767822266 52.29987335205078 68.33961486816406 C 52.86986541748047 67.9623794555664 52.83119583129883 67.57986450195312 52.992027282714844 66.74775695800781 C 53.183921813964844 65.83110809326172 52.855682373046875 65.1501693725586 52.02238082885742 64.5308609008789 C 49.912906646728516 64.05199432373047 45.8458251953125 64.13948822021484 40.5505485534668 64.6928482055664 C 35.203060150146484 65.19920349121094 30.797571182250977 65.44293212890625 27.727636337280273 65.89312744140625 C 25.7697811126709 66.55802917480469 24.637876510620117 67.40426635742188 24.29945945739746 68.37645721435547 C 24.78801727294922 69.2482681274414 26.212459564208984 69.78308868408203 28.5062313079834 69.98542785644531 C 31.662599563598633 70.04618835449219 35.920310974121094 70.17581939697266 40.92505645751953 70.1947021484375 C 45.678382873535156 70.09258270263672 49.23899841308594 70.19134521484375 51.52553939819336 70.09226989746094 C 52.811317443847656 69.38255310058594 52.957061767578125 68.5483627319336 52.15467834472656 67.96269989013672" stroke-width="2.0" fill="rgb(0, 255, 0)" opacity="1.0" stroke="rgb(0, 255, 0)" stroke-opacity="1.0" stroke-linecap="round" stroke-linejoin="round"/>
    <path d="M 75.57785034179688 64.92536163330078 C 75.61111450195312 64.9336166381836 75.52669525146484 64.92588806152344 75.68312072753906 64.88755798339844 C 76.50444793701172 64.71553802490234 78.2580337524414 64.69686889648438 80.55706024169922 64.86071014404297 C 83.20479583740234 65.4198226928711 86.16313171386719 66.08538818359375 89.9810791015625 66.19911193847656 C 93.80760192871094 65.99581146240234 95.59243774414062 65.82911682128906 94.98350524902344 65.37095642089844 C 92.93522644042969 65.15203094482422 89.75648498535156 65.42797088623047 85.77811431884766 65.40267181396484 C 81.82465362548828 65.02532196044922 78.39192962646484 64.82312774658203 75.70838928222656 64.51345825195312 C 74.0375747680664 64.19325256347656 73.00656127929688 64.65955352783203 72.15132904052734 65.63256072998047 C 71.72380828857422 66.52043914794922 72.11759185791016 67.36202239990234 72.63251495361328 68.37229919433594 C 72.7919921875 69.18040466308594 73.23751068115234 69.28881072998047 73.71221923828125 68.96549987792969 C 73.61454010009766 69.07502746582031 73.61105346679688 69.14737701416016 73.93630981445312 68.88530731201172 C 73.7491455078125 69.03013610839844 73.17044067382812 69.1961669921875 73.20329284667969 68.95209503173828 C 73.58049774169922 68.80743408203125 73.89825439453125 68.82344818115234 74.98516845703125 68.9090576171875 C 77.14338684082031 69.09590148925781 80.05582427978516 68.98296356201172 83.34236907958984 68.72970581054688 C 86.2991714477539 68.80191802978516 89.1714096069336 68.82613372802734 92.327880859375 68.57598114013672 C 95.0550537109375 68.70306396484375 96.8609619140625 68.77996826171875 98.3132553100586 68.48737335205078 C 99.48509216308594 68.39696502685547 99.99446105957031 68.1708755493164 100.19596099853516 66.94812774658203 C 100.27259826660156 65.72386932373047 99.7957992553711 65.1529769897461 98.52127838134766 64.48616790771484 C 96.23870849609375 64.28955841064453 93.07186889648438 64.79943084716797 89.7481460571289 64.8725814819336 C 86.2890853881836 64.74739837646484 82.49601745605469 64.78854370117188 78.91020965576172 64.66683959960938 C 75.97380828857422 64.90535736083984 73.42982482910156 65.7932357788086 71.30677032470703 66.21331024169922" stroke-width="2.0" fill="rgb(0, 0, 255)" opacity="1.0" stroke="rgb(0, 0, 255)" stroke-opacity="1.0" stroke-linecap="round" stroke-linejoin="round"/>
  </g>
</svg>
