<?xml version="1.0" ?>
<svg xmlns="http://www.w3.org/2000/svg" version="1.1" width="128" height="128">
  <defs/>
  <g>
    <path d="M 0.9046471118927002 89.462158203125 C 0.9033800959587097 89.78939056396484 0.9047447443008423 89.36357116699219 0.8988081812858582 89.6218490600586 C 0.8771260380744934 89.2538833618164 0.8482688665390015 90.25092315673828 0.8684324026107788 92.67945098876953 C 1.0087108612060547 96.13789367675781 1.3791731595993042 97.30603790283203 2.2367327213287354 98.90415954589844 C 3.909730911254883 102.76193237304688 6.8588175773620605 105.06507110595703 11.569583892822266 107.7713394165039 C 17.969745635986328 111.66544342041016 25.33435821533203 114.09705352783203 34.14849853515625 116.00619506835938 C 43.52313232421875 117.7925033569336 51.40846252441406 118.4868392944336 57.598426818847656 118.89617156982422 C 63.34589767456055 119.26061248779297 69.84258270263672 119.02227020263672 78.35816955566406 118.1288833618164 C 89.12432098388672 117.05597686767578 99.87873077392578 115.01167297363281 110.4151840209961 110.59161376953125 C 119.88139343261719 105.9443359375 124.62296295166016 101.64331817626953 126.23320770263672 96.48074340820312 C 126.74151611328125 94.29988098144531 126.71593475341797 93.65304565429688 126.1861343383789 89.37622833251953 C 125.402099609375 85.34256744384766 124.87735748291016 83.8780746459961 124.60968017578125 80.46880340576172 C 124.46060943603516 78.5142822265625 124.62145233154297 78.52510070800781 125.42776489257812 74.44420623779297 C 126.32125854492188 70.89997100830078 126.89573669433594 68.82324981689453 127.2965087890625 62.54235076904297 C 127.47721099853516 57.61835861206055 127.43194580078125 55.78608703613281 127.19097900390625 51.884300231933594 C 126.65296936035156 46.629058837890625 125.40608215332031 42.10120391845703 122.73242950439453 36.33095169067383 C 118.43189239501953 28.02591323852539 112.82200622558594 21.58709144592285 105.35245513916016 16.606342315673828 C 96.99976348876953 11.810452461242676 87.31338500976562 9.541117668151855 75.3666000366211 8.800471305847168 C 64.07945251464844 8.52960205078125 54.02931213378906 9.979368209838867 43.460052490234375 13.771194458007812 C 32.968406677246094 18.446544647216797 23.855175018310547 25.094131469726562 15.744203567504883 36.071964263916016 C 8.989351272583008 45.79557800292969 5.026030540466309 54.84734344482422 2.9193949699401855 65.02513885498047" stroke-width="2.0" fill="rgb(252, 194, 27)" opacity="1.0" stroke="rgb(252, 194, 27)" stroke-opacity="1.0" stroke-linecap="round" stroke-linejoin="round"/>
    <path d="M 32.878929138183594 71.21434783935547 C 32.90418243408203 71.25321197509766 32.85608673095703 71.19083404541016 32.90129089355469 71.29598999023438 C 33.08911895751953 71.7382583618164 33.85803985595703 72.17674255371094 35.31010818481445 71.702880859375 C 37.15532684326172 71.5252685546875 39.145137786865234 71.9100570678711 41.82743453979492 71.85347747802734 C 44.98320007324219 71.99964904785156 47.59419631958008 72.45397186279297 49.448177337646484 72.55387115478516 C 50.39725875854492 72.45976257324219 49.691009521484375 72.33931732177734 47.4374885559082 72.46048736572266 C 44.715335845947266 72.65444946289062 42.12083435058594 72.373046875 39.4636344909668 71.86276245117188 C 37.19790267944336 71.47689819335938 35.883846282958984 71.27139282226562 35.31502914428711 71.33753967285156 C 35.59857940673828 71.58524322509766 37.47704315185547 71.75348663330078 40.712181091308594 72.03044128417969 C 44.50013732910156 72.60790252685547 49.026424407958984 73.30110931396484 54.2593994140625 74.1676025390625 C 59.00822830200195 75.08454895019531 62.864402770996094 75.85247039794922 66.18464660644531 76.59593200683594 C 68.758056640625 77.5101547241211 70.26673126220703 77.91947937011719 71.23725891113281 77.5991439819336 C 71.84680938720703 77.08177185058594 71.8529052734375 76.31829071044922 71.76786041259766 75.23319244384766 C 71.29975891113281 74.41845703125 69.90340423583984 73.8709716796875 68.2186050415039 73.39765930175781 C 66.10689544677734 72.98252868652344 63.068511962890625 72.37065124511719 59.364498138427734 71.39859008789062 C 54.90867614746094 70.33179473876953 49.80501937866211 69.46524810791016 44.89570999145508 68.79206085205078 C 40.910221099853516 68.25285339355469 37.79998779296875 67.92301177978516 35.566993713378906 67.83721923828125 C 34.11659240722656 67.90725708007812 33.22621154785156 68.02288818359375 32.69561767578125 67.81556701660156 C 32.353267669677734 67.23702239990234 32.09449768066406 66.4461898803711 31.97791290283203 65.27701568603516 C 32.044578552246094 64.04792785644531 32.04802703857422 63.321197509765625 32.02072525024414 62.76591873168945 C 32.23490524291992 62.56375503540039 32.40214157104492 63.3755989074707 32.306575775146484 64.56776428222656" stroke-width="2.0" fill="rgb(255, 0, 0)" opacity="1.0" stroke="rgb(255, 0, 0)" stroke-opacity="1.0" stroke-linecap="round" stroke-linejoin="round"/>
    <path d="M 40.99284744262695 34.47239685058594 C 40.994651794433594 34.47739791870117 40.96516799926758 34.46577835083008 40.98058319091797 34.43210220336914 C 41.326045989990234 34.469051361083984 41.9916877746582 34.924251556396484 42.432456970214844 35.5518913269043 C 42.509315490722656 35.89680480957031 42.52029800415039 36.303279876708984 42.24024200439453 36.64749526977539 C 41.80624771118164 36.42852783203125 41.712074279785156 36.040252685546875 41.83904266357422 35.76329040527344 C 41.89065933227539 35.331912994384766 41.508968353271484 34.93416976928711 40.35508346557617 34.80178451538086 C 38.8090934753418 34.86894226074219 37.41348648071289 35.10341262817383 36.02451705932617 35.74856948852539 C 34.56960678100586 36.71209716796875 33.34626007080078 37.86802673339844 32.270233154296875 39.40438461303711 C 31.350664138793945 40.988990783691406 30.91535758972168 42.28277587890625 30.79911231994629 43.713592529296875 C 30.815616607666016 45.2080192565918 31.240495681762695 46.48939895629883 31.93551254272461 47.700294494628906 C 32.64529800415039 48.77756881713867 33.55174255371094 49.57645034790039 34.56560516357422 50.20832824707031 C 35.46395492553711 50.63043212890625 36.47255325317383 50.6536750793457 37.61696243286133 50.53059005737305 C 38.57262420654297 50.465328216552734 39.43852615356445 50.099212646484375 40.48271560668945 49.40592956542969 C 41.574005126953125 48.696014404296875 42.543216705322266 47.82271957397461 43.37742614746094 46.87552261352539 C 44.06521224975586 46.12942886352539 44.598201751708984 45.5056266784668 45.02726745605469 44.811126708984375 C 45.32386016845703 44.014671325683594 45.441986083984375 43.237186431884766 45.40119934082031 42.528411865234375 C 45.36785125732422 41.71223068237305 45.43525695800781 40.914215087890625 45.44996643066406 40.259971618652344 C 45.439456939697266 39.56463623046875 45.41752624511719 38.87089538574219 45.26779556274414 38.19824981689453 C 45.095481872558594 37.51045608520508 44.833438873291016 37.09592056274414 44.32270431518555 36.92287826538086 C 43.95933151245117 36.743736267089844 43.902259826660156 36.68273162841797 43.80055618286133 36.54780197143555 C 43.66437911987305 36.05723571777344 43.51271438598633 35.72538375854492 43.08892822265625 35.40151596069336" stroke-width="2.0" fill="rgb(0, 255, 0)" opacity="1.0" stroke="rgb(0, 255, 0)" stroke-opacity="1.0" stroke-linecap="round" stroke-linejoin="round"/>
    <path d="M 77.15277099609375 43.03232192993164 C 77.15745544433594 43.04024887084961 77.14042663574219 43.02383804321289 77.2079086303711 43.016845703125 C 77.51038360595703 43.142154693603516 77.92620849609375 43.656063079833984 78.19308471679688 44.003318786621094 C 78.23352813720703 43.8231315612793 77.8123550415039 43.62777328491211 77.06986236572266 43.76199722290039 C 76.57734680175781 43.96792984008789 76.27461242675781 43.92511749267578 76.1861801147461 43.66144561767578 C 76.75596618652344 43.217960357666016 77.52579498291016 42.52668762207031 77.90038299560547 41.91514205932617 C 77.92233276367188 41.86874771118164 77.52872467041016 42.27701950073242 76.99759674072266 42.602481842041016 C 76.663330078125 43.00452423095703 76.08692169189453 43.53232192993164 75.01689910888672 43.808372497558594 C 73.814697265625 43.8995246887207 72.82233428955078 43.91348648071289 71.92231750488281 44.056209564208984 C 71.03030395507812 44.53847122192383 70.46034240722656 45.23460006713867 69.99214935302734 46.47090530395508 C 69.28719329833984 48.20317077636719 68.93585968017578 49.638519287109375 69.1168441772461 51.144004821777344 C 69.38290405273438 53.110755920410156 70.04898834228516 54.68486022949219 71.2833251953125 56.263484954833984 C 72.73853302001953 58.01140594482422 74.59113311767578 58.623226165771484 76.99600982666016 58.24164581298828 C 79.23372650146484 57.744571685791016 80.73318481445312 56.70568084716797 81.77415466308594 55.180274963378906 C 82.58634185791016 54.05692672729492 83.06253814697266 52.990718841552734 83.40814208984375 51.624996185302734 C 83.7447738647461 50.66572189331055 83.85388946533203 49.879554748535156 83.80203247070312 48.75361251831055 C 83.8451156616211 48.00843048095703 83.80648803710938 47.70454406738281 83.63115692138672 47.20808792114258 C 83.52899169921875 46.8701057434082 83.3370132446289 46.590248107910156 83.15731048583984 45.98396301269531 C 83.2204360961914 45.32592010498047 83.03145599365234 44.60061264038086 82.40794372558594 43.657562255859375 C 81.54497528076172 42.65388488769531 80.12074279785156 41.826358795166016 78.11884307861328 41.41966247558594 C 76.04055786132812 41.448482513427734 74.2149887084961 42.026214599609375 72.98832702636719 42.983524322509766" stroke-width="2.0" fill="rgb(0, 0, 255)" opacity="1.0" stroke="rgb(0, 0, 255)" stroke-opacity="1.0" stroke-linecap="round" stroke-linejoin="round"/>
  </g>
</svg>
