<?xml version="1.0" ?>
<svg xmlns="http://www.w3.org/2000/svg" version="1.1" width="128" height="128">
  <defs/>
  <g>
    <path d="M 0.9379995465278625 99.30657196044922 C 0.9366787075996399 99.69497680664062 0.9373014569282532 99.2396011352539 0.9325961470603943 99.48313903808594 C 0.9310051798820496 99.07283020019531 0.9677568078041077 100.35013580322266 1.155227780342102 102.9633560180664 C 1.7404141426086426 107.23253631591797 3.4488470554351807 109.48286437988281 7.960545539855957 113.23124694824219 C 15.679245948791504 118.96845245361328 23.492319107055664 121.78671264648438 31.119613647460938 123.42362213134766 C 37.33039474487305 124.98834991455078 41.274044036865234 125.6579818725586 46.31144714355469 126.06614685058594 C 51.72272872924805 126.64573669433594 53.86681365966797 126.90740203857422 56.64846420288086 127.00846099853516 C 62.18013381958008 127.1844253540039 66.76763153076172 127.16255950927734 71.59782409667969 126.9109878540039 C 78.35938262939453 126.65889739990234 83.49710845947266 126.04871368408203 90.96190643310547 124.30034637451172 C 105.51187896728516 121.68120574951172 117.76315307617188 116.59333038330078 124.54552459716797 107.40247344970703 C 126.85768127441406 103.65362548828125 127.2661361694336 102.54475402832031 127.16246795654297 98.10044860839844 C 126.90641021728516 95.57684326171875 126.41255950927734 94.91132354736328 125.5214614868164 91.92266845703125 C 124.52147674560547 89.8789291381836 123.54613494873047 88.54680633544922 122.53755187988281 84.03820037841797 C 121.81088256835938 80.73538970947266 122.11668395996094 77.92893981933594 123.76952362060547 69.79305267333984 C 125.19219970703125 63.50294494628906 125.84111785888672 60.07078170776367 126.29659271240234 51.93981170654297 C 126.36245727539062 43.24750900268555 125.46619415283203 38.303619384765625 123.00907897949219 30.59381103515625 C 118.5977554321289 18.133140563964844 109.40203857421875 9.712203025817871 94.71292114257812 4.364583969116211 C 86.03308868408203 1.6216952800750732 79.7749252319336 0.8908675312995911 71.69417572021484 0.810388445854187 C 66.423095703125 0.8245508670806885 63.46674728393555 1.2741398811340332 55.48344039916992 3.2011606693267822 C 40.41080093383789 7.594744682312012 25.925214767456055 17.935302734375 14.327582359313965 35.82148742675781 C 7.130356788635254 48.88113784790039 4.134709358215332 58.2022705078125 2.5631136894226074 68.24922180175781" stroke-width="2.0" fill="rgb(252, 194, 27)" opacity="1.0" stroke="rgb(252, 194, 27)" stroke-opacity="1.0" stroke-linecap="round" stroke-linejoin="round"/>
    <path d="M 24.23118782043457 76.4256820678711 C 24.24636459350586 76.4592056274414 24.221782684326172 76.36335754394531 24.214876174926758 76.28201293945312 C 24.1265869140625 76.4433822631836 24.01386833190918 77.10216522216797 24.136272430419922 77.39775085449219 C 24.514345169067383 77.73456573486328 24.800397872924805 78.46356201171875 25.217605590820312 78.782958984375 C 25.969383239746094 78.85334777832031 26.79425048828125 78.5797348022461 27.772066116333008 78.1279067993164 C 29.098663330078125 77.90725708007812 30.634952545166016 77.47164154052734 32.4908332824707 76.68167877197266 C 34.86790084838867 75.84980773925781 37.57430648803711 75.16207885742188 40.644325256347656 74.26840209960938 C 44.439327239990234 73.1297378540039 48.635215759277344 72.15510559082031 52.691070556640625 70.9222412109375 C 56.583492279052734 69.74102020263672 59.99313735961914 69.05833435058594 62.7918815612793 68.1672592163086 C 65.68180847167969 67.10042572021484 68.68404388427734 66.08014678955078 71.09070587158203 65.51624298095703 C 72.77565002441406 65.46258544921875 74.12638854980469 65.85013580322266 75.37881469726562 66.88306427001953 C 76.75171661376953 67.93379974365234 78.19566345214844 68.50556182861328 79.34542846679688 69.17952728271484 C 80.14825439453125 69.8218002319336 80.80694580078125 69.92689514160156 81.62068176269531 69.73193359375 C 82.57099151611328 69.40876007080078 83.26044464111328 68.67283630371094 83.444580078125 67.79400634765625 C 83.1463851928711 66.93775177001953 82.27079772949219 65.89639282226562 80.79948425292969 64.92782592773438 C 79.1622085571289 64.03016662597656 77.5775375366211 63.08750915527344 76.19403839111328 62.258548736572266 C 75.29000854492188 61.50232696533203 74.50750732421875 60.89263153076172 73.21051025390625 60.63240051269531 C 71.45286560058594 60.64278030395508 69.14299011230469 61.11178207397461 66.00934600830078 62.2292366027832 C 62.59819412231445 63.339500427246094 59.27347946166992 64.17337036132812 55.84328842163086 65.12728118896484 C 52.64653396606445 66.08858489990234 49.70171356201172 66.88258361816406 46.86945724487305 67.6126937866211 C 44.506568908691406 68.26176452636719 42.224708557128906 69.03124237060547 39.16584396362305 69.81563568115234" stroke-width="2.0" fill="rgb(255, 0, 0)" opacity="1.0" stroke="rgb(255, 0, 0)" stroke-opacity="1.0" stroke-linecap="round" stroke-linejoin="round"/>
    <path d="M 42.01377487182617 39.82628631591797 C 42.02301025390625 39.82156753540039 42.01480484008789 39.81644058227539 42.06354522705078 39.8027229309082 C 42.115970611572266 39.83982467651367 41.959075927734375 39.519256591796875 41.13644027709961 38.26375198364258 C 38.805702209472656 37.29924011230469 34.899635314941406 37.369468688964844 31.293193817138672 37.38326644897461 C 29.012746810913086 37.3791618347168 27.518451690673828 37.56709671020508 26.869646072387695 37.12021255493164 C 27.225812911987305 36.04935073852539 28.15521240234375 34.78948974609375 29.56229591369629 33.37823486328125 C 31.5384464263916 31.83448600769043 33.80924987792969 30.674488067626953 36.14598083496094 30.68906021118164 C 38.094905853271484 31.916061401367188 39.51799392700195 33.63703155517578 40.92158126831055 35.100982666015625 C 42.65150833129883 35.92007064819336 44.80677795410156 36.10771179199219 47.46761703491211 35.931636810302734 C 50.48677444458008 35.65105438232422 53.56996536254883 35.53694152832031 56.585716247558594 35.50896072387695 C 59.27615737915039 35.38139724731445 61.279850006103516 35.54518127441406 62.789085388183594 36.087093353271484 C 64.126953125 36.7587776184082 65.13997650146484 37.52704620361328 65.70207214355469 38.32768249511719 C 66.05851745605469 39.03878402709961 66.25886535644531 39.60677719116211 66.22981262207031 40.08114242553711 C 66.14083862304688 40.381004333496094 66.15889739990234 40.47943878173828 66.19576263427734 40.396568298339844 C 66.22940826416016 40.085357666015625 66.13568115234375 39.6819953918457 65.826904296875 39.14535903930664 C 65.50270080566406 38.395835876464844 65.08121490478516 37.699337005615234 64.32260131835938 37.0083122253418 C 63.32206344604492 36.30725860595703 61.91211700439453 35.90144729614258 59.92958450317383 35.72292709350586 C 57.62846755981445 35.53634262084961 55.135765075683594 35.59490203857422 52.6409797668457 35.761173248291016 C 50.5615119934082 35.846092224121094 48.62832260131836 36.00883483886719 46.647796630859375 36.06652069091797 C 45.02288055419922 35.81800079345703 43.544456481933594 35.758628845214844 42.0780029296875 35.82785415649414 C 41.39320373535156 35.7021484375 41.437469482421875 36.01740646362305 41.73345184326172 37.121185302734375" stroke-width="2.0" fill="rgb(0, 255, 0)" opacity="1.0" stroke="rgb(0, 255, 0)" stroke-opacity="1.0" stroke-linecap="round" stroke-linejoin="round"/>
    <path d="M 75.06208801269531 34.455074310302734 C 75.06616973876953 34.45969009399414 75.0400390625 34.45745086669922 75.06595611572266 34.47254943847656 C 75.36975860595703 34.55564498901367 75.88868713378906 34.87627410888672 76.22627258300781 35.07771682739258 C 76.29290771484375 34.91627883911133 76.06169128417969 34.658790588378906 75.70072174072266 34.667484283447266 C 75.63872528076172 34.73090744018555 75.72748565673828 34.674072265625 75.71158599853516 34.81501770019531 C 75.8979263305664 35.05230712890625 76.1327896118164 35.061378479003906 75.88851928710938 34.892921447753906 C 75.21435546875 34.558345794677734 73.96763610839844 34.09627914428711 72.0464096069336 33.598960876464844 C 70.1540756225586 33.03504943847656 68.72319030761719 32.43141555786133 67.52100372314453 31.876129150390625 C 66.53707885742188 31.484601974487305 65.81529998779297 31.33338165283203 65.08045959472656 31.481552124023438 C 64.53302764892578 31.91008186340332 64.46170806884766 32.517539978027344 64.4741439819336 33.324676513671875 C 64.307861328125 34.282470703125 64.20384216308594 35.17073440551758 64.25476837158203 36.132503509521484 C 64.4637680053711 37.359493255615234 65.02821350097656 38.58806228637695 65.9312744140625 39.78667068481445 C 67.010498046875 41.21516418457031 68.30607604980469 42.49333190917969 70.11945343017578 43.39063262939453 C 72.3626937866211 44.170509338378906 74.57624816894531 44.313072204589844 76.64369201660156 43.60505294799805 C 78.4644775390625 42.991668701171875 79.67648315429688 42.41429138183594 80.46343231201172 41.40473937988281 C 81.19632720947266 40.67533874511719 81.68689727783203 40.215728759765625 81.99872589111328 39.44938659667969 C 82.47833251953125 38.80522537231445 82.87559509277344 38.34596252441406 83.04683685302734 37.66193771362305 C 83.25495910644531 37.08076477050781 83.31759643554688 36.78384780883789 83.10570526123047 36.59928894042969 C 82.70003509521484 36.52409744262695 81.80790710449219 36.33980941772461 80.44319915771484 35.84504318237305 C 78.87559509277344 35.18594741821289 76.96527099609375 34.62617874145508 74.98509979248047 34.35779571533203 C 73.54322814941406 34.39914321899414 72.5655288696289 34.693382263183594 72.03873443603516 35.02581787109375" stroke-width="2.0" fill="rgb(0, 0, 255)" opacity="1.0" stroke="rgb(0, 0, 255)" stroke-opacity="1.0" stroke-linecap="round" stroke-linejoin="round"/>
  </g>
</svg>
