<?xml version="1.0" ?>
<svg xmlns="http://www.w3.org/2000/svg" version="1.1" width="128" height="128">
  <defs/>
  <g>
    <path d="M 1.367864966392517 89.60308074951172 C 1.365920901298523 89.89202117919922 1.3676940202713013 89.50859069824219 1.3584946393966675 89.72138977050781 C 1.3287358283996582 89.33734893798828 1.2934424877166748 90.3167953491211 1.3408790826797485 92.9717788696289 C 1.5750576257705688 96.24066925048828 2.207280397415161 97.83314514160156 3.556307792663574 100.14912414550781 C 5.889703750610352 103.7306900024414 9.51306438446045 105.92102813720703 14.74985122680664 108.68141174316406 C 21.107982635498047 111.95169830322266 28.296390533447266 114.10448455810547 36.58150863647461 115.83946228027344 C 45.055816650390625 117.34960174560547 52.118370056152344 117.89019775390625 57.77943420410156 118.19845581054688 C 63.36548614501953 118.48039245605469 69.67437744140625 118.28343963623047 77.52516174316406 117.52291870117188 C 87.35684967041016 116.6264877319336 97.31360626220703 114.8153076171875 107.29972839355469 111.13142395019531 C 117.1224594116211 107.015869140625 123.07511901855469 102.55091857910156 125.43785858154297 97.17240142822266 C 126.26383209228516 94.92750549316406 126.31194305419922 94.1860122680664 125.7335433959961 89.81011199951172 C 124.8793716430664 85.63809967041016 124.36125946044922 84.31547546386719 124.15123748779297 81.02601623535156 C 124.0896987915039 78.95556640625 124.23716735839844 78.92981719970703 124.87870788574219 74.99345397949219 C 125.70372009277344 71.59659576416016 126.35204315185547 69.42555236816406 126.8769760131836 63.432552337646484 C 127.13213348388672 58.51369857788086 127.0611801147461 56.33818435668945 126.70223999023438 51.93354415893555 C 125.92467498779297 46.14159393310547 124.3173599243164 41.09693908691406 121.40802764892578 35.456260681152344 C 117.33336639404297 27.958328247070312 112.16903686523438 22.10831642150879 105.04840850830078 17.403850555419922 C 96.89295196533203 12.749717712402344 87.4621353149414 10.428832054138184 75.8785171508789 9.571139335632324 C 64.53244018554688 9.175068855285645 54.105220794677734 10.613597869873047 43.58589553833008 14.398606300354004 C 33.54930114746094 18.926660537719727 24.95016098022461 25.13323402404785 17.224496841430664 35.11113357543945 C 10.462652206420898 44.41652297973633 6.130542755126953 53.756717681884766 3.664419651031494 64.4467544555664" stroke-width="2.0" fill="rgb(252, 194, 27)" opacity="1.0" stroke="rgb(252, 194, 27)" stroke-opacity="1.0" stroke-linecap="round" stroke-linejoin="round"/>
    <path d="M 48.605918884277344 98.87020874023438 C 48.6218376159668 98.90591430664062 48.58647918701172 98.83940887451172 48.64155578613281 98.84233093261719 C 48.668827056884766 98.88371276855469 48.6700553894043 99.23756408691406 48.750003814697266 99.6588134765625 C 49.09479522705078 100.23014831542969 49.61233901977539 100.5401840209961 50.4697265625 100.65265655517578 C 51.669822692871094 100.87899780273438 52.81651306152344 100.40807342529297 53.98741149902344 99.12838745117188 C 55.57160949707031 97.73542022705078 57.30978012084961 96.36518096923828 58.848854064941406 94.75125122070312 C 61.05397415161133 92.95807647705078 64.2525634765625 91.42261505126953 67.73687744140625 89.76768493652344 C 71.69740295410156 87.98690795898438 75.65608978271484 86.97222900390625 78.6185073852539 86.45330047607422 C 81.99195861816406 86.14395141601562 85.78875732421875 86.40310668945312 88.69712829589844 87.14026641845703 C 91.65540313720703 87.78697967529297 94.84835815429688 88.7824935913086 96.91007995605469 90.31239318847656 C 98.76376342773438 91.67733764648438 101.04611206054688 93.06768035888672 102.85005187988281 94.42577362060547 C 104.13861846923828 95.42544555664062 105.1507568359375 96.12030029296875 105.99647521972656 96.49701690673828 C 107.16243743896484 96.34578704833984 108.37357330322266 95.76240539550781 109.09156799316406 95.00634765625 C 109.4273452758789 94.00402069091797 109.22734069824219 92.78173828125 108.27764892578125 91.42096710205078 C 106.99314880371094 89.69022369384766 105.23585510253906 87.92345428466797 102.56704711914062 86.2271728515625 C 99.62830352783203 84.24662780761719 96.67243957519531 82.70777130126953 93.68924713134766 81.70492553710938 C 91.49678802490234 80.87152862548828 90.31541442871094 80.7283935546875 89.51110076904297 80.58700561523438 C 88.69175720214844 80.41543579101562 87.36263275146484 80.38507080078125 85.462646484375 80.22221374511719 C 83.16824340820312 79.97093963623047 80.13943481445312 79.894287109375 76.2918472290039 80.3109130859375 C 72.4742431640625 81.07075500488281 69.13309478759766 81.87476348876953 66.15828704833984 82.86685943603516 C 63.366859436035156 84.26862335205078 60.50719451904297 85.93236541748047 57.481651306152344 88.01383209228516" stroke-width="2.0" fill="rgb(255, 0, 0)" opacity="1.0" stroke="rgb(255, 0, 0)" stroke-opacity="1.0" stroke-linecap="round" stroke-linejoin="round"/>
    <path d="M 57.48793029785156 60.32585525512695 C 57.49870300292969 60.33363723754883 57.503665924072266 60.32924270629883 57.52777862548828 60.36091995239258 C 57.378196716308594 60.409828186035156 57.074398040771484 60.365047454833984 56.970035552978516 59.5634880065918 C 57.16105270385742 58.38788986206055 57.35737991333008 58.06794738769531 58.275962829589844 58.172611236572266 C 60.249786376953125 58.33100509643555 62.49034881591797 58.2196044921875 64.64877319335938 57.66525650024414 C 66.62023162841797 56.95734405517578 68.08488464355469 56.130638122558594 68.78978729248047 55.51165771484375 C 68.88286590576172 55.421417236328125 68.61722564697266 55.58538055419922 68.05696868896484 55.53089904785156 C 67.6932601928711 55.26673126220703 68.24805450439453 55.12220764160156 69.48693084716797 54.88905715942383 C 70.53201293945312 54.6812629699707 71.27408599853516 55.328834533691406 71.91300201416016 56.61195373535156 C 72.42034912109375 57.96236801147461 72.90826416015625 59.58000564575195 72.89334869384766 61.441768646240234 C 71.83786010742188 63.42330551147461 70.24703216552734 65.29398345947266 68.1482162475586 66.96990966796875 C 65.21261596679688 68.10186767578125 62.01544189453125 67.94734191894531 59.34504699707031 66.86300659179688 C 57.4107666015625 65.56295776367188 56.38877868652344 64.39337158203125 56.079193115234375 64.11615753173828 C 55.87445831298828 64.81005859375 56.089515686035156 65.8736801147461 57.0311279296875 67.1784439086914 C 58.356597900390625 68.61813354492188 60.09566116333008 69.64218139648438 61.880531311035156 70.07087707519531 C 63.1087760925293 70.23561096191406 64.14089965820312 69.84598541259766 65.52177429199219 68.67550659179688 C 66.91320037841797 67.54199981689453 67.94938659667969 66.57525634765625 68.84794616699219 65.10536193847656 C 69.67233276367188 63.78334426879883 70.43196105957031 63.03494644165039 71.32591247558594 62.197731018066406 C 71.99105072021484 61.85954666137695 72.0423812866211 62.60848617553711 72.12397766113281 63.691097259521484 C 72.27236938476562 65.10525512695312 71.81086730957031 66.98728942871094 70.97958374023438 68.15444946289062 C 70.21696472167969 68.94364929199219 68.86225891113281 70.4297103881836 66.56909942626953 71.57550811767578" stroke-width="2.0" fill="rgb(0, 255, 0)" opacity="1.0" stroke="rgb(0, 255, 0)" stroke-opacity="1.0" stroke-linecap="round" stroke-linejoin="round"/>
    <path d="M 96.69905090332031 60.25603485107422 C 96.71868133544922 60.268184661865234 96.69105529785156 60.25465774536133 96.7917709350586 60.2192268371582 C 97.02754974365234 60.035377502441406 97.4172592163086 59.989532470703125 98.31877136230469 60.28159713745117 C 99.98719024658203 60.93995666503906 101.91889190673828 61.93477249145508 103.77352142333984 62.919857025146484 C 105.54624938964844 63.317230224609375 106.75181579589844 63.607975006103516 107.1305160522461 63.950660705566406 C 107.28713989257812 63.79508590698242 107.18479919433594 63.34199523925781 106.54476165771484 62.76692199707031 C 105.99812316894531 62.05366134643555 105.72657012939453 61.697994232177734 105.30032348632812 61.647682189941406 C 104.93608856201172 61.395408630371094 104.8311767578125 61.49281692504883 104.5521240234375 62.172428131103516 C 103.93598937988281 62.52006149291992 103.1743392944336 62.3050651550293 102.38148498535156 61.7650032043457 C 101.74958801269531 60.920413970947266 101.27616119384766 60.09502410888672 100.71492004394531 59.71792221069336 C 100.11688232421875 60.12202453613281 99.50665283203125 61.13164138793945 98.69973754882812 62.72715377807617 C 97.93826293945312 64.53191375732422 97.85572052001953 66.10523223876953 98.41259002685547 68.1562271118164 C 98.96635437011719 70.53271484375 99.90750885009766 72.1694564819336 101.46434783935547 73.19023132324219 C 103.15648651123047 74.21910095214844 104.94378662109375 74.66846466064453 106.93399810791016 74.17878723144531 C 108.73338317871094 73.62513732910156 110.03130340576172 72.90211486816406 111.0569076538086 71.49847412109375 C 111.86595916748047 70.47236633300781 112.32565307617188 69.75685119628906 112.71650695800781 68.24893951416016 C 113.10343933105469 66.79595184326172 113.19277954101562 66.01111602783203 113.180419921875 65.1391372680664 C 113.11502075195312 64.34156036376953 112.59209442138672 64.10509490966797 111.50020599365234 63.731658935546875 C 110.01177215576172 63.162872314453125 108.13224029541016 62.71506118774414 106.22456359863281 61.81690979003906 C 104.78851318359375 60.544166564941406 103.5530014038086 59.433082580566406 102.51478576660156 58.126060485839844 C 101.84911346435547 57.534934997558594 101.01225280761719 58.66254425048828 99.9361343383789 60.3819465637207" stroke-width="2.0" fill="rgb(0, 0, 255)" opacity="1.0" stroke="rgb(0, 0, 255)" stroke-opacity="1.0" stroke-linecap="round" stroke-linejoin="round"/>
  </g>
</svg>
