<?xml version="1.0" ?>
<svg xmlns="http://www.w3.org/2000/svg" version="1.1" width="128" height="128">
  <defs/>
  <g>
    <path d="M 1.4514973163604736 90.22342681884766 C 1.4502798318862915 90.52118682861328 1.4519805908203125 90.13265228271484 1.4438568353652954 90.38910675048828 C 1.4049391746520996 89.85568237304688 1.3300738334655762 90.678466796875 1.2994811534881592 92.91368865966797 C 1.4441428184509277 95.31195831298828 1.9183290004730225 96.19990539550781 2.9301819801330566 98.02640533447266 C 4.738045692443848 101.42447662353516 7.703914165496826 103.70584869384766 12.014114379882812 106.09529113769531 C 17.75341796875 109.42913055419922 24.799184799194336 111.80429077148438 32.8665771484375 113.73578643798828 C 41.17985534667969 115.60646057128906 48.78887939453125 116.48379516601562 55.051795959472656 116.9023666381836 C 60.40537643432617 117.30386352539062 65.6049575805664 117.30104064941406 72.10296630859375 116.90706634521484 C 80.03182220458984 116.43574523925781 87.63731384277344 115.46712493896484 95.73127746582031 113.54070281982422 C 104.90796661376953 111.39958190917969 113.02899932861328 108.42089080810547 119.09949493408203 104.236083984375 C 123.08026885986328 101.18193054199219 125.22433471679688 98.84014892578125 126.2949447631836 95.46015930175781 C 126.765380859375 93.77656555175781 126.87200927734375 93.68472290039062 126.8117446899414 91.71146392822266 C 126.7764892578125 89.54895782470703 126.75086975097656 89.0392074584961 126.73699951171875 86.77470397949219 C 126.76765441894531 83.53907012939453 126.7073974609375 82.2006607055664 126.47811889648438 79.45262145996094 C 126.076171875 74.50082397460938 125.43160247802734 70.27606201171875 124.41241455078125 64.73915100097656 C 122.8278579711914 57.04642868041992 120.4509506225586 50.0184440612793 117.11991882324219 42.855674743652344 C 112.88654327392578 33.86228561401367 107.06519317626953 26.523487091064453 99.46629333496094 20.682392120361328 C 91.86036682128906 15.286993980407715 83.15135955810547 12.219850540161133 72.0062255859375 10.849349021911621 C 61.08476257324219 10.082640647888184 51.46781921386719 10.878914833068848 42.01799011230469 13.732322692871094 C 32.58959197998047 17.268938064575195 24.2618408203125 22.785673141479492 16.937231063842773 32.4879150390625 C 10.732076644897461 41.821231842041016 6.810758590698242 51.686073303222656 4.410676002502441 63.02023696899414" stroke-width="2.0" fill="rgb(252, 194, 27)" opacity="1.0" stroke="rgb(252, 194, 27)" stroke-opacity="1.0" stroke-linecap="round" stroke-linejoin="round"/>
    <path d="M 42.97964096069336 94.49653625488281 C 42.99819564819336 94.53217315673828 42.9638557434082 94.46720123291016 43.002288818359375 94.46204376220703 C 43.02070999145508 94.54142761230469 43.06061935424805 94.92472839355469 43.18396759033203 95.4103012084961 C 43.491233825683594 96.12995910644531 43.94810104370117 96.67555236816406 44.755699157714844 96.80770111083984 C 45.75875473022461 96.66714477539062 46.72980880737305 95.9623031616211 47.711509704589844 94.86891174316406 C 49.017791748046875 93.58939361572266 50.67584991455078 92.32293701171875 52.41557312011719 91.20339965820312 C 54.72999954223633 90.13360595703125 57.6431999206543 89.34712982177734 59.91116714477539 88.70978546142578 C 61.65471649169922 87.96578216552734 63.62727355957031 87.67086791992188 65.46705627441406 87.66243743896484 C 67.65278625488281 87.6199951171875 70.7976303100586 87.87633514404297 73.8260269165039 88.68489074707031 C 76.2899169921875 89.65101623535156 78.57345581054688 90.60103607177734 80.2240982055664 91.92827606201172 C 81.56376647949219 93.32188415527344 83.03339385986328 94.36721801757812 84.34587097167969 95.2486343383789 C 85.40581512451172 96.05071258544922 86.25821685791016 96.40232849121094 87.10285949707031 96.43170928955078 C 87.93824768066406 96.30180358886719 88.34758758544922 95.79195404052734 88.54204559326172 94.7008285522461 C 88.64604187011719 93.32290649414062 87.92717742919922 92.0133285522461 86.46842193603516 90.68423461914062 C 84.99823760986328 89.21058654785156 83.20015716552734 87.92460632324219 80.69120025634766 86.47313690185547 C 77.95693969726562 84.89380645751953 75.21852111816406 84.03620147705078 72.44507598876953 83.58485412597656 C 69.94451904296875 83.25408935546875 67.93092346191406 83.23149108886719 66.4696044921875 83.15410614013672 C 65.638671875 82.88499450683594 65.25870513916016 82.90943145751953 65.03128814697266 82.97081756591797 C 64.6587142944336 82.85118103027344 63.573020935058594 82.97212982177734 61.87310028076172 83.21031188964844 C 60.5127067565918 83.31903839111328 59.69755935668945 83.45337677001953 58.83063507080078 83.50672912597656 C 57.42277526855469 83.71436309814453 54.9891357421875 84.55561828613281 51.7987060546875 85.91393280029297" stroke-width="2.0" fill="rgb(255, 0, 0)" opacity="1.0" stroke="rgb(255, 0, 0)" stroke-opacity="1.0" stroke-linecap="round" stroke-linejoin="round"/>
    <path d="M 38.03061294555664 59.09198760986328 C 38.05413055419922 59.107757568359375 38.01527404785156 59.09183120727539 38.076011657714844 59.05813980102539 C 38.24848175048828 59.08519744873047 38.60813903808594 59.27074432373047 39.08116912841797 59.229549407958984 C 40.10163497924805 59.73875045776367 41.95159912109375 61.13104248046875 44.72488784790039 62.52853775024414 C 47.570831298828125 63.765785217285156 48.84917449951172 64.60614013671875 47.4554443359375 65.01498413085938 C 43.723140716552734 64.82698822021484 39.07392883300781 64.56016540527344 34.559593200683594 64.6444320678711 C 30.527841567993164 64.83053588867188 27.434226989746094 64.72488403320312 25.238346099853516 64.32083892822266 C 23.765344619750977 63.852787017822266 23.115026473999023 63.61049270629883 22.9359130859375 64.22026824951172 C 22.91693878173828 65.42446899414062 23.38831329345703 66.90511322021484 24.26782989501953 68.97552490234375 C 25.33932876586914 71.29804992675781 27.227121353149414 73.14767456054688 29.97197914123535 75.02901458740234 C 32.76125717163086 77.00825500488281 35.675968170166016 77.84933471679688 39.08480453491211 77.95948791503906 C 42.38553237915039 78.23823547363281 45.235870361328125 77.94092559814453 48.07139205932617 76.96858215332031 C 50.57584762573242 76.21287536621094 52.392852783203125 74.99244689941406 54.132904052734375 73.1115493774414 C 55.5809211730957 71.48236083984375 56.28464889526367 70.00814819335938 56.943023681640625 68.1060562133789 C 57.55101013183594 66.14295959472656 57.5525016784668 64.73259735107422 56.95436477661133 63.987308502197266 C 55.6972541809082 63.993438720703125 53.504638671875 64.50462341308594 50.78847122192383 64.79540252685547 C 48.485355377197266 64.88481903076172 47.349456787109375 65.07493591308594 47.751773834228516 65.05319213867188 C 49.391422271728516 64.99002075195312 51.61873245239258 65.06503295898438 54.012447357177734 64.84120178222656 C 56.077880859375 64.31463623046875 57.26481246948242 63.88003158569336 57.672489166259766 63.13335037231445 C 57.77395248413086 61.966182708740234 57.28216552734375 61.526390075683594 56.14088439941406 61.95170974731445 C 55.253623962402344 62.875606536865234 54.21678924560547 64.36026000976562 52.282562255859375 65.10012817382812" stroke-width="2.0" fill="rgb(0, 255, 0)" opacity="1.0" stroke="rgb(0, 255, 0)" stroke-opacity="1.0" stroke-linecap="round" stroke-linejoin="round"/>
    <path d="M 70.57318115234375 60.86723327636719 C 70.58567810058594 60.912742614746094 70.56129455566406 60.843780517578125 70.56578826904297 60.79343032836914 C 70.52725982666016 60.73292541503906 70.33704376220703 61.175777435302734 70.213134765625 61.65815353393555 C 70.21771240234375 62.754310607910156 70.3486099243164 64.77850341796875 72.7431869506836 65.53543090820312 C 77.87519836425781 64.83546447753906 81.48783874511719 64.360595703125 81.41571044921875 65.0162353515625 C 79.63796997070312 65.78535461425781 77.61629486083984 65.913330078125 75.4378890991211 65.72925567626953 C 74.1155776977539 65.55984497070312 73.51700592041016 64.99905395507812 72.35411834716797 64.02389526367188 C 71.34599304199219 62.608646392822266 71.01295471191406 61.56976318359375 69.99687957763672 61.870277404785156 C 68.74561309814453 62.94584655761719 68.81455993652344 64.61351013183594 69.57451629638672 67.72798156738281 C 70.26847076416016 71.19757843017578 72.15753173828125 73.58737182617188 75.13384246826172 75.49922180175781 C 78.1280517578125 77.44482421875 81.37326049804688 78.39849090576172 85.01641082763672 78.29801940917969 C 88.62285614013672 78.3887710571289 91.73741149902344 77.89363861083984 94.48149871826172 76.4107894897461 C 96.99620819091797 75.21640014648438 98.56884002685547 74.43089294433594 99.505615234375 73.35578918457031 C 100.5037841796875 72.48665618896484 101.19656372070312 71.66898345947266 101.63426208496094 70.4481201171875 C 102.17031860351562 69.86365509033203 102.283203125 69.81053161621094 102.37059783935547 68.90524291992188 C 103.02684783935547 67.8749771118164 103.55267333984375 66.85865020751953 103.89788055419922 65.0484619140625 C 104.24702453613281 63.676387786865234 104.13822937011719 63.05864715576172 103.99346923828125 62.00883865356445 C 104.19093322753906 61.14382553100586 104.11590576171875 60.5341796875 103.8005142211914 58.868690490722656 C 103.53233337402344 56.91730880737305 102.78584289550781 55.666160583496094 101.2940444946289 54.99639129638672 C 99.16617584228516 55.256622314453125 95.75411224365234 56.78315734863281 90.42693328857422 59.23423385620117 C 84.28533935546875 62.000545501708984 79.31266784667969 64.058349609375 76.26923370361328 65.0242691040039" stroke-width="2.0" fill="rgb(0, 0, 255)" opacity="1.0" stroke="rgb(0, 0, 255)" stroke-opacity="1.0" stroke-linecap="round" stroke-linejoin="round"/>
  </g>
</svg>
