<?xml version="1.0" ?>
<svg xmlns="http://www.w3.org/2000/svg" version="1.1" width="128" height="128">
  <defs/>
  <g>
    <path d="M 3.9258861541748047 89.32658386230469 C 3.9198691844940186 89.47012329101562 3.9267618656158447 89.20262145996094 3.911076545715332 89.24085235595703 C 3.8322980403900146 88.93968963623047 3.6568455696105957 89.70657348632812 3.5348615646362305 92.3436508178711 C 3.655968189239502 94.94073486328125 4.209187030792236 96.07675170898438 5.295590400695801 97.64208984375 C 6.998928546905518 100.38898468017578 9.469696998596191 102.17787170410156 12.820608139038086 104.33614349365234 C 17.201461791992188 107.11978149414062 22.604347229003906 109.1844253540039 28.811399459838867 111.04790496826172 C 35.67937469482422 113.0555648803711 42.707088470458984 114.32929992675781 49.77949905395508 114.9898452758789 C 56.59581756591797 115.60027313232422 62.89809036254883 115.80579376220703 69.92154693603516 115.58670043945312 C 78.12962341308594 115.26327514648438 85.71782684326172 114.47746276855469 93.71699523925781 112.72129821777344 C 102.71092987060547 110.78547668457031 110.65351867675781 108.1337890625 116.9779052734375 104.29352569580078 C 121.52945709228516 101.46460723876953 124.09725189208984 99.12146759033203 125.5125503540039 95.74308013916016 C 126.30934143066406 93.63853454589844 126.67552947998047 92.48772430419922 126.84175109863281 89.4298324584961 C 126.97956085205078 86.16500091552734 127.04073333740234 84.94976043701172 127.02027893066406 82.67620086669922 C 126.98170471191406 79.17461395263672 126.83975982666016 77.308837890625 126.491455078125 74.23815155029297 C 125.9338150024414 69.31342315673828 125.01805877685547 65.26225280761719 123.32125854492188 59.91044998168945 C 120.5687026977539 51.81686019897461 116.73272705078125 44.931758880615234 111.91793060302734 38.65367126464844 C 106.28607940673828 31.01870346069336 98.65230560302734 24.78605079650879 89.4015884399414 19.713163375854492 C 80.50518798828125 15.124752044677734 70.68065643310547 12.664656639099121 59.28382873535156 11.941253662109375 C 49.071598052978516 11.652091026306152 40.37166976928711 12.416346549987793 31.82781982421875 14.735779762268066 C 23.64291000366211 17.249252319335938 16.804670333862305 21.0174503326416 11.542009353637695 26.667057037353516 C 7.772825241088867 30.706117630004883 5.388389587402344 33.773773193359375 3.825491189956665 39.04247283935547" stroke-width="2.0" fill="rgb(252, 194, 27)" opacity="1.0" stroke="rgb(252, 194, 27)" stroke-opacity="1.0" stroke-linecap="round" stroke-linejoin="round"/>
    <path d="M 21.645421981811523 90.63375091552734 C 21.659221649169922 90.74261474609375 21.612491607666016 90.54106140136719 21.644615173339844 90.52733612060547 C 21.859853744506836 90.60086059570312 22.54365348815918 91.61595153808594 23.84412956237793 93.40569305419922 C 25.674274444580078 96.02508544921875 27.807544708251953 97.77139282226562 30.362363815307617 98.46034240722656 C 33.2447509765625 98.44152069091797 35.87684631347656 97.57449340820312 38.26674270629883 96.25413513183594 C 41.15469741821289 95.3397216796875 44.18185806274414 95.16285705566406 46.956687927246094 95.11099243164062 C 49.71760177612305 95.30165100097656 52.001686096191406 95.98574829101562 53.53505325317383 96.89984130859375 C 55.155189514160156 97.90180969238281 57.14925003051758 99.04789733886719 58.88780975341797 100.27124786376953 C 60.78672409057617 101.16993713378906 63.2854118347168 101.49623107910156 65.8856201171875 101.63036346435547 C 68.65665435791016 101.61420440673828 71.31310272216797 101.1335220336914 73.34286499023438 100.486328125 C 75.2035140991211 99.81150817871094 76.7457046508789 99.15696716308594 77.61859893798828 98.37822723388672 C 78.42115783691406 97.37100219726562 79.19513702392578 96.30237579345703 79.88077545166016 95.02725219726562 C 80.74835205078125 93.60279846191406 81.2826919555664 92.34158325195312 81.48343658447266 90.90199279785156 C 81.81666564941406 89.43417358398438 81.89611053466797 88.3689956665039 81.67359924316406 87.40259552001953 C 81.50701141357422 86.5766372680664 81.08267211914062 86.30098724365234 80.69947052001953 85.89358520507812 C 81.00349426269531 85.52808380126953 81.43816375732422 85.30565643310547 81.38468170166016 84.51700592041016 C 81.1066665649414 83.27676391601562 80.53610229492188 81.79839324951172 79.47571563720703 79.75899505615234 C 78.1072006225586 76.96026611328125 75.62898254394531 74.20228576660156 71.74281311035156 71.96701049804688 C 67.90534210205078 69.8829116821289 64.45098114013672 69.4873046875 60.50292205810547 71.59808349609375 C 56.30445861816406 73.94007110595703 52.22107696533203 75.88667297363281 48.197784423828125 78.05601501464844 C 44.6838264465332 79.1839370727539 41.27849197387695 78.3091049194336 36.925968170166016 76.4169692993164" stroke-width="2.0" fill="rgb(255, 0, 0)" opacity="1.0" stroke="rgb(255, 0, 0)" stroke-opacity="1.0" stroke-linecap="round" stroke-linejoin="round"/>
    <path d="M 22.359342575073242 77.93733978271484 C 22.372392654418945 77.9615249633789 22.347423553466797 77.8885269165039 22.36599349975586 77.88258361816406 C 22.42593765258789 78.13545989990234 22.471637725830078 78.65309143066406 22.43472671508789 78.82146453857422 C 22.432859420776367 79.36015319824219 22.727745056152344 80.12034606933594 23.707658767700195 80.00743103027344 C 25.359983444213867 79.7627182006836 27.602907180786133 80.06140899658203 30.73924446105957 80.28848266601562 C 34.26011276245117 80.27794647216797 36.82639694213867 80.40702819824219 38.27726364135742 80.18862915039062 C 39.33774185180664 79.92784118652344 39.88992691040039 80.01490020751953 39.84382629394531 80.00820922851562 C 39.64027404785156 79.83785247802734 39.630584716796875 79.74906921386719 39.675846099853516 79.74514770507812 C 40.06922912597656 79.76589965820312 41.362457275390625 79.84098052978516 43.20492935180664 79.72549438476562 C 45.06877136230469 79.17940521240234 47.05588912963867 78.24855041503906 48.75208282470703 77.54487609863281 C 49.36064910888672 77.33224487304688 49.30964660644531 76.94783782958984 49.23858642578125 76.85523986816406 C 48.781646728515625 77.58000946044922 48.09955978393555 78.12545013427734 47.82563400268555 78.1786117553711 C 47.6406364440918 78.23005676269531 47.540645599365234 78.08574676513672 48.09773635864258 77.7897720336914 C 49.08415985107422 77.6581039428711 50.1036491394043 77.39461517333984 51.20580291748047 76.75639343261719 C 52.14927673339844 76.31094360351562 52.70013427734375 76.2865982055664 53.111080169677734 76.18101501464844 C 53.30532455444336 75.97871398925781 53.010005950927734 75.93512725830078 52.75613021850586 76.0353012084961 C 53.26457977294922 75.93756103515625 54.067657470703125 75.71833038330078 54.30084228515625 75.72340393066406 C 54.083229064941406 75.656005859375 53.710628509521484 75.4972152709961 52.839332580566406 75.86890411376953 C 51.60798263549805 76.3641586303711 50.535888671875 76.6976089477539 49.625511169433594 77.20413208007812 C 48.90723419189453 77.60044860839844 48.117515563964844 77.99698638916016 46.80436706542969 78.63777160644531 C 45.12005615234375 79.0206069946289 43.063907623291016 79.2220230102539 40.19319152832031 79.45198059082031" stroke-width="2.0" fill="rgb(0, 255, 0)" opacity="1.0" stroke="rgb(0, 255, 0)" stroke-opacity="1.0" stroke-linecap="round" stroke-linejoin="round"/>
    <path d="M 48.95323944091797 50.1158447265625 C 48.95672607421875 50.11246109008789 48.92628860473633 50.10867691040039 48.92527389526367 50.110233306884766 C 49.24467086791992 50.26518630981445 50.069583892822266 50.38644790649414 50.99982452392578 49.94614028930664 C 51.5008430480957 49.46042251586914 51.90192413330078 49.69001770019531 52.84900665283203 50.43608093261719 C 54.42654037475586 51.8538818359375 56.591896057128906 53.88204574584961 59.5263786315918 55.88986587524414 C 63.245601654052734 57.70973587036133 67.11644744873047 59.150699615478516 70.26786804199219 59.82503128051758 C 71.93656921386719 59.811222076416016 71.66182708740234 59.62540054321289 69.64263153076172 59.456974029541016 C 66.7901840209961 59.03515625 63.7395133972168 58.3508415222168 60.27579116821289 57.523536682128906 C 56.48762893676758 56.73306655883789 53.349666595458984 56.03889846801758 51.37239074707031 55.61793518066406 C 50.29695129394531 55.66270446777344 50.15858459472656 55.98979568481445 50.672183990478516 56.62445068359375 C 51.28491973876953 57.38939666748047 52.0365104675293 57.85917663574219 52.81673049926758 58.320072174072266 C 53.43871307373047 58.89280319213867 54.19894790649414 59.245361328125 55.22180938720703 59.75004959106445 C 56.5429573059082 60.64173889160156 58.530643463134766 61.4676628112793 61.25123977661133 62.1945686340332 C 64.02619934082031 62.801387786865234 66.43722534179688 63.12333679199219 68.71240234375 63.27452850341797 C 70.77796936035156 63.34463119506836 72.23572540283203 63.12046432495117 73.18225860595703 62.69255065917969 C 73.89391326904297 62.61116027832031 74.42271423339844 62.75764083862305 75.1219253540039 62.68293762207031 C 76.03378295898438 62.445030212402344 76.67654418945312 61.97150421142578 77.12016296386719 61.04716491699219 C 77.51718139648438 59.86317443847656 77.33547973632812 58.88044738769531 76.49235534667969 58.21615219116211 C 75.65917205810547 57.77333450317383 74.73229217529297 57.69367980957031 73.12779235839844 58.153236389160156 C 71.22473907470703 58.639347076416016 69.3376693725586 58.65714645385742 67.24189758300781 58.412357330322266 C 64.95755767822266 57.89449691772461 62.51029586791992 57.12148666381836 59.56953430175781 56.278011322021484" stroke-width="2.0" fill="rgb(0, 0, 255)" opacity="1.0" stroke="rgb(0, 0, 255)" stroke-opacity="1.0" stroke-linecap="round" stroke-linejoin="round"/>
  </g>
</svg>
