<?xml version="1.0" ?>
<svg xmlns="http://www.w3.org/2000/svg" version="1.1" width="128" height="128">
  <defs/>
  <g>
    <path d="M 0.8998437523841858 87.17218017578125 C 0.8999588489532471 87.44073486328125 0.9001978635787964 87.07280731201172 0.8955464959144592 87.29930114746094 C 0.8699488639831543 86.93505096435547 0.823917806148529 87.98900604248047 0.792443573474884 90.70941925048828 C 0.8612993955612183 93.47837829589844 1.1359403133392334 94.4886245727539 1.7533949613571167 95.5345458984375 C 2.9690513610839844 98.37593841552734 5.157253265380859 100.49134826660156 8.67121696472168 102.63532257080078 C 13.789406776428223 105.96658325195312 20.649799346923828 108.60401153564453 28.835826873779297 110.63038635253906 C 37.84912872314453 112.81578063964844 46.24188995361328 114.03428649902344 53.680110931396484 114.2237548828125 C 61.19886016845703 114.24773406982422 68.47354125976562 114.33183288574219 75.7143325805664 114.0708999633789 C 84.12635803222656 113.63323974609375 93.28050994873047 112.27681732177734 102.79412841796875 109.57734680175781 C 112.32003784179688 106.78272247314453 119.4561996459961 103.44458770751953 123.51799774169922 99.3397216796875 C 125.59168243408203 97.10979461669922 126.5553970336914 95.68574523925781 127.00607299804688 92.60287475585938 C 127.2400894165039 90.66387176513672 127.31949615478516 90.62539672851562 127.3335189819336 88.4278335571289 C 127.3785171508789 85.73858642578125 127.40436553955078 85.11649322509766 127.39213562011719 83.00067138671875 C 127.37761688232422 79.85443115234375 127.31134033203125 78.46078491210938 127.15147399902344 75.79972076416016 C 126.89434051513672 71.59064483642578 126.44711303710938 68.78135681152344 125.65319061279297 64.24752044677734 C 124.44029998779297 56.952842712402344 122.56045532226562 50.71592712402344 119.53654479980469 44.6868782043457 C 115.56649780273438 36.83183288574219 110.49859619140625 30.29195785522461 103.5680160522461 24.702709197998047 C 96.0549545288086 18.814388275146484 87.18853759765625 15.329510688781738 75.20704650878906 13.869715690612793 C 62.19636154174805 12.878362655639648 50.83351516723633 13.503852844238281 40.90428161621094 16.236722946166992 C 31.560043334960938 19.325754165649414 23.314485549926758 24.406112670898438 15.978050231933594 33.20586395263672 C 9.968833923339844 40.99656295776367 6.181990623474121 48.826080322265625 3.8456249237060547 58.64048767089844" stroke-width="2.0" fill="rgb(252, 194, 27)" opacity="1.0" stroke="rgb(252, 194, 27)" stroke-opacity="1.0" stroke-linecap="round" stroke-linejoin="round"/>
    <path d="M 25.961990356445312 97.02423858642578 C 25.980876922607422 97.08973693847656 25.94566535949707 96.98895263671875 25.971040725708008 97.02018737792969 C 26.054893493652344 97.09952545166016 26.47972297668457 97.63848114013672 27.494230270385742 98.40467834472656 C 29.20276641845703 99.83768463134766 31.404193878173828 100.94428253173828 33.9773063659668 101.54993438720703 C 36.7238883972168 102.02302551269531 39.74055480957031 101.98269653320312 43.20976257324219 101.87531280517578 C 46.85197067260742 101.98278045654297 50.27788543701172 101.69258117675781 53.553829193115234 101.1301040649414 C 57.08993148803711 100.7397232055664 60.82075881958008 100.78710174560547 64.16541290283203 100.88516998291016 C 67.39982604980469 100.8127670288086 70.47730255126953 100.75371551513672 72.9378433227539 100.80030822753906 C 75.67061614990234 101.00064086914062 78.63098907470703 101.32088470458984 80.96830749511719 101.71895599365234 C 83.73246002197266 101.77379608154297 87.00100708007812 101.65689086914062 89.51497650146484 101.74534606933594 C 92.04067993164062 101.64912414550781 94.88199615478516 101.48944091796875 97.15301513671875 101.16265106201172 C 99.45159149169922 100.73922729492188 102.13040924072266 100.37523651123047 104.94496154785156 99.63225555419922 C 107.57701873779297 98.75225067138672 109.22735595703125 97.98123931884766 110.11457824707031 96.68355560302734 C 110.80645751953125 94.98133087158203 110.66865539550781 93.62019348144531 109.38697814941406 92.35459899902344 C 107.7050552368164 90.64119720458984 105.61749267578125 89.21297454833984 102.57292938232422 88.48872375488281 C 99.37610626220703 87.70431518554688 96.6386947631836 87.49800872802734 93.89492797851562 87.77546691894531 C 91.60887908935547 87.61174774169922 90.17822265625 87.73480224609375 89.05152130126953 87.88429260253906 C 88.0677261352539 87.91279602050781 86.95064544677734 87.90090942382812 85.40331268310547 87.97612762451172 C 83.30844116210938 88.2813949584961 80.15824890136719 89.05876922607422 76.19949340820312 90.40060424804688 C 72.26947784423828 91.82222747802734 68.2376480102539 92.23751068115234 63.60086441040039 91.96643829345703 C 58.83159637451172 91.43804168701172 53.777835845947266 90.18854522705078 47.5432014465332 89.12056732177734" stroke-width="2.0" fill="rgb(255, 0, 0)" opacity="1.0" stroke="rgb(255, 0, 0)" stroke-opacity="1.0" stroke-linecap="round" stroke-linejoin="round"/>
    <path d="M 32.02959060668945 62.93764114379883 C 32.04661560058594 62.96097946166992 32.02946472167969 62.943058013916016 32.043426513671875 62.99875259399414 C 32.07887268066406 63.061424255371094 32.24068832397461 62.916221618652344 32.407501220703125 61.901920318603516 C 32.684600830078125 61.02557373046875 33.5672721862793 61.14744567871094 36.16705322265625 61.58049011230469 C 40.33125686645508 62.85357666015625 44.18843078613281 64.69241333007812 46.9343376159668 66.21099853515625 C 49.511566162109375 67.37085723876953 52.36103820800781 68.69412231445312 54.94001007080078 70.15593719482422 C 57.08892822265625 71.39607238769531 58.52920150756836 72.56977844238281 58.82989501953125 73.24882507324219 C 58.83277130126953 72.97745513916016 59.26983642578125 73.00780487060547 59.58101272583008 73.47148895263672 C 59.70716094970703 73.47583770751953 60.24032974243164 74.06472778320312 60.71013641357422 75.23286437988281 C 60.647945404052734 75.96798706054688 60.07026672363281 76.66422271728516 58.32909393310547 77.37195587158203 C 55.63581848144531 77.47695922851562 53.08426284790039 77.38868713378906 51.10327911376953 77.02066040039062 C 49.43806457519531 76.86705780029297 48.16445541381836 77.12110900878906 47.93920135498047 77.09697723388672 C 48.72626876831055 77.01107788085938 50.00239562988281 76.8866195678711 51.9215202331543 76.4649658203125 C 54.10735321044922 76.2624740600586 56.1068229675293 76.22620391845703 58.30882263183594 75.96632385253906 C 60.48162841796875 75.79251861572266 61.733638763427734 75.87339782714844 61.98070526123047 75.88037109375 C 61.500762939453125 75.64421081542969 60.360511779785156 75.6887435913086 59.07793426513672 75.7859878540039 C 58.725059509277344 75.8207778930664 59.73890686035156 75.88846588134766 61.28377914428711 75.85459899902344 C 62.32004928588867 75.78255462646484 62.59123229980469 75.68439483642578 62.387271881103516 75.53619384765625 C 61.96299362182617 75.54219818115234 61.37617492675781 75.72250366210938 60.907257080078125 75.77267456054688 C 60.73806381225586 76.12748718261719 60.41959762573242 77.03296661376953 59.61065673828125 77.61666870117188 C 58.327232360839844 77.93073272705078 56.40201187133789 78.04993438720703 53.70043182373047 77.25264739990234" stroke-width="2.0" fill="rgb(0, 255, 0)" opacity="1.0" stroke="rgb(0, 255, 0)" stroke-opacity="1.0" stroke-linecap="round" stroke-linejoin="round"/>
    <path d="M 36.573604583740234 70.29317474365234 C 36.60832977294922 70.36528015136719 36.56657791137695 70.26750183105469 36.59846496582031 70.35826873779297 C 36.28226852416992 70.246337890625 35.28815460205078 69.85110473632812 33.79409408569336 69.87584686279297 C 33.016231536865234 72.62493896484375 34.76114273071289 75.85609436035156 42.251224517822266 76.30579376220703 C 55.36332702636719 75.99983978271484 68.69953155517578 76.12025451660156 78.64787292480469 74.68380737304688 C 85.36173248291016 72.3877944946289 88.47250366210938 70.72687530517578 89.40642547607422 68.49520111083984 C 91.0299072265625 66.10720825195312 92.42669677734375 65.51325225830078 92.49183654785156 65.6399917602539 C 92.3890609741211 65.32088470458984 92.01689147949219 65.65943145751953 90.02468872070312 67.15362548828125 C 87.37065887451172 68.61862182617188 85.30874633789062 70.00625610351562 83.10993957519531 71.8649673461914 C 81.41307067871094 73.54780578613281 81.0663833618164 74.95973205566406 81.18921661376953 76.37530517578125 C 81.72806549072266 77.53665161132812 83.26642608642578 78.11746978759766 85.82666778564453 77.59268188476562 C 89.42366790771484 76.75048065185547 93.86729431152344 76.15390014648438 98.69844818115234 75.57623291015625 C 102.73943328857422 75.75555419921875 104.9661636352539 76.41609954833984 106.35640716552734 76.54548645019531 C 108.06339263916016 76.07854461669922 109.15296936035156 75.20671081542969 109.1375961303711 73.41512298583984 C 108.64659881591797 71.42330932617188 107.02678680419922 70.68366241455078 103.51483917236328 70.98551940917969 C 99.03408813476562 71.64778900146484 94.86997985839844 72.39588928222656 92.62110900878906 71.90779876708984 C 93.68284606933594 70.29674530029297 97.08645629882812 68.57270812988281 101.52125549316406 66.45045471191406 C 105.32463073730469 64.9778060913086 107.20732116699219 64.08930206298828 107.89219665527344 62.286834716796875 C 108.0403823852539 60.453208923339844 107.09004974365234 59.55161666870117 104.63243865966797 59.45505142211914 C 100.25786590576172 60.823570251464844 93.97136688232422 64.10975646972656 87.68761444091797 68.7321548461914 C 83.00519561767578 73.16180419921875 78.6143798828125 75.24214935302734 72.4527359008789 75.55233001708984" stroke-width="2.0" fill="rgb(0, 0, 255)" opacity="1.0" stroke="rgb(0, 0, 255)" stroke-opacity="1.0" stroke-linecap="round" stroke-linejoin="round"/>
  </g>
</svg>
