<?xml version="1.0" ?>
<svg xmlns="http://www.w3.org/2000/svg" version="1.1" width="128" height="128">
  <defs/>
  <g>
    <path d="M 0.9675585627555847 90.36559295654297 C 0.9665366411209106 90.65090942382812 0.9677326083183289 90.27590942382812 0.9625179767608643 90.52106475830078 C 0.9392996430397034 90.08491516113281 0.8971232175827026 90.88768005371094 0.8853965401649475 93.1631088256836 C 0.9902763366699219 95.8505859375 1.3216480016708374 96.51285552978516 2.072997808456421 97.8209228515625 C 3.5674571990966797 101.30586242675781 6.252190589904785 103.70389556884766 10.460590362548828 106.22563171386719 C 16.38347053527832 110.06746673583984 23.671266555786133 112.679443359375 32.06509017944336 114.74082946777344 C 40.762264251708984 116.74104309082031 48.667091369628906 117.65676879882812 55.236331939697266 118.03984832763672 C 60.72040939331055 118.4034423828125 65.82899475097656 118.36304473876953 72.27620697021484 117.93441772460938 C 80.14682006835938 117.48118591308594 87.64710235595703 116.53610229492188 95.9112548828125 114.56890106201172 C 105.5771255493164 112.28622436523438 114.23666381835938 109.0061264038086 120.51915740966797 104.296875 C 124.24063110351562 100.9315414428711 126.02384948730469 98.71138000488281 126.80409240722656 95.6831283569336 C 127.1248779296875 93.89534759521484 127.20695495605469 93.6645736694336 127.1740951538086 91.6254653930664 C 127.14599609375 89.36842346191406 127.11527252197266 88.81763458251953 127.09550476074219 86.84959411621094 C 127.10884857177734 83.90675354003906 127.05017852783203 82.6579360961914 126.85537719726562 79.8116683959961 C 126.51252746582031 74.86957550048828 125.92337799072266 70.75305938720703 124.93907928466797 65.2077865600586 C 123.37456512451172 57.34589767456055 120.94717407226562 49.9493522644043 117.41883850097656 42.28813934326172 C 112.91284942626953 32.76777648925781 106.76008605957031 25.068828582763672 98.76203155517578 19.07622528076172 C 90.82272338867188 13.771270751953125 81.92991638183594 10.850061416625977 70.80683135986328 9.67498779296875 C 60.279579162597656 9.074809074401855 51.168296813964844 9.884150505065918 41.783653259277344 12.807683944702148 C 31.949230194091797 16.628833770751953 23.241872787475586 22.62148094177246 15.807641983032227 33.151702880859375 C 9.714341163635254 42.89869689941406 5.981655120849609 52.68609619140625 3.773329973220825 63.989158630371094" stroke-width="2.0" fill="rgb(252, 194, 27)" opacity="1.0" stroke="rgb(252, 194, 27)" stroke-opacity="1.0" stroke-linecap="round" stroke-linejoin="round"/>
    <path d="M 52.54883575439453 91.00779724121094 C 52.57107925415039 91.05311584472656 52.51871109008789 90.99650573730469 52.5316276550293 91.08111572265625 C 52.736961364746094 91.18318176269531 53.52613830566406 91.371826171875 54.890411376953125 91.45646667480469 C 56.15612030029297 91.86591339111328 56.565433502197266 92.11026000976562 56.75946807861328 92.01087188720703 C 57.22570037841797 91.83456420898438 57.14009094238281 91.75582885742188 56.3412971496582 91.63499450683594 C 55.92158508300781 91.49244689941406 56.185543060302734 91.48820495605469 56.61885452270508 91.67740631103516 C 57.66339111328125 91.99105072021484 59.684539794921875 92.4785385131836 61.961181640625 92.86981201171875 C 64.2486343383789 92.8685073852539 66.50553131103516 92.81184387207031 68.16856384277344 92.76763916015625 C 69.48411560058594 92.74597930908203 70.81905364990234 92.73932647705078 72.1501693725586 92.5653076171875 C 73.95510864257812 92.19390106201172 76.14987182617188 91.69340515136719 78.10777282714844 90.96903228759766 C 79.99223327636719 90.08771514892578 81.57379150390625 89.48234558105469 82.60452270507812 88.91020202636719 C 83.5869140625 88.1765365600586 84.41227722167969 87.58796691894531 85.35000610351562 86.9883041381836 C 86.6511001586914 86.21253967285156 87.88351440429688 85.07833099365234 89.4095230102539 83.23172760009766 C 91.1861572265625 81.35811614990234 91.78119659423828 79.90982055664062 91.09004211425781 78.63207244873047 C 90.34120178222656 77.51702880859375 89.41316986083984 77.05830383300781 88.1810302734375 76.9404525756836 C 87.27137756347656 77.0503158569336 86.39949798583984 78.02239990234375 85.19332885742188 79.37278747558594 C 84.0105972290039 80.69866943359375 83.13553619384766 81.66084289550781 82.59940338134766 82.2068099975586 C 82.17958068847656 82.70069885253906 81.44641876220703 83.23748016357422 80.18162536621094 83.95861053466797 C 78.43415832519531 84.83557891845703 76.44945526123047 85.59204864501953 74.41519165039062 86.30503845214844 C 72.46790313720703 86.95220947265625 70.45830535888672 87.20664978027344 68.51597595214844 87.0625991821289 C 67.00377655029297 86.90559387207031 65.46562194824219 86.86058044433594 63.25576400756836 86.91944885253906" stroke-width="2.0" fill="rgb(255, 0, 0)" opacity="1.0" stroke="rgb(255, 0, 0)" stroke-opacity="1.0" stroke-linecap="round" stroke-linejoin="round"/>
    <path d="M 40.274295806884766 47.137351989746094 C 40.28486633300781 47.150936126708984 40.24120330810547 47.133697509765625 40.275718688964844 47.11538314819336 C 40.733299255371094 47.18366622924805 41.76438903808594 47.54672622680664 42.757320404052734 47.70370101928711 C 43.47162628173828 47.734222412109375 44.24964904785156 48.30025100708008 45.36086654663086 49.31959533691406 C 46.53818130493164 50.60021209716797 47.15365982055664 51.93272399902344 46.874244689941406 52.75556564331055 C 45.674930572509766 52.98139953613281 43.67490768432617 52.85667419433594 41.219974517822266 52.871429443359375 C 38.74769973754883 53.017730712890625 36.70844268798828 52.985816955566406 35.189056396484375 53.02561950683594 C 34.10445785522461 52.973365783691406 33.47089385986328 52.87069320678711 32.890045166015625 53.366085052490234 C 32.24555206298828 54.392662048339844 32.06772232055664 55.64358139038086 32.14063262939453 57.14726638793945 C 32.11613464355469 58.72910690307617 32.54328918457031 60.2098388671875 33.49270248413086 61.89873123168945 C 34.52644348144531 63.58420181274414 35.940425872802734 64.61485290527344 37.786781311035156 65.3395004272461 C 39.46583557128906 65.96436309814453 41.095054626464844 65.81531524658203 42.831764221191406 65.03710174560547 C 44.21372604370117 64.17176055908203 45.133140563964844 63.00809860229492 45.8552131652832 61.62669372558594 C 46.39424133300781 60.33232116699219 46.72983932495117 59.14387130737305 47.02096176147461 58.03132247924805 C 47.27320098876953 56.94952392578125 47.4207763671875 55.84413146972656 47.427528381347656 54.656532287597656 C 47.24466323852539 53.55916976928711 46.864871978759766 52.790870666503906 46.34756851196289 52.33317947387695 C 45.723846435546875 52.00717544555664 45.08024978637695 51.858524322509766 44.42775344848633 51.86819839477539 C 43.849708557128906 51.85440444946289 43.388065338134766 52.027889251708984 43.020164489746094 52.34625244140625 C 42.95357131958008 52.576107025146484 43.17360305786133 52.74658966064453 43.53982162475586 52.61189270019531 C 44.18110275268555 52.27045822143555 44.78395080566406 52.444034576416016 44.93586730957031 52.74860382080078 C 44.78721618652344 52.70867919921875 44.25862121582031 52.98960876464844 43.21936798095703 53.091827392578125" stroke-width="2.0" fill="rgb(0, 255, 0)" opacity="1.0" stroke="rgb(0, 255, 0)" stroke-opacity="1.0" stroke-linecap="round" stroke-linejoin="round"/>
    <path d="M 86.04926300048828 48.654109954833984 C 86.06209564208984 48.65701675415039 86.0363540649414 48.64054870605469 86.1460189819336 48.58189392089844 C 86.46467590332031 48.7049446105957 86.66932678222656 49.20002365112305 86.59209442138672 49.28306579589844 C 86.55033111572266 48.816856384277344 86.47225189208984 48.83466339111328 86.47018432617188 49.0760612487793 C 86.75695037841797 48.85866165161133 86.6580810546875 48.61332702636719 86.07861328125 48.83501434326172 C 86.49730682373047 48.73784255981445 87.49273681640625 48.40608596801758 87.3046646118164 48.38001251220703 C 86.7650146484375 48.29521179199219 86.5042495727539 48.30158996582031 85.58692169189453 48.69171142578125 C 84.55384826660156 49.15739440917969 84.05028533935547 49.67931365966797 83.197998046875 50.45743179321289 C 82.03988647460938 51.27996826171875 81.58011627197266 51.9360466003418 81.32633209228516 53.14924240112305 C 80.69784545898438 54.88216018676758 80.54694366455078 56.223854064941406 80.9318618774414 57.94814682006836 C 81.25287628173828 60.34618377685547 82.22151184082031 62.29831314086914 84.10728454589844 64.28983306884766 C 86.02212524414062 66.17814636230469 88.19459533691406 66.25679016113281 90.78535461425781 65.18610382080078 C 92.83935546875 64.49331665039062 93.9287338256836 63.57553482055664 94.75440979003906 62.26461410522461 C 95.4552001953125 61.24938201904297 95.70587158203125 59.890621185302734 95.86162567138672 57.893280029296875 C 96.07246398925781 56.3403205871582 95.96968078613281 54.93141555786133 95.68736267089844 53.15556335449219 C 95.34684753417969 51.96284866333008 94.69217681884766 51.344539642333984 93.98401641845703 50.52283477783203 C 93.55647277832031 50.17998123168945 93.08699035644531 50.24071502685547 92.77668762207031 49.824913024902344 C 92.9744644165039 49.90086364746094 93.13150787353516 50.29541015625 93.15086364746094 49.93217086791992 C 93.26323699951172 49.30767822265625 92.99395751953125 48.901493072509766 92.22250366210938 48.44126892089844 C 91.33229064941406 47.9402961730957 90.24882507324219 47.6024169921875 88.92205810546875 47.425777435302734 C 87.54682159423828 47.39757537841797 85.8634033203125 47.93800735473633 84.10272979736328 49.03057861328125" stroke-width="2.0" fill="rgb(0, 0, 255)" opacity="1.0" stroke="rgb(0, 0, 255)" stroke-opacity="1.0" stroke-linecap="round" stroke-linejoin="round"/>
  </g>
</svg>
