<?xml version="1.0" ?>
<svg xmlns="http://www.w3.org/2000/svg" version="1.1" width="128" height="128">
  <defs/>
  <g>
    <path d="M 1.2970765829086304 90.60693359375 C 1.2956299781799316 90.90013122558594 1.2974873781204224 90.51508331298828 1.2901047468185425 90.77030181884766 C 1.256056785583496 90.28516387939453 1.1911362409591675 91.08219909667969 1.1654646396636963 93.29865264892578 C 1.2940232753753662 95.77024841308594 1.7169432640075684 96.50662994384766 2.660118341445923 98.19417572021484 C 4.434669017791748 101.69967651367188 7.446728229522705 104.10379028320312 11.962843894958496 106.72537994384766 C 18.04469108581543 110.2971420288086 25.370643615722656 112.75467681884766 33.57835388183594 114.74388122558594 C 41.813743591308594 116.56953430175781 49.282100677490234 117.34239196777344 55.516700744628906 117.6762924194336 C 60.784645080566406 118.00463104248047 65.80615997314453 117.96533203125 72.17847442626953 117.55052947998047 C 79.93868255615234 117.11528015136719 87.2227783203125 116.25802612304688 95.1172866821289 114.40544128417969 C 104.3900146484375 112.245361328125 112.85709381103516 109.17853546142578 119.31888580322266 104.71761322021484 C 123.45465850830078 101.354248046875 125.54874420166016 98.93716430664062 126.52645111083984 95.5872573852539 C 126.94670867919922 93.77217102050781 127.0562973022461 93.57307434082031 127.01875305175781 91.65306091308594 C 126.97943878173828 89.49471282958984 126.92938232421875 88.96694946289062 126.88890838623047 86.92538452148438 C 126.8993911743164 83.91609191894531 126.83338928222656 82.6264877319336 126.6080322265625 79.78242492675781 C 126.20834350585938 74.74737548828125 125.54032135009766 70.39730072021484 124.44815826416016 64.62916564941406 C 122.75074005126953 56.56388473510742 120.24039459228516 49.076560974121094 116.72415924072266 41.59102249145508 C 112.27021789550781 32.450523376464844 106.17735290527344 25.066444396972656 98.29216003417969 19.242393493652344 C 90.4853515625 14.053887367248535 81.6876449584961 11.181785583496094 70.6174545288086 10.01013469696045 C 60.110984802246094 9.432060241699219 51.03657913208008 10.26578140258789 41.842044830322266 13.14383602142334 C 32.3274040222168 16.86627769470215 23.85411262512207 22.593772888183594 16.52557373046875 32.599884033203125 C 10.37202262878418 42.12661361694336 6.503043174743652 52.01059341430664 4.173293590545654 63.406982421875" stroke-width="2.0" fill="rgb(252, 194, 27)" opacity="1.0" stroke="rgb(252, 194, 27)" stroke-opacity="1.0" stroke-linecap="round" stroke-linejoin="round"/>
    <path d="M 53.442047119140625 91.93917846679688 C 53.466880798339844 91.97598266601562 53.40979766845703 91.90337371826172 53.46470642089844 91.88510131835938 C 53.63040542602539 92.01375579833984 53.94695281982422 92.61434173583984 54.449066162109375 93.36248016357422 C 55.14671325683594 94.2020263671875 55.44387435913086 94.98263549804688 55.268165588378906 95.46524810791016 C 55.07478332519531 95.28085327148438 54.88433074951172 94.91783142089844 54.602813720703125 94.79492950439453 C 54.765655517578125 94.82366180419922 55.402427673339844 95.18597412109375 55.83516311645508 95.69794464111328 C 56.41960525512695 96.26158142089844 57.5070686340332 97.04541778564453 58.55592727661133 97.7740249633789 C 59.581363677978516 98.24030303955078 60.831329345703125 98.74564361572266 61.910888671875 99.20687866210938 C 62.99552536010742 99.46749877929688 64.39280700683594 99.39425659179688 65.96051025390625 99.11994934082031 C 67.83647155761719 98.76288604736328 69.76837921142578 98.1371078491211 71.3147964477539 97.42701721191406 C 72.60962677001953 96.7191390991211 73.5477066040039 95.82502746582031 74.1058120727539 94.85977172851562 C 74.60877227783203 94.03931427001953 74.98747253417969 93.16471099853516 75.3729248046875 92.21727752685547 C 75.9094467163086 91.31946563720703 76.27469635009766 90.06769561767578 76.5480728149414 88.37762451171875 C 76.52717590332031 86.6737060546875 75.73081970214844 85.03480529785156 74.72543334960938 83.20314025878906 C 73.89390563964844 81.54893493652344 72.60706329345703 80.38153076171875 70.96864318847656 79.10953521728516 C 69.15333557128906 77.97643280029297 66.52355194091797 77.58141326904297 63.16624069213867 77.67222595214844 C 60.174991607666016 78.04194641113281 58.34419631958008 78.8069839477539 57.63351058959961 79.46365356445312 C 57.646934509277344 79.60223388671875 57.98249053955078 79.54659271240234 58.21587371826172 79.62652587890625 C 58.18413162231445 79.7737045288086 58.08778762817383 80.14486694335938 58.21039962768555 80.59700775146484 C 58.750362396240234 80.60979461669922 59.08674621582031 80.21788024902344 58.69552230834961 79.56298828125 C 58.007904052734375 79.0699691772461 56.983638763427734 79.57269287109375 55.54568862915039 81.08460235595703" stroke-width="2.0" fill="rgb(255, 0, 0)" opacity="1.0" stroke="rgb(255, 0, 0)" stroke-opacity="1.0" stroke-linecap="round" stroke-linejoin="round"/>
    <path d="M 37.460140228271484 43.73875045776367 C 37.471458435058594 43.75189971923828 37.42821502685547 43.737342834472656 37.45667266845703 43.723262786865234 C 37.88313293457031 43.739078521728516 38.90610122680664 43.948299407958984 39.901309967041016 43.93772888183594 C 40.585914611816406 43.758575439453125 41.31956481933594 44.0319709777832 42.393829345703125 44.596290588378906 C 43.608795166015625 45.21822738647461 44.593475341796875 46.145179748535156 45.11883544921875 46.9770393371582 C 44.91435623168945 47.376731872558594 43.50107192993164 47.428401947021484 41.001155853271484 47.466163635253906 C 38.25635528564453 47.47453689575195 36.13084030151367 47.40253829956055 34.68577575683594 47.380374908447266 C 33.5943603515625 47.32872009277344 32.753604888916016 47.504634857177734 31.8687686920166 48.348426818847656 C 30.987146377563477 49.5008430480957 30.517311096191406 50.74020767211914 30.284809112548828 52.20119094848633 C 30.084665298461914 53.680484771728516 30.262224197387695 54.97142791748047 30.746084213256836 56.35166931152344 C 31.20635223388672 57.7012825012207 32.05958557128906 58.5587272644043 33.433597564697266 59.26588439941406 C 34.898555755615234 60.00695037841797 36.639530181884766 60.137229919433594 38.65802764892578 59.78215789794922 C 40.341835021972656 59.317169189453125 41.59749984741211 58.45668411254883 42.688941955566406 57.352481842041016 C 43.549468994140625 56.364688873291016 44.115203857421875 55.410221099853516 44.63912582397461 54.4400749206543 C 45.14947509765625 53.30672073364258 45.44890594482422 51.93009948730469 45.56548309326172 50.54566955566406 C 45.6048469543457 49.42000961303711 45.49436569213867 48.73662185668945 45.27993392944336 48.304813385009766 C 45.17662811279297 47.80175018310547 45.1400260925293 47.34260559082031 45.00639343261719 47.036190032958984 C 44.87382507324219 46.77368927001953 44.73383712768555 46.73268127441406 44.520328521728516 46.84318161010742 C 44.485591888427734 46.88164138793945 44.55558395385742 47.0846061706543 44.53595733642578 47.266395568847656 C 44.71174621582031 47.31344223022461 44.962745666503906 47.700862884521484 44.853981018066406 47.956764221191406 C 44.40326690673828 47.71607208251953 43.45060348510742 47.77726364135742 42.014041900634766 47.72576141357422" stroke-width="2.0" fill="rgb(0, 255, 0)" opacity="1.0" stroke="rgb(0, 255, 0)" stroke-opacity="1.0" stroke-linecap="round" stroke-linejoin="round"/>
    <path d="M 84.89411926269531 40.074031829833984 C 84.90582275390625 40.08888626098633 84.8749008178711 40.07215881347656 84.95098114013672 40.07564163208008 C 85.28018951416016 40.18791580200195 85.59588623046875 40.61204528808594 85.55386352539062 40.71519470214844 C 85.55786895751953 40.33171463012695 85.68138122558594 40.041748046875 85.71251678466797 39.97172164916992 C 86.07942962646484 39.85954666137695 86.56388092041016 39.71159362792969 86.6966552734375 39.948631286621094 C 86.97260284423828 40.2078742980957 87.14248657226562 39.81106948852539 86.61311340332031 39.50102615356445 C 86.04560089111328 39.58094787597656 85.63488006591797 39.52174377441406 84.73078155517578 39.57358169555664 C 83.65007019042969 39.876441955566406 83.10958862304688 40.017417907714844 82.65574645996094 40.39208984375 C 81.88888549804688 41.09675979614258 81.23221588134766 41.57530212402344 80.6100845336914 42.154300689697266 C 79.91239929199219 43.2475471496582 79.74771881103516 44.54356384277344 79.9461898803711 46.41957092285156 C 80.01176452636719 48.84428787231445 80.62809753417969 50.62981414794922 82.26024627685547 52.423004150390625 C 84.10633087158203 54.582218170166016 86.10977935791016 55.318809509277344 88.56566619873047 54.894142150878906 C 90.70763397216797 54.803985595703125 92.0369873046875 54.365699768066406 92.9424819946289 53.24753952026367 C 93.78927612304688 52.49519729614258 94.29986572265625 51.5107307434082 94.63069915771484 49.834476470947266 C 95.02467346191406 48.66267013549805 95.05120849609375 47.74800109863281 94.78114318847656 46.49452590942383 C 94.72271728515625 45.698421478271484 94.60603332519531 45.11214065551758 94.32202911376953 44.146053314208984 C 94.13773345947266 43.6187629699707 93.71636962890625 43.25226593017578 93.1657943725586 42.551998138427734 C 93.01408386230469 42.28971481323242 92.87688446044922 42.2901611328125 92.47046661376953 41.73952865600586 C 92.02941131591797 40.9924430847168 91.38105773925781 40.486595153808594 90.53324890136719 39.95537567138672 C 89.74359130859375 39.318241119384766 88.7338638305664 38.87751007080078 87.46011352539062 38.71027755737305 C 86.36451721191406 38.6815071105957 85.30537414550781 38.93971252441406 84.24181365966797 39.59938049316406" stroke-width="2.0" fill="rgb(0, 0, 255)" opacity="1.0" stroke="rgb(0, 0, 255)" stroke-opacity="1.0" stroke-linecap="round" stroke-linejoin="round"/>
  </g>
</svg>
