<?xml version="1.0" ?>
<svg xmlns="http://www.w3.org/2000/svg" version="1.1" width="128" height="128">
  <defs/>
  <g>
    <path d="M 0.8631293177604675 89.66836547851562 C 0.8619058132171631 89.99759674072266 0.8631795644760132 89.57210540771484 0.8577479124069214 89.8255386352539 C 0.8376820087432861 89.4623031616211 0.8102847337722778 90.44196319580078 0.8292242884635925 92.84864044189453 C 0.9624168276786804 96.31441497802734 1.312995433807373 97.4598159790039 2.12731671333313 98.96788024902344 C 3.7296502590179443 102.79032897949219 6.585958480834961 105.05659484863281 11.18274211883545 107.70487976074219 C 17.493816375732422 111.6294174194336 24.797861099243164 114.05901336669922 33.59823226928711 115.96975708007812 C 43.018558502197266 117.80157470703125 51.004920959472656 118.50862121582031 57.337432861328125 118.90728759765625 C 63.135154724121094 119.28964233398438 69.56132507324219 119.08208465576172 78.01721954345703 118.2120361328125 C 88.75871276855469 117.1722183227539 99.48037719726562 115.16510009765625 110.02731323242188 110.81805419921875 C 119.6422348022461 106.18614196777344 124.5394287109375 101.77913665771484 126.20829772949219 96.4950942993164 C 126.72818756103516 94.2701187133789 126.6942138671875 93.64999389648438 126.13683319091797 89.3320083618164 C 125.32904815673828 85.24805450439453 124.82278442382812 83.87039184570312 124.60095977783203 80.569580078125 C 124.49596405029297 78.73002624511719 124.69110870361328 78.76800537109375 125.53192138671875 74.56736755371094 C 126.42668151855469 70.99565887451172 126.97329711914062 68.99522399902344 127.34235382080078 62.75389862060547 C 127.50617218017578 57.924400329589844 127.45794677734375 56.171504974365234 127.22620391845703 52.18510818481445 C 126.719482421875 46.89231872558594 125.54498291015625 42.49336624145508 122.99916076660156 36.75455093383789 C 118.8183364868164 28.418865203857422 113.27776336669922 21.910634994506836 105.8428726196289 16.838943481445312 C 97.47674560546875 11.920571327209473 87.71337127685547 9.571870803833008 75.6393814086914 8.787283897399902 C 64.22265625 8.483449935913086 54.06349182128906 9.93692398071289 43.352352142333984 13.793573379516602 C 32.74716567993164 18.51850700378418 23.581573486328125 25.239391326904297 15.452498435974121 36.36878967285156 C 8.745635032653809 46.08362579345703 4.875661849975586 55.031803131103516 2.828383445739746 65.17166900634766" stroke-width="2.0" fill="rgb(252, 194, 27)" opacity="1.0" stroke="rgb(252, 194, 27)" stroke-opacity="1.0" stroke-linecap="round" stroke-linejoin="round"/>
    <path d="M 40.396820068359375 86.61894226074219 C 40.43147277832031 86.66653442382812 40.361454010009766 86.5751724243164 40.416751861572266 86.60242462158203 C 40.704200744628906 86.88968658447266 41.70443344116211 87.7389144897461 43.63119888305664 88.62085723876953 C 45.91729736328125 89.7680435180664 47.687984466552734 90.42759704589844 49.419918060302734 90.17601013183594 C 51.23447799682617 89.80901336669922 52.43898010253906 88.98348236083984 53.502315521240234 87.43255615234375 C 55.0472526550293 85.6195297241211 56.167503356933594 83.45494842529297 56.51380920410156 80.93670654296875 C 57.003326416015625 78.42207336425781 57.35067367553711 76.608642578125 56.858028411865234 75.77790069580078 C 56.30643081665039 75.26058959960938 56.37346267700195 75.00189208984375 56.64501953125 75.03742980957031 C 57.8641242980957 74.90086364746094 60.74354934692383 75.15933990478516 64.06848907470703 75.68917846679688 C 66.7666015625 75.65238952636719 69.17972564697266 75.51457214355469 71.46012115478516 75.6103515625 C 73.26559448242188 76.04267120361328 74.41826629638672 76.66548156738281 74.94725799560547 77.56423950195312 C 75.20172882080078 78.4698486328125 75.30782318115234 78.92256927490234 75.33234405517578 79.01023864746094 C 75.26748657226562 78.90550231933594 75.04747009277344 78.2962875366211 74.99376678466797 77.33026123046875 C 74.74168395996094 76.64112091064453 73.73768615722656 76.1136703491211 72.6268310546875 75.61323547363281 C 71.78113555908203 75.46076965332031 70.75364685058594 75.48318481445312 69.2802734375 75.5083999633789 C 67.10023498535156 75.61084747314453 63.94507598876953 75.59345245361328 60.550899505615234 75.32492065429688 C 58.05133819580078 74.860595703125 56.87200927734375 74.38563537597656 56.540985107421875 73.81382751464844 C 56.59040451049805 73.2282485961914 56.7393798828125 72.5835952758789 56.76963806152344 71.32323455810547 C 56.611412048339844 69.41020965576172 56.16737365722656 67.32327270507812 55.309268951416016 64.87238311767578 C 54.00697326660156 61.97724914550781 51.860355377197266 59.85040283203125 48.85023498535156 59.164649963378906 C 45.811466217041016 59.88816452026367 42.748619079589844 62.44880294799805 39.44828796386719 66.39148712158203" stroke-width="2.0" fill="rgb(255, 0, 0)" opacity="1.0" stroke="rgb(255, 0, 0)" stroke-opacity="1.0" stroke-linecap="round" stroke-linejoin="round"/>
    <path d="M 45.05358123779297 32.578086853027344 C 45.05490493774414 32.58140563964844 45.02506637573242 32.574581146240234 45.012332916259766 32.53233337402344 C 45.30878829956055 32.5423583984375 45.910282135009766 33.076473236083984 46.23381805419922 34.042083740234375 C 46.200740814208984 34.6728515625 46.10893249511719 35.131378173828125 45.630313873291016 35.564022064208984 C 44.96323776245117 35.461090087890625 44.68797302246094 35.03377151489258 44.426021575927734 34.76477813720703 C 43.63836669921875 34.656803131103516 42.224754333496094 34.54073715209961 40.229557037353516 34.362308502197266 C 38.09476089477539 34.176124572753906 36.144351959228516 34.13349533081055 34.21050262451172 34.389320373535156 C 32.483673095703125 34.762359619140625 31.382856369018555 35.329978942871094 30.711759567260742 36.34539794921875 C 30.308887481689453 37.44260787963867 30.29270362854004 38.38948059082031 30.400632858276367 39.58712387084961 C 30.507619857788086 40.86597442626953 30.925729751586914 41.94073486328125 31.56183433532715 43.01831817626953 C 32.17756652832031 44.0452995300293 33.00941848754883 44.848716735839844 34.019012451171875 45.52345275878906 C 34.96783447265625 46.02249526977539 35.97228240966797 46.209285736083984 37.05811309814453 46.28868865966797 C 37.995765686035156 46.3831787109375 38.87204360961914 46.195526123046875 39.90658187866211 45.70537185668945 C 40.90860366821289 45.180423736572266 41.75419616699219 44.470272064208984 42.52273941040039 43.626197814941406 C 43.171783447265625 42.988704681396484 43.618324279785156 42.54902267456055 43.945716857910156 42.14929962158203 C 44.288028717041016 41.734859466552734 44.68701171875 41.32686996459961 45.068721771240234 40.882259368896484 C 45.37130355834961 40.26470184326172 45.586544036865234 39.59127426147461 45.665367126464844 38.95285415649414 C 45.710079193115234 38.22184371948242 45.726375579833984 37.51198196411133 45.56182098388672 36.93831253051758 C 45.312828063964844 36.461238861083984 44.989776611328125 36.26651382446289 44.469722747802734 36.221771240234375 C 44.15056228637695 36.000553131103516 44.199493408203125 35.79875564575195 44.20085525512695 35.59818649291992 C 44.221351623535156 35.100589752197266 44.40817642211914 34.6757926940918 44.434688568115234 34.31412887573242" stroke-width="2.0" fill="rgb(0, 255, 0)" opacity="1.0" stroke="rgb(0, 255, 0)" stroke-opacity="1.0" stroke-linecap="round" stroke-linejoin="round"/>
    <path d="M 73.40524291992188 44.99195098876953 C 73.4146728515625 44.99839782714844 73.37934875488281 44.98389434814453 73.44658660888672 44.9671745300293 C 73.85858154296875 45.11440658569336 74.56697082519531 45.754817962646484 75.14155578613281 46.29534912109375 C 75.29148864746094 46.24684143066406 74.65093231201172 46.0352897644043 73.59043884277344 46.00938415527344 C 72.92227935791016 46.15576171875 72.41461944580078 46.23213195800781 72.02745819091797 46.03946304321289 C 72.34357452392578 45.5003662109375 72.9986801147461 44.59921646118164 73.53926849365234 43.75641632080078 C 73.9576187133789 43.591888427734375 73.98339080810547 44.064971923828125 73.80264282226562 44.47654342651367 C 73.79450988769531 44.8117561340332 73.49977111816406 45.240623474121094 72.55062866210938 45.45652389526367 C 71.34342956542969 45.52113723754883 70.31149291992188 45.64627456665039 69.50099182128906 45.977210998535156 C 68.83761596679688 46.650352478027344 68.54739379882812 47.47929000854492 68.44806671142578 48.6381721496582 C 68.17538452148438 50.04353713989258 68.06207275390625 51.04450225830078 68.20838928222656 52.057621002197266 C 68.33683776855469 53.537498474121094 68.83106994628906 54.73529815673828 69.81842803955078 55.981136322021484 C 70.86004638671875 57.641963958740234 72.02223205566406 58.623531341552734 73.68531799316406 58.89703369140625 C 75.57396697998047 59.073158264160156 77.26837921142578 58.69157028198242 78.94095611572266 57.668701171875 C 80.50906372070312 56.674339294433594 81.61030578613281 55.53310012817383 82.3128662109375 54.19302749633789 C 82.80912017822266 53.2188835144043 83.0864486694336 52.295631408691406 83.26734161376953 51.17177200317383 C 83.52767944335938 50.54045867919922 83.7004623413086 50.42998123168945 83.529541015625 50.137760162353516 C 82.87421417236328 49.74658966064453 81.53123474121094 49.14116668701172 79.76808166503906 48.062923431396484 C 78.24593353271484 46.81039047241211 77.09066772460938 45.53130340576172 76.2334213256836 44.174922943115234 C 75.68606567382812 42.95588302612305 75.06126403808594 42.240699768066406 74.20514678955078 42.08566665649414 C 73.27437591552734 42.38690948486328 72.25848388671875 43.27913284301758 71.34784698486328 44.54658889770508" stroke-width="2.0" fill="rgb(0, 0, 255)" opacity="1.0" stroke="rgb(0, 0, 255)" stroke-opacity="1.0" stroke-linecap="round" stroke-linejoin="round"/>
  </g>
</svg>
