<?xml version="1.0" ?>
<svg xmlns="http://www.w3.org/2000/svg" version="1.1" width="128" height="128">
  <defs/>
  <g>
    <path d="M 1.5737667083740234 100.03021240234375 C 1.5726345777511597 100.43689727783203 1.5726664066314697 99.9609375 1.5640606880187988 100.2289047241211 C 1.5558136701583862 99.8020248413086 1.6307759284973145 101.16963195800781 1.9869568347930908 103.75115203857422 C 3.0974488258361816 108.16844940185547 6.11445426940918 111.38793182373047 12.938234329223633 115.63763427734375 C 21.58677101135254 120.37763977050781 28.988330841064453 122.51454162597656 36.068878173828125 123.78147888183594 C 42.242431640625 125.08573150634766 46.11130142211914 125.65190887451172 50.289180755615234 126.00472259521484 C 54.25105667114258 126.53598022460938 55.40757369995117 126.77880859375 57.0712890625 126.88267517089844 C 60.8511848449707 127.04759216308594 64.03892517089844 127.03024291992188 68.06013488769531 126.81169891357422 C 73.96263885498047 126.57182312011719 78.58493041992188 125.99642944335938 86.2143783569336 124.42841339111328 C 101.01905059814453 122.1778335571289 114.10664367675781 117.80540466308594 122.64552307128906 109.0088119506836 C 126.2379150390625 104.42015838623047 126.97757720947266 102.89295959472656 126.9207534790039 98.67520904541016 C 126.6263656616211 96.33197784423828 126.02652740478516 95.48120880126953 124.95782470703125 92.3625259399414 C 123.8191909790039 90.09191131591797 122.79655456542969 88.73959350585938 121.77620697021484 84.65977478027344 C 120.99374389648438 81.43423461914062 121.30652618408203 78.63582611083984 123.0478744506836 70.69512176513672 C 124.50928497314453 64.20687103271484 125.15010070800781 61.09514617919922 125.6817855834961 53.403656005859375 C 125.82266998291016 43.611473083496094 124.78631591796875 37.61529541015625 121.90830993652344 29.715543746948242 C 117.00762939453125 17.495258331298828 107.63739013671875 9.621685028076172 93.5491714477539 4.71815824508667 C 84.7844009399414 1.9763764142990112 78.46687316894531 1.1369134187698364 71.3200454711914 1.0364896059036255 C 66.87123107910156 1.0661731958389282 63.93318176269531 1.599509835243225 55.50920486450195 3.7907159328460693 C 39.99899673461914 8.586530685424805 25.358875274658203 19.290061950683594 14.379103660583496 36.881874084472656 C 7.603430271148682 49.6372184753418 4.725919723510742 58.97300720214844 3.1416525840759277 69.05329132080078" stroke-width="2.0" fill="rgb(252, 194, 27)" opacity="1.0" stroke="rgb(252, 194, 27)" stroke-opacity="1.0" stroke-linecap="round" stroke-linejoin="round"/>
    <path d="M 20.311681747436523 62.79562759399414 C 20.30748176574707 62.92389678955078 20.29340171813965 62.7108154296875 20.233505249023438 62.59402847290039 C 20.158058166503906 62.5682487487793 20.103851318359375 64.20105743408203 20.18621253967285 66.93839263916016 C 20.631505966186523 69.70647430419922 21.658689498901367 71.1111831665039 23.336925506591797 72.4800796508789 C 25.408811569213867 73.93305969238281 28.014480590820312 74.45843505859375 31.129350662231445 74.5521240234375 C 34.48503494262695 74.46116638183594 38.1118049621582 74.82860565185547 41.67247009277344 76.24700927734375 C 44.85730743408203 77.82841491699219 47.367366790771484 79.86823272705078 48.853824615478516 82.49568176269531 C 50.150264739990234 84.35767364501953 51.96183395385742 86.287841796875 53.3762321472168 88.52710723876953 C 54.84138107299805 90.30944061279297 57.00223922729492 92.10011291503906 59.5223388671875 93.6986083984375 C 62.82727813720703 95.34674072265625 66.52957153320312 96.56404113769531 69.86975860595703 96.86759948730469 C 73.22236633300781 97.35045623779297 76.25484466552734 96.98961639404297 79.48342895507812 95.16246032714844 C 83.6649398803711 93.30892181396484 87.28797912597656 90.85797119140625 89.85698699951172 87.42962646484375 C 91.75615692138672 85.0542221069336 92.52265167236328 83.09458923339844 93.1221694946289 80.10053253173828 C 94.24766540527344 77.14118957519531 94.409423828125 75.04908752441406 93.796875 71.88227844238281 C 93.89629364013672 67.71871185302734 93.29674530029297 64.3705825805664 91.39897155761719 61.00521469116211 C 89.36345672607422 57.83597946166992 86.73380279541016 55.812591552734375 83.85155487060547 53.95036315917969 C 81.79975128173828 52.566253662109375 79.4746322631836 51.9365348815918 75.9937515258789 51.447444915771484 C 72.2289810180664 51.358760833740234 68.09454345703125 52.36488723754883 63.50492858886719 54.05933380126953 C 59.611000061035156 55.282920837402344 56.57179260253906 55.91640090942383 53.72392272949219 56.54190444946289 C 51.08737564086914 56.76592254638672 48.99699020385742 56.145530700683594 47.07085037231445 54.73112487792969 C 44.79732894897461 52.210453033447266 42.024959564208984 48.88529586791992 38.55278778076172 46.04470443725586" stroke-width="2.0" fill="rgb(255, 0, 0)" opacity="1.0" stroke="rgb(255, 0, 0)" stroke-opacity="1.0" stroke-linecap="round" stroke-linejoin="round"/>
    <path d="M 44.761356353759766 23.47193145751953 C 44.75707244873047 23.493892669677734 44.788055419921875 23.403894424438477 44.877174377441406 23.272293090820312 C 44.67477798461914 23.65290069580078 43.09305953979492 25.134008407592773 39.874446868896484 25.974639892578125 C 36.57292175292969 25.453840255737305 34.548683166503906 25.275789260864258 33.69933319091797 26.4305477142334 C 33.38434982299805 28.00100326538086 33.44066619873047 29.518442153930664 33.85178756713867 31.88030242919922 C 34.54743194580078 34.494895935058594 36.00190353393555 36.1583137512207 38.53287887573242 37.660377502441406 C 41.87640380859375 38.88226318359375 45.512359619140625 38.527339935302734 48.91106414794922 37.3263053894043 C 51.708255767822266 35.6668701171875 53.77590560913086 33.23118209838867 55.01054763793945 31.003273010253906 C 55.672420501708984 29.647552490234375 56.386444091796875 28.79690933227539 57.445213317871094 28.343847274780273 C 59.16576385498047 28.22322654724121 61.796630859375 28.264087677001953 64.87415313720703 28.612958908081055 C 67.8718490600586 29.213245391845703 70.55261993408203 29.824859619140625 72.65225219726562 30.595064163208008 C 74.6258544921875 31.371728897094727 76.28460693359375 32.03662872314453 77.057373046875 32.99249267578125 C 77.52289581298828 33.92817306518555 77.83072662353516 34.47144317626953 77.61914825439453 35.05617141723633 C 77.33859252929688 35.7137336730957 77.16809844970703 36.05356979370117 76.98271179199219 36.290584564208984 C 77.06704711914062 36.55331802368164 77.28173065185547 36.50296401977539 77.42442321777344 36.14348220825195 C 77.71761322021484 35.713661193847656 77.95384979248047 35.019737243652344 77.82831573486328 34.18867874145508 C 77.43608093261719 33.39163589477539 76.52518463134766 32.50383758544922 74.76599884033203 31.59476661682129 C 72.50359344482422 30.69316864013672 69.88419342041016 29.880464553833008 66.92011260986328 29.247331619262695 C 64.29541778564453 28.64274787902832 62.00240707397461 28.344818115234375 59.829593658447266 28.50373649597168 C 58.47622299194336 28.53080940246582 57.87580108642578 28.22920799255371 57.43120193481445 27.610015869140625 C 57.48479080200195 26.657981872558594 57.80701446533203 25.749916076660156 57.838016510009766 24.988033294677734" stroke-width="2.0" fill="rgb(0, 255, 0)" opacity="1.0" stroke="rgb(0, 255, 0)" stroke-opacity="1.0" stroke-linecap="round" stroke-linejoin="round"/>
    <path d="M 83.02532958984375 32.779693603515625 C 83.03729248046875 32.79175567626953 83.00360107421875 32.78593444824219 83.04523468017578 32.78224563598633 C 83.33699035644531 32.76736068725586 83.6287612915039 33.017066955566406 83.41357421875 33.26717758178711 C 83.2522964477539 33.236358642578125 83.53893280029297 33.053951263427734 83.78192901611328 33.05870056152344 C 84.06610107421875 32.9611701965332 84.45811462402344 32.70398712158203 84.59969329833984 32.741634368896484 C 84.5914535522461 32.81603240966797 84.33370971679688 32.42735290527344 83.7302017211914 32.20035171508789 C 83.4981918334961 32.34980773925781 83.4908447265625 32.345760345458984 82.91539001464844 32.34611892700195 C 82.20538330078125 32.34214401245117 81.81625366210938 32.09465026855469 81.27861785888672 32.104209899902344 C 80.5913314819336 32.46091842651367 80.09774780273438 32.66144943237305 79.48247528076172 32.916221618652344 C 78.661865234375 33.532814025878906 78.11815643310547 34.174747467041016 77.76981353759766 34.950069427490234 C 77.3025894165039 36.0582389831543 76.93032836914062 37.01646041870117 76.7699203491211 38.30644607543945 C 76.69780731201172 40.29025650024414 76.9776840209961 42.08293914794922 77.90611267089844 43.81273651123047 C 79.29080200195312 45.588165283203125 80.96527099609375 46.2037467956543 82.8607177734375 45.930477142333984 C 84.57034301757812 45.97121047973633 85.72854614257812 45.382083892822266 86.65442657470703 44.02620315551758 C 87.60281372070312 43.235076904296875 88.25166320800781 42.518802642822266 88.65327453613281 41.36423110961914 C 89.03983306884766 40.56683349609375 89.17588806152344 39.69782257080078 89.09848022460938 38.397762298583984 C 89.08085632324219 37.48977279663086 88.97900390625 36.84962844848633 88.78563690185547 35.98503494262695 C 88.71942901611328 35.278560638427734 88.4615478515625 34.684661865234375 87.89218139648438 33.84143829345703 C 87.36309051513672 33.02122116088867 86.72570037841797 32.42789077758789 85.84465026855469 31.98139190673828 C 84.84038543701172 31.64493751525879 83.57781219482422 31.550020217895508 82.24828338623047 31.72110366821289 C 81.35945892333984 32.039127349853516 80.63766479492188 32.60026168823242 79.89237213134766 33.177101135253906" stroke-width="2.0" fill="rgb(0, 0, 255)" opacity="1.0" stroke="rgb(0, 0, 255)" stroke-opacity="1.0" stroke-linecap="round" stroke-linejoin="round"/>
  </g>
</svg>
