<?xml version="1.0" ?>
<svg xmlns="http://www.w3.org/2000/svg" version="1.1" width="128" height="128">
  <defs/>
  <g>
    <path d="M 1.7092772722244263 90.6330795288086 C 1.707119345664978 90.92878723144531 1.709773302078247 90.5426025390625 1.6988297700881958 90.802490234375 C 1.6532071828842163 90.30925750732422 1.569525957107544 91.14067840576172 1.5466002225875854 93.2855453491211 C 1.735974669456482 95.7141342163086 2.3356142044067383 96.8545913696289 3.5660781860351562 98.92745208740234 C 5.675010681152344 102.40596771240234 9.060403823852539 104.70120239257812 13.87779426574707 107.32890319824219 C 20.02402687072754 110.57506561279297 27.20413589477539 112.87886810302734 35.1108283996582 114.73424530029297 C 42.9461669921875 116.37067413330078 50.05221939086914 117.02423858642578 55.94911575317383 117.33843231201172 C 60.96275329589844 117.66063690185547 65.86053466796875 117.62520599365234 72.09187316894531 117.23072814941406 C 79.63618469238281 116.8160629272461 86.6846923828125 116.01945495605469 94.2435073852539 114.25713348388672 C 103.11795806884766 112.25231170654297 111.28567504882812 109.45199584960938 117.74613189697266 105.2876205444336 C 122.24085998535156 102.04650115966797 124.71968841552734 99.41537475585938 125.99898529052734 95.73334503173828 C 126.59874725341797 93.90323638916016 126.75674438476562 93.69200897216797 126.70861053466797 91.76045989990234 C 126.64851379394531 89.77497863769531 126.57215118408203 89.28277587890625 126.51692962646484 87.17453002929688 C 126.54269409179688 84.0592269897461 126.48466491699219 82.62030792236328 126.24242401123047 79.5364761352539 C 125.8012924194336 74.17198944091797 125.08071899414062 69.67298889160156 123.95452880859375 63.8204345703125 C 122.26100158691406 55.921775817871094 119.73188781738281 48.64937210083008 116.20264434814453 41.298583984375 C 111.76567077636719 32.35912322998047 105.70587158203125 25.12333106994629 98.02720642089844 19.405454635620117 C 90.48713684082031 14.401198387145996 81.92023468017578 11.577841758728027 71.08928680419922 10.350935935974121 C 60.67182540893555 9.75339412689209 51.48435974121094 10.565443992614746 42.3232536315918 13.303894996643066 C 32.996055603027344 16.889860153198242 24.62653160095215 22.444902420043945 17.31629753112793 32.080772399902344 C 11.086755752563477 41.47665786743164 7.0887861251831055 51.35859680175781 4.634607791900635 62.6940803527832" stroke-width="2.0" fill="rgb(252, 194, 27)" opacity="1.0" stroke="rgb(252, 194, 27)" stroke-opacity="1.0" stroke-linecap="round" stroke-linejoin="round"/>
    <path d="M 51.52238845825195 90.17119598388672 C 51.54510498046875 90.21510314941406 51.50041580200195 90.16999816894531 51.51409149169922 90.25255584716797 C 51.677467346191406 90.306640625 52.32953643798828 90.46244812011719 53.54032516479492 90.57110595703125 C 54.970767974853516 90.9544448852539 55.77585220336914 91.33189392089844 56.107666015625 91.47408294677734 C 56.56576919555664 91.39167785644531 56.65180587768555 91.33929443359375 55.97846984863281 91.30401611328125 C 55.530548095703125 91.18207550048828 55.81673812866211 91.1711196899414 56.362789154052734 91.34365844726562 C 57.52585983276367 91.67412567138672 59.68656921386719 92.23096466064453 62.171268463134766 92.59917449951172 C 64.69672393798828 92.57200622558594 67.02181243896484 92.56352233886719 68.54475402832031 92.59346771240234 C 69.72048950195312 92.6158218383789 71.09223937988281 92.5341567993164 72.55628967285156 92.25234985351562 C 74.33458709716797 91.83661651611328 76.40252685546875 91.28910827636719 78.23884582519531 90.55252838134766 C 79.97624206542969 89.67744445800781 81.45565032958984 89.0141372680664 82.47895050048828 88.40510559082031 C 83.406982421875 87.69790649414062 84.09749603271484 87.19529724121094 84.93461608886719 86.66455841064453 C 86.28425598144531 85.91651916503906 87.71369934082031 84.74605560302734 89.31366729736328 82.9716796875 C 90.88226318359375 81.26406860351562 91.3087158203125 79.84986877441406 90.68926239013672 78.54231262207031 C 90.07909393310547 77.43268585205078 89.26142883300781 76.95414733886719 88.08390808105469 76.78805541992188 C 87.08033752441406 76.87324523925781 85.96674346923828 77.89447021484375 84.45940399169922 79.40838623046875 C 83.01914978027344 80.88267517089844 81.96189880371094 81.98174285888672 81.28059387207031 82.64996337890625 C 80.78334045410156 83.14176177978516 80.05024719238281 83.5721206665039 78.86239624023438 84.14083099365234 C 77.3760986328125 84.90987396240234 75.63993072509766 85.64253997802734 73.64022064208984 86.32840728759766 C 71.51873016357422 86.90231323242188 69.38892364501953 87.12187957763672 67.44013977050781 86.99759674072266 C 65.89107513427734 86.92393493652344 64.20823669433594 86.93529510498047 61.933956146240234 86.95068359375" stroke-width="2.0" fill="rgb(255, 0, 0)" opacity="1.0" stroke="rgb(255, 0, 0)" stroke-opacity="1.0" stroke-linecap="round" stroke-linejoin="round"/>
    <path d="M 45.129173278808594 49.30809020996094 C 45.14051818847656 49.32890319824219 45.09575271606445 49.297855377197266 45.1142692565918 49.27128982543945 C 45.47415542602539 49.32954025268555 46.232513427734375 49.94071960449219 46.78754425048828 50.72325897216797 C 46.97418975830078 51.483741760253906 47.24833297729492 52.56646728515625 47.89618682861328 53.7955207824707 C 48.6067008972168 55.13591003417969 48.731956481933594 56.538639068603516 47.96364974975586 57.478057861328125 C 46.634090423583984 57.685211181640625 44.907562255859375 57.49505615234375 42.588478088378906 57.51383590698242 C 40.03630828857422 57.61034393310547 37.82267761230469 57.48066711425781 35.893310546875 57.26631546020508 C 34.25956726074219 56.832401275634766 33.30608367919922 56.355831146240234 32.750022888183594 56.34540557861328 C 32.30134582519531 56.74629592895508 32.340431213378906 57.60763168334961 32.68671798706055 59.13764190673828 C 33.03791046142578 60.98078155517578 33.90227508544922 62.524532318115234 35.34918212890625 63.97170639038086 C 36.801395416259766 65.36077117919922 38.40966033935547 66.01106262207031 40.23947525024414 66.03182983398438 C 41.679134368896484 65.97383880615234 42.786659240722656 65.56521606445312 44.0362548828125 64.7200698852539 C 45.251426696777344 63.613311767578125 46.16780471801758 62.108680725097656 46.89405822753906 60.520687103271484 C 47.45566940307617 59.189186096191406 47.74174499511719 58.057559967041016 47.83058166503906 57.091522216796875 C 47.74918746948242 56.30946731567383 47.37504959106445 55.66913986206055 46.62295913696289 55.203941345214844 C 45.41265106201172 55.12400817871094 43.930965423583984 55.45041275024414 42.42928695678711 55.97696304321289 C 41.05976486206055 56.536460876464844 40.15834045410156 57.056396484375 39.91361999511719 57.380577087402344 C 40.173095703125 57.55580139160156 40.73570251464844 57.83717346191406 41.39678955078125 58.09103012084961 C 42.124534606933594 58.295196533203125 43.0142822265625 58.523651123046875 44.09782028198242 58.403385162353516 C 45.462890625 57.871150970458984 46.77724075317383 57.622352600097656 47.499778747558594 57.389041900634766 C 47.69497299194336 56.85344314575195 47.39518356323242 56.82354736328125 46.490962982177734 56.9742546081543" stroke-width="2.0" fill="rgb(0, 255, 0)" opacity="1.0" stroke="rgb(0, 255, 0)" stroke-opacity="1.0" stroke-linecap="round" stroke-linejoin="round"/>
    <path d="M 89.69657897949219 53.07267379760742 C 89.7076187133789 53.080047607421875 89.68849182128906 53.05989074707031 89.78536224365234 53.01455307006836 C 90.01495361328125 53.124881744384766 90.18864440917969 53.57193374633789 90.37998962402344 53.67874526977539 C 90.83795928955078 53.361724853515625 91.28971099853516 53.42577362060547 91.74871063232422 53.6090087890625 C 92.53709411621094 53.34931564331055 92.98709106445312 53.16699981689453 92.84719848632812 53.22991180419922 C 93.41278839111328 52.81222152709961 94.3921890258789 52.35037612915039 94.45183563232422 52.19244384765625 C 94.1348648071289 52.261226654052734 93.6169662475586 52.70927429199219 92.10368347167969 53.40475082397461 C 90.15813446044922 53.81229782104492 88.26598358154297 54.41098403930664 85.62139129638672 55.620758056640625 C 82.62977600097656 56.86002731323242 80.40283966064453 58.01014709472656 78.28337097167969 59.717376708984375 C 75.984130859375 61.576393127441406 75.08914184570312 62.535430908203125 75.36380767822266 63.617881774902344 C 75.72935485839844 65.04814910888672 76.8944091796875 65.23799896240234 79.01284790039062 64.71761322021484 C 81.4677963256836 64.46041870117188 84.65064239501953 63.94442367553711 88.49951171875 63.60484313964844 C 92.00738525390625 63.98775100708008 94.6552505493164 64.60034942626953 96.62390899658203 65.14460754394531 C 98.07107543945312 65.41664123535156 99.00131225585938 64.627685546875 99.53260803222656 63.162620544433594 C 99.48980712890625 62.28086853027344 98.56352233886719 61.653812408447266 96.73893737792969 60.902183532714844 C 94.11498260498047 60.58540725708008 91.04402160644531 60.31943130493164 89.10174560546875 59.05411148071289 C 89.37635803222656 57.83589553833008 91.04169464111328 57.31499099731445 93.39591979980469 56.352210998535156 C 95.82743835449219 55.7373046875 97.59331512451172 55.4189567565918 98.7665786743164 54.33641815185547 C 99.46696472167969 53.25044631958008 99.26336669921875 52.322181701660156 98.28953552246094 51.24223709106445 C 97.13719177246094 50.6514778137207 95.74371337890625 50.72285842895508 94.05998229980469 51.318603515625 C 92.24813079833984 52.294551849365234 90.15437316894531 53.13797378540039 88.17951202392578 53.54273986816406" stroke-width="2.0" fill="rgb(0, 0, 255)" opacity="1.0" stroke="rgb(0, 0, 255)" stroke-opacity="1.0" stroke-linecap="round" stroke-linejoin="round"/>
  </g>
</svg>
