<?xml version="1.0" ?>
<svg xmlns="http://www.w3.org/2000/svg" version="1.1" width="128" height="128">
  <defs/>
  <g>
    <path d="M 57.25631332397461 53.8264274597168 C 57.25820541381836 53.81767272949219 57.29143142700195 53.874595642089844 57.46434783935547 54.116920471191406 C 57.86546325683594 54.720333099365234 58.60148239135742 55.63874435424805 59.846519470214844 56.70891571044922 C 61.442569732666016 57.53105163574219 62.8536491394043 57.428489685058594 63.53852462768555 56.39078140258789 C 63.48594284057617 55.382572174072266 62.90384292602539 55.26519012451172 62.5219841003418 56.109718322753906 C 62.7515754699707 57.23049545288086 63.32493591308594 58.1898307800293 64.02326202392578 59.03010559082031 C 64.92147827148438 59.965946197509766 66.11355590820312 61.056785583496094 67.50157928466797 62.311668395996094 C 69.04950714111328 63.58945083618164 70.47887420654297 64.80956268310547 71.87832641601562 65.90677642822266 C 73.35749053955078 66.95989227294922 74.66841888427734 68.07022857666016 75.77025604248047 69.15242767333984 C 76.84049987792969 70.17748260498047 77.70245361328125 71.13502502441406 78.32017517089844 71.9093017578125 C 78.90390014648438 72.51663208007812 79.37525939941406 73.16394805908203 79.87893676757812 73.88180541992188 C 80.61478424072266 74.55852508544922 81.17218017578125 75.1073226928711 81.58204650878906 75.49856567382812 C 82.19327545166016 75.71044921875 82.64651489257812 75.71761322021484 82.61479187011719 75.40247344970703 C 82.06951904296875 74.70975494384766 80.74365997314453 73.5721664428711 78.7950439453125 71.84239196777344 C 76.61415100097656 69.75873565673828 74.2565689086914 67.51839447021484 71.45751190185547 65.01905059814453 C 68.0246353149414 62.4603385925293 64.1856460571289 59.792728424072266 60.354915618896484 57.186153411865234 C 56.58641052246094 55.17527389526367 53.31350326538086 54.02545928955078 50.582088470458984 53.83970642089844 C 48.025047302246094 54.099937438964844 45.45936965942383 54.4276008605957 43.167327880859375 54.719295501708984 C 41.28338623046875 55.01894760131836 39.810150146484375 55.2916259765625 38.77363586425781 55.51496505737305 C 38.18271255493164 55.612369537353516 38.128135681152344 55.51038360595703 38.71113967895508 55.28094482421875 C 39.74617385864258 55.150123596191406 41.27960968017578 55.19991683959961 43.5598030090332 55.470947265625" stroke-width="2.0" fill="rgb(252, 194, 27)" opacity="1.0" stroke="rgb(252, 194, 27)" stroke-opacity="1.0" stroke-linecap="round" stroke-linejoin="round"/>
    <path d="M 25.00094985961914 44.75040817260742 C 25.02024269104004 44.72614288330078 25.03010368347168 44.61070251464844 25.34499740600586 43.827091217041016 C 26.72118377685547 41.4970817565918 30.47127914428711 37.370521545410156 37.312522888183594 32.389060974121094 C 46.12423324584961 28.36434555053711 54.72807312011719 26.228565216064453 62.35622024536133 25.777828216552734 C 69.06707763671875 25.912288665771484 74.47110748291016 26.624725341796875 79.5330810546875 28.017349243164062 C 84.6946029663086 29.5082950592041 89.0476303100586 31.32628631591797 93.62030029296875 34.262718200683594 C 98.66507720947266 38.07561111450195 102.15355682373047 42.24953842163086 104.11348724365234 45.790462493896484 C 105.42841339111328 48.45748519897461 105.71614837646484 50.30593490600586 105.17266845703125 51.55305099487305 C 104.3182144165039 52.474342346191406 102.88628387451172 53.2947883605957 101.57530212402344 54.199729919433594 C 101.277587890625 55.45172119140625 101.9006118774414 56.99932861328125 104.27610778808594 59.03569030761719 C 106.11632537841797 62.21967315673828 103.96900177001953 66.54161834716797 101.21601867675781 71.38284301757812 C 101.53021240234375 76.32322692871094 102.86568450927734 81.313232421875 103.66110229492188 85.48064422607422 C 104.1634750366211 89.01355743408203 104.09142303466797 92.45130157470703 103.5068359375 95.88722229003906 C 102.29740905761719 99.08058166503906 99.37336730957031 101.20559692382812 94.79236602783203 101.96833038330078 C 89.96415710449219 102.16590881347656 85.67596435546875 102.30879211425781 81.39756774902344 102.40369415283203 C 77.05686950683594 102.35220336914062 72.10589599609375 102.33659362792969 65.08397674560547 102.40119171142578 C 56.47183609008789 102.36247253417969 48.47154235839844 102.23933410644531 43.0758056640625 101.93923950195312 C 39.77369689941406 101.82506561279297 37.25010681152344 101.6960678100586 34.82291793823242 101.56104278564453 C 32.32688903808594 101.48646545410156 29.754981994628906 101.44998931884766 27.244028091430664 101.23048400878906 C 24.835927963256836 100.57061767578125 22.95993423461914 99.08743286132812 22.01247787475586 96.46502685546875 C 21.923702239990234 92.61896514892578 22.664735794067383 87.69029235839844 23.991355895996094 81.93661499023438" stroke-width="2.0" fill="rgb(255, 0, 0)" opacity="1.0" stroke="rgb(255, 0, 0)" stroke-opacity="1.0" stroke-linecap="round" stroke-linejoin="round"/>
    <path d="M 46.540523529052734 58.50078201293945 C 46.551185607910156 58.50096130371094 46.565147399902344 58.522884368896484 46.82405090332031 58.539642333984375 C 47.90518569946289 58.54606246948242 50.84235382080078 58.854835510253906 55.87063980102539 60.36066436767578 C 61.32461929321289 62.178279876708984 64.04984283447266 63.182594299316406 63.947811126708984 63.4239616394043 C 63.067203521728516 63.4626579284668 62.78654479980469 63.1497688293457 64.9852066040039 62.08563232421875 C 71.06084442138672 60.84389114379883 78.32587432861328 60.20246887207031 84.92138671875 60.51434326171875 C 90.60487365722656 60.98714065551758 94.15776824951172 61.16926574707031 96.8069839477539 61.005882263183594 C 99.81826782226562 60.79301071166992 101.93087768554688 61.79231643676758 102.8346176147461 64.26824188232422 C 103.42576599121094 67.36551666259766 103.70323944091797 70.67462158203125 103.75751495361328 74.09605407714844 C 103.82106018066406 77.54544067382812 103.71285247802734 80.9641342163086 103.96681213378906 84.17047119140625 C 104.7810287475586 87.18128967285156 105.51070404052734 89.8952407836914 105.91850280761719 92.3291015625 C 106.08528137207031 94.5771713256836 105.919189453125 96.49152374267578 105.64873504638672 98.03211212158203 C 105.47725677490234 99.3485107421875 105.00529479980469 100.47319793701172 104.06851196289062 101.3895034790039 C 102.77021789550781 102.17760467529297 100.79499816894531 102.57471466064453 97.81848907470703 102.4779281616211 C 94.17535400390625 102.33250427246094 90.03665924072266 102.3699722290039 85.54141235351562 102.30313873291016 C 81.01632690429688 102.17774963378906 76.02291107177734 102.15222930908203 69.32657623291016 102.27900695800781 C 60.96725845336914 102.30369567871094 52.3925666809082 102.24812316894531 45.78541564941406 102.01683044433594 C 41.43983840942383 101.89649963378906 38.4075813293457 101.97584533691406 35.8484992980957 101.97181701660156 C 33.29746627807617 101.96378326416016 30.88515853881836 101.89562225341797 28.67214584350586 101.72544860839844 C 26.593645095825195 101.52840423583984 24.822446823120117 101.15758514404297 23.53772735595703 100.40754699707031 C 22.65032196044922 99.10810089111328 22.411842346191406 97.08229064941406 23.03703498840332 94.27290344238281" stroke-width="2.0" fill="rgb(0, 255, 0)" opacity="1.0" stroke="rgb(0, 255, 0)" stroke-opacity="1.0" stroke-linecap="round" stroke-linejoin="round"/>
    <path d="M 58.2399787902832 61.26182174682617 C 58.25083923339844 61.24710464477539 58.29752731323242 61.296974182128906 58.755210876464844 61.468894958496094 C 59.99769592285156 61.88877868652344 62.06954574584961 62.44578552246094 64.53302001953125 63.226341247558594 C 67.0669174194336 64.1920394897461 69.6845703125 65.30851745605469 72.54568481445312 66.34999084472656 C 75.07887268066406 67.2601547241211 76.80773162841797 67.77588653564453 78.93871307373047 67.70732116699219 C 81.52679443359375 67.24794006347656 83.26175689697266 66.55941772460938 84.91435241699219 65.60043334960938 C 87.17750549316406 64.62992858886719 88.85505676269531 63.92849349975586 90.22077941894531 63.60871505737305 C 91.76188659667969 63.8067512512207 92.76699829101562 64.58201599121094 93.65534210205078 65.71624755859375 C 94.81575775146484 67.3028335571289 95.54013061523438 69.36042022705078 95.81585693359375 71.55533599853516 C 95.90817260742188 73.8209457397461 95.76216125488281 76.16297912597656 95.69285583496094 78.48768615722656 C 95.84488677978516 80.78638458251953 95.98884582519531 82.92650604248047 96.27349090576172 84.80363464355469 C 96.65135192871094 86.42420196533203 96.69810485839844 87.68283081054688 96.60894775390625 88.54597473144531 C 96.6168441772461 89.1754379272461 96.22166442871094 89.67874908447266 95.27249908447266 90.03121948242188 C 94.20633697509766 90.36840057373047 93.05622100830078 90.80518341064453 91.63301086425781 91.17530822753906 C 89.85309600830078 91.36548614501953 87.63025665283203 91.3895263671875 84.8528060913086 91.29521179199219 C 81.63191986083984 91.24735260009766 78.39726257324219 91.13581085205078 75.26908874511719 91.06097412109375 C 71.55345153808594 90.99798583984375 66.84645080566406 90.65625762939453 61.800636291503906 90.1215591430664 C 57.04073715209961 89.50802612304688 52.86028289794922 88.76119995117188 49.642024993896484 88.09569549560547 C 46.90818405151367 87.63209533691406 44.23086166381836 87.35064697265625 41.80447769165039 87.05918884277344 C 39.755592346191406 86.81599426269531 38.27982711791992 86.42391967773438 37.617401123046875 85.42261505126953 C 37.587493896484375 83.71495056152344 38.158111572265625 81.39119720458984 39.491607666015625 78.49627685546875" stroke-width="2.0" fill="rgb(0, 0, 255)" opacity="1.0" stroke="rgb(0, 0, 255)" stroke-opacity="1.0" stroke-linecap="round" stroke-linejoin="round"/>
  </g>
</svg>
