<?xml version="1.0" ?>
<svg xmlns="http://www.w3.org/2000/svg" version="1.1" width="128" height="128">
  <defs/>
  <g>
    <path d="M 0.46495524048805237 0.2863587737083435 C 0.46560248732566833 0.2859325408935547 0.463606595993042 0.2846214175224304 0.46398693323135376 0.2740950286388397 C 0.48568710684776306 0.2430926412343979 0.6108013391494751 0.181762233376503 1.0992316007614136 0.11141355335712433 C 2.8841025829315186 0.05800669640302658 9.286798477172852 0.029696408659219742 29.25556182861328 0.0172289926558733 C 67.0179443359375 0.01270061731338501 101.33538055419922 0.011292420327663422 118.02915954589844 0.01164440531283617 C 124.32564544677734 0.01428835280239582 126.49903869628906 0.018542278558015823 127.30524444580078 0.025111284106969833 C 127.63655090332031 0.03550046309828758 127.77999877929688 0.05277251824736595 127.85398864746094 0.08542110025882721 C 127.89769744873047 0.1459394246339798 127.92210388183594 0.25514939427375793 127.93910217285156 0.4610602557659149 C 127.95330810546875 0.8786563873291016 127.9625015258789 1.7494847774505615 127.96842193603516 3.669654369354248 C 127.97306060791016 7.916162490844727 127.9752426147461 17.040904998779297 127.97554779052734 34.88020324707031 C 127.9748306274414 62.061912536621094 127.9729995727539 91.71199798583984 127.96910858154297 112.3498764038086 C 127.96179962158203 122.26734924316406 127.94695281982422 125.957275390625 127.924560546875 127.24503326416016 C 127.89155578613281 127.68956756591797 127.83401489257812 127.85308837890625 127.7457275390625 127.92259216308594 C 127.61656951904297 127.9549560546875 127.3881607055664 127.97260284423828 126.9432601928711 127.98237609863281 C 125.9739761352539 127.98808288574219 123.62385559082031 127.99156188964844 117.51255798339844 127.99363708496094 C 101.8304672241211 127.99467468261719 69.40670013427734 127.99501037597656 32.09578323364258 127.99491882324219 C 11.399346351623535 127.99406433105469 3.7779018878936768 127.9918212890625 1.4180032014846802 127.98725891113281 C 0.5990855693817139 127.97834777832031 0.26730331778526306 127.96028137207031 0.12217498570680618 127.9176254272461 C 0.05779998376965523 127.81450653076172 0.02934785559773445 127.56071472167969 0.016918078064918518 126.93048858642578 C 0.011518538929522038 125.3733139038086 0.008785966783761978 121.46924591064453 0.007512902840971947 111.99954986572266 C 0.007319264579564333 92.35562133789062 0.007964026182889938 62.36132049560547 0.01015479676425457 32.45730972290039" stroke-width="2.0" fill="rgb(252, 194, 27)" opacity="1.0" stroke="rgb(252, 194, 27)" stroke-opacity="1.0" stroke-linecap="round" stroke-linejoin="round"/>
    <path d="M 77.23576354980469 52.02675247192383 C 77.23176574707031 52.01405715942383 77.24410247802734 52.04853057861328 77.39083862304688 52.166603088378906 C 77.96703338623047 52.60762405395508 78.84690856933594 53.54604721069336 79.93560028076172 55.333072662353516 C 81.42243194580078 58.3377799987793 82.40987396240234 62.31452560424805 82.47032165527344 66.17716217041016 C 82.40636444091797 69.10779571533203 82.37027740478516 70.836669921875 82.80413818359375 71.39842224121094 C 84.10308074951172 71.03434753417969 85.72802734375 70.06702423095703 87.33052062988281 68.70455169677734 C 88.76737976074219 67.25881958007812 89.66857147216797 66.10608673095703 90.4029541015625 65.43883514404297 C 91.30074310302734 65.22403717041016 92.06267547607422 65.47396850585938 93.33113098144531 66.12151336669922 C 95.60861206054688 67.15555572509766 97.88774108886719 68.6218490600586 99.6413803100586 70.43639373779297 C 101.05113220214844 72.36048889160156 101.9760971069336 74.10426330566406 102.68360900878906 75.49047088623047 C 103.42584228515625 76.58985137939453 103.80439758300781 77.48859405517578 103.8936538696289 78.14337921142578 C 103.99969482421875 78.63287353515625 103.79185485839844 79.07247161865234 103.19771575927734 79.62586975097656 C 102.26077270507812 80.61190795898438 100.51019287109375 82.23193359375 97.75751495361328 84.7931137084961 C 94.10026550292969 88.49845886230469 89.64076232910156 93.02623748779297 85.27984619140625 97.20176696777344 C 82.42256164550781 100.00115966796875 80.8233642578125 101.71369934082031 79.72736358642578 102.72746276855469 C 78.84693908691406 103.29759216308594 78.03166961669922 103.43092346191406 77.28965759277344 103.20355987548828 C 76.62556457519531 102.84178161621094 75.7282943725586 102.42054748535156 74.14659881591797 101.71195983886719 C 72.06842041015625 100.43258666992188 70.11436462402344 98.65840148925781 68.44792175292969 96.70857238769531 C 66.90914916992188 94.6829605102539 65.85076904296875 92.74124145507812 65.48318481445312 91.07383728027344 C 65.65843200683594 89.74797058105469 66.58992767333984 88.66937255859375 68.0041275024414 87.55929565429688 C 69.21586608886719 86.28659057617188 69.86592102050781 84.90289306640625 69.62935638427734 82.9053955078125" stroke-width="2.0" fill="rgb(255, 0, 0)" opacity="1.0" stroke="rgb(255, 0, 0)" stroke-opacity="1.0" stroke-linecap="round" stroke-linejoin="round"/>
    <path d="M 61.9770393371582 45.738929748535156 C 61.97007369995117 45.733062744140625 61.96772766113281 45.73857116699219 62.009979248046875 45.73895263671875 C 62.40483474731445 45.773155212402344 63.59996032714844 45.77668762207031 65.99588012695312 45.87935256958008 C 69.17510986328125 46.28441619873047 71.88373565673828 47.23794174194336 74.52731323242188 49.0676383972168 C 77.96715545654297 51.86323165893555 80.75572967529297 56.334259033203125 82.15672302246094 61.76348876953125 C 82.53335571289062 66.5555419921875 82.20166778564453 69.77326202392578 82.14849853515625 71.35709381103516 C 83.05774688720703 71.73146057128906 84.36307525634766 71.30126190185547 86.01155090332031 70.2806167602539 C 88.03870391845703 68.93699645996094 89.46053314208984 67.60869598388672 90.3457260131836 66.59737396240234 C 91.34732818603516 66.1822280883789 92.21546936035156 66.5317153930664 93.46183013916016 67.48429870605469 C 95.39353942871094 68.69677734375 97.13851165771484 70.05532836914062 98.4354248046875 71.52951049804688 C 99.63164520263672 73.00849151611328 100.45218658447266 74.32017517089844 100.90634155273438 75.40625 C 101.23526000976562 76.24529266357422 101.05618286132812 76.89456939697266 100.30517578125 77.51252746582031 C 98.99405670166016 78.50823974609375 96.59957885742188 80.23954010009766 93.14447784423828 83.06465911865234 C 89.04953002929688 87.20789337158203 84.64620971679688 91.96772766113281 80.85455322265625 95.80611419677734 C 78.62187194824219 98.16573333740234 77.29025268554688 99.37552642822266 76.28093719482422 99.86891174316406 C 75.27523803710938 99.86885833740234 74.07568359375 99.48695373535156 72.65814208984375 98.63459777832031 C 71.16016387939453 97.28652954101562 69.7824935913086 95.48506927490234 68.65506744384766 93.36084747314453 C 67.79553985595703 91.01712799072266 67.58403778076172 88.66395568847656 68.45532989501953 86.53364562988281 C 69.74433898925781 84.66120910644531 70.34823608398438 83.1795425415039 69.53250885009766 82.39112854003906 C 66.50592041015625 82.37676239013672 61.92887878417969 82.20426940917969 57.445892333984375 81.11886596679688 C 53.48271942138672 78.88837432861328 50.4979248046875 76.06310272216797 48.266090393066406 72.8901596069336" stroke-width="2.0" fill="rgb(0, 255, 0)" opacity="1.0" stroke="rgb(0, 255, 0)" stroke-opacity="1.0" stroke-linecap="round" stroke-linejoin="round"/>
    <path d="M 57.94882583618164 45.446128845214844 C 57.943260192871094 45.440711975097656 57.94416046142578 45.45026779174805 57.954437255859375 45.46601867675781 C 58.098472595214844 45.55099868774414 58.56894302368164 45.58428955078125 59.81306076049805 45.5307502746582 C 62.115631103515625 45.466400146484375 64.99838256835938 45.623573303222656 68.2829818725586 46.226192474365234 C 72.02350616455078 47.296504974365234 75.54300689697266 49.36764907836914 78.60103607177734 52.890708923339844 C 80.916015625 57.82855224609375 82.17033386230469 63.09238815307617 82.40438842773438 67.16080474853516 C 82.4164047241211 69.73065185546875 82.69702911376953 71.13121795654297 83.33473205566406 71.62814331054688 C 84.49461364746094 71.63280487060547 85.7960205078125 71.39188385009766 87.1602783203125 70.94986724853516 C 88.64965057373047 70.46028137207031 89.67401123046875 70.0046615600586 90.2212905883789 69.56187438964844 C 90.6598129272461 69.27494812011719 90.82856750488281 69.31742858886719 91.20147705078125 69.76997375488281 C 92.19178009033203 70.48808288574219 93.19792175292969 71.37928771972656 93.95333099365234 72.44457244873047 C 94.52082824707031 73.57865142822266 94.53165435791016 74.62213134765625 94.0967025756836 75.56698608398438 C 93.40508270263672 76.5320816040039 91.80607604980469 77.75933074951172 89.17237854003906 79.37474060058594 C 86.20903015136719 81.44657897949219 83.12842559814453 83.92754364013672 80.11233520507812 86.66071319580078 C 77.62217712402344 89.00572204589844 75.74690246582031 90.27054595947266 74.29950714111328 90.56995391845703 C 73.0809097290039 90.27185821533203 71.84739685058594 89.52557373046875 70.76091766357422 88.46600341796875 C 69.94991302490234 87.16273498535156 69.39401245117188 85.59915161132812 69.3104019165039 83.8816909790039 C 69.59095764160156 82.28218078613281 69.71988677978516 81.08074951171875 68.73418426513672 80.52094268798828 C 65.39106750488281 80.33714294433594 60.04916763305664 79.4253921508789 54.81813049316406 77.0490493774414 C 51.191436767578125 74.06168365478516 49.11027908325195 71.36685943603516 47.93220520019531 69.19166564941406 C 46.94513702392578 67.626220703125 46.0932502746582 66.33551025390625 45.64327621459961 65.28738403320312" stroke-width="2.0" fill="rgb(0, 0, 255)" opacity="1.0" stroke="rgb(0, 0, 255)" stroke-opacity="1.0" stroke-linecap="round" stroke-linejoin="round"/>
  </g>
</svg>
