<?xml version="1.0" ?>
<svg xmlns="http://www.w3.org/2000/svg" version="1.1" width="128" height="128">
  <defs/>
  <g>
    <path d="M 74.63168334960938 68.87528228759766 C 74.65055847167969 68.86360931396484 74.67245483398438 68.90437316894531 74.85985565185547 69.11007690429688 C 75.20370483398438 69.65081024169922 75.7000503540039 70.33851623535156 75.74662017822266 70.87930297851562 C 74.84408569335938 71.04850006103516 73.09906005859375 71.07308197021484 70.83196258544922 70.85369110107422 C 68.67059326171875 70.27993774414062 66.8512191772461 69.42838287353516 65.15093994140625 68.6900634765625 C 63.45071792602539 68.4782485961914 61.72287368774414 68.64336395263672 60.456966400146484 68.69768524169922 C 60.00754165649414 68.7169189453125 60.628440856933594 68.7135238647461 62.29255294799805 68.51937866210938 C 64.25255584716797 68.36306762695312 66.23477172851562 68.51029968261719 68.48946380615234 68.81083679199219 C 71.07733917236328 69.08157348632812 73.57276153564453 69.2911605834961 75.86779022216797 69.36636352539062 C 78.20252990722656 69.41127014160156 80.248779296875 69.4615249633789 82.27635955810547 69.43087005615234 C 84.62503051757812 69.56114959716797 86.79891967773438 69.93052673339844 88.6634750366211 70.38052368164062 C 90.16358947753906 70.83627319335938 91.0412826538086 71.38819122314453 91.86714172363281 71.96812438964844 C 92.91632843017578 72.3370590209961 93.79582977294922 72.62335205078125 94.55957794189453 73.08228302001953 C 95.12841796875 73.56521606445312 95.318115234375 73.83114624023438 95.33148956298828 73.63875579833984 C 95.15110778808594 73.07147216796875 94.3459701538086 72.5657958984375 92.67144775390625 72.31608581542969 C 90.1615219116211 71.97883605957031 86.92341613769531 71.1308822631836 82.90301513671875 69.2939453125 C 77.95718383789062 66.96614074707031 72.62883758544922 64.7248764038086 67.2468490600586 63.662601470947266 C 61.03084182739258 63.71598815917969 54.63343048095703 63.977806091308594 49.425113677978516 64.14321899414062 C 45.23040771484375 63.87958908081055 41.94259262084961 63.315452575683594 39.79116439819336 62.679996490478516 C 38.55572509765625 62.229496002197266 38.1269645690918 61.94557571411133 38.921142578125 61.86970520019531 C 41.10082244873047 62.18110656738281 44.96100616455078 63.036930084228516 50.507843017578125 63.892364501953125" stroke-width="2.0" fill="rgb(252, 194, 27)" opacity="1.0" stroke="rgb(252, 194, 27)" stroke-opacity="1.0" stroke-linecap="round" stroke-linejoin="round"/>
    <path d="M 58.797950744628906 51.91981887817383 C 58.774803161621094 51.926517486572266 58.78233337402344 51.89838409423828 58.19099807739258 51.87543869018555 C 55.89374923706055 51.85679626464844 52.029937744140625 51.96867370605469 49.152591705322266 52.827030181884766 C 48.18238830566406 54.79298782348633 47.81584930419922 57.24979782104492 48.16410827636719 59.3646240234375 C 50.02569580078125 60.42860412597656 53.564937591552734 60.637821197509766 58.946964263916016 60.56559753417969 C 66.61643981933594 60.54886245727539 75.62425231933594 60.67049026489258 85.02851867675781 60.9478874206543 C 93.90780639648438 61.106910705566406 101.20062255859375 61.08592987060547 107.06739044189453 61.218544006347656 C 111.62751770019531 61.209312438964844 114.478515625 60.72274398803711 116.20499420166016 59.575008392333984 C 117.42626953125 57.557857513427734 118.18755340576172 55.01215744018555 118.74072265625 52.70338439941406 C 119.2021484375 51.437435150146484 119.31982421875 51.8568115234375 119.32954406738281 54.35306930541992 C 119.53280639648438 58.614585876464844 119.7139892578125 64.27597045898438 119.70916748046875 70.49076080322266 C 119.63059997558594 76.67919921875 119.54737854003906 82.18126678466797 119.57369995117188 86.62588500976562 C 119.71881103515625 90.18881225585938 119.7596435546875 93.04654693603516 119.58103942871094 95.38796997070312 C 119.0595703125 97.1406478881836 117.98774719238281 98.22142791748047 116.35730743408203 98.64128112792969 C 114.09314727783203 98.64505767822266 111.1527328491211 98.44802856445312 107.51615905761719 98.04423522949219 C 103.16251373291016 97.49076080322266 98.17603302001953 96.99112701416016 92.22706604003906 96.89186096191406 C 84.74482727050781 97.22582244873047 76.86214447021484 97.35198974609375 69.0799331665039 97.0342788696289 C 60.722660064697266 96.81766510009766 51.776275634765625 96.96812438964844 43.63426208496094 96.9512710571289 C 36.75520324707031 96.82730102539062 30.43150520324707 96.84650421142578 25.112279891967773 96.90917205810547 C 21.401897430419922 97.25457763671875 19.6136417388916 97.73824310302734 19.813953399658203 97.80413055419922 C 21.410242080688477 96.76158142089844 23.9632511138916 93.29889678955078 28.300907135009766 85.4623794555664" stroke-width="2.0" fill="rgb(255, 0, 0)" opacity="1.0" stroke="rgb(255, 0, 0)" stroke-opacity="1.0" stroke-linecap="round" stroke-linejoin="round"/>
    <path d="M 59.08382034301758 51.904415130615234 C 59.06220626831055 51.912017822265625 59.065059661865234 51.88168716430664 58.479923248291016 51.859283447265625 C 56.15022277832031 51.86573791503906 52.101356506347656 51.99913024902344 48.98540496826172 52.772579193115234 C 47.90598678588867 54.62627410888672 47.58379364013672 56.97254943847656 47.959415435791016 59.09103775024414 C 49.73800277709961 60.19331359863281 53.22312545776367 60.311012268066406 58.70906448364258 60.13650131225586 C 66.5940933227539 60.091007232666016 75.75999450683594 60.21613311767578 85.28839111328125 60.463897705078125 C 94.21002960205078 60.567779541015625 101.34941864013672 60.48163604736328 107.06700897216797 60.587894439697266 C 111.58024597167969 60.717132568359375 114.34318542480469 60.53163146972656 116.01571655273438 59.896366119384766 C 117.36511993408203 58.693607330322266 118.18161010742188 56.7735710144043 118.72635650634766 54.49697494506836 C 119.30504608154297 52.676883697509766 119.60266876220703 52.545528411865234 119.578857421875 55.052982330322266 C 119.5657958984375 59.71287155151367 119.55366516113281 65.66848754882812 119.52838897705078 71.91983795166016 C 119.5875015258789 77.80999755859375 119.63709259033203 82.92850494384766 119.72238159179688 87.1212387084961 C 119.7707290649414 90.53547668457031 119.58528900146484 93.21398162841797 119.24581909179688 95.29769134521484 C 118.74252319335938 96.80221557617188 117.77664947509766 97.7960205078125 116.17293548583984 98.35711669921875 C 113.74176788330078 98.58000946044922 110.40065002441406 98.4686508178711 106.23780822753906 98.0826187133789 C 101.22179412841797 97.64622497558594 95.52568817138672 97.26712799072266 89.02079772949219 97.2412338256836 C 81.3423080444336 97.58427429199219 73.068359375 97.55793762207031 64.04691314697266 97.19989013671875 C 54.237831115722656 97.33413696289062 45.21031951904297 97.33272552490234 38.339447021484375 97.20466613769531 C 32.17655944824219 97.2381820678711 26.312789916992188 97.41114807128906 21.643373489379883 97.57958984375 C 18.405567169189453 97.85772705078125 16.948646545410156 98.1273193359375 17.259859085083008 98.08820343017578 C 18.733867645263672 97.5042724609375 20.62447166442871 94.89910125732422 22.644498825073242 88.17156219482422" stroke-width="2.0" fill="rgb(0, 255, 0)" opacity="1.0" stroke="rgb(0, 255, 0)" stroke-opacity="1.0" stroke-linecap="round" stroke-linejoin="round"/>
    <path d="M 67.51494598388672 51.69546127319336 C 67.48529815673828 51.718257904052734 67.49701690673828 51.676513671875 66.8729019165039 51.649051666259766 C 64.32119750976562 51.667396545410156 58.728004455566406 51.86854934692383 52.40519332885742 52.064083099365234 C 48.990814208984375 53.05287551879883 48.45309066772461 55.30130386352539 48.74990463256836 57.68686294555664 C 49.95866775512695 59.41093063354492 53.25288772583008 59.81254196166992 59.02906799316406 59.52629852294922 C 67.29498291015625 59.396915435791016 76.59115600585938 59.5441780090332 86.23607635498047 59.763458251953125 C 95.15966033935547 59.81438064575195 102.05013275146484 59.730716705322266 107.25064849853516 59.813087463378906 C 111.27294158935547 60.032691955566406 113.66161346435547 60.00216293334961 115.26960754394531 59.66251754760742 C 116.74563598632812 58.74895477294922 117.70777130126953 57.120155334472656 118.2552490234375 55.22662353515625 C 118.74325561523438 54.50835037231445 118.74434661865234 56.51645278930664 118.30705261230469 60.95183181762695 C 118.07223510742188 66.50419616699219 118.15623474121094 72.25917053222656 118.42082214355469 77.55744171142578 C 118.72846984863281 82.14862823486328 118.83425903320312 85.88428497314453 118.8499526977539 88.86653900146484 C 118.88865661621094 91.32585144042969 118.60419464111328 93.46488189697266 117.92281341552734 95.12037658691406 C 117.05854034423828 96.3214340209961 115.83658599853516 97.219970703125 113.97865295410156 97.8699951171875 C 111.15178680419922 98.3284912109375 107.01258850097656 98.55280303955078 101.668212890625 98.49146270751953 C 95.71127319335938 98.35889434814453 89.76152038574219 98.29796600341797 83.2874984741211 98.34724426269531 C 75.93621063232422 98.32902526855469 67.71752166748047 98.03498840332031 58.516300201416016 98.04273223876953 C 48.74877166748047 98.2417221069336 41.10898208618164 98.0872573852539 35.590850830078125 97.79093170166016 C 30.340499877929688 97.85089874267578 25.312650680541992 97.96128845214844 21.028797149658203 97.913330078125 C 17.66573143005371 97.78341674804688 15.767312049865723 97.5443344116211 15.530630111694336 97.32933807373047 C 16.64092254638672 97.19805145263672 18.608776092529297 96.59174346923828 20.67440414428711 93.89849090576172" stroke-width="2.0" fill="rgb(0, 0, 255)" opacity="1.0" stroke="rgb(0, 0, 255)" stroke-opacity="1.0" stroke-linecap="round" stroke-linejoin="round"/>
  </g>
</svg>
