<?xml version="1.0" ?>
<svg xmlns="http://www.w3.org/2000/svg" version="1.1" width="128" height="128">
  <defs/>
  <g>
    <path d="M 0.3123624920845032 0.2014627754688263 C 0.3127405643463135 0.2012711465358734 0.31157034635543823 0.2005213052034378 0.31150221824645996 0.19439023733139038 C 0.32274243235588074 0.17518596351146698 0.3768331706523895 0.13532042503356934 0.5829508900642395 0.08373454213142395 C 1.3299137353897095 0.041792307049036026 4.036586761474609 0.019431689754128456 13.108854293823242 0.00956959743052721 C 37.099708557128906 0.005589363165199757 74.3615951538086 0.003980563022196293 104.67289733886719 0.0033759537618607283 C 119.1802749633789 0.0032892622984945774 124.58029174804688 0.0037131994031369686 126.5708999633789 0.004737355746328831 C 127.33924102783203 0.006489154417067766 127.65648651123047 0.00922535452991724 127.80023956298828 0.013673912733793259 C 127.8729476928711 0.021637216210365295 127.91307067871094 0.03895067423582077 127.94017028808594 0.0809704139828682 C 127.95674133300781 0.18515825271606445 127.9659652709961 0.45961061120033264 127.97245025634766 1.2408349514007568 C 127.9778060913086 3.701967239379883 127.98004150390625 11.752836227416992 127.98005676269531 33.51054000854492 C 127.97969055175781 73.03492736816406 127.97737884521484 107.43706512451172 127.97130584716797 122.00043487548828 C 127.96306610107422 126.26036071777344 127.94989776611328 127.45862579345703 127.92601013183594 127.81202697753906 C 127.8798599243164 127.92864227294922 127.7882080078125 127.97003936767578 127.60542297363281 127.98588562011719 C 127.19303131103516 127.99299621582031 126.1312484741211 127.99641418457031 123.1895980834961 127.99803161621094 C 115.07359313964844 127.998779296875 94.67164611816406 127.99911499023438 59.51046371459961 127.99925231933594 C 26.757909774780273 127.99929809570312 9.668954849243164 127.999267578125 3.3559701442718506 127.99909973144531 C 1.2570761442184448 127.99874877929688 0.5339449048042297 127.99803161621094 0.2518882155418396 127.99658203125 C 0.12334129214286804 127.99380493164062 0.06289178878068924 127.98774719238281 0.03353624418377876 127.97289276123047 C 0.018836641684174538 127.93531799316406 0.01099429838359356 127.83354187011719 0.007025993894785643 127.55213928222656 C 0.005029722116887569 126.76449584960938 0.003985135816037655 124.5435562133789 0.003362574614584446 118.20054626464844 C 0.003265287494286895 101.63516235351562 0.003788434434682131 67.9045639038086 0.005489566829055548 32.370357513427734" stroke-width="2.0" fill="rgb(252, 194, 27)" opacity="1.0" stroke="rgb(252, 194, 27)" stroke-opacity="1.0" stroke-linecap="round" stroke-linejoin="round"/>
    <path d="M 80.86946868896484 36.99796676635742 C 80.86931610107422 36.98896026611328 80.90594482421875 36.98173904418945 81.1195068359375 36.85253143310547 C 81.67643737792969 36.41876983642578 82.3532943725586 35.403465270996094 82.74932098388672 33.75088882446289 C 82.9079360961914 31.537147521972656 83.97229766845703 29.385669708251953 86.03471374511719 27.78126335144043 C 88.13652801513672 26.893789291381836 89.8333511352539 26.685169219970703 90.9698486328125 26.924400329589844 C 91.28543853759766 27.350364685058594 90.51168823242188 27.795995712280273 89.29805755615234 28.199134826660156 C 88.1424560546875 28.66130828857422 86.94590759277344 29.25896644592285 85.89886474609375 30.033536911010742 C 85.0639877319336 30.99159812927246 84.01044464111328 32.20848846435547 82.7132568359375 34.03593063354492 C 80.50987243652344 37.1492805480957 75.62232971191406 42.315765380859375 67.70289611816406 48.9057502746582 C 58.066287994384766 55.34372329711914 49.165016174316406 60.287906646728516 43.50048065185547 64.16000366210938 C 41.5574951171875 66.57813262939453 41.90383529663086 67.54582977294922 43.91323471069336 68.37010192871094 C 46.749271392822266 69.97532653808594 49.54218292236328 72.9935073852539 52.247745513916016 77.27849578857422 C 54.17371368408203 82.8161392211914 54.022865295410156 89.65519714355469 51.31256103515625 96.7098159790039 C 47.841041564941406 102.60652923583984 44.443145751953125 107.0255355834961 41.49345016479492 110.1516342163086 C 39.32477951049805 112.46383666992188 37.63596725463867 114.1899185180664 36.26401138305664 115.45082092285156 C 35.13486099243164 116.37422943115234 33.989192962646484 117.04085540771484 32.749820709228516 117.49205780029297 C 31.451889038085938 117.76123046875 30.10829734802246 117.81707763671875 28.766305923461914 117.5682144165039 C 27.433191299438477 116.88116455078125 25.719987869262695 115.4627914428711 23.301177978515625 112.97291564941406 C 20.31081199645996 109.75735473632812 17.01031494140625 106.35594177246094 14.044329643249512 103.14054870605469 C 11.714383125305176 100.4930419921875 10.0602388381958 98.6214828491211 9.037848472595215 97.00707244873047 C 8.719879150390625 95.09577178955078 9.232216835021973 92.6615219116211 10.775898933410645 89.76422882080078" stroke-width="2.0" fill="rgb(255, 0, 0)" opacity="1.0" stroke="rgb(255, 0, 0)" stroke-opacity="1.0" stroke-linecap="round" stroke-linejoin="round"/>
    <path d="M 79.53137969970703 37.72876739501953 C 79.52788543701172 37.72861099243164 79.53331756591797 37.70021057128906 79.59632110595703 37.540016174316406 C 80.04289245605469 37.077064514160156 81.08382415771484 36.255943298339844 82.50736999511719 35.40745544433594 C 83.57233428955078 35.07425308227539 83.28535461425781 35.73208999633789 81.40555572509766 37.5265998840332 C 78.8278579711914 40.1468505859375 75.97169494628906 43.130096435546875 72.92374420166016 46.264366149902344 C 69.77616882324219 49.313758850097656 65.93325805664062 52.28120803833008 60.9476432800293 55.04946517944336 C 55.35589599609375 57.750274658203125 50.09968185424805 60.53725814819336 46.272544860839844 63.26997375488281 C 44.66579818725586 65.8342056274414 44.98497009277344 67.96824645996094 46.97180938720703 69.7236557006836 C 50.634151458740234 70.59954071044922 55.7694206237793 70.68989562988281 61.96754837036133 69.90587615966797 C 67.82392883300781 67.92469787597656 71.80891418457031 64.68647003173828 74.5489273071289 61.126461029052734 C 77.20899963378906 58.27552032470703 78.9842529296875 56.92936706542969 78.95063018798828 57.412200927734375 C 77.73482513427734 59.267677307128906 75.79280853271484 62.014339447021484 74.03521728515625 65.3030014038086 C 73.60991668701172 69.42460632324219 73.49915313720703 74.34585571289062 72.05674743652344 79.07550048828125 C 69.27806854248047 83.18854522705078 65.90143585205078 86.4808120727539 62.91482162475586 89.1494140625 C 60.51396179199219 91.44297790527344 58.3433952331543 93.5648193359375 56.28248596191406 95.621337890625 C 54.33924865722656 97.76895904541016 52.2342414855957 99.97399139404297 49.95961380004883 102.04533386230469 C 47.92955780029297 103.92125701904297 46.03691482543945 105.5691909790039 44.03794479370117 106.783447265625 C 42.05519104003906 107.41926574707031 40.18349838256836 107.34690856933594 38.43016052246094 106.37823486328125 C 36.6439208984375 104.31907653808594 34.21565246582031 100.96270751953125 31.394454956054688 97.03015899658203 C 28.574369430541992 93.24224090576172 26.561662673950195 89.75700378417969 25.865737915039062 86.66835021972656 C 26.534141540527344 83.77144622802734 28.60075569152832 80.66077423095703 32.022308349609375 76.61790466308594" stroke-width="2.0" fill="rgb(0, 255, 0)" opacity="1.0" stroke="rgb(0, 255, 0)" stroke-opacity="1.0" stroke-linecap="round" stroke-linejoin="round"/>
    <path d="M 78.5716781616211 39.06147384643555 C 78.56828308105469 39.05771255493164 78.58209228515625 39.0483283996582 78.64122772216797 38.969459533691406 C 78.89714050292969 38.693634033203125 79.51124572753906 38.06843185424805 80.48479461669922 37.179710388183594 C 81.62356567382812 36.365989685058594 82.47319793701172 35.96102523803711 82.68192291259766 36.254173278808594 C 81.86311340332031 37.31439971923828 79.67740631103516 39.26211166381836 76.59501647949219 41.97579574584961 C 73.20413208007812 45.25043869018555 69.19071197509766 48.91147232055664 64.1058349609375 52.63728713989258 C 58.20022964477539 55.90026092529297 52.249305725097656 58.91510009765625 47.6597900390625 61.9007453918457 C 45.220760345458984 64.53715515136719 44.62914276123047 66.77152252197266 45.43242645263672 68.63566589355469 C 47.54892349243164 70.17694854736328 51.077606201171875 71.00689697265625 56.10779571533203 71.0758285522461 C 61.904361724853516 70.32861328125 67.0645980834961 68.55825805664062 70.96241760253906 65.66419219970703 C 73.88664245605469 62.36270523071289 76.21638488769531 59.65629959106445 77.86897277832031 58.237937927246094 C 78.22493743896484 58.503929138183594 77.12090301513672 60.10410690307617 75.4207763671875 62.52922439575195 C 74.05924224853516 65.6102294921875 73.41964721679688 69.56368255615234 73.1114501953125 74.23524475097656 C 71.90235137939453 78.8050308227539 69.22091674804688 82.81997680664062 66.0063705444336 86.01097106933594 C 63.25362777709961 88.53559875488281 60.82132339477539 90.61263275146484 58.6735954284668 92.39863586425781 C 56.91454315185547 94.16283416748047 55.16963577270508 95.89030456542969 53.3463249206543 97.54154968261719 C 51.52947998046875 99.16798400878906 49.5991325378418 100.75641632080078 47.57907485961914 102.06245422363281 C 45.505210876464844 102.83424377441406 43.4396858215332 102.66343688964844 41.358516693115234 101.17111206054688 C 38.878570556640625 98.16856384277344 36.04589080810547 94.24293518066406 33.410465240478516 90.20144653320312 C 31.66876983642578 86.34898376464844 31.286596298217773 82.81085968017578 32.383426666259766 79.34229278564453 C 34.59992599487305 75.3655014038086 37.86840057373047 69.24455261230469 46.98124694824219 61.371665954589844" stroke-width="2.0" fill="rgb(0, 0, 255)" opacity="1.0" stroke="rgb(0, 0, 255)" stroke-opacity="1.0" stroke-linecap="round" stroke-linejoin="round"/>
  </g>
</svg>
