<?xml version="1.0" ?>
<svg xmlns="http://www.w3.org/2000/svg" version="1.1" width="128" height="128">
  <defs/>
  <g>
    <path d="M 1.3818715810775757 0.3653296232223511 C 1.384300947189331 0.3643748164176941 1.3788361549377441 0.361675500869751 1.3973374366760254 0.34224453568458557 C 1.5527284145355225 0.2932436764240265 2.1965084075927734 0.21487772464752197 4.281219482421875 0.1372988224029541 C 10.75446891784668 0.085481196641922 27.691978454589844 0.059888020157814026 58.19406509399414 0.04924998804926872 C 90.18334197998047 0.045531220734119415 110.33479309082031 0.04612568020820618 120.0220718383789 0.05064680054783821 C 124.24695587158203 0.05728435516357422 126.06063079833984 0.0679217278957367 126.8990478515625 0.08559805154800415 C 127.31857299804688 0.11205778270959854 127.55046081542969 0.1609957069158554 127.69275665283203 0.24826811254024506 C 127.78741455078125 0.39798638224601746 127.84661865234375 0.6618292927742004 127.88639068603516 1.1564140319824219 C 127.91475677490234 2.1196393966674805 127.9329605102539 3.95573091506958 127.94634246826172 7.459321022033691 C 127.95689392089844 14.040140151977539 127.9630355834961 25.298362731933594 127.96552276611328 41.6912727355957 C 127.96590423583984 62.05036926269531 127.96344757080078 83.33350372314453 127.95843505859375 101.03142547607422 C 127.95127868652344 113.17724609375 127.93910217285156 120.45671081542969 127.92172241210938 124.2486801147461 C 127.89945983886719 126.089111328125 127.86653137207031 126.9314193725586 127.819091796875 127.35889434814453 C 127.7475814819336 127.59077453613281 127.63063049316406 127.72099304199219 127.45071411132812 127.80052947998047 C 127.14907836914062 127.85289001464844 126.50659942626953 127.8919677734375 124.88078308105469 127.91625213623047 C 120.51514434814453 127.93254852294922 107.94705963134766 127.94657135009766 76.47212219238281 127.95286560058594 C 34.54123306274414 127.95323181152344 10.99971866607666 127.94274139404297 3.5038630962371826 127.91826629638672 C 1.3278080224990845 127.86544036865234 0.543097734451294 127.7630615234375 0.23674160242080688 127.57303619384766 C 0.11451145261526108 127.22356414794922 0.06145218014717102 126.59004211425781 0.03794931247830391 125.4250717163086 C 0.02690589800477028 123.18716430664062 0.021233154460787773 118.67739868164062 0.018486296758055687 109.35536193847656 C 0.017929919064044952 91.58197021484375 0.019140657037496567 64.30787658691406 0.02237081527709961 35.76837921142578" stroke-width="2.0" fill="rgb(252, 194, 27)" opacity="1.0" stroke="rgb(252, 194, 27)" stroke-opacity="1.0" stroke-linecap="round" stroke-linejoin="round"/>
    <path d="M 77.331298828125 26.493772506713867 C 77.33566284179688 26.488182067871094 77.30563354492188 26.499862670898438 77.3463134765625 26.616283416748047 C 78.15374755859375 27.021705627441406 80.45793914794922 27.612808227539062 84.20928955078125 27.995906829833984 C 88.31560516357422 28.187253952026367 91.26347351074219 28.741304397583008 92.94979095458984 29.970361709594727 C 94.38063049316406 31.648496627807617 95.58747863769531 33.66664123535156 97.0939712524414 36.03733825683594 C 99.28556060791016 38.58671188354492 101.32826232910156 41.067237854003906 103.2078628540039 43.17311096191406 C 105.41995239257812 44.619693756103516 107.60919952392578 45.7020378112793 109.67472839355469 46.70150375366211 C 111.55725860595703 47.80473709106445 112.66358184814453 49.28824996948242 113.19483947753906 51.07560729980469 C 113.51997375488281 53.015804290771484 113.39405822753906 54.97015380859375 113.12686157226562 56.919921875 C 113.18901062011719 58.82963562011719 113.38137817382812 60.656368255615234 113.98513793945312 62.93827438354492 C 114.76640319824219 66.35310363769531 114.40628814697266 71.31324005126953 112.92343139648438 76.88029479980469 C 111.10501861572266 82.00279235839844 109.02619934082031 86.35091400146484 107.01696014404297 89.67481231689453 C 105.9174575805664 91.56964874267578 105.87114715576172 91.33068084716797 107.38406372070312 88.32275390625 C 110.29930114746094 83.11448669433594 113.12193298339844 76.61880493164062 115.03231048583984 70.87931823730469 C 116.07501220703125 66.72364044189453 116.19697570800781 64.41654968261719 115.41007995605469 63.64445877075195 C 113.59825134277344 63.636295318603516 110.19843292236328 63.818267822265625 104.73833465576172 63.79048156738281 C 97.33172607421875 63.458011627197266 88.47637939453125 62.94115447998047 77.1478271484375 62.39699935913086 C 61.182491302490234 62.241668701171875 46.110572814941406 62.352142333984375 36.273521423339844 62.672019958496094 C 28.320329666137695 62.626651763916016 22.22800636291504 62.56266784667969 18.2854061126709 62.47990036010742 C 15.858291625976562 62.51533126831055 14.363353729248047 62.82987594604492 13.52067756652832 63.72797393798828 C 12.98556137084961 65.3840560913086 12.42877197265625 66.92103576660156 12.095499038696289 66.3772964477539" stroke-width="2.0" fill="rgb(255, 0, 0)" opacity="1.0" stroke="rgb(255, 0, 0)" stroke-opacity="1.0" stroke-linecap="round" stroke-linejoin="round"/>
    <path d="M 80.32893371582031 28.24611473083496 C 80.33293914794922 28.247241973876953 80.3141098022461 28.236717224121094 80.3670425415039 28.20338249206543 C 80.99887084960938 28.120412826538086 82.81915283203125 27.956947326660156 85.73365020751953 27.748027801513672 C 89.05740356445312 27.723411560058594 91.5039291381836 28.17707633972168 92.97935485839844 29.2065486907959 C 94.3208999633789 30.641130447387695 95.230224609375 32.57161331176758 96.1609878540039 34.950016021728516 C 97.88007354736328 37.610816955566406 99.8028564453125 40.33697509765625 101.80948638916016 42.87586975097656 C 104.14045715332031 44.75014114379883 106.47512817382812 46.17361068725586 108.83222961425781 47.485260009765625 C 111.00029754638672 49.01961898803711 112.08126068115234 51.02867889404297 112.38423919677734 53.33985900878906 C 112.66303253173828 55.698219299316406 112.91645812988281 57.94516372680664 113.74102783203125 60.00893783569336 C 115.21263122558594 62.43680953979492 115.8967514038086 65.79444122314453 115.55691528320312 70.23430633544922 C 114.666748046875 74.8410873413086 113.07698059082031 79.35360717773438 111.31961822509766 83.51415252685547 C 109.82156372070312 87.11534881591797 108.27640533447266 90.02161407470703 106.97721099853516 92.060791015625 C 106.16497039794922 93.13496398925781 106.10417938232422 92.87353515625 107.2691421508789 90.6390609741211 C 109.36776733398438 86.13981628417969 111.58299255371094 80.30827331542969 113.2724609375 74.35582733154297 C 114.27461242675781 69.57032012939453 114.6190185546875 66.30374908447266 114.21398162841797 64.49166870117188 C 112.88157653808594 63.700157165527344 110.3130111694336 63.41853332519531 106.15567779541016 63.24092102050781 C 100.58724212646484 62.980167388916016 93.87761688232422 62.765037536621094 85.93783569335938 62.66571044921875 C 75.39555358886719 62.65229797363281 61.063682556152344 62.661678314208984 48.290618896484375 62.506568908691406 C 39.8622932434082 62.55927276611328 32.61435317993164 62.59128952026367 26.645217895507812 62.71506881713867 C 22.350914001464844 62.73040771484375 19.542259216308594 62.63248062133789 17.90596580505371 62.548091888427734 C 16.972423553466797 62.55879211425781 16.526962280273438 62.045745849609375 17.037492752075195 59.140689849853516" stroke-width="2.0" fill="rgb(0, 255, 0)" opacity="1.0" stroke="rgb(0, 255, 0)" stroke-opacity="1.0" stroke-linecap="round" stroke-linejoin="round"/>
    <path d="M 57.699851989746094 17.003087997436523 C 57.70100402832031 16.99250030517578 57.702728271484375 16.999755859375 57.77833557128906 16.9991455078125 C 58.161346435546875 17.085670471191406 59.087791442871094 17.339126586914062 60.69813919067383 17.898202896118164 C 63.077518463134766 18.839956283569336 66.24817657470703 20.193931579589844 70.57637786865234 21.948196411132812 C 75.92118072509766 23.9039249420166 81.2815170288086 26.225025177001953 86.25984954833984 28.925411224365234 C 90.74360656738281 32.19179916381836 94.1604995727539 36.80618667602539 96.84415435791016 41.642948150634766 C 99.40265655517578 45.86297607421875 101.39035034179688 49.647308349609375 103.17894744873047 53.01357650756836 C 105.1446533203125 55.838294982910156 106.9011001586914 58.62090301513672 108.28267669677734 61.43427276611328 C 109.58763122558594 64.30772399902344 110.3803939819336 67.23551940917969 110.82020568847656 70.27625274658203 C 111.38363647460938 73.27227020263672 111.6836166381836 76.20886993408203 111.62492370605469 79.1892318725586 C 111.53285217285156 82.34869384765625 111.08808135986328 85.81600189208984 110.22833251953125 89.80493927001953 C 108.76561737060547 94.44572448730469 106.20561218261719 98.97966766357422 103.386474609375 102.41419982910156 C 100.84859466552734 104.59800720214844 97.84259033203125 105.55876159667969 94.46635437011719 105.22006225585938 C 91.39459991455078 103.81375122070312 88.68604278564453 101.4949951171875 86.71007537841797 98.64603424072266 C 85.56304168701172 95.82172393798828 84.73771667480469 93.23689270019531 84.35990905761719 90.8510513305664 C 84.66175079345703 88.8011245727539 85.20632934570312 86.99832153320312 85.72730255126953 85.27285766601562 C 86.65025329589844 83.386962890625 88.0199966430664 80.84374237060547 89.17262268066406 77.1176986694336 C 89.43704986572266 71.81208038330078 87.8509750366211 65.18806457519531 82.82864379882812 57.84426498413086 C 72.19432830810547 51.8751106262207 57.89345169067383 49.04405212402344 46.66269302368164 49.16649627685547 C 39.618350982666016 51.0583610534668 34.96487045288086 52.48504638671875 31.38263511657715 53.15232467651367 C 28.654592514038086 52.34416961669922 27.14504051208496 49.241294860839844 27.68243408203125 43.5006217956543" stroke-width="2.0" fill="rgb(0, 0, 255)" opacity="1.0" stroke="rgb(0, 0, 255)" stroke-opacity="1.0" stroke-linecap="round" stroke-linejoin="round"/>
  </g>
</svg>
