<?xml version="1.0" ?>
<svg xmlns="http://www.w3.org/2000/svg" version="1.1" width="128" height="128">
  <defs/>
  <g>
    <path d="M 51.88614273071289 54.576271057128906 C 51.87028884887695 54.58647918701172 51.92021942138672 54.608787536621094 52.079708099365234 54.7559814453125 C 52.57948303222656 54.93913269042969 53.540645599365234 54.891990661621094 55.07086944580078 54.19853973388672 C 56.91227722167969 52.47708511352539 58.596946716308594 49.67818069458008 59.592750549316406 46.31443405151367 C 60.06784439086914 43.16147232055664 60.53154373168945 40.835243225097656 61.2735595703125 39.48402404785156 C 62.56660079956055 38.905826568603516 64.24149322509766 39.08279037475586 65.8839340209961 39.88783645629883 C 67.48362731933594 41.059757232666016 68.89825439453125 42.70283508300781 70.14515686035156 44.86741256713867 C 71.16796875 47.5844841003418 71.69743347167969 50.76770782470703 71.90168762207031 54.35395050048828 C 72.15294647216797 58.05210494995117 72.67556762695312 61.29770278930664 73.77458190917969 63.92994689941406 C 75.27913665771484 65.9665298461914 76.47071838378906 67.77421569824219 77.22367858886719 69.36563110351562 C 77.99073791503906 70.65741729736328 78.53280639648438 71.90440368652344 78.90392303466797 73.02782440185547 C 79.38633728027344 74.00347900390625 79.5706558227539 74.7292709350586 79.6353530883789 75.15912628173828 C 79.93870544433594 75.3387222290039 79.8741455078125 75.11187744140625 79.46048736572266 74.35971069335938 C 78.78600311279297 73.2925796508789 77.34915924072266 71.8466796875 75.12897491455078 69.85762023925781 C 72.53069305419922 67.0566177368164 69.42611694335938 63.93329620361328 65.11962890625 61.00461959838867 C 60.12680435180664 58.41802215576172 55.77012252807617 56.72805404663086 52.54551696777344 56.44061279296875 C 49.735836029052734 56.86262512207031 46.936439514160156 57.74680709838867 44.52909851074219 58.723976135253906 C 42.52881622314453 59.774749755859375 40.7596549987793 61.07234191894531 39.28359603881836 62.52672576904297 C 37.9489631652832 63.99104309082031 36.844783782958984 65.08368682861328 36.24082946777344 65.5215072631836 C 36.24018478393555 65.30426788330078 36.90988540649414 64.68080139160156 38.23788070678711 63.8580436706543 C 39.912261962890625 63.19776153564453 41.60215759277344 62.66399002075195 43.21717071533203 61.94955825805664" stroke-width="2.0" fill="rgb(252, 194, 27)" opacity="1.0" stroke="rgb(252, 194, 27)" stroke-opacity="1.0" stroke-linecap="round" stroke-linejoin="round"/>
    <path d="M 25.55922508239746 51.18918228149414 C 25.573030471801758 51.16949462890625 25.526466369628906 51.00565719604492 25.620954513549805 49.88858413696289 C 26.690305709838867 46.05940628051758 30.95627212524414 39.151336669921875 39.12136459350586 31.30381965637207 C 48.56023406982422 25.519790649414062 57.22667694091797 23.1395320892334 63.65159606933594 22.63636016845703 C 68.28607177734375 22.80234146118164 71.95442199707031 23.35467529296875 75.73990631103516 24.336376190185547 C 80.1646957397461 25.82181739807129 83.82957458496094 27.70213508605957 87.74163055419922 30.295499801635742 C 92.99979400634766 34.066612243652344 97.6237564086914 39.35115051269531 100.82279968261719 45.29753494262695 C 103.34419250488281 50.56949234008789 104.33805847167969 54.485565185546875 104.78472137451172 56.8262825012207 C 106.32495880126953 58.07809829711914 107.88516998291016 58.762271881103516 109.42703247070312 59.23746871948242 C 111.20079040527344 60.188873291015625 112.11640167236328 61.920597076416016 112.65725708007812 64.79671478271484 C 112.86820220947266 68.55461120605469 111.31576538085938 71.78482818603516 108.70938110351562 73.27958679199219 C 106.720458984375 73.60124206542969 105.10511016845703 73.81160736083984 104.0946273803711 74.6268539428711 C 103.74268341064453 76.56705474853516 102.664794921875 79.80766296386719 100.6189193725586 83.94380187988281 C 97.9416732788086 88.70850372314453 93.63311004638672 93.72857666015625 87.98609924316406 97.90714263916016 C 83.54358673095703 100.63494873046875 80.39781951904297 102.31272888183594 77.1523208618164 103.30862426757812 C 74.16914367675781 104.0987777709961 70.95252227783203 104.95932006835938 66.56742858886719 105.47303009033203 C 61.381507873535156 105.49688720703125 56.23936462402344 104.89983367919922 51.68391418457031 103.71891021728516 C 48.43504333496094 102.30191040039062 46.01934814453125 100.99271392822266 43.67150115966797 99.77751922607422 C 40.64719009399414 98.07145690917969 37.015682220458984 95.2776870727539 32.9644660949707 91.3963851928711 C 29.124526977539062 86.85861206054688 26.37578773498535 82.25489807128906 24.90315818786621 78.10308074951172 C 23.942737579345703 75.29039764404297 23.028854370117188 73.98775482177734 21.78268814086914 73.55570983886719" stroke-width="2.0" fill="rgb(255, 0, 0)" opacity="1.0" stroke="rgb(255, 0, 0)" stroke-opacity="1.0" stroke-linecap="round" stroke-linejoin="round"/>
    <path d="M 35.164703369140625 47.34284591674805 C 35.180702209472656 47.310462951660156 35.176536560058594 47.04057693481445 35.682464599609375 45.65567398071289 C 37.82865524291992 42.507972717285156 42.70489501953125 37.889347076416016 50.07154846191406 33.59382629394531 C 58.581729888916016 31.477882385253906 65.80614471435547 31.636001586914062 70.48381805419922 33.074615478515625 C 73.27487182617188 35.30830001831055 74.5097885131836 38.032657623291016 75.22496795654297 40.826377868652344 C 76.83443450927734 43.168373107910156 79.05152893066406 44.916168212890625 82.04264831542969 46.08680725097656 C 86.68111419677734 47.35495376586914 90.99494934082031 49.41203308105469 94.0110092163086 51.65575408935547 C 96.67227172851562 53.44623947143555 98.02465057373047 54.79420852661133 98.57550811767578 55.732994079589844 C 99.37769317626953 56.5717658996582 99.67719268798828 57.941341400146484 100.11727905273438 60.547271728515625 C 100.73645782470703 64.14585876464844 100.1515884399414 67.6500015258789 99.5605239868164 70.91388702392578 C 99.5268783569336 73.82501983642578 98.97288513183594 76.6124038696289 98.25211334228516 79.04029846191406 C 97.86064910888672 81.26939392089844 97.35343933105469 83.35098266601562 96.71440124511719 85.24209594726562 C 96.06397247314453 87.10018920898438 94.97277069091797 89.00220489501953 93.54390716552734 91.03949737548828 C 91.94136810302734 93.5048599243164 89.57227325439453 96.1076889038086 86.50331115722656 98.24343872070312 C 83.8818359375 99.80838775634766 81.52197265625 100.9225845336914 78.81619262695312 101.5849380493164 C 75.91507720947266 101.92533874511719 72.48188018798828 102.24028778076172 67.24398040771484 102.32975769042969 C 60.014625549316406 101.92635345458984 52.35846710205078 100.97017669677734 47.06106948852539 99.74513244628906 C 44.241756439208984 98.83325958251953 42.66884231567383 98.24578094482422 41.63258361816406 97.7801742553711 C 40.70479965209961 97.33834075927734 39.85092544555664 96.76028442382812 39.04426956176758 96.01094055175781 C 38.147438049316406 95.07337951660156 37.217620849609375 93.70501708984375 36.12491989135742 91.6432113647461 C 34.68002700805664 88.77511596679688 33.294979095458984 85.00735473632812 32.431514739990234 80.97699737548828" stroke-width="2.0" fill="rgb(0, 255, 0)" opacity="1.0" stroke="rgb(0, 255, 0)" stroke-opacity="1.0" stroke-linecap="round" stroke-linejoin="round"/>
    <path d="M 46.548423767089844 29.621986389160156 C 46.54974365234375 29.62053680419922 46.56114196777344 29.588401794433594 46.715576171875 29.420621871948242 C 47.387874603271484 28.96030616760254 48.943870544433594 28.131860733032227 51.755332946777344 27.144367218017578 C 55.91768264770508 26.534862518310547 61.30306625366211 26.550832748413086 66.61299133300781 27.24842643737793 C 70.91686248779297 28.633745193481445 74.01351928710938 30.661312103271484 76.3326644897461 33.30180358886719 C 77.97273254394531 36.26445007324219 78.36653900146484 39.41413116455078 78.32901763916016 42.798377990722656 C 78.91441345214844 45.85375213623047 79.82850646972656 48.33136749267578 81.75149536132812 50.44053649902344 C 84.64826202392578 52.16450881958008 86.61675262451172 53.604496002197266 88.2310562133789 54.83893966674805 C 90.19047546386719 56.237735748291016 90.97039794921875 57.8527946472168 90.79788970947266 59.42085266113281 C 90.44075775146484 60.88823318481445 89.45497131347656 62.34632873535156 88.45577239990234 63.89811325073242 C 88.01004028320312 65.68623352050781 87.04371643066406 67.8248062133789 85.87460327148438 69.97718811035156 C 85.33332061767578 71.9193344116211 85.002197265625 73.57352447509766 84.79761505126953 75.09803771972656 C 84.68156433105469 76.82154846191406 84.02167510986328 78.8101806640625 82.79056549072266 81.04949951171875 C 81.33975219726562 83.70933532714844 79.70904541015625 86.49859619140625 78.16773986816406 88.86516571044922 C 77.00452423095703 90.77692413330078 75.89801788330078 92.32566833496094 74.44365692138672 93.37995910644531 C 72.27043914794922 93.77549743652344 69.34795379638672 93.5456314086914 66.03571319580078 92.90306091308594 C 62.802555084228516 92.29804992675781 59.7819709777832 91.75120544433594 57.0378532409668 91.00850677490234 C 54.577396392822266 89.8669662475586 52.66139602661133 88.16120910644531 51.660743713378906 86.02969360351562 C 51.23616409301758 83.6467056274414 50.78522491455078 81.00950622558594 49.83895492553711 78.56645202636719 C 47.85963439941406 76.81120300292969 45.3610725402832 75.60416412353516 42.955623626708984 74.43441009521484 C 40.62833023071289 72.93842315673828 38.202030181884766 70.49298858642578 35.76463317871094 66.23176574707031" stroke-width="2.0" fill="rgb(0, 0, 255)" opacity="1.0" stroke="rgb(0, 0, 255)" stroke-opacity="1.0" stroke-linecap="round" stroke-linejoin="round"/>
  </g>
</svg>
