<?xml version="1.0" ?>
<svg xmlns="http://www.w3.org/2000/svg" version="1.1" width="128" height="128">
  <defs/>
  <g>
    <path d="M 4.47368049621582 0.12257269024848938 C 4.476400852203369 0.12244167178869247 4.475226879119873 0.12192729860544205 4.533847332000732 0.1180783212184906 C 4.8619537353515625 0.10654718428850174 5.908575534820557 0.0848253071308136 8.627260208129883 0.05916490778326988 C 15.241288185119629 0.03737324848771095 29.655832290649414 0.02366781048476696 53.753787994384766 0.016884250566363335 C 81.2895278930664 0.01364141795784235 102.00638580322266 0.012210768647491932 114.64990997314453 0.012126917950809002 C 121.33615112304688 0.013098876923322678 124.51868438720703 0.015213750302791595 126.049072265625 0.018849164247512817 C 126.83854675292969 0.02443244867026806 127.24681091308594 0.03334151208400726 127.4770278930664 0.0469718873500824 C 127.62381744384766 0.06881628930568695 127.7155532836914 0.11176300048828125 127.78413391113281 0.20770160853862762 C 127.8349609375 0.43222877383232117 127.86515045166016 0.9857468605041504 127.88690948486328 2.4381484985351562 C 127.90604400634766 6.459064960479736 127.91239929199219 17.22828483581543 127.91159057617188 41.14331817626953 C 127.90885162353516 76.38520812988281 127.8946304321289 105.55752563476562 127.86490631103516 119.99312591552734 C 127.82622528076172 125.18831634521484 127.76387786865234 126.95635223388672 127.65231323242188 127.56144714355469 C 127.4717788696289 127.79759216308594 127.16171264648438 127.89507293701172 126.6246337890625 127.93966674804688 C 125.7640151977539 127.96150207519531 124.34455108642578 127.97338104248047 121.88092803955078 127.98048400878906 C 117.30274200439453 127.98507690429688 108.11974334716797 127.98793029785156 91.37944030761719 127.98934936523438 C 66.90802001953125 127.99000549316406 40.727928161621094 127.99012756347656 21.52537727355957 127.98954772949219 C 10.814558029174805 127.98764038085938 5.567421913146973 127.98381042480469 3.10447359085083 127.97718048095703 C 1.8521926403045654 127.9658432006836 1.1441279649734497 127.94585418701172 0.7361956238746643 127.90802764892578 C 0.48792949318885803 127.82846069335938 0.32053229212760925 127.6282958984375 0.21006619930267334 127.09329223632812 C 0.14325708150863647 125.5685043334961 0.10762183368206024 121.12887573242188 0.08942699432373047 109.43311309814453 C 0.08324161916971207 84.06896209716797 0.09023173898458481 47.711612701416016 0.12043628841638565 19.697092056274414" stroke-width="2.0" fill="rgb(252, 194, 27)" opacity="1.0" stroke="rgb(252, 194, 27)" stroke-opacity="1.0" stroke-linecap="round" stroke-linejoin="round"/>
    <path d="M 97.92948150634766 33.01176071166992 C 97.9247817993164 33.02729797363281 97.9353256225586 33.09444808959961 98.02490234375 33.45457458496094 C 98.28389739990234 34.37691116333008 98.29390716552734 36.05178451538086 97.83200073242188 38.57955551147461 C 96.93035888671875 42.02417755126953 94.29953002929688 46.11182403564453 89.97427368164062 50.198543548583984 C 85.9522476196289 53.83198928833008 83.40933227539062 56.910274505615234 84.43331146240234 58.742095947265625 C 88.25719451904297 58.75821304321289 91.51019287109375 57.75555419921875 94.20508575439453 56.51248550415039 C 96.26451110839844 55.396854400634766 96.86140441894531 54.936344146728516 97.42454528808594 55.62382507324219 C 98.5676040649414 58.65644073486328 97.21302032470703 64.18738555908203 92.9300765991211 70.14408874511719 C 88.62606811523438 74.48267364501953 85.830810546875 77.07254028320312 84.47576141357422 78.30381774902344 C 84.29998016357422 78.31468963623047 84.46839904785156 77.01762390136719 84.1178207397461 74.31632995605469 C 83.17506408691406 70.72625732421875 81.69640350341797 67.44566345214844 79.78191375732422 65.93238067626953 C 78.11402893066406 67.37380981445312 77.13272094726562 72.5914535522461 76.0508804321289 80.46021270751953 C 73.30526733398438 87.94889068603516 71.0395278930664 93.6291732788086 71.54986572265625 98.34591674804688 C 73.36113739013672 102.61196899414062 74.77838134765625 106.24484252929688 75.75389099121094 109.07815551757812 C 76.46353149414062 111.19654083251953 76.72540283203125 112.64196014404297 76.73758697509766 113.49072265625 C 76.77528381347656 113.89256286621094 76.43080139160156 113.90374755859375 75.5653305053711 113.5992660522461 C 74.03792572021484 113.15044403076172 70.84355163574219 112.74484252929688 65.92697143554688 112.4235610961914 C 60.674678802490234 112.23076629638672 56.268463134765625 112.2379150390625 53.421722412109375 112.63121032714844 C 51.590511322021484 113.21016693115234 50.35976028442383 113.56201934814453 49.971458435058594 113.34537506103516 C 50.47220993041992 112.44874572753906 51.338504791259766 110.73655700683594 52.23917770385742 108.09114837646484 C 53.42850875854492 104.77481079101562 54.9713134765625 101.25856018066406 55.768680572509766 96.94474792480469" stroke-width="2.0" fill="rgb(255, 0, 0)" opacity="1.0" stroke="rgb(255, 0, 0)" stroke-opacity="1.0" stroke-linecap="round" stroke-linejoin="round"/>
    <path d="M 88.95673370361328 20.342567443847656 C 88.96160888671875 20.344430923461914 88.94647216796875 20.355178833007812 89.04676055908203 20.411638259887695 C 89.55230712890625 20.582435607910156 90.67395782470703 20.983972549438477 92.41470336914062 21.79665184020996 C 94.45441436767578 23.187641143798828 95.90270233154297 25.280603408813477 96.56196594238281 28.19236946105957 C 96.16223907470703 32.056697845458984 93.69542694091797 36.43965148925781 89.87916564941406 40.59514617919922 C 86.52135467529297 44.09937286376953 83.7637710571289 46.96741485595703 82.18846893310547 49.46354293823242 C 82.3523178100586 51.47870635986328 83.47994232177734 52.66838073730469 85.1921157836914 52.93498229980469 C 86.8359375 52.954742431640625 87.88602447509766 53.45142364501953 89.44613647460938 54.850223541259766 C 90.9372787475586 58.137184143066406 89.84632873535156 63.52667236328125 86.43582916259766 68.81378936767578 C 83.42977142333984 72.47393035888672 81.71585083007812 74.09937286376953 80.8758773803711 73.96836853027344 C 80.74166870117188 72.57381439208984 80.29209899902344 70.48200225830078 79.0850830078125 68.47775268554688 C 77.5453109741211 67.77752685546875 75.77379608154297 69.24652099609375 74.24552154541016 72.85722351074219 C 73.5833511352539 77.80683898925781 72.55258178710938 82.87835693359375 70.50106811523438 87.26290130615234 C 68.52307891845703 90.83071899414062 67.27705383300781 93.74327087402344 66.47501373291016 96.0208511352539 C 65.96781921386719 97.97870635986328 65.34602355957031 99.64877319335938 64.52045440673828 100.92200469970703 C 63.7403678894043 101.88016510009766 62.89057922363281 102.55692291259766 62.00609588623047 103.01798248291016 C 61.162940979003906 103.41699981689453 60.21806716918945 103.63687896728516 59.319854736328125 103.5163345336914 C 58.49074172973633 103.08236694335938 57.64751052856445 102.35549926757812 56.93308639526367 101.29754638671875 C 56.43572998046875 99.72946166992188 56.23194122314453 97.41753387451172 56.34538650512695 94.38545989990234 C 56.40327072143555 90.89698791503906 55.309329986572266 87.24129486083984 51.27316665649414 83.54051971435547 C 43.80870056152344 79.237548828125 37.04275894165039 69.8240966796875 37.6926155090332 53.626529693603516" stroke-width="2.0" fill="rgb(0, 255, 0)" opacity="1.0" stroke="rgb(0, 255, 0)" stroke-opacity="1.0" stroke-linecap="round" stroke-linejoin="round"/>
    <path d="M 64.83262634277344 14.919357299804688 C 64.83973693847656 14.915217399597168 64.85289764404297 14.916617393493652 65.08540344238281 14.900908470153809 C 66.00879669189453 14.872971534729004 68.20762634277344 14.843353271484375 71.93548583984375 14.909628868103027 C 76.73514556884766 15.233121871948242 81.22996520996094 15.98818302154541 84.81983947753906 17.22074317932129 C 87.76236724853516 18.81055450439453 89.2418441772461 20.91830825805664 89.34899139404297 23.637989044189453 C 88.45927429199219 26.70518684387207 86.48159790039062 29.953144073486328 84.13903045654297 33.25654602050781 C 82.63529205322266 36.391937255859375 81.96401977539062 39.19969177246094 81.8238525390625 41.437110900878906 C 81.95285034179688 43.27876281738281 81.77898406982422 45.083919525146484 81.79198455810547 47.204429626464844 C 82.071533203125 49.51601028442383 82.041259765625 51.85177230834961 82.49678802490234 54.21387481689453 C 83.37496185302734 57.121334075927734 83.51104736328125 60.76535415649414 83.2457275390625 64.56749725341797 C 82.5058822631836 67.75816345214844 80.84886169433594 69.31635284423828 79.53717041015625 69.40562438964844 C 78.85212707519531 69.42906951904297 77.36235809326172 70.40510559082031 75.20882415771484 72.51345825195312 C 73.35247039794922 75.66937255859375 72.11231994628906 79.27837371826172 71.01358032226562 82.65907287597656 C 69.70349884033203 85.70048522949219 67.95580291748047 88.15291595458984 66.26251220703125 89.87615966796875 C 65.0976791381836 91.18743133544922 64.15116119384766 92.40792083740234 63.28989791870117 93.57229614257812 C 62.512840270996094 94.7320556640625 61.693641662597656 95.73565673828125 61.02617263793945 96.44246673583984 C 60.47837829589844 96.88379669189453 59.832740783691406 96.97174835205078 59.17660140991211 96.56517791748047 C 58.48196792602539 95.56190490722656 57.7666015625 93.76648712158203 57.15739059448242 91.15609741210938 C 56.368228912353516 87.9128646850586 54.504905700683594 84.58638763427734 50.297691345214844 82.22087860107422 C 44.25098419189453 80.97760009765625 37.51992416381836 79.11553192138672 31.691808700561523 74.54468536376953 C 28.79004669189453 64.0496597290039 31.17256736755371 48.06443786621094 37.98953628540039 33.576045989990234" stroke-width="2.0" fill="rgb(0, 0, 255)" opacity="1.0" stroke="rgb(0, 0, 255)" stroke-opacity="1.0" stroke-linecap="round" stroke-linejoin="round"/>
  </g>
</svg>
