<?xml version="1.0" ?>
<svg xmlns="http://www.w3.org/2000/svg" version="1.1" width="128" height="128">
  <defs/>
  <g>
    <path d="M 0.8374466896057129 0.5025694966316223 C 0.8383913636207581 0.5016160607337952 0.8350907564163208 0.4990388751029968 0.8379265069961548 0.4791194200515747 C 0.8872743248939514 0.42297089099884033 1.1308504343032837 0.3158896565437317 1.9627149105072021 0.19643984735012054 C 4.532129287719727 0.10831112414598465 11.989253997802734 0.06043212115764618 30.213335037231445 0.03830696642398834 C 60.92008590698242 0.029786329716444016 92.0146255493164 0.02665608935058117 111.77595520019531 0.02701154351234436 C 121.07688903808594 0.030103899538517 124.83660125732422 0.0358722023665905 126.40623474121094 0.045529745519161224 C 127.09683990478516 0.06255044043064117 127.40997314453125 0.08716581016778946 127.57661437988281 0.1279451698064804 C 127.68608856201172 0.19732144474983215 127.75857543945312 0.3159940838813782 127.80783081054688 0.5291057229042053 C 127.84701538085938 0.9307684898376465 127.87761688232422 1.7407368421554565 127.89864349365234 3.5192034244537354 C 127.91535186767578 7.649055480957031 127.92594909667969 17.111061096191406 127.92803192138672 36.28480529785156 C 127.92440795898438 65.37238311767578 127.91510772705078 95.11441040039062 127.89612579345703 114.27607727050781 C 127.8620834350586 122.940673828125 127.8043441772461 126.06137084960938 127.71371459960938 127.18556213378906 C 127.57770538330078 127.61675262451172 127.37464904785156 127.80449676513672 127.03764343261719 127.8919677734375 C 126.46131896972656 127.93704223632812 125.42919921875 127.96162414550781 123.53621673583984 127.9749526977539 C 119.80753326416016 127.98233032226562 111.61894226074219 127.986572265625 93.83503723144531 127.98857116699219 C 63.25786590576172 127.98904418945312 31.890539169311523 127.988525390625 13.38125991821289 127.98638916015625 C 5.5510663986206055 127.98208618164062 2.6146974563598633 127.97496795654297 1.3435460329055786 127.96378326416016 C 0.7144397497177124 127.94429779052734 0.3930368423461914 127.90740203857422 0.22110943496227264 127.83355712890625 C 0.12848801910877228 127.69036865234375 0.07828669250011444 127.41287994384766 0.050408899784088135 126.85791015625 C 0.03618968278169632 125.71363830566406 0.02945452183485031 123.16465759277344 0.026147324591875076 117.19544219970703 C 0.025207143276929855 103.81910705566406 0.0268867127597332 78.02423858642578 0.03214302286505699 45.18595504760742" stroke-width="2.0" fill="rgb(252, 194, 27)" opacity="1.0" stroke="rgb(252, 194, 27)" stroke-opacity="1.0" stroke-linecap="round" stroke-linejoin="round"/>
    <path d="M 56.36784362792969 33.28931427001953 C 56.383941650390625 33.279808044433594 56.397132873535156 33.23854446411133 56.74580383300781 33.09912109375 C 57.98323059082031 32.93717575073242 60.485877990722656 32.990318298339844 63.79637145996094 33.616546630859375 C 67.2122802734375 35.07784652709961 69.97776794433594 37.36377716064453 72.1719970703125 40.26185607910156 C 73.9742660522461 43.36333465576172 74.78627014160156 46.24817657470703 76.25409698486328 48.268375396728516 C 79.04589080810547 49.0783576965332 81.50204467773438 50.00419235229492 83.97477722167969 51.235843658447266 C 86.8107681274414 52.650909423828125 88.44816589355469 54.4005012512207 89.78646087646484 56.24259567260742 C 92.0302963256836 58.66099166870117 93.0333251953125 62.135074615478516 92.60368347167969 66.14448547363281 C 92.04756164550781 69.82551574707031 90.91802215576172 72.7904281616211 89.57676696777344 74.82128143310547 C 89.16705322265625 76.12993621826172 89.58589935302734 77.10441589355469 90.62721252441406 77.9584732055664 C 92.04988861083984 78.82057189941406 93.18388366699219 79.61821746826172 94.12833404541016 80.1250228881836 C 94.97008514404297 80.38998413085938 95.20629119873047 80.58944702148438 95.02474975585938 80.9714584350586 C 94.66960144042969 81.84086608886719 93.73323822021484 83.35498046875 92.19100952148438 85.47196197509766 C 90.12832641601562 88.06642150878906 87.3343276977539 90.7296371459961 84.40634155273438 92.85552978515625 C 82.21748352050781 94.40850067138672 80.2993392944336 95.50980377197266 78.29625701904297 96.30315399169922 C 76.45946502685547 96.84141540527344 74.69114685058594 97.25140380859375 72.65833282470703 97.53370666503906 C 69.96255493164062 97.80158996582031 65.80827331542969 97.88800811767578 60.165992736816406 97.46961212158203 C 54.207855224609375 96.39508056640625 49.990047454833984 94.82063293457031 48.17867660522461 93.1571044921875 C 47.895057678222656 91.73851013183594 48.36428451538086 90.27427673339844 49.236183166503906 88.48584747314453 C 50.28749084472656 86.20771026611328 51.612953186035156 83.5190658569336 52.76957702636719 80.92841339111328 C 52.92273712158203 79.03290557861328 51.48191452026367 78.20784759521484 47.855472564697266 78.1865005493164" stroke-width="2.0" fill="rgb(255, 0, 0)" opacity="1.0" stroke="rgb(255, 0, 0)" stroke-opacity="1.0" stroke-linecap="round" stroke-linejoin="round"/>
    <path d="M 58.634979248046875 29.932415008544922 C 58.645748138427734 29.9320011138916 58.64048767089844 29.885374069213867 58.89024353027344 29.718324661254883 C 59.932769775390625 29.37885856628418 62.26808166503906 29.06609344482422 65.67589569091797 29.12738609313965 C 68.96209716796875 29.81165313720703 71.16984558105469 31.08584213256836 73.06544494628906 32.87957000732422 C 75.37183380126953 35.35755157470703 76.90241241455078 38.33272171020508 77.47195434570312 41.541847229003906 C 77.9957046508789 44.5960693359375 78.0147476196289 47.192928314208984 77.9950180053711 49.09627151489258 C 78.98226928710938 50.40933609008789 80.29192352294922 51.350887298583984 82.25297546386719 52.27641677856445 C 85.09830474853516 53.30809020996094 87.17362976074219 54.84560012817383 88.99835205078125 56.859004974365234 C 90.65312194824219 59.46624755859375 90.01847076416016 62.916812896728516 88.25887298583984 66.52233123779297 C 86.99207305908203 69.4301986694336 85.74158477783203 71.55854797363281 84.97030639648438 72.98104858398438 C 85.01901245117188 74.07391357421875 85.2075424194336 75.13243103027344 85.63388061523438 76.1250991821289 C 86.44206237792969 77.17800903320312 86.87005615234375 78.43009948730469 86.76123046875 79.93757629394531 C 86.37532806396484 81.9532699584961 85.482666015625 84.51148986816406 84.23960876464844 87.38975524902344 C 83.0224380493164 90.18684387207031 81.64430236816406 92.48194122314453 80.24419403076172 94.11943817138672 C 78.98880767822266 95.48401641845703 77.34886169433594 96.64924621582031 75.35964965820312 97.5208740234375 C 73.4167709350586 98.09627532958984 71.4211654663086 98.49467468261719 68.6339340209961 98.90101623535156 C 64.29641723632812 99.19161224365234 58.34400939941406 98.9609146118164 52.160377502441406 97.94881439208984 C 47.655574798583984 96.25786590576172 45.5184440612793 94.61418151855469 44.97732925415039 93.52497100830078 C 45.0501708984375 92.7053451538086 45.596168518066406 91.68301391601562 46.62593078613281 90.1293716430664 C 47.86625671386719 87.9383316040039 49.28302764892578 85.25171661376953 50.9344367980957 82.46609497070312 C 52.045814514160156 79.88224792480469 51.66055679321289 77.52100372314453 49.30527114868164 74.70635223388672" stroke-width="2.0" fill="rgb(0, 255, 0)" opacity="1.0" stroke="rgb(0, 255, 0)" stroke-opacity="1.0" stroke-linecap="round" stroke-linejoin="round"/>
    <path d="M 56.13212966918945 32.57052993774414 C 56.140323638916016 32.56666946411133 56.145050048828125 32.5536003112793 56.321537017822266 32.48345947265625 C 57.077999114990234 32.34695053100586 58.93263244628906 32.15896224975586 61.917598724365234 32.05929946899414 C 65.71590423583984 32.217872619628906 69.74266815185547 32.95970916748047 73.51799774169922 34.626277923583984 C 76.48314666748047 37.23673629760742 77.77731323242188 40.3245735168457 77.7880859375 43.57368469238281 C 77.7950210571289 46.38484573364258 77.80939483642578 48.5125617980957 78.23734283447266 50.30266189575195 C 79.35319519042969 51.950592041015625 80.35240936279297 53.451881408691406 81.77635955810547 54.650882720947266 C 83.84439086914062 55.82108688354492 85.02655029296875 57.54408645629883 85.55137634277344 59.35361099243164 C 85.98680114746094 60.97769546508789 85.69287109375 62.45530319213867 85.1623764038086 64.3008804321289 C 84.5999984741211 66.53328704833984 83.52645874023438 68.91886138916016 82.65142059326172 71.06598663330078 C 82.37992858886719 72.86502838134766 82.2586669921875 74.31036376953125 82.27745819091797 75.40325164794922 C 82.55780029296875 76.37377166748047 82.74516296386719 77.53665924072266 82.72814178466797 79.05233001708984 C 82.60208129882812 81.06903076171875 82.1090316772461 83.56935119628906 81.328857421875 86.31709289550781 C 80.7414321899414 88.98091125488281 80.2979507446289 91.26495361328125 79.76813507080078 93.04168701171875 C 79.08061218261719 94.38159942626953 77.86674499511719 95.4318618774414 75.98229217529297 96.19795227050781 C 73.74308013916016 96.68384552001953 71.29183197021484 97.01004028320312 68.31564331054688 97.31404113769531 C 64.28155517578125 97.5218505859375 59.225830078125 97.42242431640625 54.16196823120117 96.96807098388672 C 50.020042419433594 96.07628631591797 47.35921096801758 94.8525390625 46.139015197753906 93.79220581054688 C 45.75355911254883 92.92764282226562 46.01066970825195 91.89141082763672 46.83089828491211 90.36152648925781 C 48.04032897949219 88.15563201904297 49.63987350463867 85.30633544921875 51.50736999511719 82.15327453613281 C 52.940242767333984 78.89694213867188 52.95820999145508 75.59711456298828 50.76764678955078 70.76763916015625" stroke-width="2.0" fill="rgb(0, 0, 255)" opacity="1.0" stroke="rgb(0, 0, 255)" stroke-opacity="1.0" stroke-linecap="round" stroke-linejoin="round"/>
  </g>
</svg>
