<?xml version="1.0" ?>
<svg xmlns="http://www.w3.org/2000/svg" version="1.1" width="128" height="128">
  <defs/>
  <g>
    <path d="M 57.615970611572266 50.0230712890625 C 57.617305755615234 50.019744873046875 57.66246795654297 50.067752838134766 57.88151550292969 50.321693420410156 C 58.43556594848633 50.92130661010742 59.53880310058594 51.73079299926758 61.272804260253906 52.34886932373047 C 63.07623291015625 52.179378509521484 64.36241149902344 51.0204963684082 65.1541519165039 49.48759460449219 C 65.92910766601562 48.426212310791016 66.6714859008789 48.02659606933594 67.2457504272461 48.147457122802734 C 67.84175872802734 48.671661376953125 68.53227233886719 49.52735900878906 69.37330627441406 50.712318420410156 C 70.6090087890625 52.3206672668457 71.87407684326172 54.36003494262695 73.01781463623047 56.560516357421875 C 74.23455810546875 58.65842819213867 75.39625549316406 60.60670471191406 76.54591369628906 62.51860809326172 C 77.76429748535156 64.33952331542969 78.7957992553711 66.012939453125 79.79287719726562 67.32036590576172 C 80.9417724609375 68.36262512207031 81.8976058959961 69.43008422851562 82.62945556640625 70.51055145263672 C 83.20286560058594 71.49552917480469 83.58633422851562 72.39594268798828 83.96150207519531 73.11385345458984 C 84.52910614013672 73.72185516357422 85.1608657836914 74.31779479980469 85.83297729492188 74.83544921875 C 86.47900390625 75.23661041259766 86.8322525024414 75.47713470458984 87.06895446777344 75.50740814208984 C 87.08236694335938 75.27149963378906 86.44283294677734 74.67554473876953 85.19933319091797 73.69322204589844 C 83.84852600097656 72.20133972167969 82.31058502197266 70.13995361328125 79.85099792480469 67.49795532226562 C 76.49647521972656 64.32227325439453 72.26343536376953 60.97966003417969 67.374267578125 57.816532135009766 C 62.738983154296875 55.080291748046875 57.7581901550293 53.389286041259766 52.97568130493164 53.0073356628418 C 48.943031311035156 53.37040710449219 45.82124710083008 53.84829330444336 43.41201400756836 54.22808837890625 C 41.63642120361328 54.555240631103516 40.358036041259766 54.96470642089844 39.614097595214844 55.341407775878906 C 39.30067443847656 55.483577728271484 39.53851318359375 55.18791961669922 40.486610412597656 54.504180908203125 C 42.08985900878906 53.85698699951172 44.16508102416992 53.32431411743164 46.58027648925781 53.11558532714844" stroke-width="2.0" fill="rgb(252, 194, 27)" opacity="1.0" stroke="rgb(252, 194, 27)" stroke-opacity="1.0" stroke-linecap="round" stroke-linejoin="round"/>
    <path d="M 34.95894241333008 48.70412063598633 C 34.97964096069336 48.67018508911133 35.024051666259766 48.733856201171875 35.402687072753906 48.7227668762207 C 36.291255950927734 48.276641845703125 37.98797607421875 46.59434127807617 41.46833419799805 44.20734786987305 C 47.79067611694336 42.61783981323242 55.91487503051758 42.53252410888672 63.86235046386719 42.630088806152344 C 70.72505950927734 42.61298751831055 76.25273132324219 42.6475944519043 81.91451263427734 43.40157699584961 C 88.20655822753906 44.679134368896484 93.43321228027344 46.30811309814453 97.82955932617188 48.07752227783203 C 101.66461944580078 49.847923278808594 103.81583404541016 51.591556549072266 104.81389617919922 53.3172721862793 C 105.76090240478516 55.101863861083984 106.28746795654297 56.8811149597168 107.11582946777344 58.26163101196289 C 108.91802215576172 59.65143585205078 109.92396545410156 61.65004348754883 109.3855972290039 64.22064971923828 C 107.99610137939453 67.06376647949219 105.97704315185547 69.6428451538086 104.89529418945312 71.75205993652344 C 105.83838653564453 73.53022003173828 107.29110717773438 75.36954498291016 108.49297332763672 77.15767669677734 C 109.38914489746094 78.89213562011719 109.61096954345703 80.54681396484375 109.3209457397461 82.42475128173828 C 108.72937774658203 84.72956085205078 107.37690734863281 87.21087646484375 105.18394470214844 89.60871124267578 C 102.69428253173828 91.85660552978516 99.56756591796875 93.75277709960938 95.28587341308594 95.09181213378906 C 90.27952575683594 96.23884582519531 85.14543914794922 97.41563415527344 80.52992248535156 98.20973205566406 C 76.81436157226562 98.59107208251953 73.05870819091797 98.69132995605469 67.56307983398438 98.78618621826172 C 60.56999206542969 98.75309753417969 53.498470306396484 98.52265930175781 47.79301452636719 97.99634552001953 C 43.82651138305664 97.36903381347656 40.56631088256836 96.6080551147461 37.03455352783203 95.56585693359375 C 32.755245208740234 94.41921997070312 28.35004997253418 92.84719848632812 24.645954132080078 90.81491088867188 C 21.777088165283203 88.70033264160156 19.758068084716797 86.74639892578125 18.467987060546875 84.87356567382812 C 17.685657501220703 82.99266815185547 17.565584182739258 80.96077728271484 18.278369903564453 78.5263900756836" stroke-width="2.0" fill="rgb(255, 0, 0)" opacity="1.0" stroke="rgb(255, 0, 0)" stroke-opacity="1.0" stroke-linecap="round" stroke-linejoin="round"/>
    <path d="M 37.153411865234375 48.04092788696289 C 37.17306900024414 48.009849548339844 37.2179069519043 48.053131103515625 37.60697555541992 47.95853042602539 C 38.49277114868164 47.40680694580078 40.13613510131836 45.743614196777344 43.52009201049805 43.66950225830078 C 49.615509033203125 42.73138427734375 57.08168029785156 43.00912857055664 64.15352630615234 42.911643981933594 C 70.48908996582031 42.80726623535156 76.12356567382812 43.02720642089844 82.28936004638672 44.03028106689453 C 88.91981506347656 45.510982513427734 94.23835754394531 47.22711944580078 98.65296173095703 48.94340515136719 C 102.45352172851562 50.61628723144531 104.54144287109375 52.35663986206055 105.62649536132812 54.243289947509766 C 106.7917709350586 56.272186279296875 107.6055679321289 57.93251419067383 108.71485137939453 59.08979034423828 C 110.4936294555664 60.70281982421875 110.85419464111328 62.977508544921875 109.6590805053711 65.65042114257812 C 108.0306625366211 68.2628402709961 106.3082504272461 70.62952423095703 106.00623321533203 72.64945983886719 C 107.4280014038086 74.51565551757812 108.89580535888672 76.37217712402344 109.89112091064453 78.04965209960938 C 110.54658508300781 79.5130615234375 110.63755798339844 80.79133605957031 110.41574096679688 82.2448959350586 C 109.97624206542969 84.2010726928711 108.71080017089844 86.5157241821289 106.54691314697266 88.88449096679688 C 103.96504211425781 91.20024108886719 100.76311492919922 93.18017578125 96.55595397949219 94.64942169189453 C 91.62007904052734 95.8880386352539 86.44390106201172 97.14161682128906 81.57057189941406 98.1008071899414 C 77.56819915771484 98.59017944335938 73.9414291381836 98.67974853515625 68.87550354003906 98.6679916381836 C 62.088504791259766 98.5196304321289 54.8839111328125 98.20156860351562 48.77276611328125 97.68185424804688 C 44.48181915283203 97.04621124267578 41.147098541259766 96.40816497802734 37.77032470703125 95.5168228149414 C 33.819210052490234 94.58543395996094 29.609561920166016 93.32076263427734 25.9019718170166 91.5650863647461 C 22.827892303466797 89.5189208984375 20.566295623779297 87.5548324584961 19.14422607421875 85.63206481933594 C 18.289249420166016 83.71971130371094 18.20186424255371 81.45453643798828 19.01740264892578 78.5831298828125" stroke-width="2.0" fill="rgb(0, 255, 0)" opacity="1.0" stroke="rgb(0, 255, 0)" stroke-opacity="1.0" stroke-linecap="round" stroke-linejoin="round"/>
    <path d="M 55.15369415283203 58.121002197265625 C 55.17979431152344 58.11821746826172 55.192726135253906 58.1392822265625 55.55074691772461 58.241546630859375 C 56.57351303100586 58.40562438964844 58.483924865722656 58.407867431640625 60.71465301513672 58.09625244140625 C 62.39731979370117 57.45271301269531 63.47136688232422 56.89009475708008 65.00167846679688 56.80536651611328 C 67.37802124023438 57.25689697265625 70.48237609863281 57.498409271240234 74.99720764160156 57.03573989868164 C 80.52174377441406 56.552276611328125 85.85326385498047 56.767669677734375 91.03748321533203 57.399925231933594 C 95.75055694580078 57.97128677368164 98.81610870361328 58.37730407714844 101.13611602783203 58.778175354003906 C 103.27918243408203 59.6096305847168 104.13909149169922 61.14133071899414 104.18849182128906 63.11687088012695 C 104.39191436767578 65.11393737792969 104.42166137695312 67.1350326538086 104.25524139404297 69.32032775878906 C 104.07816314697266 71.72792053222656 103.75785064697266 74.31727600097656 103.68891143798828 76.91365051269531 C 104.27363586425781 79.39653778076172 105.13374328613281 81.6594467163086 106.06070709228516 83.50399780273438 C 106.91979217529297 84.9587631225586 107.2747802734375 86.11747741699219 107.1450424194336 87.13272857666016 C 106.70761108398438 88.1621322631836 105.79185485839844 89.14179992675781 104.4263916015625 90.06608581542969 C 102.71516418457031 90.97712707519531 100.47119140625 91.69137573242188 97.66107177734375 92.2020034790039 C 94.46344757080078 92.51128387451172 90.96675109863281 92.71626281738281 87.29236602783203 93.01634979248047 C 83.4793930053711 93.37892150878906 79.70417785644531 93.49807739257812 75.79824829101562 93.4619369506836 C 71.38338470458984 93.13033294677734 66.35236358642578 92.6700439453125 60.537296295166016 92.18731689453125 C 54.43551254272461 91.7423095703125 49.389739990234375 91.12989044189453 45.940162658691406 90.58760070800781 C 42.84115982055664 90.2718734741211 39.674564361572266 89.95354461669922 36.93769836425781 89.47637939453125 C 34.490020751953125 89.04446411132812 32.445045471191406 88.60594177246094 30.988874435424805 87.93046569824219 C 30.32737159729004 86.9122314453125 30.830814361572266 85.29390716552734 32.355003356933594 83.04948425292969" stroke-width="2.0" fill="rgb(0, 0, 255)" opacity="1.0" stroke="rgb(0, 0, 255)" stroke-opacity="1.0" stroke-linecap="round" stroke-linejoin="round"/>
  </g>
</svg>
