<?xml version="1.0" ?>
<svg xmlns="http://www.w3.org/2000/svg" version="1.1" width="128" height="128">
  <defs/>
  <g>
    <path d="M 1.00532066822052 0.3276815712451935 C 1.006164312362671 0.32724639773368835 1.0033260583877563 0.32536742091178894 1.010424017906189 0.31166109442710876 C 1.0920085906982422 0.2708256244659424 1.4249775409698486 0.1993594914674759 2.460584878921509 0.12481916695833206 C 5.368463516235352 0.07155315577983856 12.838651657104492 0.04266195744276047 28.894556045532227 0.028777901083230972 C 54.79454803466797 0.022819487378001213 83.12852478027344 0.019794266670942307 104.28394317626953 0.018924370408058167 C 116.53187561035156 0.019919097423553467 122.3841323852539 0.022981267422437668 125.06224822998047 0.02809198386967182 C 126.35252380371094 0.035670746117830276 126.9797134399414 0.04739418625831604 127.32406616210938 0.06534542143344879 C 127.5420913696289 0.09424249827861786 127.67512512207031 0.15127791464328766 127.76251220703125 0.2681143581867218 C 127.81999969482422 0.5059988498687744 127.85884094238281 1.028470754623413 127.88768768310547 2.2721259593963623 C 127.90880584716797 5.536713123321533 127.91991424560547 14.285094261169434 127.92121887207031 34.405731201171875 C 127.91793060302734 66.96392059326172 127.90714263916016 98.7098617553711 127.88185119628906 116.59837341308594 C 127.83638763427734 123.8262710571289 127.7705078125 126.39107513427734 127.67670440673828 127.29415130615234 C 127.53614044189453 127.65970611572266 127.28823852539062 127.82181549072266 126.85523986816406 127.89976501464844 C 126.09210205078125 127.9415283203125 124.64482116699219 127.9637680053711 121.65138244628906 127.97566986083984 C 114.98282623291016 127.98263549804688 100.05535125732422 127.98641967773438 72.90641021728516 127.98817443847656 C 40.68186950683594 127.98907470703125 18.438108444213867 127.98896789550781 7.893106460571289 127.9871826171875 C 3.7347426414489746 127.98381042480469 2.0500056743621826 127.97836303710938 1.2055035829544067 127.96968841552734 C 0.7247644066810608 127.95491027832031 0.4503752291202545 127.92847442626953 0.27823054790496826 127.87471008300781 C 0.16672830283641815 127.76567077636719 0.10280071943998337 127.54256439208984 0.06652121990919113 127.08773803710938 C 0.04732510820031166 126.12981414794922 0.03786821290850639 123.94256591796875 0.03335544094443321 118.44169616699219 C 0.031068509444594383 105.30194854736328 0.031855229288339615 79.08319091796875 0.036708325147628784 44.66619873046875" stroke-width="2.0" fill="rgb(252, 194, 27)" opacity="1.0" stroke="rgb(252, 194, 27)" stroke-opacity="1.0" stroke-linecap="round" stroke-linejoin="round"/>
    <path d="M 93.63018035888672 20.810237884521484 C 93.62860107421875 20.8142147064209 93.6156234741211 20.836795806884766 93.71051025390625 20.982580184936523 C 94.13229370117188 21.362627029418945 94.55683898925781 21.998361587524414 94.46399688720703 22.869300842285156 C 93.44751739501953 24.01797103881836 90.92324829101562 25.568819046020508 87.09477233886719 27.704256057739258 C 82.48554992675781 30.566761016845703 77.34689331054688 34.34404373168945 73.13108825683594 38.76942443847656 C 71.12156677246094 42.833580017089844 71.38140106201172 45.45524978637695 73.79794311523438 46.30860900878906 C 76.69602966308594 46.294044494628906 78.78849792480469 46.31755065917969 81.39727783203125 46.28239440917969 C 84.55928039550781 46.241920471191406 87.23777770996094 46.32279586791992 90.557373046875 46.611820220947266 C 93.79421997070312 47.849464416503906 95.02741241455078 50.55134963989258 94.86945343017578 53.506591796875 C 94.85926818847656 55.418983459472656 94.26224517822266 56.15903091430664 93.25720977783203 55.98970031738281 C 92.5 55.36937713623047 91.09684753417969 54.736175537109375 89.18376922607422 55.06299591064453 C 88.38410949707031 58.247764587402344 87.51177215576172 65.18873596191406 85.65743255615234 74.3150634765625 C 84.50524139404297 83.6609115600586 84.05477142333984 91.35775756835938 83.52009582519531 96.99652099609375 C 82.93972778320312 101.14289093017578 82.10556030273438 104.31611633300781 80.99646759033203 106.48453521728516 C 79.98666381835938 107.77425384521484 78.91586303710938 108.35684967041016 77.88865661621094 108.54356384277344 C 77.19039154052734 108.67847442626953 76.08853912353516 108.79898071289062 73.83822631835938 108.84076690673828 C 70.25016784667969 108.80680084228516 65.45026397705078 108.67831420898438 60.14054489135742 108.55315399169922 C 55.08203125 108.5223159790039 51.024635314941406 108.59815216064453 47.92825698852539 108.63726806640625 C 45.58546829223633 108.4126968383789 43.945045471191406 107.825927734375 42.87931823730469 106.79965209960938 C 42.05113983154297 105.16242980957031 41.46958923339844 102.62680053710938 41.02629089355469 98.9558334350586 C 40.326541900634766 93.6114730834961 39.2215690612793 86.25856018066406 37.80202102661133 76.23055267333984" stroke-width="2.0" fill="rgb(255, 0, 0)" opacity="1.0" stroke="rgb(255, 0, 0)" stroke-opacity="1.0" stroke-linecap="round" stroke-linejoin="round"/>
    <path d="M 86.31671905517578 22.6925048828125 C 86.3251953125 22.692222595214844 86.29736328125 22.67578125 86.46489715576172 22.68600845336914 C 87.29613494873047 22.859638214111328 88.7195816040039 23.383441925048828 90.16886138916016 24.369556427001953 C 90.37249755859375 25.674041748046875 88.23412322998047 27.31973648071289 84.53030395507812 29.491661071777344 C 80.426025390625 32.2889404296875 76.24447631835938 35.8135871887207 73.05016326904297 39.8898811340332 C 71.96013641357422 43.626461029052734 72.69011688232422 46.1147575378418 74.92500305175781 47.044437408447266 C 77.69495391845703 47.2060661315918 79.86114501953125 47.2791633605957 82.43561553955078 47.29705810546875 C 85.54837799072266 47.2620849609375 87.98883056640625 47.45280838012695 90.4217529296875 48.18976593017578 C 92.77992248535156 49.89983367919922 93.4138412475586 52.53456115722656 93.11418151855469 54.6072998046875 C 93.18693542480469 55.49808120727539 92.38275146484375 55.668304443359375 90.89005279541016 55.45453643798828 C 89.7255630493164 55.293678283691406 88.8268051147461 56.30792236328125 88.60612487792969 59.5386848449707 C 88.37261199951172 65.16177368164062 87.19369506835938 71.7636947631836 85.95142364501953 78.39828491210938 C 85.12816619873047 84.75008392333984 84.29019927978516 90.55474853515625 83.49407196044922 95.2099838256836 C 82.83525848388672 98.94664001464844 81.92483520507812 101.91172790527344 80.78060913085938 104.04539489746094 C 79.72650146484375 105.29847717285156 78.50774383544922 105.838134765625 77.18228149414062 105.96276092529297 C 75.91357421875 106.08534240722656 74.02367401123047 106.29537200927734 70.92443084716797 106.46222686767578 C 66.68812561035156 106.54727935791016 61.691741943359375 106.52133178710938 56.50337600708008 106.49862670898438 C 51.79267883300781 106.58274841308594 47.95768356323242 106.52783203125 45.236114501953125 105.95784759521484 C 43.50988006591797 104.98365020751953 42.494346618652344 103.70806121826172 42.152339935302734 102.15918731689453 C 42.15397644042969 100.30648803710938 42.12199401855469 97.9196548461914 41.84562683105469 94.68729400634766 C 41.22024917602539 90.24635314941406 40.23088836669922 84.34548950195312 39.259281158447266 76.54605865478516" stroke-width="2.0" fill="rgb(0, 255, 0)" opacity="1.0" stroke="rgb(0, 255, 0)" stroke-opacity="1.0" stroke-linecap="round" stroke-linejoin="round"/>
    <path d="M 72.9080810546875 24.392045974731445 C 72.91741180419922 24.390886306762695 72.91899871826172 24.383146286010742 73.19059753417969 24.373565673828125 C 74.22139739990234 24.420053482055664 76.27969360351562 24.6747989654541 79.18109893798828 25.458158493041992 C 81.89527130126953 26.80438995361328 82.42901611328125 28.56928825378418 80.8296127319336 30.697317123413086 C 78.49575805664062 33.09599685668945 76.11764526367188 35.794456481933594 74.36669921875 38.82960510253906 C 73.64321899414062 41.97134017944336 73.67118835449219 44.892887115478516 74.62490844726562 46.88047790527344 C 76.1703109741211 47.858951568603516 77.35868835449219 48.58910369873047 79.00410461425781 49.00580978393555 C 81.07858276367188 49.396568298339844 82.52439880371094 50.11306381225586 83.82737731933594 51.455291748046875 C 85.2787094116211 53.20939254760742 86.15448760986328 55.59578323364258 86.48429107666016 58.521907806396484 C 85.56748962402344 60.92941665649414 83.3623275756836 61.74237060546875 81.89134979248047 61.03636932373047 C 81.65827178955078 60.15255355834961 81.68048095703125 60.5969352722168 81.72320556640625 62.93145751953125 C 81.12983703613281 66.5513687133789 79.77777099609375 70.50749969482422 79.06178283691406 74.49319458007812 C 79.33538818359375 78.7448501586914 79.7571029663086 83.23612213134766 79.9613037109375 87.55968475341797 C 80.0284194946289 91.47540283203125 79.80818176269531 94.78422546386719 79.28387451171875 97.44097137451172 C 78.51547241210938 99.42874908447266 77.31806945800781 100.55496978759766 75.86956024169922 100.91837310791016 C 74.45579528808594 100.91560363769531 72.71172332763672 100.8153305053711 70.41278839111328 100.6943588256836 C 67.2992172241211 100.573974609375 63.321659088134766 100.26728057861328 59.162315368652344 99.83036041259766 C 55.417964935302734 99.45649719238281 52.35233688354492 99.15709686279297 49.97682189941406 98.49845123291016 C 48.22602462768555 97.49911499023438 47.126861572265625 96.14237213134766 46.70918655395508 94.11024475097656 C 46.80998611450195 90.99464416503906 47.00801467895508 86.49451446533203 46.884864807128906 80.90715789794922 C 45.706626892089844 74.20642852783203 42.61421203613281 65.21109771728516 39.47889709472656 54.357208251953125" stroke-width="2.0" fill="rgb(0, 0, 255)" opacity="1.0" stroke="rgb(0, 0, 255)" stroke-opacity="1.0" stroke-linecap="round" stroke-linejoin="round"/>
  </g>
</svg>
