<?xml version="1.0" ?>
<svg xmlns="http://www.w3.org/2000/svg" version="1.1" width="128" height="128">
  <defs/>
  <g>
    <path d="M 0.4163450300693512 0.18855702877044678 C 0.4168311357498169 0.18820595741271973 0.4152081608772278 0.18724454939365387 0.41653189063072205 0.17970725893974304 C 0.43967533111572266 0.15851826965808868 0.556126594543457 0.11780092865228653 0.9553303718566895 0.07266467064619064 C 2.221856117248535 0.038710929453372955 6.18349027633667 0.02013326808810234 17.856096267700195 0.01159845944494009 C 43.660438537597656 0.008062862791121006 78.25995635986328 0.0067806844599545 105.18353271484375 0.006396131124347448 C 118.81708526611328 0.006802666932344437 124.2840576171875 0.00821868795901537 126.32710266113281 0.0104702552780509 C 127.16809844970703 0.013852491974830627 127.53202056884766 0.01956259086728096 127.70651245117188 0.02832316979765892 C 127.80109405517578 0.043469853699207306 127.8565444946289 0.07455667853355408 127.89580535888672 0.1418694704771042 C 127.92259216308594 0.2917851209640503 127.93978881835938 0.6548542380332947 127.95118713378906 1.6020281314849854 C 127.95932006835938 4.2822489738464355 127.96321868896484 11.957438468933105 127.96350860595703 31.19623374938965 C 127.9624252319336 65.14337158203125 127.95777893066406 99.06012725830078 127.9480209350586 117.79434967041016 C 127.92972564697266 124.71614837646484 127.90225219726562 126.91133117675781 127.85663604736328 127.58586120605469 C 127.7813949584961 127.82344055175781 127.65401458740234 127.9177017211914 127.43094635009766 127.95889282226562 C 126.98088073730469 127.97869873046875 125.97042846679688 127.98805236816406 123.61193084716797 127.99275207519531 C 117.60441589355469 127.99516296386719 102.28651428222656 127.99627685546875 71.83338928222656 127.99668884277344 C 35.969539642333984 127.99684143066406 13.72728443145752 127.99665832519531 4.90139102935791 127.99586486816406 C 1.910773515701294 127.99435424804688 0.8515946865081787 127.99159240722656 0.4260335862636566 127.98670959472656 C 0.22791536152362823 127.97759246826172 0.12595272064208984 127.95863342285156 0.07152963429689407 127.91690826416016 C 0.04181390628218651 127.82379150390625 0.025434181094169617 127.61216735839844 0.017261339351534843 127.10081481933594 C 0.01331489346921444 125.83751678466797 0.0110933231189847 122.63574981689453 0.009804703295230865 114.56707000732422 C 0.00958788488060236 95.78987121582031 0.010302017442882061 63.81962585449219 0.01328097190707922 30.612268447875977" stroke-width="2.0" fill="rgb(252, 194, 27)" opacity="1.0" stroke="rgb(252, 194, 27)" stroke-opacity="1.0" stroke-linecap="round" stroke-linejoin="round"/>
    <path d="M 53.74027633666992 29.313785552978516 C 53.73773193359375 29.31757926940918 53.75519943237305 29.292171478271484 53.9827995300293 29.202375411987305 C 55.01292419433594 28.983970642089844 57.68550491333008 28.740747451782227 62.44679641723633 28.63673210144043 C 68.24898529052734 28.9028377532959 73.30485534667969 29.77288246154785 77.16510772705078 31.348155975341797 C 80.01239013671875 33.35844039916992 81.20240783691406 35.78178405761719 81.4235610961914 38.59931182861328 C 81.81217956542969 41.390045166015625 81.62450408935547 44.043487548828125 80.71406555175781 46.88114547729492 C 79.94137573242188 49.83882141113281 79.08155822753906 52.617061614990234 78.42752075195312 55.04015350341797 C 78.24881744384766 57.3646354675293 78.26863861083984 59.183013916015625 79.10704040527344 60.36207580566406 C 80.66952514648438 61.32145309448242 80.89762878417969 62.321475982666016 80.81814575195312 63.19622802734375 C 81.79052734375 64.46163940429688 82.08183288574219 66.405029296875 81.28446960449219 68.43174743652344 C 80.43638610839844 70.2091293334961 79.71966552734375 71.9681167602539 79.36343383789062 73.73197937011719 C 79.66973114013672 75.61519622802734 80.12123107910156 77.76966857910156 80.51239776611328 80.17192077636719 C 81.03233337402344 82.88008117675781 81.41073608398438 85.81417846679688 81.64856719970703 88.72349548339844 C 81.98564910888672 91.5768051147461 81.94982147216797 94.06407928466797 81.30618286132812 95.87752532958984 C 80.37835693359375 97.13172912597656 79.09925079345703 98.10128021240234 77.56382751464844 98.84929656982422 C 76.14306640625 99.3713607788086 74.45061492919922 99.59253692626953 72.56517791748047 99.59284973144531 C 70.71295928955078 99.66375732421875 68.19184112548828 99.86406707763672 64.49032592773438 99.89009094238281 C 60.039825439453125 99.62007141113281 55.69404983520508 99.05057525634766 52.199710845947266 98.32164001464844 C 49.647613525390625 97.08132934570312 48.09370040893555 95.24236297607422 47.494510650634766 92.83210754394531 C 47.476009368896484 89.69229888916016 47.88457107543945 85.8063735961914 48.820552825927734 81.52391052246094 C 49.68887710571289 77.02032470703125 48.6562385559082 70.97592163085938 47.17795181274414 62.5033073425293" stroke-width="2.0" fill="rgb(255, 0, 0)" opacity="1.0" stroke="rgb(255, 0, 0)" stroke-opacity="1.0" stroke-linecap="round" stroke-linejoin="round"/>
    <path d="M 64.44713592529297 28.996675491333008 C 64.44223022460938 28.998136520385742 64.45831298828125 28.96485710144043 64.8059310913086 28.846660614013672 C 66.36624908447266 28.627010345458984 69.53317260742188 28.515682220458984 73.73902893066406 28.842485427856445 C 77.6493148803711 29.78180694580078 80.04619598388672 31.17617416381836 81.1662368774414 32.824790954589844 C 81.8826675415039 34.73350143432617 81.74307250976562 36.89651870727539 81.23148345947266 39.440738677978516 C 81.2146224975586 42.04603576660156 81.06610107421875 44.37101364135742 80.88134765625 46.61677932739258 C 81.03636169433594 48.78603744506836 80.80829620361328 50.816307067871094 80.39281463623047 52.552486419677734 C 80.33435821533203 54.20580291748047 79.74263000488281 55.98423767089844 79.57881164550781 57.60213088989258 C 80.50605773925781 58.89077377319336 80.93160247802734 59.671871185302734 81.12425231933594 59.90984344482422 C 81.6676025390625 59.8935432434082 81.61685943603516 60.30479431152344 81.51095581054688 61.445255279541016 C 81.88468170166016 63.558433532714844 81.264892578125 66.50796508789062 79.8844223022461 69.51495361328125 C 79.18647766113281 72.26314544677734 79.13288879394531 74.98429870605469 79.37146759033203 77.92491149902344 C 79.88855743408203 81.27262878417969 80.32588958740234 84.93871307373047 80.64409637451172 88.54629516601562 C 80.9501953125 91.91149139404297 80.61710357666016 94.78028869628906 79.4290771484375 96.82157135009766 C 77.8030014038086 98.16547393798828 75.84748840332031 98.94466400146484 73.74888610839844 99.39820861816406 C 71.91035461425781 99.82401275634766 69.75242614746094 100.28009796142578 66.6738510131836 100.62837982177734 C 62.82048797607422 100.70218658447266 58.82734298706055 100.45188903808594 55.31020736694336 100.02056121826172 C 52.41584396362305 99.65796661376953 49.86298751831055 98.91765594482422 47.743377685546875 97.63163757324219 C 46.28178787231445 96.05122375488281 45.550262451171875 94.31007385253906 45.36843490600586 92.2219467163086 C 45.2878303527832 89.4613265991211 45.43671798706055 85.9890365600586 46.123714447021484 82.12786102294922 C 47.14055633544922 78.19856262207031 47.6035041809082 73.94877624511719 46.48741912841797 67.90101623535156" stroke-width="2.0" fill="rgb(0, 255, 0)" opacity="1.0" stroke="rgb(0, 255, 0)" stroke-opacity="1.0" stroke-linecap="round" stroke-linejoin="round"/>
    <path d="M 58.733829498291016 32.69075393676758 C 58.730552673339844 32.69304275512695 58.75678634643555 32.676048278808594 58.97760009765625 32.592445373535156 C 59.85160827636719 32.353214263916016 61.76986312866211 31.96626853942871 64.99600219726562 31.62742805480957 C 69.30635070800781 31.555789947509766 73.65026092529297 31.998638153076172 77.14266967773438 33.35036849975586 C 79.59337615966797 35.34010696411133 80.4487533569336 37.86277770996094 80.25448608398438 40.65772247314453 C 79.88694763183594 43.34931182861328 79.1407699584961 45.94735336303711 78.04573822021484 48.715667724609375 C 77.01128387451172 51.54962158203125 76.0956039428711 54.21052169799805 75.27992248535156 56.799476623535156 C 74.3160629272461 59.460018157958984 72.85527038574219 61.7987174987793 72.32364654541016 63.4558219909668 C 73.74496459960938 64.27628326416016 75.78551483154297 64.29255676269531 77.55590057373047 63.83781433105469 C 78.814453125 63.10642623901367 79.26604461669922 62.583805084228516 79.50860595703125 62.70209884643555 C 79.79798889160156 63.734580993652344 79.63172149658203 65.68768310546875 79.11048126220703 68.21369934082031 C 78.53628540039062 70.80070495605469 77.97248840332031 73.22836303710938 77.85747528076172 75.46685791015625 C 78.12210845947266 77.9066390991211 78.3184814453125 80.67253875732422 78.38381958007812 83.5766830444336 C 78.61034393310547 86.44759368896484 78.76627349853516 89.2266845703125 78.44213104248047 91.66254425048828 C 77.52352142333984 93.63133239746094 75.89607238769531 95.00739288330078 73.96853637695312 95.81201934814453 C 72.06015014648438 96.34837341308594 69.86772918701172 96.7569808959961 66.97248840332031 97.03141021728516 C 63.352901458740234 97.21112823486328 59.27888488769531 97.21685791015625 55.51017761230469 97.09036254882812 C 52.51222610473633 96.98192596435547 50.05891418457031 96.48518371582031 48.23378372192383 95.6424331665039 C 46.89196014404297 94.48181915283203 46.150516510009766 92.67584991455078 46.01873779296875 90.0656967163086 C 46.375511169433594 86.70230102539062 47.31482696533203 82.9068374633789 48.52433395385742 79.05014038085938 C 49.06570816040039 74.74920654296875 47.92948532104492 68.39095306396484 48.24313735961914 60.055335998535156" stroke-width="2.0" fill="rgb(0, 0, 255)" opacity="1.0" stroke="rgb(0, 0, 255)" stroke-opacity="1.0" stroke-linecap="round" stroke-linejoin="round"/>
  </g>
</svg>
