<?xml version="1.0" ?>
<svg xmlns="http://www.w3.org/2000/svg" version="1.1" width="128" height="128">
  <defs/>
  <g>
    <path d="M 23.34372329711914 45.77195739746094 C 23.350767135620117 45.74797058105469 23.34731101989746 45.66943359375 23.468109130859375 45.03446578979492 C 24.140369415283203 42.95364761352539 26.461978912353516 38.54714584350586 31.123367309570312 32.653141021728516 C 37.41068649291992 27.03827476501465 44.0344123840332 22.874265670776367 50.515602111816406 20.224119186401367 C 56.341957092285156 18.8737735748291 61.11747741699219 18.203641891479492 65.16014862060547 17.938125610351562 C 69.01708221435547 18.05963706970215 72.28914642333984 18.59111213684082 75.04005432128906 19.568885803222656 C 77.41132354736328 21.008724212646484 79.13509368896484 22.855113983154297 80.49330139160156 25.09117317199707 C 81.94274139404297 27.665279388427734 83.00891876220703 30.640735626220703 84.05715942382812 33.763980865478516 C 85.5156021118164 36.9453010559082 86.55313110351562 40.28690719604492 87.3249282836914 43.51447677612305 C 88.27035522460938 46.41094207763672 88.49203491210938 49.110145568847656 88.4158706665039 51.741966247558594 C 88.92923736572266 54.76882553100586 89.2245864868164 58.428321838378906 89.70767974853516 62.68732452392578 C 89.82884216308594 66.6521224975586 88.49443817138672 70.0097427368164 87.39422607421875 72.20474243164062 C 87.17520141601562 73.72367095947266 86.77471160888672 74.60493469238281 86.25812530517578 74.81294250488281 C 85.78917694091797 74.47291564941406 84.75223541259766 73.80261993408203 82.96932220458984 73.17668914794922 C 79.85282135009766 73.0617446899414 73.74237060546875 73.96627807617188 64.4393081665039 75.06556701660156 C 54.43507385253906 73.98444366455078 46.38838195800781 72.52958679199219 41.17891311645508 72.97794342041016 C 37.74131393432617 74.38118743896484 35.307037353515625 76.33553314208984 33.31820297241211 78.79606628417969 C 31.461620330810547 81.53824615478516 29.820323944091797 84.0553207397461 28.438364028930664 85.98835754394531 C 27.202598571777344 87.27526092529297 26.172569274902344 87.89916229248047 25.233688354492188 87.99650573730469 C 24.098398208618164 87.53364562988281 22.98750114440918 86.28032684326172 22.205902099609375 84.42984771728516 C 21.648117065429688 82.37902069091797 21.08738899230957 80.11361694335938 20.414464950561523 77.09107208251953" stroke-width="2.0" fill="rgb(252, 194, 27)" opacity="1.0" stroke="rgb(252, 194, 27)" stroke-opacity="1.0" stroke-linecap="round" stroke-linejoin="round"/>
    <path d="M 33.85429382324219 24.785964965820312 C 33.87579345703125 24.75037384033203 33.91767883300781 24.584211349487305 34.512718200683594 23.709667205810547 C 36.597530364990234 21.705493927001953 40.42585754394531 18.854923248291016 45.59663009643555 16.38653564453125 C 51.449886322021484 14.79338264465332 56.78228759765625 13.868407249450684 61.10675811767578 13.360819816589355 C 64.563720703125 13.215136528015137 67.64755249023438 13.437829971313477 71.843505859375 14.037063598632812 C 77.2018051147461 15.03288459777832 81.77733612060547 16.609909057617188 86.5962142944336 18.71043586730957 C 91.9637680053711 20.9609375 95.8183364868164 23.7777099609375 100.008056640625 27.8641300201416 C 105.47725677490234 33.13699722290039 109.4832534790039 39.54226303100586 111.76376342773438 45.86648178100586 C 113.41796112060547 50.888580322265625 114.30903625488281 54.34807205200195 115.02115631103516 56.64125061035156 C 115.78492736816406 58.54575729370117 115.64142608642578 60.665321350097656 115.15202331542969 63.21694564819336 C 115.60421752929688 66.75115203857422 115.74462890625 70.8056869506836 114.6559829711914 74.14922332763672 C 113.55268859863281 76.43457794189453 112.91667175292969 78.99356079101562 111.97618103027344 82.62071990966797 C 109.85964965820312 87.86641693115234 105.75045776367188 94.05794525146484 100.02267456054688 100.44825744628906 C 94.48979949951172 105.93597412109375 90.2002182006836 109.7521743774414 86.86560821533203 112.33705139160156 C 83.96176147460938 114.10311889648438 81.05117797851562 115.20845031738281 78.12918853759766 115.90463256835938 C 75.47347259521484 116.47506713867188 72.37838745117188 116.9727554321289 68.2481460571289 117.3150634765625 C 63.27001953125 117.44800567626953 58.02634811401367 117.23021697998047 53.180198669433594 116.62642669677734 C 49.144615173339844 115.71734619140625 45.8930549621582 114.59034729003906 42.89795684814453 113.26309204101562 C 39.95163345336914 111.67579650878906 37.000362396240234 109.51364135742188 33.69557189941406 106.42643737792969 C 29.46782875061035 102.3857650756836 24.89978790283203 97.6002197265625 21.15611457824707 92.54474639892578 C 18.585620880126953 88.12237548828125 16.844621658325195 84.870849609375 15.549945831298828 81.90289306640625" stroke-width="2.0" fill="rgb(255, 0, 0)" opacity="1.0" stroke="rgb(255, 0, 0)" stroke-opacity="1.0" stroke-linecap="round" stroke-linejoin="round"/>
    <path d="M 37.84823989868164 21.660810470581055 C 37.86747360229492 21.632474899291992 37.91938018798828 21.497665405273438 38.50730514526367 20.811649322509766 C 40.31548309326172 19.276342391967773 43.514991760253906 17.220666885375977 48.12557601928711 15.403046607971191 C 53.317569732666016 14.061296463012695 58.07078552246094 13.177417755126953 62.05852508544922 12.638827323913574 C 65.38984680175781 12.467409133911133 68.48505401611328 12.667888641357422 72.76913452148438 13.24899673461914 C 78.1815414428711 14.26929759979248 82.81918334960938 15.913982391357422 87.71147918701172 18.077903747558594 C 93.12649536132812 20.427513122558594 96.99021911621094 23.39550018310547 101.23387908935547 27.73575782775879 C 106.72486877441406 33.267024993896484 110.64833068847656 40.00310134887695 112.82910919189453 46.442935943603516 C 114.4470443725586 51.394248962402344 115.37222290039062 54.686397552490234 116.05520629882812 56.83693313598633 C 116.62332153320312 58.70831298828125 116.33000183105469 60.75358200073242 115.7825698852539 63.243499755859375 C 116.11687469482422 66.68460845947266 116.26274871826172 70.67304992675781 115.34142303466797 74.10066223144531 C 114.33502197265625 76.44104766845703 113.79103088378906 78.9270248413086 113.11454010009766 82.21832275390625 C 111.43026733398438 87.20217895507812 107.43656158447266 93.47930145263672 101.37811279296875 100.17341613769531 C 95.50076293945312 106.02183532714844 91.04488372802734 110.15837860107422 87.62826538085938 112.91519927978516 C 84.58495330810547 114.76471710205078 81.55143737792969 115.90650939941406 78.47946166992188 116.62596893310547 C 75.6058120727539 117.2176284790039 72.2763442993164 117.72724914550781 67.94556427001953 118.07270050048828 C 62.82515335083008 118.166015625 57.5954475402832 117.91534423828125 52.81730651855469 117.33419799804688 C 48.732723236083984 116.48248291015625 45.4310417175293 115.39556884765625 42.539730072021484 114.11614990234375 C 39.93519973754883 112.6210708618164 37.2919807434082 110.59695434570312 34.329524993896484 107.73296356201172 C 30.291622161865234 103.88455200195312 25.55713653564453 99.35950469970703 21.428483963012695 94.53400421142578 C 18.560115814208984 90.08987426757812 16.701494216918945 86.70780181884766 15.456230163574219 83.52140808105469" stroke-width="2.0" fill="rgb(0, 255, 0)" opacity="1.0" stroke="rgb(0, 255, 0)" stroke-opacity="1.0" stroke-linecap="round" stroke-linejoin="round"/>
    <path d="M 50.65703201293945 19.609739303588867 C 50.667213439941406 19.607906341552734 50.670101165771484 19.584566116333008 50.876991271972656 19.47926139831543 C 51.717124938964844 19.22637176513672 53.8280143737793 18.887056350708008 57.510379791259766 18.731464385986328 C 62.141517639160156 18.87976837158203 66.3672103881836 19.432931900024414 69.47200775146484 20.306354522705078 C 71.50211334228516 21.37758445739746 72.34835815429688 22.689552307128906 72.41754150390625 24.3033390045166 C 72.56787872314453 26.28705406188965 72.66910552978516 28.670085906982422 72.84873962402344 31.541759490966797 C 73.59596252441406 34.88832092285156 74.2684555053711 38.5817756652832 75.3423080444336 42.04571533203125 C 77.63721466064453 44.236873626708984 80.26130676269531 45.418182373046875 82.71603393554688 46.36931610107422 C 85.63057708740234 47.061363220214844 88.31739044189453 47.72711944580078 91.00686645507812 48.84455108642578 C 93.44892883300781 51.155147552490234 93.46470642089844 54.27873992919922 92.11866760253906 56.543731689453125 C 91.01507568359375 57.8309440612793 89.0539779663086 58.66497802734375 86.96153259277344 59.42116165161133 C 85.93067932128906 61.087860107421875 84.29083251953125 64.62947082519531 82.22164154052734 69.60078430175781 C 80.90467071533203 75.14703369140625 80.15411376953125 80.90447235107422 79.79924774169922 86.13774108886719 C 79.7367172241211 90.57257843017578 79.41732788085938 93.93317413330078 78.78697204589844 96.44181060791016 C 78.14248657226562 98.47132110595703 77.21915435791016 99.96648406982422 75.9239273071289 100.71939086914062 C 74.54979705810547 100.85260772705078 73.2158432006836 100.6463851928711 71.89398193359375 100.34307861328125 C 70.12188720703125 100.10209655761719 67.16170501708984 99.8637466430664 63.01242446899414 99.6329574584961 C 58.49128341674805 99.47342681884766 54.377906799316406 99.26127624511719 51.18764877319336 98.6530532836914 C 48.69171142578125 96.91078186035156 46.83286666870117 93.78173828125 45.10850143432617 89.20648193359375 C 42.91204071044922 83.75489044189453 40.33815383911133 78.54204559326172 37.52291488647461 73.82654571533203 C 33.13373565673828 68.80936431884766 28.573511123657227 61.978492736816406 27.20030975341797 51.37065505981445" stroke-width="2.0" fill="rgb(0, 0, 255)" opacity="1.0" stroke="rgb(0, 0, 255)" stroke-opacity="1.0" stroke-linecap="round" stroke-linejoin="round"/>
  </g>
</svg>
