<?xml version="1.0" ?>
<svg xmlns="http://www.w3.org/2000/svg" version="1.1" width="128" height="128">
  <defs/>
  <g>
    <path d="M 0.7032094597816467 0.20492149889469147 C 0.7042864561080933 0.20460933446884155 0.7010638117790222 0.20365259051322937 0.7032421827316284 0.19590236246585846 C 0.7459478378295898 0.17309118807315826 0.9608699679374695 0.13028846681118011 1.7410249710083008 0.07989971339702606 C 4.685573101043701 0.04227893054485321 15.314153671264648 0.021455397829413414 44.68295669555664 0.012280820868909359 C 85.6842041015625 0.008808734826743603 111.9173583984375 0.007554967887699604 122.33242797851562 0.007726105395704508 C 125.94832611083984 0.009254615753889084 127.1705093383789 0.012064449489116669 127.61810302734375 0.016198134049773216 C 127.79652404785156 0.022526277229189873 127.87614440917969 0.03376593068242073 127.92021942138672 0.054974935948848724 C 127.94617462158203 0.09552087634801865 127.95994567871094 0.17229695618152618 127.96854400634766 0.3182717263698578 C 127.97521209716797 0.6119676828384399 127.97981262207031 1.22003173828125 127.98287963867188 2.5626704692840576 C 127.98497009277344 5.462022304534912 127.98577880859375 11.727143287658691 127.98553466796875 24.85236930847168 C 127.98478698730469 47.405982971191406 127.98336791992188 76.55148315429688 127.98141479492188 102.25672149658203 C 127.97813415527344 117.7547607421875 127.97150421142578 124.3974380493164 127.9608154296875 126.73477172851562 C 127.94690704345703 127.53601837158203 127.92192077636719 127.80980682373047 127.87186431884766 127.91104125976562 C 127.79335021972656 127.95399475097656 127.65946197509766 127.97408294677734 127.38957977294922 127.98399353027344 C 126.78572082519531 127.98927307128906 125.26705169677734 127.99237060546875 121.14103698730469 127.99429321289062 C 109.60388946533203 127.99537658691406 81.63493347167969 127.99586486816406 41.72473907470703 127.99588012695312 C 14.989773750305176 127.99534606933594 4.827169895172119 127.99369812011719 1.5854648351669312 127.98991394042969 C 0.5671460032463074 127.98095703125 0.2171250283718109 127.95770263671875 0.09077589213848114 127.89387512207031 C 0.04204871878027916 127.72488403320312 0.020482413470745087 127.27690124511719 0.01157175749540329 126.118896484375 C 0.007707413751631975 123.24958038330078 0.0056695821695029736 116.33592224121094 0.0048523591831326485 101.26380157470703 C 0.0048841978423297405 74.44310760498047 0.005834081210196018 43.12309265136719 0.008598623797297478 19.928232192993164" stroke-width="2.0" fill="rgb(252, 194, 27)" opacity="1.0" stroke="rgb(252, 194, 27)" stroke-opacity="1.0" stroke-linecap="round" stroke-linejoin="round"/>
    <path d="M 81.87637329101562 68.90450286865234 C 81.87431335449219 68.91276550292969 81.88099670410156 68.91095733642578 81.89694213867188 68.96788024902344 C 82.0376968383789 69.16423797607422 82.22862243652344 69.62057495117188 82.43860626220703 70.29802703857422 C 82.87554931640625 70.98372650146484 83.44168853759766 71.44833374023438 84.2155990600586 71.63785552978516 C 85.50310516357422 71.65575408935547 87.0016860961914 71.57491302490234 88.57260131835938 71.47644805908203 C 90.48187255859375 71.47586822509766 92.8043212890625 71.70907592773438 95.5348129272461 72.4304428100586 C 98.51864624023438 73.85389709472656 101.09920501708984 75.75476837158203 103.13005065917969 77.78899383544922 C 104.85487365722656 79.89774322509766 106.10428619384766 82.12686920166016 107.01392364501953 84.48248291015625 C 107.80209350585938 87.09383392333984 107.963134765625 90.10492706298828 107.40060424804688 93.26358795166016 C 106.41429138183594 96.32174682617188 104.9097900390625 99.05982971191406 103.02360534667969 101.2880859375 C 101.23626708984375 103.07469177246094 99.36112213134766 104.50935363769531 97.28085327148438 105.5928955078125 C 95.29065704345703 106.42015838623047 93.03437042236328 107.0499267578125 90.47303009033203 107.32005310058594 C 87.8240737915039 107.08370971679688 84.94440460205078 106.48809814453125 81.818359375 105.40144348144531 C 78.6488037109375 103.60140991210938 75.64100646972656 100.9652328491211 73.27297973632812 97.61721801757812 C 71.84800720214844 94.05165100097656 71.02973937988281 90.66500091552734 70.85833740234375 87.82763671875 C 71.07317352294922 85.72216796875 71.02764892578125 84.18600463867188 70.62557220458984 83.0644302368164 C 69.7643051147461 82.32881927490234 68.00050354003906 81.92462158203125 65.75653076171875 81.69146728515625 C 63.573299407958984 81.47431182861328 61.3930778503418 81.20208740234375 59.52508544921875 80.8442611694336 C 58.27933883666992 80.4876480102539 57.23884582519531 80.2198486328125 56.65009689331055 80.01297760009766 C 57.23298263549805 80.10309600830078 58.680084228515625 80.30670166015625 60.740535736083984 80.40547943115234 C 63.4594841003418 80.01700592041016 66.69019317626953 78.8244857788086 71.0833969116211 76.58074188232422" stroke-width="2.0" fill="rgb(255, 0, 0)" opacity="1.0" stroke="rgb(255, 0, 0)" stroke-opacity="1.0" stroke-linecap="round" stroke-linejoin="round"/>
    <path d="M 79.06858825683594 53.64453125 C 79.06542205810547 53.645591735839844 79.08026885986328 53.66131591796875 79.16735076904297 53.779170989990234 C 79.52362823486328 54.25154113769531 80.23310089111328 55.530975341796875 81.3129653930664 57.93965148925781 C 82.39434051513672 61.336219787597656 82.69740295410156 65.0247573852539 82.4305648803711 67.97852325439453 C 82.31373596191406 69.94454193115234 82.47959899902344 71.01983642578125 83.06130981445312 71.41378021240234 C 84.28968048095703 71.3356704711914 85.94159698486328 70.96510314941406 88.05953979492188 70.5966567993164 C 90.90499114990234 70.64431762695312 93.88607025146484 71.52251434326172 96.5744400024414 73.11559295654297 C 99.00894927978516 75.10401153564453 100.86771392822266 77.21517944335938 102.32485961914062 79.46804809570312 C 103.74949645996094 82.06874084472656 104.55799865722656 85.10614013671875 104.43614196777344 88.38896179199219 C 103.55961608886719 91.71807861328125 101.96995544433594 94.77416229248047 100.0313491821289 97.23628234863281 C 98.2223892211914 99.17182922363281 96.27091217041016 100.77621459960938 93.98300170898438 102.09373474121094 C 91.5123519897461 103.09590148925781 88.53694152832031 103.6278076171875 85.24554443359375 103.55097961425781 C 81.99711608886719 102.5865707397461 78.65721893310547 100.71178436279297 75.77176666259766 97.87689971923828 C 73.9775390625 94.38290405273438 72.99170684814453 90.81002044677734 72.5809097290039 87.6205062866211 C 72.5260009765625 85.17564392089844 72.15375518798828 83.38265991210938 71.63253784179688 82.01071166992188 C 70.96392822265625 81.0979995727539 69.38847351074219 80.68138885498047 67.02323150634766 80.51580810546875 C 64.1817398071289 80.40283203125 60.920223236083984 80.0038070678711 57.7407341003418 78.9244155883789 C 55.066688537597656 77.49503326416016 52.88373565673828 76.27372741699219 51.3220329284668 75.53353118896484 C 51.200721740722656 75.81170654296875 52.396629333496094 77.21002960205078 54.66424560546875 79.02058410644531 C 57.90815734863281 80.44676971435547 61.515010833740234 80.98451232910156 65.34334564208984 80.56510162353516 C 69.24925231933594 79.03729248046875 72.58031463623047 76.3102035522461 75.56619262695312 72.08655548095703" stroke-width="2.0" fill="rgb(0, 255, 0)" opacity="1.0" stroke="rgb(0, 255, 0)" stroke-opacity="1.0" stroke-linecap="round" stroke-linejoin="round"/>
    <path d="M 65.57091522216797 45.18179702758789 C 65.56641387939453 45.174495697021484 65.57457733154297 45.183013916015625 65.62238311767578 45.19136047363281 C 65.8846664428711 45.29401397705078 66.6539535522461 45.507930755615234 68.37387084960938 45.95926284790039 C 70.9322509765625 46.691768646240234 73.87059783935547 48.096988677978516 76.93424224853516 50.44818115234375 C 79.84215545654297 54.23386764526367 81.54922485351562 59.38741683959961 82.04598236083984 64.58345794677734 C 82.10600280761719 68.54167938232422 82.11471557617188 70.76383972167969 82.41728973388672 71.62432861328125 C 83.27407836914062 71.70475006103516 84.56865692138672 71.43315887451172 86.20020294189453 70.98750305175781 C 88.43272399902344 70.68385314941406 91.10391235351562 70.87451934814453 93.86622619628906 71.9276351928711 C 96.42158508300781 73.7549819946289 98.32424926757812 76.04975128173828 99.61170196533203 78.75581359863281 C 100.29481506347656 82.21350860595703 99.68858337402344 86.38583374023438 97.73844909667969 90.66422271728516 C 94.90441131591797 94.78003692626953 91.39968872070312 98.11296844482422 87.63594055175781 100.10289764404297 C 84.46189880371094 100.9488754272461 81.69314575195312 100.80923461914062 79.02811431884766 99.92388916015625 C 76.69608306884766 98.27688598632812 74.7584457397461 95.9687728881836 73.39920043945312 93.25678253173828 C 72.58424377441406 90.54940795898438 71.86669158935547 87.9696273803711 71.33851623535156 85.63150787353516 C 71.05178833007812 83.77101135253906 70.35128021240234 82.46244049072266 69.11868286132812 81.61592102050781 C 67.54366302490234 81.07206726074219 65.50511169433594 80.6212387084961 62.99479293823242 80.1463623046875 C 60.33035659790039 79.58076477050781 57.93312454223633 78.94811248779297 57.018917083740234 78.78837585449219 C 58.44746017456055 79.49454498291016 61.72724914550781 80.50852966308594 65.81088256835938 80.79823303222656 C 70.16867065429688 79.63105773925781 74.14785766601562 76.81563568115234 76.97225189208984 72.53308868408203 C 78.03121948242188 67.20681762695312 77.00917053222656 61.1036376953125 74.72096252441406 55.26325607299805 C 71.69554138183594 50.94857406616211 68.65487670898438 48.681846618652344 67.34973907470703 47.63022232055664" stroke-width="2.0" fill="rgb(0, 0, 255)" opacity="1.0" stroke="rgb(0, 0, 255)" stroke-opacity="1.0" stroke-linecap="round" stroke-linejoin="round"/>
  </g>
</svg>
