<?xml version="1.0" ?>
<svg xmlns="http://www.w3.org/2000/svg" version="1.1" width="128" height="128">
  <defs/>
  <g>
    <path d="M 99.8284683227539 37.14005661010742 C 99.82069396972656 37.11552810668945 100.89762115478516 37.77969741821289 103.4251708984375 41.48418426513672 C 97.21324157714844 47.64749526977539 63.25349426269531 48.791481018066406 27.656492233276367 47.256561279296875 C 21.497920989990234 49.00110626220703 25.333206176757812 55.74989318847656 27.543004989624023 66.3153076171875 C 29.136962890625 78.02073669433594 29.33160400390625 86.21646118164062 27.21721649169922 89.15158081054688 C 28.329118728637695 89.84426879882812 34.10997772216797 89.90831756591797 42.92535400390625 89.7464599609375 C 57.06089782714844 89.77307891845703 73.75682067871094 90.06211853027344 86.26929473876953 90.28597259521484 C 95.19485473632812 90.1792984008789 100.28632354736328 90.79257202148438 101.68741607666016 93.53829956054688 C 101.55321502685547 96.66997528076172 100.31977844238281 98.43175506591797 97.37708282470703 99.29640197753906 C 94.37825775146484 99.7476806640625 90.25071716308594 99.66264343261719 80.76152038574219 99.74089050292969 C 67.94230651855469 99.7617416381836 56.399757385253906 99.7917251586914 45.654876708984375 99.81033325195312 C 38.27104568481445 99.83116149902344 35.23565673828125 99.76940155029297 31.726823806762695 99.70565032958984 C 27.177095413208008 100.0412368774414 24.710535049438477 99.39955139160156 24.667238235473633 96.15692901611328 C 25.60603141784668 92.85759735107422 27.037940979003906 90.50401306152344 28.56648063659668 85.5326919555664 C 29.35843849182129 78.99240112304688 29.251583099365234 74.89746856689453 28.51020622253418 69.99909210205078 C 26.795324325561523 64.02364349365234 25.820215225219727 61.57429122924805 26.786827087402344 59.87417221069336 C 27.189130783081055 57.131072998046875 26.767683029174805 56.288108825683594 26.05399513244629 53.80857849121094 C 24.151168823242188 48.4991340637207 24.462495803833008 44.43678283691406 29.303651809692383 40.26563262939453 C 37.280052185058594 36.179080963134766 50.05219268798828 35.575225830078125 66.32818603515625 34.544677734375 C 72.07241821289062 29.4814510345459 67.59615325927734 26.553916931152344 69.36068725585938 25.835067749023438 C 77.8614730834961 24.393569946289062 84.28286743164062 25.372295379638672 89.79200744628906 30.054468154907227" stroke-width="2.0" fill="rgb(252, 194, 27)" opacity="1.0" stroke="rgb(252, 194, 27)" stroke-opacity="1.0" stroke-linecap="round" stroke-linejoin="round"/>
    <path d="M 104.10777282714844 44.0648307800293 C 104.1252670288086 44.04560470581055 104.30841064453125 44.195011138916016 105.34172058105469 45.25825500488281 C 104.98885345458984 48.023860931396484 100.8836669921875 51.91044616699219 98.52349853515625 57.288150787353516 C 101.6705093383789 61.198509216308594 103.85490417480469 61.394676208496094 104.66207122802734 60.71030807495117 C 105.45191955566406 61.59178924560547 104.03958892822266 63.73707580566406 101.74021911621094 66.05340576171875 C 102.2210922241211 68.80465698242188 103.65275573730469 72.3167953491211 103.3575210571289 77.44438934326172 C 102.89859771728516 83.59414672851562 103.80194091796875 88.43048095703125 104.97782135009766 92.64875030517578 C 105.63610076904297 96.83004760742188 105.30072784423828 99.72419738769531 103.46656036376953 101.46348571777344 C 101.58097076416016 102.2560806274414 99.58911895751953 101.9956283569336 95.7366943359375 101.68557739257812 C 91.67686462402344 101.86170959472656 86.95694732666016 101.98873901367188 73.87210845947266 101.84918975830078 C 57.04425811767578 101.81139373779297 47.213111877441406 101.79615783691406 40.2626953125 101.81546783447266 C 34.51546096801758 101.74234771728516 31.482929229736328 101.74821472167969 28.608720779418945 101.72976684570312 C 24.770030975341797 102.01380920410156 22.2100887298584 101.41864013671875 21.79584503173828 97.339599609375 C 22.180458068847656 92.38194274902344 23.121740341186523 88.14134979248047 24.370685577392578 80.06735229492188 C 24.623241424560547 70.59002685546875 23.794586181640625 65.82352447509766 22.3813419342041 61.81226348876953 C 21.28780746459961 58.34668731689453 21.74510383605957 59.00204086303711 23.77739143371582 58.92157745361328 C 25.35761070251465 56.795772552490234 26.142553329467773 56.91302490234375 26.249231338500977 55.76123046875 C 24.695106506347656 52.26679229736328 23.305747985839844 50.67584228515625 22.61086082458496 48.557823181152344 C 22.074037551879883 43.60710144042969 25.033506393432617 39.099769592285156 33.98624801635742 34.8109016418457 C 44.66752624511719 30.895689010620117 54.966796875 30.866275787353516 68.35147857666016 31.411359786987305 C 80.28836059570312 28.99305534362793 87.29086303710938 28.091386795043945 92.85431671142578 31.436979293823242" stroke-width="2.0" fill="rgb(255, 0, 0)" opacity="1.0" stroke="rgb(255, 0, 0)" stroke-opacity="1.0" stroke-linecap="round" stroke-linejoin="round"/>
    <path d="M 103.82971954345703 46.3651123046875 C 103.84825134277344 46.36186981201172 104.34575653076172 46.69650650024414 106.18457794189453 48.58256149291992 C 103.62805938720703 51.913917541503906 90.74864959716797 54.54827880859375 84.93006134033203 58.052310943603516 C 95.73600006103516 61.20835494995117 102.90560150146484 60.851600646972656 104.8988037109375 59.43777847290039 C 107.00109100341797 59.78289031982422 106.74586486816406 61.55400085449219 103.21061706542969 63.824562072753906 C 101.45072937011719 66.12821960449219 103.05868530273438 69.16358184814453 103.7385025024414 74.81698608398438 C 103.06510925292969 82.01154327392578 103.63766479492188 87.56570434570312 105.1231689453125 92.17054748535156 C 105.98595428466797 96.79408264160156 105.57962799072266 99.9408950805664 103.80245208740234 101.76651763916016 C 102.13008880615234 102.6622543334961 100.18241119384766 102.61368560791016 96.31934356689453 102.50201416015625 C 92.39395904541016 102.65266418457031 88.19353485107422 102.73503112792969 76.9774169921875 102.6250228881836 C 61.424720764160156 102.52593231201172 50.64713668823242 102.62543487548828 41.9322509765625 102.74761199951172 C 35.39014434814453 102.6823959350586 32.4691276550293 102.61308288574219 29.52568244934082 102.47032165527344 C 25.781333923339844 102.74393463134766 23.060955047607422 102.50499725341797 21.898069381713867 98.98233795166016 C 21.632266998291016 94.33798217773438 22.268381118774414 90.641845703125 23.64368438720703 83.21178436279297 C 24.299856185913086 73.86235046386719 23.922529220581055 68.27300262451172 22.974571228027344 62.91725540161133 C 22.00608253479004 58.5583610534668 22.591737747192383 59.20532989501953 24.874303817749023 59.02936553955078 C 25.990568161010742 56.119529724121094 25.771808624267578 55.35112380981445 25.02240753173828 53.81126022338867 C 22.775609970092773 49.81684875488281 21.41892433166504 47.0599250793457 23.63511085510254 43.54203414916992 C 27.703201293945312 38.19179153442383 32.61127853393555 34.63953399658203 39.67416763305664 31.864744186401367 C 44.43561553955078 29.39127540588379 44.95174789428711 28.932064056396484 47.712100982666016 27.914955139160156 C 54.25861358642578 25.301549911499023 63.65761947631836 24.191484451293945 74.22935485839844 24.963050842285156" stroke-width="2.0" fill="rgb(0, 255, 0)" opacity="1.0" stroke="rgb(0, 255, 0)" stroke-opacity="1.0" stroke-linecap="round" stroke-linejoin="round"/>
    <path d="M 104.73709869384766 46.65214920043945 C 104.74761199951172 46.64940643310547 105.17867279052734 46.94953536987305 106.94316864013672 48.78166961669922 C 104.85737609863281 52.06588363647461 92.57381439208984 54.47529602050781 85.81243133544922 57.69487762451172 C 95.82281494140625 60.77987289428711 102.84998321533203 60.4130859375 104.680419921875 58.94306945800781 C 106.66564178466797 59.24774169921875 106.34868621826172 61.080078125 103.12305450439453 63.49777603149414 C 101.9854507446289 66.03305053710938 103.60687255859375 69.62681579589844 103.97747039794922 75.88032531738281 C 103.55958557128906 82.89971160888672 104.5832290649414 87.8475112915039 105.90111541748047 92.40831756591797 C 106.27434539794922 97.24250793457031 105.65571594238281 100.33749389648438 103.8973617553711 101.97464752197266 C 102.28363037109375 102.82413482666016 100.33987426757812 102.83556365966797 96.31360626220703 102.73316192626953 C 92.0550308227539 102.77680969238281 87.67281341552734 102.86766052246094 77.32041931152344 102.88348388671875 C 63.21607971191406 102.79110717773438 52.922813415527344 102.80316925048828 43.595516204833984 102.92210388183594 C 36.32119369506836 102.9256820678711 33.275028228759766 102.86028289794922 30.17893409729004 102.6558609008789 C 26.366506576538086 102.9288101196289 23.580472946166992 102.95819091796875 21.766279220581055 99.84014892578125 C 20.860179901123047 95.1507568359375 21.4149169921875 91.44699096679688 23.194591522216797 84.51033020019531 C 23.987455368041992 75.80050659179688 23.66546058654785 70.76544952392578 23.282970428466797 65.3998031616211 C 22.278095245361328 59.954280853271484 22.605077743530273 59.500450134277344 25.074138641357422 59.01466369628906 C 26.373689651489258 55.90806579589844 26.208498001098633 54.830413818359375 25.469926834106445 53.14575958251953 C 23.13028907775879 48.968265533447266 22.374588012695312 45.78300857543945 26.15203285217285 41.94390869140625 C 31.169692993164062 36.69396209716797 35.46064758300781 33.239036560058594 42.25562286376953 30.42840003967285 C 47.02030563354492 28.121719360351562 45.48105239868164 28.038057327270508 45.767120361328125 27.48383140563965 C 52.0127067565918 24.76380157470703 62.01107406616211 23.27547836303711 73.44108581542969 23.918983459472656" stroke-width="2.0" fill="rgb(0, 0, 255)" opacity="1.0" stroke="rgb(0, 0, 255)" stroke-opacity="1.0" stroke-linecap="round" stroke-linejoin="round"/>
  </g>
</svg>
