<?xml version="1.0" ?>
<svg xmlns="http://www.w3.org/2000/svg" version="1.1" width="128" height="128">
  <defs/>
  <g>
    <path d="M 58.37956619262695 49.58510208129883 C 58.37965393066406 49.59903335571289 57.33699035644531 49.000755310058594 60.07289505004883 47.52796936035156 C 74.18863677978516 48.61697006225586 86.5833511352539 57.93616485595703 77.89833068847656 73.02229309082031 C 67.70027923583984 85.88937377929688 71.38382720947266 91.61139678955078 74.02648162841797 90.81476593017578 C 72.96453094482422 87.6861572265625 74.27549743652344 83.09642028808594 76.8786849975586 78.1353988647461 C 79.87882995605469 73.97657012939453 83.98096466064453 71.56171417236328 88.55779266357422 71.04524230957031 C 93.85160827636719 71.01263427734375 98.46719360351562 72.90036010742188 101.50527954101562 77.5057601928711 C 104.47735595703125 81.221435546875 106.54680633544922 84.17438507080078 106.47699737548828 88.77747344970703 C 106.24195861816406 93.23937225341797 105.42909240722656 96.43858337402344 101.85641479492188 100.66838073730469 C 98.46136474609375 104.40385437011719 96.07394409179688 105.84205627441406 91.09480285644531 106.53373718261719 C 86.379638671875 107.00548553466797 84.45642852783203 105.83645629882812 80.43885040283203 103.69293975830078 C 75.73146057128906 101.60700988769531 74.1580810546875 98.83760833740234 72.6082763671875 94.8976821899414 C 70.57442474365234 89.96977996826172 71.34882354736328 84.05046081542969 72.22337341308594 79.23992156982422 C 70.4695053100586 78.05272674560547 70.4230728149414 79.27143859863281 66.46502685546875 81.60853576660156 C 53.198768615722656 80.42278289794922 45.5900993347168 70.32591247558594 48.73267364501953 58.47039031982422 C 51.98521423339844 52.86054611206055 53.87516403198242 51.568790435791016 55.19271469116211 50.69866943359375 C 52.68357849121094 49.72230529785156 49.828956604003906 48.8431282043457 47.57463836669922 45.506004333496094 C 44.22168731689453 40.33012008666992 43.481319427490234 36.78438949584961 43.13536834716797 34.48524856567383 C 38.409461975097656 33.30585861206055 34.545387268066406 34.50265884399414 31.311321258544922 37.38978576660156 C 27.135446548461914 41.22633743286133 25.704605102539062 45.13705825805664 22.750825881958008 47.80863952636719 C 16.209911346435547 49.399436950683594 11.570552825927734 49.567039489746094 8.624841690063477 47.94199752807617" stroke-width="2.0" fill="rgb(252, 194, 27)" opacity="1.0" stroke="rgb(252, 194, 27)" stroke-opacity="1.0" stroke-linecap="round" stroke-linejoin="round"/>
    <path d="M 51.40369415283203 24.53627586364746 C 51.39628219604492 24.534578323364258 51.23965835571289 24.4969482421875 51.11201095581055 24.446325302124023 C 51.89577865600586 24.989208221435547 53.209808349609375 27.12028694152832 55.22489929199219 31.675867080688477 C 57.231849670410156 38.10309600830078 55.91476821899414 43.89186477661133 54.43202209472656 46.695472717285156 C 56.25162124633789 46.39545822143555 57.89067840576172 46.03184509277344 59.86292266845703 46.2563591003418 C 64.74636840820312 45.51275634765625 69.98313903808594 45.86103820800781 74.37987518310547 48.792327880859375 C 78.86084747314453 52.160484313964844 81.50761413574219 55.969844818115234 81.69744110107422 59.7982177734375 C 81.9986572265625 61.4835090637207 82.49340057373047 61.483795166015625 81.8053207397461 60.626346588134766 C 80.97135162353516 57.0599250793457 79.01206970214844 52.09321594238281 73.49806213378906 48.567256927490234 C 68.6339340209961 46.37639236450195 65.17430877685547 45.537681579589844 58.10015869140625 46.46757125854492 C 51.73705291748047 48.07820129394531 50.27615737915039 50.35901641845703 48.08307647705078 55.461734771728516 C 45.322566986083984 62.80052947998047 46.64915466308594 69.12507629394531 49.8416748046875 73.99442291259766 C 52.24616241455078 78.1490707397461 55.6608772277832 79.98136901855469 57.41197967529297 79.93231201171875 C 54.618228912353516 79.42074584960938 50.77044677734375 77.21438598632812 48.095619201660156 73.11093139648438 C 45.689430236816406 68.73795318603516 45.086585998535156 64.29385375976562 46.47079086303711 59.39146423339844 C 47.29531478881836 55.28588104248047 48.141380310058594 52.62588119506836 49.790626525878906 50.645904541015625 C 48.69343948364258 50.407772064208984 46.685279846191406 51.42906188964844 46.231502532958984 51.761749267578125 C 45.048423767089844 52.647945404052734 44.18540954589844 54.40492248535156 44.20393753051758 55.16706466674805 C 42.29775619506836 55.710235595703125 39.75646209716797 56.29877853393555 37.154109954833984 56.160301208496094 C 33.91670608520508 55.86899948120117 31.85602378845215 55.02980041503906 29.91278839111328 53.57708740234375 C 27.096223831176758 52.018978118896484 25.329809188842773 49.4631462097168 23.331188201904297 45.718807220458984" stroke-width="2.0" fill="rgb(255, 0, 0)" opacity="1.0" stroke="rgb(255, 0, 0)" stroke-opacity="1.0" stroke-linecap="round" stroke-linejoin="round"/>
    <path d="M 53.64625549316406 26.35729217529297 C 53.63595962524414 26.358182907104492 53.485599517822266 26.32526969909668 53.364376068115234 26.30854034423828 C 54.014034271240234 26.877286911010742 55.17353820800781 29.04426383972168 56.86552810668945 33.428958892822266 C 58.211421966552734 39.33427429199219 56.80250930786133 44.48033142089844 55.48899459838867 46.67145538330078 C 57.217342376708984 46.09394454956055 59.22483825683594 45.50676727294922 61.58417892456055 45.22096633911133 C 66.4955062866211 44.56379699707031 71.65438842773438 45.728511810302734 76.107177734375 49.45900344848633 C 80.47062683105469 53.375648498535156 82.58832550048828 57.276371002197266 82.61445617675781 61.055397033691406 C 83.06364440917969 62.94422149658203 83.49787902832031 63.76649475097656 82.62828063964844 63.680625915527344 C 81.71073150634766 60.5149040222168 80.00755310058594 55.1019287109375 74.7120132446289 50.48964309692383 C 69.71443176269531 47.289085388183594 66.05543518066406 46.16166305541992 58.53520965576172 47.451324462890625 C 52.06435775756836 49.28888702392578 50.68883514404297 51.718257904052734 48.388397216796875 57.31357192993164 C 45.6458740234375 65.2176742553711 47.638954162597656 71.12254333496094 51.73909378051758 75.52167510986328 C 54.70880126953125 79.45748901367188 58.43759536743164 81.31658935546875 60.56855010986328 81.80742645263672 C 58.40496063232422 82.01583099365234 54.67426300048828 80.54035949707031 50.56234359741211 76.8931884765625 C 46.355655670166016 72.37915802001953 44.6322135925293 67.1491470336914 45.40067672729492 61.57075119018555 C 46.07561111450195 56.95075607299805 47.436920166015625 53.660858154296875 49.505069732666016 51.615821838378906 C 48.92271423339844 51.351341247558594 47.431060791015625 52.240020751953125 46.97846221923828 52.70261764526367 C 45.38383865356445 53.79387283325195 44.161827087402344 55.78586196899414 43.75687026977539 56.72159957885742 C 42.07413864135742 57.03076934814453 40.012428283691406 57.311946868896484 37.53718948364258 57.02630615234375 C 34.44216537475586 56.659427642822266 32.53618240356445 55.81297302246094 30.328636169433594 54.47877502441406 C 27.16925048828125 53.18939971923828 25.065771102905273 50.682777404785156 22.33516502380371 46.33978271484375" stroke-width="2.0" fill="rgb(0, 255, 0)" opacity="1.0" stroke="rgb(0, 255, 0)" stroke-opacity="1.0" stroke-linecap="round" stroke-linejoin="round"/>
    <path d="M 66.86538696289062 46.300254821777344 C 66.88179016113281 46.29709243774414 65.81647491455078 45.889305114746094 67.0306167602539 45.256263732910156 C 75.72211456298828 46.94429397583008 83.52021026611328 54.64463424682617 82.6058578491211 66.12068176269531 C 80.63959503173828 72.89594268798828 81.55347442626953 73.01325225830078 82.77715301513672 71.57315063476562 C 84.85983276367188 70.40132141113281 87.69902801513672 69.88775634765625 90.69255065917969 70.06646728515625 C 94.1759033203125 69.97281646728516 97.42678833007812 71.0540771484375 100.4927978515625 73.92681884765625 C 103.78955078125 76.4968032836914 106.0047607421875 79.26655578613281 106.94402313232422 83.33065795898438 C 108.03868865966797 86.73175048828125 108.53739166259766 89.77044677734375 107.06539154052734 94.3150405883789 C 105.58766174316406 98.47445678710938 104.32194519042969 101.26934051513672 100.57611083984375 104.26681518554688 C 96.63370513916016 106.84795379638672 94.35480499267578 107.73129272460938 90.19105529785156 107.95278930664062 C 85.76504516601562 108.09894561767578 83.70470428466797 107.05931091308594 80.29983520507812 105.22940063476562 C 75.97313690185547 103.43634796142578 74.22050476074219 101.00753021240234 72.6296157836914 97.4947738647461 C 70.24919891357422 93.40914916992188 70.346923828125 88.47956848144531 71.41352844238281 83.78952026367188 C 71.03520965576172 81.32418060302734 71.7248764038086 80.21593475341797 70.0407485961914 81.62410736083984 C 59.82220458984375 84.87196350097656 49.63206100463867 80.84028625488281 46.03325271606445 68.50016021728516 C 43.415889739990234 58.26183319091797 46.25722885131836 52.318023681640625 54.287391662597656 46.85672378540039 C 56.55797576904297 42.938926696777344 55.379180908203125 40.737125396728516 56.357242584228516 37.2675666809082 C 55.766178131103516 33.82744216918945 54.54300308227539 31.815948486328125 54.01986312866211 29.691753387451172 C 52.00483703613281 27.699115753173828 50.18381881713867 26.749755859375 47.6300163269043 26.340988159179688 C 42.919769287109375 26.436981201171875 40.32903289794922 26.97635841369629 39.31355667114258 26.92188262939453 C 36.561973571777344 25.828168869018555 33.509124755859375 24.135927200317383 30.530677795410156 22.63751983642578" stroke-width="2.0" fill="rgb(0, 0, 255)" opacity="1.0" stroke="rgb(0, 0, 255)" stroke-opacity="1.0" stroke-linecap="round" stroke-linejoin="round"/>
  </g>
</svg>
