<?xml version="1.0" ?>
<svg xmlns="http://www.w3.org/2000/svg" version="1.1" width="128" height="128">
  <defs/>
  <g>
    <path d="M 62.10449981689453 49.47347640991211 C 62.14886474609375 49.45610046386719 60.991249084472656 49.01998519897461 63.85793685913086 48.481903076171875 C 76.73988342285156 50.78115463256836 84.74977111816406 60.09651565551758 74.86600494384766 74.35893249511719 C 64.90609741210938 87.02630615234375 65.31304168701172 93.33440399169922 67.17154693603516 93.14128112792969 C 69.51427459716797 89.54712677001953 74.9552993774414 84.00565338134766 81.6164779663086 77.76972198486328 C 87.42325592041016 71.96884155273438 89.73564147949219 67.61708068847656 90.17044067382812 66.13861083984375 C 92.20584106445312 65.63003540039062 95.27738952636719 67.02600860595703 98.09032440185547 70.35197448730469 C 100.98949432373047 73.30532836914062 102.91685485839844 75.59019470214844 102.81505584716797 77.86671447753906 C 102.56428527832031 79.15406799316406 101.04249572753906 80.32196807861328 94.53715515136719 86.05279541015625 C 87.31340026855469 93.66966247558594 83.78504180908203 98.55729675292969 80.18144989013672 102.04518127441406 C 77.93949127197266 103.82560729980469 77.2989730834961 102.90261840820312 73.49433135986328 100.23619079589844 C 68.29008483886719 97.34009552001953 66.5895767211914 94.1860580444336 66.18069458007812 90.24197387695312 C 66.82572937011719 85.93797302246094 70.28589630126953 81.50696563720703 72.29205322265625 78.24459075927734 C 70.38188934326172 77.92070770263672 68.54364776611328 78.92189025878906 63.06942367553711 79.86129760742188 C 51.5684814453125 77.89183807373047 46.160335540771484 69.08324432373047 48.85041046142578 59.01387023925781 C 51.0648078918457 54.217708587646484 52.939151763916016 52.746482849121094 55.37980651855469 51.06572341918945 C 53.31937026977539 49.73667526245117 49.0284309387207 50.00901794433594 45.26057815551758 48.802059173583984 C 41.30177307128906 45.86212921142578 40.405155181884766 43.053924560546875 41.69118118286133 39.30226516723633 C 41.095237731933594 36.00398635864258 39.90898513793945 35.33720397949219 37.08534622192383 36.70530319213867 C 32.88612365722656 39.71013259887695 31.234272003173828 43.312591552734375 27.386924743652344 46.25638961791992 C 19.895885467529297 48.184303283691406 14.237601280212402 48.62907409667969 10.77443790435791 47.515960693359375" stroke-width="2.0" fill="rgb(252, 194, 27)" opacity="1.0" stroke="rgb(252, 194, 27)" stroke-opacity="1.0" stroke-linecap="round" stroke-linejoin="round"/>
    <path d="M 63.540733337402344 32.44939041137695 C 63.53858947753906 32.44964599609375 63.545654296875 32.44164276123047 63.88140106201172 32.502891540527344 C 64.28392028808594 33.11309814453125 62.77946472167969 35.194923400878906 58.711463928222656 39.08216857910156 C 54.25271987915039 43.44264602661133 51.41599655151367 46.79400634765625 51.747291564941406 48.0290412902832 C 54.851097106933594 47.278682708740234 57.8984375 46.290401458740234 61.637149810791016 45.8339729309082 C 67.24600982666016 45.280818939208984 72.1324462890625 46.584266662597656 76.0159683227539 50.024864196777344 C 80.10301208496094 53.66578674316406 82.17852783203125 57.734901428222656 81.92788696289062 62.09881591796875 C 82.25874328613281 64.69886016845703 82.63201904296875 66.51410675048828 82.19408416748047 68.82821655273438 C 83.65196228027344 69.94945526123047 85.76773834228516 70.11314392089844 84.7179183959961 71.52700805664062 C 82.1177749633789 74.06598663330078 79.30770874023438 77.70101928710938 73.8983154296875 82.51130676269531 C 69.45664978027344 86.31290435791016 69.53487396240234 87.41661834716797 70.70137786865234 86.91707611083984 C 71.15199279785156 85.27528381347656 72.2543716430664 82.7370834350586 72.05452728271484 80.93206024169922 C 70.12761688232422 80.54717254638672 69.07335662841797 80.29489135742188 67.59662628173828 80.80610656738281 C 65.21756744384766 82.30714416503906 63.34309387207031 82.38487243652344 58.294212341308594 80.8968276977539 C 49.18269729614258 77.70203399658203 44.607173919677734 70.17566680908203 46.61147689819336 60.67643356323242 C 48.324562072753906 54.94925308227539 49.68818664550781 51.8780403137207 52.98663330078125 48.10907745361328 C 53.35651397705078 45.47174835205078 51.21651077270508 45.402523040771484 49.821170806884766 45.636451721191406 C 47.896697998046875 46.86235427856445 46.865074157714844 49.60940933227539 45.824222564697266 52.07661819458008 C 42.30293273925781 55.31389617919922 38.587554931640625 59.517696380615234 35.7824592590332 62.12831115722656 C 33.71323013305664 63.4056282043457 33.321842193603516 64.0071792602539 33.46054458618164 63.26502227783203 C 33.06910705566406 61.08452606201172 32.746212005615234 58.393287658691406 31.73463249206543 54.11573791503906" stroke-width="2.0" fill="rgb(255, 0, 0)" opacity="1.0" stroke="rgb(255, 0, 0)" stroke-opacity="1.0" stroke-linecap="round" stroke-linejoin="round"/>
    <path d="M 64.35536193847656 32.56718063354492 C 64.34530639648438 32.56792068481445 64.3570327758789 32.56210708618164 64.66703796386719 32.639217376708984 C 65.03944396972656 33.27431106567383 63.56711196899414 35.3526496887207 59.53307342529297 39.14631271362305 C 54.985260009765625 43.32876205444336 52.30374526977539 46.30071258544922 52.845054626464844 47.15201950073242 C 56.08618927001953 46.18756866455078 59.260780334472656 45.2837028503418 62.985530853271484 45.030582427978516 C 68.28581237792969 44.694114685058594 72.99600219726562 46.31222152709961 76.56982421875 49.95976638793945 C 80.39542388916016 53.491573333740234 82.59881591796875 57.29792785644531 82.58688354492188 61.74626159667969 C 82.85576629638672 64.80509185791016 83.1654281616211 67.05890655517578 82.95885467529297 69.61067962646484 C 84.59712982177734 70.69287109375 86.37335968017578 70.81645202636719 84.58853149414062 72.599365234375 C 81.07434844970703 75.85504913330078 77.74638366699219 80.06040954589844 72.20494079589844 84.8154296875 C 67.64046478271484 88.53883361816406 67.63023376464844 89.57980346679688 68.83496856689453 89.0010757446289 C 69.68668365478516 87.19490814208984 71.51689147949219 84.3978042602539 72.03084564208984 82.15214538574219 C 70.16799926757812 81.44129943847656 68.9394760131836 81.15242004394531 67.42335510253906 81.5057373046875 C 64.85962677001953 82.7602767944336 63.358558654785156 82.74917602539062 59.17308807373047 81.69172668457031 C 50.103843688964844 79.18025970458984 44.91375732421875 72.03926086425781 45.72263717651367 62.31410598754883 C 46.6108512878418 56.39106369018555 48.34810256958008 53.20832824707031 51.983402252197266 49.517974853515625 C 52.66584777832031 46.88328552246094 51.357582092285156 46.5125732421875 50.446571350097656 46.566368103027344 C 48.8220329284668 47.93461227416992 47.977561950683594 50.451942443847656 46.52208709716797 52.6347541809082 C 42.47792053222656 55.912147521972656 38.83876037597656 60.12834548950195 36.08407974243164 62.74759292602539 C 34.16769027709961 63.94551086425781 33.85719299316406 64.27643585205078 33.42710494995117 63.324886322021484 C 32.46282958984375 61.08240509033203 32.067813873291016 58.28371047973633 30.81400489807129 53.97333526611328" stroke-width="2.0" fill="rgb(0, 255, 0)" opacity="1.0" stroke="rgb(0, 255, 0)" stroke-opacity="1.0" stroke-linecap="round" stroke-linejoin="round"/>
    <path d="M 72.50213623046875 47.557228088378906 C 72.50736236572266 47.539180755615234 71.7978744506836 47.309547424316406 72.41584777832031 47.338462829589844 C 77.51272583007812 49.40799331665039 82.4344253540039 55.44910430908203 82.43946838378906 64.36518859863281 C 82.07349395751953 70.7799072265625 83.07666778564453 71.73377990722656 84.68675994873047 70.06268310546875 C 87.35617065429688 67.6125717163086 88.92757415771484 65.95538330078125 89.35929107666016 65.48819732666016 C 90.65091705322266 64.57880401611328 92.46017456054688 64.33997344970703 94.80829620361328 65.97368621826172 C 97.92233276367188 67.85657501220703 100.56443786621094 70.18819427490234 102.49857330322266 73.89602661132812 C 104.46890258789062 77.01663208007812 105.02022552490234 78.81702423095703 102.01663970947266 81.21646118164062 C 97.55096435546875 85.12913513183594 93.60748291015625 90.14273071289062 87.45140838623047 96.11283111572266 C 82.22012329101562 101.11906433105469 80.88383483886719 103.3298110961914 79.05567169189453 104.03465270996094 C 76.29427337646484 104.1114730834961 74.61030578613281 102.75806427001953 71.37471008300781 100.17070007324219 C 67.12271118164062 97.2818832397461 65.44416046142578 94.00444030761719 64.96846008300781 90.54353332519531 C 65.70834350585938 87.76264953613281 69.15361785888672 84.63472747802734 70.17932891845703 82.0511245727539 C 66.55988311767578 82.54808807373047 63.609046936035156 83.31415557861328 57.21342468261719 81.3172836303711 C 45.4866943359375 75.29199981689453 41.907081604003906 64.23269653320312 48.162437438964844 52.745033264160156 C 53.165401458740234 44.51812744140625 58.40324020385742 39.36643981933594 64.16517639160156 35.2120475769043 C 64.14486694335938 32.827388763427734 62.02419662475586 32.60926818847656 60.1435546875 32.05375671386719 C 55.68015670776367 30.75665283203125 49.04170227050781 29.62704849243164 39.70362091064453 27.907363891601562 C 30.125045776367188 25.83495330810547 25.76373291015625 24.55082893371582 25.330923080444336 24.33338737487793 C 25.47674560546875 25.74932861328125 26.528057098388672 29.14788055419922 27.888694763183594 33.88396453857422 C 28.53565216064453 39.53776168823242 29.195886611938477 44.479984283447266 27.05223274230957 45.831138610839844" stroke-width="2.0" fill="rgb(0, 0, 255)" opacity="1.0" stroke="rgb(0, 0, 255)" stroke-opacity="1.0" stroke-linecap="round" stroke-linejoin="round"/>
  </g>
</svg>
