<?xml version="1.0" ?>
<svg xmlns="http://www.w3.org/2000/svg" version="1.1" width="128" height="128">
  <defs/>
  <g>
    <path d="M 117.9435806274414 28.742551803588867 C 117.94896697998047 28.743736267089844 117.8731918334961 28.688140869140625 118.13219451904297 28.922569274902344 C 118.98817443847656 30.07785415649414 119.54696655273438 32.166412353515625 119.52799224853516 36.05518341064453 C 119.55023193359375 41.896446228027344 119.55593872070312 48.233516693115234 119.57537841796875 53.29281997680664 C 119.74452209472656 56.07191848754883 119.67625427246094 57.38697814941406 119.44416046142578 58.76566696166992 C 119.39328002929688 60.832706451416016 119.52074432373047 64.15184783935547 119.56143951416016 70.47601318359375 C 119.48267364501953 78.27928161621094 119.36353302001953 84.64249420166016 119.36498260498047 90.06478881835938 C 119.67857360839844 94.34724426269531 119.4544448852539 96.55805969238281 117.96063995361328 97.56556701660156 C 115.83815002441406 98.50943756103516 112.87393188476562 98.70514678955078 107.34223937988281 98.62757110595703 C 100.30077362060547 98.67044830322266 88.3321304321289 98.83053588867188 63.108829498291016 98.97126770019531 C 39.39515686035156 98.54573059082031 29.2819881439209 98.31854248046875 20.93344497680664 98.57048034667969 C 13.411500930786133 98.76470184326172 9.780397415161133 97.50675201416016 8.579450607299805 92.4173355102539 C 7.995412826538086 86.09453582763672 8.223443984985352 82.47119140625 8.929126739501953 80.9773941040039 C 9.240447044372559 83.78103637695312 10.064164161682129 91.17234802246094 12.441521644592285 96.10580444335938 C 15.756549835205078 97.11885833740234 18.472654342651367 95.94187927246094 20.01144027709961 89.6911392211914 C 21.10209846496582 79.79644012451172 20.86861801147461 72.59020233154297 18.307907104492188 66.04833221435547 C 15.877776145935059 58.94014358520508 15.643146514892578 54.63465118408203 16.930404663085938 49.13637924194336 C 18.1719970703125 41.5439567565918 22.875391006469727 36.701873779296875 35.474002838134766 33.355384826660156 C 50.90311813354492 29.86528205871582 59.760475158691406 28.511674880981445 53.83347702026367 28.37755012512207 C 33.441402435302734 28.64419937133789 17.55598258972168 29.60919189453125 11.22622013092041 29.69452667236328 C 9.641717910766602 30.14588165283203 10.693029403686523 36.11993408203125 11.156355857849121 51.252113342285156" stroke-width="2.0" fill="rgb(252, 194, 27)" opacity="1.0" stroke="rgb(252, 194, 27)" stroke-opacity="1.0" stroke-linecap="round" stroke-linejoin="round"/>
    <path d="M 87.47136688232422 69.086181640625 C 87.48908233642578 69.08011627197266 87.36854553222656 68.61968994140625 88.34437561035156 67.71985626220703 C 90.39566802978516 69.33934783935547 89.80330657958984 76.59760284423828 89.19891357421875 85.53470611572266 C 93.44772338867188 89.63615417480469 97.73542785644531 88.55004119873047 98.91252899169922 84.38307189941406 C 98.82657623291016 78.18364715576172 98.1695327758789 72.1754150390625 98.53764343261719 68.86973571777344 C 102.05233764648438 67.56507110595703 106.40203857421875 67.03024291992188 109.22222137451172 67.74821472167969 C 110.95279693603516 69.82281494140625 111.61090087890625 73.26921844482422 111.44026947021484 77.87429809570312 C 111.67060852050781 82.38275146484375 111.7154769897461 85.85037994384766 110.79285430908203 88.57833099365234 C 109.27680969238281 90.75958251953125 106.37345123291016 91.04219818115234 101.83930969238281 89.42443084716797 C 97.38041687011719 87.77955627441406 91.21604919433594 88.68826293945312 83.34051513671875 90.52993774414062 C 78.2852554321289 89.41525268554688 75.03022003173828 86.72822570800781 69.47526550292969 86.9673080444336 C 62.03829574584961 90.5610580444336 56.605308532714844 92.017822265625 55.407352447509766 88.63819885253906 C 55.58606719970703 82.2009506225586 55.54729080200195 76.14290618896484 55.255218505859375 72.04337310791016 C 52.0150032043457 69.83363342285156 46.41880798339844 69.1019515991211 41.3891716003418 68.73571014404297 C 36.72201919555664 68.63208770751953 33.75790786743164 69.566162109375 31.89731788635254 69.888671875 C 28.987285614013672 68.8745346069336 26.032899856567383 69.34479522705078 23.271343231201172 70.31785583496094 C 20.598085403442383 69.69474792480469 19.512916564941406 68.99137878417969 19.30361557006836 68.275390625 C 18.29537010192871 67.00468444824219 16.67410659790039 66.57855224609375 14.422829627990723 66.62896728515625 C 12.124666213989258 65.6825180053711 10.621854782104492 64.71672058105469 9.268046379089355 64.11075592041016 C 8.127901077270508 63.37979507446289 7.945827007293701 63.73088073730469 8.125261306762695 65.03388214111328 C 7.94888162612915 66.2330093383789 7.880370616912842 67.03556060791016 8.026548385620117 66.19513702392578" stroke-width="2.0" fill="rgb(255, 0, 0)" opacity="1.0" stroke="rgb(255, 0, 0)" stroke-opacity="1.0" stroke-linecap="round" stroke-linejoin="round"/>
    <path d="M 88.19127655029297 68.24353790283203 C 88.22087860107422 68.24284362792969 88.0894546508789 67.7479248046875 89.15446472167969 66.68876647949219 C 91.38375854492188 67.89199829101562 90.9287109375 75.1078872680664 90.48833465576172 84.93122863769531 C 94.8404312133789 89.86956787109375 98.16700744628906 88.9197769165039 98.17244720458984 84.4888916015625 C 97.93111419677734 78.08658599853516 97.69818878173828 71.9272689819336 98.44402313232422 68.2819595336914 C 102.08938598632812 66.7396469116211 106.29438018798828 66.18029022216797 109.21527862548828 66.82984924316406 C 111.4236068725586 68.59595489501953 112.41019439697266 71.68025207519531 112.38658142089844 76.45340728759766 C 112.65723419189453 81.3702163696289 112.61138916015625 85.18228912353516 111.8100814819336 88.32128143310547 C 110.74300384521484 90.91749572753906 107.87776947021484 91.94332122802734 102.97761535644531 91.04735565185547 C 98.4732894897461 89.22366333007812 92.64427947998047 89.2286376953125 84.83323669433594 91.29332733154297 C 79.48107147216797 91.35035705566406 76.22796630859375 88.95030212402344 70.72008514404297 88.12632751464844 C 62.52564239501953 91.15533447265625 55.87411117553711 92.76241302490234 54.14006042480469 88.63158416748047 C 54.95188522338867 80.69046020507812 55.510894775390625 74.138427734375 52.48527145385742 70.34764862060547 C 44.281673431396484 68.48147583007812 36.33211898803711 68.72447204589844 33.18510437011719 70.57131958007812 C 32.952903747558594 73.19099426269531 33.885955810546875 77.7843246459961 34.84342575073242 82.69537353515625 C 33.36532974243164 85.2176742553711 30.44915199279785 86.2841567993164 27.082582473754883 85.19530487060547 C 23.15296745300293 81.43377685546875 21.100688934326172 77.70426940917969 20.99669647216797 73.76419067382812 C 20.265010833740234 69.2748031616211 18.462556838989258 67.16282653808594 16.08863067626953 66.7562484741211 C 13.46965217590332 66.10836791992188 11.353711128234863 65.85520935058594 9.799544334411621 65.55381774902344 C 8.870255470275879 64.91767120361328 8.750677108764648 65.71407318115234 8.649298667907715 68.04084014892578 C 8.001383781433105 70.72893524169922 7.672821998596191 71.99617004394531 8.10594654083252 70.0722427368164" stroke-width="2.0" fill="rgb(0, 255, 0)" opacity="1.0" stroke="rgb(0, 255, 0)" stroke-opacity="1.0" stroke-linecap="round" stroke-linejoin="round"/>
    <path d="M 118.56524658203125 29.008615493774414 C 118.57157135009766 29.006376266479492 118.50074005126953 28.945377349853516 118.78594970703125 29.15389633178711 C 119.54116821289062 30.31523323059082 119.84980010986328 32.37329864501953 119.66063690185547 36.393287658691406 C 119.72872924804688 42.13239669799805 119.7232666015625 48.03858947753906 119.6641616821289 52.61579513549805 C 119.85478210449219 55.022987365722656 119.87825012207031 56.15180587768555 119.74989318847656 57.59797668457031 C 119.71343994140625 59.73353576660156 119.70718383789062 62.53632354736328 119.67259979248047 68.0163345336914 C 119.6711196899414 75.87303161621094 119.60617065429688 82.69280242919922 119.56623077392578 88.69525146484375 C 119.78641510009766 93.64517974853516 119.44869232177734 96.29624938964844 117.91096496582031 97.50650787353516 C 115.82119750976562 98.48046875 112.74913787841797 98.67267608642578 106.9307632446289 98.61367797851562 C 99.5737075805664 98.66038513183594 87.15257263183594 98.84537506103516 61.56564712524414 99.05229949951172 C 37.85706329345703 98.63467407226562 27.88057518005371 98.31462097167969 20.460962295532227 98.44361114501953 C 13.76982593536377 98.86907196044922 10.064544677734375 98.55628967285156 8.38642406463623 94.82398223876953 C 7.542016506195068 89.08038330078125 7.78113317489624 84.91729736328125 8.633298873901367 82.83428955078125 C 9.103657722473145 85.25576782226562 10.005561828613281 92.20706176757812 12.51441764831543 96.71795654296875 C 16.034114837646484 97.51396179199219 18.791667938232422 96.2068099975586 20.244413375854492 90.24832153320312 C 21.214157104492188 81.16165924072266 20.939441680908203 74.35249328613281 18.22879981994629 67.2247314453125 C 15.50094223022461 59.19572830200195 15.255093574523926 54.28628158569336 16.894872665405273 48.40811538696289 C 18.678258895874023 40.92660903930664 23.872900009155273 36.36336135864258 37.047874450683594 33.169193267822266 C 52.676368713378906 29.816852569580078 60.06111145019531 28.348451614379883 51.30939483642578 27.777456283569336 C 30.247299194335938 27.868927001953125 16.144620895385742 28.624475479125977 10.862275123596191 28.53516960144043 C 9.50674819946289 29.13190269470215 10.438530921936035 35.607662200927734 10.637520790100098 51.29271697998047" stroke-width="2.0" fill="rgb(0, 0, 255)" opacity="1.0" stroke="rgb(0, 0, 255)" stroke-opacity="1.0" stroke-linecap="round" stroke-linejoin="round"/>
  </g>
</svg>
