<?xml version="1.0" ?>
<svg xmlns="http://www.w3.org/2000/svg" version="1.1" width="128" height="128">
  <defs/>
  <g>
    <path d="M 98.06599426269531 33.127445220947266 C 98.06117248535156 33.13914489746094 98.14198303222656 33.12672805786133 98.31852722167969 33.208316802978516 C 98.21311950683594 33.7535285949707 97.92257690429688 35.140628814697266 98.71851348876953 37.34254455566406 C 100.15911865234375 39.3916015625 99.58367919921875 40.766510009765625 95.83564758300781 42.26104736328125 C 90.20586395263672 44.32541275024414 84.16941833496094 47.67685317993164 79.3328857421875 52.362701416015625 C 76.45420837402344 56.44228744506836 73.54918670654297 60.47944641113281 70.93305969238281 64.98262023925781 C 69.88162231445312 67.57714080810547 65.7472915649414 69.54495239257812 57.86030578613281 73.47123718261719 C 53.78398895263672 77.0916976928711 53.53900909423828 80.70069122314453 52.873172760009766 85.4760971069336 C 51.9744758605957 89.48831176757812 49.85055923461914 92.79133605957031 45.74175262451172 96.86593627929688 C 43.20905685424805 100.94234466552734 42.45535659790039 103.4921875 40.14878463745117 103.96405792236328 C 36.832618713378906 103.51850128173828 36.11213684082031 103.13861083984375 37.68764877319336 102.7401123046875 C 38.82005310058594 102.31454467773438 39.90044021606445 101.03124237060547 41.611663818359375 98.69307708740234 C 43.420589447021484 96.35429382324219 46.30923080444336 93.3255615234375 50.80537796020508 88.86251831054688 C 54.56284713745117 84.32012176513672 55.26143264770508 80.102294921875 51.3789176940918 74.74124145507812 C 45.587955474853516 68.552978515625 43.2928466796875 63.605255126953125 41.11520767211914 62.06893539428711 C 34.94020080566406 62.92433166503906 27.79328155517578 64.53592681884766 20.870594024658203 65.8590316772461 C 14.799778938293457 67.16143798828125 10.79614543914795 64.56118774414062 8.959295272827148 53.286102294921875 C 8.797959327697754 38.79405975341797 11.730114936828613 32.53046798706055 27.29764175415039 33.70969009399414 C 65.3208999633789 34.596168518066406 92.09038543701172 31.561742782592773 96.45465850830078 28.1319580078125 C 92.99971008300781 28.506521224975586 88.70022583007812 32.188358306884766 83.5762710571289 36.93230438232422 C 80.0861587524414 40.76403045654297 79.47280883789062 42.634639739990234 79.53298950195312 43.01728820800781" stroke-width="2.0" fill="rgb(252, 194, 27)" opacity="1.0" stroke="rgb(252, 194, 27)" stroke-opacity="1.0" stroke-linecap="round" stroke-linejoin="round"/>
    <path d="M 92.6320571899414 44.70939254760742 C 92.62311553955078 44.710723876953125 92.82975006103516 44.66980743408203 93.30939483642578 44.52823257446289 C 93.24726104736328 44.93876266479492 91.11616516113281 47.0594367980957 86.9070816040039 51.334815979003906 C 82.08059692382812 56.02435302734375 77.36389923095703 60.21607208251953 74.60823822021484 64.42113494873047 C 74.81639099121094 68.84046173095703 74.84407043457031 74.3064193725586 72.5486068725586 80.66265106201172 C 68.7085952758789 85.70637512207031 62.99454879760742 90.79013061523438 56.59267044067383 97.06851196289062 C 50.8918571472168 102.9297103881836 45.52840805053711 108.27935791015625 40.641510009765625 113.02559661865234 C 37.48408126831055 116.28008270263672 35.07017517089844 117.96464538574219 31.855138778686523 118.5571060180664 C 28.920381546020508 118.11903381347656 26.910743713378906 116.19342803955078 22.950963973999023 111.92849731445312 C 16.010278701782227 105.68437194824219 11.826997756958008 101.03013610839844 9.957335472106934 98.8064193725586 C 8.992531776428223 96.9804458618164 9.294061660766602 94.57809448242188 10.15616512298584 91.94538879394531 C 11.091952323913574 89.21002197265625 13.148146629333496 86.99897003173828 17.2630558013916 88.45744323730469 C 23.03586769104004 95.42523956298828 29.500469207763672 102.20503997802734 34.530818939208984 104.96974182128906 C 37.06325149536133 105.38062286376953 39.76608657836914 104.4961929321289 44.02402877807617 102.07703399658203 C 48.38393783569336 98.23148345947266 52.06883239746094 93.76390838623047 55.08756637573242 89.24468231201172 C 55.71857452392578 85.0697021484375 52.04612731933594 80.52156829833984 45.25764846801758 75.17253112792969 C 39.842952728271484 70.40000915527344 37.72149658203125 67.63285064697266 36.98967742919922 66.25039672851562 C 37.05442428588867 65.96971893310547 37.80329132080078 66.81877899169922 35.64876174926758 69.6804428100586 C 29.57178497314453 75.01802825927734 23.539804458618164 81.05855560302734 18.777259826660156 85.8818359375 C 15.342826843261719 88.16853332519531 13.713024139404297 88.14073181152344 14.268965721130371 86.20805358886719 C 18.675003051757812 81.74916076660156 27.60947608947754 73.39948272705078 38.73472595214844 62.87641525268555" stroke-width="2.0" fill="rgb(255, 0, 0)" opacity="1.0" stroke="rgb(255, 0, 0)" stroke-opacity="1.0" stroke-linecap="round" stroke-linejoin="round"/>
    <path d="M 91.6839828491211 45.54951477050781 C 91.67520904541016 45.54794692993164 91.8880844116211 45.49263000488281 92.39077758789062 45.34700012207031 C 92.26032257080078 45.81233596801758 90.03404998779297 48.076351165771484 85.94377899169922 52.41999435424805 C 81.12873077392578 56.85961151123047 76.51793670654297 60.854366302490234 74.29911041259766 65.0875473022461 C 74.86830139160156 69.5169906616211 74.79289245605469 75.00830078125 72.02483367919922 81.233154296875 C 67.74052429199219 86.43106079101562 62.15005874633789 91.65409851074219 55.82734298706055 97.95848846435547 C 50.09770965576172 103.84557342529297 44.84861373901367 109.09739685058594 40.217796325683594 113.6364517211914 C 37.200889587402344 116.68399047851562 34.77771759033203 118.23186492919922 31.68309783935547 118.73918151855469 C 28.79060173034668 118.27735900878906 26.79582405090332 116.38863372802734 22.90532875061035 112.183349609375 C 15.938383102416992 105.9178237915039 11.728955268859863 101.07025146484375 9.866555213928223 98.75385284423828 C 8.908665657043457 96.94770050048828 9.267500877380371 94.4984359741211 10.205805778503418 91.8028793334961 C 11.170042037963867 88.94738006591797 13.330365180969238 86.71018981933594 17.680572509765625 88.62226104736328 C 23.554718017578125 96.02500915527344 29.842605590820312 102.63592529296875 34.554237365722656 105.1500473022461 C 36.86806106567383 105.58792877197266 39.50039291381836 104.73768615722656 43.597469329833984 102.15574645996094 C 47.7889404296875 98.14195251464844 51.46050262451172 93.6922836303711 54.516632080078125 89.2634048461914 C 55.33116912841797 85.34191131591797 52.16512680053711 81.0912094116211 45.784034729003906 75.83341979980469 C 40.56874465942383 70.93904876708984 38.591835021972656 67.96497344970703 37.7634162902832 66.3264389038086 C 37.568050384521484 65.83029174804688 38.18627166748047 66.54137420654297 36.30400848388672 69.1885757446289 C 30.732887268066406 74.13916778564453 24.754348754882812 79.89636993408203 19.714765548706055 84.94989013671875 C 16.11038589477539 88.00861358642578 14.376489639282227 88.73001861572266 14.34496784210205 87.24459838867188 C 17.60856056213379 83.34571838378906 25.73634147644043 75.77257537841797 36.56324005126953 65.36426544189453" stroke-width="2.0" fill="rgb(0, 255, 0)" opacity="1.0" stroke="rgb(0, 255, 0)" stroke-opacity="1.0" stroke-linecap="round" stroke-linejoin="round"/>
    <path d="M 88.74015045166016 48.22390365600586 C 88.72209167480469 48.21976852416992 88.99242401123047 48.12889099121094 89.5325927734375 47.95400619506836 C 88.9065170288086 48.82670593261719 85.91032409667969 51.92088317871094 81.69749450683594 56.22987365722656 C 77.4644546508789 59.89396286010742 74.64117431640625 63.25242614746094 74.15116882324219 67.65769958496094 C 75.1030502319336 72.70862579345703 73.97502136230469 78.42180633544922 69.61095428466797 84.25401306152344 C 64.56279754638672 89.41209411621094 59.3875732421875 94.78839111328125 52.86264419555664 101.01439666748047 C 47.4951057434082 106.32953643798828 43.78125762939453 110.47960662841797 40.07118606567383 114.01822662353516 C 37.2353630065918 116.5823745727539 35.11190414428711 118.05581665039062 32.02875900268555 118.67220306396484 C 28.9420223236084 118.45785522460938 27.435863494873047 117.08238220214844 24.739707946777344 113.90641784667969 C 18.422513961791992 108.23974609375 13.103833198547363 102.08997344970703 10.46503734588623 98.74515533447266 C 9.2565279006958 96.70751190185547 9.483373641967773 94.1781997680664 10.458374977111816 91.31095886230469 C 11.612574577331543 88.20244598388672 13.932160377502441 86.1279296875 18.148653030395508 88.71373748779297 C 23.72817611694336 96.1536636352539 29.647302627563477 102.6240463256836 33.73709487915039 105.35233306884766 C 35.496925354003906 105.71865844726562 37.70083999633789 104.08526611328125 41.325347900390625 100.42832946777344 C 44.967369079589844 95.9297103881836 48.68568420410156 91.70629119873047 52.31624984741211 87.84854125976562 C 54.568138122558594 84.86126708984375 53.94776153564453 82.02141571044922 48.788997650146484 77.84029388427734 C 42.476600646972656 72.75989532470703 39.32981491088867 68.58329772949219 37.505088806152344 65.89620208740234 C 36.593326568603516 64.75508880615234 38.00041961669922 65.05077362060547 38.35450744628906 66.6971664428711 C 34.61806869506836 70.28387451171875 28.683536529541016 76.00053405761719 23.10774040222168 81.82584381103516 C 19.234424591064453 85.46147918701172 17.13990592956543 86.51830291748047 16.34712028503418 85.27864074707031 C 19.06929588317871 81.59422302246094 26.609498977661133 74.68395233154297 36.236663818359375 65.0799789428711" stroke-width="2.0" fill="rgb(0, 0, 255)" opacity="1.0" stroke="rgb(0, 0, 255)" stroke-opacity="1.0" stroke-linecap="round" stroke-linejoin="round"/>
  </g>
</svg>
