<?xml version="1.0" ?>
<svg xmlns="http://www.w3.org/2000/svg" version="1.1" width="128" height="128">
  <defs/>
  <g>
    <path d="M 109.4576644897461 50.99561309814453 C 109.4658203125 50.98810577392578 109.35720825195312 50.75935745239258 109.25416564941406 50.355018615722656 C 109.56700897216797 51.10795974731445 110.63365173339844 54.022857666015625 112.52784729003906 58.09463882446289 C 114.50444030761719 61.13847732543945 115.42852783203125 62.24043273925781 115.66339874267578 62.784034729003906 C 115.79119110107422 64.506591796875 115.16517639160156 67.34412384033203 114.04283905029297 71.01805114746094 C 113.83041381835938 74.25653076171875 113.52018737792969 76.77124786376953 111.64817810058594 80.71964263916016 C 109.45020294189453 85.74258422851562 107.07808685302734 90.14397430419922 103.02693176269531 94.80677032470703 C 98.96691131591797 99.65858459472656 95.20438385009766 103.0728988647461 90.32384490966797 105.55709075927734 C 87.11268615722656 107.4325942993164 85.22305297851562 108.39246368408203 80.78978729248047 109.95367431640625 C 77.5162124633789 111.93281555175781 74.46539306640625 112.91747283935547 66.42375183105469 113.48180389404297 C 59.50014877319336 113.94275665283203 55.99859619140625 113.26110076904297 49.307151794433594 111.54926300048828 C 42.24846649169922 109.6928482055664 38.657958984375 107.35865783691406 34.24655532836914 103.7652816772461 C 27.653797149658203 99.26099395751953 22.29697036743164 93.4634017944336 18.359174728393555 85.53260040283203 C 15.394309043884277 78.31758117675781 14.149738311767578 75.32127380371094 13.083639144897461 71.46527862548828 C 11.844442367553711 65.47977447509766 11.987518310546875 62.481136322021484 12.57107925415039 58.60805130004883 C 11.910964012145996 53.18159103393555 11.986846923828125 50.336734771728516 14.033942222595215 46.968345642089844 C 16.101665496826172 43.19921112060547 18.547040939331055 43.443511962890625 24.816499710083008 45.193267822265625 C 33.043914794921875 45.90134048461914 45.693912506103516 47.093441009521484 68.66578674316406 46.51194381713867 C 88.24015045166016 45.411476135253906 97.19741821289062 46.0843391418457 99.56340026855469 43.8353385925293 C 95.8961410522461 37.50666046142578 88.84996795654297 32.9926643371582 84.84760284423828 31.519550323486328 C 86.7993392944336 31.396821975708008 92.04804992675781 32.649662017822266 95.66523742675781 34.37150573730469" stroke-width="2.0" fill="rgb(252, 194, 27)" opacity="1.0" stroke="rgb(252, 194, 27)" stroke-opacity="1.0" stroke-linecap="round" stroke-linejoin="round"/>
    <path d="M 95.64186096191406 28.0300235748291 C 95.64776611328125 28.026540756225586 95.4678955078125 27.9664363861084 95.32059478759766 28.408613204956055 C 96.34832000732422 31.456806182861328 100.13052368164062 37.37140655517578 105.15148162841797 42.099571228027344 C 108.45404815673828 43.17249298095703 109.61859130859375 43.328582763671875 110.72134399414062 44.388858795166016 C 112.18768310546875 45.565086364746094 112.99131774902344 46.72186279296875 113.63330841064453 48.380863189697266 C 114.51564025878906 50.42960739135742 114.3412094116211 52.7012939453125 113.17064666748047 55.075218200683594 C 112.68238830566406 57.52089309692383 113.12651824951172 59.41549301147461 113.62266540527344 61.133445739746094 C 113.71060180664062 62.18352508544922 113.19338989257812 61.85947036743164 112.00598907470703 61.44643783569336 C 110.28136444091797 61.71429443359375 107.05118560791016 61.92319869995117 101.47490692138672 61.958831787109375 C 94.97370910644531 62.196922302246094 88.22566986083984 62.284610748291016 80.28543090820312 62.091102600097656 C 71.47603607177734 61.79602813720703 61.259918212890625 61.95182418823242 50.18547058105469 62.1693229675293 C 41.13923645019531 62.19525146484375 34.83634948730469 62.062408447265625 29.714244842529297 61.977027893066406 C 24.40580177307129 61.82059097290039 21.048757553100586 61.9260139465332 19.885204315185547 60.948219299316406 C 18.479341506958008 60.147159576416016 18.183927536010742 61.389060974121094 18.524982452392578 61.74095153808594 C 16.440813064575195 60.77516555786133 15.095195770263672 59.871612548828125 15.81949234008789 55.9525260925293 C 15.71291732788086 50.72894287109375 16.432876586914062 46.01383972167969 19.534608840942383 38.517051696777344 C 21.159439086914062 30.869659423828125 23.403545379638672 28.05738639831543 32.20266342163086 27.338396072387695 C 43.75041198730469 26.164600372314453 51.19465255737305 25.56809425354004 56.05563735961914 24.197509765625 C 58.159812927246094 22.051715850830078 58.5191764831543 20.846189498901367 61.2249755859375 20.050495147705078 C 66.2209701538086 19.32691764831543 69.89281463623047 19.974035263061523 71.49138641357422 21.98098373413086 C 73.71062469482422 24.714263916015625 79.8726806640625 26.672887802124023 88.63525390625 26.268964767456055" stroke-width="2.0" fill="rgb(255, 0, 0)" opacity="1.0" stroke="rgb(255, 0, 0)" stroke-opacity="1.0" stroke-linecap="round" stroke-linejoin="round"/>
    <path d="M 94.97274017333984 26.951501846313477 C 94.97254943847656 26.953514099121094 94.81952667236328 26.871593475341797 94.54717254638672 27.171558380126953 C 95.23416900634766 29.85411262512207 98.84652709960938 35.74494552612305 104.30152130126953 41.5583381652832 C 108.01283264160156 43.425537109375 109.18016052246094 43.50836944580078 110.38566589355469 44.431854248046875 C 112.01502227783203 45.631309509277344 112.88031768798828 46.84544372558594 113.53640747070312 48.55403518676758 C 114.44427490234375 50.71645736694336 114.37245178222656 53.1771240234375 113.39925384521484 55.67658233642578 C 113.03718566894531 57.86351013183594 113.43486785888672 59.484920501708984 113.79522705078125 61.22938919067383 C 113.77254486083984 62.44023895263672 113.21186065673828 62.19504928588867 112.05137634277344 61.76656723022461 C 110.3288803100586 62.02886962890625 106.9482421875 62.17926025390625 101.33770751953125 62.047237396240234 C 95.07955932617188 62.18265914916992 88.37769317626953 62.32575225830078 79.859130859375 62.20376205444336 C 70.1588134765625 61.97137451171875 59.94912338256836 62.133358001708984 49.532657623291016 62.251922607421875 C 40.677711486816406 62.17973709106445 34.188201904296875 62.106136322021484 29.032556533813477 62.0503044128418 C 24.238662719726562 61.909515380859375 21.14263916015625 62.25366973876953 19.615522384643555 61.47943115234375 C 17.91345977783203 60.57725143432617 17.5567684173584 62.03281784057617 17.796449661254883 62.645381927490234 C 15.63078784942627 61.54216766357422 14.373690605163574 60.43611145019531 15.352656364440918 56.28342819213867 C 15.332076072692871 51.057098388671875 15.890024185180664 46.84804153442383 18.858596801757812 39.46958923339844 C 20.202959060668945 30.973085403442383 21.832944869995117 27.435583114624023 30.093286514282227 26.358726501464844 C 42.33028030395508 25.186431884765625 50.99724197387695 24.7242488861084 56.232540130615234 23.458038330078125 C 58.24409866333008 21.382051467895508 58.22653579711914 20.335390090942383 60.307289123535156 19.677753448486328 C 64.52544403076172 18.788969039916992 67.52742767333984 18.910932540893555 68.96953582763672 20.0472469329834 C 70.1860580444336 21.77587890625 73.34950256347656 24.458219528198242 80.83564758300781 25.980466842651367" stroke-width="2.0" fill="rgb(0, 255, 0)" opacity="1.0" stroke="rgb(0, 255, 0)" stroke-opacity="1.0" stroke-linecap="round" stroke-linejoin="round"/>
    <path d="M 111.67772674560547 57.11269760131836 C 111.68899536132812 57.103782653808594 111.65072631835938 56.98182678222656 111.7574462890625 57.01231002807617 C 111.83149719238281 57.90336990356445 111.9217300415039 59.05271530151367 113.13536071777344 60.01939392089844 C 115.15919494628906 60.595252990722656 116.01673126220703 60.58060836791992 116.27473449707031 60.940696716308594 C 116.79393768310547 62.571651458740234 116.52730560302734 65.78318786621094 115.40983581542969 70.78018951416016 C 114.5805892944336 75.9703369140625 113.40877532958984 80.03599548339844 111.00399017333984 84.35619354248047 C 108.9914779663086 89.10330200195312 106.68447875976562 92.91876220703125 102.15232849121094 97.43897247314453 C 98.1537857055664 102.03874969482422 94.89146423339844 104.8463363647461 90.39479064941406 107.02880859375 C 87.87944030761719 108.85585021972656 86.69517517089844 109.94501495361328 81.47879791259766 111.53748321533203 C 77.01725769042969 113.39193725585938 74.13020324707031 114.26950073242188 66.5395736694336 114.77112579345703 C 59.63589096069336 115.12660217285156 56.00493240356445 114.36476135253906 49.3971061706543 112.56316375732422 C 42.94178771972656 110.83789825439453 39.71841049194336 108.9767074584961 34.95732498168945 105.90454864501953 C 28.44120979309082 101.70207214355469 23.227773666381836 96.1681137084961 18.798580169677734 88.86050415039062 C 15.253913879394531 82.48412322998047 14.160730361938477 79.2831039428711 13.315084457397461 74.83094024658203 C 11.083260536193848 68.11822509765625 10.344252586364746 64.00222778320312 12.070995330810547 60.166656494140625 C 13.262051582336426 56.43735122680664 13.625306129455566 55.730621337890625 15.775955200195312 53.53595733642578 C 17.241342544555664 49.013031005859375 17.769241333007812 46.55192184448242 21.01096534729004 44.585845947265625 C 23.95747184753418 42.61079406738281 25.92598533630371 42.890560150146484 31.017864227294922 41.08191680908203 C 33.379730224609375 36.24283218383789 31.9080867767334 33.02956771850586 33.327518463134766 30.01592254638672 C 35.00865936279297 27.1344051361084 36.47357177734375 26.908222198486328 39.88224792480469 27.225738525390625 C 43.3134765625 26.49528694152832 51.025062561035156 25.84181785583496 64.56429290771484 24.804027557373047" stroke-width="2.0" fill="rgb(0, 0, 255)" opacity="1.0" stroke="rgb(0, 0, 255)" stroke-opacity="1.0" stroke-linecap="round" stroke-linejoin="round"/>
  </g>
</svg>
