<?xml version="1.0" ?>
<svg xmlns="http://www.w3.org/2000/svg" version="1.1" width="128" height="128">
  <defs/>
  <g>
    <path d="M 91.73052978515625 31.608102798461914 C 91.72032928466797 31.615814208984375 91.69097900390625 31.584449768066406 92.06470489501953 32.21635055541992 C 92.35737609863281 34.76881408691406 92.07007598876953 39.68207931518555 94.0343246459961 46.38088607788086 C 97.53958892822266 52.067501068115234 98.23777770996094 55.51626205444336 98.07886505126953 57.78261184692383 C 99.45536041259766 60.66693115234375 99.3311996459961 65.48435974121094 97.92894744873047 70.63121032714844 C 97.83267211914062 73.70087432861328 97.3004379272461 74.78324127197266 96.00537872314453 75.10870361328125 C 96.71836853027344 74.63292694091797 97.25497436523438 74.41964721679688 95.7938232421875 76.92811584472656 C 95.27167510986328 80.17430114746094 93.84965515136719 83.20596313476562 88.7891845703125 88.20294189453125 C 85.01582336425781 92.54151916503906 82.64208221435547 94.2052001953125 77.2548828125 95.87023162841797 C 73.11018371582031 98.02041625976562 70.35692596435547 99.01327514648438 62.421356201171875 98.75901794433594 C 54.913917541503906 98.44898986816406 52.18661117553711 97.22425842285156 48.464786529541016 94.84798431396484 C 43.27272033691406 92.42310333251953 39.28893280029297 89.9456787109375 35.5161247253418 84.90453338623047 C 31.62668228149414 78.64198303222656 30.066925048828125 74.04907989501953 29.73464584350586 70.74241638183594 C 28.17885971069336 68.22977447509766 28.04212760925293 66.21097564697266 29.46890640258789 62.88957977294922 C 29.07404136657715 59.66530227661133 29.114755630493164 59.01034164428711 30.63450050354004 57.850425720214844 C 29.774282455444336 54.826988220214844 29.558063507080078 51.33394241333008 33.74178695678711 45.71418762207031 C 36.8744010925293 39.18380355834961 39.1490478515625 36.358497619628906 44.34401321411133 34.75443649291992 C 48.03777313232422 32.700439453125 49.687744140625 31.60090446472168 54.215782165527344 29.994651794433594 C 59.87836456298828 28.05101203918457 63.998321533203125 27.637100219726562 68.27914428710938 28.158466339111328 C 72.65388488769531 28.403932571411133 74.4481201171875 28.94725227355957 74.43425750732422 29.65359115600586 C 74.33673858642578 30.04098892211914 73.57698059082031 31.441265106201172 75.0924072265625 34.01049041748047" stroke-width="2.0" fill="rgb(252, 194, 27)" opacity="1.0" stroke="rgb(252, 194, 27)" stroke-opacity="1.0" stroke-linecap="round" stroke-linejoin="round"/>
    <path d="M 95.59490203857422 34.522117614746094 C 95.57898712158203 34.542720794677734 95.25909423828125 34.537227630615234 95.57007598876953 35.491031646728516 C 98.53739166259766 39.30633544921875 102.33715057373047 46.3091926574707 104.41111755371094 54.20995330810547 C 105.53068542480469 57.98712158203125 106.39264678955078 57.95560073852539 107.90999603271484 57.68289566040039 C 110.89364624023438 58.99934387207031 112.46717834472656 62.293182373046875 111.75326538085938 67.12249755859375 C 110.66252136230469 71.26716613769531 108.54666137695312 72.91503143310547 104.83009338378906 73.0145492553711 C 103.11945343017578 72.84911346435547 103.31140899658203 73.74092102050781 102.39456939697266 76.97281646728516 C 101.43558502197266 81.29950714111328 99.13826751708984 86.27546691894531 93.15262603759766 92.58401489257812 C 87.8407974243164 97.59982299804688 84.7067642211914 99.86485290527344 79.2079086303711 101.79815673828125 C 73.96060943603516 103.9703598022461 69.73239135742188 105.02506256103516 61.57808303833008 104.8225326538086 C 53.915584564208984 104.35222625732422 49.51936340332031 102.85147094726562 43.91334915161133 99.79855346679688 C 37.50414276123047 96.0872573852539 32.06951904296875 90.92487335205078 27.29390525817871 82.83708953857422 C 24.19072151184082 75.83333587646484 23.77094268798828 73.23040771484375 22.843477249145508 72.80387115478516 C 19.23915672302246 72.5830078125 16.689489364624023 71.51153564453125 15.979402542114258 66.6911849975586 C 15.467155456542969 60.743919372558594 17.302736282348633 58.4771842956543 22.073070526123047 57.48130416870117 C 23.893741607666016 54.34300994873047 23.313142776489258 50.32183074951172 25.850360870361328 43.79520034790039 C 29.21369743347168 36.28702926635742 32.80781555175781 31.87785530090332 39.17560958862305 28.848236083984375 C 43.24794006347656 26.1597957611084 45.327938079833984 24.80214500427246 51.13998794555664 23.450586318969727 C 58.197784423828125 21.735336303710938 62.181854248046875 21.300458908081055 67.00756072998047 22.023441314697266 C 74.43226623535156 22.923547744750977 79.93281555175781 24.399261474609375 83.4102554321289 26.595958709716797 C 87.4687271118164 28.735532760620117 90.49165344238281 30.762908935546875 91.9654312133789 32.60333251953125" stroke-width="2.0" fill="rgb(255, 0, 0)" opacity="1.0" stroke="rgb(255, 0, 0)" stroke-opacity="1.0" stroke-linecap="round" stroke-linejoin="round"/>
    <path d="M 100.41724395751953 42.248565673828125 C 100.4141845703125 42.25541687011719 100.23038482666016 42.220680236816406 100.95069122314453 43.15272521972656 C 103.06065368652344 46.730709075927734 104.4409408569336 52.3150749206543 105.16600036621094 56.4226188659668 C 106.58557891845703 57.45585632324219 107.58505249023438 57.07194900512695 109.046630859375 57.463008880615234 C 111.97422790527344 59.39335632324219 113.4156494140625 62.802127838134766 112.327392578125 67.82666015625 C 110.79132843017578 72.15922546386719 108.63318634033203 73.4240493774414 105.4567642211914 73.34339141845703 C 104.2433090209961 73.47421264648438 104.27948760986328 74.30349731445312 103.05412292480469 77.35216522216797 C 101.91362762451172 81.84188079833984 99.56477355957031 86.83496856689453 93.4909896850586 93.0955581665039 C 87.98482513427734 98.1575927734375 84.84967803955078 100.61280822753906 79.4126205444336 102.7175521850586 C 74.49378967285156 104.87117004394531 70.90335845947266 105.82868194580078 62.87179946899414 105.72681427001953 C 55.14960861206055 105.42803192138672 50.67326354980469 103.96737670898438 44.655757904052734 101.12226104736328 C 38.404666900634766 97.85431671142578 33.36766052246094 93.50901794433594 27.990957260131836 85.67693328857422 C 23.888463973999023 77.8153076171875 23.299386978149414 74.3084716796875 22.849306106567383 73.6597900390625 C 19.6500301361084 73.608154296875 16.88060760498047 72.9465560913086 15.2889404296875 68.36729431152344 C 13.957877159118652 61.87623977661133 15.385268211364746 59.03834915161133 20.208656311035156 57.49067306518555 C 23.025468826293945 54.665260314941406 22.961658477783203 51.669429779052734 24.867034912109375 47.23283004760742 C 29.0620059967041 42.23436737060547 35.24380111694336 37.51805114746094 41.5682258605957 31.32320213317871 C 42.87259292602539 26.965856552124023 43.059478759765625 25.700544357299805 47.591121673583984 24.18010711669922 C 52.96859359741211 22.08120346069336 56.07346725463867 21.20855712890625 60.0920295715332 20.8695011138916 C 66.39311218261719 20.534860610961914 72.15372467041016 21.423213958740234 77.96015167236328 23.4179744720459 C 83.72341918945312 25.508317947387695 87.66185760498047 28.001909255981445 90.17814636230469 30.29823875427246" stroke-width="2.0" fill="rgb(0, 255, 0)" opacity="1.0" stroke="rgb(0, 255, 0)" stroke-opacity="1.0" stroke-linecap="round" stroke-linejoin="round"/>
    <path d="M 103.11549377441406 47.89566421508789 C 103.12356567382812 47.89127731323242 102.997314453125 47.800048828125 103.4437026977539 48.38499450683594 C 104.41117858886719 50.93021011352539 104.8852767944336 54.367862701416016 105.69773864746094 56.64748764038086 C 107.50308227539062 57.33804702758789 108.46056365966797 57.29716873168945 109.82882690429688 58.000885009765625 C 112.64247131347656 60.270729064941406 113.59968566894531 64.01824188232422 111.84632110595703 68.91980743408203 C 110.00322723388672 72.56649780273438 107.90876007080078 73.3698501586914 105.1799087524414 73.52447509765625 C 104.36861419677734 74.11473846435547 104.32875061035156 74.99248504638672 102.88003540039062 77.93643951416016 C 101.59830474853516 82.49422454833984 99.23818969726562 87.47728729248047 93.15547180175781 93.7200927734375 C 87.77843475341797 98.62229919433594 84.7162094116211 100.85206604003906 79.17579650878906 102.72981262207031 C 74.46794891357422 104.74693298339844 71.31654357910156 105.71183013916016 63.57804870605469 105.83487701416016 C 56.08124542236328 105.75672912597656 51.75883483886719 104.40727233886719 45.64816665649414 101.74829864501953 C 39.464385986328125 98.79673767089844 34.82489013671875 95.05165100097656 29.224647521972656 87.7608871459961 C 24.44464874267578 79.38118743896484 23.582494735717773 74.8358154296875 23.312959671020508 73.50682830810547 C 20.15462303161621 73.19135284423828 17.124553680419922 72.64590454101562 15.219735145568848 68.27452850341797 C 13.72447395324707 61.762088775634766 15.147616386413574 58.91257095336914 20.07379722595215 57.39229202270508 C 23.13528823852539 54.7028694152832 23.627164840698242 51.79734802246094 26.127546310424805 47.61963653564453 C 30.49860191345215 43.6374626159668 37.897640228271484 41.167850494384766 46.1920166015625 35.5470085144043 C 47.81930923461914 29.27770233154297 46.82740783691406 26.940553665161133 49.84481430053711 25.292543411254883 C 53.64812088012695 23.044734954833984 55.60015869140625 22.023027420043945 59.243202209472656 21.4666748046875 C 65.10201263427734 20.703174591064453 69.90377044677734 21.115978240966797 75.43026733398438 22.778928756713867 C 82.0877456665039 24.85849952697754 86.5713119506836 27.56148338317871 89.24641418457031 29.91744613647461" stroke-width="2.0" fill="rgb(0, 0, 255)" opacity="1.0" stroke="rgb(0, 0, 255)" stroke-opacity="1.0" stroke-linecap="round" stroke-linejoin="round"/>
  </g>
</svg>
