<?xml version="1.0" ?>
<svg xmlns="http://www.w3.org/2000/svg" version="1.1" width="128" height="128">
  <defs/>
  <g>
    <path d="M 71.6762466430664 15.976204872131348 C 71.71187591552734 15.962080001831055 71.59172058105469 16.08617401123047 72.70040893554688 16.038894653320312 C 75.76197052001953 14.592877388000488 74.70751190185547 12.208797454833984 61.44992446899414 12.838915824890137 C 44.17558288574219 19.53099250793457 36.09823226928711 29.618711471557617 35.33077621459961 39.30359649658203 C 40.409175872802734 47.54790496826172 49.12336349487305 47.56904602050781 56.292781829833984 39.72907638549805 C 61.026573181152344 30.90157127380371 61.59141159057617 22.678667068481445 59.108497619628906 17.15035629272461 C 59.42310333251953 15.635611534118652 67.06147003173828 16.708803176879883 82.06571197509766 19.67654800415039 C 93.42484283447266 25.377363204956055 95.38699340820312 35.438087463378906 93.93096160888672 48.20844268798828 C 96.26311492919922 58.84408187866211 98.48689270019531 66.55625915527344 97.34009552001953 73.68657684326172 C 93.44487762451172 78.743896484375 85.66240692138672 81.29585266113281 73.43035125732422 85.57015991210938 C 66.35496520996094 93.5013427734375 68.35741424560547 101.75703430175781 70.980712890625 107.28607177734375 C 71.69984436035156 109.92196655273438 72.46531677246094 109.98136901855469 71.75935363769531 108.38081359863281 C 69.5462875366211 106.59239959716797 67.60905456542969 103.99740600585938 67.25985717773438 97.84779357910156 C 72.04647064208984 86.47542572021484 81.22534942626953 71.45088958740234 88.10303497314453 56.62250518798828 C 89.9209213256836 47.8648681640625 86.59842681884766 45.16448211669922 74.6541519165039 44.87313461303711 C 57.73591613769531 44.62577438354492 46.78644561767578 46.878299713134766 40.030757904052734 52.688758850097656 C 37.401790618896484 60.279685974121094 40.116363525390625 68.32366180419922 42.59989547729492 75.33077239990234 C 42.87012481689453 79.72511291503906 44.230220794677734 81.17428588867188 41.92683029174805 79.2158203125 C 33.68793487548828 73.64983367919922 29.02142333984375 65.44766235351562 27.996246337890625 57.27701950073242 C 26.978479385375977 52.80678176879883 30.874296188354492 53.604705810546875 38.1962776184082 56.097190856933594 C 43.76029586791992 57.1080322265625 48.785682678222656 54.95092010498047 42.81214904785156 48.265586853027344" stroke-width="2.0" fill="rgb(252, 194, 27)" opacity="1.0" stroke="rgb(252, 194, 27)" stroke-opacity="1.0" stroke-linecap="round" stroke-linejoin="round"/>
    <path d="M 42.39091110229492 21.99901580810547 C 42.426475524902344 21.991483688354492 41.597599029541016 21.727764129638672 42.53301239013672 20.908178329467773 C 50.46884536743164 20.72017478942871 55.13102722167969 23.232765197753906 44.61865997314453 30.090816497802734 C 37.0583610534668 39.425724029541016 41.85539627075195 44.563899993896484 50.18174743652344 45.28569793701172 C 56.96782302856445 44.116268157958984 64.92874908447266 43.103424072265625 75.20685577392578 43.80451965332031 C 84.2061538696289 44.76415252685547 88.58149719238281 41.743743896484375 86.92662048339844 33.950889587402344 C 81.59971618652344 26.060895919799805 77.7292709350586 21.092790603637695 78.48836517333984 18.10821533203125 C 83.06614685058594 17.256006240844727 88.1644515991211 18.575002670288086 92.6857681274414 22.15791893005371 C 97.41009521484375 27.127527236938477 99.58052825927734 32.261207580566406 97.36616516113281 38.527801513671875 C 93.88056182861328 44.5478515625 90.8622817993164 50.264068603515625 84.59686279296875 60.90364456176758 C 74.94712829589844 75.42948150634766 70.18144226074219 88.54435729980469 71.7435531616211 99.02867889404297 C 74.01365661621094 106.79753875732422 75.63211822509766 111.59712982177734 76.35365295410156 113.553466796875 C 75.390869140625 113.3736343383789 69.22627258300781 112.49816131591797 57.765323638916016 112.61869049072266 C 51.328697204589844 113.35798645019531 51.492919921875 112.154296875 52.495018005371094 108.70055389404297 C 53.76484680175781 104.54962921142578 55.48946762084961 100.71908569335938 56.998172760009766 96.62645721435547 C 56.450252532958984 91.60181427001953 53.322853088378906 85.42959594726562 50.71713638305664 77.29174041748047 C 50.74898910522461 68.34706115722656 50.797698974609375 63.91399383544922 47.713035583496094 65.74124145507812 C 44.65914535522461 69.7858657836914 44.344383239746094 72.59838104248047 43.06539535522461 71.46907806396484 C 40.598575592041016 67.43318939208984 40.28511428833008 63.33943176269531 39.72226333618164 59.872703552246094 C 40.30428695678711 58.38850402832031 47.80142593383789 59.03940200805664 55.23747634887695 58.38404083251953 C 52.09790802001953 56.373680114746094 43.91316223144531 52.9174919128418 34.21102523803711 46.01616287231445" stroke-width="2.0" fill="rgb(255, 0, 0)" opacity="1.0" stroke="rgb(255, 0, 0)" stroke-opacity="1.0" stroke-linecap="round" stroke-linejoin="round"/>
    <path d="M 44.409488677978516 24.096891403198242 C 44.45063781738281 24.0809268951416 43.668094635009766 23.83032989501953 44.861976623535156 23.098867416381836 C 52.46579360961914 22.916109085083008 55.71324920654297 24.90207290649414 44.511112213134766 30.78855323791504 C 37.5709114074707 39.3668212890625 43.2272834777832 44.29745101928711 51.7401123046875 45.371578216552734 C 58.303321838378906 44.95582580566406 66.34217834472656 44.2923698425293 76.40351867675781 44.12726974487305 C 84.6290054321289 43.28622055053711 87.62557983398438 38.8237419128418 84.12955474853516 30.559804916381836 C 78.49398803710938 23.231075286865234 76.3575210571289 19.205373764038086 79.11627197265625 17.398178100585938 C 84.91348266601562 17.230131149291992 90.49980163574219 18.994064331054688 94.8578109741211 23.408550262451172 C 98.56897735595703 29.19078826904297 99.82516479492188 34.75583267211914 96.96575164794922 41.08750534057617 C 93.47602081298828 47.138824462890625 91.01248931884766 53.1818733215332 84.87504577636719 63.91215515136719 C 74.8188247680664 77.76911163330078 70.57360076904297 90.02421569824219 72.74344635009766 99.846923828125 C 75.15823364257812 107.24910736083984 76.75575256347656 111.9289779663086 77.11055755615234 113.85726928710938 C 74.82167053222656 113.7340087890625 66.85362243652344 113.0982894897461 55.25837326049805 113.5506362915039 C 50.004295349121094 114.36441802978516 50.450382232666016 113.24079132080078 51.383304595947266 110.0539779663086 C 52.6341667175293 106.2319107055664 54.14534378051758 102.69406127929688 55.70713806152344 99.0429916381836 C 56.37970733642578 94.77873229980469 54.78935623168945 90.18170928955078 51.76095199584961 84.09877014160156 C 50.61421203613281 76.45199584960938 50.30165100097656 70.90320587158203 47.647335052490234 70.09721374511719 C 44.9332389831543 72.24417114257812 44.822120666503906 74.441162109375 44.03988265991211 73.83881378173828 C 41.17560958862305 70.54574584960938 39.450233459472656 66.21659088134766 37.131343841552734 61.43175506591797 C 35.59228515625 57.89256286621094 41.52815246582031 57.42927932739258 50.08476638793945 57.1506233215332 C 49.19638442993164 55.67136764526367 42.06956481933594 52.935672760009766 33.89056396484375 46.81658172607422" stroke-width="2.0" fill="rgb(0, 255, 0)" opacity="1.0" stroke="rgb(0, 255, 0)" stroke-opacity="1.0" stroke-linecap="round" stroke-linejoin="round"/>
    <path d="M 72.87400817871094 15.843596458435059 C 72.88933563232422 15.833293914794922 72.95065307617188 15.91082763671875 74.19686889648438 15.798736572265625 C 75.98701477050781 14.342085838317871 71.64891815185547 12.03035831451416 57.965450286865234 13.282853126525879 C 45.49464416503906 21.432350158691406 40.77631378173828 32.37424087524414 41.02961349487305 40.4511833190918 C 46.35357666015625 46.98500061035156 53.67923355102539 46.1158561706543 58.50901794433594 36.73759078979492 C 61.369144439697266 26.950963973999023 60.692779541015625 19.806474685668945 58.76306915283203 16.172765731811523 C 60.90774154663086 15.820074081420898 71.62425994873047 17.277616500854492 87.47740936279297 20.2561092376709 C 96.6807861328125 25.88205337524414 96.8530044555664 35.40747833251953 94.04198455810547 47.753597259521484 C 95.56378173828125 58.51582336425781 97.98282623291016 66.67948913574219 96.82737731933594 74.31480407714844 C 92.4549331665039 79.03087615966797 85.89026641845703 80.81507110595703 76.19316864013672 84.42559814453125 C 69.69357299804688 91.65931701660156 71.25880432128906 99.92463684082031 75.09476470947266 106.86337280273438 C 77.1917495727539 111.67845916748047 77.77366638183594 114.05052947998047 76.59519958496094 114.31598663330078 C 72.27869415283203 113.33043670654297 61.80684280395508 112.84874725341797 50.93327713012695 113.90647888183594 C 48.55229568481445 114.00933074951172 50.85845184326172 111.16588592529297 53.283485412597656 106.11798858642578 C 56.010929107666016 100.12617492675781 56.58721923828125 94.07157135009766 52.75471115112305 86.51014709472656 C 49.84649658203125 76.46475982666016 49.35246276855469 69.46898651123047 46.58662414550781 69.88374328613281 C 43.40968704223633 74.68241882324219 43.44763946533203 79.94731140136719 44.01085662841797 82.19965362548828 C 43.250675201416016 81.94168090820312 43.71457290649414 81.21437072753906 41.14213180541992 78.40997314453125 C 32.279178619384766 71.63988494873047 27.70020866394043 62.645408630371094 28.671472549438477 54.92759704589844 C 29.28022575378418 51.836849212646484 32.230918884277344 54.050048828125 37.82633972167969 56.6469612121582 C 42.46706008911133 56.71964645385742 44.2081184387207 54.08684539794922 36.26899719238281 48.10205841064453" stroke-width="2.0" fill="rgb(0, 0, 255)" opacity="1.0" stroke="rgb(0, 0, 255)" stroke-opacity="1.0" stroke-linecap="round" stroke-linejoin="round"/>
  </g>
</svg>
