<?xml version="1.0" ?>
<svg xmlns="http://www.w3.org/2000/svg" version="1.1" width="128" height="128">
  <defs/>
  <g>
    <path d="M 83.4040756225586 53.314598083496094 C 83.40199279785156 53.30204772949219 83.4813003540039 53.15342712402344 84.82073974609375 53.36637878417969 C 85.20772552490234 55.527931213378906 79.47428894042969 60.01266098022461 71.44181823730469 65.1618881225586 C 68.23255920410156 69.17876434326172 65.85343170166016 72.17276000976562 62.97676086425781 74.69110107421875 C 64.74690246582031 77.61410522460938 69.26826477050781 80.6299057006836 73.48819732666016 82.6071548461914 C 78.47592163085938 82.63131713867188 82.46405029296875 81.62577056884766 85.21062469482422 80.98181915283203 C 88.53167724609375 80.39868927001953 90.4022445678711 80.83728790283203 89.36885833740234 83.00165557861328 C 88.43368530273438 85.07720184326172 86.4988784790039 86.90873718261719 81.32645416259766 89.81573486328125 C 77.79473876953125 92.4083023071289 76.72109985351562 93.26576232910156 73.01853942871094 94.13702392578125 C 69.66509246826172 95.66707611083984 67.63975524902344 96.07386016845703 61.10118865966797 95.32292175292969 C 54.32719421386719 94.62486267089844 52.47331619262695 93.96685791015625 51.392330169677734 93.0816879272461 C 50.323448181152344 91.92593383789062 51.32331848144531 90.15984344482422 53.321868896484375 87.14087677001953 C 54.61328887939453 84.02632141113281 55.5568962097168 81.62869262695312 55.9531135559082 78.89275360107422 C 56.16094207763672 76.56372833251953 57.35176467895508 76.53528594970703 57.64622116088867 77.78617095947266 C 57.03459930419922 78.68266296386719 58.36652374267578 79.1452407836914 59.852630615234375 78.52717590332031 C 59.53194808959961 76.82072448730469 60.795040130615234 75.65072631835938 63.89482498168945 74.32781219482422 C 64.6880111694336 72.14227294921875 65.66214752197266 69.8077163696289 70.45023345947266 66.24298095703125 C 74.66482543945312 62.67290115356445 77.01946258544922 61.545166015625 80.30198669433594 59.9850959777832 C 83.0273666381836 56.76886749267578 83.8493423461914 55.023834228515625 84.50152587890625 53.9121208190918 C 85.56414794921875 51.33512496948242 84.0364761352539 48.856040954589844 80.03219604492188 47.31858825683594 C 77.03794860839844 46.197933197021484 75.2787857055664 46.26346206665039 74.37653350830078 47.021060943603516" stroke-width="2.0" fill="rgb(252, 194, 27)" opacity="1.0" stroke="rgb(252, 194, 27)" stroke-opacity="1.0" stroke-linecap="round" stroke-linejoin="round"/>
    <path d="M 85.57176208496094 51.17863082885742 C 85.58990478515625 51.148555755615234 85.28727722167969 51.1117057800293 85.71041107177734 51.416072845458984 C 88.37711334228516 53.13436508178711 91.6950912475586 57.23027420043945 92.91936492919922 63.4886474609375 C 92.69149780273438 69.11356353759766 91.38336944580078 72.67948913574219 89.38941192626953 74.45846557617188 C 88.20035552978516 75.1060562133789 88.03206634521484 75.79557800292969 89.57569885253906 77.3088607788086 C 92.4434814453125 78.59396362304688 94.07197570800781 79.33170318603516 94.27494049072266 80.27243041992188 C 94.72859191894531 81.24640655517578 93.78826141357422 82.92725372314453 90.47600555419922 86.42023468017578 C 87.8635025024414 89.8780746459961 85.27316284179688 92.30768585205078 80.21549987792969 94.84795379638672 C 76.81426239013672 96.79742431640625 75.48619079589844 97.31371307373047 71.13261413574219 98.09138488769531 C 65.56879425048828 99.12796783447266 60.70695114135742 99.02190399169922 54.12265396118164 97.84148406982422 C 48.7025146484375 96.64785766601562 46.33086395263672 95.42032623291016 44.947418212890625 93.84012603759766 C 44.533241271972656 92.65718078613281 46.41739273071289 91.24759674072266 49.054805755615234 87.39077758789062 C 51.281517028808594 82.35360717773438 53.147090911865234 79.39518737792969 51.20931625366211 78.37606048583984 C 47.30775833129883 78.67210388183594 45.92973327636719 79.08798217773438 40.02740478515625 76.8913803100586 C 30.715160369873047 70.44208526611328 29.704971313476562 62.07793045043945 36.210601806640625 54.90985107421875 C 41.2927360534668 51.025264739990234 49.74409484863281 52.05518341064453 67.37763977050781 53.38013458251953 C 79.9498291015625 52.820865631103516 84.13101959228516 53.03714370727539 86.35358428955078 52.529571533203125 C 84.5274658203125 50.29473114013672 79.32478332519531 48.78554153442383 77.56777954101562 45.9885368347168 C 78.71243286132812 40.143310546875 76.24369049072266 34.57365417480469 70.09065246582031 31.56776237487793 C 62.21896743774414 30.970937728881836 54.89035415649414 31.20926284790039 54.39363098144531 29.725852966308594 C 60.7854118347168 27.42310905456543 66.89388275146484 27.893918991088867 71.03926849365234 31.119661331176758" stroke-width="2.0" fill="rgb(255, 0, 0)" opacity="1.0" stroke="rgb(255, 0, 0)" stroke-opacity="1.0" stroke-linecap="round" stroke-linejoin="round"/>
    <path d="M 85.62460327148438 50.67388916015625 C 85.63934326171875 50.64487075805664 85.32952117919922 50.60042953491211 85.74127960205078 50.95359420776367 C 88.5065689086914 52.81321716308594 92.04812622070312 57.0728874206543 93.25108337402344 63.65428161621094 C 92.64306640625 69.54786682128906 91.13362121582031 72.95958709716797 89.35206604003906 74.52533721923828 C 88.46171569824219 75.22567749023438 88.31517028808594 76.05314636230469 89.6150894165039 77.61898040771484 C 92.42667388916016 78.84713745117188 94.153076171875 79.47940826416016 94.31305694580078 80.43789672851562 C 94.80288696289062 81.42153930664062 94.07951354980469 82.96321868896484 91.03563690185547 86.2725830078125 C 88.63543701171875 89.65614318847656 86.104736328125 92.17887115478516 80.87830352783203 94.79141998291016 C 77.33213806152344 96.83905792236328 76.10409545898438 97.36080932617188 72.10377502441406 98.06875610351562 C 67.2467269897461 99.20906829833984 62.72470474243164 99.30369567871094 55.7569465637207 98.27620697021484 C 49.99262619018555 97.06444549560547 47.327232360839844 95.67965698242188 45.28456115722656 93.84425354003906 C 44.37345886230469 92.6194076538086 46.150638580322266 91.30220031738281 48.817161560058594 87.43404388427734 C 50.937252044677734 82.37751007080078 52.7774772644043 79.50845336914062 51.07903289794922 78.59593963623047 C 47.273536682128906 78.96028900146484 45.503055572509766 79.27974700927734 39.357059478759766 76.46407318115234 C 30.272769927978516 69.42574310302734 29.47188949584961 61.069862365722656 35.8986701965332 54.10073471069336 C 40.414119720458984 50.33982467651367 48.368953704833984 51.51231002807617 66.2955093383789 52.9713020324707 C 79.34789276123047 52.233882904052734 83.18321990966797 52.043418884277344 84.32794189453125 50.90778732299805 C 82.05126953125 48.71784973144531 77.72593688964844 46.88514709472656 77.59817504882812 42.751708984375 C 78.42940521240234 36.21392059326172 74.44580841064453 31.88509178161621 67.30402374267578 30.48677635192871 C 59.70216751098633 30.558847427368164 54.13296127319336 30.802858352661133 54.473392486572266 29.325637817382812 C 60.38581085205078 27.051389694213867 66.48468780517578 27.44911766052246 71.28121948242188 30.675935745239258" stroke-width="2.0" fill="rgb(0, 255, 0)" opacity="1.0" stroke="rgb(0, 255, 0)" stroke-opacity="1.0" stroke-linecap="round" stroke-linejoin="round"/>
    <path d="M 87.15092468261719 51.856895446777344 C 87.16365051269531 51.83073043823242 86.85237884521484 51.80946350097656 87.40479278564453 52.10987091064453 C 90.16365814208984 54.009002685546875 92.95191192626953 58.29889678955078 93.1867904663086 64.43993377685547 C 92.46881866455078 69.63883209228516 91.20722198486328 72.54124450683594 89.31659698486328 74.22871398925781 C 88.43528747558594 75.5125503540039 88.57648468017578 76.655517578125 89.97927856445312 78.1930160522461 C 92.74601745605469 79.25666046142578 94.37384033203125 79.62895202636719 94.54774475097656 80.35130310058594 C 95.22307586669922 81.08991241455078 94.66203308105469 82.48648071289062 91.72258758544922 85.87360382080078 C 89.3613052368164 89.412841796875 86.77364349365234 92.07418823242188 81.48212432861328 94.75730895996094 C 77.92279052734375 96.89237213134766 76.68746185302734 97.54251098632812 72.66999053955078 98.47171020507812 C 68.01326751708984 99.90552520751953 63.745975494384766 100.12850952148438 56.908355712890625 99.12837982177734 C 51.19040298461914 97.99998474121094 48.533782958984375 96.7142105102539 46.01459503173828 94.63201141357422 C 44.38540267944336 93.17060089111328 45.55286407470703 91.98421478271484 47.90455627441406 88.17658233642578 C 50.263587951660156 82.76396942138672 52.753013610839844 79.61912536621094 51.50825119018555 78.63469696044922 C 47.65107727050781 79.02195739746094 45.75080108642578 79.49279022216797 39.5338020324707 76.92521667480469 C 30.342784881591797 70.06754302978516 29.479839324951172 61.78591537475586 35.51134490966797 54.49576950073242 C 39.01438903808594 50.20890808105469 45.777748107910156 51.13196563720703 62.28534698486328 52.612789154052734 C 75.16352844238281 51.549556732177734 80.48831176757812 51.40993118286133 82.74219512939453 50.26447296142578 C 80.71354675292969 47.66689682006836 77.10842895507812 45.179054260253906 77.09581756591797 40.49073028564453 C 77.12931060791016 34.01747512817383 72.81665802001953 30.477561950683594 66.42999267578125 29.823129653930664 C 59.62880325317383 29.96693992614746 54.45399856567383 30.07439613342285 55.22793960571289 28.70058822631836 C 61.267311096191406 26.75083351135254 67.43241119384766 27.472990036010742 72.04285430908203 30.743133544921875" stroke-width="2.0" fill="rgb(0, 0, 255)" opacity="1.0" stroke="rgb(0, 0, 255)" stroke-opacity="1.0" stroke-linecap="round" stroke-linejoin="round"/>
  </g>
</svg>
