<?xml version="1.0" ?>
<svg xmlns="http://www.w3.org/2000/svg" version="1.1" width="128" height="128">
  <defs/>
  <g>
    <path d="M 94.81346893310547 47.777042388916016 C 94.81015014648438 47.7876091003418 95.19208526611328 47.88916015625 97.18389129638672 48.773563385009766 C 96.81108856201172 52.04362487792969 84.86735534667969 58.69540023803711 66.03726959228516 67.46704864501953 C 56.098331451416016 76.35101318359375 51.389556884765625 82.23320770263672 46.74619674682617 86.21434020996094 C 45.57228088378906 89.61102294921875 48.13827896118164 91.15398406982422 52.556156158447266 91.10177612304688 C 62.06545639038086 90.68568420410156 74.0709228515625 90.3583755493164 82.39810180664062 90.33001708984375 C 88.46492767333984 90.59970092773438 92.28762817382812 91.73944854736328 93.03041076660156 93.88321685791016 C 93.50900268554688 95.28931427001953 93.8114013671875 95.92355346679688 90.74813842773438 96.83503723144531 C 86.8433837890625 97.84342956542969 84.23053741455078 98.37906646728516 79.3418960571289 98.88298034667969 C 74.86517333984375 99.44369506835938 71.32960510253906 99.89508056640625 62.19685363769531 99.82740020751953 C 52.939666748046875 99.68901824951172 49.05893325805664 99.27935791015625 45.05487823486328 98.40897369384766 C 41.37147521972656 97.8006820678711 39.2834587097168 97.7172622680664 36.26999282836914 97.03644561767578 C 33.03517532348633 96.02429962158203 32.17136764526367 95.18711853027344 32.82573699951172 93.2933120727539 C 34.18370819091797 91.27921295166016 37.94622802734375 90.65587615966797 42.742401123046875 89.71821594238281 C 45.301265716552734 88.78875732421875 45.88372802734375 88.79657745361328 46.4628791809082 87.31372833251953 C 46.937744140625 85.5423583984375 47.446834564208984 85.69001770019531 49.20323944091797 83.92843627929688 C 51.907806396484375 80.09825134277344 54.88960266113281 77.8429183959961 59.14078140258789 73.93780517578125 C 65.19898986816406 67.67721557617188 71.70206451416016 64.08068084716797 78.2183609008789 61.40057373046875 C 85.38725280761719 57.52208709716797 91.28506469726562 55.258235931396484 93.82351684570312 53.672332763671875 C 94.95462036132812 50.95774459838867 94.43827056884766 49.88492202758789 90.6070556640625 49.72844696044922 C 86.01872253417969 47.53961181640625 82.19986724853516 45.56103515625 79.29399108886719 45.01436233520508" stroke-width="2.0" fill="rgb(252, 194, 27)" opacity="1.0" stroke="rgb(252, 194, 27)" stroke-opacity="1.0" stroke-linecap="round" stroke-linejoin="round"/>
    <path d="M 104.99180603027344 52.271236419677734 C 104.99676513671875 52.24562454223633 104.88282012939453 52.06816864013672 104.93193054199219 51.95396041870117 C 105.69666290283203 53.32016372680664 106.95751953125 55.90199661254883 108.7485580444336 58.827308654785156 C 110.5248794555664 61.844661712646484 109.95647430419922 65.50495910644531 106.61673736572266 69.29022216796875 C 104.04701232910156 71.32628631591797 104.12786865234375 72.03687286376953 104.74324035644531 72.78960418701172 C 105.56766510009766 73.70346069335938 106.82003021240234 74.7508316040039 108.1353759765625 76.6569595336914 C 109.60017395019531 79.04751586914062 110.03447723388672 81.57284545898438 108.75691986083984 84.75131225585938 C 107.21078491210938 87.6341781616211 105.00138092041016 89.72492980957031 100.83859252929688 92.03022766113281 C 97.02653503417969 93.962646484375 93.2952880859375 95.06254577636719 86.00947570800781 96.18550109863281 C 79.7230224609375 97.62984466552734 74.8011703491211 97.86717224121094 61.26094055175781 97.57284545898438 C 47.12014389038086 97.5340347290039 42.36335372924805 97.10222625732422 38.478912353515625 95.67192840576172 C 31.230762481689453 93.95692443847656 25.176414489746094 91.93114471435547 20.656206130981445 87.59490203857422 C 17.445037841796875 82.84675598144531 17.382244110107422 80.0546646118164 19.826936721801758 76.61296844482422 C 22.15833282470703 72.95157623291016 23.052824020385742 72.3884506225586 22.071535110473633 70.5046615600586 C 19.199443817138672 66.34170532226562 17.355186462402344 63.648887634277344 18.250696182250977 59.38629150390625 C 20.304115295410156 53.632686614990234 24.659324645996094 52.17080307006836 35.288604736328125 52.0562629699707 C 49.35932540893555 49.8878059387207 63.42646789550781 49.894649505615234 78.31793975830078 51.05642318725586 C 90.00926208496094 50.33810806274414 97.98323059082031 51.178165435791016 103.28768920898438 52.45502853393555 C 105.4592514038086 51.83439636230469 105.44245910644531 51.49223327636719 104.76471710205078 51.33241271972656 C 102.8543930053711 48.740753173828125 97.17803955078125 45.814720153808594 87.01057434082031 43.647857666015625 C 75.36273193359375 41.69881057739258 67.95960235595703 41.70241165161133 72.23038482666016 41.964515686035156" stroke-width="2.0" fill="rgb(255, 0, 0)" opacity="1.0" stroke="rgb(255, 0, 0)" stroke-opacity="1.0" stroke-linecap="round" stroke-linejoin="round"/>
    <path d="M 104.78201293945312 51.558780670166016 C 104.78872680664062 51.53822708129883 104.67005157470703 51.335838317871094 104.7302017211914 51.18511199951172 C 105.48416137695312 52.611507415771484 106.83708953857422 55.351078033447266 108.83168029785156 58.121177673339844 C 110.72846984863281 61.1723747253418 110.13450622558594 65.4710693359375 106.94619750976562 69.51933288574219 C 104.82478332519531 71.11172485351562 104.97308349609375 71.65418243408203 105.35277557373047 72.62602996826172 C 106.02632141113281 73.65107727050781 107.0946044921875 74.70741271972656 108.2704086303711 76.63842010498047 C 109.79663848876953 78.90401458740234 110.37855529785156 81.29296112060547 109.34410095214844 84.55753326416016 C 108.06717681884766 87.57864379882812 105.94386291503906 89.6439208984375 101.86056518554688 91.9269027709961 C 98.11521911621094 93.91145324707031 94.13493347167969 95.12373352050781 86.60603332519531 96.3561782836914 C 80.55924987792969 97.84221649169922 75.78206634521484 98.05825805664062 61.5851936340332 97.7374267578125 C 47.015464782714844 97.7562026977539 42.457157135009766 97.2629165649414 38.623321533203125 95.72257232666016 C 31.358348846435547 94.11740112304688 25.310169219970703 92.33296966552734 20.552988052368164 88.1775894165039 C 17.049222946166992 83.26439666748047 17.05374526977539 79.90784454345703 19.76762580871582 76.1199951171875 C 22.070232391357422 72.54949188232422 22.797677993774414 71.89673614501953 21.56568145751953 69.7867202758789 C 18.56696891784668 65.81008911132812 16.858362197875977 63.489585876464844 17.86943817138672 59.464717864990234 C 19.578838348388672 53.59337615966797 22.709796905517578 51.67381286621094 31.721248626708984 51.026329040527344 C 44.847251892089844 48.57622528076172 58.382591247558594 48.933135986328125 72.59026336669922 49.654850006103516 C 84.70683288574219 48.057884216308594 94.82769775390625 49.23538589477539 102.21826171875 51.51230239868164 C 105.424072265625 51.65327453613281 105.69530487060547 51.50988006591797 104.5643310546875 50.30464172363281 C 101.16526794433594 46.81172561645508 92.8562240600586 43.911598205566406 80.01958465576172 42.0288200378418 C 66.90576934814453 40.81550598144531 57.69288635253906 41.007232666015625 60.74809646606445 41.24085998535156" stroke-width="2.0" fill="rgb(0, 255, 0)" opacity="1.0" stroke="rgb(0, 255, 0)" stroke-opacity="1.0" stroke-linecap="round" stroke-linejoin="round"/>
    <path d="M 105.3816909790039 52.10783767700195 C 105.3933334350586 52.08839797973633 105.22286224365234 51.84268569946289 105.23999786376953 51.59160614013672 C 106.24609375 52.83060073852539 108.14165496826172 55.62594985961914 110.16332244873047 59.2675666809082 C 111.26660919189453 63.143795013427734 109.94920349121094 66.79642486572266 107.20489501953125 69.02655792236328 C 105.74286651611328 70.05717468261719 105.71922302246094 71.1835708618164 106.0799331665039 72.62975311279297 C 106.9013671875 73.91022491455078 107.94058990478516 75.04704284667969 109.25701904296875 76.78160095214844 C 110.8060073852539 78.95526123046875 110.97315216064453 81.59941101074219 109.49485778808594 85.16844940185547 C 108.09722137451172 88.23990631103516 105.91056060791016 90.23007202148438 101.6692886352539 92.49192810058594 C 97.96326446533203 94.51622009277344 94.08880615234375 95.68521881103516 86.51669311523438 96.8555679321289 C 80.26812744140625 98.40742492675781 75.10269165039062 98.77945709228516 61.420196533203125 98.62025451660156 C 48.19407653808594 98.56924438476562 43.83745193481445 97.88282012939453 39.61084747314453 96.48963928222656 C 33.15628433227539 95.29133605957031 28.06460189819336 93.90138244628906 22.714662551879883 90.62833404541016 C 17.172119140625 85.9044189453125 15.942991256713867 81.34651184082031 18.57253646850586 76.43962860107422 C 21.053260803222656 72.57212829589844 21.842994689941406 71.99335479736328 21.212478637695312 70.08895874023438 C 18.82909393310547 66.67086791992188 16.817861557006836 64.95464324951172 17.22008514404297 61.24061965942383 C 18.25426483154297 55.93552780151367 20.379159927368164 54.279266357421875 26.304780960083008 52.33971405029297 C 34.16172409057617 47.9276008605957 44.5888786315918 46.63838195800781 59.77277374267578 45.3654899597168 C 74.42162322998047 42.9580078125 88.52908325195312 45.36443328857422 99.88046264648438 50.02473831176758 C 104.36701202392578 51.21384048461914 103.86872863769531 50.45988082885742 101.34431457519531 48.358028411865234 C 97.34130096435547 45.022422790527344 89.49132537841797 42.81013870239258 78.62911987304688 41.43638610839844 C 68.2612075805664 40.2885856628418 60.905113220214844 40.57657241821289 63.777584075927734 41.379981994628906" stroke-width="2.0" fill="rgb(0, 0, 255)" opacity="1.0" stroke="rgb(0, 0, 255)" stroke-opacity="1.0" stroke-linecap="round" stroke-linejoin="round"/>
  </g>
</svg>
