<?xml version="1.0" ?>
<svg xmlns="http://www.w3.org/2000/svg" version="1.1" width="128" height="128">
  <defs/>
  <g>
    <path d="M 94.88442993164062 21.72771644592285 C 94.88986206054688 21.71040916442871 94.81653594970703 21.86167335510254 94.88662719726562 22.119300842285156 C 94.87822723388672 20.707393646240234 92.8634262084961 16.59564971923828 88.64905548095703 14.2554349899292 C 86.89002990722656 15.74657154083252 81.18641662597656 19.35589027404785 65.46468353271484 27.444076538085938 C 55.6561279296875 41.50629806518555 59.2926025390625 49.83375549316406 62.12893295288086 50.43953323364258 C 63.91257095336914 51.480281829833984 70.88700103759766 51.73832702636719 79.20828247070312 49.96406936645508 C 85.35906982421875 49.2598991394043 87.5838394165039 51.95390701293945 85.42961883544922 61.204132080078125 C 82.77787780761719 72.42605590820312 82.23648071289062 80.79226684570312 81.56743621826172 88.20158386230469 C 80.61224365234375 94.12958526611328 80.20573425292969 98.41755676269531 79.47865295410156 102.69406127929688 C 79.15294647216797 105.9949722290039 77.64105987548828 106.83484649658203 72.20726776123047 106.56825256347656 C 67.59281921386719 106.55278778076172 63.70875930786133 106.43474578857422 55.42308807373047 106.42576599121094 C 48.87010955810547 106.89839172363281 46.836063385009766 106.27628326416016 45.14192199707031 104.01718139648438 C 44.12985610961914 100.74687194824219 44.17230987548828 96.80179595947266 43.11238479614258 90.8212661743164 C 41.6379280090332 81.84088897705078 40.47834014892578 71.31861114501953 38.22041320800781 60.77251052856445 C 36.946529388427734 54.93370819091797 37.69956588745117 56.05842971801758 36.77463912963867 58.189048767089844 C 34.71738815307617 58.16393280029297 34.72405242919922 58.39491271972656 36.07946014404297 58.22518539428711 C 39.19053649902344 56.98373031616211 48.04124450683594 57.208984375 61.91305923461914 57.655601501464844 C 74.41812133789062 57.233642578125 83.80194854736328 57.51924133300781 89.25906372070312 57.35905838012695 C 89.47151947021484 54.97538375854492 84.88077545166016 51.07303237915039 75.153076171875 49.27002716064453 C 64.06044006347656 49.89835739135742 58.343841552734375 49.525787353515625 58.667171478271484 46.977622985839844 C 60.81440734863281 44.04500961303711 58.28651428222656 42.89811325073242 45.66776657104492 43.72451400756836" stroke-width="2.0" fill="rgb(252, 194, 27)" opacity="1.0" stroke="rgb(252, 194, 27)" stroke-opacity="1.0" stroke-linecap="round" stroke-linejoin="round"/>
    <path d="M 92.5343246459961 54.88956832885742 C 92.5493392944336 54.8504638671875 92.30381774902344 54.860958099365234 92.86894226074219 55.2664909362793 C 94.72562408447266 56.23741149902344 95.53040313720703 55.230873107910156 94.87686920166016 51.31035614013672 C 95.30926513671875 47.389747619628906 93.41905975341797 45.46395492553711 86.4312973022461 45.407386779785156 C 80.83673858642578 46.065956115722656 80.44864654541016 46.08454132080078 82.24790954589844 46.519344329833984 C 85.35833740234375 47.450660705566406 88.17337799072266 48.26683807373047 89.17671203613281 52.36445999145508 C 88.68976593017578 60.7424201965332 87.4375991821289 70.42353820800781 85.71100616455078 80.65719604492188 C 84.51058197021484 88.92228698730469 84.07169342041016 94.46479034423828 83.30819702148438 99.62263488769531 C 82.85758209228516 104.07991027832031 82.45264434814453 106.79688262939453 80.09891510009766 108.50419616699219 C 77.71733093261719 109.45143127441406 75.11180114746094 109.51245880126953 69.07427978515625 109.26606750488281 C 62.896385192871094 109.39755249023438 57.63044357299805 109.40385437011719 50.264320373535156 109.33209991455078 C 44.514686584472656 109.19331359863281 42.90857696533203 108.15946197509766 41.90864181518555 105.30659484863281 C 40.60490036010742 101.31073760986328 40.44737243652344 96.30096435546875 39.45676040649414 88.86310577392578 C 37.4663200378418 79.16854095458984 36.1686897277832 69.6083984375 35.3400764465332 60.56913757324219 C 34.38848114013672 54.58749008178711 33.4141731262207 54.10676956176758 30.226869583129883 55.2918701171875 C 27.10785484313965 54.85023498535156 28.78513526916504 55.45559310913086 33.88580322265625 56.3820915222168 C 39.514591217041016 55.6439323425293 50.231895446777344 55.02821731567383 69.04488372802734 55.15495300292969 C 85.12750244140625 55.74744415283203 91.71660614013672 56.15170669555664 91.69957733154297 53.10828399658203 C 86.97439575195312 47.352474212646484 80.0464096069336 44.826515197753906 74.4866943359375 45.39213943481445 C 71.26329040527344 45.02017593383789 71.01483154296875 42.41761016845703 74.56327056884766 37.37007141113281 C 80.25508880615234 31.781208038330078 86.13198852539062 27.943281173706055 91.25471496582031 25.15285301208496" stroke-width="2.0" fill="rgb(255, 0, 0)" opacity="1.0" stroke="rgb(255, 0, 0)" stroke-opacity="1.0" stroke-linecap="round" stroke-linejoin="round"/>
    <path d="M 92.75820922851562 54.942848205566406 C 92.77153778076172 54.90876770019531 92.54090118408203 54.917789459228516 93.1001205444336 55.337738037109375 C 94.88236999511719 56.259307861328125 95.60549926757812 55.23483657836914 95.01969909667969 51.52339172363281 C 95.55841064453125 47.67770004272461 93.55274200439453 45.589500427246094 86.24407958984375 45.43108367919922 C 80.38257598876953 46.16737747192383 79.8667221069336 46.24650955200195 81.52705383300781 46.798736572265625 C 84.69999694824219 47.85193634033203 87.85777282714844 48.42398452758789 89.09195709228516 52.168182373046875 C 88.67794799804688 60.46011734008789 87.45178985595703 70.2691421508789 85.73420715332031 80.61468505859375 C 84.49787139892578 88.9178466796875 84.01863098144531 94.45841217041016 83.23613739013672 99.57341766357422 C 82.80015563964844 103.96791076660156 82.41883850097656 106.66047668457031 80.10614776611328 108.41664123535156 C 77.78857421875 109.39942932128906 75.19910430908203 109.45561981201172 69.1982421875 109.20126342773438 C 63.12763977050781 109.30651092529297 57.937652587890625 109.27073669433594 50.511356353759766 109.18456268310547 C 44.65800857543945 109.07793426513672 43.01839065551758 108.0743637084961 42.01301956176758 105.22612762451172 C 40.700496673583984 101.2389144897461 40.53996658325195 96.25920867919922 39.549930572509766 88.84221649169922 C 37.561912536621094 79.13956451416016 36.2757682800293 69.55929565429688 35.44356155395508 60.49565124511719 C 34.453819274902344 54.53974533081055 33.460548400878906 54.11395263671875 30.317523956298828 55.318546295166016 C 27.170381546020508 54.85091781616211 28.806547164916992 55.42750549316406 34.11204147338867 56.317195892333984 C 40.24580764770508 55.51932907104492 51.70976638793945 54.87288284301758 71.22772216796875 55.126407623291016 C 86.78374481201172 55.74444580078125 92.3170166015625 56.07630157470703 91.60861206054688 52.77433776855469 C 86.5551986694336 46.95207214355469 79.52890014648438 44.6572380065918 74.27701568603516 45.317508697509766 C 71.38690185546875 44.80410385131836 71.28990936279297 42.01704788208008 75.00375366210938 36.87932586669922 C 80.7886962890625 31.281389236450195 86.66310119628906 27.503149032592773 91.80101776123047 24.797256469726562" stroke-width="2.0" fill="rgb(0, 255, 0)" opacity="1.0" stroke="rgb(0, 255, 0)" stroke-opacity="1.0" stroke-linecap="round" stroke-linejoin="round"/>
    <path d="M 92.1236801147461 55.107826232910156 C 92.13101196289062 55.096492767333984 91.91893005371094 55.10400390625 92.54265594482422 55.38521194458008 C 94.57614135742188 55.31224060058594 95.1681900024414 53.17052459716797 94.22261810302734 49.61787414550781 C 93.67529296875 47.0385627746582 90.06475830078125 45.88103103637695 81.5908432006836 45.305992126464844 C 75.29375457763672 45.99502944946289 74.59555053710938 46.544456481933594 76.32821655273438 46.979454040527344 C 80.0259780883789 47.710079193115234 84.35585021972656 47.84000778198242 87.00862884521484 50.80902862548828 C 87.88843536376953 58.742183685302734 86.87519073486328 69.05997467041016 84.98188018798828 79.89982604980469 C 83.7300796508789 88.42063903808594 83.28868103027344 94.02706909179688 82.46755981445312 99.15694427490234 C 82.03646087646484 103.8184585571289 81.76431274414062 106.7554702758789 79.49581909179688 108.51206970214844 C 77.17781829833984 109.52458953857422 74.66474151611328 109.80769348144531 68.83757019042969 109.62957763671875 C 63.16175842285156 109.6443099975586 58.596107482910156 109.5808334350586 51.41230392456055 109.53450775146484 C 45.556331634521484 109.47897338867188 43.9980354309082 108.28311920166016 43.11164093017578 105.25426483154297 C 41.95409393310547 101.49942016601562 41.67022705078125 97.34992980957031 40.83248519897461 91.01644897460938 C 39.1120491027832 81.87187194824219 37.47662353515625 71.60746002197266 36.46886444091797 60.80199432373047 C 37.12467956542969 53.33530044555664 38.864559173583984 51.86048889160156 37.474605560302734 52.53403854370117 C 34.359046936035156 52.230316162109375 34.08297348022461 54.056339263916016 34.91145324707031 56.58501434326172 C 38.24391555786133 56.97007751464844 52.11518859863281 56.5487060546875 73.77537536621094 56.6857795715332 C 86.66561889648438 56.13946533203125 89.56578063964844 54.41189193725586 87.62088775634766 50.300804138183594 C 82.20582580566406 46.81235122680664 76.11280822753906 46.47905349731445 72.09343719482422 45.6894645690918 C 70.3231201171875 42.21657943725586 71.96223449707031 37.7547721862793 78.22428894042969 32.62907791137695 C 86.31069946289062 27.50572967529297 92.31867218017578 24.23984146118164 95.3900146484375 22.21925926208496" stroke-width="2.0" fill="rgb(0, 0, 255)" opacity="1.0" stroke="rgb(0, 0, 255)" stroke-opacity="1.0" stroke-linecap="round" stroke-linejoin="round"/>
  </g>
</svg>
