<?xml version="1.0" ?>
<svg xmlns="http://www.w3.org/2000/svg" version="1.1" width="128" height="128">
  <defs/>
  <g>
    <path d="M 76.35035705566406 30.89143180847168 C 76.35681915283203 30.888446807861328 76.60684967041016 30.9538516998291 77.2744140625 30.788497924804688 C 73.95430755615234 30.01327133178711 61.11769485473633 30.227447509765625 48.76567840576172 33.94572448730469 C 48.63420486450195 39.113033294677734 55.8419303894043 43.29061508178711 60.42604446411133 49.32735061645508 C 61.542137145996094 57.127685546875 58.79505157470703 63.51883316040039 53.22801208496094 68.3837661743164 C 50.60554885864258 72.0685806274414 51.93528747558594 73.75105285644531 54.890804290771484 72.70355987548828 C 59.029991149902344 70.83280181884766 63.485809326171875 71.1348876953125 68.42684936523438 73.49266815185547 C 74.46407318115234 74.59186553955078 77.60436248779297 75.36641693115234 76.81285095214844 79.68701934814453 C 77.79373168945312 85.56055450439453 79.50007629394531 90.4505844116211 77.82537841796875 94.41674041748047 C 75.45648956298828 96.79100036621094 73.1102066040039 97.17082214355469 67.43623352050781 97.13194274902344 C 61.41423034667969 97.53587341308594 57.7779426574707 97.38810729980469 53.25417709350586 96.43907928466797 C 49.46537399291992 95.5721664428711 48.86982727050781 93.63141632080078 49.288848876953125 88.89134216308594 C 49.57955551147461 83.2071533203125 50.651458740234375 77.997314453125 52.4172477722168 71.76206970214844 C 54.50135803222656 64.67472839355469 57.4735107421875 59.87449645996094 62.682464599609375 58.88197708129883 C 69.01849365234375 59.248714447021484 73.28655242919922 57.08309555053711 76.59786224365234 50.450130462646484 C 77.44168090820312 42.760616302490234 69.3754653930664 39.597965240478516 49.392066955566406 41.286869049072266 C 27.710453033447266 43.08596420288086 15.748952865600586 41.93088150024414 11.806256294250488 37.42998123168945 C 12.196098327636719 32.922325134277344 15.074410438537598 30.403766632080078 21.137184143066406 29.600135803222656 C 34.84877014160156 29.868335723876953 55.833961486816406 30.493852615356445 71.83080291748047 31.869190216064453 C 78.049072265625 33.355281829833984 78.65911102294922 34.932926177978516 78.21161651611328 36.842594146728516 C 79.361572265625 38.02510452270508 79.74112701416016 39.47758483886719 78.44107055664062 42.110572814941406" stroke-width="2.0" fill="rgb(252, 194, 27)" opacity="1.0" stroke="rgb(252, 194, 27)" stroke-opacity="1.0" stroke-linecap="round" stroke-linejoin="round"/>
    <path d="M 81.64340209960938 35.61198425292969 C 81.62299346923828 35.62210464477539 81.6463394165039 35.49787521362305 81.91356658935547 35.61729431152344 C 82.4917984008789 37.75949478149414 81.84530639648438 44.04375457763672 79.16535949707031 52.984371185302734 C 77.99697875976562 58.27289962768555 79.23291015625 58.64078140258789 81.34471130371094 59.95346450805664 C 83.02410888671875 64.4272232055664 81.41664123535156 68.95053100585938 77.76094818115234 71.64012145996094 C 77.12272644042969 72.35499572753906 78.38687133789062 72.06722259521484 78.60120391845703 73.69381713867188 C 79.29232025146484 77.14054107666016 80.3621826171875 80.74187469482422 80.76437377929688 85.0621337890625 C 81.81198120117188 89.2591552734375 82.35527038574219 92.33936309814453 80.76248931884766 95.2541275024414 C 79.23707580566406 97.80846405029297 77.90436553955078 98.9422836303711 74.4229965209961 99.31982421875 C 70.78164672851562 99.78418731689453 66.78521728515625 99.80584716796875 59.2634162902832 99.63172912597656 C 53.018062591552734 99.79803466796875 50.85042190551758 99.27241516113281 48.561729431152344 97.70690155029297 C 46.39520263671875 95.69148254394531 45.8129768371582 93.31817626953125 45.98432159423828 89.46237182617188 C 46.50080108642578 84.10955047607422 47.82878875732422 78.57321166992188 48.46805191040039 73.09927368164062 C 46.89390563964844 67.86477661132812 46.26146697998047 63.01763153076172 47.69141387939453 58.59797668457031 C 48.78254699707031 56.21607208251953 48.53620529174805 54.89345169067383 47.5213508605957 51.36033630371094 C 46.26059341430664 45.58974838256836 46.01556396484375 40.75238037109375 45.74269104003906 36.974239349365234 C 44.94082260131836 33.98434066772461 45.29490280151367 32.75251770019531 46.67152786254883 32.60243225097656 C 49.59698486328125 32.15360641479492 55.816856384277344 31.472332000732422 64.4117202758789 30.791757583618164 C 72.135986328125 30.477340698242188 76.99403381347656 30.93358039855957 80.0892562866211 31.329570770263672 C 82.51998138427734 31.4841365814209 83.00294494628906 32.158626556396484 81.93283081054688 33.0197868347168 C 81.67955780029297 33.25470733642578 81.74358367919922 33.074214935302734 81.13067626953125 32.65932083129883" stroke-width="2.0" fill="rgb(255, 0, 0)" opacity="1.0" stroke="rgb(255, 0, 0)" stroke-opacity="1.0" stroke-linecap="round" stroke-linejoin="round"/>
    <path d="M 81.72994232177734 36.24106216430664 C 81.71050262451172 36.25210952758789 81.77596282958984 36.13325881958008 82.07807922363281 36.26449203491211 C 82.45573425292969 38.338504791259766 81.57902526855469 44.406089782714844 79.15125274658203 53.14289855957031 C 78.31084442138672 58.45832443237305 79.3445053100586 59.11494827270508 81.0307846069336 60.85735321044922 C 82.52873992919922 65.5521469116211 81.04395294189453 69.7364730834961 77.5675048828125 71.95854187011719 C 76.88438415527344 72.36691284179688 78.07046508789062 72.01820373535156 78.34061431884766 73.71776580810547 C 79.02493286132812 77.17024993896484 80.11597442626953 80.70191955566406 80.59392547607422 84.94654846191406 C 81.57354736328125 89.13056182861328 82.07957458496094 92.21753692626953 80.62442016601562 95.15911102294922 C 79.16890716552734 97.73212432861328 77.78409576416016 98.8119888305664 74.15495300292969 99.1454086303711 C 70.3138198852539 99.69658660888672 66.2619857788086 99.8646011352539 58.81482696533203 99.69322967529297 C 52.618526458740234 99.74321746826172 50.59278106689453 99.15312194824219 48.47856140136719 97.59132385253906 C 46.33485412597656 95.59306335449219 45.76015853881836 93.22500610351562 46.018775939941406 89.3559799194336 C 46.44154357910156 84.00968170166016 47.59244155883789 78.6233901977539 48.29806900024414 73.5245590209961 C 46.903411865234375 68.67921447753906 45.9261474609375 64.12056732177734 46.98350524902344 59.611568450927734 C 48.23305130004883 57.01044845581055 48.73286056518555 56.1478385925293 48.023258209228516 53.75495147705078 C 46.46711349487305 48.3917236328125 46.35264205932617 43.05413055419922 46.78435134887695 38.597843170166016 C 45.65794372558594 34.76188278198242 45.6295280456543 32.59609603881836 47.189842224121094 31.76134490966797 C 49.275184631347656 31.219392776489258 53.22916030883789 30.59313201904297 59.276615142822266 29.799190521240234 C 66.6667251586914 28.945810317993164 73.71217346191406 28.86149787902832 78.88658905029297 29.587928771972656 C 82.27565002441406 30.461814880371094 82.95597839355469 31.709247589111328 81.78872680664062 33.037322998046875 C 81.49654388427734 33.57422637939453 81.58601379394531 33.580787658691406 80.95307922363281 33.287445068359375" stroke-width="2.0" fill="rgb(0, 255, 0)" opacity="1.0" stroke="rgb(0, 255, 0)" stroke-opacity="1.0" stroke-linecap="round" stroke-linejoin="round"/>
    <path d="M 81.21368408203125 40.36698532104492 C 81.19491577148438 40.379241943359375 81.2270278930664 40.24317932128906 81.74081420898438 40.452659606933594 C 82.31587219238281 42.96592330932617 80.9112777709961 49.0874137878418 79.08409881591797 56.45611572265625 C 80.48622131347656 59.7347297668457 82.23374938964844 60.8526611328125 82.13075256347656 64.32726287841797 C 82.31735229492188 68.37080383300781 81.08330535888672 70.40424346923828 78.6092758178711 71.52202606201172 C 78.38374328613281 71.67106628417969 79.19158935546875 71.36883544921875 79.23231506347656 73.52593231201172 C 80.03308868408203 77.46595001220703 81.18492889404297 81.17243194580078 81.56816101074219 85.48178100585938 C 82.31996154785156 89.79839324951172 82.73078155517578 93.03779602050781 81.403564453125 96.15679931640625 C 79.83370208740234 98.78533172607422 78.03430938720703 99.83065032958984 74.05874633789062 100.15617370605469 C 70.2905044555664 100.7071304321289 66.83305358886719 100.92426300048828 59.918975830078125 100.79350280761719 C 53.63266372680664 100.72113037109375 51.04749298095703 99.92350769042969 48.38251876831055 98.30838012695312 C 45.98335647583008 96.2992172241211 45.34379577636719 93.70951843261719 45.40788269042969 89.67142486572266 C 45.674983978271484 84.51168823242188 46.72970962524414 79.53742218017578 47.77589416503906 74.93363189697266 C 46.950862884521484 70.72909545898438 45.66758346557617 66.65663146972656 46.166908264160156 61.33186340332031 C 47.223628997802734 57.201114654541016 48.232845306396484 55.93465042114258 48.120914459228516 54.2686882019043 C 46.63353729248047 50.0383415222168 46.43831253051758 44.6277961730957 47.58639907836914 39.149051666259766 C 47.338924407958984 34.342960357666016 47.373958587646484 31.62337875366211 47.95740509033203 30.450464248657227 C 48.01685333251953 29.76463508605957 49.16237258911133 28.931238174438477 52.17255783081055 27.934154510498047 C 57.5123405456543 27.083986282348633 64.8891372680664 26.763704299926758 72.63903045654297 27.253793716430664 C 79.10352325439453 28.383888244628906 81.85511779785156 30.319095611572266 81.44817352294922 32.38459396362305 C 81.40381622314453 33.346187591552734 81.7664566040039 33.452728271484375 81.45296478271484 33.22394943237305" stroke-width="2.0" fill="rgb(0, 0, 255)" opacity="1.0" stroke="rgb(0, 0, 255)" stroke-opacity="1.0" stroke-linecap="round" stroke-linejoin="round"/>
  </g>
</svg>
