<?xml version="1.0" ?>
<svg xmlns="http://www.w3.org/2000/svg" version="1.1" width="128" height="128">
  <defs/>
  <g>
    <path d="M 105.18073272705078 39.601593017578125 C 105.17032623291016 39.57925033569336 105.14804077148438 39.627830505371094 105.04055786132812 39.56135940551758 C 103.8623275756836 39.21209716796875 102.39678955078125 38.631507873535156 104.71239471435547 40.39320373535156 C 109.31240844726562 46.987056732177734 111.19593048095703 56.89631652832031 110.78633880615234 68.26113891601562 C 109.56939697265625 79.46407318115234 105.20848846435547 87.4896240234375 98.72651672363281 93.73906707763672 C 95.24236297607422 99.3753433227539 93.80690002441406 102.72412872314453 92.26033782958984 104.21634674072266 C 91.34786987304688 104.389404296875 91.32982635498047 102.806640625 91.3183364868164 99.732666015625 C 91.48040771484375 95.98648834228516 91.91184997558594 91.22484588623047 91.85689544677734 85.92110443115234 C 91.80315399169922 81.19178009033203 91.88619232177734 77.17835998535156 90.6914291381836 75.19995880126953 C 88.2696304321289 75.28732299804688 83.07266998291016 75.43226623535156 70.27323150634766 75.21033477783203 C 54.7529296875 75.27033233642578 45.0302734375 75.3418197631836 39.57684326171875 75.20509338378906 C 35.90751266479492 75.69871520996094 35.28847885131836 77.65202331542969 36.10567855834961 82.08491516113281 C 35.89065170288086 89.28390502929688 35.812957763671875 96.28607940673828 36.32279968261719 100.21088409423828 C 35.87193298339844 101.89640808105469 34.929588317871094 102.086181640625 33.27326965332031 99.9822998046875 C 30.277328491210938 96.65210723876953 27.359577178955078 93.38426208496094 23.875619888305664 88.01399993896484 C 19.451984405517578 80.40876770019531 17.14568519592285 72.44295501708984 16.96633529663086 64.3061294555664 C 16.885866165161133 57.372718811035156 17.89347267150879 52.863792419433594 20.121349334716797 47.76136779785156 C 20.92225456237793 42.769371032714844 22.536035537719727 41.62460708618164 27.387046813964844 40.54396438598633 C 30.193241119384766 35.285247802734375 32.90039825439453 27.540185928344727 43.95842361450195 19.479150772094727 C 58.29706573486328 14.491779327392578 68.2339859008789 14.701342582702637 81.57490539550781 20.592971801757812 C 97.24467468261719 27.853586196899414 106.93309783935547 32.3619499206543 109.68380737304688 35.04811096191406" stroke-width="2.0" fill="rgb(252, 194, 27)" opacity="1.0" stroke="rgb(252, 194, 27)" stroke-opacity="1.0" stroke-linecap="round" stroke-linejoin="round"/>
    <path d="M 108.11997985839844 36.70655822753906 C 108.11248016357422 36.6953239440918 108.0871810913086 36.85529708862305 108.16764831542969 37.49888610839844 C 108.43309783935547 38.98801803588867 109.62647247314453 40.897708892822266 112.05207824707031 42.66609573364258 C 113.48079681396484 44.6742057800293 112.64899444580078 46.95905303955078 112.32160949707031 49.2447509765625 C 113.81831359863281 51.53703308105469 114.8563232421875 53.49744415283203 115.78620147705078 57.9257926940918 C 116.53126525878906 66.78912353515625 115.12773895263672 75.7329330444336 111.62555694580078 82.89629364013672 C 108.11915588378906 90.489013671875 104.14389038085938 97.6576919555664 97.98916625976562 103.57243347167969 C 93.15324401855469 106.96573638916016 91.13683319091797 108.49884033203125 89.34070587158203 110.10087585449219 C 89.10855865478516 111.93617248535156 87.99989318847656 113.25192260742188 81.40973663330078 114.96290588378906 C 75.33517456054688 116.85250091552734 72.12075805664062 117.69375610351562 64.76278686523438 117.82510375976562 C 56.83909225463867 117.68299865722656 51.83934020996094 116.50665283203125 44.74396514892578 114.22007751464844 C 38.433162689208984 111.84600830078125 36.34441375732422 109.2384033203125 33.050907135009766 105.66637420654297 C 27.057497024536133 101.62701416015625 22.49415397644043 96.05792236328125 18.773672103881836 88.320556640625 C 14.432948112487793 81.43221282958984 12.624897003173828 75.6578598022461 12.65035343170166 66.6233901977539 C 11.436418533325195 56.882694244384766 12.091068267822266 51.14194107055664 16.881778717041016 45.11064910888672 C 23.250123977661133 37.05988311767578 28.550865173339844 28.63865089416504 34.99325180053711 21.272424697875977 C 40.20585632324219 16.949007034301758 43.147926330566406 15.391214370727539 49.60519027709961 13.866832733154297 C 57.074947357177734 12.004228591918945 61.58015060424805 11.516861915588379 67.97052764892578 12.34614086151123 C 77.08927154541016 13.432798385620117 83.24756622314453 15.142838478088379 87.0499267578125 17.202350616455078 C 91.41956329345703 19.02376365661621 94.69361877441406 21.307966232299805 97.35734558105469 24.05634880065918 C 100.11546325683594 26.39154052734375 101.65834045410156 28.497337341308594 103.20963287353516 30.468408584594727" stroke-width="2.0" fill="rgb(255, 0, 0)" opacity="1.0" stroke="rgb(255, 0, 0)" stroke-opacity="1.0" stroke-linecap="round" stroke-linejoin="round"/>
    <path d="M 107.82251739501953 36.23405456542969 C 107.8223648071289 36.222686767578125 107.775146484375 36.37373733520508 107.80775451660156 36.983890533447266 C 108.11591339111328 38.47053527832031 109.6221694946289 40.47039794921875 112.39383697509766 42.360321044921875 C 113.96255493164062 44.27490997314453 113.11396026611328 46.45696258544922 112.69434356689453 48.66801071166992 C 114.09305572509766 50.93538284301758 115.06819152832031 53.06191635131836 115.9380874633789 57.6324577331543 C 116.62044525146484 66.73908233642578 115.13863372802734 76.00790405273438 111.44053649902344 83.40636444091797 C 107.78868103027344 91.17898559570312 103.80135345458984 98.08504486083984 97.60724639892578 103.69654083251953 C 92.8643569946289 106.90774536132812 90.97953796386719 108.43527221679688 89.38307189941406 110.15745544433594 C 89.34351348876953 112.08392333984375 88.49417877197266 113.45809173583984 82.19549560546875 115.22705841064453 C 76.17536163330078 117.19477844238281 72.80952453613281 118.14827728271484 65.00350189208984 118.38855743408203 C 56.70264434814453 118.32074737548828 51.78604507446289 117.1441421508789 44.699928283691406 114.84651184082031 C 38.408470153808594 112.55718994140625 36.79246520996094 109.8662338256836 33.859920501708984 106.0063705444336 C 27.5938720703125 101.8946762084961 22.486677169799805 96.21780395507812 18.341585159301758 87.79238891601562 C 13.8321533203125 79.85753631591797 11.975692749023438 73.5583267211914 12.433588027954102 64.40460205078125 C 11.879171371459961 54.661014556884766 12.70389461517334 48.9466438293457 17.35585594177246 42.337764739990234 C 23.37626838684082 32.77010726928711 28.22874641418457 24.883399963378906 35.58743667602539 19.8535213470459 C 40.97928237915039 16.52899932861328 43.588890075683594 15.081202507019043 49.723628997802734 13.636470794677734 C 56.30645751953125 11.895509719848633 59.570579528808594 11.310235023498535 64.6283187866211 11.67382526397705 C 72.0965805053711 12.11483097076416 77.798583984375 13.329864501953125 83.28914642333984 15.243717193603516 C 88.56436157226562 16.8377742767334 91.58265686035156 19.056909561157227 94.7106704711914 22.019746780395508 C 98.69458770751953 24.296875 100.5246353149414 26.53298568725586 101.60269165039062 28.860328674316406" stroke-width="2.0" fill="rgb(0, 255, 0)" opacity="1.0" stroke="rgb(0, 255, 0)" stroke-opacity="1.0" stroke-linecap="round" stroke-linejoin="round"/>
    <path d="M 107.58665466308594 35.84336853027344 C 107.6059341430664 35.81809997558594 107.50725555419922 35.97840881347656 107.74537658691406 36.71019744873047 C 108.53529357910156 38.46187210083008 110.22650146484375 40.4965705871582 112.46636962890625 42.855369567871094 C 113.48592376708984 45.701942443847656 112.7359390258789 47.98420715332031 113.09170532226562 50.15272903442383 C 115.09194946289062 52.24284744262695 115.93110656738281 54.25649642944336 116.06353759765625 59.516151428222656 C 116.23839569091797 68.67694854736328 114.57462310791016 77.36092376708984 110.70464324951172 85.45188903808594 C 107.15986633300781 93.7799072265625 102.93903350830078 99.37045288085938 96.26514434814453 103.27510070800781 C 91.75164794921875 105.76779174804688 90.7181625366211 107.45784759521484 89.78958892822266 109.44511413574219 C 90.01651000976562 111.47135925292969 89.9322280883789 112.79566192626953 84.70792388916016 114.3715591430664 C 78.97846984863281 116.38617706298828 75.4351577758789 117.66268920898438 67.63475036621094 118.40072631835938 C 59.7729377746582 118.74393463134766 55.17431640625 117.74284362792969 47.23564147949219 115.54364013671875 C 40.039947509765625 113.58292388916016 38.38474655151367 111.27727508544922 36.2821159362793 107.58250427246094 C 30.638076782226562 103.89572143554688 24.965444564819336 99.28816223144531 19.851991653442383 90.83341979980469 C 14.69493293762207 81.94617462158203 12.411979675292969 75.10179138183594 12.546280860900879 66.06077575683594 C 11.865942001342773 56.20621871948242 12.3616361618042 50.429195404052734 15.419317245483398 45.39792251586914 C 17.75804901123047 40.098453521728516 21.957008361816406 34.281837463378906 30.248559951782227 25.81393051147461 C 34.27703857421875 19.969717025756836 36.42763900756836 18.103599548339844 43.75929641723633 16.314687728881836 C 48.71854782104492 13.975488662719727 49.1717529296875 13.043726921081543 53.78034210205078 12.411458969116211 C 60.436248779296875 11.302545547485352 63.39763641357422 11.044909477233887 68.41639709472656 11.823274612426758 C 77.88394927978516 13.061869621276855 84.49244689941406 15.058850288391113 87.89644622802734 17.87627601623535 C 92.81453704833984 20.44068145751953 97.85237884521484 22.415660858154297 99.76630401611328 24.547290802001953" stroke-width="2.0" fill="rgb(0, 0, 255)" opacity="1.0" stroke="rgb(0, 0, 255)" stroke-opacity="1.0" stroke-linecap="round" stroke-linejoin="round"/>
  </g>
</svg>
