<?xml version="1.0" ?>
<svg xmlns="http://www.w3.org/2000/svg" version="1.1" width="128" height="128">
  <defs/>
  <g>
    <path d="M 0.021554376929998398 122.43405151367188 C 0.02159000188112259 122.43283081054688 0.021509680896997452 122.4561767578125 0.021713584661483765 122.55558013916016 C 0.02224079892039299 122.68318939208984 0.023027637973427773 122.62962341308594 0.023664673790335655 122.13262939453125 C 0.024375438690185547 120.54973602294922 0.02344978228211403 117.30409240722656 0.022325363010168076 111.99860382080078 C 0.021077025681734085 104.01667785644531 0.02189951203763485 92.62109375 0.0265408493578434 76.33744049072266 C 0.036093443632125854 52.466522216796875 0.0523650236427784 28.384117126464844 0.08125888556241989 13.820562362670898 C 0.12348362058401108 6.987738609313965 0.15856386721134186 4.040129661560059 0.18557389080524445 2.4668595790863037 C 0.2332150936126709 1.6116358041763306 0.31680890917778015 1.1109793186187744 0.462115615606308 0.8345770239830017 C 0.7015327215194702 0.6574808359146118 1.0523087978363037 0.5164219737052917 1.5738542079925537 0.3929290771484375 C 2.413503646850586 0.2945733964443207 3.625741481781006 0.2282332181930542 5.409220218658447 0.1875842660665512 C 8.372057914733887 0.1604005992412567 13.236278533935547 0.14471405744552612 21.456592559814453 0.14106325805187225 C 35.66630172729492 0.14149978756904602 56.94235610961914 0.1465301364660263 82.16926574707031 0.16005492210388184 C 103.1236343383789 0.1702682226896286 115.090087890625 0.18383318185806274 121.55276489257812 0.20072808861732483 C 124.78974151611328 0.2331198751926422 126.1895523071289 0.29280734062194824 126.86739349365234 0.3811790645122528 C 127.26760864257812 0.5025210380554199 127.48020935058594 0.6800315976142883 127.61425018310547 1.0039352178573608 C 127.71581268310547 1.6658284664154053 127.78186798095703 2.9805126190185547 127.82992553710938 5.699706077575684 C 127.8715591430664 11.348528861999512 127.90109252929688 21.262378692626953 127.9188003540039 37.37976837158203 C 127.93091583251953 60.74945831298828 127.93114471435547 87.35350036621094 127.92178344726562 109.07352447509766 C 127.9168472290039 120.98915100097656 127.89875030517578 125.22059631347656 127.83087921142578 126.58431243896484 C 127.65306091308594 127.09228515625 127.11296844482422 127.31652069091797 124.95098876953125 127.41468811035156 C 115.17499542236328 127.43363952636719 76.09595489501953 127.40170288085938 22.15949249267578 127.32405090332031" stroke-width="2.0" fill="rgb(252, 194, 27)" opacity="1.0" stroke="rgb(252, 194, 27)" stroke-opacity="1.0" stroke-linecap="round" stroke-linejoin="round"/>
    <path d="M 47.70152282714844 85.84495544433594 C 47.716644287109375 85.84578704833984 47.56056594848633 85.8819808959961 47.43836975097656 86.40005493164062 C 48.27545166015625 87.35105895996094 51.231807708740234 87.6171646118164 57.408775329589844 87.68051147460938 C 65.48966217041016 88.59597778320312 72.46166229248047 89.14459228515625 78.66556549072266 88.85294342041016 C 83.9677505493164 87.89163208007812 86.19994354248047 85.13365936279297 86.48490142822266 82.0798568725586 C 86.99458312988281 80.62317657470703 87.47162628173828 80.0311508178711 87.1843490600586 79.6693115234375 C 87.17829895019531 79.27793884277344 87.99192810058594 77.74037170410156 88.54059600830078 74.77161407470703 C 88.4365463256836 71.61973571777344 87.36951446533203 69.49047088623047 84.60356140136719 68.84923553466797 C 80.6554946899414 69.20071411132812 77.36358642578125 69.42122650146484 75.09502410888672 69.46963500976562 C 73.0668716430664 69.17205810546875 72.1460189819336 67.8435287475586 72.30561065673828 65.85811614990234 C 72.6469955444336 64.39999389648438 73.90335083007812 63.99076843261719 76.46382141113281 63.80121612548828 C 79.39781951904297 63.410179138183594 83.31356048583984 63.27682113647461 88.57523345947266 63.17500305175781 C 93.31723022460938 62.67232131958008 96.84933471679688 62.61799621582031 99.42222595214844 63.417354583740234 C 100.75504302978516 64.45708465576172 100.90081787109375 65.52444458007812 100.76786804199219 66.95255279541016 C 100.67988586425781 68.27957153320312 100.04694366455078 69.08975982666016 98.7194595336914 69.5501708984375 C 96.59725952148438 69.55281066894531 93.59806823730469 69.3577651977539 90.69336700439453 69.808349609375 C 88.98617553710938 71.12321472167969 88.24894714355469 73.77762603759766 87.85903930664062 77.8165283203125 C 87.01522064208984 81.73096466064453 84.71907043457031 85.31666564941406 81.83975219726562 88.72036743164062 C 79.68475341796875 90.97801208496094 77.40409851074219 91.81612396240234 74.50346374511719 92.06177520751953 C 71.1439208984375 92.09500122070312 66.45980834960938 91.8808822631836 61.034324645996094 91.9658432006836 C 56.12608337402344 92.58328247070312 52.1055908203125 92.68553924560547 49.4888801574707 92.1158447265625" stroke-width="2.0" fill="rgb(255, 0, 0)" opacity="1.0" stroke="rgb(255, 0, 0)" stroke-opacity="1.0" stroke-linecap="round" stroke-linejoin="round"/>
    <path d="M 0.06980957835912704 112.72650146484375 C 0.06979048997163773 112.73712158203125 0.06977449357509613 112.73218536376953 0.06973037868738174 112.76342010498047 C 0.06975094974040985 112.8211441040039 0.06877432763576508 112.9219741821289 0.06564708799123764 113.05709075927734 C 0.060803744941949844 113.41213989257812 0.05637620389461517 113.79585266113281 0.05390932410955429 113.77754974365234 C 0.05318649858236313 113.35301208496094 0.05281585082411766 112.63179016113281 0.05193418264389038 111.87348937988281 C 0.05065704137086868 111.54669952392578 0.04892349988222122 111.43286895751953 0.04677928611636162 111.19734954833984 C 0.04455998167395592 111.1695556640625 0.04242335259914398 111.26417541503906 0.040437906980514526 111.2470932006836 C 0.03878314793109894 111.35713958740234 0.03743451461195946 111.4813461303711 0.036297839134931564 111.44349670410156 C 0.0353652685880661 111.47260284423828 0.03458741679787636 111.58334350585938 0.03393226116895676 111.68999481201172 C 0.033375002443790436 111.95803833007812 0.03283531218767166 112.3142318725586 0.03230539336800575 112.57727813720703 C 0.031825751066207886 112.87103271484375 0.031432248651981354 113.3051528930664 0.031312212347984314 113.71461486816406 C 0.03150494396686554 114.01110076904297 0.031994178891181946 114.2711410522461 0.03284943476319313 114.45321655273438 C 0.034155379980802536 114.56355285644531 0.03605320304632187 114.77445983886719 0.03904116526246071 115.04634857177734 C 0.0433979332447052 115.21363830566406 0.048745665699243546 115.36064910888672 0.05513064190745354 115.51664733886719 C 0.06291904300451279 115.52519226074219 0.07191118597984314 115.47727966308594 0.08316303044557571 115.460693359375 C 0.09788938611745834 115.21431732177734 0.1142047792673111 114.83120727539062 0.13070669770240784 114.60133361816406 C 0.14804892241954803 114.35938262939453 0.163743793964386 114.09577178955078 0.17659926414489746 114.04043579101562 C 0.18893644213676453 114.02127075195312 0.19895832240581512 113.93701171875 0.20552469789981842 113.99300384521484 C 0.211320161819458 114.13228607177734 0.2144048511981964 114.17301177978516 0.2128189355134964 114.17438507080078 C 0.20901012420654297 114.22305297851562 0.20199966430664062 114.2047119140625 0.19047611951828003 114.11138916015625 C 0.1775929033756256 114.1264419555664 0.16444389522075653 114.15935516357422 0.15011227130889893 114.00654602050781" stroke-width="2.0" fill="rgb(0, 255, 0)" opacity="1.0" stroke="rgb(0, 255, 0)" stroke-opacity="1.0" stroke-linecap="round" stroke-linejoin="round"/>
    <path d="M 0.0074269589968025684 114.42935943603516 C 0.007430260069668293 114.42985534667969 0.007423666305840015 114.42414855957031 0.007426640018820763 114.38687896728516 C 0.007436519488692284 114.28858184814453 0.007466449402272701 114.26134490966797 0.007525422610342503 114.40184020996094 C 0.007598674390465021 114.5106430053711 0.007576923351734877 114.5953369140625 0.007448705844581127 114.76976013183594 C 0.0073511977680027485 114.90496063232422 0.007297638803720474 114.97685241699219 0.007196498569101095 115.1176986694336 C 0.007085568271577358 115.25949096679688 0.006965778302401304 115.33316040039062 0.006814262364059687 115.44705963134766 C 0.0067170788533985615 115.56036376953125 0.0066622416488826275 115.60330963134766 0.006578741129487753 115.69072723388672 C 0.006547809578478336 115.81259155273438 0.006570345722138882 115.88166046142578 0.006580554414540529 115.93982696533203 C 0.006656634155660868 115.99760437011719 0.006790423300117254 116.06117248535156 0.006926504895091057 116.13529205322266 C 0.007140641566365957 116.13312530517578 0.0074189105071127415 116.06515502929688 0.007709435652941465 116.04666137695312 C 0.008061648346483707 116.02239990234375 0.008398440666496754 115.94264221191406 0.008663464337587357 115.8957290649414 C 0.008948500268161297 115.85687255859375 0.009195378050208092 115.76876068115234 0.009344280697405338 115.68754577636719 C 0.009484345093369484 115.6055679321289 0.009577174670994282 115.54243469238281 0.009521707892417908 115.5403823852539 C 0.009320953860878944 115.53803253173828 0.008969362825155258 115.5398941040039 0.008522801101207733 115.66178894042969 C 0.00811823457479477 115.77333068847656 0.007696059066802263 115.83757781982422 0.007268066983669996 115.96540832519531 C 0.006955509539693594 116.04188537597656 0.006683527957648039 116.10477447509766 0.00638151541352272 116.19482421875 C 0.0061013768427073956 116.21363830566406 0.005834887735545635 116.19760131835938 0.005562892183661461 116.30335998535156 C 0.005353378131985664 116.38353729248047 0.005184519104659557 116.3597640991211 0.005031818524003029 116.35302734375 C 0.004926241468638182 116.3106918334961 0.004843247588723898 116.25999450683594 0.004790774080902338 116.3143081665039 C 0.004821390379220247 116.31765747070312 0.0049061947502195835 116.21940612792969 0.005018439143896103 116.16849517822266 C 0.005210744217038155 116.08135223388672 0.005468327552080154 115.9207763671875 0.0057622999884188175 115.84017944335938" stroke-width="2.0" fill="rgb(0, 0, 255)" opacity="1.0" stroke="rgb(0, 0, 255)" stroke-opacity="1.0" stroke-linecap="round" stroke-linejoin="round"/>
  </g>
</svg>
