<?xml version="1.0" ?>
<svg xmlns="http://www.w3.org/2000/svg" version="1.1" width="128" height="128">
  <defs/>
  <g>
    <path d="M 0.0090411975979805 123.88436126708984 C 0.00905880331993103 123.88285064697266 0.009026922285556793 123.90181732177734 0.009125564247369766 123.97856903076172 C 0.009353606030344963 124.05633544921875 0.009480727836489677 123.97845458984375 0.009197753854095936 123.62230682373047 C 0.009001675061881542 122.70255279541016 0.009623452089726925 121.03145599365234 0.011556562036275864 118.41230773925781 C 0.013898893259465694 114.45684051513672 0.015204266645014286 107.47413635253906 0.01621885970234871 97.46952056884766 C 0.0199477206915617 82.77205657958984 0.026064038276672363 58.795265197753906 0.03582845255732536 31.2007999420166 C 0.054235298186540604 13.570639610290527 0.08430414646863937 5.8802642822265625 0.11438697576522827 2.879276752471924 C 0.14052535593509674 1.6623564958572388 0.18023711442947388 1.0634632110595703 0.25264057517051697 0.725768506526947 C 0.3985588550567627 0.5364185571670532 0.6566355228424072 0.39764201641082764 1.0930463075637817 0.2916843593120575 C 1.7970198392868042 0.21944685280323029 2.9399819374084473 0.17400339245796204 5.03679084777832 0.14479024708271027 C 8.980308532714844 0.12405140697956085 15.833747863769531 0.1125250831246376 27.60665512084961 0.1089811846613884 C 45.92292022705078 0.10899769514799118 70.32376861572266 0.11227286607027054 94.62654113769531 0.12049379199743271 C 111.32445526123047 0.1289345622062683 119.7793960571289 0.1383163183927536 123.8790283203125 0.15750078856945038 C 125.84191131591797 0.19453050196170807 126.71128845214844 0.24701637029647827 127.16918182373047 0.3192482888698578 C 127.4699478149414 0.4399781823158264 127.64907836914062 0.653275191783905 127.76322937011719 1.063204288482666 C 127.83586120605469 1.904048204421997 127.87813568115234 3.615760564804077 127.90509796142578 7.23300838470459 C 127.93062591552734 14.825199127197266 127.94676971435547 28.133195877075195 127.95466613769531 48.57705307006836 C 127.96049499511719 76.74070739746094 127.9591064453125 103.17296600341797 127.95492553710938 118.47608947753906 C 127.9476547241211 124.4098892211914 127.9200210571289 126.31967163085938 127.84596252441406 126.98319244384766 C 127.6551513671875 127.27405548095703 126.95780181884766 127.41688537597656 123.56854248046875 127.45357513427734 C 106.9114990234375 127.4576416015625 54.86073303222656 127.42733001708984 11.845118522644043 127.36528778076172" stroke-width="2.0" fill="rgb(252, 194, 27)" opacity="1.0" stroke="rgb(252, 194, 27)" stroke-opacity="1.0" stroke-linecap="round" stroke-linejoin="round"/>
    <path d="M 30.59250831604004 69.33168029785156 C 30.604602813720703 69.31739807128906 30.60592269897461 69.25440979003906 30.80803108215332 69.04953002929688 C 31.949941635131836 68.62830352783203 35.51518630981445 68.59896087646484 42.492950439453125 69.6929931640625 C 51.85352325439453 71.38968658447266 60.823265075683594 72.84732818603516 66.01092529296875 74.45294189453125 C 67.59546661376953 75.90425109863281 66.99800109863281 76.89116668701172 65.05330657958984 77.1344223022461 C 63.273284912109375 76.1692886352539 62.79030227661133 74.05255889892578 63.12602996826172 71.49274444580078 C 63.89910125732422 68.72700500488281 65.03317260742188 66.12791442871094 66.35203552246094 63.796661376953125 C 67.64969635009766 61.70146179199219 69.31438446044922 60.062381744384766 70.84931945800781 59.010536193847656 C 71.38409423828125 58.16387939453125 71.41241455078125 57.44396209716797 70.95549774169922 56.54158020019531 C 69.840576171875 54.99385452270508 69.09225463867188 52.71992492675781 69.10108947753906 49.8341064453125 C 69.56045532226562 46.7136116027832 70.58747863769531 44.09965133666992 72.33500671386719 42.322452545166016 C 74.13764953613281 41.05914306640625 76.04570007324219 40.48563766479492 78.3092041015625 40.592491149902344 C 80.33518981933594 41.217777252197266 81.8985824584961 42.829010009765625 83.18798065185547 45.29180908203125 C 84.06537628173828 47.53450012207031 84.19129180908203 49.43525314331055 83.71748352050781 51.65719223022461 C 82.97853088378906 53.68507385253906 81.87154388427734 55.39976501464844 80.46495819091797 57.13815689086914 C 79.16613006591797 58.30205535888672 77.92355346679688 58.753395080566406 76.26092529296875 58.644676208496094 C 74.29087829589844 58.04848861694336 72.34217071533203 58.33153533935547 70.40409088134766 59.92487335205078 C 68.38033294677734 61.700252532958984 66.46715545654297 64.34241485595703 64.99966430664062 68.06783294677734 C 64.00988006591797 70.78278350830078 63.72096252441406 72.3095474243164 64.85348510742188 73.89798736572266 C 66.94305419921875 74.68875122070312 68.71138763427734 74.44867706298828 70.53646850585938 75.04588317871094 C 71.25242614746094 76.19981384277344 66.83672332763672 75.98464965820312 56.92544937133789 74.26215362548828" stroke-width="2.0" fill="rgb(255, 0, 0)" opacity="1.0" stroke="rgb(255, 0, 0)" stroke-opacity="1.0" stroke-linecap="round" stroke-linejoin="round"/>
    <path d="M 0.2992832660675049 108.07733154296875 C 0.2990880012512207 108.09300994873047 0.2991510331630707 108.0828628540039 0.2986215353012085 108.1314468383789 C 0.29779842495918274 108.24700164794922 0.2909517288208008 108.39175415039062 0.2731478810310364 108.5166244506836 C 0.24713701009750366 108.92078399658203 0.224343404173851 109.37848663330078 0.21182748675346375 109.35597229003906 C 0.2075330913066864 108.82264709472656 0.20454059541225433 107.89895629882812 0.19868522882461548 106.97266387939453 C 0.1904156357049942 106.61988830566406 0.18054428696632385 106.5694351196289 0.1706525832414627 106.45330810546875 C 0.16275908052921295 106.54226684570312 0.15635842084884644 106.61713409423828 0.15048322081565857 106.58130645751953 C 0.14623750746250153 106.80673217773438 0.1437123715877533 106.95865631103516 0.14188170433044434 106.80673217773438 C 0.14057421684265137 106.7510986328125 0.13940612971782684 106.73955535888672 0.13781756162643433 106.67533874511719 C 0.1357061117887497 106.93746948242188 0.13306565582752228 107.43958282470703 0.13018232583999634 107.79439544677734 C 0.12725479900836945 108.1069564819336 0.12431726604700089 108.57093048095703 0.12206421047449112 109.04273223876953 C 0.12119826674461365 109.44569396972656 0.1224270835518837 109.88609313964844 0.1259612888097763 110.26041412353516 C 0.13144464790821075 110.50117492675781 0.13883055746555328 110.83445739746094 0.149422287940979 111.2281265258789 C 0.16342563927173615 111.4494857788086 0.17967191338539124 111.6596450805664 0.20054514706134796 111.83767700195312 C 0.22841526567935944 111.72230529785156 0.262695848941803 111.59672546386719 0.3062412142753601 111.56239318847656 C 0.3598325252532959 111.15721893310547 0.4134330451488495 110.64112854003906 0.46435606479644775 110.51537322998047 C 0.5194486379623413 110.35076141357422 0.5728520154953003 110.08739471435547 0.62213134765625 110.18829345703125 C 0.6748276352882385 110.41862487792969 0.7239765524864197 110.470458984375 0.7659587860107422 110.56368255615234 C 0.8083033561706543 110.72714233398438 0.838333010673523 110.7087631225586 0.8458561897277832 110.54383087158203 C 0.8428197503089905 110.4345474243164 0.8294974565505981 110.30077362060547 0.798826277256012 110.15339660644531 C 0.759894073009491 110.17378997802734 0.7150945663452148 110.14676666259766 0.6614544987678528 109.93647003173828" stroke-width="2.0" fill="rgb(0, 255, 0)" opacity="1.0" stroke="rgb(0, 255, 0)" stroke-opacity="1.0" stroke-linecap="round" stroke-linejoin="round"/>
    <path d="M 0.007013723254203796 114.42668914794922 C 0.007016018033027649 114.42609405517578 0.007010687608271837 114.42047119140625 0.007012018468230963 114.38276672363281 C 0.007019880227744579 114.28837585449219 0.007039172574877739 114.25000762939453 0.007082893513143063 114.40464782714844 C 0.007161399349570274 114.52316284179688 0.00715570617467165 114.59130096435547 0.007038373500108719 114.71684265136719 C 0.0069276406429708 114.81940460205078 0.0068391310051083565 114.92488861083984 0.006716880481690168 115.08838653564453 C 0.006619981024414301 115.2728500366211 0.006503247190266848 115.38739013671875 0.0063403393141925335 115.50591278076172 C 0.006237066350877285 115.62283325195312 0.006182821001857519 115.68221282958984 0.006106627639383078 115.76477813720703 C 0.006086952984333038 115.86835479736328 0.006109609734266996 115.91792297363281 0.00610830495133996 115.96920776367188 C 0.006157695781439543 116.03689575195312 0.006264008581638336 116.10442352294922 0.0063886758871376514 116.18221282958984 C 0.006605571135878563 116.20217895507812 0.006884018424898386 116.16019439697266 0.007178205065429211 116.1378402709961 C 0.007541528902947903 116.0794906616211 0.007891359739005566 115.9820327758789 0.008168400265276432 115.93328094482422 C 0.00847349688410759 115.8956527709961 0.0087587283924222 115.80538177490234 0.00896318070590496 115.71827697753906 C 0.009174758568406105 115.64437103271484 0.009324830956757069 115.59126281738281 0.009346053935587406 115.59859466552734 C 0.00928029790520668 115.56273651123047 0.009069650433957577 115.50607299804688 0.00872191321104765 115.55949401855469 C 0.008351791650056839 115.63926696777344 0.007944781333208084 115.6944808959961 0.007524360436946154 115.8300552368164 C 0.007183539681136608 115.91461944580078 0.0068799820728600025 115.94940948486328 0.006572157144546509 116.033935546875 C 0.006285604555159807 116.0536880493164 0.005974516272544861 116.03271484375 0.0056968326680362225 116.10627746582031 C 0.005502223968505859 116.11883544921875 0.00533774308860302 116.06461334228516 0.005165173672139645 116.11185455322266 C 0.005040761083364487 116.12736511230469 0.004947073291987181 116.08604431152344 0.004856294021010399 116.12256622314453 C 0.004834023304283619 116.1169662475586 0.004872279241681099 116.03694152832031 0.004965540487319231 116.00374603271484 C 0.005154790822416544 115.9112548828125 0.005398801062256098 115.75617980957031 0.0056800697930157185 115.67798614501953" stroke-width="2.0" fill="rgb(0, 0, 255)" opacity="1.0" stroke="rgb(0, 0, 255)" stroke-opacity="1.0" stroke-linecap="round" stroke-linejoin="round"/>
  </g>
</svg>
