<?xml version="1.0" ?>
<svg xmlns="http://www.w3.org/2000/svg" version="1.1" width="128" height="128">
  <defs/>
  <g>
    <path d="M 0.01019881572574377 124.79723358154297 C 0.010218841023743153 124.79714965820312 0.010182403028011322 124.8090591430664 0.010290068574249744 124.85746002197266 C 0.010429350659251213 124.87773132324219 0.010229566134512424 124.7911605834961 0.009393920190632343 124.53292846679688 C 0.008357319980859756 123.88026428222656 0.007991451770067215 122.7327651977539 0.009101568721234798 121.23478698730469 C 0.011185952462255955 118.66000366210938 0.013004997745156288 114.06310272216797 0.014529882930219173 106.70954895019531 C 0.01656983606517315 96.11181640625 0.019505128264427185 80.67196655273438 0.022587597370147705 55.48506164550781 C 0.0284818634390831 28.643096923828125 0.03792634606361389 12.61627197265625 0.05220508202910423 5.516815185546875 C 0.06499135494232178 2.6945250034332275 0.07891044020652771 1.453919768333435 0.11093131452798843 0.8587990999221802 C 0.172801211476326 0.5324525833129883 0.27119919657707214 0.3518117070198059 0.4324962794780731 0.2515478730201721 C 0.7278937697410583 0.18202900886535645 1.279198408126831 0.1336163431406021 2.432135820388794 0.10416088998317719 C 5.109574317932129 0.08878686279058456 10.95759391784668 0.0788157731294632 24.038700103759766 0.07335741817951202 C 47.32722091674805 0.06978516280651093 74.98936462402344 0.0689411610364914 98.5943374633789 0.07204430550336838 C 113.687255859375 0.07580099254846573 121.07439422607422 0.07937626540660858 124.5213851928711 0.08811181038618088 C 126.18299102783203 0.10764060169458389 126.95124816894531 0.13845723867416382 127.350830078125 0.18253928422927856 C 127.59888458251953 0.2571273446083069 127.74132537841797 0.3915708363056183 127.8289794921875 0.6481322646141052 C 127.88449096679688 1.1726839542388916 127.91661834716797 2.277047872543335 127.93699645996094 4.7658820152282715 C 127.95457458496094 10.596365928649902 127.9657974243164 21.96068000793457 127.97187042236328 40.660804748535156 C 127.9763412475586 68.74647521972656 127.97669219970703 98.26874542236328 127.97489166259766 116.90158081054688 C 127.97003936767578 124.26498413085938 127.95114135742188 126.40679931640625 127.90072631835938 127.06722259521484 C 127.77503967285156 127.33257293701172 127.33402252197266 127.45452880859375 125.24993896484375 127.48175048828125 C 114.81207275390625 127.48786926269531 73.1151123046875 127.47943878173828 19.763229370117188 127.44786071777344" stroke-width="2.0" fill="rgb(252, 194, 27)" opacity="1.0" stroke="rgb(252, 194, 27)" stroke-opacity="1.0" stroke-linecap="round" stroke-linejoin="round"/>
    <path d="M 56.04459762573242 69.83989715576172 C 56.082801818847656 69.82476043701172 56.01655197143555 69.72847747802734 56.46942901611328 69.58211517333984 C 59.00799560546875 68.99317169189453 64.42005157470703 67.3875732421875 70.09089660644531 65.50499725341797 C 74.10498809814453 65.83184051513672 76.67559051513672 67.65826416015625 79.13037109375 69.41939544677734 C 81.44755554199219 70.19010162353516 82.79706573486328 69.60126495361328 83.13192749023438 68.2448501586914 C 82.14393615722656 66.53487396240234 79.7204818725586 64.87152862548828 76.31707000732422 63.49642562866211 C 73.33180236816406 61.74687957763672 72.48224639892578 59.30500793457031 73.24129486083984 56.58417892456055 C 73.5674819946289 53.77843475341797 73.41554260253906 50.93464279174805 73.14539337158203 48.040618896484375 C 72.05126190185547 45.44617462158203 70.09159088134766 43.59417724609375 67.80792999267578 41.89806365966797 C 65.54405975341797 39.7247428894043 64.10601043701172 37.318275451660156 63.804744720458984 35.116668701171875 C 63.732913970947266 33.26089859008789 63.71798324584961 31.8669376373291 64.25460815429688 30.915271759033203 C 65.17643737792969 30.429752349853516 66.75148010253906 30.655683517456055 69.21844482421875 31.480796813964844 C 71.90449523925781 32.462745666503906 74.87902069091797 33.56709671020508 78.28135681152344 34.6114387512207 C 80.973388671875 35.31775665283203 82.43167877197266 35.88048553466797 83.05036163330078 36.72607421875 C 82.9933853149414 37.81794738769531 82.34092712402344 39.09831237792969 81.28551483154297 40.48670959472656 C 80.05012512207031 41.68857955932617 78.74176025390625 42.737144470214844 77.31222534179688 43.564998626708984 C 75.92286682128906 43.930667877197266 74.7603759765625 44.141395568847656 73.65184783935547 44.42131805419922 C 72.7436294555664 44.67879867553711 72.48824310302734 45.49431228637695 72.90438842773438 47.21896743774414 C 73.35342407226562 48.83991622924805 73.53034973144531 50.14506149291992 73.79383850097656 51.9747428894043 C 73.97427368164062 54.108154296875 73.48157501220703 56.37213134765625 73.00865936279297 59.038753509521484 C 72.89132690429688 60.96302032470703 72.13914489746094 61.34516906738281 69.67698669433594 61.80634307861328" stroke-width="2.0" fill="rgb(255, 0, 0)" opacity="1.0" stroke="rgb(255, 0, 0)" stroke-opacity="1.0" stroke-linecap="round" stroke-linejoin="round"/>
    <path d="M 25.365001678466797 88.10169219970703 C 25.367616653442383 88.10148620605469 25.34699249267578 88.04090881347656 25.323627471923828 87.8856430053711 C 25.54730987548828 88.19888305664062 26.482196807861328 89.31417846679688 28.39151382446289 90.71326446533203 C 30.57117462158203 91.26034545898438 32.12063217163086 90.12785339355469 32.589847564697266 88.03052520751953 C 31.845623016357422 86.63499450683594 30.217676162719727 85.97953796386719 28.68026351928711 85.39450073242188 C 27.685449600219727 84.9966812133789 26.770296096801758 84.6331787109375 25.837650299072266 84.279052734375 C 25.245433807373047 84.20247650146484 24.80660057067871 83.97590637207031 24.207202911376953 83.53408813476562 C 23.665435791015625 83.54522705078125 23.219057083129883 83.59131622314453 22.745586395263672 83.28641510009766 C 22.533851623535156 83.42129516601562 22.834453582763672 83.75047302246094 23.43610954284668 83.65546417236328 C 24.245864868164062 83.68675994873047 25.352798461914062 83.878173828125 26.61683464050293 83.86248016357422 C 28.157888412475586 84.19992065429688 30.34087371826172 85.17221069335938 33.37947463989258 85.94221496582031 C 37.25332260131836 86.05824279785156 41.540321350097656 86.00535583496094 45.39265441894531 86.12754821777344 C 48.355125427246094 86.34661102294922 50.741886138916016 86.98654174804688 52.861228942871094 87.87300872802734 C 53.716636657714844 88.40331268310547 52.90890884399414 89.16129302978516 50.93635559082031 90.51351928710938 C 48.21182632446289 91.35993957519531 44.84020233154297 91.84587860107422 41.11219024658203 92.97103881835938 C 37.78752899169922 94.08609008789062 35.129390716552734 95.08843994140625 33.22313690185547 96.3289794921875 C 31.924116134643555 97.37838745117188 30.724702835083008 97.89081573486328 29.57877540588379 98.13734436035156 C 28.743335723876953 98.31177520751953 27.983722686767578 98.16719818115234 27.290834426879883 97.95159149169922 C 27.067733764648438 97.91368103027344 27.053173065185547 97.53364562988281 26.93775749206543 96.96509552001953 C 27.05712890625 96.74805450439453 27.256746292114258 96.2702407836914 27.296598434448242 95.47037506103516 C 27.393844604492188 94.93560791015625 27.36785888671875 94.1908187866211 27.099342346191406 93.33340454101562" stroke-width="2.0" fill="rgb(0, 255, 0)" opacity="1.0" stroke="rgb(0, 255, 0)" stroke-opacity="1.0" stroke-linecap="round" stroke-linejoin="round"/>
    <path d="M 0.025831380859017372 112.4160385131836 C 0.025843868032097816 112.41380310058594 0.025808189064264297 112.3996810913086 0.025820201262831688 112.34956359863281 C 0.02592271938920021 112.26167297363281 0.026112694293260574 112.29076385498047 0.026216350495815277 112.60437774658203 C 0.026098579168319702 112.84473419189453 0.025563038885593414 112.90966796875 0.024695752188563347 113.01163482666016 C 0.02381245419383049 113.1136474609375 0.022947393357753754 113.17301177978516 0.02197112701833248 113.34477996826172 C 0.021154221147298813 113.56777954101562 0.0204519871622324 113.71139526367188 0.019604045897722244 113.92234802246094 C 0.018973788246512413 114.1524429321289 0.018527626991271973 114.28266906738281 0.017986735329031944 114.3949203491211 C 0.017637593671679497 114.49339294433594 0.017471393570303917 114.5113754272461 0.017311744391918182 114.55108642578125 C 0.01729254238307476 114.59123229980469 0.01727459393441677 114.56966400146484 0.01713331788778305 114.59561157226562 C 0.01715589314699173 114.66844940185547 0.01737283170223236 114.71199035644531 0.01774095743894577 114.73506927490234 C 0.018459312617778778 114.65938568115234 0.019396888092160225 114.46398162841797 0.020268449559807777 114.27435302734375 C 0.021083196625113487 114.12902069091797 0.02173972874879837 114.08192443847656 0.022249536588788033 114.13284301757812 C 0.02281450480222702 114.07283782958984 0.023284172639250755 113.93367767333984 0.02359890006482601 113.88926696777344 C 0.02392558939754963 113.83804321289062 0.024023886770009995 113.7787094116211 0.02381422556936741 113.83374786376953 C 0.023511642590165138 113.89009857177734 0.02305998094379902 113.9289321899414 0.02249077893793583 114.1130142211914 C 0.021921280771493912 114.30403900146484 0.021219594404101372 114.41829681396484 0.020471420139074326 114.67021179199219 C 0.01988728903234005 114.9491958618164 0.01929515413939953 115.04945373535156 0.018685495480895042 115.05229187011719 C 0.01815844513475895 115.0184555053711 0.017585299909114838 114.9207992553711 0.017027225345373154 114.9212417602539 C 0.0167549978941679 114.92365264892578 0.01669006608426571 114.84122467041016 0.016681507229804993 114.80047607421875 C 0.016816653311252594 114.74715423583984 0.01711391843855381 114.63633728027344 0.01762354001402855 114.55743408203125 C 0.01843484491109848 114.42693328857422 0.019316580146551132 114.20672607421875 0.0202102642506361 114.04622650146484" stroke-width="2.0" fill="rgb(0, 0, 255)" opacity="1.0" stroke="rgb(0, 0, 255)" stroke-opacity="1.0" stroke-linecap="round" stroke-linejoin="round"/>
  </g>
</svg>
