<?xml version="1.0" ?>
<svg xmlns="http://www.w3.org/2000/svg" version="1.1" width="128" height="128">
  <defs/>
  <g>
    <path d="M 0.014597388915717602 123.25643920898438 C 0.014623637311160564 123.25782775878906 0.014571188017725945 123.27610778808594 0.014708750881254673 123.35659790039062 C 0.015020218677818775 123.4410629272461 0.015328277833759785 123.35071563720703 0.015142759308218956 122.87596893310547 C 0.01432193536311388 121.44495391845703 0.012314959429204464 118.45393371582031 0.010923394002020359 113.65953063964844 C 0.010111428797245026 106.79054260253906 0.010270207189023495 97.06317901611328 0.011542663909494877 82.77977752685547 C 0.013983522541821003 60.699623107910156 0.017950071021914482 35.21223068237305 0.024753320962190628 17.07280158996582 C 0.03639715909957886 7.962356090545654 0.04898477718234062 4.067196846008301 0.05696886405348778 2.313310384750366 C 0.06526459753513336 1.4095754623413086 0.08497046679258347 0.8869462609291077 0.1285758912563324 0.595199465751648 C 0.2097802758216858 0.43495237827301025 0.3479224145412445 0.3297941982746124 0.5695345401763916 0.24497845768928528 C 0.9426881670951843 0.1774328202009201 1.5921919345855713 0.1322317272424698 2.8104026317596436 0.10431499779224396 C 5.1145429611206055 0.0869869738817215 9.39760971069336 0.07603275775909424 18.400056838989258 0.07202807068824768 C 36.23628234863281 0.07067430764436722 63.15278244018555 0.07224643975496292 91.34086608886719 0.0775943249464035 C 110.57170867919922 0.08161121606826782 119.67691040039062 0.08492108434438705 123.92023468017578 0.09134172648191452 C 125.96276092529297 0.10730880498886108 126.8594970703125 0.13693027198314667 127.30529022216797 0.1828455626964569 C 127.57337188720703 0.24870827794075012 127.71669006347656 0.3438921570777893 127.79867553710938 0.5110361576080322 C 127.85625457763672 0.8536490797996521 127.89132690429688 1.5568296909332275 127.91632843017578 3.085554361343384 C 127.93780517578125 6.735724925994873 127.95355224609375 14.337665557861328 127.96366119384766 28.616785049438477 C 127.9698715209961 50.73028564453125 127.97086334228516 77.39425659179688 127.96675872802734 102.82048034667969 C 127.9635238647461 119.0689697265625 127.95518493652344 124.9684066772461 127.92567443847656 126.65438842773438 C 127.84477996826172 127.19590759277344 127.59072875976562 127.40859985351562 126.60125732421875 127.49708557128906 C 121.94234466552734 127.51841735839844 97.0418472290039 127.51107788085938 36.50941848754883 127.44292449951172" stroke-width="2.0" fill="rgb(252, 194, 27)" opacity="1.0" stroke="rgb(252, 194, 27)" stroke-opacity="1.0" stroke-linecap="round" stroke-linejoin="round"/>
    <path d="M 49.93820571899414 98.40141296386719 C 49.98245620727539 98.39849853515625 49.783729553222656 98.6159439086914 50.198944091796875 99.5291519165039 C 52.286293029785156 99.53961944580078 56.008731842041016 96.55381774902344 60.076839447021484 92.64561462402344 C 63.969024658203125 90.21830749511719 68.1092758178711 88.63845825195312 72.21073913574219 88.17240905761719 C 74.56143188476562 87.7557373046875 74.47731018066406 85.71774291992188 76.10162353515625 83.18973541259766 C 81.21569061279297 82.1896743774414 85.76630401611328 82.51727294921875 89.2709732055664 84.43106842041016 C 92.55033874511719 87.17132568359375 95.24958038330078 89.7130126953125 98.36278533935547 92.41161346435547 C 102.5899887084961 94.91692352294922 106.14749908447266 95.30630493164062 107.39480590820312 93.46605682373047 C 106.69482421875 91.47315216064453 105.1227798461914 89.95037841796875 103.22274017333984 88.07525634765625 C 100.57823944091797 86.16619873046875 97.44922637939453 84.92240142822266 94.76819610595703 83.37081909179688 C 93.32391357421875 81.20819854736328 94.17363739013672 78.74623107910156 96.6229248046875 74.85347747802734 C 97.72787475585938 69.75859832763672 97.44256591796875 65.81794738769531 97.78072357177734 62.407379150390625 C 99.05125427246094 59.079593658447266 100.3561782836914 57.4250373840332 101.87189483642578 57.60232162475586 C 103.59349822998047 58.62342834472656 105.54264831542969 60.12033462524414 108.01553344726562 61.861114501953125 C 110.3384017944336 62.78710174560547 111.73167419433594 63.021141052246094 112.4501953125 63.6212272644043 C 112.83450317382812 64.96575164794922 112.7212142944336 66.71842956542969 112.32145690917969 68.52113342285156 C 111.84127807617188 70.22900390625 111.01823425292969 71.71331024169922 109.97884368896484 72.75145721435547 C 109.05867767333984 73.24188995361328 108.17411041259766 73.68045806884766 107.43816375732422 74.32686614990234 C 106.96186828613281 74.7374496459961 106.09977722167969 74.68572998046875 104.55621337890625 74.35689544677734 C 102.68272399902344 74.07786560058594 100.31549072265625 73.91529846191406 97.9545669555664 74.07735443115234 C 96.61904907226562 75.43900299072266 95.74455261230469 78.96401977539062 93.70333099365234 84.5606460571289" stroke-width="2.0" fill="rgb(255, 0, 0)" opacity="1.0" stroke="rgb(255, 0, 0)" stroke-opacity="1.0" stroke-linecap="round" stroke-linejoin="round"/>
    <path d="M 0.0683305561542511 112.40510559082031 C 0.0683092325925827 112.41670227050781 0.06829337775707245 112.41040802001953 0.0682206079363823 112.44324493408203 C 0.06826510280370712 112.51425170898438 0.06762711703777313 112.6596908569336 0.06533468514680862 112.91376495361328 C 0.06156677380204201 113.37183380126953 0.058021124452352524 113.6137924194336 0.05601595714688301 113.25041961669922 C 0.05520147457718849 112.619873046875 0.054386965930461884 111.99492645263672 0.053004637360572815 111.42208862304688 C 0.05120980739593506 111.18380737304688 0.04897749423980713 111.12051391601562 0.0465007908642292 110.97846221923828 C 0.04428916051983833 111.01870727539062 0.04232127591967583 111.09541320800781 0.04052377864718437 111.05199432373047 C 0.039098452776670456 111.14559936523438 0.037978339940309525 111.20149230957031 0.03698655590415001 111.09954833984375 C 0.03619406372308731 111.11027526855469 0.035579513758420944 111.16500854492188 0.03497719764709473 111.19815063476562 C 0.0343436598777771 111.41820526123047 0.03371076285839081 111.77994537353516 0.03309706598520279 112.06582641601562 C 0.032504547387361526 112.37915802001953 0.03204852342605591 112.84164428710938 0.03182915225625038 113.28028869628906 C 0.03188616409897804 113.63587951660156 0.03235280141234398 113.98563385009766 0.033346664160490036 114.22877502441406 C 0.03478245809674263 114.30486297607422 0.03662097081542015 114.4313735961914 0.039360255002975464 114.69110870361328 C 0.04347968101501465 114.92176055908203 0.048794038593769073 115.09226989746094 0.055414214730262756 115.23497009277344 C 0.06348875910043716 115.2601089477539 0.07248857617378235 115.21682739257812 0.08305994421243668 115.19440460205078 C 0.09637036919593811 114.97361755371094 0.11119215935468674 114.67345428466797 0.12704576551914215 114.5211410522461 C 0.14466023445129395 114.291259765625 0.1611582487821579 113.980224609375 0.1745925098657608 113.85554504394531 C 0.18677103519439697 113.799072265625 0.19629234075546265 113.7137451171875 0.20245011150836945 113.78274536132812 C 0.20770715177059174 113.9202651977539 0.2103557139635086 113.95484924316406 0.2088589370250702 113.96126556396484 C 0.20515213906764984 114.02617645263672 0.19803954660892487 114.04607391357422 0.18637126684188843 113.98041534423828 C 0.17298093438148499 113.97743225097656 0.15868686139583588 113.99182891845703 0.1430066078901291 113.87676239013672" stroke-width="2.0" fill="rgb(0, 255, 0)" opacity="1.0" stroke="rgb(0, 255, 0)" stroke-opacity="1.0" stroke-linecap="round" stroke-linejoin="round"/>
    <path d="M 0.007005101069808006 114.70587158203125 C 0.007008200976997614 114.70655822753906 0.007002002093940973 114.70027160644531 0.007006243336945772 114.66460418701172 C 0.007020429242402315 114.57111358642578 0.007055873051285744 114.53638458251953 0.007097626570612192 114.70022583007812 C 0.007140341214835644 114.8832778930664 0.007095386739820242 115.00930786132812 0.006955735385417938 115.15167999267578 C 0.006843450013548136 115.28156280517578 0.006751957815140486 115.36622619628906 0.006608388386666775 115.50077056884766 C 0.006490515545010567 115.6220703125 0.006395082455128431 115.68135070800781 0.006257100962102413 115.77763366699219 C 0.006151445675641298 115.87687683105469 0.006076194811612368 115.94562530517578 0.00598765816539526 116.06424713134766 C 0.005956811830401421 116.19083404541016 0.005983542650938034 116.24987030029297 0.006011407356709242 116.29914093017578 C 0.0060989102348685265 116.34840393066406 0.006219455972313881 116.39469909667969 0.006333184894174337 116.45892333984375 C 0.006522426847368479 116.45667266845703 0.006767719052731991 116.3940200805664 0.007021928206086159 116.39533233642578 C 0.007340682670474052 116.3950424194336 0.007654040586203337 116.3126220703125 0.00789959728717804 116.2572250366211 C 0.008177698589861393 116.22054290771484 0.008440600708127022 116.10967254638672 0.008604357950389385 116.01061248779297 C 0.008740989491343498 115.92831420898438 0.008819450624287128 115.8486099243164 0.008775750175118446 115.86307525634766 C 0.00862627662718296 115.90335845947266 0.008318510837852955 115.92282104492188 0.007922100834548473 115.99254608154297 C 0.00756666949018836 116.0546875 0.007190235890448093 116.11288452148438 0.006769339554011822 116.25839233398438 C 0.006434207316488028 116.33351135253906 0.006166422739624977 116.35580444335938 0.005893859546631575 116.48377227783203 C 0.005631174426525831 116.53425598144531 0.005383347161114216 116.54024505615234 0.005161082372069359 116.62870788574219 C 0.0049951765686273575 116.68939208984375 0.0048530627973377705 116.69019317626953 0.0047180503606796265 116.7085952758789 C 0.004632237367331982 116.66300964355469 0.0045723337680101395 116.58082580566406 0.004528812598437071 116.60386657714844 C 0.004557771608233452 116.60384368896484 0.004641067702323198 116.5142593383789 0.004751390311866999 116.4677734375 C 0.004935001488775015 116.38540649414062 0.0051639326848089695 116.23284912109375 0.005420240573585033 116.15672302246094" stroke-width="2.0" fill="rgb(0, 0, 255)" opacity="1.0" stroke="rgb(0, 0, 255)" stroke-opacity="1.0" stroke-linecap="round" stroke-linejoin="round"/>
  </g>
</svg>
