<?xml version="1.0" ?>
<svg xmlns="http://www.w3.org/2000/svg" version="1.1" width="128" height="128">
  <defs/>
  <g>
    <path d="M 0.008687125518918037 124.03520965576172 C 0.00870317779481411 124.03522491455078 0.008675443939864635 124.05406951904297 0.008764385245740414 124.1315689086914 C 0.00893376674503088 124.21272277832031 0.008984370157122612 124.10197448730469 0.008613379672169685 123.61937713623047 C 0.007954166270792484 122.25247955322266 0.006871524266898632 119.5838623046875 0.006222463678568602 115.24209594726562 C 0.005831355694681406 108.492919921875 0.00573626859113574 98.84147644042969 0.006150072906166315 84.77479553222656 C 0.007581433281302452 63.133094787597656 0.010434801690280437 36.31846237182617 0.015359971672296524 16.571670532226562 C 0.02469754032790661 7.152335166931152 0.03680715337395668 3.3416950702667236 0.0461394228041172 1.8361873626708984 C 0.05470876023173332 1.0962361097335815 0.07086149603128433 0.6975663900375366 0.10450343787670135 0.4747197926044464 C 0.17260415852069855 0.34856730699539185 0.2932647466659546 0.2617301940917969 0.507817268371582 0.19350624084472656 C 0.8972004652023315 0.14012664556503296 1.5715469121932983 0.10281752794981003 2.783900260925293 0.0793963149189949 C 5.166828155517578 0.06497518718242645 9.982356071472168 0.057069797068834305 20.52816390991211 0.055660393089056015 C 41.480186462402344 0.057144053280353546 72.67742156982422 0.06385844200849533 101.88096618652344 0.07183079421520233 C 117.2794418334961 0.07812248915433884 123.31144714355469 0.0836305022239685 125.79488372802734 0.09743569046258926 C 126.89672088623047 0.12332530319690704 127.35420989990234 0.15571805834770203 127.57728576660156 0.20276427268981934 C 127.71820831298828 0.2862246334552765 127.80360412597656 0.4369830787181854 127.86016845703125 0.7553954720497131 C 127.90354919433594 1.4830490350723267 127.93158721923828 3.0560314655303955 127.95006561279297 6.703810691833496 C 127.9660415649414 14.769049644470215 127.97440338134766 29.388225555419922 127.9773941040039 50.40462112426758 C 127.97883605957031 76.91268157958984 127.97718048095703 102.51290130615234 127.97447967529297 118.56027221679688 C 127.9718246459961 124.91683959960938 127.95945739746094 126.78693389892578 127.91728973388672 127.34996795654297 C 127.80775451660156 127.56702423095703 127.45069885253906 127.66078186035156 125.8542709350586 127.68640899658203 C 117.32889556884766 127.68727111816406 76.93718719482422 127.6617202758789 19.492338180541992 127.60089111328125" stroke-width="2.0" fill="rgb(252, 194, 27)" opacity="1.0" stroke="rgb(252, 194, 27)" stroke-opacity="1.0" stroke-linecap="round" stroke-linejoin="round"/>
    <path d="M 43.93342208862305 95.1471176147461 C 43.965213775634766 95.16119384765625 43.84711456298828 95.39060974121094 44.33269119262695 96.37203979492188 C 46.26738739013672 95.90727996826172 49.757049560546875 92.46472930908203 53.55262756347656 90.06563568115234 C 54.86977767944336 90.76364135742188 52.369544982910156 90.5554428100586 51.29138946533203 89.62723541259766 C 55.65590286254883 88.60971069335938 62.42422103881836 86.56109619140625 69.04061126708984 85.26994323730469 C 74.53754425048828 86.4151382446289 77.94610595703125 88.57303619384766 79.71227264404297 90.91532897949219 C 81.67977142333984 92.91995239257812 82.7515640258789 92.46997833251953 81.32107543945312 89.32542419433594 C 79.46095275878906 84.98088836669922 79.34349822998047 81.16339111328125 78.84315490722656 78.83114624023438 C 76.5694580078125 77.70584106445312 73.92221069335938 76.27066040039062 71.61547088623047 73.53614044189453 C 69.45248413085938 70.16008758544922 68.81692504882812 66.7242431640625 69.64287567138672 63.395790100097656 C 70.02117156982422 61.57585906982422 71.13703155517578 62.44414520263672 73.91188049316406 64.32073974609375 C 77.27053833007812 64.56473541259766 82.31129455566406 62.68944549560547 88.97576904296875 59.42058181762695 C 94.07738494873047 56.4451904296875 97.64041900634766 55.05524826049805 100.51072692871094 54.69096755981445 C 102.17908477783203 54.95169448852539 102.85089874267578 55.914642333984375 103.37902069091797 57.5182991027832 C 103.87390899658203 59.278560638427734 103.9486312866211 61.387901306152344 103.79400634765625 63.94404220581055 C 103.68252563476562 66.3189468383789 103.28252410888672 68.36213684082031 102.73639678955078 70.24253845214844 C 102.18879699707031 71.6065444946289 101.24127197265625 72.8140869140625 100.26016235351562 74.14956665039062 C 99.64507293701172 74.89291381835938 98.8829116821289 75.39662170410156 97.8347396850586 76.3227767944336 C 96.5003662109375 77.1849136352539 94.14636993408203 77.7861557006836 91.05640411376953 78.4151840209961 C 88.36117553710938 78.70708465576172 85.51738739013672 78.43730163574219 82.21161651611328 78.88824462890625 C 79.8389892578125 81.18155670166016 78.80599975585938 84.59274291992188 78.81088256835938 88.12031555175781" stroke-width="2.0" fill="rgb(255, 0, 0)" opacity="1.0" stroke="rgb(255, 0, 0)" stroke-opacity="1.0" stroke-linecap="round" stroke-linejoin="round"/>
    <path d="M 0.12287850677967072 111.04586029052734 C 0.12283595651388168 111.05776977539062 0.12277418375015259 111.0514144897461 0.12278657406568527 111.11106872558594 C 0.12347915768623352 111.23210144042969 0.12265001982450485 111.36421966552734 0.11753392964601517 111.42304992675781 C 0.10896404832601547 111.71272277832031 0.10157932341098785 112.04095458984375 0.09778795391321182 111.84812927246094 C 0.09639443457126617 111.27672576904297 0.09552106261253357 110.60025787353516 0.09452582895755768 109.87776947021484 C 0.09319591522216797 109.44783782958984 0.09076403826475143 109.19387817382812 0.08743157982826233 108.92061614990234 C 0.08415191620588303 108.9300765991211 0.08109398186206818 108.98751068115234 0.07807912677526474 108.87140655517578 C 0.07547269761562347 108.95137023925781 0.07347270846366882 109.10150146484375 0.07180844247341156 109.05970001220703 C 0.07036783546209335 109.06195831298828 0.06915558874607086 109.1047592163086 0.06812071055173874 109.0785140991211 C 0.06709500402212143 109.15489196777344 0.06591051816940308 109.4248275756836 0.0645422637462616 109.74736785888672 C 0.06307036429643631 110.13495635986328 0.0618336983025074 110.69007873535156 0.061079125851392746 111.25059509277344 C 0.06096654385328293 111.6964340209961 0.06177264079451561 112.08816528320312 0.0636291578412056 112.37893676757812 C 0.06651630997657776 112.58068084716797 0.07063013315200806 112.923583984375 0.07670944184064865 113.34048461914062 C 0.0848923921585083 113.61373138427734 0.09439777582883835 113.86677551269531 0.10608931630849838 114.06063079833984 C 0.12130101770162582 113.91654968261719 0.13958925008773804 113.67195129394531 0.16224104166030884 113.63036346435547 C 0.19092565774917603 113.3940200805664 0.2212700992822647 112.9631118774414 0.2501804232597351 112.74750518798828 C 0.2797619104385376 112.5976791381836 0.3067293167114258 112.3951416015625 0.3278627395629883 112.37088775634766 C 0.3468397557735443 112.48182678222656 0.3630355894565582 112.60875701904297 0.3759414851665497 112.84124755859375 C 0.3886871039867401 113.04130554199219 0.3945012092590332 113.08660888671875 0.38911178708076477 113.15384674072266 C 0.3788679540157318 113.29901885986328 0.36258000135421753 113.30511474609375 0.3382473886013031 113.16653442382812 C 0.3127861022949219 113.13275146484375 0.2878045439720154 113.1036605834961 0.2606968879699707 112.91915893554688" stroke-width="2.0" fill="rgb(0, 255, 0)" opacity="1.0" stroke="rgb(0, 255, 0)" stroke-opacity="1.0" stroke-linecap="round" stroke-linejoin="round"/>
    <path d="M 0.007933917455375195 114.12150573730469 C 0.007936694659292698 114.12114715576172 0.007930452935397625 114.11632537841797 0.007932827807962894 114.0824966430664 C 0.007944069802761078 113.99220275878906 0.007968956604599953 113.94664764404297 0.00801904033869505 114.08056640625 C 0.008112531155347824 114.18695068359375 0.00812171958386898 114.24237823486328 0.008006188087165356 114.37671661376953 C 0.007895153947174549 114.48973083496094 0.00781133770942688 114.57376861572266 0.0076940045692026615 114.72862243652344 C 0.007602820172905922 114.90850067138672 0.0074772583320736885 115.02732849121094 0.00728854164481163 115.1513671875 C 0.007163346279412508 115.27255249023438 0.007094250060617924 115.32449340820312 0.007001414895057678 115.40386962890625 C 0.00697221839800477 115.51652526855469 0.006996148265898228 115.5753173828125 0.006998103577643633 115.62689971923828 C 0.00705408351495862 115.69229888916016 0.00716793118044734 115.76410675048828 0.007296114694327116 115.8513412475586 C 0.007525681052356958 115.87965393066406 0.00783001258969307 115.83959197998047 0.008156219497323036 115.81145477294922 C 0.00855935551226139 115.75431823730469 0.008952264674007893 115.65582275390625 0.009263595566153526 115.60453033447266 C 0.00959805678576231 115.57067108154297 0.009897497482597828 115.4829330444336 0.010097871534526348 115.40441131591797 C 0.01030383538454771 115.33722686767578 0.010437478311359882 115.26526641845703 0.010404030792415142 115.24653625488281 C 0.010236221365630627 115.20781707763672 0.009890393353998661 115.17752838134766 0.009428489953279495 115.29693603515625 C 0.008993232622742653 115.41876983642578 0.008542117662727833 115.48004150390625 0.008093229494988918 115.60303497314453 C 0.007748632226139307 115.69696044921875 0.007431387435644865 115.72978973388672 0.007089928258210421 115.80397033691406 C 0.006776883266866207 115.81269836425781 0.006441489327698946 115.80614471435547 0.0061386944726109505 115.91055297851562 C 0.0059215836226940155 115.94710540771484 0.005739173851907253 115.88748931884766 0.005550990346819162 115.91094207763672 C 0.005428315605968237 115.91999053955078 0.005331125110387802 115.88368225097656 0.005240794736891985 115.9275131225586 C 0.005235299933701754 115.91557312011719 0.005297176074236631 115.82691955566406 0.005412544589489698 115.7942886352539 C 0.005636665038764477 115.70315551757812 0.005928815808147192 115.53768157958984 0.006260365713387728 115.45223999023438" stroke-width="2.0" fill="rgb(0, 0, 255)" opacity="1.0" stroke="rgb(0, 0, 255)" stroke-opacity="1.0" stroke-linecap="round" stroke-linejoin="round"/>
  </g>
</svg>
