<?xml version="1.0" ?>
<svg xmlns="http://www.w3.org/2000/svg" version="1.1" width="128" height="128">
  <defs/>
  <g>
    <path d="M 0.008264215663075447 122.62068176269531 C 0.008273622952401638 122.61617279052734 0.008251923136413097 122.64694213867188 0.008309259079396725 122.74609375 C 0.00844568945467472 122.85417938232422 0.008560971356928349 122.70953369140625 0.00851060263812542 121.9803237915039 C 0.008126778528094292 119.946533203125 0.007429353427141905 115.90724182128906 0.0063666291534900665 108.97832489013672 C 0.005916447378695011 98.42769622802734 0.006124344654381275 83.01573181152344 0.00745021877810359 61.36326599121094 C 0.010452468879520893 36.84938430786133 0.015018499456346035 17.5950984954834 0.02278776466846466 8.049769401550293 C 0.03540140017867088 3.858722448348999 0.04883229359984398 2.1573359966278076 0.06135867163538933 1.3846608400344849 C 0.07625275105237961 0.9507466554641724 0.10025627911090851 0.6834302544593811 0.14000336825847626 0.506682813167572 C 0.2064574807882309 0.38283777236938477 0.31480246782302856 0.2888546288013458 0.5061952471733093 0.21544843912124634 C 0.8465717434883118 0.1596256047487259 1.423841953277588 0.12011552602052689 2.4372482299804688 0.09360044449567795 C 4.343041896820068 0.07575523853302002 7.84976863861084 0.06523449718952179 14.913095474243164 0.063289575278759 C 29.77593994140625 0.06580659002065659 53.771080017089844 0.07286503165960312 83.82411193847656 0.08591262996196747 C 107.75550842285156 0.09768600761890411 119.16680908203125 0.110346220433712 124.0246810913086 0.12626469135284424 C 126.10942840576172 0.15295515954494476 126.93756103515625 0.19067011773586273 127.32506561279297 0.24569033086299896 C 127.55680847167969 0.33699560165405273 127.69143676757812 0.5138500332832336 127.77981567382812 0.8979280591011047 C 127.84556579589844 1.728307843208313 127.88814544677734 3.520901918411255 127.9169692993164 7.45626974105835 C 127.94173431396484 15.91531753540039 127.95524597167969 30.596038818359375 127.96034240722656 51.93403625488281 C 127.9619369506836 79.37577819824219 127.95762634277344 104.03691101074219 127.95030975341797 118.87847900390625 C 127.94646453857422 124.9455337524414 127.92725372314453 126.77249145507812 127.85112762451172 127.33983612060547 C 127.6353988647461 127.56163787841797 126.9037094116211 127.65154266357422 123.57703399658203 127.66912841796875 C 106.4897232055664 127.65999603271484 50.44905471801758 127.607177734375 9.184319496154785 127.48509979248047" stroke-width="2.0" fill="rgb(252, 194, 27)" opacity="1.0" stroke="rgb(252, 194, 27)" stroke-opacity="1.0" stroke-linecap="round" stroke-linejoin="round"/>
    <path d="M 31.915088653564453 53.54216766357422 C 31.902088165283203 53.554542541503906 31.901859283447266 53.45191192626953 32.17750930786133 53.18651580810547 C 33.39998245239258 53.554935455322266 34.26259231567383 56.81266784667969 31.62527084350586 63.323123931884766 C 25.430564880371094 68.75609588623047 20.408031463623047 70.61001586914062 18.969125747680664 73.43119812011719 C 19.399024963378906 77.43461608886719 20.466150283813477 79.74234008789062 21.833477020263672 80.32806396484375 C 23.66943359375 79.68110656738281 25.707901000976562 78.09651947021484 28.297321319580078 76.52320098876953 C 32.24803161621094 76.18157196044922 37.2341194152832 77.69200134277344 41.84783935546875 80.80306243896484 C 45.73493957519531 82.64921569824219 49.70490646362305 80.78451538085938 55.28367233276367 76.36012268066406 C 62.28112030029297 72.16207885742188 67.572998046875 68.40518188476562 68.47183990478516 65.45184326171875 C 65.56026458740234 63.97280502319336 61.39863586425781 62.94228744506836 56.3951530456543 61.0355224609375 C 51.00682067871094 58.281131744384766 48.044410705566406 55.07915115356445 48.05310821533203 51.54440689086914 C 49.41387939453125 49.10127639770508 52.06290054321289 49.992523193359375 56.07810592651367 53.52732467651367 C 60.645301818847656 56.92319869995117 66.18970489501953 58.28853988647461 72.5036392211914 57.93941116333008 C 76.8674545288086 57.55266189575195 78.48068237304688 58.55515670776367 78.59137725830078 60.64141082763672 C 77.63172912597656 62.440311431884766 75.14286804199219 63.50975036621094 71.38208770751953 64.16374969482422 C 67.53347778320312 64.72920227050781 65.4833984375 66.74644470214844 66.7229995727539 70.07858276367188 C 70.14910125732422 72.19485473632812 73.12557983398438 73.57426452636719 76.62833404541016 76.33141326904297 C 81.01315307617188 80.85775756835938 82.62419891357422 86.61231231689453 81.01984405517578 93.19938659667969 C 78.95236206054688 98.42996978759766 74.87403869628906 100.73873138427734 68.84780883789062 101.32835388183594 C 64.38478088378906 101.43521118164062 60.68879318237305 100.47515869140625 56.94270324707031 98.17278289794922 C 53.77568054199219 95.45578002929688 49.26179122924805 93.6822280883789 43.29146194458008 95.15853118896484" stroke-width="2.0" fill="rgb(255, 0, 0)" opacity="1.0" stroke="rgb(255, 0, 0)" stroke-opacity="1.0" stroke-linecap="round" stroke-linejoin="round"/>
    <path d="M 0.17353206872940063 109.19466400146484 C 0.17346571385860443 109.20714569091797 0.1734304577112198 109.20582580566406 0.17326197028160095 109.26282501220703 C 0.17325520515441895 109.3665771484375 0.17059952020645142 109.51396179199219 0.16312479972839355 109.7789535522461 C 0.15232647955417633 110.33252716064453 0.1429470181465149 110.60367584228516 0.1378471702337265 110.06070709228516 C 0.13587473332881927 109.28572082519531 0.133758544921875 108.61919403076172 0.12985357642173767 107.89266204833984 C 0.12453668564558029 107.54031372070312 0.1184273213148117 107.46028137207031 0.11272774636745453 107.30322265625 C 0.10849017649888992 107.36305236816406 0.10532635450363159 107.48408508300781 0.102641761302948 107.45863342285156 C 0.1008804515004158 107.58438110351562 0.09999999403953552 107.66605377197266 0.09962476789951324 107.56393432617188 C 0.1002207025885582 107.6004409790039 0.10164909064769745 107.50139617919922 0.10245272517204285 107.20494079589844 C 0.10174866765737534 107.21595001220703 0.09967575967311859 107.53428649902344 0.09685736894607544 107.92374420166016 C 0.09386145323514938 108.44932556152344 0.09110383689403534 109.12855529785156 0.08904043585062027 109.7553939819336 C 0.08799449354410172 110.26729583740234 0.08828268200159073 110.7387466430664 0.09000959992408752 111.13165283203125 C 0.0930667370557785 111.40121459960938 0.09780300408601761 111.73194885253906 0.1051730141043663 112.13072204589844 C 0.11536022275686264 112.40980529785156 0.12744206190109253 112.68090057373047 0.14252421259880066 112.96237182617188 C 0.1625061333179474 112.92952728271484 0.18668779730796814 112.72593688964844 0.21624958515167236 112.62642669677734 C 0.2527303993701935 112.31417846679688 0.29098495841026306 111.89234924316406 0.3292412757873535 111.7419662475586 C 0.3715646266937256 111.58786010742188 0.4126644730567932 111.32977294921875 0.4478483498096466 111.24006652832031 C 0.48173534870147705 111.24884796142578 0.5113679766654968 111.28507232666016 0.535608172416687 111.49349975585938 C 0.5598453879356384 111.69306182861328 0.5755212903022766 111.69368743896484 0.5768685936927795 111.67454528808594 C 0.5708798170089722 111.740478515625 0.5530575513839722 111.68805694580078 0.5191203951835632 111.54103088378906 C 0.4791831970214844 111.55916595458984 0.4381554424762726 111.64735412597656 0.3938727080821991 111.5748291015625" stroke-width="2.0" fill="rgb(0, 255, 0)" opacity="1.0" stroke="rgb(0, 255, 0)" stroke-opacity="1.0" stroke-linecap="round" stroke-linejoin="round"/>
    <path d="M 0.008274009451270103 113.99314880371094 C 0.008276953361928463 113.99254608154297 0.008270420134067535 113.98777770996094 0.008272889070212841 113.9521713256836 C 0.00828368030488491 113.86397552490234 0.008303998969495296 113.82283782958984 0.00834603514522314 113.97260284423828 C 0.008420213125646114 114.1005859375 0.00839126855134964 114.18778228759766 0.008241141214966774 114.32304382324219 C 0.008116083219647408 114.42830657958984 0.008019285276532173 114.5395736694336 0.007881169207394123 114.7022933959961 C 0.007767505012452602 114.8924331665039 0.007627401500940323 115.0091323852539 0.00743824290111661 115.12208557128906 C 0.0073142205365002155 115.24822998046875 0.007236232981085777 115.3268814086914 0.00713201891630888 115.42081451416016 C 0.0071015870198607445 115.5234603881836 0.007124473340809345 115.57986450195312 0.0071309711784124374 115.63932800292969 C 0.007204202935099602 115.70612335205078 0.007351442705839872 115.7572021484375 0.0075300526805222034 115.82292938232422 C 0.007822705432772636 115.83427429199219 0.008200189098715782 115.77947998046875 0.008600887842476368 115.74695587158203 C 0.00906550046056509 115.68754577636719 0.009483992122113705 115.58968353271484 0.009802179411053658 115.53932189941406 C 0.010144420899450779 115.49561309814453 0.010438105091452599 115.41030883789062 0.010613403283059597 115.33856201171875 C 0.01079760491847992 115.26895141601562 0.010936577804386616 115.22554779052734 0.010952327400445938 115.27088165283203 C 0.010882015340030193 115.25070190429688 0.010617290623486042 115.18157958984375 0.010181198827922344 115.23616790771484 C 0.009729735553264618 115.32447814941406 0.009244120679795742 115.38630676269531 0.008739430457353592 115.52806091308594 C 0.008340680040419102 115.60127258300781 0.008002646267414093 115.6388168334961 0.007648830767720938 115.72265625 C 0.007316452916711569 115.74315643310547 0.006972364615648985 115.72027587890625 0.006636826321482658 115.80413055419922 C 0.0063997674733400345 115.8253173828125 0.00621094461530447 115.77141571044922 0.006024578120559454 115.81012725830078 C 0.0058826906606554985 115.81343841552734 0.0057744295336306095 115.7629165649414 0.005672129336744547 115.80622863769531 C 0.005647021811455488 115.80333709716797 0.005694746971130371 115.70357513427734 0.005810074042528868 115.65410614013672 C 0.006042633671313524 115.54872131347656 0.00633886456489563 115.3775405883789 0.006676800549030304 115.29752349853516" stroke-width="2.0" fill="rgb(0, 0, 255)" opacity="1.0" stroke="rgb(0, 0, 255)" stroke-opacity="1.0" stroke-linecap="round" stroke-linejoin="round"/>
  </g>
</svg>
