<?xml version="1.0" ?>
<svg xmlns="http://www.w3.org/2000/svg" version="1.1" width="128" height="128">
  <defs/>
  <g>
    <path d="M 0.012635494582355022 123.64971160888672 C 0.012659071013331413 123.6507797241211 0.012621922418475151 123.67302703857422 0.012737391516566277 123.7574691772461 C 0.012905167415738106 123.83248901367188 0.012779010459780693 123.69029235839844 0.01188669353723526 123.0486068725586 C 0.0102163664996624 121.36141204833984 0.008422759361565113 117.90217590332031 0.007459226064383984 112.21129608154297 C 0.006802556570619345 103.5647964477539 0.006700764875859022 90.5550537109375 0.0073778703808784485 71.54387664794922 C 0.009608048014342785 45.369239807128906 0.013585546985268593 21.779438018798828 0.020614588633179665 9.419363021850586 C 0.03246119245886803 4.165940284729004 0.044744838029146194 2.142749309539795 0.05446852743625641 1.2750496864318848 C 0.06653206050395966 0.8187490701675415 0.09029243141412735 0.5520467162132263 0.1370217353105545 0.39431333541870117 C 0.22316989302635193 0.29797670245170593 0.36955785751342773 0.22349201142787933 0.6151413917541504 0.16751860082149506 C 1.051343321800232 0.12354268878698349 1.7706384658813477 0.09279507398605347 3.0160882472991943 0.07229548692703247 C 5.444165229797363 0.05955033376812935 10.279163360595703 0.05278914421796799 20.268356323242188 0.05178545415401459 C 39.751304626464844 0.05367446690797806 69.65702819824219 0.06066688522696495 99.38603973388672 0.06918512284755707 C 116.0233154296875 0.07636668533086777 122.7069320678711 0.0827329009771347 125.54019927978516 0.09554491192102432 C 126.7997817993164 0.12000627815723419 127.30563354492188 0.1512352079153061 127.54698944091797 0.1949225664138794 C 127.69795227050781 0.27221551537513733 127.7874755859375 0.41154035925865173 127.84611511230469 0.7010286450386047 C 127.89117431640625 1.3418095111846924 127.92158508300781 2.734065294265747 127.9425277709961 5.918446063995361 C 127.96084594726562 13.120366096496582 127.97075653076172 26.521997451782227 127.9743881225586 46.608009338378906 C 127.97588348388672 73.3647689819336 127.9734878540039 99.86373901367188 127.96915435791016 117.22384643554688 C 127.96623992919922 124.57630157470703 127.95428466796875 126.69475555419922 127.91006469726562 127.33226776123047 C 127.79246520996094 127.57088470458984 127.42503356933594 127.66964721679688 125.97118377685547 127.70071411132812 C 119.06412506103516 127.69901275634766 85.73119354248047 127.66986083984375 26.344636917114258 127.60490417480469" stroke-width="2.0" fill="rgb(252, 194, 27)" opacity="1.0" stroke="rgb(252, 194, 27)" stroke-opacity="1.0" stroke-linecap="round" stroke-linejoin="round"/>
    <path d="M 35.31144714355469 88.8845443725586 C 35.32500457763672 88.90193939208984 35.24635696411133 88.91764831542969 35.52518081665039 89.175048828125 C 37.463096618652344 89.32891082763672 42.29210662841797 89.30343627929688 49.984493255615234 90.32408142089844 C 58.821346282958984 92.84107208251953 67.03511047363281 93.84519958496094 75.24038696289062 91.98902130126953 C 83.4322509765625 89.74182891845703 89.1350326538086 88.62577819824219 93.1712417602539 88.57341003417969 C 97.23253631591797 89.1562728881836 100.33576965332031 89.58028411865234 102.47907257080078 89.76402282714844 C 104.31356811523438 89.26261901855469 105.53751373291016 86.67974853515625 106.00813293457031 82.6407241821289 C 105.9294204711914 79.21379852294922 105.07455444335938 77.08796691894531 102.84716033935547 76.1162338256836 C 98.9900894165039 76.31573486328125 94.38542938232422 76.82280731201172 89.32655334472656 77.3121337890625 C 84.40794372558594 77.83832550048828 81.84452056884766 77.60821533203125 81.04541015625 75.94982147216797 C 80.27882385253906 74.05834197998047 80.78013610839844 72.76615142822266 83.31790161132812 70.96466827392578 C 86.87799835205078 67.87230682373047 91.69458770751953 64.63908386230469 97.67631530761719 61.74317932128906 C 102.62989044189453 59.223140716552734 105.43170166015625 58.30859375 106.87637329101562 59.07041549682617 C 107.28234100341797 60.658172607421875 106.62422180175781 63.10883712768555 106.1468505859375 66.43683624267578 C 106.79650115966797 69.55640411376953 107.78875732421875 71.84041595458984 108.56910705566406 73.68399810791016 C 108.78083038330078 75.13664245605469 107.8268051147461 76.92192077636719 106.23772430419922 79.94761657714844 C 104.8885726928711 83.55089569091797 104.20246887207031 86.97630310058594 104.77852630615234 89.5956802368164 C 106.44983673095703 90.9051284790039 107.95382690429688 91.62190246582031 109.07334899902344 93.06217193603516 C 109.9277572631836 95.1148681640625 109.67010498046875 96.71516418457031 107.882080078125 97.8955078125 C 105.31564331054688 99.11502075195312 101.63438415527344 100.11205291748047 96.37010955810547 100.85088348388672 C 91.01153564453125 101.38994598388672 85.60676574707031 100.87246704101562 78.66508483886719 99.70423126220703" stroke-width="2.0" fill="rgb(255, 0, 0)" opacity="1.0" stroke="rgb(255, 0, 0)" stroke-opacity="1.0" stroke-linecap="round" stroke-linejoin="round"/>
    <path d="M 0.07212517410516739 112.6808853149414 C 0.07210207730531693 112.69084930419922 0.07206244021654129 112.68762969970703 0.07209040224552155 112.74785614013672 C 0.07271004468202591 112.86378479003906 0.07277650386095047 112.95355987548828 0.07030367851257324 112.9272689819336 C 0.06546400487422943 113.14667510986328 0.06122152879834175 113.46680450439453 0.0592108853161335 113.30662536621094 C 0.0586659274995327 112.8509292602539 0.05864492803812027 112.29354095458984 0.058829814195632935 111.57364654541016 C 0.05879678577184677 111.06497192382812 0.057876620441675186 110.76197814941406 0.05624386668205261 110.46453857421875 C 0.05446315184235573 110.393310546875 0.05260495841503143 110.40009307861328 0.050719182938337326 110.26055145263672 C 0.04904243350028992 110.26189422607422 0.04769066721200943 110.35861206054688 0.046645618975162506 110.32218933105469 C 0.04582902789115906 110.3139419555664 0.045000310987234116 110.33536529541016 0.04409792646765709 110.32477569580078 C 0.04320543259382248 110.46537780761719 0.042278729379177094 110.7740478515625 0.041248586028814316 111.06851959228516 C 0.04023493826389313 111.41272735595703 0.03949226438999176 111.97398376464844 0.03923792764544487 112.5323486328125 C 0.03946414962410927 112.92169952392578 0.04018234461545944 113.24495697021484 0.04148346930742264 113.52692413330078 C 0.04332606494426727 113.78074645996094 0.04576827213168144 114.13091278076172 0.04942457750439644 114.51935577392578 C 0.05453934147953987 114.78289031982422 0.06057373061776161 115.00521850585938 0.06785883009433746 115.1525650024414 C 0.07714197784662247 115.01551055908203 0.08807536959648132 114.81283569335938 0.10130377858877182 114.8184585571289 C 0.1178220808506012 114.68401336669922 0.13509660959243774 114.36194610595703 0.15174740552902222 114.23975372314453 C 0.16982996463775635 114.20674896240234 0.18722982704639435 114.07170867919922 0.20068824291229248 113.99278259277344 C 0.211237370967865 114.03521728515625 0.2187238186597824 114.12567138671875 0.22397561371326447 114.31175994873047 C 0.22952188551425934 114.52674102783203 0.23165695369243622 114.65882110595703 0.2276381254196167 114.7576675415039 C 0.22065313160419464 114.83616638183594 0.20981824398040771 114.80013275146484 0.1948518604040146 114.69266510009766 C 0.18023042380809784 114.68666076660156 0.16599777340888977 114.6883544921875 0.15038004517555237 114.56652069091797" stroke-width="2.0" fill="rgb(0, 255, 0)" opacity="1.0" stroke="rgb(0, 255, 0)" stroke-opacity="1.0" stroke-linecap="round" stroke-linejoin="round"/>
    <path d="M 0.006755416747182608 114.6135025024414 C 0.006757955066859722 114.61366271972656 0.006752466782927513 114.6088638305664 0.0067548430524766445 114.57620239257812 C 0.006763726007193327 114.47687530517578 0.006790216080844402 114.43789672851562 0.00684415502473712 114.5811767578125 C 0.006922807078808546 114.67677307128906 0.006915759760886431 114.74494934082031 0.0068023488856852055 114.899169921875 C 0.00670840498059988 115.0298843383789 0.006652008276432753 115.10066223144531 0.0065613798797130585 115.22965240478516 C 0.006469937041401863 115.4030532836914 0.006361143197864294 115.48932647705078 0.006210861727595329 115.60025024414062 C 0.006113870069384575 115.71361541748047 0.006058633793145418 115.763427734375 0.0059839533641934395 115.84127807617188 C 0.00595798809081316 115.95525360107422 0.005977827589958906 116.02313995361328 0.005985494237393141 116.07779693603516 C 0.0060475049540400505 116.1328125 0.006159604527056217 116.19631958007812 0.006276410073041916 116.27960968017578 C 0.006470023654401302 116.29685974121094 0.006728189066052437 116.23810577392578 0.0070016346871852875 116.20963287353516 C 0.007331874221563339 116.1716537475586 0.007653456646949053 116.08108520507812 0.007907208986580372 116.03097534179688 C 0.008179103024303913 115.99610137939453 0.008417267352342606 115.91236877441406 0.008556727319955826 115.84652709960938 C 0.008697528392076492 115.78520202636719 0.008798148483037949 115.71137237548828 0.008751273155212402 115.69880676269531 C 0.008580407127737999 115.6697769165039 0.00825236365199089 115.65556335449219 0.007839822210371494 115.78225708007812 C 0.007466243114322424 115.90489959716797 0.0070862784050405025 115.96536254882812 0.006707394495606422 116.09100341796875 C 0.006421077996492386 116.1775131225586 0.006162478122860193 116.22093200683594 0.005879068281501532 116.30541229248047 C 0.005616415292024612 116.32393646240234 0.0053596352227032185 116.30707550048828 0.005106967408210039 116.41934967041016 C 0.00492179486900568 116.48019409179688 0.0047744279727339745 116.42823791503906 0.004633531905710697 116.43415832519531 C 0.004529235418885946 116.42591094970703 0.004454254172742367 116.3815689086914 0.004397595766931772 116.43022155761719 C 0.004407357424497604 116.43093872070312 0.0044726040214300156 116.32781982421875 0.004570559598505497 116.28346252441406 C 0.00475724833086133 116.2040786743164 0.005003481637686491 116.0412826538086 0.0052772099152207375 115.95952606201172" stroke-width="2.0" fill="rgb(0, 0, 255)" opacity="1.0" stroke="rgb(0, 0, 255)" stroke-opacity="1.0" stroke-linecap="round" stroke-linejoin="round"/>
  </g>
</svg>
