<?xml version="1.0" ?>
<svg xmlns="http://www.w3.org/2000/svg" version="1.1" width="128" height="128">
  <defs/>
  <g>
    <path d="M 0.010414045304059982 124.39366149902344 C 0.01043036486953497 124.3931884765625 0.010400122031569481 124.40753936767578 0.010494016110897064 124.47073364257812 C 0.010638006031513214 124.53256225585938 0.010647098533809185 124.46409606933594 0.010432860814034939 124.14800262451172 C 0.010173347778618336 123.1817626953125 0.009987291879951954 121.0787353515625 0.009828378446400166 117.67509460449219 C 0.009986501187086105 112.03508758544922 0.009659180417656898 103.09573364257812 0.010455988347530365 89.74269104003906 C 0.012907493859529495 69.02188110351562 0.017259692773222923 40.466590881347656 0.024976080283522606 18.149028778076172 C 0.03919178992509842 7.606754302978516 0.056601643562316895 3.426847457885742 0.06911466270685196 1.8415791988372803 C 0.08277032524347305 1.07228422164917 0.11070465296506882 0.6495704054832458 0.17103397846221924 0.428156316280365 C 0.29005560278892517 0.3063490092754364 0.5018009543418884 0.21812576055526733 0.8652957677841187 0.15635760128498077 C 1.503243088722229 0.11499308794736862 2.5637245178222656 0.08942417800426483 4.420472145080566 0.07335993647575378 C 8.030771255493164 0.06351472437381744 15.061155319213867 0.05876855179667473 28.103851318359375 0.058214280754327774 C 49.88914108276367 0.05891359597444534 77.60514068603516 0.06271255761384964 101.34393310546875 0.06822477281093597 C 115.52871704101562 0.0746593251824379 122.19325256347656 0.07978180050849915 125.19291687011719 0.0900985524058342 C 126.55268859863281 0.11277700215578079 127.15184020996094 0.14707837998867035 127.45185089111328 0.19600816071033478 C 127.64006805419922 0.2721998393535614 127.74697875976562 0.3909193277359009 127.81825256347656 0.6175233125686646 C 127.87146759033203 1.1153144836425781 127.90540313720703 2.185764789581299 127.9286117553711 4.525073051452637 C 127.94901275634766 9.827727317810059 127.9627456665039 20.178882598876953 127.96961212158203 37.341373443603516 C 127.97351837158203 62.392860412597656 127.9728775024414 90.76693725585938 127.96855926513672 112.5697250366211 C 127.9654312133789 122.96895599365234 127.95494079589844 126.15654754638672 127.91991424560547 127.09223937988281 C 127.82678985595703 127.42172241210938 127.52178192138672 127.56338500976562 126.19398498535156 127.62421417236328 C 119.1943130493164 127.63560485839844 83.82966613769531 127.62022399902344 24.277973175048828 127.57440185546875" stroke-width="2.0" fill="rgb(252, 194, 27)" opacity="1.0" stroke="rgb(252, 194, 27)" stroke-opacity="1.0" stroke-linecap="round" stroke-linejoin="round"/>
    <path d="M 44.53406524658203 83.66032409667969 C 44.55071258544922 83.68975067138672 44.42457962036133 83.6061782836914 44.339351654052734 83.80780029296875 C 44.79396438598633 84.31800079345703 46.37826919555664 85.79227447509766 50.0971794128418 89.25249481201172 C 57.99449157714844 93.3115005493164 68.65843200683594 94.33992004394531 80.40621185302734 90.86443328857422 C 89.67840576171875 85.22224426269531 92.56696319580078 81.02709197998047 90.4148178100586 79.07962036132812 C 88.8278579711914 78.82950592041016 88.27777099609375 78.57083892822266 87.90287017822266 76.92542266845703 C 88.34674835205078 74.0145263671875 89.29241180419922 71.0079116821289 89.38187408447266 68.79876708984375 C 88.43285369873047 67.32402801513672 87.11386108398438 66.62067413330078 85.71233367919922 66.3125991821289 C 84.08892059326172 65.49150848388672 82.9006118774414 64.0281982421875 82.0484619140625 62.03377151489258 C 80.81883239746094 59.71107864379883 80.24398040771484 57.616947174072266 80.57841491699219 55.68023681640625 C 80.66220092773438 53.6872673034668 81.09487915039062 51.833740234375 82.8618392944336 49.661739349365234 C 85.0906982421875 47.544517517089844 87.46282196044922 46.87083435058594 90.15803527832031 47.41286849975586 C 92.38896942138672 48.14345169067383 93.79856872558594 49.27213668823242 94.92508697509766 50.75868225097656 C 95.7381820678711 51.9151725769043 95.9567642211914 53.22669982910156 95.939208984375 55.17523193359375 C 95.9222412109375 57.04570770263672 95.7470932006836 58.82913589477539 95.63182067871094 60.95677947998047 C 95.55672454833984 62.9357795715332 94.77046203613281 64.4244613647461 93.20623016357422 65.33280944824219 C 91.41813659667969 65.54521942138672 89.81470489501953 66.28685760498047 88.91715240478516 68.45175170898438 C 88.535888671875 71.03234100341797 88.1085433959961 73.90097045898438 87.6393051147461 77.34112548828125 C 86.68553161621094 80.34004974365234 84.3060531616211 82.58026885986328 80.69014739990234 84.96331024169922 C 76.63934326171875 87.09898376464844 72.26042938232422 88.1897201538086 67.87969970703125 88.58890533447266 C 63.643070220947266 88.47794342041016 59.05398941040039 87.45233917236328 55.02301025390625 86.33435821533203" stroke-width="2.0" fill="rgb(255, 0, 0)" opacity="1.0" stroke="rgb(255, 0, 0)" stroke-opacity="1.0" stroke-linecap="round" stroke-linejoin="round"/>
    <path d="M 0.19690465927124023 109.67816925048828 C 0.19685021042823792 109.68952941894531 0.19677740335464478 109.68370819091797 0.19667793810367584 109.73462677001953 C 0.19699235260486603 109.83966827392578 0.19450242817401886 109.96775817871094 0.18540510535240173 110.06246948242188 C 0.17098185420036316 110.40283203125 0.15857331454753876 110.81505584716797 0.15247410535812378 110.7629623413086 C 0.151132732629776 110.21331024169922 0.15089718997478485 109.3384780883789 0.14957495033740997 108.45125579833984 C 0.1468607634305954 108.02049255371094 0.14220449328422546 107.80239868164062 0.13609002530574799 107.50870513916016 C 0.13018560409545898 107.49544525146484 0.1249195858836174 107.5850830078125 0.11977358907461166 107.5357666015625 C 0.11537199467420578 107.68962860107422 0.1120702251791954 107.87503814697266 0.10952345281839371 107.80718994140625 C 0.10742537677288055 107.73938751220703 0.10547057539224625 107.75349426269531 0.1036241203546524 107.80964660644531 C 0.10190662741661072 108.08226013183594 0.10017763078212738 108.49921417236328 0.09850900620222092 108.82718658447266 C 0.09677695482969284 109.14794921875 0.09500052779912949 109.63491821289062 0.09382924437522888 110.18177795410156 C 0.09378320723772049 110.62322998046875 0.09512581676244736 110.95951843261719 0.09780817478895187 111.17034149169922 C 0.10179541260004044 111.3335952758789 0.1074393019080162 111.67779541015625 0.11590731143951416 112.11320495605469 C 0.1275784820318222 112.38743591308594 0.14097881317138672 112.5933837890625 0.1567583680152893 112.72750091552734 C 0.17619474232196808 112.62763977050781 0.1989428848028183 112.54308319091797 0.22805631160736084 112.58970642089844 C 0.2657380700111389 112.28352355957031 0.30518612265586853 111.7916488647461 0.34289583563804626 111.60334777832031 C 0.38119304180145264 111.41925811767578 0.41462621092796326 111.15312957763672 0.44258129596710205 111.21205139160156 C 0.4724624752998352 111.38920593261719 0.4997570514678955 111.44855499267578 0.5217699408531189 111.60079193115234 C 0.5440338253974915 111.80450439453125 0.5583353638648987 111.82980346679688 0.5581874847412109 111.76309967041016 C 0.551467776298523 111.77759552001953 0.536240816116333 111.73075103759766 0.5077085494995117 111.59293365478516 C 0.47376295924186707 111.60950469970703 0.43896448612213135 111.64089965820312 0.40244099497795105 111.4866714477539" stroke-width="2.0" fill="rgb(0, 255, 0)" opacity="1.0" stroke="rgb(0, 255, 0)" stroke-opacity="1.0" stroke-linecap="round" stroke-linejoin="round"/>
    <path d="M 0.01116615068167448 113.3692626953125 C 0.011170272715389729 113.37024688720703 0.011161116883158684 113.3619155883789 0.011166737414896488 113.31912231445312 C 0.011192269623279572 113.21533203125 0.011258787475526333 113.18904113769531 0.011334095150232315 113.34821319580078 C 0.011382238939404488 113.52324676513672 0.011274440214037895 113.68556213378906 0.01104679238051176 113.85355377197266 C 0.010917727835476398 113.98416137695312 0.010834850370883942 114.0927505493164 0.010616045445203781 114.26192474365234 C 0.01039442140609026 114.3907241821289 0.010199380107223988 114.44107818603516 0.009949230588972569 114.54112243652344 C 0.009770738892257214 114.66917419433594 0.009640565142035484 114.76219177246094 0.009486506693065166 114.89420318603516 C 0.009431474842131138 115.04488372802734 0.00946772750467062 115.11024475097656 0.009488985873758793 115.1566390991211 C 0.009608048014342785 115.22660827636719 0.009793984703719616 115.28282928466797 0.009966874495148659 115.34358215332031 C 0.010256192646920681 115.36029815673828 0.010648835450410843 115.309814453125 0.0110655901953578 115.30081176757812 C 0.011583128944039345 115.28569793701172 0.012097408063709736 115.19134521484375 0.012498986907303333 115.13211822509766 C 0.01295171957463026 115.10520935058594 0.013428784906864166 114.99369049072266 0.01380586251616478 114.84654998779297 C 0.014161632396280766 114.71280670166016 0.014415489509701729 114.6063461303711 0.014458675868809223 114.60612487792969 C 0.014329367317259312 114.63298034667969 0.013919930905103683 114.62519073486328 0.013302063569426537 114.67646026611328 C 0.01270067784935236 114.75502014160156 0.012075752019882202 114.83393096923828 0.011389720253646374 114.9741439819336 C 0.010845175944268703 115.04144287109375 0.010406550019979477 115.07124328613281 0.00994298979640007 115.19596862792969 C 0.009485439397394657 115.2353515625 0.009056643582880497 115.23072814941406 0.008669290691614151 115.33230590820312 C 0.00836433656513691 115.4092788696289 0.008116655983030796 115.3876724243164 0.007868298329412937 115.38308715820312 C 0.0076933372765779495 115.3370132446289 0.007559983525425196 115.25493621826172 0.007472846191376448 115.29711151123047 C 0.007519532926380634 115.30575561523438 0.007645118981599808 115.22383117675781 0.007798796519637108 115.18253326416016 C 0.008055031299591064 115.09306335449219 0.00840782467275858 114.93531799316406 0.008823724463582039 114.8595199584961" stroke-width="2.0" fill="rgb(0, 0, 255)" opacity="1.0" stroke="rgb(0, 0, 255)" stroke-opacity="1.0" stroke-linecap="round" stroke-linejoin="round"/>
  </g>
</svg>
