<?xml version="1.0" ?>
<svg xmlns="http://www.w3.org/2000/svg" version="1.1" width="128" height="128">
  <defs/>
  <g>
    <path d="M 0.004527952987700701 126.07923126220703 C 0.004536843858659267 126.07891082763672 0.00452315341681242 126.08625030517578 0.004563090391457081 126.119873046875 C 0.004602936562150717 126.15593719482422 0.004459082614630461 126.11966705322266 0.004038679413497448 125.8762435913086 C 0.003491082927212119 125.32543182373047 0.003140079788863659 124.23821258544922 0.0032600664999336004 122.44694519042969 C 0.0036136070266366005 119.53914642333984 0.003998962696641684 114.25141143798828 0.004183527547866106 105.64471435546875 C 0.004787887446582317 92.20919799804688 0.005784929729998112 70.04845428466797 0.007700515445321798 39.473201751708984 C 0.01158878579735756 15.781798362731934 0.018692497164011 5.816608428955078 0.029667625203728676 2.1905717849731445 C 0.041779518127441406 1.037208914756775 0.05665767937898636 0.5523555874824524 0.08724887669086456 0.3069781959056854 C 0.15230804681777954 0.1876506358385086 0.28689390420913696 0.1194247305393219 0.5735491514205933 0.07988215982913971 C 1.208141803741455 0.056915562599897385 2.5409176349639893 0.04294779896736145 5.608767986297607 0.03532998636364937 C 12.97867202758789 0.03134668245911598 27.463523864746094 0.03005371429026127 50.70341873168945 0.03006385825574398 C 81.17269134521484 0.03232366591691971 105.51970672607422 0.03549325838685036 118.34900665283203 0.03998016193509102 C 124.00691986083984 0.04488387703895569 126.17823791503906 0.05259948968887329 127.07234191894531 0.06688380986452103 C 127.49136352539062 0.0875031054019928 127.67974090576172 0.11587920784950256 127.78534698486328 0.1682017296552658 C 127.85963439941406 0.26838114857673645 127.90361022949219 0.4590892493724823 127.93067169189453 0.8668540120124817 C 127.95289611816406 1.835411548614502 127.96675872802734 4.01634407043457 127.97711944580078 8.914703369140625 C 127.98492431640625 19.246623992919922 127.98837280273438 36.4304313659668 127.98933410644531 61.194114685058594 C 127.98947143554688 91.5019760131836 127.98825073242188 114.03754425048828 127.98660278320312 123.7569580078125 C 127.98388671875 126.61418151855469 127.9732437133789 127.41585540771484 127.94046020507812 127.65827941894531 C 127.84978485107422 127.75807189941406 127.51632690429688 127.80985260009766 125.80953216552734 127.82316589355469 C 115.93126678466797 127.82315063476562 70.85020446777344 127.81291198730469 16.408329010009766 127.78966522216797" stroke-width="2.0" fill="rgb(252, 194, 27)" opacity="1.0" stroke="rgb(252, 194, 27)" stroke-opacity="1.0" stroke-linecap="round" stroke-linejoin="round"/>
    <path d="M 56.004234313964844 96.0366439819336 C 56.00950241088867 96.04273223876953 55.8108024597168 95.96949768066406 55.470489501953125 96.39177703857422 C 56.879669189453125 98.29328155517578 62.751399993896484 99.87836456298828 69.84159851074219 97.36485290527344 C 68.13072204589844 93.13512420654297 57.200714111328125 91.0042724609375 51.70581817626953 88.20176696777344 C 56.24473190307617 83.76068878173828 61.69134521484375 79.70223999023438 63.60078048706055 76.17124938964844 C 64.04922485351562 72.48081970214844 65.09416961669922 68.7315673828125 66.9296646118164 64.76206970214844 C 68.9776611328125 60.79433822631836 71.81094360351562 57.78789520263672 75.43097686767578 55.86345291137695 C 78.5461196899414 54.54726791381836 80.73722839355469 53.82986831665039 81.91297912597656 53.4261474609375 C 81.96287536621094 52.644012451171875 81.55947875976562 51.36351013183594 80.8119125366211 49.67757797241211 C 79.63980865478516 47.54086685180664 79.16117858886719 45.319820404052734 79.76050567626953 43.20168685913086 C 80.4163818359375 41.2410888671875 81.52720642089844 39.759033203125 83.60005950927734 38.70405578613281 C 85.63128662109375 37.828792572021484 87.61754608154297 37.715667724609375 90.15880584716797 38.67060470581055 C 92.39955139160156 40.145591735839844 93.71446990966797 42.222877502441406 94.62518310546875 44.70095443725586 C 95.1294174194336 46.73658752441406 95.00233459472656 48.586814880371094 94.66092681884766 50.785099029541016 C 94.17163848876953 52.664306640625 92.95025634765625 54.00612258911133 90.82096862792969 55.14345169067383 C 88.61321258544922 55.7129020690918 86.62494659423828 55.62749481201172 84.38919830322266 54.93389129638672 C 82.04584503173828 54.0322265625 79.39859771728516 54.31954574584961 75.94985961914062 55.98788070678711 C 72.25159454345703 57.75400161743164 68.96858215332031 60.959136962890625 66.46385955810547 66.61395263671875 C 64.67821502685547 71.7306900024414 63.49342727661133 74.7439193725586 63.8742561340332 77.20313262939453 C 65.49520874023438 78.5107421875 66.92942810058594 78.10527801513672 69.84359741210938 78.90283966064453 C 74.70378112792969 82.42271423339844 76.99696350097656 87.16262817382812 76.09050750732422 91.76103973388672" stroke-width="2.0" fill="rgb(255, 0, 0)" opacity="1.0" stroke="rgb(255, 0, 0)" stroke-opacity="1.0" stroke-linecap="round" stroke-linejoin="round"/>
    <path d="M 0.39031487703323364 107.7688217163086 C 0.3901877701282501 107.78301239013672 0.38997435569763184 107.76934814453125 0.3898501694202423 107.83338928222656 C 0.3926982581615448 108.01863098144531 0.3939329981803894 108.21839141845703 0.38396185636520386 108.20698547363281 C 0.3616804778575897 108.42955017089844 0.3429805040359497 108.78995513916016 0.3388653099536896 108.593505859375 C 0.3424576222896576 107.76873779296875 0.3445446491241455 106.59728240966797 0.34439772367477417 105.59494018554688 C 0.3423607647418976 105.16840362548828 0.33644983172416687 104.80157470703125 0.32636961340904236 104.28974151611328 C 0.3147535026073456 104.2264404296875 0.3036009669303894 104.37113189697266 0.2926865816116333 104.29962921142578 C 0.2825269401073456 104.38262939453125 0.2740781009197235 104.56121063232422 0.2676926851272583 104.59786224365234 C 0.2641715407371521 104.65644073486328 0.263248473405838 104.66130065917969 0.26349160075187683 104.5547866821289 C 0.2640582025051117 104.56889343261719 0.26462361216545105 104.70177459716797 0.26263025403022766 104.7900161743164 C 0.2565544545650482 105.09207916259766 0.2490469068288803 105.86601257324219 0.24295836687088013 106.68514251708984 C 0.23875053226947784 107.21324157714844 0.23745274543762207 107.62916564941406 0.23990191519260406 108.01188659667969 C 0.24500003457069397 108.43841552734375 0.25329113006591797 109.12889862060547 0.26783424615859985 109.79312133789062 C 0.28858140110969543 110.06072998046875 0.3123449683189392 110.25582122802734 0.3424534201622009 110.50218963623047 C 0.3833010494709015 110.48059844970703 0.4324862062931061 110.35493469238281 0.49243542551994324 110.22183990478516 C 0.5627181529998779 109.84375762939453 0.6289525628089905 109.56262969970703 0.6916704177856445 109.64619445800781 C 0.7604629993438721 109.61212158203125 0.8235982060432434 109.44282531738281 0.8802801966667175 109.63936614990234 C 0.9448302388191223 110.02901458740234 1.0020002126693726 110.16849517822266 1.0376157760620117 110.24124908447266 C 1.0622609853744507 110.38843536376953 1.0640195608139038 110.39772033691406 1.0365214347839355 110.3888931274414 C 1.0009829998016357 110.52350616455078 0.9574822187423706 110.53096771240234 0.9017028212547302 110.39313507080078 C 0.8481619954109192 110.39031219482422 0.7985662817955017 110.3911361694336 0.7485064268112183 110.23680114746094" stroke-width="2.0" fill="rgb(0, 255, 0)" opacity="1.0" stroke="rgb(0, 255, 0)" stroke-opacity="1.0" stroke-linecap="round" stroke-linejoin="round"/>
    <path d="M 0.011292021721601486 114.00383758544922 C 0.011298204772174358 114.00416564941406 0.011284702457487583 113.99639129638672 0.011283421888947487 113.95657348632812 C 0.01129706297069788 113.87883758544922 0.011349324136972427 113.91485595703125 0.011392610147595406 114.16748809814453 C 0.011373450979590416 114.31266021728516 0.011194201186299324 114.36573791503906 0.010893041267991066 114.52090454101562 C 0.010622384026646614 114.68257141113281 0.010394916869699955 114.75568389892578 0.010123981162905693 114.85933685302734 C 0.009898648597300053 114.95533752441406 0.009699488990008831 115.00330352783203 0.009427707642316818 115.15023040771484 C 0.009223164059221745 115.33967590332031 0.009113275445997715 115.43466186523438 0.009006302803754807 115.52294158935547 C 0.008994107134640217 115.6320571899414 0.009042834863066673 115.67811584472656 0.009064548648893833 115.73365020751953 C 0.009166442789137363 115.81996154785156 0.009302573278546333 115.89422607421875 0.009392665699124336 115.97061920166016 C 0.009538494050502777 115.99221801757812 0.009726145304739475 115.99066162109375 0.00994732417166233 116.03052520751953 C 0.010316823609173298 116.015380859375 0.010770486667752266 115.90831756591797 0.011219379492104053 115.835693359375 C 0.011780304834246635 115.756103515625 0.012383612804114819 115.57899475097656 0.012848426587879658 115.37579345703125 C 0.013161154463887215 115.22064208984375 0.013281011022627354 115.21092224121094 0.01324028056114912 115.31049346923828 C 0.013166024349629879 115.3261489868164 0.012914659455418587 115.33110809326172 0.012480383738875389 115.4370346069336 C 0.012018094770610332 115.4984359741211 0.01143692247569561 115.45299530029297 0.010750437155365944 115.49756622314453 C 0.010151484981179237 115.6107406616211 0.009595430456101894 115.67671966552734 0.009096440859138966 115.80408477783203 C 0.008667100220918655 115.91569519042969 0.00825958326458931 115.94339752197266 0.007887845858931541 116.03744506835938 C 0.007632742170244455 116.09416961669922 0.007475611288100481 116.10212707519531 0.007370106875896454 116.15435028076172 C 0.007330392021685839 116.1516342163086 0.007272476330399513 116.09076690673828 0.007208401802927256 116.08943176269531 C 0.00722864642739296 116.015869140625 0.007333028130233288 115.8875732421875 0.007513640448451042 115.85962677001953 C 0.007817455567419529 115.8113021850586 0.008189037442207336 115.67533111572266 0.008606761693954468 115.60021209716797" stroke-width="2.0" fill="rgb(0, 0, 255)" opacity="1.0" stroke="rgb(0, 0, 255)" stroke-opacity="1.0" stroke-linecap="round" stroke-linejoin="round"/>
  </g>
</svg>
