<?xml version="1.0" ?>
<svg xmlns="http://www.w3.org/2000/svg" version="1.1" width="128" height="128">
  <defs/>
  <g>
    <path d="M 0.0075931185856461525 123.9932861328125 C 0.007606076542288065 123.98870849609375 0.007584875449538231 124.00910949707031 0.007653609849512577 124.079833984375 C 0.007822049781680107 124.16841888427734 0.007861136458814144 124.10435485839844 0.0075886738486588 123.7338638305664 C 0.0075569418258965015 122.76756286621094 0.0081827063113451 120.83968353271484 0.009320775978267193 117.85429382324219 C 0.010283712297677994 112.8499526977539 0.010602923110127449 104.4573974609375 0.011553212068974972 92.40621948242188 C 0.014723794534802437 74.38924407958984 0.019863732159137726 47.85761260986328 0.029085945338010788 22.48491096496582 C 0.04734053835272789 9.451371192932129 0.07448891550302505 4.111447334289551 0.0995035171508789 2.114295482635498 C 0.12269823253154755 1.2814805507659912 0.1597927063703537 0.8440091609954834 0.2328357696533203 0.5840380191802979 C 0.3810770809650421 0.43014398217201233 0.6461902856826782 0.31633517146110535 1.0958657264709473 0.23107977211475372 C 1.8528430461883545 0.17328433692455292 3.0640358924865723 0.13627444207668304 5.217952728271484 0.11185882240533829 C 9.353245735168457 0.09591926634311676 16.842071533203125 0.08836130797863007 29.42245864868164 0.08723000437021255 C 48.73041915893555 0.0898221880197525 74.22447967529297 0.09648960083723068 98.72516632080078 0.10507769882678986 C 114.21050262451172 0.11500990390777588 121.5463638305664 0.12634477019309998 124.8620376586914 0.14796136319637299 C 126.35326385498047 0.18663820624351501 126.9988021850586 0.23686005175113678 127.34099578857422 0.309289813041687 C 127.5699462890625 0.4351421594619751 127.70713806152344 0.6625237464904785 127.79515838623047 1.129210352897644 C 127.85623931884766 2.1125311851501465 127.89352416992188 4.107097148895264 127.9184799194336 8.524914741516113 C 127.94251251220703 17.617830276489258 127.95643615722656 32.86420440673828 127.96202850341797 54.79209518432617 C 127.96509552001953 82.92488861083984 127.96219635009766 107.20564270019531 127.95747375488281 120.21573638916016 C 127.95121765136719 125.07445526123047 127.92682647705078 126.6591796875 127.85420227050781 127.19811248779297 C 127.66236114501953 127.4346694946289 126.96395874023438 127.5536880493164 123.5312271118164 127.58335876464844 C 106.17012786865234 127.58039093017578 52.04862976074219 127.54460906982422 10.259029388427734 127.47393035888672" stroke-width="2.0" fill="rgb(252, 194, 27)" opacity="1.0" stroke="rgb(252, 194, 27)" stroke-opacity="1.0" stroke-linecap="round" stroke-linejoin="round"/>
    <path d="M 45.58859634399414 60.987239837646484 C 45.59067916870117 60.98104476928711 45.57920837402344 60.900569915771484 45.661033630371094 60.60570526123047 C 46.3902702331543 60.24443435668945 48.58336639404297 60.60639572143555 51.78700637817383 62.561641693115234 C 53.80655288696289 65.46613311767578 53.373233795166016 68.5061264038086 51.29433059692383 70.88765716552734 C 49.42915344238281 71.96841430664062 48.08213424682617 72.04798889160156 47.27692794799805 71.70343017578125 C 47.68093490600586 71.32460021972656 48.98030090332031 70.71841430664062 50.41717529296875 69.43991088867188 C 52.30924987792969 67.69829559326172 54.76845169067383 65.5028305053711 57.43593978881836 63.06149673461914 C 60.495941162109375 60.66157150268555 64.04212188720703 59.14165496826172 66.8351821899414 58.72249984741211 C 68.27395629882812 58.608917236328125 69.09832000732422 58.297603607177734 69.27409362792969 57.485015869140625 C 68.5274658203125 55.78361892700195 67.93965911865234 53.43902587890625 68.12097930908203 50.58141326904297 C 68.61754608154297 47.241371154785156 69.89395141601562 44.51225280761719 71.719970703125 42.86456298828125 C 72.91265869140625 41.86421203613281 73.87322235107422 41.96897506713867 75.54338836669922 43.38976287841797 C 77.61286926269531 45.149688720703125 79.76054382324219 46.87544250488281 81.9776382446289 48.74881362915039 C 83.66516876220703 50.21311569213867 83.93821716308594 51.7697868347168 82.99678039550781 54.12545394897461 C 81.4516830444336 56.39861297607422 79.46728515625 58.15630340576172 77.20990753173828 59.51105880737305 C 75.06275939941406 59.87799835205078 72.94093322753906 59.52066421508789 70.42902374267578 58.88878631591797 C 67.61432647705078 58.34962463378906 64.70429992675781 59.04412841796875 61.24613952636719 61.149105072021484 C 57.62376403808594 63.07062530517578 55.28425216674805 65.11637878417969 55.13399887084961 68.12309265136719 C 56.130157470703125 71.11400604248047 56.36343002319336 73.96064758300781 56.11778259277344 77.52606201171875 C 55.817588806152344 81.14653778076172 54.65637969970703 84.04224395751953 52.60779571533203 86.8665771484375 C 50.07826232910156 89.25601959228516 46.70635986328125 89.80821990966797 43.200523376464844 88.56986236572266" stroke-width="2.0" fill="rgb(255, 0, 0)" opacity="1.0" stroke="rgb(255, 0, 0)" stroke-opacity="1.0" stroke-linecap="round" stroke-linejoin="round"/>
    <path d="M 0.34900254011154175 107.12239074707031 C 0.3487602770328522 107.13685607910156 0.3488335907459259 107.13182067871094 0.3479922413825989 107.1944351196289 C 0.34696561098098755 107.35578918457031 0.33999577164649963 107.56934356689453 0.32281938195228577 107.88276672363281 C 0.2977372109889984 108.4015121459961 0.2747572064399719 108.61104583740234 0.26117032766342163 108.16770935058594 C 0.2549382150173187 107.42888641357422 0.24853624403476715 106.56267547607422 0.2385503053665161 105.73320007324219 C 0.22642788290977478 105.3973617553711 0.2129417508840561 105.3279037475586 0.1998700201511383 105.30913543701172 C 0.1902719885110855 105.63587188720703 0.18358992040157318 105.92444610595703 0.17872366309165955 105.95738220214844 C 0.1764398217201233 106.07112121582031 0.17562496662139893 106.01858520507812 0.17430219054222107 105.74220275878906 C 0.17235809564590454 105.68659973144531 0.16923142969608307 105.69750213623047 0.16505476832389832 105.71066284179688 C 0.16097116470336914 106.07579040527344 0.15644392371177673 106.59707641601562 0.1511717587709427 107.01337432861328 C 0.1459456831216812 107.5003662109375 0.14123880863189697 108.05634307861328 0.13744905591011047 108.46420288085938 C 0.1351301372051239 108.82740020751953 0.1349862962961197 109.33911895751953 0.13747969269752502 109.8563003540039 C 0.1424289345741272 110.17991638183594 0.1495063602924347 110.454833984375 0.1594667285680771 110.81194305419922 C 0.1729513704776764 111.10383605957031 0.18900789320468903 111.31536865234375 0.20876508951187134 111.51237487792969 C 0.23459482192993164 111.53866577148438 0.26613515615463257 111.51535034179688 0.30682313442230225 111.49524688720703 C 0.35905125737190247 111.1133041381836 0.4149946868419647 110.62335968017578 0.4718787968158722 110.4661865234375 C 0.533462405204773 110.22868347167969 0.592343807220459 109.86046600341797 0.6485933661460876 109.7896957397461 C 0.711604118347168 109.852294921875 0.7712356448173523 109.81427764892578 0.8203169703483582 109.87409210205078 C 0.8679800629615784 109.9752426147461 0.9057995676994324 109.89385986328125 0.9234917759895325 109.74349975585938 C 0.9311850070953369 109.66665649414062 0.9285421967506409 109.56681060791016 0.9101672172546387 109.49504852294922 C 0.882767379283905 109.46930694580078 0.8446018695831299 109.29975891113281 0.7890421748161316 109.0475845336914" stroke-width="2.0" fill="rgb(0, 255, 0)" opacity="1.0" stroke="rgb(0, 255, 0)" stroke-opacity="1.0" stroke-linecap="round" stroke-linejoin="round"/>
    <path d="M 0.009446966461837292 113.49944305419922 C 0.009448695927858353 113.49942779541016 0.009444533847272396 113.49188232421875 0.009446993470191956 113.44844055175781 C 0.009458144195377827 113.36187744140625 0.00949351117014885 113.33277893066406 0.009551445953547955 113.46265411376953 C 0.009628243744373322 113.56942749023438 0.009633617475628853 113.6065673828125 0.009502559900283813 113.69795989990234 C 0.009359690360724926 113.80148315429688 0.009194238111376762 113.87821197509766 0.008997590281069279 114.08428955078125 C 0.008874770253896713 114.31615447998047 0.00877314805984497 114.46170806884766 0.008621054701507092 114.5919418334961 C 0.008524312637746334 114.70943450927734 0.008459416218101978 114.77782440185547 0.008364488370716572 114.88268280029297 C 0.008362127467989922 114.99291229248047 0.008412115275859833 115.0261001586914 0.008416464552283287 115.05803680419922 C 0.008482187986373901 115.11653900146484 0.008613716810941696 115.17301940917969 0.008739255368709564 115.23221588134766 C 0.008966121822595596 115.26092529296875 0.009293626993894577 115.26427459716797 0.009641245007514954 115.27650451660156 C 0.010077612474560738 115.23489379882812 0.010518712922930717 115.14131927490234 0.010877512395381927 115.0903549194336 C 0.011299927718937397 115.04721069335938 0.011732692830264568 114.9474105834961 0.01204035896807909 114.86487579345703 C 0.012311694212257862 114.77555084228516 0.012482610531151295 114.70498657226562 0.01250227726995945 114.72705078125 C 0.012428377754986286 114.7188720703125 0.012182890437543392 114.67943572998047 0.011760831810534 114.73925018310547 C 0.011302708648145199 114.77909851074219 0.010821085423231125 114.81150817871094 0.010330733843147755 114.93620300292969 C 0.009923381730914116 114.99209594726562 0.009526594541966915 114.98807525634766 0.009094202890992165 115.05755615234375 C 0.008659450337290764 115.06368255615234 0.008254851214587688 115.05704498291016 0.007856340147554874 115.14299774169922 C 0.0075308713130652905 115.1395492553711 0.0072384485974907875 115.07855224609375 0.006948535330593586 115.16657257080078 C 0.006737215910106897 115.21636199951172 0.0065916841849684715 115.14337921142578 0.0064851948991417885 115.16936492919922 C 0.006490336265414953 115.17866516113281 0.0065847537480294704 115.08521270751953 0.006723782978951931 115.04308319091797 C 0.006958395708352327 114.95928955078125 0.0072570620104670525 114.81196594238281 0.0076240855269134045 114.74266815185547" stroke-width="2.0" fill="rgb(0, 0, 255)" opacity="1.0" stroke="rgb(0, 0, 255)" stroke-opacity="1.0" stroke-linecap="round" stroke-linejoin="round"/>
  </g>
</svg>
