<?xml version="1.0" ?>
<svg xmlns="http://www.w3.org/2000/svg" version="1.1" width="128" height="128">
  <defs/>
  <g>
    <path d="M 0.013425788842141628 123.5852279663086 C 0.013447044417262077 123.5848159790039 0.013401268981397152 123.6016845703125 0.013506454415619373 123.67896270751953 C 0.013739526271820068 123.75748443603516 0.01404050923883915 123.70207977294922 0.014220578595995903 123.33358764648438 C 0.014400623738765717 122.20205688476562 0.014204207807779312 119.6983871459961 0.013731444254517555 115.69381713867188 C 0.013509521260857582 109.29783630371094 0.013273072429001331 100.03978729248047 0.0148563077673316 86.36504364013672 C 0.018665781244635582 64.89663696289062 0.025365740060806274 37.41451644897461 0.03761618584394455 17.361330032348633 C 0.058341629803180695 7.765644073486328 0.07961632311344147 3.8603312969207764 0.0926581472158432 2.1729369163513184 C 0.10990141332149506 1.3114248514175415 0.14703524112701416 0.8335943222045898 0.2217143177986145 0.5739958882331848 C 0.3593904674053192 0.4274739623069763 0.5912023782730103 0.3150362968444824 0.9647498726844788 0.2296237349510193 C 1.5971421003341675 0.16883836686611176 2.5929360389709473 0.13066281378269196 4.205477237701416 0.1077069342136383 C 7.097530841827393 0.0926906019449234 12.32676887512207 0.0837591290473938 22.236221313476562 0.08209699392318726 C 39.72774887084961 0.08233194053173065 64.83638000488281 0.08568926900625229 91.09542083740234 0.09307165443897247 C 109.60562133789062 0.10003925859928131 119.02714538574219 0.10651778429746628 123.62171173095703 0.11566764116287231 C 125.79618835449219 0.13803021609783173 126.74808502197266 0.1771710067987442 127.21622467041016 0.23499533534049988 C 127.49434661865234 0.32101306319236755 127.64801788330078 0.4502044916152954 127.74598693847656 0.6810060739517212 C 127.818603515625 1.1604208946228027 127.86359405517578 2.1560983657836914 127.89582061767578 4.278787612915039 C 127.92289733886719 9.041145324707031 127.94194793701172 18.15110969543457 127.95343017578125 33.7974853515625 C 127.96073913574219 57.35039520263672 127.96139526367188 85.02274322509766 127.95602416992188 108.4784164428711 C 127.95205688476562 121.22283935546875 127.94027709960938 125.51036834716797 127.89982604980469 126.79521179199219 C 127.79149627685547 127.23892974853516 127.44454193115234 127.42784881591797 125.97239685058594 127.51246643066406 C 118.4885482788086 127.53338623046875 82.51148986816406 127.51807403564453 24.127788543701172 127.46216583251953" stroke-width="2.0" fill="rgb(252, 194, 27)" opacity="1.0" stroke="rgb(252, 194, 27)" stroke-opacity="1.0" stroke-linecap="round" stroke-linejoin="round"/>
    <path d="M 45.64091110229492 83.48983764648438 C 45.65760040283203 83.51775360107422 45.531497955322266 83.42078399658203 45.41888427734375 83.57608795166016 C 45.85136032104492 84.26835632324219 47.59050369262695 86.1330337524414 52.35872268676758 89.81278991699219 C 61.963687896728516 93.7608871459961 72.87814331054688 93.98890686035156 83.10577392578125 88.8307113647461 C 90.66354370117188 83.1444320678711 92.32395935058594 79.98477172851562 90.01058197021484 78.83200073242188 C 88.7234878540039 78.68280792236328 88.44834899902344 78.16924285888672 88.14460754394531 76.42305755615234 C 88.46479797363281 73.60250854492188 89.25520324707031 70.4974136352539 89.60327911376953 67.70311737060547 C 89.28650665283203 65.53855895996094 88.11135864257812 64.56348419189453 85.32748413085938 65.0448226928711 C 81.40763854980469 65.75794219970703 78.49966430664062 65.8110122680664 76.74646759033203 65.22138214111328 C 75.16793823242188 64.40862274169922 74.93738555908203 63.29635238647461 76.24486541748047 61.57972717285156 C 77.68434143066406 59.646331787109375 79.92479705810547 57.98371887207031 83.09539794921875 56.057861328125 C 86.23858642578125 53.8310661315918 90.00445556640625 52.22580337524414 94.38671875 50.7620964050293 C 97.43961334228516 49.76513671875 98.7197036743164 50.37019729614258 98.97257232666016 52.11442565917969 C 98.60385131835938 53.78349685668945 97.8995590209961 55.50278854370117 97.50581359863281 57.88421630859375 C 97.84273529052734 60.362548828125 98.57588958740234 62.34602355957031 99.0367431640625 64.28033447265625 C 98.81706237792969 65.50472259521484 97.4404067993164 65.67774963378906 95.04468536376953 65.33728790283203 C 92.26851654052734 64.9291763305664 89.93586730957031 65.73285675048828 88.95035552978516 68.27400970458984 C 88.73270416259766 71.22901916503906 88.23681640625 74.36077880859375 87.59281921386719 77.91621398925781 C 86.34246826171875 80.77613830566406 83.69035339355469 82.70037841796875 80.20198059082031 84.76300811767578 C 76.64862060546875 86.60379028320312 72.72208404541016 87.51978302001953 68.68937683105469 87.91402435302734 C 64.28776550292969 87.78675842285156 59.34904861450195 87.00236511230469 55.55353927612305 86.56035614013672" stroke-width="2.0" fill="rgb(255, 0, 0)" opacity="1.0" stroke="rgb(255, 0, 0)" stroke-opacity="1.0" stroke-linecap="round" stroke-linejoin="round"/>
    <path d="M 0.13907942175865173 110.9218521118164 C 0.13903683423995972 110.93317413330078 0.13895845413208008 110.92781066894531 0.13892503082752228 110.9876480102539 C 0.13942499458789825 111.09323120117188 0.13793149590492249 111.19564056396484 0.13142362236976624 111.25223541259766 C 0.12101278454065323 111.57319641113281 0.11224618554115295 111.98973846435547 0.10814487934112549 111.94043731689453 C 0.10733599960803986 111.40281677246094 0.10737435519695282 110.59385681152344 0.10699330270290375 109.7554702758789 C 0.10589589923620224 109.29519653320312 0.10332225263118744 109.02838134765625 0.0993732213973999 108.69343566894531 C 0.09514861553907394 108.63885498046875 0.09110921621322632 108.72621154785156 0.08712814003229141 108.69143676757812 C 0.08367455005645752 108.84284973144531 0.08101680874824524 109.04388427734375 0.07900156825780869 108.99752807617188 C 0.07737484574317932 108.92066192626953 0.07587605714797974 108.92355346679688 0.0745030865073204 108.97884368896484 C 0.07320839911699295 109.21351623535156 0.07185065001249313 109.60917663574219 0.07048265635967255 109.9523696899414 C 0.06921786814928055 110.28266906738281 0.06807994097471237 110.77233123779297 0.06748095154762268 111.30802917480469 C 0.06771215796470642 111.72118377685547 0.06887702643871307 112.0276107788086 0.07094582915306091 112.2242202758789 C 0.07397419959306717 112.39862823486328 0.07834891229867935 112.73995208740234 0.08491723239421844 113.1235122680664 C 0.09387008100748062 113.34697723388672 0.10416600108146667 113.55545043945312 0.11649756133556366 113.71945190429688 C 0.13197384774684906 113.61648559570312 0.15023979544639587 113.47687530517578 0.1735638827085495 113.49213409423828 C 0.20381127297878265 113.20970916748047 0.23555423319339752 112.7220230102539 0.2654784619808197 112.48633575439453 C 0.29504114389419556 112.28921508789062 0.3202180862426758 112.05038452148438 0.3404790759086609 112.09803771972656 C 0.3611661493778229 112.2630615234375 0.37937694787979126 112.34607696533203 0.3931272625923157 112.51673889160156 C 0.4062507450580597 112.71846008300781 0.41345566511154175 112.78466796875 0.41098812222480774 112.81108856201172 C 0.40404799580574036 112.88733673095703 0.38965579867362976 112.83768463134766 0.3650677800178528 112.67337799072266 C 0.3375990688800812 112.67862701416016 0.31060791015625 112.71614074707031 0.28311604261398315 112.57846069335938" stroke-width="2.0" fill="rgb(0, 255, 0)" opacity="1.0" stroke="rgb(0, 255, 0)" stroke-opacity="1.0" stroke-linecap="round" stroke-linejoin="round"/>
    <path d="M 0.010519775561988354 113.68260955810547 C 0.010524450801312923 113.68354797363281 0.010515081696212292 113.675537109375 0.010518311522901058 113.62873840332031 C 0.01053493469953537 113.51778411865234 0.010574297979474068 113.50895690917969 0.010615255683660507 113.74686431884766 C 0.01063339039683342 113.97884368896484 0.01051751896739006 114.10863494873047 0.010291658341884613 114.24258422851562 C 0.010133476927876472 114.38817596435547 0.009982350282371044 114.49993896484375 0.009748384356498718 114.63524627685547 C 0.009571285918354988 114.74462127685547 0.009420078247785568 114.77685546875 0.009190214797854424 114.86615753173828 C 0.008994999341666698 115.01502990722656 0.008860369212925434 115.12846374511719 0.008708259090781212 115.27100372314453 C 0.008655974641442299 115.4017333984375 0.008695272728800774 115.45792388916016 0.008743065409362316 115.50640106201172 C 0.008873763494193554 115.55465698242188 0.009058387950062752 115.58709716796875 0.009242975153028965 115.64352416992188 C 0.009538566693663597 115.66204071044922 0.009906250983476639 115.62060546875 0.010268631391227245 115.63884735107422 C 0.01072729378938675 115.6352310180664 0.011199903674423695 115.53031921386719 0.011575874872505665 115.46293640136719 C 0.01200596522539854 115.42292022705078 0.012472294270992279 115.30606079101562 0.012830134481191635 115.14908599853516 C 0.013098840601742268 114.99110412597656 0.013215948827564716 114.89570617675781 0.013164241798222065 114.94200897216797 C 0.01303148828446865 115.00598907470703 0.012695349752902985 115.03933715820312 0.012161973863840103 115.12156677246094 C 0.011659516952931881 115.14997100830078 0.01110476441681385 115.16346740722656 0.01047340128570795 115.30975341796875 C 0.009936554357409477 115.38436126708984 0.009471962228417397 115.3805160522461 0.009017698466777802 115.51031494140625 C 0.00860677845776081 115.60367584228516 0.008224410936236382 115.62046813964844 0.007882627658545971 115.7230453491211 C 0.007652894593775272 115.78129577636719 0.007459532003849745 115.78184509277344 0.007266881410032511 115.81903839111328 C 0.007119556423276663 115.77577209472656 0.007003157399594784 115.66836547851562 0.006915093399584293 115.67463684082031 C 0.00694107124581933 115.68148040771484 0.007043107412755489 115.60054779052734 0.007183615118265152 115.56787872314453 C 0.007440307643264532 115.4886474609375 0.007780284620821476 115.33680725097656 0.008161750622093678 115.26228332519531" stroke-width="2.0" fill="rgb(0, 0, 255)" opacity="1.0" stroke="rgb(0, 0, 255)" stroke-opacity="1.0" stroke-linecap="round" stroke-linejoin="round"/>
  </g>
</svg>
