<?xml version="1.0" ?>
<svg xmlns="http://www.w3.org/2000/svg" version="1.1" width="128" height="128">
  <defs/>
  <g>
    <path d="M 0.0030682338401675224 125.90596771240234 C 0.003073906758800149 125.9067611694336 0.0030648589599877596 125.91436767578125 0.003095753025263548 125.95006561279297 C 0.0031279483810067177 125.97894287109375 0.0030305341351777315 125.91918182373047 0.00272301584482193 125.66435241699219 C 0.0023420066572725773 125.092041015625 0.002085005631670356 124.08890533447266 0.002155689289793372 122.43340301513672 C 0.0024055377580225468 119.84732818603516 0.0026094496715813875 115.04034423828125 0.0027408518362790346 107.27125549316406 C 0.0031020180322229862 95.29566955566406 0.0035910436417907476 76.72303771972656 0.004230866674333811 48.76161193847656 C 0.005450516939163208 21.610246658325195 0.007805269211530685 7.887230396270752 0.01239582896232605 2.9493579864501953 C 0.018346846103668213 1.2695963382720947 0.024355504661798477 0.6233295798301697 0.03554682806134224 0.3431643843650818 C 0.058903489261865616 0.20062145590782166 0.10664671659469604 0.12659822404384613 0.20956137776374817 0.08312646299600601 C 0.43034419417381287 0.05663494020700455 0.9317017197608948 0.04239331930875778 2.250474691390991 0.035481516271829605 C 6.043664455413818 0.031153464689850807 16.17066192626953 0.028964731842279434 38.99928665161133 0.028616879135370255 C 73.72212982177734 0.029305828735232353 102.67072296142578 0.031691402196884155 117.81938934326172 0.03426797688007355 C 123.93399810791016 0.037563253194093704 126.17366790771484 0.0431651696562767 127.07858276367188 0.05386902019381523 C 127.50724792480469 0.07037460803985596 127.70697021484375 0.0954781100153923 127.82018280029297 0.14339600503444672 C 127.8895034790039 0.23272086679935455 127.9271011352539 0.39895009994506836 127.94908905029297 0.7557920217514038 C 127.9657974243164 1.5957595109939575 127.9755630493164 3.6256024837493896 127.98274230957031 8.191015243530273 C 127.98832702636719 18.33535385131836 127.99111938476562 36.508384704589844 127.9923095703125 63.150169372558594 C 127.99273681640625 93.86915588378906 127.99244689941406 115.18352508544922 127.99122619628906 124.0152816772461 C 127.98802185058594 126.62134552001953 127.9776382446289 127.36137390136719 127.94927215576172 127.6120834350586 C 127.86324310302734 127.71820831298828 127.5068359375 127.76839447021484 125.52127075195312 127.77678680419922 C 113.08839416503906 127.77871704101562 60.704307556152344 127.75839233398438 11.203968048095703 127.73135375976562" stroke-width="2.0" fill="rgb(252, 194, 27)" opacity="1.0" stroke="rgb(252, 194, 27)" stroke-opacity="1.0" stroke-linecap="round" stroke-linejoin="round"/>
    <path d="M 25.88873863220215 48.974891662597656 C 25.87476921081543 48.97081756591797 25.917016983032227 48.844482421875 26.146615982055664 48.34837341308594 C 27.192365646362305 47.35518264770508 29.407806396484375 46.20643615722656 32.453285217285156 45.36090850830078 C 35.349788665771484 45.2794075012207 37.66834259033203 46.28338623046875 40.243568420410156 48.830604553222656 C 43.18780517578125 52.1241569519043 45.85926818847656 54.876625061035156 48.59988021850586 56.73534393310547 C 51.79644775390625 57.461212158203125 55.43271255493164 57.165809631347656 59.50060272216797 56.050804138183594 C 63.81879806518555 54.26909637451172 68.16087341308594 52.682106018066406 72.32174682617188 52.195865631103516 C 75.49444580078125 52.15401840209961 77.94274139404297 52.098358154296875 80.02626037597656 51.75184631347656 C 81.18811798095703 50.51044464111328 81.59954833984375 48.75660705566406 80.96815490722656 46.935882568359375 C 78.85609436035156 44.78791809082031 76.82696533203125 42.15492630004883 75.93234252929688 39.18804168701172 C 75.74685668945312 36.26213836669922 76.21609497070312 33.96413040161133 77.28533172607422 32.36924743652344 C 78.23284912109375 31.261159896850586 79.28866577148438 30.703079223632812 81.20777130126953 30.632036209106445 C 83.49989318847656 30.779096603393555 85.58132934570312 31.470178604125977 87.45320129394531 32.82606887817383 C 88.66108703613281 34.441749572753906 88.86687469482422 36.30326843261719 88.65419006347656 38.56955337524414 C 88.51764678955078 40.66498947143555 87.80697631835938 42.51720428466797 86.09598541259766 44.435935974121094 C 84.11370086669922 45.961368560791016 82.3061752319336 47.32802963256836 81.04422760009766 49.15558624267578 C 81.05213928222656 51.145084381103516 82.15690612792969 53.36600875854492 84.12214660644531 55.560691833496094 C 86.74898529052734 56.84407424926758 88.72457885742188 58.44843673706055 90.08504486083984 62.2974967956543 C 91.93269348144531 66.65775299072266 92.95983123779297 70.51614379882812 92.42253112792969 76.24181365966797 C 91.17745208740234 83.80000305175781 87.49644470214844 89.7466812133789 81.14437103271484 94.03068542480469 C 74.9204330444336 96.63520812988281 68.59893035888672 95.88248443603516 62.05704879760742 93.12033081054688" stroke-width="2.0" fill="rgb(255, 0, 0)" opacity="1.0" stroke="rgb(255, 0, 0)" stroke-opacity="1.0" stroke-linecap="round" stroke-linejoin="round"/>
    <path d="M 0.5621195435523987 104.98503875732422 C 0.5620005130767822 105.00303649902344 0.5615068674087524 104.99681091308594 0.5611305832862854 105.1400375366211 C 0.566113293170929 105.52009582519531 0.5737365484237671 105.96282958984375 0.5749655961990356 105.96517181396484 C 0.561583399772644 105.66004180908203 0.5438956618309021 105.26836395263672 0.5400776863098145 104.58853149414062 C 0.5482795834541321 103.6883544921875 0.552195131778717 102.71202087402344 0.5437006950378418 101.76466369628906 C 0.527729868888855 101.36385345458984 0.5097410082817078 101.22089385986328 0.49227383732795715 100.92887115478516 C 0.47675272822380066 100.92680358886719 0.4616645872592926 101.07160949707031 0.4475739300251007 101.13128662109375 C 0.43764689564704895 101.39742279052734 0.432331919670105 101.59585571289062 0.4317131042480469 101.55303955078125 C 0.437992662191391 101.57514190673828 0.44893878698349 101.39593505859375 0.45881208777427673 100.93326568603516 C 0.46470195055007935 100.77031707763672 0.46467146277427673 100.94269561767578 0.4563657343387604 101.14342498779297 C 0.4416440725326538 101.56961822509766 0.4240255653858185 102.30866241455078 0.4056510031223297 103.03291320800781 C 0.3895576298236847 103.6312026977539 0.3803827464580536 104.32504272460938 0.3803391754627228 105.03878021240234 C 0.38670453429222107 105.63370513916016 0.39784035086631775 106.34000396728516 0.4171714186668396 107.1093978881836 C 0.44592323899269104 107.51502990722656 0.4820157587528229 107.68328857421875 0.5296741127967834 107.8467025756836 C 0.5932607650756836 107.70649719238281 0.6652336120605469 107.46424102783203 0.7424780130386353 107.48394775390625 C 0.8273329734802246 107.4769287109375 0.9108077883720398 107.42278289794922 0.9962111711502075 107.62918090820312 C 1.0953062772750854 107.91307067871094 1.187764286994934 108.04022979736328 1.266890525817871 108.22506713867188 C 1.3531585931777954 108.51557159423828 1.4226775169372559 108.62565612792969 1.454580545425415 108.70361328125 C 1.469589352607727 108.84968566894531 1.4603173732757568 108.8731689453125 1.428690791130066 108.92623138427734 C 1.409491777420044 109.10704040527344 1.3926187753677368 109.11298370361328 1.3590061664581299 109.0413818359375 C 1.3220173120498657 109.1294174194336 1.262750506401062 109.05938720703125 1.1692759990692139 108.8313217163086" stroke-width="2.0" fill="rgb(0, 255, 0)" opacity="1.0" stroke="rgb(0, 255, 0)" stroke-opacity="1.0" stroke-linecap="round" stroke-linejoin="round"/>
    <path d="M 0.013296837918460369 112.59532928466797 C 0.013301733881235123 112.59439849853516 0.013290968723595142 112.58735656738281 0.013293441385030746 112.54349517822266 C 0.01331251859664917 112.44560241699219 0.013353598304092884 112.41165161132812 0.013388190418481827 112.57017517089844 C 0.013456947170197964 112.72679138183594 0.013354821130633354 112.8256607055664 0.013088389299809933 112.94158935546875 C 0.012868584133684635 113.03856658935547 0.012642388232052326 113.2039566040039 0.0123312808573246 113.45887756347656 C 0.012110646814107895 113.65667724609375 0.011884380131959915 113.75566864013672 0.01152986939996481 113.88809204101562 C 0.011265359818935394 114.05622100830078 0.011080552823841572 114.18087005615234 0.010872483253479004 114.3104019165039 C 0.010797151364386082 114.44261932373047 0.010835842229425907 114.49903106689453 0.010859012603759766 114.53301239013672 C 0.01096939668059349 114.5927734375 0.011165172792971134 114.65792083740234 0.011398684233427048 114.73141479492188 C 0.011836178600788116 114.75467681884766 0.012439749203622341 114.70936584472656 0.013088826090097427 114.67699432373047 C 0.01386285200715065 114.59696197509766 0.014614617452025414 114.45176696777344 0.015186356380581856 114.38170623779297 C 0.015790002420544624 114.33342742919922 0.01638464257121086 114.23068237304688 0.016859330236911774 114.13359832763672 C 0.017381414771080017 114.0172348022461 0.017824774608016014 113.92855072021484 0.018006213009357452 113.94768524169922 C 0.0180218443274498 113.94766235351562 0.017742294818162918 113.89190673828125 0.01714397221803665 113.88665771484375 C 0.016438961029052734 113.92042541503906 0.015637245029211044 113.99164581298828 0.014804352074861526 114.15470886230469 C 0.014134637080132961 114.2353515625 0.013540409505367279 114.24952697753906 0.012934735976159573 114.32247161865234 C 0.012368990108370781 114.32634735107422 0.011807026341557503 114.29023742675781 0.011305166408419609 114.35814666748047 C 0.010923258028924465 114.34901428222656 0.010569781064987183 114.27667999267578 0.010213404893875122 114.32095336914062 C 0.00996344443410635 114.34886932373047 0.009746934287250042 114.29530334472656 0.009520445950329304 114.32041931152344 C 0.009414455853402615 114.33916473388672 0.009455898776650429 114.27296447753906 0.00962140690535307 114.23168182373047 C 0.009968861006200314 114.12883758544922 0.010431131348013878 113.95599365234375 0.01094501931220293 113.85018920898438" stroke-width="2.0" fill="rgb(0, 0, 255)" opacity="1.0" stroke="rgb(0, 0, 255)" stroke-opacity="1.0" stroke-linecap="round" stroke-linejoin="round"/>
  </g>
</svg>
