<?xml version="1.0" ?>
<svg xmlns="http://www.w3.org/2000/svg" version="1.1" width="128" height="128">
  <defs/>
  <g>
    <path d="M 0.015706658363342285 123.6335678100586 C 0.015734916552901268 123.63258361816406 0.015680935233831406 123.65126037597656 0.01583295688033104 123.7347640991211 C 0.01617482863366604 123.83773040771484 0.016495127230882645 123.78441619873047 0.01629045233130455 123.27385711669922 C 0.015845205634832382 121.8155517578125 0.01473324652761221 118.97827911376953 0.013824687339365482 114.29762268066406 C 0.013227509334683418 106.78648376464844 0.013358870521187782 95.45286560058594 0.015218133106827736 78.2242660522461 C 0.020071662962436676 52.88432312011719 0.028970973566174507 26.860633850097656 0.045265983790159225 11.919586181640625 C 0.07038842886686325 5.384856224060059 0.09345552325248718 2.820674419403076 0.11124785244464874 1.6518468856811523 C 0.13951587677001953 1.061166524887085 0.19469663500785828 0.7187257409095764 0.2979164719581604 0.5246011018753052 C 0.4789237380027771 0.40095603466033936 0.7704715728759766 0.30536067485809326 1.236188292503357 0.2280922532081604 C 2.0103445053100586 0.1698734015226364 3.1369731426239014 0.13120199739933014 4.915585517883301 0.10767887532711029 C 8.158232688903809 0.0923682153224945 14.107587814331055 0.08467055857181549 24.89786148071289 0.08317302167415619 C 43.433937072753906 0.08439712226390839 69.85698699951172 0.09216076135635376 96.37446594238281 0.10252001136541367 C 113.19499969482422 0.11272387951612473 121.00655364990234 0.12304269522428513 124.6058349609375 0.14051136374473572 C 126.26923370361328 0.17527982592582703 126.98197937011719 0.2228887677192688 127.33746337890625 0.2862427532672882 C 127.55315399169922 0.3831562399864197 127.67642974853516 0.5463142991065979 127.75984954833984 0.8814598917961121 C 127.82572174072266 1.6053552627563477 127.87004852294922 3.1161279678344727 127.900390625 6.294554710388184 C 127.92845916748047 12.955154418945312 127.94669342041016 24.908384323120117 127.95484924316406 43.410560607910156 C 127.959228515625 69.0112075805664 127.95672607421875 96.15978240966797 127.9502944946289 115.11241912841797 C 127.94666290283203 123.64241790771484 127.93094635009766 126.27811431884766 127.8730239868164 127.09915924072266 C 127.72296905517578 127.42066192626953 127.25614929199219 127.56452178955078 125.30390930175781 127.62200164794922 C 115.95862579345703 127.62963104248047 76.8161392211914 127.60181427001953 22.08797836303711 127.53792572021484" stroke-width="2.0" fill="rgb(252, 194, 27)" opacity="1.0" stroke="rgb(252, 194, 27)" stroke-opacity="1.0" stroke-linecap="round" stroke-linejoin="round"/>
    <path d="M 52.17697525024414 93.56590270996094 C 52.175716400146484 93.5645751953125 52.020042419433594 93.64321899414062 51.85356140136719 94.24609375 C 52.70539855957031 95.03530883789062 55.557430267333984 95.01026916503906 60.72925567626953 94.97191619873047 C 67.25379180908203 95.7820053100586 73.33345031738281 95.123291015625 80.54619598388672 91.30293273925781 C 88.38557434082031 87.29843139648438 92.3267822265625 84.26766204833984 93.37871551513672 81.67363739013672 C 93.96210479736328 80.09722900390625 94.443603515625 78.72501373291016 95.00090026855469 76.52526092529297 C 95.17550659179688 73.6900863647461 94.33436584472656 70.85209655761719 92.80821228027344 68.14590454101562 C 91.55209350585938 65.68527221679688 90.26608276367188 63.968475341796875 87.27590942382812 64.11317443847656 C 82.74819946289062 65.58495330810547 79.46269989013672 67.56214904785156 77.42655944824219 69.77078247070312 C 74.83413696289062 71.15890502929688 73.4556655883789 70.2081069946289 74.32267761230469 67.51251983642578 C 75.5667495727539 64.82169342041016 77.55110168457031 63.1060905456543 80.94976043701172 61.248626708984375 C 84.59626770019531 59.1718864440918 88.68319702148438 58.278175354003906 93.23480224609375 58.726776123046875 C 97.02983856201172 59.601905822753906 99.88685607910156 61.14142990112305 102.3719253540039 63.55096435546875 C 104.0551986694336 65.7192153930664 104.53108215332031 67.25907135009766 104.55867767333984 68.86223602294922 C 104.59937286376953 70.40280151367188 104.0853042602539 71.49564361572266 102.70142364501953 72.09566497802734 C 100.53031158447266 72.19917297363281 97.92733001708984 72.67312622070312 96.17130279541016 73.89342498779297 C 95.50572204589844 75.19236755371094 94.78370666503906 77.21430206298828 93.84455108642578 80.53376007080078 C 93.0116958618164 83.86048126220703 91.46121215820312 86.55500030517578 89.08322143554688 89.12255859375 C 86.52059173583984 91.46725463867188 83.31224060058594 93.21479034423828 79.4196548461914 94.86954498291016 C 75.7661361694336 96.75935363769531 71.33414459228516 97.88760375976562 65.89076232910156 97.9892578125 C 60.661502838134766 98.02699279785156 56.11612319946289 98.09413146972656 52.698062896728516 98.08492279052734" stroke-width="2.0" fill="rgb(255, 0, 0)" opacity="1.0" stroke="rgb(255, 0, 0)" stroke-opacity="1.0" stroke-linecap="round" stroke-linejoin="round"/>
    <path d="M 0.052503786981105804 113.92855834960938 C 0.05248446390032768 113.93970489501953 0.052461981773376465 113.9317398071289 0.05248401686549187 113.98516082763672 C 0.05287700518965721 114.0814437866211 0.05274015665054321 114.15116882324219 0.050513267517089844 114.09835052490234 C 0.04628904163837433 114.24008178710938 0.04250440374016762 114.54613494873047 0.040644727647304535 114.6382064819336 C 0.0401262603700161 114.44488525390625 0.04002661630511284 113.94770050048828 0.04019111767411232 113.18194580078125 C 0.04046262428164482 112.60655975341797 0.040253546088933945 112.25048065185547 0.03945305198431015 111.87442016601562 C 0.03829769417643547 111.72084045410156 0.036887846887111664 111.72252655029297 0.03536449372768402 111.62578582763672 C 0.033872369676828384 111.6601333618164 0.03252045065164566 111.81300354003906 0.031447865068912506 111.84616088867188 C 0.030627867206931114 111.86724090576172 0.02994767762720585 111.94154357910156 0.029430292546749115 112.01223754882812 C 0.029001595452427864 112.1816635131836 0.02849348820745945 112.4789047241211 0.02793426439166069 112.7686996459961 C 0.027442602440714836 113.09358215332031 0.027158252894878387 113.56294250488281 0.027223922312259674 114.00659942626953 C 0.027592943981289864 114.28546905517578 0.028199274092912674 114.49890899658203 0.02911829762160778 114.72093200683594 C 0.03044319711625576 114.97447967529297 0.03231075406074524 115.3189697265625 0.035080261528491974 115.65582275390625 C 0.038888223469257355 115.86712646484375 0.04342760518193245 116.05268096923828 0.04903357848525047 116.14734649658203 C 0.05623922869563103 115.964111328125 0.06476766616106033 115.76084899902344 0.07513650506734848 115.75172424316406 C 0.0878453478217125 115.5644760131836 0.10073702037334442 115.19178771972656 0.11270561814308167 115.03954315185547 C 0.12482600659132004 114.97649383544922 0.13550728559494019 114.85969543457031 0.14387139678001404 114.87777709960938 C 0.15122850239276886 114.97962188720703 0.15635819733142853 115.09634399414062 0.1593942791223526 115.3134536743164 C 0.1626439243555069 115.52985382080078 0.16360560059547424 115.63999938964844 0.16047288477420807 115.72029876708984 C 0.15554852783679962 115.80628967285156 0.14821089804172516 115.78302764892578 0.13798032701015472 115.673828125 C 0.12770794332027435 115.66172790527344 0.11758098006248474 115.625 0.10668870061635971 115.4686508178711" stroke-width="2.0" fill="rgb(0, 255, 0)" opacity="1.0" stroke="rgb(0, 255, 0)" stroke-opacity="1.0" stroke-linecap="round" stroke-linejoin="round"/>
    <path d="M 0.006473992019891739 114.8406982421875 C 0.006476900540292263 114.84125518798828 0.006471090950071812 114.83566284179688 0.00647477013990283 114.80033111572266 C 0.006489309016615152 114.71052551269531 0.00652548111975193 114.68172454833984 0.006577888038009405 114.80868530273438 C 0.006625545676797628 114.9364013671875 0.006594683043658733 115.06192016601562 0.006472812965512276 115.23155975341797 C 0.006382538005709648 115.34979248046875 0.0063238488510251045 115.42086029052734 0.006210103631019592 115.55872344970703 C 0.00609955657273531 115.6851806640625 0.006002671085298061 115.75468444824219 0.0058777062222361565 115.86628723144531 C 0.00579143175855279 115.97295379638672 0.005740361753851175 116.01506805419922 0.005666025914251804 116.10771179199219 C 0.005641687661409378 116.22392272949219 0.0056625474244356155 116.29625701904297 0.005678840912878513 116.35516357421875 C 0.00575236277654767 116.40419006347656 0.005870328284800053 116.45909881591797 0.005986413452774286 116.52295684814453 C 0.006165934260934591 116.51737976074219 0.006398028694093227 116.45298767089844 0.006638946942985058 116.44390869140625 C 0.006939443293958902 116.42947387695312 0.007232315372675657 116.35138702392578 0.007462534587830305 116.30289459228516 C 0.007713185623288155 116.2638931274414 0.00793960876762867 116.17241668701172 0.008076637051999569 116.08866882324219 C 0.008195232599973679 116.00724792480469 0.008270404301583767 115.9378662109375 0.008228381164371967 115.95030975341797 C 0.008066492155194283 115.96763610839844 0.007767926435917616 115.9687271118164 0.007389777805656195 116.064208984375 C 0.007043839432299137 116.15589141845703 0.006677901837974787 116.22139739990234 0.006293191574513912 116.3548812866211 C 0.006006673909723759 116.42899322509766 0.005767561495304108 116.47645568847656 0.005512018222361803 116.58524322509766 C 0.005270605906844139 116.62291717529297 0.005042684730142355 116.6124038696289 0.004827205557376146 116.69188690185547 C 0.0046514044515788555 116.77497863769531 0.004515271168202162 116.76798248291016 0.004390677437186241 116.76599884033203 C 0.004311184398829937 116.72350311279297 0.004248830955475569 116.65076446533203 0.004199744667857885 116.68663024902344 C 0.004226253367960453 116.6919174194336 0.004304123111069202 116.60684204101562 0.004407520871609449 116.55754089355469 C 0.004573934245854616 116.46399688720703 0.0047871433198452 116.30767059326172 0.005029309540987015 116.24073791503906" stroke-width="2.0" fill="rgb(0, 0, 255)" opacity="1.0" stroke="rgb(0, 0, 255)" stroke-opacity="1.0" stroke-linecap="round" stroke-linejoin="round"/>
  </g>
</svg>
