<?xml version="1.0" ?>
<svg xmlns="http://www.w3.org/2000/svg" version="1.1" width="128" height="128">
  <defs/>
  <g>
    <path d="M 1.180059790611267 85.15284729003906 C 1.1789721250534058 85.16970825195312 1.1789196729660034 85.03789520263672 1.179226040840149 84.9183349609375 C 1.1845382452011108 84.91957092285156 1.1844168901443481 86.51466369628906 1.1046512126922607 90.65044403076172 C 0.9654061198234558 93.09335327148438 0.9398996233940125 93.18143463134766 1.0739235877990723 94.4277114868164 C 1.34425687789917 96.65451049804688 1.8957364559173584 97.71922302246094 3.0067853927612305 99.63499450683594 C 4.917923450469971 102.76216125488281 8.305791854858398 105.34848022460938 14.068014144897461 108.39034271240234 C 21.551616668701172 111.97071838378906 30.230592727661133 114.47361755371094 39.981075286865234 116.20834350585938 C 48.66690444946289 117.4869155883789 55.96889877319336 118.11772155761719 63.80440139770508 118.03022003173828 C 71.03746032714844 117.9384994506836 75.98439025878906 117.67570495605469 81.12700653076172 117.00718688964844 C 87.48299407958984 116.35787200927734 94.14212799072266 115.22705841064453 103.01054382324219 112.63389587402344 C 112.9493408203125 109.42774963378906 120.28144073486328 105.62899017333984 124.13169860839844 100.6859359741211 C 125.82817840576172 98.14659881591797 126.49898529052734 97.60294342041016 126.79476928710938 95.12413787841797 C 126.9663314819336 93.79063415527344 126.99481964111328 94.3015365600586 126.93661499023438 91.80450439453125 C 126.90969848632812 88.70130920410156 126.88359832763672 88.70826721191406 126.8581314086914 86.20352172851562 C 126.80377960205078 81.05008697509766 126.4312973022461 77.58322143554688 125.59317016601562 72.44589233398438 C 124.30726623535156 63.52406692504883 122.35179138183594 56.20673751831055 119.50936889648438 49.048439025878906 C 115.53096771240234 38.31776809692383 109.48762512207031 29.280628204345703 102.084228515625 22.84876823425293 C 94.8829116821289 16.61750030517578 86.72435760498047 12.659890174865723 75.83621215820312 10.824769973754883 C 66.08100128173828 9.353656768798828 57.7321662902832 9.403302192687988 47.03478240966797 11.888768196105957 C 37.49071502685547 14.428969383239746 30.825979232788086 17.858489990234375 22.96035385131836 25.49578285217285 C 15.69692611694336 33.05768585205078 10.979886054992676 40.79982376098633 6.950687408447266 53.244041442871094" stroke-width="2.0" fill="rgb(252, 194, 27)" opacity="1.0" stroke="rgb(252, 194, 27)" stroke-opacity="1.0" stroke-linecap="round" stroke-linejoin="round"/>
    <path d="M 51.952980041503906 92.8382568359375 C 51.93999481201172 92.87107849121094 51.937801361083984 92.75582885742188 51.89488220214844 92.499755859375 C 51.55451965332031 92.1901626586914 50.36761474609375 92.90291595458984 48.487937927246094 94.73790740966797 C 47.3579216003418 96.42815399169922 48.07439422607422 97.34771728515625 49.49193572998047 98.03731536865234 C 50.38376998901367 98.70658874511719 50.85517120361328 98.77086639404297 51.127105712890625 98.49799346923828 C 51.07416915893555 98.50882720947266 51.12368392944336 98.38117980957031 51.5792121887207 98.1348648071289 C 52.09475326538086 98.35444641113281 53.022705078125 98.63603210449219 54.9166145324707 98.7005386352539 C 57.00359344482422 98.85936737060547 58.90902328491211 98.94377136230469 61.258338928222656 98.92431640625 C 63.71013641357422 99.021728515625 65.84701538085938 98.89830017089844 68.22376251220703 98.46621704101562 C 70.78984069824219 98.12509155273438 72.9759292602539 97.77728271484375 75.35651397705078 97.16607666015625 C 78.05586242675781 96.44132995605469 80.57029724121094 95.25096130371094 83.15167999267578 93.58770751953125 C 85.51256561279297 92.4332275390625 87.21633911132812 91.55274200439453 88.30421447753906 90.82868194580078 C 88.76297760009766 90.4705810546875 89.06419372558594 89.78035736083984 89.49749755859375 88.95933532714844 C 89.67842102050781 88.77719116210938 89.95581817626953 89.17253112792969 90.2049331665039 89.50028991699219 C 89.74951934814453 89.28944396972656 88.8141098022461 88.56718444824219 87.78881072998047 87.60182189941406 C 86.71490478515625 86.76683807373047 86.2512435913086 86.38783264160156 86.68122863769531 86.59017944335938 C 87.43282318115234 87.22160339355469 88.36753845214844 87.96607208251953 89.50386047363281 88.51354217529297 C 90.59739685058594 88.617431640625 91.43815612792969 88.02613830566406 92.19288635253906 86.86676025390625 C 92.93741607666016 85.783447265625 92.94324493408203 85.04563903808594 91.96965026855469 84.44576263427734 C 90.72868347167969 83.9992446899414 89.48231506347656 84.0228271484375 88.01138305664062 84.9084243774414 C 86.25370025634766 86.71256256103516 83.75421905517578 88.94070434570312 79.92891693115234 90.79657745361328" stroke-width="2.0" fill="rgb(255, 0, 0)" opacity="1.0" stroke="rgb(255, 0, 0)" stroke-opacity="1.0" stroke-linecap="round" stroke-linejoin="round"/>
    <path d="M 27.249069213867188 62.155677795410156 C 27.252723693847656 62.162132263183594 27.235624313354492 62.152626037597656 27.244661331176758 62.20962905883789 C 27.39199447631836 62.25777053833008 27.773662567138672 62.06007385253906 28.455080032348633 61.581268310546875 C 29.704038619995117 60.94060134887695 31.611242294311523 60.37531280517578 33.648067474365234 59.83295822143555 C 35.492897033691406 59.34679412841797 37.32353973388672 59.249576568603516 39.007816314697266 59.380008697509766 C 40.766136169433594 59.53328323364258 43.06184387207031 60.07706832885742 45.42738342285156 60.90434265136719 C 47.29822540283203 61.596866607666016 48.73441696166992 62.326332092285156 49.89982604980469 63.240909576416016 C 50.77759552001953 64.2203598022461 51.5553092956543 65.1421127319336 52.33449172973633 66.32980346679688 C 53.06318664550781 67.4833984375 53.69143295288086 68.15471649169922 53.916133880615234 68.96102142333984 C 53.31133270263672 70.00445556640625 51.959327697753906 70.6008529663086 50.201602935791016 71.35592651367188 C 48.169368743896484 72.40858459472656 45.968849182128906 72.5313491821289 43.875160217285156 71.7126235961914 C 42.18333435058594 70.59527587890625 41.244266510009766 68.61762237548828 40.77455139160156 65.86638641357422 C 39.769012451171875 63.444889068603516 37.72251892089844 62.291534423828125 34.92973327636719 62.84000015258789 C 32.06741714477539 64.41644287109375 29.75252342224121 66.2646255493164 27.94228744506836 68.30030059814453 C 26.325191497802734 69.86809539794922 25.04709243774414 70.33552551269531 24.13997459411621 70.3260726928711 C 23.44898796081543 69.98542785644531 23.18032455444336 68.855224609375 23.429227828979492 67.50875091552734 C 23.904855728149414 66.40643310546875 24.637353897094727 65.11537170410156 25.8115234375 63.83280563354492 C 27.292987823486328 62.96883773803711 28.949277877807617 62.315711975097656 30.65397834777832 62.12004852294922 C 32.296878814697266 62.580623626708984 33.91637420654297 63.08280944824219 35.5523681640625 63.38185119628906 C 37.20085906982422 63.64685821533203 38.44026565551758 63.59796142578125 38.96396255493164 63.32566833496094 C 38.89201736450195 63.2886962890625 38.203208923339844 63.32140350341797 36.64451599121094 63.10233688354492" stroke-width="2.0" fill="rgb(0, 255, 0)" opacity="1.0" stroke="rgb(0, 255, 0)" stroke-opacity="1.0" stroke-linecap="round" stroke-linejoin="round"/>
    <path d="M 77.7034683227539 61.68128204345703 C 77.70143127441406 61.67880630493164 77.66110229492188 61.670631408691406 77.74604034423828 61.62546157836914 C 78.31634521484375 61.46060562133789 78.8846435546875 61.20883560180664 78.59477233886719 61.19719314575195 C 77.6943359375 61.497127532958984 76.83488464355469 61.87037658691406 76.5044174194336 61.74245834350586 C 77.15701293945312 61.568851470947266 78.18486022949219 61.60707473754883 79.14372253417969 61.52540969848633 C 79.89324951171875 61.682655334472656 79.88455963134766 62.16510772705078 79.74798583984375 62.073692321777344 C 80.54083251953125 61.570926666259766 81.79539489746094 61.452266693115234 82.6590576171875 61.525108337402344 C 82.92024993896484 61.36408233642578 82.67450714111328 61.26107406616211 81.80769348144531 62.05874252319336 C 80.43798828125 63.11716079711914 79.17109680175781 63.200096130371094 78.11197662353516 63.40131378173828 C 77.13201141357422 64.3434829711914 76.22869873046875 64.82456970214844 75.22174835205078 65.29641723632812 C 74.56363677978516 66.14221954345703 74.50845336914062 66.39034271240234 73.97667694091797 67.09109497070312 C 73.16349792480469 68.62504577636719 73.67262268066406 69.53580474853516 74.93348693847656 70.39102172851562 C 76.02186584472656 70.7353515625 78.8602523803711 68.1793212890625 84.18437194824219 64.49884033203125 C 88.93135833740234 62.8103141784668 91.37071228027344 63.151432037353516 92.0325927734375 64.74380493164062 C 91.7125244140625 66.3873519897461 91.6946029663086 67.70789337158203 92.97135925292969 69.57392883300781 C 94.9580078125 71.68738555908203 97.2947769165039 72.6917953491211 100.46268463134766 72.24703979492188 C 103.50421905517578 71.2414779663086 105.08123779296875 69.83289337158203 105.38777923583984 68.10734558105469 C 104.96427917480469 66.89002227783203 103.6162109375 65.91325378417969 101.88623046875 64.53095245361328 C 100.85334777832031 63.631805419921875 100.26730346679688 63.30120086669922 99.29917907714844 62.57738494873047 C 97.53273010253906 61.51591491699219 94.90438842773438 60.33549499511719 91.7232437133789 59.51850128173828 C 88.36527252197266 59.51854705810547 85.06925964355469 60.026065826416016 81.9105224609375 60.789794921875" stroke-width="2.0" fill="rgb(0, 0, 255)" opacity="1.0" stroke="rgb(0, 0, 255)" stroke-opacity="1.0" stroke-linecap="round" stroke-linejoin="round"/>
  </g>
</svg>
