<?xml version="1.0" ?>
<svg xmlns="http://www.w3.org/2000/svg" version="1.1" width="128" height="128">
  <defs/>
  <g>
    <path d="M 1.4295707941055298 84.91606903076172 C 1.427998423576355 84.92650604248047 1.428199052810669 84.79654693603516 1.4296536445617676 84.63065338134766 C 1.443090558052063 84.62965393066406 1.453493356704712 86.24083709716797 1.369038701057434 90.30271911621094 C 1.2092704772949219 92.78675079345703 1.180098295211792 92.93720245361328 1.3426398038864136 94.14408111572266 C 1.6701717376708984 96.433837890625 2.328695297241211 97.73655700683594 3.629404067993164 99.6812515258789 C 5.85531759262085 102.76447296142578 9.615898132324219 105.44153594970703 15.531989097595215 108.35888671875 C 22.866374969482422 111.58355712890625 31.314208984375 113.86592864990234 40.81890106201172 115.47083282470703 C 49.26622772216797 116.68475341796875 56.39249801635742 117.27070617675781 64.08407592773438 117.14743041992188 C 71.12139129638672 117.0840835571289 75.90589904785156 116.86827850341797 80.84778594970703 116.2115249633789 C 86.96410369873047 115.58735656738281 93.38663482666016 114.52854919433594 101.97256469726562 112.1529312133789 C 111.76959991455078 109.21617889404297 119.31941986083984 105.49036407470703 123.5111083984375 100.5328598022461 C 125.43374633789062 97.96199035644531 126.21476745605469 97.31314086914062 126.57133483886719 94.76465606689453 C 126.77799987792969 93.40543365478516 126.81376647949219 93.87043762207031 126.74308776855469 91.48117065429688 C 126.68651580810547 88.51451110839844 126.62483978271484 88.60900115966797 126.5938491821289 86.24856567382812 C 126.56600952148438 81.19337463378906 126.20669555664062 77.6507797241211 125.37886047363281 72.4531478881836 C 124.09794616699219 63.84645462036133 122.17012023925781 56.6513671875 119.40164184570312 49.472625732421875 C 115.46817779541016 39.00190734863281 109.48545837402344 30.13749122619629 102.25428009033203 23.78466033935547 C 95.16529083251953 17.60831069946289 87.1193618774414 13.594828605651855 76.30895233154297 11.751849174499512 C 66.1780014038086 10.283453941345215 57.235008239746094 10.313577651977539 46.43463134765625 12.787019729614258 C 37.14301300048828 15.38677978515625 30.566280364990234 18.864110946655273 23.005664825439453 26.202823638916016 C 16.031818389892578 33.35569763183594 11.400958061218262 40.72420120239258 7.370896339416504 52.67403793334961" stroke-width="2.0" fill="rgb(252, 194, 27)" opacity="1.0" stroke="rgb(252, 194, 27)" stroke-opacity="1.0" stroke-linecap="round" stroke-linejoin="round"/>
    <path d="M 50.21488571166992 87.46802520751953 C 50.22359848022461 87.50475311279297 50.20175552368164 87.40721130371094 50.165252685546875 87.28487396240234 C 49.810325622558594 86.96112060546875 48.73186111450195 87.12007904052734 46.7142219543457 88.1341552734375 C 45.119197845458984 89.41798400878906 45.46356201171875 90.73241424560547 47.1300163269043 92.07803344726562 C 48.90315628051758 93.0029067993164 50.386844635009766 93.12924194335938 51.13450622558594 92.63470458984375 C 50.82065200805664 91.91069793701172 49.87978744506836 90.81700134277344 48.674190521240234 89.53675842285156 C 47.22745895385742 88.5655517578125 46.39439010620117 88.04391479492188 46.98357391357422 87.97759246826172 C 48.36515426635742 88.23307800292969 50.133426666259766 88.21391296386719 52.40433883666992 87.88062286376953 C 54.60951232910156 87.80394744873047 56.734500885009766 87.85978698730469 59.45062255859375 87.72010040283203 C 62.56196975708008 87.62137603759766 65.76493072509766 87.62052917480469 69.47026062011719 87.62437438964844 C 73.29670715332031 87.80972290039062 76.52578735351562 87.93175506591797 78.84471130371094 88.02764129638672 C 80.03414916992188 88.3230972290039 80.35638427734375 88.78804016113281 79.9543228149414 89.52951049804688 C 78.78646850585938 90.03912353515625 77.5433349609375 89.8660888671875 76.3511734008789 89.70622253417969 C 74.78113555908203 89.73966217041016 73.11202239990234 89.55970001220703 70.69878387451172 89.60077667236328 C 66.74601745605469 89.68133544921875 62.291114807128906 89.6434555053711 57.992637634277344 89.88605499267578 C 53.972389221191406 89.89363861083984 51.418636322021484 89.86430358886719 50.33285903930664 90.72076416015625 C 50.01835632324219 92.06617736816406 51.50688171386719 92.77996063232422 55.689491271972656 92.72314453125 C 61.884342193603516 92.67352294921875 68.4476547241211 92.78498840332031 74.05042266845703 92.94355773925781 C 77.85047912597656 93.0723876953125 79.81256103515625 92.68317413330078 80.65093231201172 91.7091293334961 C 81.0692367553711 90.81051635742188 81.24300384521484 90.26213836669922 81.12396240234375 89.97283935546875 C 80.56930541992188 89.9209976196289 79.1225357055664 90.05010986328125 76.21131134033203 90.22969818115234" stroke-width="2.0" fill="rgb(255, 0, 0)" opacity="1.0" stroke="rgb(255, 0, 0)" stroke-opacity="1.0" stroke-linecap="round" stroke-linejoin="round"/>
    <path d="M 24.2794189453125 65.98127746582031 C 24.2834415435791 65.99115753173828 24.273977279663086 65.98667907714844 24.277679443359375 66.04061889648438 C 24.329132080078125 65.95521545410156 24.44854736328125 65.53683471679688 24.606935501098633 64.83820343017578 C 25.130374908447266 64.09506225585938 26.303056716918945 63.65867614746094 27.817100524902344 63.63827133178711 C 29.367921829223633 63.658817291259766 31.274518966674805 63.696075439453125 33.5262336730957 63.80525207519531 C 35.847084045410156 63.85941696166992 38.3255500793457 63.82066345214844 40.61067581176758 63.876583099365234 C 42.23303985595703 63.980690002441406 43.60557174682617 63.983516693115234 45.156497955322266 64.09439849853516 C 46.65017318725586 64.14887237548828 48.11663818359375 63.90179443359375 49.68338394165039 63.921104431152344 C 51.03668975830078 64.2254409790039 52.07550048828125 64.51004028320312 52.84000778198242 65.30464935302734 C 53.15585708618164 66.50653076171875 53.03274154663086 67.41963195800781 52.511474609375 68.3724365234375 C 51.199981689453125 69.36640930175781 48.788848876953125 69.52861022949219 45.4205207824707 69.13362884521484 C 41.376644134521484 68.96977233886719 36.994266510009766 69.01905059814453 32.29082107543945 69.117431640625 C 27.609092712402344 68.57196044921875 23.522836685180664 67.20694732666016 20.2016658782959 66.28536224365234 C 17.588985443115234 66.10972595214844 15.695725440979004 66.00939178466797 14.377188682556152 66.15608215332031 C 13.419294357299805 66.39539337158203 12.78658390045166 66.55040740966797 12.411736488342285 66.90739440917969 C 12.207941055297852 67.15873718261719 12.214667320251465 67.01913452148438 12.433181762695312 66.8748550415039 C 12.801321029663086 66.72610473632812 13.345880508422852 66.38050842285156 14.123342514038086 66.19231414794922 C 15.158580780029297 66.29878997802734 16.433090209960938 66.26761627197266 17.847597122192383 66.1790542602539 C 19.269084930419922 66.47318267822266 20.63191795349121 66.81290435791016 21.954450607299805 66.95352935791016 C 23.274038314819336 67.13917541503906 24.514244079589844 67.05448913574219 25.530372619628906 66.58563995361328 C 26.295299530029297 66.49076843261719 26.7165584564209 66.9180679321289 26.6517276763916 67.13031005859375" stroke-width="2.0" fill="rgb(0, 255, 0)" opacity="1.0" stroke="rgb(0, 255, 0)" stroke-opacity="1.0" stroke-linecap="round" stroke-linejoin="round"/>
    <path d="M 75.8268814086914 65.02120971679688 C 75.82379150390625 65.02467346191406 75.79013061523438 65.00457000732422 75.85478973388672 64.98609161376953 C 76.3495864868164 64.8566665649414 77.13584899902344 64.58271789550781 77.74436950683594 64.44318389892578 C 78.02241516113281 64.64466094970703 77.96293640136719 64.94112396240234 77.77137756347656 64.92904663085938 C 77.43952941894531 65.18053436279297 76.50630187988281 65.65201568603516 75.26970672607422 65.77074432373047 C 74.1417236328125 65.82201385498047 73.17821502685547 66.02619171142578 72.38829803466797 66.03519439697266 C 71.84388732910156 65.80753326416016 71.96549987792969 65.46614074707031 72.7476577758789 65.31137084960938 C 73.42266082763672 65.13606262207031 73.59492492675781 64.79164123535156 73.16088104248047 65.31239318847656 C 72.45033264160156 66.32728576660156 72.13939666748047 66.72333526611328 72.1940689086914 67.4030532836914 C 72.39652252197266 68.47864532470703 72.58812713623047 68.85023498535156 72.36095428466797 69.18720245361328 C 72.20140838623047 69.69612121582031 72.67024230957031 69.4895248413086 72.69969940185547 69.47067260742188 C 72.01677703857422 69.90133666992188 72.19593811035156 69.53182983398438 73.15269470214844 69.02234649658203 C 73.83961486816406 68.57587432861328 74.86079406738281 67.65359497070312 75.79811096191406 67.66120147705078 C 75.80774688720703 68.38558197021484 76.272216796875 68.36908721923828 77.36272430419922 68.57471466064453 C 77.48755645751953 69.26112365722656 77.39659118652344 69.3619384765625 79.20195007324219 69.08042907714844 C 82.61751556396484 69.06526947021484 87.01333618164062 69.0877685546875 92.50434875488281 69.0928955078125 C 97.27299499511719 69.41349792480469 99.90413665771484 69.20475006103516 101.127685546875 68.24639129638672 C 101.52938079833984 67.20928955078125 101.0119857788086 66.13703155517578 100.12709045410156 65.02472686767578 C 99.34226989746094 64.5247573852539 97.8889389038086 64.36471557617188 94.94007873535156 64.20838165283203 C 90.75506591796875 64.51345825195312 86.42223358154297 64.51005554199219 82.7421875 64.19451141357422 C 79.796142578125 64.33283996582031 77.41110229492188 64.24820709228516 75.2447738647461 64.24065399169922" stroke-width="2.0" fill="rgb(0, 0, 255)" opacity="1.0" stroke="rgb(0, 0, 255)" stroke-opacity="1.0" stroke-linecap="round" stroke-linejoin="round"/>
  </g>
</svg>
