<?xml version="1.0" ?>
<svg xmlns="http://www.w3.org/2000/svg" version="1.1" width="128" height="128">
  <defs/>
  <g>
    <path d="M 0.8151342868804932 84.37761688232422 C 0.8135011196136475 84.39276123046875 0.8145192861557007 84.2717056274414 0.8109638094902039 84.24147033691406 C 0.8144606351852417 84.08295440673828 0.8438133001327515 85.47216033935547 0.8678263425827026 90.12487030029297 C 0.8617164492607117 93.4746322631836 0.9297538995742798 93.96709442138672 1.1450107097625732 95.51122283935547 C 1.517103672027588 98.03224182128906 2.2648634910583496 99.47886657714844 3.872509241104126 101.7361068725586 C 6.859235763549805 105.35938262939453 11.835102081298828 108.4765625 18.81119728088379 111.40058135986328 C 26.214195251464844 114.3402328491211 33.87347412109375 116.25305938720703 42.62912368774414 117.35922241210938 C 50.603477478027344 118.38130187988281 57.20265197753906 119.04964447021484 64.87638854980469 119.00921630859375 C 72.46461486816406 118.83898162841797 78.0891342163086 118.37853240966797 85.57246398925781 117.17716217041016 C 96.52403259277344 115.83946228027344 108.21531677246094 112.8438720703125 118.3261947631836 106.4480972290039 C 123.97157287597656 102.0077896118164 125.85177612304688 99.81168365478516 126.45066833496094 95.42304992675781 C 126.6590805053711 93.34680938720703 126.54480743408203 94.4731216430664 126.10557556152344 91.17426300048828 C 125.3096694946289 86.95236206054688 124.31112670898438 85.26456451416016 124.04495239257812 81.08759307861328 C 124.44938659667969 77.84324645996094 125.11824035644531 76.92740631103516 126.26873016357422 71.88634490966797 C 127.06515502929688 66.17101287841797 127.30191040039062 64.1673583984375 127.33041381835938 59.572967529296875 C 127.2448959350586 52.04374694824219 126.78458404541016 48.76531219482422 125.53060150146484 45.25369644165039 C 122.89875030517578 36.52588653564453 117.78424835205078 27.80145835876465 110.01078033447266 20.874717712402344 C 102.0528793334961 14.383193969726562 92.98866271972656 10.878816604614258 80.41045379638672 9.437348365783691 C 69.26171112060547 8.192167282104492 60.467506408691406 8.763535499572754 48.786834716796875 12.170976638793945 C 37.674171447753906 16.009151458740234 29.660140991210938 20.902542114257812 20.794225692749023 30.48594856262207 C 13.345284461975098 39.487022399902344 8.81764030456543 46.80329132080078 5.3962860107421875 57.218177795410156" stroke-width="2.0" fill="rgb(252, 194, 27)" opacity="1.0" stroke="rgb(252, 194, 27)" stroke-opacity="1.0" stroke-linecap="round" stroke-linejoin="round"/>
    <path d="M 37.880882263183594 67.86988067626953 C 37.88142776489258 67.8762435913086 37.86966323852539 67.83354187011719 37.86899185180664 67.80823516845703 C 37.78334045410156 67.8942642211914 37.25858688354492 68.11735534667969 36.290794372558594 68.39554595947266 C 35.634178161621094 68.2303237915039 35.87530517578125 67.76811981201172 36.2097282409668 67.39366912841797 C 35.832305908203125 67.42084503173828 34.83441925048828 67.74724578857422 33.425113677978516 67.86678314208984 C 32.18665313720703 67.77249145507812 31.83421516418457 67.76136016845703 32.4925537109375 67.78716278076172 C 33.93196105957031 67.76825714111328 35.95384216308594 67.77137756347656 38.41587829589844 67.99542999267578 C 41.01897048950195 68.45201873779297 43.5095329284668 68.86030578613281 45.745445251464844 69.21176147460938 C 47.52678298950195 69.33021545410156 48.99835205078125 69.09506225585938 50.41188049316406 69.13741302490234 C 51.57201385498047 70.19895935058594 52.506282806396484 72.06070709228516 53.94304656982422 73.96514892578125 C 56.230098724365234 75.10706329345703 59.211524963378906 75.36260223388672 62.383052825927734 75.8731460571289 C 65.2045669555664 77.03882598876953 67.71893310546875 77.81477355957031 69.96388244628906 77.95327758789062 C 71.39688873291016 77.8244857788086 71.96510314941406 76.9900131225586 71.94505310058594 76.02409362792969 C 71.46915435791016 75.89218139648438 71.04248046875 76.5318832397461 71.00057983398438 77.33103942871094 C 71.0571517944336 77.56660461425781 71.14659118652344 76.99910736083984 70.97256469726562 76.01726531982422 C 69.82222747802734 75.02449035644531 68.42182159423828 74.06463623046875 67.78218841552734 73.58295440673828 C 67.6712875366211 73.6408462524414 67.86193084716797 73.78541564941406 68.469482421875 74.39602661132812 C 69.11882019042969 75.61616516113281 69.60533142089844 76.44078063964844 70.49652099609375 76.73188781738281 C 71.8208236694336 76.87411499023438 72.58905792236328 76.44524383544922 72.43136596679688 75.8151626586914 C 71.66117858886719 75.42117309570312 70.22573852539062 74.69902038574219 68.1490478515625 73.86882781982422 C 65.68771362304688 73.57432556152344 62.946659088134766 73.2174301147461 59.8848762512207 72.34968566894531" stroke-width="2.0" fill="rgb(255, 0, 0)" opacity="1.0" stroke="rgb(255, 0, 0)" stroke-opacity="1.0" stroke-linecap="round" stroke-linejoin="round"/>
    <path d="M 32.60404968261719 38.466209411621094 C 32.60888671875 38.46979904174805 32.59349060058594 38.48501205444336 32.57164764404297 38.538448333740234 C 32.62712478637695 38.48660659790039 32.92744064331055 38.1541748046875 33.590511322021484 37.4782829284668 C 34.70366287231445 36.71852111816406 36.02495193481445 36.0194206237793 37.354408264160156 35.391117095947266 C 38.90489196777344 35.07698440551758 40.498558044433594 35.383358001708984 41.75547409057617 35.831520080566406 C 42.64624786376953 36.089202880859375 43.107521057128906 36.352516174316406 43.29021453857422 36.41858673095703 C 43.53684997558594 36.334800720214844 43.78188705444336 36.55083084106445 43.98628616333008 37.02313232421875 C 44.30964660644531 37.46240234375 44.639381408691406 38.00743103027344 44.827030181884766 39.018951416015625 C 44.94615936279297 40.310916900634766 45.04420852661133 41.445777893066406 45.09687423706055 42.637428283691406 C 45.045719146728516 43.960289001464844 44.72023010253906 45.10615158081055 43.961769104003906 46.470298767089844 C 42.79660415649414 48.17659378051758 41.34126281738281 49.510292053222656 39.52454376220703 50.59328079223633 C 37.443119049072266 51.4813117980957 35.501888275146484 51.226341247558594 33.83732604980469 50.22455978393555 C 32.41159439086914 49.27456283569336 31.454410552978516 47.83369064331055 30.9392032623291 46.1882438659668 C 30.6868839263916 44.95757293701172 30.730554580688477 43.697509765625 30.93366241455078 42.60082244873047 C 31.073780059814453 42.049530029296875 31.333965301513672 41.57871627807617 31.674518585205078 41.322532653808594 C 31.867830276489258 41.37710952758789 32.067867279052734 41.38755798339844 32.237911224365234 41.65932846069336 C 32.26361083984375 42.365264892578125 32.240089416503906 43.127037048339844 32.10987091064453 43.95393371582031 C 31.895954132080078 44.87489318847656 31.731767654418945 45.684329986572266 31.648672103881836 46.513423919677734 C 31.7410945892334 47.40140151977539 31.944150924682617 48.069366455078125 31.985395431518555 48.344520568847656 C 31.98703956604004 48.33078384399414 32.11478805541992 48.00888442993164 32.208648681640625 47.26633834838867 C 32.2733039855957 46.453617095947266 32.36801528930664 45.714447021484375 32.317535400390625 44.74864196777344" stroke-width="2.0" fill="rgb(0, 255, 0)" opacity="1.0" stroke="rgb(0, 255, 0)" stroke-opacity="1.0" stroke-linecap="round" stroke-linejoin="round"/>
    <path d="M 75.23490142822266 42.14710235595703 C 75.23070526123047 42.153076171875 75.22588348388672 42.148155212402344 75.22172546386719 42.15087890625 C 75.43790435791016 42.0766487121582 76.04369354248047 41.98090744018555 77.0829849243164 41.93815994262695 C 78.38744354248047 41.98165512084961 79.4488296508789 42.18998718261719 80.21652221679688 42.32440948486328 C 80.7452392578125 42.36507797241211 80.50471496582031 42.52116775512695 80.072021484375 42.498680114746094 C 80.3921890258789 42.26736831665039 80.44060516357422 42.46721649169922 80.06497955322266 42.94375228881836 C 80.25785064697266 43.2679328918457 80.15747833251953 43.87777328491211 79.7384033203125 44.63039016723633 C 80.31258392333984 44.981136322021484 81.04643249511719 45.19353485107422 81.12886810302734 45.46923828125 C 81.18585205078125 45.71009826660156 81.14678192138672 45.702125549316406 81.059814453125 45.70907211303711 C 81.26375579833984 45.99674606323242 81.20659637451172 45.77388381958008 80.60201263427734 44.95326614379883 C 80.03848266601562 44.16892623901367 79.38041687011719 43.19107437133789 77.8559799194336 42.339874267578125 C 75.98609924316406 42.10823440551758 74.5349349975586 42.14694595336914 72.95226287841797 42.82209777832031 C 71.11133575439453 44.25707244873047 69.85997772216797 45.98839569091797 69.04206848144531 48.90876388549805 C 68.46650695800781 52.41255569458008 69.16987609863281 54.60352325439453 70.84451293945312 56.4334716796875 C 72.25517272949219 58.421295166015625 73.7389144897461 58.98793411254883 75.85608673095703 58.887001037597656 C 77.77357482910156 59.051727294921875 79.30197143554688 58.20592498779297 80.89996337890625 56.765254974365234 C 82.04035186767578 56.02103805541992 82.47611236572266 54.91283416748047 82.912353515625 53.04376983642578 C 83.49319458007812 51.42611312866211 83.7488784790039 50.17012405395508 83.64149475097656 48.71915817260742 C 83.42707824707031 47.230369567871094 82.99657440185547 46.141319274902344 82.38851165771484 45.07524871826172 C 81.80816650390625 43.890132904052734 80.95310974121094 43.24299240112305 79.87040710449219 42.81068420410156 C 79.0937271118164 42.300716400146484 78.37673950195312 42.09907531738281 77.39363098144531 41.89883804321289" stroke-width="2.0" fill="rgb(0, 0, 255)" opacity="1.0" stroke="rgb(0, 0, 255)" stroke-opacity="1.0" stroke-linecap="round" stroke-linejoin="round"/>
  </g>
</svg>
