<?xml version="1.0" ?>
<svg xmlns="http://www.w3.org/2000/svg" version="1.1" width="128" height="128">
  <defs/>
  <g>
    <path d="M 0.862286388874054 92.34504699707031 C 0.8597148060798645 92.37178802490234 0.8615854382514954 92.28058624267578 0.8581989407539368 92.32650756835938 C 0.8675209879875183 92.37640380859375 0.9043276309967041 94.18032836914062 0.9596797823905945 99.16004180908203 C 1.0358327627182007 102.76972198486328 1.3365579843521118 103.96871948242188 2.1021175384521484 106.36087036132812 C 3.4717113971710205 109.70895385742188 6.160961627960205 112.01326751708984 11.292601585388184 115.50597381591797 C 17.613433837890625 119.46580505371094 23.958547592163086 121.69253540039062 31.82842445373535 123.44950866699219 C 38.820648193359375 125.09064483642578 44.80649185180664 126.01297760009766 52.45663070678711 126.60770416259766 C 57.98588180541992 127.07958984375 60.6232795715332 127.25008392333984 67.12104034423828 127.22518157958984 C 73.45875549316406 127.14398956298828 75.96299743652344 126.79570770263672 82.30905151367188 125.96488952636719 C 92.36746978759766 124.9522933959961 100.36830139160156 123.15565490722656 110.9452896118164 118.71559143066406 C 121.23532104492188 113.29011535644531 125.60204315185547 109.21736907958984 126.85713195800781 103.5917739868164 C 127.16181945800781 101.06074523925781 127.04652404785156 101.81961822509766 126.59600067138672 98.41226959228516 C 125.7280502319336 95.40080261230469 124.20556640625 95.45267486572266 122.45452880859375 91.43458557128906 C 120.90306854248047 87.58683013916016 120.08846282958984 86.11912536621094 121.63309478759766 79.60517120361328 C 123.40110778808594 72.9948959350586 124.2177505493164 70.14531707763672 125.45970153808594 62.2940559387207 C 126.40287017822266 52.25712203979492 126.20467376708984 48.54360580444336 124.79019927978516 41.450592041015625 C 121.72747039794922 26.099166870117188 114.13113403320312 15.516258239746094 100.8577651977539 8.555224418640137 C 90.76660919189453 3.3096864223480225 82.36185455322266 1.4775950908660889 72.64655303955078 0.9840636253356934 C 68.21416473388672 0.7375373840332031 67.65069580078125 0.8164225816726685 61.30326843261719 1.6782933473587036 C 49.267337799072266 3.822798252105713 38.670204162597656 8.748801231384277 26.43040657043457 20.422412872314453 C 14.825071334838867 33.44041442871094 8.939611434936523 43.6948356628418 5.260937213897705 57.39958190917969" stroke-width="2.0" fill="rgb(252, 194, 27)" opacity="1.0" stroke="rgb(252, 194, 27)" stroke-opacity="1.0" stroke-linecap="round" stroke-linejoin="round"/>
    <path d="M 27.349483489990234 72.7625961303711 C 27.345054626464844 72.78437042236328 27.351333618164062 72.70997619628906 27.333925247192383 72.69208526611328 C 27.093250274658203 72.74567413330078 26.28756332397461 73.1700439453125 24.80069923400879 74.0750732421875 C 23.32863998413086 74.8587875366211 22.73211669921875 75.4126968383789 22.73780632019043 76.28359985351562 C 22.95194435119629 77.32539367675781 23.561683654785156 77.98524475097656 24.472612380981445 78.33473205566406 C 25.30125617980957 78.4930648803711 26.23796272277832 78.32860565185547 27.634597778320312 77.94750213623047 C 29.40611457824707 77.4718246459961 31.389902114868164 76.99647521972656 33.4111328125 76.49546813964844 C 35.306888580322266 75.82379913330078 36.99256896972656 75.34111785888672 38.54583740234375 75.04979705810547 C 39.986846923828125 74.60574340820312 41.18693923950195 74.21647644042969 42.351383209228516 73.86775207519531 C 43.93841552734375 73.29458618164062 45.89944076538086 72.73001098632812 48.1928825378418 72.24488067626953 C 50.90395736694336 71.5813217163086 53.83597946166992 70.57064819335938 56.84773254394531 69.72376251220703 C 59.9228630065918 69.10311889648438 63.14326858520508 68.1800308227539 66.12861633300781 67.15876007080078 C 68.2238998413086 66.47769927978516 69.7138671875 65.90963745117188 70.97936248779297 65.79026794433594 C 71.88168334960938 66.0246810913086 72.76813507080078 66.09605407714844 73.92231750488281 66.46553039550781 C 75.17184448242188 67.2807388305664 76.57111358642578 68.18568420410156 78.2662124633789 69.23497009277344 C 79.97701263427734 70.29582214355469 81.30415344238281 70.6164779663086 82.25645446777344 70.16755676269531 C 83.0238037109375 69.49217987060547 83.41217041015625 68.75431823730469 83.35454559326172 67.73487091064453 C 83.03498077392578 66.612060546875 81.82450103759766 65.86804962158203 79.83677673339844 64.94149780273438 C 78.13387298583984 63.434425354003906 76.09542846679688 62.04430389404297 72.96733093261719 61.29616928100586 C 69.49077606201172 61.42152404785156 65.63724517822266 62.63235855102539 60.7583122253418 64.37321472167969 C 55.77345275878906 65.67915344238281 51.366825103759766 66.81412506103516 46.69075393676758 68.14398956298828" stroke-width="2.0" fill="rgb(255, 0, 0)" opacity="1.0" stroke="rgb(255, 0, 0)" stroke-opacity="1.0" stroke-linecap="round" stroke-linejoin="round"/>
    <path d="M 25.63907241821289 38.894466400146484 C 25.64301109313965 38.89548873901367 25.63714027404785 38.9166259765625 25.63911247253418 38.967464447021484 C 25.702733993530273 38.8567008972168 25.903627395629883 38.367183685302734 26.21629524230957 37.501373291015625 C 26.711347579956055 36.384769439697266 27.422985076904297 35.15005874633789 28.27698516845703 34.00367736816406 C 29.234621047973633 32.998260498046875 30.328407287597656 32.207862854003906 31.51011848449707 31.669300079345703 C 32.6502799987793 31.310842514038086 33.62309646606445 31.164627075195312 34.44898223876953 31.086490631103516 C 35.29419708251953 30.965442657470703 36.13229751586914 31.069644927978516 36.93501663208008 31.442089080810547 C 37.80775833129883 31.835346221923828 38.55107116699219 32.412357330322266 39.0799674987793 33.26404571533203 C 39.6616096496582 34.134769439697266 40.25342559814453 35.08271408081055 40.6556510925293 36.398624420166016 C 40.863746643066406 37.94427490234375 40.75093078613281 39.48980712890625 40.128700256347656 41.272518157958984 C 39.1923828125 43.13017654418945 38.26121520996094 44.326988220214844 37.431453704833984 44.846656799316406 C 36.68958282470703 45.04521942138672 36.083274841308594 44.50423812866211 35.56104278564453 43.27783966064453 C 35.0443229675293 42.084686279296875 34.67919158935547 41.0873908996582 34.571495056152344 40.3184928894043 C 34.73497009277344 39.761253356933594 35.18129348754883 39.292850494384766 35.67043685913086 39.25619125366211 C 36.023990631103516 39.626747131347656 36.3492546081543 40.007625579833984 36.5882682800293 40.58599090576172 C 36.65701675415039 41.294681549072266 36.643035888671875 41.833030700683594 36.55262756347656 42.3890266418457 C 36.41812515258789 42.965389251708984 36.39994430541992 43.38932800292969 36.579708099365234 43.85030746459961 C 36.953582763671875 44.32904815673828 37.334712982177734 44.64484405517578 37.497703552246094 44.9005126953125 C 37.469295501708984 45.23627853393555 37.16017532348633 45.6920280456543 36.27803039550781 46.378883361816406 C 34.930419921875 47.17198181152344 33.50981521606445 47.71061325073242 32.09180450439453 47.89215850830078 C 30.7001895904541 47.822574615478516 29.480716705322266 47.43778610229492 28.415164947509766 46.668025970458984" stroke-width="2.0" fill="rgb(0, 255, 0)" opacity="1.0" stroke="rgb(0, 255, 0)" stroke-opacity="1.0" stroke-linecap="round" stroke-linejoin="round"/>
    <path d="M 63.271942138671875 32.750770568847656 C 63.26763153076172 32.76457977294922 63.2747917175293 32.756168365478516 63.2480583190918 32.79625701904297 C 63.29094696044922 32.69578170776367 63.53322219848633 32.430694580078125 63.82583999633789 32.01753616333008 C 64.10778045654297 31.4562931060791 64.3543701171875 31.29221534729004 64.61522674560547 31.4739933013916 C 65.3729248046875 31.488916397094727 66.16859436035156 31.663219451904297 66.57402801513672 31.94643211364746 C 67.25543975830078 31.943193435668945 68.02104187011719 32.06987380981445 68.54722595214844 32.42306137084961 C 69.45458984375 32.6290168762207 70.58975219726562 32.980995178222656 71.85796356201172 33.55385208129883 C 73.6246337890625 33.97404479980469 74.89562225341797 34.35609436035156 75.5722885131836 34.79971694946289 C 76.7290267944336 35.165348052978516 77.72081756591797 35.428924560546875 78.22119140625 35.6292839050293 C 78.99142456054688 35.882694244384766 79.50556182861328 36.071102142333984 79.26268005371094 36.00733184814453 C 78.64513397216797 35.893951416015625 77.25308990478516 35.68688201904297 74.81178283691406 35.25200271606445 C 72.20852661132812 34.69614028930664 69.79035949707031 34.02180480957031 67.25469970703125 33.50385284423828 C 65.09304809570312 33.47782897949219 63.939144134521484 33.88849639892578 63.42655563354492 34.93439865112305 C 63.28505325317383 36.44526672363281 63.872764587402344 37.83700942993164 64.96353149414062 39.84687805175781 C 66.27696990966797 42.3991584777832 68.36681365966797 43.829437255859375 71.11575317382812 44.492286682128906 C 73.6225357055664 45.004947662353516 75.71985626220703 44.54147720336914 77.55738830566406 43.624202728271484 C 78.98015594482422 43.02838134765625 79.92585754394531 42.29240036010742 80.72734069824219 41.12515640258789 C 81.57299041748047 40.01835632324219 82.15203094482422 39.257965087890625 82.4893798828125 38.456886291503906 C 82.82357788085938 37.65306091308594 82.83196258544922 37.30045700073242 82.28147888183594 37.049705505371094 C 81.55169677734375 36.506900787353516 80.5958251953125 36.26227569580078 79.20781707763672 36.099674224853516 C 77.72844696044922 35.47368240356445 76.00740051269531 34.92977523803711 73.88932800292969 34.37834167480469" stroke-width="2.0" fill="rgb(0, 0, 255)" opacity="1.0" stroke="rgb(0, 0, 255)" stroke-opacity="1.0" stroke-linecap="round" stroke-linejoin="round"/>
  </g>
</svg>
