<?xml version="1.0" ?>
<svg xmlns="http://www.w3.org/2000/svg" version="1.1" width="128" height="128">
  <defs/>
  <g>
    <path d="M 1.1730198860168457 84.26913452148438 C 1.1710368394851685 84.28398132324219 1.1718127727508545 84.16545867919922 1.168519377708435 84.10343170166016 C 1.1808912754058838 83.95352935791016 1.2383992671966553 85.31639862060547 1.292617917060852 89.79682159423828 C 1.2971904277801514 93.07721710205078 1.4166966676712036 93.7370834350586 1.7596540451049805 95.49884033203125 C 2.3346433639526367 98.42170715332031 3.3948581218719482 100.3564682006836 5.569357395172119 102.60064697265625 C 9.272930145263672 106.21488952636719 14.632978439331055 109.23448944091797 21.516101837158203 111.6962890625 C 28.62960433959961 114.28079986572266 35.934043884277344 116.03641510009766 43.952545166015625 116.98820495605469 C 51.33229446411133 117.89450073242188 57.6899299621582 118.39511108398438 65.43029022216797 118.20993041992188 C 73.10804748535156 118.09232330322266 78.4313735961914 117.78446960449219 84.9250259399414 116.721435546875 C 94.3299560546875 115.58990478515625 104.78482055664062 113.18003845214844 115.06228637695312 107.60639953613281 C 122.1717758178711 103.12726593017578 124.93984985351562 100.3741226196289 125.9081802368164 95.82276916503906 C 126.28909301757812 93.74481201171875 126.24273681640625 94.82098388671875 125.82025146484375 91.91768646240234 C 125.01197052001953 88.12293243408203 123.9613265991211 86.4873275756836 123.58104705810547 82.1800537109375 C 123.751220703125 78.44215393066406 124.14801788330078 77.28984832763672 125.39840698242188 72.36730194091797 C 126.49154663085938 66.57691192626953 126.86922454833984 64.1914291381836 126.94361877441406 59.718902587890625 C 126.83442687988281 52.39391326904297 126.2097396850586 48.72850799560547 124.64022064208984 44.50027084350586 C 121.71854400634766 35.328739166259766 116.42893981933594 26.990747451782227 108.69609069824219 20.688737869262695 C 101.09796142578125 14.748714447021484 92.50827026367188 11.479986190795898 80.19275665283203 10.132174491882324 C 69.15013122558594 8.883623123168945 60.26250076293945 9.462410926818848 48.72039031982422 12.856670379638672 C 38.140350341796875 16.565519332885742 30.594846725463867 21.211761474609375 22.106109619140625 30.060287475585938 C 14.851605415344238 38.23066711425781 10.273536682128906 45.39775848388672 6.543400764465332 55.961185455322266" stroke-width="2.0" fill="rgb(252, 194, 27)" opacity="1.0" stroke="rgb(252, 194, 27)" stroke-opacity="1.0" stroke-linecap="round" stroke-linejoin="round"/>
    <path d="M 50.64923095703125 92.90121459960938 C 50.62685775756836 92.91231536865234 50.63967514038086 92.82634735107422 50.63417053222656 92.60490417480469 C 50.5395393371582 92.45516967773438 49.699440002441406 93.17349243164062 48.112876892089844 95.00975036621094 C 46.95947265625 97.07067108154297 46.999210357666016 98.60728454589844 47.57616424560547 99.6666030883789 C 48.19050979614258 100.46391296386719 49.329551696777344 100.68669128417969 50.90775680541992 100.39051818847656 C 52.23381423950195 100.04237365722656 53.441314697265625 99.25493621826172 54.81529235839844 97.94437408447266 C 56.0247917175293 96.805908203125 57.13724899291992 95.78890991210938 58.641693115234375 94.58407592773438 C 60.33559799194336 93.5308837890625 62.21950912475586 92.42607879638672 64.56417083740234 91.02439880371094 C 66.8315658569336 89.98173522949219 68.60506439208984 89.19544982910156 70.55626678466797 88.21025085449219 C 73.13180541992188 87.442626953125 76.0285873413086 86.93378448486328 79.3440933227539 86.28468322753906 C 83.06380462646484 86.0605697631836 86.43279266357422 86.62097930908203 89.38409423828125 87.41211700439453 C 92.55168151855469 88.37132263183594 95.72892761230469 89.67948913574219 98.23728942871094 91.34352111816406 C 100.3261489868164 93.23511505126953 102.25325775146484 94.9813232421875 104.02222442626953 96.20130157470703 C 105.80772399902344 97.03620910644531 107.34208679199219 97.1064224243164 108.4187240600586 96.07617950439453 C 108.89918518066406 95.15255737304688 108.76685333251953 94.47893524169922 108.531494140625 92.97901916503906 C 108.0418472290039 91.59410858154297 106.92243194580078 90.88023376464844 105.7315902709961 89.65946197509766 C 104.75901794433594 88.271240234375 103.71302795410156 87.56143951416016 102.72869873046875 86.9992904663086 C 101.68748474121094 86.27633666992188 100.02191162109375 85.31788635253906 97.88836669921875 84.01760864257812 C 95.55705261230469 82.67318725585938 92.56136322021484 81.48106384277344 89.00154876708984 80.6747055053711 C 85.40668487548828 80.34228515625 81.70308685302734 80.13645935058594 77.74687957763672 80.39129638671875 C 73.96794128417969 81.3786392211914 70.44239044189453 82.2052993774414 67.01885986328125 82.97095489501953" stroke-width="2.0" fill="rgb(255, 0, 0)" opacity="1.0" stroke="rgb(255, 0, 0)" stroke-opacity="1.0" stroke-linecap="round" stroke-linejoin="round"/>
    <path d="M 55.91764450073242 63.540184020996094 C 55.92875671386719 63.53961944580078 55.90842056274414 63.55215072631836 55.96763229370117 63.59754943847656 C 56.16071319580078 63.58433532714844 56.242130279541016 63.12687683105469 55.952396392822266 61.983482360839844 C 55.670738220214844 60.688011169433594 55.543880462646484 59.71724319458008 55.537933349609375 58.723873138427734 C 56.02434158325195 58.05352783203125 57.2138671875 58.129119873046875 58.99160385131836 58.169334411621094 C 61.14229202270508 58.00198745727539 63.55112838745117 57.773414611816406 66.30425262451172 56.798500061035156 C 69.03311920166016 55.532928466796875 70.76266479492188 54.90779113769531 71.3624038696289 54.88105773925781 C 71.72135162353516 55.05683898925781 72.2769775390625 55.48326873779297 72.8712387084961 56.820316314697266 C 73.39827728271484 58.88310241699219 73.66100311279297 60.699214935302734 73.50276184082031 62.36471939086914 C 73.11038970947266 64.06291198730469 72.6731185913086 65.2388687133789 72.00606536865234 66.43053436279297 C 71.08694458007812 68.08541107177734 69.79690551757812 69.26887512207031 67.93701934814453 70.06651306152344 C 65.88478088378906 70.91717529296875 64.01627349853516 71.0347671508789 61.97971725463867 70.58954620361328 C 59.79220962524414 70.05078125 58.26576614379883 68.74691009521484 57.45882797241211 66.90892028808594 C 56.686885833740234 65.48504638671875 55.82151794433594 64.7600326538086 55.200130462646484 65.17768859863281 C 54.872440338134766 65.98040008544922 55.08748245239258 65.80916595458984 55.978702545166016 65.21971893310547 C 57.05449295043945 65.33162689208984 58.64533233642578 65.61526489257812 61.54550552368164 65.26583862304688 C 65.00875091552734 64.64380645751953 67.70145416259766 63.90855407714844 69.60466003417969 63.01133728027344 C 70.96279907226562 62.67646408081055 71.39095306396484 62.419830322265625 70.85177612304688 61.98164367675781 C 69.38903045654297 62.451148986816406 67.08045959472656 63.36666488647461 64.69041442871094 64.11042785644531 C 63.083251953125 65.1149673461914 62.125247955322266 65.69589233398438 61.22211456298828 65.75654602050781 C 60.21343231201172 66.1032943725586 59.23847198486328 66.34335327148438 58.44477844238281 66.2642822265625" stroke-width="2.0" fill="rgb(0, 255, 0)" opacity="1.0" stroke="rgb(0, 255, 0)" stroke-opacity="1.0" stroke-linecap="round" stroke-linejoin="round"/>
    <path d="M 2.705124616622925 52.236167907714844 C 2.703809976577759 52.207115173339844 2.703091621398926 52.2119026184082 2.69221830368042 52.229652404785156 C 2.654226779937744 52.786834716796875 2.5319583415985107 54.263511657714844 2.285360813140869 57.00251770019531 C 1.9879857301712036 59.93488311767578 1.7449829578399658 61.95645523071289 1.5876898765563965 62.610504150390625 C 1.53488290309906 62.80113220214844 1.6068699359893799 63.41223907470703 1.824375867843628 64.1988754272461 C 2.2487168312072754 65.06717681884766 3.007930278778076 66.06741333007812 4.3537139892578125 66.61114501953125 C 6.862066745758057 66.54769897460938 11.814435005187988 66.43869018554688 22.18349266052246 66.68602752685547 C 42.88589859008789 67.18000793457031 70.73418426513672 66.96212005615234 90.46176147460938 65.80175018310547 C 98.67960357666016 63.63431930541992 101.55731201171875 61.09792709350586 102.21241760253906 59.21311950683594 C 102.25970458984375 58.33346176147461 102.49952697753906 57.550331115722656 102.15723419189453 57.16809844970703 C 101.02940368652344 57.569786071777344 100.02771759033203 58.28129959106445 98.64913177490234 60.428043365478516 C 97.10652160644531 64.27838897705078 97.25630950927734 68.05520629882812 98.9006118774414 71.46407318115234 C 101.08380126953125 74.40973663330078 103.80572509765625 75.42803192138672 106.34333038330078 74.79977416992188 C 108.06026458740234 74.34476470947266 109.36175537109375 73.84068298339844 110.81776428222656 72.27529907226562 C 112.12820434570312 70.63345336914062 112.91677856445312 69.23680877685547 113.52535247802734 67.07971954345703 C 113.87398529052734 64.93045806884766 113.47905731201172 63.82621765136719 112.57453155517578 63.081844329833984 C 111.58716583251953 62.622642517089844 110.37117004394531 62.748165130615234 109.40975189208984 62.384849548339844 C 109.08625030517578 61.79774856567383 108.5701904296875 61.85926818847656 107.7699966430664 61.733455657958984 C 107.10596466064453 61.235965728759766 106.15802764892578 60.9116096496582 105.13291931152344 60.159549713134766 C 104.16585540771484 59.286460876464844 102.4867172241211 59.73612594604492 99.6225357055664 62.53177261352539 C 94.4785385131836 66.16059875488281 84.34326171875 67.19005584716797 66.2099380493164 67.22197723388672" stroke-width="2.0" fill="rgb(0, 0, 255)" opacity="1.0" stroke="rgb(0, 0, 255)" stroke-opacity="1.0" stroke-linecap="round" stroke-linejoin="round"/>
  </g>
</svg>
