<?xml version="1.0" ?>
<svg xmlns="http://www.w3.org/2000/svg" version="1.1" width="128" height="128">
  <defs/>
  <g>
    <path d="M 1.3525056838989258 84.82408142089844 C 1.3511477708816528 84.83292388916016 1.3511769771575928 84.70996856689453 1.3519238233566284 84.5497055053711 C 1.3635709285736084 84.5387191772461 1.3737852573394775 86.12505340576172 1.2956600189208984 90.19847106933594 C 1.1448787450790405 92.66497039794922 1.1166353225708008 92.77671813964844 1.2691031694412231 93.98397064208984 C 1.5747883319854736 96.27367401123047 2.1924993991851807 97.51317596435547 3.4173471927642822 99.4642333984375 C 5.502100944519043 102.5568618774414 9.061464309692383 105.13353729248047 14.808862686157227 108.0101547241211 C 22.062349319458008 111.32254028320312 30.46729850769043 113.63180541992188 39.99748611450195 115.29303741455078 C 48.482818603515625 116.62503051757812 55.69457244873047 117.25760650634766 63.46699142456055 117.1529769897461 C 70.61386108398438 117.09925079345703 75.4452896118164 116.87713623046875 80.39090728759766 116.22723388671875 C 86.42524719238281 115.6357421875 92.73137664794922 114.64111328125 101.3082046508789 112.34828186035156 C 111.26651000976562 109.46217346191406 119.07046508789062 105.69969940185547 123.43694305419922 100.67860412597656 C 125.42225646972656 98.06830596923828 126.22048950195312 97.40888977050781 126.58109283447266 94.8381118774414 C 126.7893295288086 93.37760162353516 126.82534790039062 93.78822326660156 126.75210571289062 91.38461303710938 C 126.69329071044922 88.36616516113281 126.63514709472656 88.44789123535156 126.61141967773438 86.15763092041016 C 126.58662414550781 81.17745208740234 126.23138427734375 77.6765365600586 125.41387939453125 72.52012634277344 C 124.14881134033203 63.95667266845703 122.23785400390625 56.82855224609375 119.49641418457031 49.73746109008789 C 115.6164779663086 39.25322341918945 109.67615509033203 30.326419830322266 102.40794372558594 23.928388595581055 C 95.26793670654297 17.700206756591797 87.20909881591797 13.644681930541992 76.32899475097656 11.79502010345459 C 66.10208129882812 10.313215255737305 57.0816650390625 10.330842971801758 46.17755126953125 12.858305931091309 C 36.79022216796875 15.523052215576172 30.212675094604492 19.054580688476562 22.68271827697754 26.52091407775879 C 15.742578506469727 33.70981216430664 11.153299331665039 41.04439163208008 7.1778340339660645 53.01576232910156" stroke-width="2.0" fill="rgb(252, 194, 27)" opacity="1.0" stroke="rgb(252, 194, 27)" stroke-opacity="1.0" stroke-linecap="round" stroke-linejoin="round"/>
    <path d="M 47.218570709228516 90.11009216308594 C 47.22235107421875 90.13967895507812 47.216552734375 90.02581024169922 47.14690017700195 89.7953872680664 C 46.58857727050781 89.49581909179688 44.96804428100586 90.29195404052734 42.16911315917969 92.26071166992188 C 40.098228454589844 93.95735168457031 40.38559341430664 95.05133056640625 42.00296401977539 95.93607330322266 C 43.89683151245117 96.3817138671875 46.000186920166016 95.9924545288086 47.85721969604492 95.19962310791016 C 48.621826171875 94.55268096923828 48.43169021606445 93.5160140991211 47.648094177246094 92.09463500976562 C 46.2955436706543 90.79350280761719 45.369197845458984 89.62698364257812 45.85519027709961 88.57662963867188 C 47.1629638671875 87.87552642822266 48.9393424987793 87.00166320800781 51.395774841308594 85.82552337646484 C 54.01399612426758 84.9832534790039 56.80013656616211 84.2138442993164 60.57312774658203 83.30337524414062 C 65.04467010498047 82.78739929199219 69.38574981689453 82.86577606201172 73.27009582519531 83.60723876953125 C 76.51016235351562 84.77544403076172 79.3477783203125 85.99126434326172 81.78271484375 87.26480865478516 C 83.50312042236328 88.46797943115234 84.86366271972656 89.3284683227539 85.96757507324219 90.17033386230469 C 86.60469055175781 91.22407531738281 87.2561264038086 91.99696350097656 87.93354034423828 92.52803802490234 C 88.18325805664062 93.15450286865234 88.2809829711914 93.54331970214844 88.15608215332031 93.44048309326172 C 87.1432876586914 92.98841094970703 85.68025207519531 92.30689239501953 84.24280548095703 91.95072937011719 C 82.53748321533203 92.10684967041016 81.41401672363281 92.49606323242188 81.57403564453125 93.03470611572266 C 82.24349975585938 93.88740539550781 83.18661499023438 94.94915771484375 84.52108764648438 95.94554901123047 C 85.63214874267578 96.6615219116211 86.53831481933594 96.73163604736328 87.66780853271484 96.17436981201172 C 88.5995864868164 95.39602661132812 88.73434448242188 94.55171966552734 88.19453430175781 93.54908752441406 C 87.4585189819336 92.54769897460938 86.84688568115234 91.73568725585938 86.40727233886719 91.27090454101562 C 85.91646575927734 91.5269775390625 84.85317993164062 92.19747924804688 82.46405792236328 92.606689453125" stroke-width="2.0" fill="rgb(255, 0, 0)" opacity="1.0" stroke="rgb(255, 0, 0)" stroke-opacity="1.0" stroke-linecap="round" stroke-linejoin="round"/>
    <path d="M 22.67831039428711 57.88404846191406 C 22.6854248046875 57.89497756958008 22.671764373779297 57.898399353027344 22.68914031982422 57.95974349975586 C 22.807432174682617 57.84174728393555 23.12685203552246 57.23353958129883 23.681045532226562 56.18147659301758 C 24.621414184570312 55.154605865478516 25.984678268432617 54.699012756347656 27.420766830444336 54.8476448059082 C 28.92740249633789 55.47361755371094 31.09315299987793 56.575347900390625 33.90302276611328 57.957279205322266 C 36.6962890625 59.386863708496094 39.58211898803711 60.71194839477539 42.855628967285156 62.05080795288086 C 46.099849700927734 63.55149841308594 49.098602294921875 64.81111145019531 51.56932067871094 65.43865203857422 C 53.208526611328125 65.35883331298828 54.328285217285156 64.08216857910156 55.4880256652832 62.616920471191406 C 56.336212158203125 61.76901626586914 56.94089889526367 61.28952407836914 57.6041259765625 62.101497650146484 C 57.93231201171875 63.878814697265625 57.87908935546875 65.46819305419922 57.317317962646484 68.07470703125 C 56.074825286865234 71.3533935546875 54.770294189453125 73.01019287109375 53.675384521484375 73.88246154785156 C 52.048431396484375 75.3476791381836 50.126121520996094 76.36540222167969 47.876556396484375 77.23822021484375 C 44.45051574707031 78.33280181884766 40.676849365234375 78.52152252197266 37.430938720703125 78.20600128173828 C 34.25163650512695 77.80825805664062 31.48517417907715 76.52371215820312 29.405364990234375 74.90857696533203 C 27.453771591186523 73.39092254638672 25.854612350463867 71.70215606689453 24.83478355407715 70.18840789794922 C 24.086763381958008 68.9159927368164 23.686752319335938 67.71221923828125 23.67198371887207 67.09903717041016 C 23.76792335510254 67.11862182617188 24.15409278869629 67.21064758300781 25.273029327392578 67.3953857421875 C 27.24178695678711 67.78009796142578 29.87327766418457 68.38711547851562 32.65228271484375 69.32843780517578 C 35.19894027709961 70.3192138671875 37.29754638671875 70.74311828613281 39.05879592895508 70.66105651855469 C 40.52952575683594 70.5444564819336 41.33863067626953 70.37665557861328 40.95643997192383 70.24637603759766 C 39.37636184692383 70.25093078613281 36.802459716796875 69.5821762084961 33.39091110229492 67.97895050048828" stroke-width="2.0" fill="rgb(0, 255, 0)" opacity="1.0" stroke="rgb(0, 255, 0)" stroke-opacity="1.0" stroke-linecap="round" stroke-linejoin="round"/>
    <path d="M 8.239303588867188 51.26189041137695 C 8.234261512756348 51.229732513427734 8.2433500289917 51.26034927368164 8.247841835021973 51.26994705200195 C 8.19332218170166 51.296382904052734 7.787688732147217 51.01531219482422 6.848324775695801 50.70220184326172 C 5.696986675262451 50.49759292602539 4.803534507751465 51.105712890625 4.263780117034912 52.741024017333984 C 4.073265552520752 55.458126068115234 4.247521877288818 58.72035217285156 4.8205037117004395 61.24966049194336 C 6.009679317474365 62.419307708740234 8.285712242126465 62.572818756103516 12.628202438354492 62.20101547241211 C 21.506587982177734 62.165897369384766 39.17668533325195 62.30017852783203 64.34886169433594 62.64798355102539 C 83.3223648071289 62.601654052734375 90.51591491699219 61.25797653198242 90.84048461914062 60.66734313964844 C 88.51219940185547 61.2349739074707 85.49771881103516 61.83882141113281 81.04325866699219 63.66756057739258 C 76.20037078857422 66.14268493652344 73.78858184814453 65.8866195678711 72.47135162353516 63.678775787353516 C 70.54367065429688 61.879234313964844 69.29527282714844 60.82904052734375 68.80155944824219 62.21950149536133 C 68.38151550292969 66.56904602050781 69.46681213378906 70.681396484375 72.59554290771484 73.80915832519531 C 75.93038940429688 76.97348022460938 79.60345458984375 78.6025390625 84.2680435180664 78.59658813476562 C 87.7600326538086 78.82637023925781 89.94795227050781 78.55626678466797 92.51545715332031 77.3983154296875 C 94.56453704833984 76.81858825683594 95.43672180175781 76.32899475097656 96.92945861816406 75.10888671875 C 98.4985580444336 74.43476867675781 99.0338363647461 74.19512939453125 99.62277221679688 73.23111724853516 C 100.44017791748047 72.30550384521484 100.8409423828125 71.81048583984375 101.70318603515625 70.15230560302734 C 103.05750274658203 67.74533081054688 103.62517547607422 65.79016876220703 103.71670532226562 63.461097717285156 C 103.84269714355469 60.74497604370117 103.48165893554688 58.68360137939453 102.64842224121094 56.906063079833984 C 101.65299987792969 55.48189163208008 99.96524047851562 55.344810485839844 97.17285919189453 56.438133239746094 C 93.38384246826172 58.03895568847656 88.8224105834961 59.956260681152344 83.09227752685547 62.86220932006836" stroke-width="2.0" fill="rgb(0, 0, 255)" opacity="1.0" stroke="rgb(0, 0, 255)" stroke-opacity="1.0" stroke-linecap="round" stroke-linejoin="round"/>
  </g>
</svg>
