<?xml version="1.0" ?>
<svg xmlns="http://www.w3.org/2000/svg" version="1.1" width="128" height="128">
  <defs/>
  <g>
    <path d="M 5.563459396362305 78.69593811035156 C 5.554786682128906 78.6773910522461 5.55821418762207 78.57551574707031 5.5806121826171875 78.31766510009766 C 5.649794578552246 78.54839324951172 5.495558738708496 80.64749908447266 4.781993865966797 84.80445861816406 C 3.8486526012420654 87.54927825927734 3.343653440475464 88.8574447631836 3.1530404090881348 91.01506805419922 C 3.129117012023926 93.48686981201172 3.4461569786071777 94.63880920410156 4.262431621551514 96.45417022705078 C 5.610872745513916 99.40166473388672 7.958049774169922 101.60472869873047 12.065314292907715 104.19403839111328 C 17.8029842376709 107.75965881347656 24.98781394958496 110.47561645507812 33.645362854003906 112.47198486328125 C 42.61896514892578 114.40682983398438 50.96501541137695 115.45501708984375 59.49562454223633 115.66826629638672 C 67.4330062866211 115.74398803710938 73.56661224365234 115.63749694824219 79.59041595458984 114.99311065673828 C 86.24137878417969 114.37213134765625 92.98749542236328 113.36040496826172 101.30888366699219 110.96778869628906 C 110.75448608398438 108.10342407226562 118.27550506591797 104.85432434082031 122.68019104003906 100.14021301269531 C 124.88528442382812 97.3857421875 125.82058715820312 96.74273681640625 126.22317504882812 93.82035064697266 C 126.46383666992188 91.3642807006836 126.56507873535156 91.32807159423828 126.65365600585938 88.79602813720703 C 126.8590316772461 85.4370346069336 126.98265075683594 85.02186584472656 126.96466827392578 82.30448913574219 C 126.80816650390625 76.83935546875 126.28526306152344 73.369873046875 125.22489166259766 68.78541564941406 C 123.55418395996094 60.619754791259766 120.71009063720703 53.401519775390625 116.10652160644531 46.054195404052734 C 109.85418701171875 35.9074821472168 101.58334350585938 27.526878356933594 91.99514770507812 21.888427734375 C 83.3632583618164 16.7641658782959 73.8862075805664 13.452022552490234 61.86879348754883 12.471611022949219 C 51.46949768066406 11.822269439697266 44.076927185058594 12.147429466247559 35.47760772705078 14.308459281921387 C 27.149856567382812 16.206453323364258 20.527294158935547 19.028423309326172 14.004253387451172 24.743499755859375 C 9.307559967041016 29.06104278564453 6.7755126953125 31.71828842163086 5.106931686401367 36.647518157958984" stroke-width="2.0" fill="rgb(252, 194, 27)" opacity="1.0" stroke="rgb(252, 194, 27)" stroke-opacity="1.0" stroke-linecap="round" stroke-linejoin="round"/>
    <path d="M 19.162866592407227 85.11017608642578 C 19.15798568725586 85.11849975585938 19.152727127075195 85.03446960449219 19.157190322875977 84.89302825927734 C 19.1870174407959 84.93116760253906 19.26517677307129 85.79962921142578 19.505800247192383 87.89417266845703 C 20.233125686645508 90.71211242675781 21.858747482299805 93.42131042480469 24.04513168334961 95.72494506835938 C 26.14441680908203 97.41773986816406 28.283315658569336 98.12071990966797 30.591169357299805 98.17594909667969 C 32.69419860839844 97.98362731933594 34.52493667602539 97.44612121582031 36.422725677490234 96.579345703125 C 38.632083892822266 95.8376693725586 41.29258728027344 95.40593719482422 44.265716552734375 95.278564453125 C 47.06007385253906 95.33587646484375 49.68122482299805 95.57396697998047 52.24011993408203 96.30533599853516 C 54.278167724609375 97.35537719726562 56.05128860473633 98.47763061523438 58.328739166259766 99.85872650146484 C 60.94636917114258 101.20756530761719 63.625511169433594 101.80150604248047 66.82040405273438 101.73129272460938 C 70.29022216796875 101.59520721435547 73.14008331298828 101.00457000732422 75.67455291748047 99.80204772949219 C 77.78897094726562 98.96212768554688 79.00364685058594 97.6443862915039 80.2271728515625 95.04690551757812 C 81.39268493652344 92.69451904296875 81.74751281738281 90.3535385131836 81.81803894042969 87.71289825439453 C 81.61991882324219 85.876708984375 81.07743835449219 84.37057495117188 80.72128295898438 82.31927490234375 C 80.33287811279297 80.43326568603516 79.40813446044922 79.14682006835938 78.1410903930664 77.281982421875 C 76.70282745361328 75.28849792480469 74.84889221191406 73.91177368164062 72.92847442626953 72.34422302246094 C 70.49061584472656 70.77297973632812 67.0462875366211 70.11772155761719 63.762149810791016 70.44813537597656 C 61.43675994873047 71.28629302978516 59.51674270629883 72.35425567626953 57.50456619262695 73.62101745605469 C 55.29187774658203 74.97747039794922 52.796295166015625 76.2945785522461 50.196693420410156 77.75932312011719 C 48.02721405029297 79.44513702392578 45.894039154052734 80.43360900878906 42.879852294921875 79.95958709716797 C 38.99470901489258 78.23208618164062 34.826881408691406 76.04335021972656 30.372941970825195 74.82633972167969" stroke-width="2.0" fill="rgb(255, 0, 0)" opacity="1.0" stroke="rgb(255, 0, 0)" stroke-opacity="1.0" stroke-linecap="round" stroke-linejoin="round"/>
    <path d="M 16.842451095581055 66.94120025634766 C 16.841327667236328 66.94393920898438 16.83477210998535 66.92320251464844 16.815549850463867 66.92923736572266 C 16.749290466308594 67.1001205444336 16.52138900756836 67.61959838867188 16.078710556030273 68.59436798095703 C 15.752298355102539 69.65239715576172 15.950685501098633 70.51042938232422 16.56711769104004 71.1231918334961 C 17.499530792236328 71.50416564941406 18.944541931152344 71.52945709228516 20.82137680053711 71.20342254638672 C 22.830556869506836 70.32788848876953 25.037187576293945 68.80282592773438 27.33653450012207 67.19904327392578 C 29.26641845703125 65.64279174804688 30.72871971130371 63.87273406982422 31.71332359313965 62.15393829345703 C 32.19969177246094 60.46287536621094 32.398101806640625 58.88459777832031 32.58921432495117 57.69748306274414 C 32.91903305053711 56.84153366088867 33.41791915893555 56.277381896972656 34.134010314941406 56.14883041381836 C 35.11571502685547 56.326812744140625 36.277286529541016 56.669551849365234 37.54266357421875 57.3138313293457 C 38.80974197387695 58.02318572998047 39.899085998535156 58.26261901855469 40.62759017944336 58.32620620727539 C 40.930274963378906 58.3898811340332 40.814178466796875 58.20677185058594 40.09482955932617 58.09484100341797 C 38.70622634887695 57.7904052734375 37.17273712158203 56.844261169433594 35.647125244140625 56.104522705078125 C 33.9271240234375 55.79888916015625 32.321205139160156 55.46181869506836 31.019725799560547 55.68408966064453 C 29.934064865112305 56.1502799987793 29.229127883911133 55.90602493286133 28.89143943786621 55.66262435913086 C 28.73279571533203 55.645450592041016 28.833148956298828 55.01340866088867 29.13509750366211 54.23619842529297 C 29.47097396850586 53.85802459716797 30.005538940429688 53.42575454711914 30.860254287719727 53.15411376953125 C 31.79729652404785 53.631004333496094 32.642730712890625 54.458740234375 33.498924255371094 55.221553802490234 C 34.31407165527344 56.009788513183594 34.931095123291016 56.44575881958008 35.18651580810547 56.555572509765625 C 35.013336181640625 56.780433654785156 34.46363067626953 56.70819091796875 33.35575866699219 56.212703704833984 C 31.7012939453125 55.83635711669922 29.864194869995117 55.919673919677734 27.676788330078125 56.92290115356445" stroke-width="2.0" fill="rgb(0, 255, 0)" opacity="1.0" stroke="rgb(0, 255, 0)" stroke-opacity="1.0" stroke-linecap="round" stroke-linejoin="round"/>
    <path d="M 51.14558029174805 55.636348724365234 C 51.14396667480469 55.65005874633789 51.12655258178711 55.63968276977539 51.17990493774414 55.65019607543945 C 51.530696868896484 55.574581146240234 52.01188659667969 55.57073974609375 52.36587905883789 55.59678649902344 C 52.882537841796875 55.4372673034668 53.611328125 55.505043029785156 53.748416900634766 55.92239761352539 C 53.44977569580078 56.32773971557617 53.32052993774414 56.47412872314453 53.110164642333984 56.43172073364258 C 52.5515251159668 56.50415802001953 51.763328552246094 56.78496170043945 50.69304275512695 56.732269287109375 C 49.51809310913086 55.907222747802734 48.674774169921875 54.924407958984375 48.09406661987305 54.27036666870117 C 47.81126022338867 53.42919921875 47.88931655883789 52.429317474365234 48.328216552734375 51.51911926269531 C 49.20759963989258 50.52738571166992 50.103816986083984 49.90900802612305 50.800323486328125 50.16460418701172 C 51.78795623779297 51.07560729980469 53.43225860595703 52.315799713134766 55.54851150512695 54.16301727294922 C 58.043235778808594 56.3525276184082 60.75065994262695 57.436832427978516 63.016109466552734 57.80118179321289 C 64.63885498046875 58.1672477722168 65.77690887451172 58.00537109375 65.46705627441406 57.98769760131836 C 62.98992919921875 58.196693420410156 59.45217514038086 57.517616271972656 55.70892333984375 57.057350158691406 C 52.55159378051758 57.26722717285156 51.34264373779297 57.36188888549805 51.93357849121094 57.78530502319336 C 53.0800895690918 59.00591278076172 54.838871002197266 60.26636505126953 57.512451171875 61.433570861816406 C 60.608638763427734 62.88573455810547 63.995452880859375 63.65724182128906 67.7523193359375 63.651065826416016 C 70.95178985595703 64.00579071044922 73.22895812988281 63.87180709838867 75.14950561523438 63.02741241455078 C 76.5208511352539 62.683135986328125 76.9854507446289 62.09014892578125 77.05134582519531 60.34187698364258 C 76.88333129882812 58.76522445678711 75.9107437133789 58.25457000732422 74.37635040283203 58.14358139038086 C 73.15328979492188 58.24748992919922 72.03912353515625 58.6053581237793 70.16918182373047 58.95240020751953 C 67.77070617675781 59.03713607788086 65.21891784667969 58.66895294189453 62.08635711669922 57.92791748046875" stroke-width="2.0" fill="rgb(0, 0, 255)" opacity="1.0" stroke="rgb(0, 0, 255)" stroke-opacity="1.0" stroke-linecap="round" stroke-linejoin="round"/>
  </g>
</svg>
