<?xml version="1.0" ?>
<svg xmlns="http://www.w3.org/2000/svg" version="1.1" width="128" height="128">
  <defs/>
  <g>
    <path d="M 0.7243006229400635 81.46003723144531 C 0.7228782176971436 81.47293090820312 0.7231641411781311 81.34601593017578 0.7215715050697327 81.20940399169922 C 0.724030077457428 81.38326263427734 0.7205615043640137 83.11604309082031 0.6808503866195679 87.0461654663086 C 0.6126261353492737 89.68018341064453 0.6019261479377747 90.19328308105469 0.6744564175605774 91.595458984375 C 0.8228517174720764 93.78297424316406 1.1383436918258667 94.42301940917969 1.8133093118667603 95.77982330322266 C 3.0560662746429443 98.89288330078125 5.419174671173096 100.96550750732422 9.884150505065918 103.60249328613281 C 16.597946166992188 107.57462310791016 25.166210174560547 110.23048400878906 35.28343963623047 112.0242919921875 C 44.68583679199219 113.79920959472656 52.76659393310547 114.47269439697266 61.33878707885742 114.19902801513672 C 69.28553009033203 114.16629791259766 74.98139190673828 114.1431655883789 80.62434387207031 113.5765151977539 C 87.48768615722656 113.0498046875 95.16061401367188 111.90801239013672 104.82542419433594 109.04228210449219 C 114.7946548461914 105.7773666381836 121.2507095336914 102.43412017822266 124.30597686767578 98.6865463256836 C 125.7134017944336 97.15522003173828 126.40974426269531 96.63584899902344 126.83747100830078 93.7626724243164 C 127.11725616455078 92.00172424316406 127.22623443603516 92.56230163574219 127.25777435302734 90.75782012939453 C 127.33545684814453 87.84396362304688 127.40763092041016 87.12564086914062 127.43032836914062 84.04133605957031 C 127.37934875488281 78.41873931884766 127.15617370605469 75.4087905883789 126.64044952392578 71.75263977050781 C 125.72212219238281 64.39521026611328 124.18782043457031 57.52211380004883 121.80546569824219 51.18291091918945 C 118.2208251953125 41.69038772583008 112.6446533203125 33.294254302978516 105.48680877685547 27.209369659423828 C 98.51001739501953 20.993684768676758 90.61514282226562 16.898502349853516 79.77770233154297 14.891190528869629 C 68.31937408447266 13.048012733459473 56.846519470214844 13.053608894348145 43.809749603271484 15.895482063293457 C 33.85296630859375 18.53837013244629 27.258094787597656 22.00166893005371 19.903295516967773 29.452720642089844 C 13.412952423095703 36.12709045410156 9.202507972717285 42.14189910888672 5.7159905433654785 52.35661697387695" stroke-width="2.0" fill="rgb(252, 194, 27)" opacity="1.0" stroke="rgb(252, 194, 27)" stroke-opacity="1.0" stroke-linecap="round" stroke-linejoin="round"/>
    <path d="M 28.682960510253906 90.17919158935547 C 28.687467575073242 90.20684051513672 28.692907333374023 90.09733581542969 28.681875228881836 89.81654357910156 C 28.137357711791992 89.32575225830078 26.320653915405273 89.68836212158203 23.478090286254883 91.45240783691406 C 21.69024658203125 93.5261001586914 22.270395278930664 95.40766143798828 24.382047653198242 97.49551391601562 C 26.944408416748047 99.62360382080078 30.09626579284668 100.84652709960938 33.59393310546875 101.29651641845703 C 36.738277435302734 101.61679077148438 39.958595275878906 101.60746002197266 43.293182373046875 101.51101684570312 C 46.153076171875 101.8292236328125 48.7860107421875 101.8772201538086 51.910701751708984 101.28929138183594 C 55.14128875732422 100.85320281982422 58.47566223144531 100.73966217041016 62.49030685424805 100.63481140136719 C 66.39139556884766 100.7753677368164 69.60462951660156 100.83906555175781 73.13694763183594 100.70356750488281 C 76.88070678710938 101.15479278564453 79.89051818847656 101.74185180664062 82.97611999511719 101.83304595947266 C 86.6052017211914 102.0436019897461 90.18031311035156 102.07406616210938 93.56722259521484 101.68531799316406 C 96.7480697631836 101.5918960571289 99.69304656982422 101.34561920166016 102.25077819824219 100.59007263183594 C 103.97708129882812 100.19976043701172 105.20964050292969 99.89482116699219 106.62991333007812 99.07433319091797 C 107.89450073242188 98.62860107421875 108.7122573852539 98.24921417236328 109.5474624633789 96.90357971191406 C 110.24806213378906 95.87342834472656 110.26104736328125 95.44193267822266 110.03052520751953 94.2686996459961 C 109.63504028320312 93.23480987548828 108.74508666992188 92.63687896728516 107.75296783447266 91.38058471679688 C 106.53134155273438 90.36067962646484 104.79756927490234 89.88097381591797 103.10826110839844 88.96007537841797 C 101.21575927734375 88.10133361816406 98.19011688232422 87.77819061279297 94.52092742919922 87.44918823242188 C 90.84686279296875 87.24391174316406 86.9255142211914 87.52525329589844 83.20658874511719 88.2074966430664 C 80.13981628417969 89.15743255615234 77.0862808227539 90.0667724609375 73.6265640258789 91.15440368652344 C 69.11698150634766 92.29059600830078 62.56064224243164 92.04667663574219 54.253665924072266 90.46171569824219" stroke-width="2.0" fill="rgb(255, 0, 0)" opacity="1.0" stroke="rgb(255, 0, 0)" stroke-opacity="1.0" stroke-linecap="round" stroke-linejoin="round"/>
    <path d="M 31.325803756713867 64.274658203125 C 31.33281135559082 64.27226257324219 31.325531005859375 64.27958679199219 31.350679397583008 64.31591033935547 C 31.285776138305664 64.20092010498047 30.876163482666016 63.57177734375 30.155628204345703 62.472042083740234 C 29.822607040405273 61.390838623046875 30.33125114440918 60.946929931640625 31.317920684814453 60.54960250854492 C 32.71112060546875 60.185020446777344 35.11466979980469 60.65584945678711 38.26028823852539 61.803367614746094 C 41.405670166015625 63.06071472167969 44.56827163696289 64.2891616821289 47.72066879272461 65.44121551513672 C 50.42900466918945 66.67707824707031 52.792274475097656 67.99600982666016 54.93807601928711 69.4173583984375 C 56.43095016479492 70.77236938476562 57.348079681396484 71.32489013671875 58.377044677734375 71.45974731445312 C 59.273040771484375 72.02428436279297 59.90264892578125 72.61224365234375 60.66817855834961 73.33351135253906 C 61.33481216430664 74.27896881103516 61.44877243041992 74.9785385131836 60.97808074951172 76.00291442871094 C 60.108036041259766 77.28565216064453 59.42591094970703 77.59625244140625 59.13622283935547 77.32688903808594 C 58.63447952270508 77.44293212890625 57.82837677001953 77.5374755859375 56.47405242919922 77.44847869873047 C 53.69070053100586 77.28852081298828 49.604793548583984 76.8834457397461 45.053829193115234 77.0451431274414 C 40.48722457885742 77.81024169921875 36.91680145263672 78.3244400024414 34.558170318603516 78.890625 C 32.73057556152344 79.2524642944336 31.476215362548828 78.65199279785156 30.942148208618164 77.68387603759766 C 30.645463943481445 77.09024810791016 30.942184448242188 76.68293762207031 32.312171936035156 76.58543395996094 C 34.27422332763672 76.81084442138672 36.90985870361328 76.61841583251953 40.82362365722656 76.0118179321289 C 45.38968276977539 75.8003921508789 49.21965789794922 75.94347381591797 51.961849212646484 76.17256164550781 C 53.745845794677734 76.39773559570312 54.41696548461914 76.16451263427734 54.6197395324707 75.7717514038086 C 54.870269775390625 75.91603088378906 54.934993743896484 76.19181060791016 54.865882873535156 76.5169448852539 C 54.917232513427734 77.09685516357422 54.7495002746582 77.38652801513672 53.57733917236328 77.36824035644531" stroke-width="2.0" fill="rgb(0, 255, 0)" opacity="1.0" stroke="rgb(0, 255, 0)" stroke-opacity="1.0" stroke-linecap="round" stroke-linejoin="round"/>
    <path d="M 1.7418373823165894 56.22745895385742 C 1.7410012483596802 56.2069206237793 1.7402997016906738 56.19752502441406 1.7365643978118896 56.18195343017578 C 1.7258670330047607 56.66355895996094 1.6695282459259033 58.287166595458984 1.5371595621109009 61.764862060546875 C 1.3668078184127808 66.0479965209961 1.2279646396636963 69.325927734375 1.1365938186645508 70.6336669921875 C 1.1055059432983398 70.98175048828125 1.1540203094482422 71.32914733886719 1.2954672574996948 71.52452850341797 C 1.5692813396453857 71.95669555664062 2.0770773887634277 72.66746520996094 3.041881799697876 73.1558837890625 C 4.9624528884887695 73.37322998046875 8.995318412780762 73.32166290283203 18.235122680664062 73.11386108398438 C 38.05118179321289 73.42871856689453 65.91673278808594 72.97328186035156 86.97676086425781 70.37166595458984 C 95.87672424316406 67.0800552368164 98.5499496459961 64.09660339355469 98.44868469238281 62.105735778808594 C 97.42415618896484 61.88396072387695 96.22369384765625 62.324405670166016 93.29434204101562 63.79375076293945 C 88.3169937133789 66.53573608398438 84.47631072998047 69.0382308959961 81.78691864013672 71.87034606933594 C 79.43412017822266 75.41148376464844 79.81939697265625 77.40349578857422 83.0173568725586 77.74168395996094 C 86.41350555419922 77.86137390136719 90.14338684082031 77.11897277832031 95.95880889892578 75.7398910522461 C 101.58979797363281 75.93717956542969 105.00990295410156 76.934326171875 107.1585693359375 77.01461029052734 C 108.47266387939453 76.42300415039062 109.08314514160156 75.31127166748047 109.47412872314453 73.15918731689453 C 109.37003326416016 71.15489959716797 107.50272369384766 70.76956939697266 103.49018859863281 70.93938446044922 C 98.27648162841797 70.9876937866211 94.38324737548828 70.70907592773438 95.7079086303711 68.8077621459961 C 100.20360565185547 66.72280883789062 103.75642395019531 65.74095153808594 106.41545104980469 64.37584686279297 C 108.22496795654297 62.47800827026367 108.2601089477539 60.97862243652344 106.7493667602539 59.42296600341797 C 104.35640716552734 58.15297317504883 101.23690032958984 59.578590393066406 97.10220336914062 64.91075897216797 C 90.83824920654297 70.95415496826172 78.85993194580078 73.83854675292969 58.18442916870117 74.71986389160156" stroke-width="2.0" fill="rgb(0, 0, 255)" opacity="1.0" stroke="rgb(0, 0, 255)" stroke-opacity="1.0" stroke-linecap="round" stroke-linejoin="round"/>
  </g>
</svg>
