<?xml version="1.0" ?>
<svg xmlns="http://www.w3.org/2000/svg" version="1.1" width="128" height="128">
  <defs/>
  <g>
    <path d="M 1.0503807067871094 85.01493072509766 C 1.0493742227554321 85.02897644042969 1.0492849349975586 84.90516662597656 1.048082709312439 84.79490661621094 C 1.049584150314331 84.79396057128906 1.0425477027893066 86.38575744628906 0.9657570123672485 90.50347900390625 C 0.8417548537254333 92.93383026123047 0.8202198147773743 93.03614807128906 0.9367882609367371 94.37836456298828 C 1.1720564365386963 96.55088806152344 1.6572265625 97.39071655273438 2.656146764755249 99.2494888305664 C 4.393015384674072 102.47135162353516 7.594682693481445 105.01935577392578 13.312037467956543 108.16539001464844 C 20.907119750976562 112.01911163330078 29.72641944885254 114.61231994628906 39.638389587402344 116.3690185546875 C 48.482093811035156 117.6694107055664 55.87871170043945 118.30204772949219 63.71564865112305 118.20262145996094 C 70.91178894042969 118.08192443847656 75.85820770263672 117.81163024902344 81.07041931152344 117.17806243896484 C 87.58300018310547 116.55059814453125 94.55099487304688 115.36236572265625 103.7940673828125 112.58842468261719 C 113.8310317993164 109.20158386230469 120.89862823486328 105.38513946533203 124.45675659179688 100.49360656738281 C 126.00200653076172 98.08367919921875 126.61319732666016 97.69312286376953 126.88143157958984 95.27123260498047 C 127.0367202758789 93.93270111083984 127.06283569335938 94.3936767578125 127.01841735839844 91.7682876586914 C 127.01599884033203 88.63887023925781 127.013671875 88.73646545410156 126.9968490600586 86.21930694580078 C 126.93898010253906 81.03816223144531 126.58731079101562 77.70713806152344 125.79547119140625 72.7416000366211 C 124.5598373413086 63.81828308105469 122.6229476928711 56.57472229003906 119.78166961669922 49.492977142333984 C 115.8359146118164 38.604095458984375 109.80538177490234 29.418622970581055 102.30778503417969 22.903627395629883 C 95.00853729248047 16.544464111328125 86.77008056640625 12.534309387207031 75.85751342773438 10.68342113494873 C 66.23943328857422 9.164734840393066 58.0822639465332 9.176492691040039 47.40115737915039 11.626245498657227 C 37.77012634277344 14.09138298034668 31.059240341186523 17.47923469543457 22.972251892089844 25.23390007019043 C 15.484233856201172 32.99322509765625 10.66866397857666 40.86201095581055 6.660940647125244 53.38222122192383" stroke-width="2.0" fill="rgb(252, 194, 27)" opacity="1.0" stroke="rgb(252, 194, 27)" stroke-opacity="1.0" stroke-linecap="round" stroke-linejoin="round"/>
    <path d="M 41.187564849853516 77.47148895263672 C 41.179054260253906 77.50041961669922 41.1851921081543 77.427978515625 41.10909652709961 77.29727172851562 C 40.739471435546875 76.94456481933594 39.56594467163086 76.94161224365234 37.87054443359375 77.52960968017578 C 37.77933883666992 77.93060302734375 40.87471389770508 77.97977447509766 45.14635467529297 78.90117645263672 C 47.408592224121094 81.19776153564453 46.732704162597656 82.98745727539062 43.85234451293945 82.72030639648438 C 40.30069351196289 81.31730651855469 37.965484619140625 80.32737731933594 37.70779037475586 80.67536163330078 C 39.30417251586914 82.5728988647461 42.250335693359375 85.15542602539062 45.90297317504883 87.41155242919922 C 49.151084899902344 89.12633514404297 51.55757141113281 90.1472396850586 54.02511978149414 90.80902862548828 C 56.51891326904297 91.5963363647461 58.80207061767578 92.20160675048828 61.39175033569336 92.28868865966797 C 64.21668243408203 92.34638214111328 66.68829345703125 92.49964141845703 69.19734191894531 92.4299545288086 C 71.78086853027344 92.5044937133789 74.18704223632812 92.17359161376953 76.98179626464844 91.12516021728516 C 79.87405395507812 90.18431091308594 81.94976043701172 89.3093490600586 83.15824127197266 88.28588104248047 C 83.69331359863281 87.58514404296875 83.758544921875 87.01901245117188 83.73681640625 86.31635284423828 C 83.80850219726562 85.99467468261719 83.96090698242188 86.33091735839844 83.9948501586914 86.64462280273438 C 83.66362762451172 86.3786392211914 83.28666687011719 85.79890441894531 82.93192291259766 85.29193878173828 C 82.53590393066406 85.0192642211914 82.68590545654297 85.3039321899414 83.33113098144531 86.20116424560547 C 83.75659942626953 87.45777893066406 84.28523254394531 88.06135559082031 85.67900085449219 87.4788818359375 C 87.63721466064453 86.20596313476562 89.27172088623047 84.48635864257812 90.61991119384766 82.65038299560547 C 91.72172546386719 81.16133117675781 91.95330047607422 79.8406753540039 91.34059143066406 78.50335693359375 C 90.5014419555664 77.51934051513672 89.36175537109375 77.07038879394531 87.86666107177734 77.4331283569336 C 86.26880645751953 78.8693618774414 84.2861099243164 81.13232421875 81.10356903076172 83.81060028076172" stroke-width="2.0" fill="rgb(255, 0, 0)" opacity="1.0" stroke="rgb(255, 0, 0)" stroke-opacity="1.0" stroke-linecap="round" stroke-linejoin="round"/>
    <path d="M 33.65309524536133 50.991294860839844 C 33.66195297241211 51.001930236816406 33.645973205566406 51.0035285949707 33.65719223022461 51.04746627807617 C 33.771480560302734 50.97138595581055 34.079891204833984 50.53483963012695 34.549652099609375 49.67848587036133 C 35.26656723022461 48.78145980834961 36.24639129638672 48.22906494140625 37.41044235229492 47.83549118041992 C 38.8046760559082 47.57379913330078 40.32199478149414 47.627525329589844 41.661678314208984 47.82479476928711 C 42.9017333984375 48.166038513183594 44.07036590576172 48.96082305908203 44.973514556884766 49.91459655761719 C 45.59515380859375 50.79494857788086 46.03825759887695 51.73623275756836 46.43130111694336 52.60601043701172 C 46.80889892578125 53.34614944458008 47.087852478027344 54.166114807128906 47.24126052856445 55.33388900756836 C 47.36787796020508 56.393741607666016 47.54212188720703 56.96734619140625 47.548614501953125 57.85708999633789 C 47.18357849121094 59.3079948425293 46.62712097167969 60.84574508666992 45.7737922668457 62.81806182861328 C 44.14030838012695 65.0464096069336 41.87759780883789 66.14221954345703 39.485504150390625 66.14971160888672 C 37.27397537231445 65.73645782470703 35.56854248046875 64.48234558105469 34.30620193481445 62.99897766113281 C 33.13246536254883 61.582637786865234 32.3914794921875 59.65679168701172 32.21902084350586 57.89780807495117 C 32.23122024536133 56.889915466308594 32.349037170410156 56.067535400390625 32.49945068359375 55.54851150512695 C 32.54257583618164 55.30330276489258 32.75352478027344 54.71571350097656 33.05261993408203 54.3359260559082 C 33.03496170043945 54.40983963012695 32.82639694213867 54.22726058959961 32.600223541259766 54.013038635253906 C 32.31581497192383 54.1494255065918 32.2039794921875 54.28688049316406 32.44717788696289 54.625343322753906 C 32.954105377197266 55.67173767089844 33.6046028137207 56.95792770385742 34.149330139160156 58.07246780395508 C 34.5080451965332 59.207332611083984 34.84012222290039 59.804466247558594 35.046958923339844 59.546852111816406 C 35.075225830078125 59.112430572509766 34.97780990600586 58.555755615234375 34.728843688964844 57.71925354003906 C 34.45287322998047 57.0433464050293 34.237693786621094 56.645294189453125 33.9255485534668 56.134517669677734" stroke-width="2.0" fill="rgb(0, 255, 0)" opacity="1.0" stroke="rgb(0, 255, 0)" stroke-opacity="1.0" stroke-linecap="round" stroke-linejoin="round"/>
    <path d="M 86.69817352294922 48.369102478027344 C 86.70611572265625 48.366355895996094 86.6748046875 48.361793518066406 86.74514770507812 48.3149299621582 C 87.18455505371094 48.26416015625 87.99800872802734 48.23237609863281 89.0361099243164 48.11525344848633 C 90.32251739501953 48.19057083129883 91.14064025878906 48.916465759277344 91.23764038085938 49.512779235839844 C 91.39044952392578 49.492557525634766 91.47439575195312 49.54851150512695 91.47606658935547 49.44063949584961 C 91.84265899658203 48.992835998535156 91.81507110595703 48.89008331298828 91.43182373046875 49.14289093017578 C 91.69776916503906 49.56047821044922 91.99465942382812 50.225101470947266 91.82334899902344 50.92796325683594 C 91.93882751464844 51.24040222167969 92.21673583984375 51.317405700683594 92.133544921875 51.67787551879883 C 91.92160034179688 51.997589111328125 91.68675994873047 51.451019287109375 91.32647705078125 50.65119934082031 C 90.93292236328125 50.150856018066406 90.39666748046875 49.19107437133789 89.62813568115234 48.2189826965332 C 89.01242065429688 47.86760711669922 88.32259368896484 47.619197845458984 86.43946838378906 47.950016021728516 C 83.94840240478516 48.76141357421875 82.6141357421875 49.7037467956543 81.40396118164062 52.307655334472656 C 79.86003875732422 56.2687873840332 80.18943786621094 59.531837463378906 81.77794647216797 62.4762077331543 C 83.08606719970703 65.01519012451172 84.61264038085938 65.80537414550781 86.43855285644531 66.00741577148438 C 87.81214904785156 66.7093734741211 89.06900787353516 66.54761505126953 90.98974609375 65.61129760742188 C 92.62126159667969 65.11923217773438 93.65026092529297 64.18917083740234 94.73234558105469 62.775760650634766 C 95.43409729003906 62.03696823120117 95.53550720214844 61.04947280883789 95.7013168334961 59.31476974487305 C 95.77972412109375 58.02531814575195 95.55068969726562 57.03335952758789 95.59951782226562 55.69700622558594 C 95.89925384521484 54.55196762084961 95.7755355834961 53.90099334716797 95.20671081542969 52.871280670166016 C 94.38448333740234 51.22541809082031 93.0940170288086 49.72189712524414 91.46012115478516 48.61016845703125 C 89.92863464355469 47.93349838256836 88.55726623535156 47.950897216796875 87.36312103271484 48.211997985839844" stroke-width="2.0" fill="rgb(0, 0, 255)" opacity="1.0" stroke="rgb(0, 0, 255)" stroke-opacity="1.0" stroke-linecap="round" stroke-linejoin="round"/>
  </g>
</svg>
