<?xml version="1.0" ?>
<svg xmlns="http://www.w3.org/2000/svg" version="1.1" width="128" height="128">
  <defs/>
  <g>
    <path d="M 1.3211334943771362 85.3995132446289 C 1.3196324110031128 85.41349029541016 1.3200117349624634 85.28984069824219 1.319484829902649 85.15447235107422 C 1.3255267143249512 85.14110565185547 1.3237826824188232 86.77297973632812 1.2298606634140015 90.91797637939453 C 1.0732464790344238 93.29265594482422 1.04465913772583 93.31922149658203 1.1910017728805542 94.50841522216797 C 1.4876364469528198 96.71700286865234 2.0928218364715576 97.83412170410156 3.2962067127227783 99.74518585205078 C 5.37280797958374 102.86544799804688 9.035965919494629 105.56282806396484 15.103121757507324 108.71040344238281 C 22.710214614868164 112.22520446777344 31.317947387695312 114.63670349121094 40.93070983886719 116.25758361816406 C 49.49148941040039 117.45000457763672 56.63165283203125 118.03410339355469 64.35758972167969 117.87608337402344 C 71.48076629638672 117.69209289550781 76.34445190429688 117.40201568603516 81.34072875976562 116.7796401977539 C 87.47000122070312 116.19615173339844 94.00199890136719 115.12046813964844 102.79476928710938 112.54859161376953 C 112.68914031982422 109.28753662109375 120.0478515625 105.48306274414062 123.94319152832031 100.63422393798828 C 125.68362426757812 98.16291046142578 126.3879623413086 97.61923217773438 126.70663452148438 95.16102600097656 C 126.88451385498047 93.84205627441406 126.90249633789062 94.31068420410156 126.82939147949219 91.8058090209961 C 126.7868881225586 88.755615234375 126.73278045654297 88.88714599609375 126.68122100830078 86.53196716308594 C 126.62174987792969 81.45606994628906 126.23929595947266 77.85807037353516 125.3871078491211 72.48700714111328 C 124.06000518798828 63.599063873291016 122.07051086425781 56.23468017578125 119.25499725341797 48.932655334472656 C 115.24266052246094 38.28646469116211 109.11077117919922 29.208829879760742 101.66922760009766 22.761445999145508 C 94.43992614746094 16.672941207885742 86.34224700927734 12.773982048034668 75.69694519042969 10.957579612731934 C 66.11832427978516 9.504541397094727 57.770320892333984 9.527620315551758 47.20840072631836 11.91258430480957 C 37.845149993896484 14.447236061096191 31.10468101501465 17.932010650634766 23.127241134643555 25.463836669921875 C 15.786507606506348 33.02533721923828 11.006396293640137 40.9879035949707 7.022660732269287 53.59071350097656" stroke-width="2.0" fill="rgb(252, 194, 27)" opacity="1.0" stroke="rgb(252, 194, 27)" stroke-opacity="1.0" stroke-linecap="round" stroke-linejoin="round"/>
    <path d="M 54.13066101074219 84.26487731933594 C 54.13176345825195 84.27725982666016 54.10635757446289 84.21295928955078 54.08979034423828 84.08340454101562 C 54.104244232177734 83.9402847290039 53.94059753417969 84.2096939086914 53.30089569091797 85.15553283691406 C 52.63652801513672 86.41641235351562 52.72731018066406 87.4558334350586 53.29552459716797 88.32879638671875 C 53.55058670043945 89.27223205566406 53.38987350463867 89.91465759277344 52.99797821044922 90.08708953857422 C 52.48238754272461 90.2155990600586 52.280128479003906 90.70069885253906 52.78038787841797 91.61932373046875 C 53.64301300048828 93.04950714111328 54.63939666748047 94.63504028320312 55.95505142211914 95.98827362060547 C 57.25831604003906 97.02973175048828 58.296478271484375 97.68463134765625 59.523494720458984 98.22991943359375 C 60.92118453979492 98.8741683959961 62.15547561645508 99.46892547607422 63.63216018676758 99.70606994628906 C 65.50889587402344 99.49459838867188 67.40519714355469 98.98457336425781 69.37197875976562 98.42591857910156 C 71.10151672363281 98.12503814697266 72.20887756347656 97.67845916748047 73.26548767089844 96.61730194091797 C 74.42221069335938 95.32587432861328 75.29753875732422 93.73678588867188 76.09677124023438 91.63839721679688 C 76.66212463378906 89.7131576538086 76.56301879882812 87.60025024414062 75.9864501953125 85.03190612792969 C 74.88101196289062 82.59919738769531 73.15130615234375 80.67725372314453 70.96891784667969 79.2173080444336 C 68.84465026855469 78.09729766845703 67.40980529785156 77.70091247558594 66.36444854736328 77.95356750488281 C 64.95111083984375 77.94281768798828 63.532493591308594 77.65495300292969 62.426429748535156 77.6830825805664 C 61.22705078125 78.4423828125 60.25897216796875 79.41545104980469 60.09782028198242 80.13253784179688 C 60.61921310424805 80.73064422607422 61.23131561279297 80.53935241699219 61.80702590942383 79.68555450439453 C 62.2678337097168 79.25465393066406 61.844261169433594 79.00051879882812 60.744590759277344 78.7393798828125 C 59.98057556152344 78.89923095703125 59.23768615722656 79.29269409179688 58.09323501586914 79.98040008544922 C 56.99125671386719 81.06104278564453 56.05535888671875 82.14453887939453 55.24921417236328 83.22068786621094" stroke-width="2.0" fill="rgb(255, 0, 0)" opacity="1.0" stroke="rgb(255, 0, 0)" stroke-opacity="1.0" stroke-linecap="round" stroke-linejoin="round"/>
    <path d="M 32.39464569091797 47.2145881652832 C 32.40315628051758 47.22600173950195 32.38758850097656 47.22795104980469 32.38827896118164 47.30939483642578 C 32.448524475097656 47.33837127685547 32.679481506347656 47.04813003540039 33.18119430541992 46.28992462158203 C 34.135047912597656 45.428367614746094 35.44630432128906 44.7789306640625 36.77587890625 44.21200180053711 C 38.01762390136719 43.709171295166016 39.16286849975586 43.68165588378906 40.15974044799805 43.93524932861328 C 41.1908073425293 44.27507019042969 42.296504974365234 44.84560775756836 43.26175308227539 45.502769470214844 C 43.94301986694336 46.07840347290039 44.37102127075195 46.74056625366211 44.71937942504883 47.39698028564453 C 45.12257385253906 47.84036636352539 45.512577056884766 48.39962387084961 45.690006256103516 49.56093978881836 C 45.67203903198242 50.881866455078125 45.60288619995117 51.70710372924805 45.49618911743164 52.57341766357422 C 45.152191162109375 53.970306396484375 44.53952407836914 55.35426330566406 43.67869567871094 56.92231750488281 C 42.386131286621094 58.73433303833008 40.5328254699707 59.72096252441406 38.18836212158203 60.118682861328125 C 35.75288772583008 60.30076599121094 33.800655364990234 59.63864517211914 32.39458465576172 58.502994537353516 C 31.289264678955078 57.30497741699219 30.6312255859375 55.617103576660156 30.447338104248047 53.93511199951172 C 30.519018173217773 52.67218780517578 30.853412628173828 51.427406311035156 31.332386016845703 50.54840850830078 C 31.730758666992188 50.145877838134766 32.13924789428711 49.60657501220703 32.48646545410156 49.37614059448242 C 32.50629806518555 49.771766662597656 32.3133544921875 50.204833984375 31.956289291381836 50.75302505493164 C 31.494665145874023 51.44790267944336 31.276344299316406 51.859188079833984 31.38808822631836 52.298553466796875 C 31.687118530273438 53.3611946105957 32.06239700317383 54.5936164855957 32.41526412963867 55.58934020996094 C 32.76203536987305 56.59355545043945 33.103187561035156 57.15503692626953 33.24101257324219 56.95712661743164 C 33.194740295410156 56.51476287841797 33.10456466674805 55.90312576293945 32.953269958496094 54.99702835083008 C 32.775047302246094 54.24977111816406 32.67481994628906 53.684940338134766 32.536399841308594 52.831974029541016" stroke-width="2.0" fill="rgb(0, 255, 0)" opacity="1.0" stroke="rgb(0, 255, 0)" stroke-opacity="1.0" stroke-linecap="round" stroke-linejoin="round"/>
    <path d="M 85.25482177734375 39.55496597290039 C 85.2657699584961 39.55964279174805 85.24139404296875 39.54816818237305 85.26396179199219 39.53312683105469 C 85.55558776855469 39.46049880981445 86.353515625 39.41135025024414 87.60667419433594 39.410213470458984 C 89.27665710449219 39.50074005126953 90.3953628540039 40.1353874206543 90.46772766113281 40.7984733581543 C 90.28973388671875 40.88798141479492 90.00592803955078 40.95937728881836 89.73844146728516 41.059600830078125 C 89.94208526611328 40.9596061706543 90.18563079833984 41.18644332885742 90.38361358642578 41.790672302246094 C 90.81195068359375 42.32349395751953 90.91964721679688 42.96459197998047 90.82691955566406 43.95914077758789 C 91.14749908447266 44.8233757019043 91.33292388916016 45.150604248046875 91.16556549072266 45.165706634521484 C 91.16680145263672 45.06675338745117 91.15323638916016 44.556182861328125 90.99993133544922 43.802066802978516 C 90.9395980834961 43.20581817626953 90.7038345336914 42.46297073364258 90.1412582397461 41.53929901123047 C 89.61337280273438 40.73413848876953 88.81148529052734 39.995182037353516 87.1688003540039 39.345664978027344 C 85.44005584716797 38.86371994018555 84.1536636352539 38.838443756103516 82.22657775878906 40.00469207763672 C 80.01219940185547 41.841644287109375 79.16521453857422 43.83366012573242 79.4524154663086 47.19386291503906 C 80.17767333984375 51.529293060302734 82.12303924560547 54.00416946411133 84.90935516357422 55.11323547363281 C 87.04151153564453 56.12264633178711 88.75582885742188 55.88240432739258 90.66133880615234 54.988826751708984 C 92.06392669677734 54.80965805053711 92.74960327148438 54.24479293823242 93.54390716552734 52.95768356323242 C 94.2700424194336 52.014259338378906 94.45130920410156 51.11445999145508 94.63565826416016 49.69230651855469 C 94.89189147949219 48.507301330566406 94.75591278076172 47.76853561401367 94.59652709960938 46.59621047973633 C 94.50511932373047 45.28792953491211 93.9193344116211 44.400577545166016 92.93017578125 43.25910186767578 C 91.91629028320312 41.69356918334961 90.6650619506836 40.55813217163086 89.27961730957031 40.00102615356445 C 88.18202209472656 39.70378112792969 87.22256469726562 39.99832534790039 86.32286071777344 40.41579818725586" stroke-width="2.0" fill="rgb(0, 0, 255)" opacity="1.0" stroke="rgb(0, 0, 255)" stroke-opacity="1.0" stroke-linecap="round" stroke-linejoin="round"/>
  </g>
</svg>
