<?xml version="1.0" ?>
<svg xmlns="http://www.w3.org/2000/svg" version="1.1" width="128" height="128">
  <defs/>
  <g>
    <path d="M 0.7805560231208801 84.5127944946289 C 0.7789754271507263 84.52889251708984 0.7799243927001953 84.40607452392578 0.7766077518463135 84.37133026123047 C 0.780221700668335 84.22343444824219 0.8081693649291992 85.65110778808594 0.8301755785942078 90.30894470214844 C 0.8235990405082703 93.64936065673828 0.8886904716491699 94.13323211669922 1.095139503479004 95.64725494384766 C 1.4505321979522705 98.14271545410156 2.1626014709472656 99.56197357177734 3.690232038497925 101.79005432128906 C 6.549386978149414 105.34268951416016 11.408342361450195 108.41329193115234 18.33755874633789 111.37325286865234 C 25.762327194213867 114.35675048828125 33.472694396972656 116.29533386230469 42.338096618652344 117.42743682861328 C 50.43344497680664 118.45690155029297 57.1510009765625 119.12372589111328 64.90087127685547 119.08893585205078 C 72.4958724975586 118.92951965332031 78.08314514160156 118.4775161743164 85.56578063964844 117.28599548339844 C 96.531982421875 115.95720672607422 108.242919921875 112.94776916503906 118.36262512207031 106.49732971191406 C 123.98809051513672 102.04240417480469 125.84403228759766 99.93637084960938 126.43403625488281 95.6708755493164 C 126.65058898925781 93.65129852294922 126.55194091796875 94.7392807006836 126.1308364868164 91.44068145751953 C 125.35653686523438 87.27962493896484 124.37212371826172 85.62287139892578 124.0810775756836 81.44674682617188 C 124.44470977783203 78.26068878173828 125.08325958251953 77.45748138427734 126.24453735351562 72.3601303100586 C 127.0601577758789 66.56825256347656 127.30595397949219 64.54298400878906 127.34232330322266 59.899208068847656 C 127.26792907714844 52.24223709106445 126.83364868164062 48.95237350463867 125.64311981201172 45.57220458984375 C 123.13571166992188 36.95744323730469 118.2042465209961 28.226806640625 110.59840393066406 21.211626052856445 C 102.70774841308594 14.551179885864258 93.59590911865234 10.93819522857666 80.96560668945312 9.44740104675293 C 69.71907043457031 8.13176441192627 60.8368034362793 8.661943435668945 48.95830535888672 12.062433242797852 C 37.63460922241211 15.92734146118164 29.49922752380371 20.877090454101562 20.5771427154541 30.55763053894043 C 13.121722221374512 39.6671257019043 8.602644920349121 47.075035095214844 5.221879005432129 57.52954864501953" stroke-width="2.0" fill="rgb(252, 194, 27)" opacity="1.0" stroke="rgb(252, 194, 27)" stroke-opacity="1.0" stroke-linecap="round" stroke-linejoin="round"/>
    <path d="M 39.811302185058594 65.99333190917969 C 39.8229866027832 66.0030746459961 39.793941497802734 65.97250366210938 39.809513092041016 65.95355987548828 C 39.90477752685547 65.93277740478516 39.99638748168945 65.89039611816406 39.849266052246094 65.62229919433594 C 39.71364974975586 65.0833740234375 39.86494445800781 65.0464859008789 39.85175704956055 65.51879119873047 C 39.48284149169922 66.07134246826172 38.83903503417969 66.72762298583984 37.888587951660156 67.2426986694336 C 36.96710205078125 67.61598205566406 36.643035888671875 67.98079681396484 36.88850021362305 68.10689544677734 C 37.46106719970703 67.9362564086914 38.2119140625 67.51692199707031 39.125244140625 66.70179748535156 C 40.212364196777344 65.54100799560547 41.36141586303711 64.21115112304688 42.5902214050293 62.90694808959961 C 44.03263473510742 61.60147476196289 45.74976348876953 60.42558288574219 47.766082763671875 59.8714599609375 C 49.818416595458984 59.97500228881836 51.68946838378906 60.49238967895508 53.45561599731445 61.81220626831055 C 54.89692687988281 63.91655349731445 55.87067413330078 66.45317077636719 56.43497848510742 69.39674377441406 C 56.726688385009766 71.96936798095703 57.009605407714844 73.61123657226562 57.10081100463867 74.86053466796875 C 56.44520568847656 75.61375427246094 54.70881271362305 75.2744140625 51.453575134277344 74.2386474609375 C 47.035400390625 73.13011169433594 42.978965759277344 72.4854736328125 39.94791030883789 72.48432922363281 C 37.64353561401367 72.69255065917969 36.3310546875 72.93278503417969 35.814537048339844 74.14110565185547 C 35.54193878173828 76.29644012451172 35.7762451171875 78.64366912841797 36.766822814941406 81.45201873779297 C 38.38655471801758 84.65642547607422 40.77300262451172 87.21686553955078 43.787086486816406 88.89802551269531 C 46.87139892578125 89.99864959716797 49.64858627319336 89.99655151367188 52.015106201171875 88.73892211914062 C 53.97774887084961 87.0073471069336 55.4743766784668 84.66168975830078 56.4457893371582 81.59046173095703 C 57.2260856628418 79.13445281982422 57.482337951660156 77.64810180664062 56.840126037597656 76.37165069580078 C 55.74301528930664 75.3358154296875 54.05913543701172 74.70021057128906 51.39413833618164 73.82124328613281" stroke-width="2.0" fill="rgb(255, 0, 0)" opacity="1.0" stroke="rgb(255, 0, 0)" stroke-opacity="1.0" stroke-linecap="round" stroke-linejoin="round"/>
    <path d="M 30.22245216369629 35.893367767333984 C 30.225906372070312 35.89478302001953 30.21853256225586 35.911956787109375 30.19150161743164 35.95584487915039 C 30.181129455566406 35.828651428222656 30.370880126953125 35.34947204589844 30.955812454223633 34.733394622802734 C 32.101539611816406 34.41678237915039 33.62168884277344 34.515438079833984 35.287452697753906 34.62791061401367 C 37.14828109741211 34.63351821899414 39.02555465698242 34.72587585449219 40.64016342163086 34.559730529785156 C 42.02891540527344 34.06940460205078 43.03025436401367 33.655025482177734 43.741241455078125 33.25823974609375 C 44.45820999145508 32.985111236572266 44.89933776855469 33.21804428100586 44.9452018737793 33.86940002441406 C 44.95700454711914 34.60689163208008 44.9832649230957 35.47407150268555 44.982669830322266 36.602474212646484 C 45.0499267578125 37.751564025878906 45.085758209228516 38.74898910522461 44.92161560058594 39.926815032958984 C 44.50756072998047 41.28428649902344 43.77553939819336 42.47371292114258 42.674503326416016 43.771141052246094 C 41.22884750366211 45.296634674072266 39.5136604309082 46.4148063659668 37.61376953125 46.935428619384766 C 35.72175979614258 47.00082015991211 34.056251525878906 46.19346237182617 32.647151947021484 44.964195251464844 C 31.500160217285156 43.987403869628906 30.720935821533203 42.89759826660156 30.23418617248535 41.66945266723633 C 29.9616756439209 40.56260681152344 29.99717903137207 39.46603775024414 30.179601669311523 38.74760437011719 C 30.332162857055664 38.59211730957031 30.639984130859375 38.51610565185547 31.0476016998291 38.657859802246094 C 31.39115333557129 39.042362213134766 31.75252342224121 39.23740005493164 31.99462890625 39.541046142578125 C 31.99858856201172 40.116512298583984 31.912517547607422 40.69923400878906 31.740345001220703 41.36918640136719 C 31.523494720458984 42.01836395263672 31.415647506713867 42.49818420410156 31.418787002563477 43.06277847290039 C 31.484655380249023 43.69580078125 31.486967086791992 44.1307373046875 31.279212951660156 44.36582946777344 C 31.028186798095703 44.50155258178711 30.892047882080078 44.42214584350586 30.746620178222656 43.946136474609375 C 30.59878158569336 43.268001556396484 30.51365852355957 42.4892578125 30.392728805541992 41.434818267822266" stroke-width="2.0" fill="rgb(0, 255, 0)" opacity="1.0" stroke="rgb(0, 255, 0)" stroke-opacity="1.0" stroke-linecap="round" stroke-linejoin="round"/>
    <path d="M 72.16024017333984 43.4683723449707 C 72.15681457519531 43.47628402709961 72.15718078613281 43.46744155883789 72.16098022460938 43.47575759887695 C 72.34095764160156 43.42127227783203 72.82218170166016 43.306007385253906 73.66778564453125 43.18578338623047 C 74.77945709228516 43.163673400878906 75.4300765991211 43.470558166503906 75.60640716552734 43.76527404785156 C 75.92147064208984 43.81490707397461 75.82366943359375 43.85408401489258 75.53639221191406 43.70440673828125 C 75.92645263671875 43.436763763427734 75.80593872070312 43.679954528808594 75.05908203125 44.17296600341797 C 75.24041748046875 44.53173065185547 75.57613372802734 45.24599075317383 75.49809265136719 46.0668830871582 C 76.17124938964844 46.40790939331055 76.94231414794922 46.61848449707031 77.04324340820312 46.954166412353516 C 77.17854309082031 47.21458435058594 77.30900573730469 47.2108268737793 77.45594787597656 47.231815338134766 C 77.92627716064453 47.55146789550781 77.9199447631836 47.511043548583984 77.08132934570312 47.11626434326172 C 76.38087463378906 46.80496597290039 75.93872833251953 46.02997970581055 74.67495727539062 45.21134948730469 C 72.9272232055664 44.941925048828125 71.73884582519531 44.66304397583008 70.5110092163086 45.01692199707031 C 69.10723876953125 46.192047119140625 68.40701293945312 47.49843215942383 68.04686737060547 49.8575439453125 C 67.66368865966797 53.04329299926758 68.30097961425781 55.13875198364258 69.80262756347656 56.804813385009766 C 71.02826690673828 58.79318618774414 72.26510620117188 59.54736328125 73.97245025634766 59.62530517578125 C 75.5016860961914 59.994197845458984 76.91053771972656 59.52171325683594 78.64067077636719 58.53706741333008 C 80.06222534179688 57.971248626708984 80.97335815429688 56.9017333984375 81.83749389648438 55.385658264160156 C 82.67999267578125 54.2505989074707 83.14655303955078 53.14728546142578 83.33975219726562 51.778079986572266 C 83.357421875 50.66706085205078 82.7199935913086 50.1557502746582 81.13379669189453 49.57987594604492 C 79.18949890136719 48.587310791015625 77.4638442993164 47.53280258178711 76.3139419555664 46.18008804321289 C 75.7693862915039 44.806175231933594 75.14020538330078 43.885311126708984 74.14543151855469 43.18362045288086" stroke-width="2.0" fill="rgb(0, 0, 255)" opacity="1.0" stroke="rgb(0, 0, 255)" stroke-opacity="1.0" stroke-linecap="round" stroke-linejoin="round"/>
  </g>
</svg>
