<?xml version="1.0" ?>
<svg xmlns="http://www.w3.org/2000/svg" version="1.1" width="128" height="128">
  <defs/>
  <g>
    <path d="M 1.4078623056411743 92.77432250976562 C 1.4046443700790405 92.82719421386719 1.4069104194641113 92.7082290649414 1.4029886722564697 92.7425765991211 C 1.4204473495483398 92.75053405761719 1.4867889881134033 94.6012191772461 1.58856201171875 99.6492691040039 C 1.7264485359191895 103.43386840820312 2.231126070022583 104.80139923095703 3.477799415588379 107.1548080444336 C 5.571122646331787 110.77032470703125 9.15073013305664 113.53018951416016 14.95110034942627 116.77920532226562 C 21.222850799560547 120.09052276611328 27.50555992126465 121.96142578125 35.372432708740234 123.471435546875 C 42.343265533447266 125.02351379394531 48.03035354614258 125.91449737548828 55.22611999511719 126.49994659423828 C 60.07655715942383 126.97312927246094 61.62444305419922 127.13240051269531 66.9676284790039 127.06621551513672 C 72.559814453125 126.9427490234375 74.56912231445312 126.51963806152344 80.80474853515625 125.53768920898438 C 91.30638885498047 124.40379333496094 99.78623962402344 122.51290893554688 110.72370910644531 117.8712158203125 C 121.13720703125 112.51792907714844 125.42615509033203 108.58805847167969 126.66641235351562 102.99384307861328 C 126.96086883544922 100.58537292480469 126.77373504638672 101.59524536132812 126.19538116455078 98.5497055053711 C 125.22864532470703 95.81421661376953 123.64237976074219 95.79670715332031 121.79080200195312 91.72552490234375 C 120.11231994628906 87.94422149658203 119.1761245727539 86.52333068847656 120.68354797363281 80.3387680053711 C 122.41362762451172 74.36396026611328 123.11991119384766 71.7584457397461 124.50276184082031 63.873558044433594 C 125.6629409790039 54.44173049926758 125.55438232421875 50.72792053222656 124.40611267089844 43.428897857666016 C 121.96038818359375 28.310054779052734 115.12556457519531 17.52179718017578 102.04646301269531 10.127655982971191 C 91.25086975097656 4.13239049911499 82.03290557861328 1.8852086067199707 72.2543716430664 1.2207856178283691 C 68.32120513916016 0.8901751041412354 68.09574890136719 0.9691178798675537 62.072265625 1.9644196033477783 C 49.882102966308594 4.418467998504639 39.03858184814453 9.600374221801758 27.30472755432129 20.75998878479004 C 16.145864486694336 32.84529113769531 10.232685089111328 42.75419235229492 6.372188091278076 56.38031768798828" stroke-width="2.0" fill="rgb(252, 194, 27)" opacity="1.0" stroke="rgb(252, 194, 27)" stroke-opacity="1.0" stroke-linecap="round" stroke-linejoin="round"/>
    <path d="M 26.558446884155273 52.648895263671875 C 26.55828285217285 52.65058898925781 26.575241088867188 52.61962890625 26.569612503051758 52.687042236328125 C 26.20306396484375 53.08291244506836 24.959888458251953 53.87522888183594 22.882938385009766 55.05542755126953 C 20.805030822753906 55.992374420166016 19.65895652770996 57.83915710449219 19.298959732055664 62.03338623046875 C 19.402780532836914 67.33811950683594 20.544757843017578 71.29217529296875 22.856739044189453 73.52661895751953 C 25.68079948425293 74.58368682861328 29.16594123840332 74.82344818115234 33.377628326416016 75.10535430908203 C 37.33420944213867 75.55902862548828 40.28175735473633 76.19438934326172 42.644466400146484 77.31746673583984 C 44.663299560546875 78.29361724853516 46.273868560791016 79.413818359375 47.70603561401367 81.22074890136719 C 49.17365646362305 82.88351440429688 50.663761138916016 84.68389129638672 52.29313278198242 87.62120819091797 C 54.35134506225586 90.69841003417969 56.9730110168457 92.91136932373047 60.396324157714844 94.91950225830078 C 64.25946044921875 96.77751159667969 68.11847686767578 97.79474639892578 72.04216003417969 97.87861633300781 C 76.01219940185547 97.80734252929688 79.67613983154297 96.64016723632812 83.16443634033203 94.06710052490234 C 86.18338775634766 91.89952850341797 88.12183380126953 89.99978637695312 89.6614990234375 87.43824768066406 C 90.93923950195312 85.6938247680664 91.35443115234375 84.71265411376953 91.60018157958984 83.04896545410156 C 92.25587463378906 81.48054504394531 92.6449203491211 80.28202819824219 92.77851867675781 78.40098571777344 C 93.03699493408203 76.065185546875 92.97506713867188 73.83670806884766 92.80792999267578 70.85198211669922 C 92.84808349609375 66.84083557128906 91.87107849121094 63.12100601196289 89.31887817382812 59.886051177978516 C 86.40298461914062 56.36840057373047 82.86820983886719 53.7857551574707 78.30315399169922 52.74761962890625 C 73.76544189453125 52.14802169799805 69.29208374023438 52.681697845458984 64.29176330566406 54.7308235168457 C 59.61391830444336 56.32836151123047 56.0120735168457 57.08110046386719 52.939083099365234 57.85071563720703 C 50.0418701171875 57.80033493041992 47.4832878112793 56.54343795776367 44.67616271972656 54.464778900146484" stroke-width="2.0" fill="rgb(255, 0, 0)" opacity="1.0" stroke="rgb(255, 0, 0)" stroke-opacity="1.0" stroke-linecap="round" stroke-linejoin="round"/>
    <path d="M 33.19777297973633 27.974224090576172 C 33.200199127197266 27.959468841552734 33.198524475097656 27.992218017578125 33.19392395019531 28.03046226501465 C 33.17875289916992 27.92142105102539 33.224613189697266 27.18251609802246 33.428829193115234 25.7629451751709 C 34.078758239746094 23.68373680114746 35.4777717590332 21.482973098754883 37.31520462036133 19.555715560913086 C 39.41757583618164 17.785877227783203 41.55107498168945 16.481231689453125 43.37417984008789 15.727304458618164 C 45.08029556274414 15.221602439880371 46.76956558227539 14.998170852661133 48.328128814697266 15.110479354858398 C 49.93174362182617 15.285679817199707 51.38315200805664 15.590592384338379 52.46099853515625 16.2038516998291 C 53.497581481933594 16.950929641723633 54.474464416503906 17.845022201538086 55.1292610168457 19.02875518798828 C 55.73887252807617 20.330440521240234 56.3509635925293 21.621206283569336 56.64067459106445 23.034181594848633 C 56.78367614746094 24.535364151000977 56.884403228759766 26.08679962158203 56.59466552734375 27.934886932373047 C 55.892852783203125 30.047304153442383 54.84215545654297 32.092952728271484 53.19905471801758 34.074989318847656 C 51.23250961303711 35.711143493652344 49.265869140625 36.41813659667969 46.88679504394531 36.59738540649414 C 44.26518630981445 36.663883209228516 42.025848388671875 36.5969123840332 39.936912536621094 36.73118209838867 C 38.036285400390625 36.70865249633789 36.9380989074707 36.10299301147461 36.487125396728516 36.00883865356445 C 36.27516174316406 36.52516555786133 36.41649627685547 36.797523498535156 36.80956268310547 37.332637786865234 C 37.415977478027344 38.21278762817383 38.481285095214844 38.60686492919922 39.952632904052734 38.811038970947266 C 41.68387222290039 39.17387771606445 43.7169075012207 39.23350524902344 45.90171813964844 38.88904571533203 C 48.05000686645508 38.29811096191406 49.956295013427734 37.449790954589844 51.28230667114258 36.440914154052734 C 51.954254150390625 35.6398811340332 51.99677658081055 35.453826904296875 51.16306686401367 35.991329193115234 C 49.65105438232422 36.82754898071289 47.960914611816406 37.45292663574219 46.125404357910156 37.86983108520508 C 44.1457633972168 38.07405090332031 42.1016731262207 38.05724334716797 39.854103088378906 37.607967376708984" stroke-width="2.0" fill="rgb(0, 255, 0)" opacity="1.0" stroke="rgb(0, 255, 0)" stroke-opacity="1.0" stroke-linecap="round" stroke-linejoin="round"/>
    <path d="M 80.31922912597656 32.657649993896484 C 80.32718658447266 32.661800384521484 80.309326171875 32.662437438964844 80.29825592041016 32.65449523925781 C 80.43354797363281 32.534324645996094 80.82058715820312 32.41624069213867 81.50868225097656 32.3164176940918 C 82.83689880371094 32.154170989990234 84.16546630859375 32.35438537597656 84.66220092773438 32.6456413269043 C 84.47843170166016 32.571285247802734 83.9729232788086 32.61588668823242 83.68428039550781 32.77607727050781 C 83.99755096435547 32.65956115722656 84.21814727783203 32.65989303588867 84.31437683105469 32.86498260498047 C 84.85006713867188 32.952789306640625 85.08111572265625 33.26011276245117 84.92269134521484 33.92783737182617 C 85.21977233886719 34.44841766357422 85.4171371459961 34.731170654296875 85.22968292236328 34.98051834106445 C 85.36284637451172 35.09105682373047 85.5234375 34.97775650024414 85.405029296875 34.843990325927734 C 85.46649932861328 34.80996322631836 85.41946411132812 34.602909088134766 84.81797790527344 34.28882598876953 C 84.38855743408203 33.92317581176758 84.2192611694336 33.296730041503906 83.31452178955078 32.68138885498047 C 82.19168853759766 32.17982482910156 81.51678466796875 31.972740173339844 80.2302474975586 32.673770904541016 C 78.64497375488281 33.63596725463867 77.68829345703125 34.512176513671875 76.63349914550781 36.74937057495117 C 75.64855194091797 40.377113342285156 76.33917999267578 43.16513442993164 78.5185775756836 45.26557922363281 C 80.44940948486328 47.18712615966797 82.00192260742188 47.35101318359375 83.79994201660156 46.475650787353516 C 85.24445343017578 46.13237762451172 86.06658172607422 45.64448165893555 86.97891235351562 44.54890441894531 C 87.9146499633789 43.62487030029297 88.39434814453125 42.74691390991211 88.77242279052734 41.22269821166992 C 89.18417358398438 39.605648040771484 89.10568237304688 38.54547882080078 88.74071502685547 37.32090377807617 C 88.4853744506836 35.88675308227539 87.91897583007812 34.87846755981445 87.00146484375 33.82427215576172 C 86.1828842163086 32.64455795288086 85.29328155517578 32.21879959106445 84.23565673828125 32.25655746459961 C 83.4753646850586 32.18600082397461 82.75750732421875 32.59934997558594 81.85333251953125 33.2058219909668" stroke-width="2.0" fill="rgb(0, 0, 255)" opacity="1.0" stroke="rgb(0, 0, 255)" stroke-opacity="1.0" stroke-linecap="round" stroke-linejoin="round"/>
  </g>
</svg>
