<?xml version="1.0" ?>
<svg xmlns="http://www.w3.org/2000/svg" version="1.1" width="128" height="128">
  <defs/>
  <g>
    <path d="M 1.621299147605896 85.2961196899414 C 1.6197792291641235 85.30912780761719 1.6202207803726196 85.177978515625 1.6223962306976318 85.03237915039062 C 1.6313135623931885 85.04631805419922 1.6246479749679565 86.63661193847656 1.5065312385559082 90.60216522216797 C 1.32199227809906 92.91132354736328 1.2990708351135254 93.01730346679688 1.4949872493743896 94.30219268798828 C 1.8794301748275757 96.65432739257812 2.627321243286133 98.11834716796875 4.043066024780273 100.14909362792969 C 6.404000759124756 103.2428207397461 10.358837127685547 106.02116394042969 16.477970123291016 109.01231384277344 C 23.87651252746582 112.20333862304688 32.17533493041992 114.46607971191406 41.41022491455078 115.98829650878906 C 49.617027282714844 117.10383605957031 56.50493621826172 117.67341613769531 64.01827239990234 117.5707015991211 C 70.95294189453125 117.4936752319336 75.70884704589844 117.26382446289062 80.56285858154297 116.65271759033203 C 86.43214416503906 116.07599639892578 92.5065689086914 115.10138702392578 100.82897186279297 112.8414077758789 C 110.69447326660156 109.91312408447266 118.65009307861328 106.04298400878906 123.21727752685547 100.9335708618164 C 125.30753326416016 98.26422119140625 126.15007019042969 97.4808120727539 126.5278549194336 94.89485931396484 C 126.73111724853516 93.63523864746094 126.74545288085938 94.16924285888672 126.62989044189453 91.79235076904297 C 126.51412200927734 88.77505493164062 126.39724731445312 88.88839721679688 126.32984924316406 86.62566375732422 C 126.2808837890625 81.56658172607422 125.87084197998047 77.68003845214844 124.9927749633789 72.00623321533203 C 123.68521881103516 63.06475830078125 121.6940689086914 55.72635269165039 118.8164291381836 48.366600036621094 C 114.72006225585938 37.883750915527344 108.59416961669922 29.026607513427734 101.25083923339844 22.719158172607422 C 94.13117980957031 16.749971389770508 86.1001205444336 12.894888877868652 75.37773895263672 11.166666984558105 C 65.54470825195312 9.84316349029541 57.06657409667969 9.922491073608398 46.64119338989258 12.390534400939941 C 37.40685272216797 15.063982009887695 30.76766586303711 18.61720848083496 23.23004913330078 25.921663284301758 C 16.289630889892578 33.09983825683594 11.657136917114258 40.67922592163086 7.612481117248535 52.87379837036133" stroke-width="2.0" fill="rgb(252, 194, 27)" opacity="1.0" stroke="rgb(252, 194, 27)" stroke-opacity="1.0" stroke-linecap="round" stroke-linejoin="round"/>
    <path d="M 41.92694854736328 77.4443359375 C 41.91658401489258 77.4717025756836 41.9266471862793 77.40361022949219 41.851898193359375 77.28520202636719 C 41.4748649597168 76.94772338867188 40.253231048583984 76.91044616699219 38.46559524536133 77.41300201416016 C 38.2368049621582 77.7928237915039 41.19551086425781 77.9715576171875 45.37558364868164 79.01536560058594 C 47.68614196777344 81.269287109375 47.169315338134766 82.95670318603516 44.36556625366211 82.62015533447266 C 40.76301574707031 81.11637115478516 38.388614654541016 80.0858383178711 38.168792724609375 80.5450439453125 C 39.841793060302734 82.59236145019531 42.801517486572266 85.27921295166016 46.37529754638672 87.54967498779297 C 49.508934020996094 89.22492218017578 51.82619857788086 90.1917495727539 54.23178482055664 90.74888610839844 C 56.692779541015625 91.44400787353516 58.923622131347656 92.09516906738281 61.44007873535156 92.27118682861328 C 64.21044921875 92.3594970703125 66.63671112060547 92.51289367675781 69.10073852539062 92.42960357666016 C 71.656982421875 92.484375 74.02603149414062 92.16050720214844 76.78185272216797 91.12977600097656 C 79.61702728271484 90.19428253173828 81.60127258300781 89.30567932128906 82.76048278808594 88.20603942871094 C 83.2544937133789 87.4184799194336 83.21963500976562 86.78564453125 83.1290283203125 86.01435089111328 C 83.25171661376953 85.64865112304688 83.45619201660156 86.01661682128906 83.34375762939453 86.42743682861328 C 82.72225952148438 86.19862365722656 82.07918548583984 85.57548522949219 81.51123809814453 85.06182098388672 C 81.0639419555664 84.89747619628906 81.39955139160156 85.3138198852539 82.29994201660156 86.28532409667969 C 82.91413116455078 87.56098175048828 83.61145782470703 88.14501953125 85.11358642578125 87.50809478759766 C 87.1117935180664 86.24691772460938 88.79994201660156 84.60826110839844 90.21817779541016 82.80248260498047 C 91.41393280029297 81.27664184570312 91.71021270751953 79.90520477294922 91.16983795166016 78.47586822509766 C 90.40202331542969 77.40541076660156 89.33111572265625 76.88499450683594 87.93855285644531 77.15592193603516 C 86.46348571777344 78.44525909423828 84.60191345214844 80.59424591064453 81.60181427001953 83.30682373046875" stroke-width="2.0" fill="rgb(255, 0, 0)" opacity="1.0" stroke="rgb(255, 0, 0)" stroke-opacity="1.0" stroke-linecap="round" stroke-linejoin="round"/>
    <path d="M 34.72214889526367 50.8201789855957 C 34.73230743408203 50.83024978637695 34.71430587768555 50.82763671875 34.72836685180664 50.8660774230957 C 34.840274810791016 50.82579040527344 35.1253776550293 50.46608352661133 35.56818771362305 49.66603088378906 C 36.282615661621094 48.822994232177734 37.23479080200195 48.30882263183594 38.30939483642578 47.97864532470703 C 39.59117126464844 47.827392578125 41.007896423339844 47.970306396484375 42.302154541015625 48.127437591552734 C 43.5052604675293 48.47019577026367 44.61299514770508 49.354549407958984 45.51122283935547 50.287410736083984 C 46.21595001220703 51.07696533203125 46.7468147277832 51.9737663269043 47.17103576660156 52.88380813598633 C 47.51216506958008 53.790672302246094 47.711273193359375 54.792724609375 47.7780647277832 55.95423889160156 C 47.77836227416992 56.97294998168945 47.78007888793945 57.68303298950195 47.62370300292969 58.74209976196289 C 47.182594299316406 60.34368896484375 46.47554397583008 61.93534469604492 45.3035888671875 63.797306060791016 C 43.445030212402344 65.7127685546875 41.21437454223633 66.43045043945312 39.086334228515625 66.12239074707031 C 37.1605224609375 65.43172454833984 35.62075424194336 64.13389587402344 34.4078483581543 62.622318267822266 C 33.40135955810547 61.037593841552734 32.910709381103516 59.06570816040039 32.893157958984375 57.43423843383789 C 32.981258392333984 56.56691360473633 33.210914611816406 55.86884307861328 33.5633544921875 55.37763595581055 C 33.82466506958008 55.063232421875 34.1030158996582 54.31814956665039 34.33419418334961 53.73357009887695 C 34.181053161621094 53.791175842285156 33.845367431640625 53.78098678588867 33.529170989990234 53.680030822753906 C 33.14344024658203 53.79355239868164 32.96875762939453 53.801246643066406 33.262088775634766 53.96049118041992 C 33.8173713684082 54.958377838134766 34.37704086303711 56.29151916503906 34.84676742553711 57.37178421020508 C 35.255550384521484 58.48154067993164 35.622135162353516 59.16998291015625 35.86873245239258 58.9646110534668 C 36.050846099853516 58.49834060668945 36.133689880371094 57.94319152832031 36.05989074707031 57.122093200683594 C 35.89988708496094 56.49192810058594 35.70081329345703 56.12171173095703 35.38840866088867 55.58843994140625" stroke-width="2.0" fill="rgb(0, 255, 0)" opacity="1.0" stroke="rgb(0, 255, 0)" stroke-opacity="1.0" stroke-linecap="round" stroke-linejoin="round"/>
    <path d="M 90.5889892578125 54.57622528076172 C 90.59501647949219 54.58496856689453 90.56915283203125 54.563350677490234 90.62564849853516 54.541019439697266 C 90.92694854736328 54.482017517089844 91.25426483154297 54.4035530090332 91.3818130493164 54.2593994140625 C 91.68364715576172 54.26919937133789 91.80518341064453 54.59429931640625 91.47478485107422 54.6168098449707 C 91.6192626953125 54.39153289794922 92.19139862060547 54.49192428588867 92.72359466552734 54.429569244384766 C 93.33483123779297 54.060543060302734 93.60301208496094 53.828033447265625 93.84032440185547 53.32725143432617 C 94.81764221191406 52.71333312988281 95.6982650756836 52.56547546386719 95.89713287353516 52.607486724853516 C 96.02194213867188 52.64178466796875 96.01757049560547 52.78168487548828 95.3680191040039 53.245330810546875 C 94.3360366821289 53.77713394165039 93.46690368652344 53.6013069152832 92.77267456054688 53.244056701660156 C 91.87405395507812 53.3754997253418 90.58087921142578 53.32404327392578 88.98324584960938 53.43400573730469 C 87.47515869140625 54.101661682128906 86.13993072509766 54.739349365234375 83.70852661132812 56.11412811279297 C 80.0362319946289 58.26116180419922 77.16129302978516 59.84865188598633 75.38175201416016 62.00850296020508 C 74.5189208984375 64.61385345458984 75.95250701904297 65.48271179199219 79.17707061767578 65.2699966430664 C 82.34814453125 65.12366485595703 85.93344116210938 64.57096099853516 90.1072998046875 64.4650650024414 C 93.58401489257812 65.25865173339844 96.18843078613281 65.6547622680664 98.44673156738281 65.41989135742188 C 99.86398315429688 64.90438079833984 99.90480041503906 63.55863571166992 99.10482025146484 61.86811065673828 C 97.37213897705078 61.14303207397461 93.94760131835938 60.84638595581055 90.18067169189453 59.81366729736328 C 89.0478515625 58.474300384521484 90.78849029541016 57.33635711669922 93.76940155029297 56.249507904052734 C 96.526123046875 55.50407409667969 98.17701721191406 55.0393180847168 98.91477966308594 53.95037841796875 C 99.14555358886719 52.3134651184082 98.50347137451172 51.15109634399414 96.65925598144531 50.92854690551758 C 93.99899291992188 51.556724548339844 91.17059326171875 52.739437103271484 88.72187805175781 53.864471435546875" stroke-width="2.0" fill="rgb(0, 0, 255)" opacity="1.0" stroke="rgb(0, 0, 255)" stroke-opacity="1.0" stroke-linecap="round" stroke-linejoin="round"/>
  </g>
</svg>
